<svg width="86" height="69" viewBox="0 0 86 69" fill="none" xmlns="http://www.w3.org/2000/svg">
<path d="M51.3446 7.56741L30.089 45.4294C27.853 49.414 26.6899 53.9527 26.7092 58.6232L26.7487 68.3575L36.0435 61.297C38.7983 59.2029 41.1014 56.5686 42.8171 53.5407L64.391 15.4701C66.8353 11.1559 64.3121 5.48829 59.3869 4.22679C56.1828 3.39978 52.9231 4.75678 51.3446 7.56741Z" fill="#F7C5A8"/>
<path d="M51.3202 7.58005L30.0887 45.4303C27.8552 49.4137 26.6948 53.9519 26.7168 58.6226L26.762 68.3573L28.3117 61.1618C29.0572 60.5961 29.5537 54.5574 32.8403 48.1506C51.5906 11.5913 59.3585 4.23801 59.3585 4.23801C56.1555 3.41527 52.897 4.77029 51.3202 7.58005Z" fill="#FDF3E8"/>
<path d="M26.546 68.3581L35.8719 61.2655C38.6359 59.1618 40.9467 56.5155 42.6682 53.4738L64.3143 15.2296" stroke="black" stroke-miterlimit="10"/>
<path d="M26.2744 68.3581L32.0949 63.9416C30.36 62.3343 28.3342 61.2272 26.2421 60.6641L26.2744 68.3581Z" fill="black"/>
</svg>
