<svg width="66" height="67" viewBox="0 0 66 67" fill="none" xmlns="http://www.w3.org/2000/svg">
<g clip-path="url(#clip0)">
<path d="M44.9914 9.50286C35.708 9.50286 27.755 5.70211 24.4958 0.124512C21.2272 5.70211 13.3026 9.34132 4.00029 9.34132H0V40.1559C0.00145303 43.7246 0.94165 47.2301 2.72621 50.3206C4.51077 53.411 7.0769 55.9777 10.167 57.7629L24.4958 66.0295L38.8246 57.7629C41.9136 55.9772 44.4784 53.4102 46.2613 50.3197C48.0443 47.2291 48.9826 43.7238 48.9821 40.1559V9.50286H44.9914Z" fill="#FDF3E8"/>
<path d="M38.8244 57.7619C41.9134 55.9762 44.4782 53.4092 46.2611 50.3187C48.0441 47.2281 48.9824 43.7229 48.9819 40.1549V9.50188H44.9911C35.7078 9.50188 27.7547 5.70113 24.4956 0.123535V66.0285L38.8244 57.7619Z" fill="#F7C5A8"/>
<path d="M24.4956 66.0285L38.8244 57.7619C41.9134 55.9762 44.4782 53.4092 46.2611 50.3187C48.0441 47.2281 48.9824 43.7229 48.9819 40.1549V9.50188H44.9911C35.7078 9.50188 27.7547 5.70113 24.4956 0.123535" stroke="black" stroke-width="0.5" stroke-miterlimit="10"/>
<path d="M49.514 49.4383C58.4929 49.4383 65.7717 42.1594 65.7717 33.1806C65.7717 24.2017 58.4929 16.9229 49.514 16.9229C40.5352 16.9229 33.2563 24.2017 33.2563 33.1806C33.2563 42.1594 40.5352 49.4383 49.514 49.4383Z" fill="#FDF3E8" stroke="black" stroke-width="0.5" stroke-miterlimit="10"/>
<path d="M58.3889 27.6506L57.2962 26.5483L46.236 37.618L41.7226 33.1046L40.6299 34.2069L46.236 39.813L47.3287 38.7107L58.3889 27.6506Z" fill="black"/>
</g>
<defs>
<clipPath id="clip0">
<rect width="66" height="66.2375" fill="white"/>
</clipPath>
</defs>
</svg>
