<svg width="40" height="55" viewBox="0 0 40 55" fill="none" xmlns="http://www.w3.org/2000/svg">
<path d="M36.1778 8.48477C28.7126 8.48477 22.3247 5.50622 19.696 1.00305C17.0699 5.50622 10.682 8.38633 3.21423 8.38633C2.13944 8.38633 0 8.38633 0 8.38633V33.0654C0 38.8812 3.11537 44.2527 8.17245 47.1605L19.696 53.7865L31.2196 47.1605C36.2767 44.2527 39.392 38.8812 39.392 33.0654V8.48477C39.392 8.48477 37.2526 8.48477 36.1778 8.48477Z" fill="#FDF3E8"/>
<path d="M31.2199 47.1601C36.2769 44.2522 39.3923 38.8807 39.3923 33.065V8.48435C39.3923 8.48435 37.2529 8.48435 36.1781 8.48435C28.7129 8.48435 22.325 5.50579 19.6963 1.00262V53.7836L31.2199 47.1601Z" fill="#F7C5A8"/>
<path d="M30.6795 22.2387L29.5007 21.0649L17.6223 32.8933L12.7832 28.0746L11.6045 29.2484L17.6223 35.2408L18.801 34.0671L30.6795 22.2387Z" fill="black"/>
<path d="M19.6963 53.7835L31.2199 47.1575C36.2769 44.2496 39.3923 38.8781 39.3923 33.0624V8.48172H36.1781C28.7129 8.48172 22.325 5.50317 19.6963 1" stroke="black" stroke-miterlimit="10"/>
</svg>
