<svg width="71" height="71" viewBox="0 0 71 71" fill="none" xmlns="http://www.w3.org/2000/svg">
<path d="M31.3311 9.17407C14.5792 9.17407 1 22.7533 1 39.5052C1 56.2571 14.5792 69.8363 31.3311 69.8363C48.083 69.8363 61.6622 56.2571 61.6622 39.5052H31.3311V9.17407Z" fill="#FDF3E8"/>
<path d="M61.6622 39.5051H31.3311L55.7409 57.5061C59.4613 52.4698 61.6622 46.2446 61.6622 39.5051Z" fill="black"/>
<path d="M31.3311 0V39.5052H70.833C70.833 17.687 53.1493 0 31.3311 0Z" fill="#F7C5A8"/>
<path d="M1 39.5051C1 56.257 14.5792 69.8362 31.3311 69.8362C48.083 69.8362 61.6622 56.257 61.6622 39.5051" stroke="black" stroke-miterlimit="10"/>
<path d="M31.3311 39.5051H70.833" stroke="black" stroke-width="0.3669" stroke-miterlimit="10"/>
</svg>
