<svg width="720" height="900" viewBox="0 -270 720 900" fill="none" xmlns="http://www.w3.org/2000/svg">
<path d="M514.8 393C575.31 393 631.8 361.12 661.68 308.53C662.22 307.53 662.77 306.59 663.3 305.6C711.85 216.25 678.23 87.19 600.66 46.4C556.83 23.4 505.77 32.07 485.1 35.6C435.55 44.06 425.82 62.74 384.66 77.72C274.78 117.72 209.58 33.51 117.9 77.72C72 99.87 51.17 139.18 45.54 150.08C9.77 219.37 21.94 322.08 86.12 368.08C114.68 388.59 146 392.38 163.88 393H514.8Z" fill="#6D4558"/>
<path d="M640.04 259.12V379.15V379.75V393L653.29 379.75H688.39L701.64 393V379.75V379.15V259.12H640.04Z" fill="#FDF3E8"/>
<path d="M701.54 259.12H640.04V265.02H701.54V259.12Z" fill="#F8C5A8"/>
<path d="M630 250.56H701.59V259.12H630C628.865 259.12 627.776 258.669 626.974 257.866C626.171 257.064 625.72 255.975 625.72 254.84V254.84C625.72 253.705 626.171 252.616 626.974 251.814C627.776 251.011 628.865 250.56 630 250.56V250.56Z" fill="#FDF3E8"/>
<path d="M701.64 250.56H682.28V259.12H701.64V250.56Z" fill="#F8C5A8"/>
<path d="M701.64 393V259.12H682.28V379.75H688.39L701.64 393Z" fill="#F8C5A8"/>
<path d="M640.04 259.12V379.15V379.75V393L653.29 379.75H688.39L701.64 393V379.75V379.15V259.12H640.04Z" stroke="#6D4558" stroke-linecap="round" stroke-linejoin="round"/>
<path d="M630 250.56H701.59V259.12H630C628.865 259.12 627.776 258.669 626.974 257.866C626.171 257.064 625.72 255.975 625.72 254.84V254.84C625.72 253.705 626.171 252.616 626.974 251.814C627.776 251.011 628.865 250.56 630 250.56V250.56Z" stroke="#6D4558" stroke-linecap="round" stroke-linejoin="round"/>
<path d="M532.12 279.07C537.111 277.878 542.228 277.29 547.36 277.32C562.12 277.42 569.21 282.67 573.76 279.24C576.34 277.29 578.28 272.38 575.2 259.32C569.974 258.25 564.586 258.25 559.36 259.32C542.92 262.73 534.14 275.85 532.12 279.07Z" fill="#9DDFD3"/>
<path d="M532.12 279.07C537.111 277.878 542.228 277.29 547.36 277.32C562.12 277.42 569.21 282.67 573.76 279.24C576.34 277.29 578.28 272.38 575.2 259.32C569.974 258.25 564.586 258.25 559.36 259.32C542.92 262.73 534.14 275.85 532.12 279.07Z" stroke="#6D4558" stroke-linecap="round" stroke-linejoin="round"/>
<path d="M529.37 134.52C528.57 142.41 527.56 151.14 526.24 160.59C524.31 174.45 523.34 181.37 522.4 184.92C522.4 184.92 516.52 214.58 514.8 221.92C514.62 222.667 514.674 223.452 514.955 224.167C515.236 224.883 515.73 225.495 516.37 225.92V225.92C517.97 226.953 519.746 227.682 521.61 228.07C527.77 216.6 538.33 192.78 535.61 162.56C534.753 152.983 532.656 143.557 529.37 134.52V134.52Z" fill="#9DDFD3"/>
<path d="M593.93 361.16H576.81V133.53L591.89 118.45C592.277 118.083 592.587 117.641 592.801 117.152C593.016 116.663 593.13 116.136 593.137 115.602C593.144 115.069 593.045 114.539 592.844 114.044C592.643 113.549 592.346 113.1 591.968 112.722C591.591 112.344 591.142 112.045 590.648 111.844C590.153 111.642 589.624 111.542 589.09 111.548C588.556 111.554 588.029 111.668 587.539 111.881C587.05 112.094 586.608 112.403 586.24 112.79L576.81 122.22V75.22C576.81 74.1591 576.389 73.1417 575.638 72.3916C574.888 71.6414 573.871 71.22 572.81 71.22C571.749 71.22 570.732 71.6414 569.982 72.3916C569.231 73.1417 568.81 74.1591 568.81 75.22V101.28L559.37 91.85C558.613 91.1322 557.606 90.7384 556.563 90.7527C555.52 90.7669 554.523 91.1881 553.786 91.9264C553.05 92.6646 552.63 93.6616 552.618 94.7047C552.605 95.7477 553.001 96.7544 553.72 97.51L568.81 112.6V361.16H551.69C543.248 361.168 535.154 364.525 529.185 370.495C523.215 376.464 519.858 384.558 519.85 393H527.85C527.855 386.679 530.369 380.618 534.838 376.148C539.308 371.679 545.369 369.165 551.69 369.16H593.93C600.25 369.168 606.31 371.682 610.779 376.151C615.248 380.62 617.762 386.68 617.77 393H625.77C625.759 384.559 622.401 376.466 616.433 370.497C610.464 364.529 602.371 361.171 593.93 361.16V361.16Z" fill="#FF847C"/>
<path d="M593.93 361.16H576.81V133.53L591.89 118.45C592.277 118.083 592.587 117.641 592.801 117.152C593.016 116.663 593.13 116.136 593.137 115.602C593.144 115.069 593.045 114.539 592.844 114.044C592.643 113.549 592.346 113.1 591.968 112.722C591.591 112.344 591.142 112.045 590.648 111.844C590.153 111.642 589.624 111.542 589.09 111.548C588.556 111.554 588.029 111.668 587.539 111.881C587.05 112.094 586.608 112.403 586.24 112.79L576.81 122.22V75.22C576.81 74.1591 576.389 73.1417 575.638 72.3916C574.888 71.6414 573.871 71.22 572.81 71.22C571.749 71.22 570.732 71.6414 569.982 72.3916C569.231 73.1417 568.81 74.1591 568.81 75.22V101.28L559.37 91.85C558.613 91.1322 557.606 90.7384 556.563 90.7527C555.52 90.7669 554.523 91.1881 553.786 91.9264C553.05 92.6646 552.63 93.6616 552.618 94.7047C552.605 95.7477 553.001 96.7544 553.72 97.51L568.81 112.6V361.16H551.69C543.248 361.168 535.154 364.525 529.185 370.495C523.215 376.464 519.858 384.558 519.85 393H527.85C527.855 386.679 530.369 380.618 534.838 376.148C539.308 371.679 545.369 369.165 551.69 369.16H593.93C600.25 369.168 606.31 371.682 610.779 376.151C615.248 380.62 617.762 386.68 617.77 393H625.77C625.759 384.559 622.401 376.466 616.433 370.497C610.464 364.529 602.371 361.171 593.93 361.16V361.16Z" stroke="#6D4558" stroke-linecap="round" stroke-linejoin="round"/>
<path d="M529.37 134.52C527.78 150.37 525.52 167.22 522.37 184.92C520.08 197.86 517.51 210.2 514.77 221.92C514.59 222.667 514.644 223.452 514.925 224.167C515.206 224.883 515.7 225.495 516.34 225.92V225.92C517.94 226.953 519.716 227.682 521.58 228.07" stroke="#6D4558" stroke-linecap="round" stroke-linejoin="round"/>
<path d="M556.54 85.74C565.17 89.09 564.45 109.04 564.64 123.54C564.99 151.54 571.26 179.13 574.9 206.88C580.06 246.36 582.82 263.88 573.82 269.52C566.82 273.88 560.3 266.28 546.64 272.04C539.04 275.24 533.78 280.66 524.9 279.73C522.77 279.51 520.51 279.27 518.56 277.8C511.03 272.15 515.73 254.09 517.48 247.02C523.29 224.73 526.54 197.19 528.28 179.52C531.73 144.41 525.78 114.11 534.04 98.52C535.23 96.27 538.42 90.24 545.2 87.18C546.41 86.63 552.32 84.11 556.54 85.74Z" fill="#BAE8E0"/>
<path d="M573.82 269.52C582.82 263.92 580.06 246.36 574.9 206.88C572.16 186.01 567.9 165.22 565.9 144.29C565.117 150.593 564.713 156.938 564.69 163.29C564.59 184.94 568.95 200.91 572.61 236.01C573.69 246.44 574.61 257.36 568.77 261.21C565.35 263.46 561.98 261.74 556.05 263.13C547.88 265.05 542.32 271.13 538.88 276.05C541.408 274.581 544.012 273.246 546.68 272.05C560.3 266.28 566.81 273.88 573.82 269.52Z" fill="#9DDFD3"/>
<path d="M556.54 85.74C565.17 89.09 564.45 109.04 564.64 123.54C564.99 151.54 571.26 179.13 574.9 206.88C580.06 246.36 582.82 263.88 573.82 269.52C566.82 273.88 560.3 266.28 546.64 272.04C539.04 275.24 533.78 280.66 524.9 279.73C522.77 279.51 520.51 279.27 518.56 277.8C511.03 272.15 515.73 254.09 517.48 247.02C523.29 224.73 526.54 197.19 528.28 179.52C531.73 144.41 525.78 114.11 534.04 98.52C535.23 96.27 538.42 90.24 545.2 87.18C546.41 86.63 552.32 84.11 556.54 85.74Z" stroke="#6D4558" stroke-linecap="round" stroke-linejoin="round"/>
<path d="M543.7 134.9C543.19 144.07 542.37 152.02 541.55 158.46C538.85 179.55 534.97 193.64 535.97 214.8C536.38 223.58 537.55 231.87 542.27 233.7C544.6 234.61 547.27 233.7 552.71 231.9C556.748 230.548 560.648 228.817 564.36 226.73C552.573 197.432 545.596 166.423 543.7 134.9V134.9Z" fill="#9DDFD3"/>
<path d="M542.56 120.36C542.91 123.61 543.44 129.12 543.76 135.96C545.12 165.27 540.67 178.24 542.08 205.08C542.32 209.66 542.83 216.55 544.08 225.01C544.193 225.78 544.558 226.492 545.116 227.034C545.675 227.576 546.397 227.919 547.17 228.01C553.701 228.736 560.312 228.075 566.57 226.07C567.239 225.854 567.809 225.406 568.176 224.806C568.543 224.206 568.683 223.494 568.57 222.8C565.97 206.12 563.86 187.74 562.72 167.87C561.544 147.556 561.463 127.193 562.48 106.87" fill="#BAE8E0"/>
<path d="M568.57 222.81C565.97 206.13 563.86 187.75 562.72 167.88C561.61 148.71 561.55 130.81 562.16 114.39C560.119 121.597 558.779 128.985 558.16 136.45C556.34 158.97 559.93 198.45 563.16 214.63C563.782 217.054 563.549 219.618 562.5 221.89C560.05 226.52 553.66 227.8 549.5 228.22C551.832 228.37 554.172 228.34 556.5 228.13C559.923 227.836 563.304 227.165 566.58 226.13C567.257 225.911 567.832 225.454 568.198 224.844C568.564 224.233 568.696 223.511 568.57 222.81Z" fill="#9DDFD3"/>
<path d="M542.56 120.36C542.91 123.61 543.44 129.12 543.76 135.96C545.12 165.27 540.67 178.24 542.08 205.08C542.32 209.66 542.83 216.55 544.08 225.01C544.193 225.78 544.558 226.492 545.116 227.034C545.675 227.576 546.397 227.919 547.17 228.01C553.701 228.736 560.312 228.075 566.57 226.07C567.239 225.854 567.809 225.406 568.176 224.806C568.543 224.206 568.683 223.494 568.57 222.8C565.97 206.12 563.86 187.74 562.72 167.87C561.544 147.556 561.463 127.193 562.48 106.87" stroke="#6D4558" stroke-linecap="round" stroke-linejoin="round"/>
<path d="M290.48 209.04H107.72C104.638 209.04 102.14 211.538 102.14 214.62V265.38C102.14 268.462 104.638 270.96 107.72 270.96H290.48C293.562 270.96 296.06 268.462 296.06 265.38V214.62C296.06 211.538 293.562 209.04 290.48 209.04Z" fill="#FFBF8A"/>
<path d="M202.78 209C202.254 212.454 202.146 215.96 202.46 219.44C203.56 230.94 208.79 234.96 208.22 246.56C208.06 250 207.82 253.92 205.34 257.84C203.01 261.53 200.34 262.55 195.5 266.96C194.01 268.31 192.69 269.64 191.5 270.96H238.6C229.318 251.68 225.063 230.366 226.23 209H202.78Z" fill="#FF847C"/>
<path d="M300.86 282.12H97.34C93.7612 282.12 90.86 285.021 90.86 288.6C90.86 292.179 93.7612 295.08 97.34 295.08H300.86C304.439 295.08 307.34 292.179 307.34 288.6C307.34 285.021 304.439 282.12 300.86 282.12Z" fill="#FFBF8A"/>
<path d="M199.76 287.52C200.8 290.388 202.491 292.976 204.7 295.08H254C253.9 294.03 253.76 292.96 253.55 291.84C252.921 288.461 251.816 285.189 250.27 282.12H198.69C198.79 283.962 199.15 285.78 199.76 287.52V287.52Z" fill="#FF847C"/>
<path d="M105.98 295.08H98.3V393H105.98V295.08Z" fill="#FFBF8A"/>
<path d="M299.9 295.08H292.22V393H299.9V295.08Z" fill="#FFBF8A"/>
<path d="M121.16 270.96H115.4V282.12H121.16V270.96Z" fill="#FFBF8A"/>
<path d="M282.8 270.96H277.04V282.12H282.8V270.96Z" fill="#FFBF8A"/>
<path d="M300.86 282.12H97.34C93.7612 282.12 90.86 285.021 90.86 288.6C90.86 292.179 93.7612 295.08 97.34 295.08H300.86C304.439 295.08 307.34 292.179 307.34 288.6C307.34 285.021 304.439 282.12 300.86 282.12Z" stroke="#6D4558" stroke-linecap="round" stroke-linejoin="round"/>
<path d="M105.98 295.08H98.3V393H105.98V295.08Z" stroke="#6D4558" stroke-linecap="round" stroke-linejoin="round"/>
<path d="M299.9 295.08H292.22V393H299.9V295.08Z" stroke="#6D4558" stroke-linecap="round" stroke-linejoin="round"/>
<path d="M290.48 209.04H107.72C104.638 209.04 102.14 211.538 102.14 214.62V265.38C102.14 268.462 104.638 270.96 107.72 270.96H290.48C293.562 270.96 296.06 268.462 296.06 265.38V214.62C296.06 211.538 293.562 209.04 290.48 209.04Z" stroke="#6D4558" stroke-linecap="round" stroke-linejoin="round"/>
<path d="M121.16 270.96H115.4V282.12H121.16V270.96Z" stroke="#6D4558" stroke-linecap="round" stroke-linejoin="round"/>
<path d="M282.8 270.96H277.04V282.12H282.8V270.96Z" stroke="#6D4558" stroke-linecap="round" stroke-linejoin="round"/>
<path d="M364.4 106.6V32.52C364.401 31.8263 364.266 31.1391 364.001 30.4979C363.736 29.8567 363.347 29.2741 362.856 28.7835C362.366 28.293 361.783 27.9041 361.142 27.6392C360.501 27.3744 359.814 27.2387 359.12 27.24H214.88C214.186 27.2387 213.499 27.3744 212.858 27.6392C212.217 27.9041 211.634 28.293 211.144 28.7835C210.653 29.2741 210.264 29.8567 209.999 30.4979C209.734 31.1391 209.599 31.8263 209.6 32.52V119.52C209.599 120.214 209.734 120.901 209.999 121.542C210.264 122.183 210.653 122.766 211.144 123.256C211.634 123.747 212.217 124.136 212.858 124.401C213.499 124.666 214.186 124.801 214.88 124.8H371.38C371.863 124.798 372.335 124.66 372.741 124.399C373.147 124.139 373.471 123.769 373.675 123.331C373.879 122.894 373.953 122.407 373.89 121.929C373.827 121.451 373.63 121 373.32 120.63L366.62 112.63C365.193 110.944 364.407 108.809 364.4 106.6Z" fill="#FDF3E8"/>
<path d="M241.4 77.16H227.24V91.32H241.4V77.16Z" fill="#8ABAF1"/>
<path d="M241.4 100.92H227.24V115.08H241.4V100.92Z" fill="#FF847C"/>
<path d="M241.4 77.16H236.24V91.32H241.4V77.16Z" fill="#6986C5"/>
<path d="M241.4 100.92H236.24V115.08H241.4V100.92Z" fill="#ED6663"/>
<path d="M234.32 48.32C237.17 48.32 239.48 46.0098 239.48 43.16C239.48 40.3102 237.17 38 234.32 38C231.47 38 229.16 40.3102 229.16 43.16C229.16 46.0098 231.47 48.32 234.32 48.32Z" fill="#BAE8E0"/>
<path d="M234.32 52.16C231.074 52.16 227.96 53.4496 225.665 55.745C223.37 58.0405 222.08 61.1538 222.08 64.4H246.56C246.56 61.1538 245.27 58.0405 242.975 55.745C240.68 53.4496 237.566 52.16 234.32 52.16V52.16Z" fill="#BAE8E0"/>
<path d="M234.32 38C233.853 38.008 233.389 38.0787 232.94 38.21C234.026 38.5056 234.985 39.1504 235.669 40.045C236.353 40.9395 236.723 42.0341 236.723 43.16C236.723 44.2859 236.353 45.3805 235.669 46.275C234.985 47.1696 234.026 47.8144 232.94 48.11C233.389 48.2413 233.853 48.312 234.32 48.32C235.689 48.32 237.001 47.7764 237.969 46.8087C238.936 45.841 239.48 44.5285 239.48 43.16C239.48 41.7915 238.936 40.479 237.969 39.5113C237.001 38.5436 235.689 38 234.32 38V38Z" fill="#9DDFD3"/>
<path d="M234.32 52.16C233.555 52.1619 232.791 52.2356 232.04 52.38C234.844 52.9019 237.377 54.3865 239.203 56.5774C241.029 58.7684 242.032 61.5281 242.04 64.38H246.6C246.597 62.7709 246.278 61.1782 245.659 59.6928C245.04 58.2075 244.134 56.8588 242.994 55.7238C241.853 54.5888 240.5 53.6898 239.012 53.0783C237.523 52.4668 235.929 52.1547 234.32 52.16V52.16Z" fill="#9DDFD3"/>
<path d="M364.4 106.6V32.52C364.401 31.8263 364.266 31.1391 364.001 30.4979C363.736 29.8567 363.347 29.2741 362.856 28.7835C362.366 28.293 361.783 27.9041 361.142 27.6392C360.501 27.3744 359.814 27.2387 359.12 27.24H214.88C214.186 27.2387 213.499 27.3744 212.858 27.6392C212.217 27.9041 211.634 28.293 211.144 28.7835C210.653 29.2741 210.264 29.8567 209.999 30.4979C209.734 31.1391 209.599 31.8263 209.6 32.52V119.52C209.599 120.214 209.734 120.901 209.999 121.542C210.264 122.183 210.653 122.766 211.144 123.256C211.634 123.747 212.217 124.136 212.858 124.401C213.499 124.666 214.186 124.801 214.88 124.8H371.38C371.863 124.798 372.335 124.66 372.741 124.399C373.147 124.139 373.471 123.769 373.675 123.331C373.879 122.894 373.953 122.407 373.89 121.929C373.827 121.451 373.63 121 373.32 120.63L366.62 112.63C365.193 110.944 364.407 108.809 364.4 106.6Z" stroke="#6D4558" stroke-linecap="round" stroke-linejoin="round"/>
<path d="M234.32 48.32C237.17 48.32 239.48 46.0098 239.48 43.16C239.48 40.3102 237.17 38 234.32 38C231.47 38 229.16 40.3102 229.16 43.16C229.16 46.0098 231.47 48.32 234.32 48.32Z" stroke="#6D4558" stroke-linecap="round" stroke-linejoin="round"/>
<path d="M234.32 52.16C231.074 52.16 227.96 53.4496 225.665 55.745C223.37 58.0405 222.08 61.1538 222.08 64.4H246.56C246.56 61.1538 245.27 58.0405 242.975 55.745C240.68 53.4496 237.566 52.16 234.32 52.16V52.16Z" stroke="#6D4558" stroke-linecap="round" stroke-linejoin="round"/>
<path d="M253.88 44.5H284.12" stroke="#6D4558" stroke-width="2" stroke-linecap="round" stroke-linejoin="round"/>
<path d="M253.88 52.14H311" stroke="#6D4558" stroke-width="2" stroke-linecap="round" stroke-linejoin="round"/>
<path d="M253.88 80.42H269" stroke="#6D4558" stroke-width="2" stroke-linecap="round" stroke-linejoin="round"/>
<path d="M253.88 88.06H341.24" stroke="#6D4558" stroke-width="2" stroke-linecap="round" stroke-linejoin="round"/>
<path d="M253.88 104.18H312.2" stroke="#6D4558" stroke-width="2" stroke-linecap="round" stroke-linejoin="round"/>
<path d="M253.88 111.82H275.72" stroke="#6D4558" stroke-width="2" stroke-linecap="round" stroke-linejoin="round"/>
<path d="M241.4 77.16H227.24V91.32H241.4V77.16Z" stroke="#6D4558" stroke-linecap="round" stroke-linejoin="round"/>
<path d="M241.4 100.92H227.24V115.08H241.4V100.92Z" stroke="#6D4558" stroke-linecap="round" stroke-linejoin="round"/>
<path d="M336.92 44.5H356.12" stroke="#6D4558" stroke-width="2" stroke-linecap="round" stroke-linejoin="round"/>
<path d="M336.92 52.16H356.12" stroke="#6D4558" stroke-width="2" stroke-linecap="round" stroke-linejoin="round"/>
<path d="M420.43 378.86C418.43 383.69 416.69 386.59 414.65 391.42C414.443 391.896 414.1 392.299 413.664 392.581C413.228 392.862 412.719 393.008 412.2 393H384.68C384.504 393.006 384.331 392.956 384.185 392.856C384.04 392.757 383.93 392.614 383.871 392.449C383.812 392.283 383.807 392.102 383.857 391.934C383.907 391.765 384.01 391.617 384.15 391.51C386.04 390.087 388.143 388.97 390.38 388.2C396.62 386.06 400.94 387.72 404.52 384.74C406.192 383.257 407.304 381.245 407.67 379.04C409.479 377.606 411.711 376.811 414.019 376.779C416.327 376.746 418.581 377.478 420.43 378.86V378.86Z" fill="#6986C5"/>
<path d="M420.43 378.86C418.43 383.69 416.69 386.59 414.65 391.42C414.443 391.896 414.1 392.299 413.664 392.581C413.228 392.862 412.719 393.008 412.2 393H384.68C384.504 393.006 384.331 392.956 384.185 392.856C384.04 392.757 383.93 392.614 383.871 392.449C383.812 392.283 383.807 392.102 383.857 391.934C383.907 391.765 384.01 391.617 384.15 391.51C386.04 390.087 388.143 388.97 390.38 388.2C396.62 386.06 400.94 387.72 404.52 384.74C406.192 383.257 407.304 381.245 407.67 379.04C409.479 377.606 411.711 376.811 414.019 376.779C416.327 376.746 418.581 377.478 420.43 378.86V378.86Z" stroke="#6D4558" stroke-linecap="round" stroke-linejoin="round"/>
<path d="M505.31 376.86L508.88 383.58C508.958 383.725 509.004 383.886 509.016 384.05C509.027 384.214 509.004 384.38 508.947 384.534C508.891 384.689 508.802 384.83 508.687 384.949C508.572 385.067 508.433 385.159 508.28 385.22C506.975 385.737 505.639 386.171 504.28 386.52C499.36 387.81 497.14 387.22 493.96 388.68C492.85 389.197 491.819 389.87 490.9 390.68C490.697 390.861 490.555 391.098 490.49 391.362C490.426 391.626 490.443 391.903 490.539 392.156C490.636 392.41 490.807 392.628 491.03 392.783C491.254 392.937 491.519 393.02 491.79 393.02H526.74C527.16 393.019 527.572 392.911 527.939 392.708C528.306 392.504 528.616 392.211 528.839 391.856C529.063 391.501 529.193 391.095 529.217 390.676C529.242 390.257 529.16 389.839 528.98 389.46L522.88 376.7C516.46 376 510 376.67 505.31 376.86Z" fill="#6986C5"/>
<path d="M505.31 376.86L508.88 383.58C508.958 383.725 509.004 383.886 509.016 384.05C509.027 384.214 509.004 384.38 508.947 384.534C508.891 384.689 508.802 384.83 508.687 384.949C508.572 385.067 508.433 385.159 508.28 385.22C506.975 385.737 505.639 386.171 504.28 386.52C499.36 387.81 497.14 387.22 493.96 388.68C492.85 389.197 491.819 389.87 490.9 390.68C490.697 390.861 490.555 391.098 490.49 391.362C490.426 391.626 490.443 391.903 490.539 392.156C490.636 392.41 490.807 392.628 491.03 392.783C491.254 392.937 491.519 393.02 491.79 393.02H526.74C527.16 393.019 527.572 392.911 527.939 392.708C528.306 392.504 528.616 392.211 528.839 391.856C529.063 391.501 529.193 391.095 529.217 390.676C529.242 390.257 529.16 389.839 528.98 389.46L522.88 376.7C516.46 376 510 376.67 505.31 376.86Z" stroke="#6D4558" stroke-linecap="round" stroke-linejoin="round"/>
<path d="M432.68 198.12C430.68 220.787 427.96 244.307 424.52 268.68C419 307.8 412.05 344.5 404.36 378.6C408.54 379.099 412.754 379.259 416.96 379.08C419.43 378.98 421.76 378.76 423.96 378.48C427.456 370.488 430.527 362.316 433.16 354C441.61 327.39 441.44 312.07 450.68 271.32C451.98 265.59 453.1 260.97 453.79 258.18C454.669 269.391 456.751 280.475 460 291.24C463 301.12 466.65 309.66 478 331.08C484.41 343.18 492.91 358.71 503.44 376.68C507.663 377.142 511.914 377.302 516.16 377.16C518.52 377.08 520.77 376.91 522.88 376.68C513.519 355.389 505.347 333.596 498.4 311.4C491.11 288.08 487.47 276.4 486.4 262.2C485.51 250.28 486.33 241.71 485.2 215.2C484.8 205.89 484.33 198.27 484 193.36C476.075 188.489 466.781 186.323 457.519 187.188C448.256 188.054 439.526 191.904 432.64 198.16L432.68 198.12Z" fill="#8ABAF1"/>
<path d="M452.56 248C451.08 235.63 450.76 232.33 449.39 227.51C448.447 224.172 447.229 220.918 445.75 217.78C445.69 217.52 445.25 215.99 444.23 215.78C443.949 215.763 443.667 215.806 443.403 215.906C443.139 216.006 442.9 216.161 442.7 216.36C440.42 218.27 444.5 233.92 444.86 235.31C447.95 247.31 443.66 250.22 441.08 278.31C439.92 290.98 440.53 293.23 439.82 304.77C438.562 324.261 435.373 343.579 430.3 362.44C431.47 359.18 432.41 356.32 433.16 353.97C441.61 327.36 441.44 312.04 450.68 271.29C451.98 265.56 453.1 260.94 453.79 258.15C453.52 256 453.09 252.46 452.56 248Z" fill="#6986C5"/>
<path d="M453.79 258.18C454.08 261.83 454.56 266.18 455.37 271.18C455 266.14 454.4 261.77 453.79 258.18Z" fill="#6986C5"/>
<path d="M520 370C510.12 346.77 503.19 326.72 498.4 311.39C491.11 288.07 487.47 276.39 486.4 262.19C485.51 250.27 486.33 241.7 485.2 215.19C484.8 205.88 484.33 198.26 484 193.35C483.22 192.87 482.06 192.2 480.58 191.47L470.73 197.3C471.44 197.744 472.109 198.249 472.73 198.81C478.18 203.74 478.56 211.58 478.67 214.65C479.18 229.33 478.51 260.03 478.76 269.36C479.2 285.55 486.88 302.18 502.25 335.43C509.12 350.2 515.53 362.05 520 370Z" fill="#6986C5"/>
<path d="M432.68 198.12C430.68 220.787 427.96 244.307 424.52 268.68C419 307.8 412.05 344.5 404.36 378.6C408.54 379.099 412.754 379.259 416.96 379.08C419.43 378.98 421.76 378.76 423.96 378.48C427.456 370.488 430.527 362.316 433.16 354C441.61 327.39 441.44 312.07 450.68 271.32C451.98 265.59 453.1 260.97 453.79 258.18C454.669 269.391 456.751 280.475 460 291.24C463 301.12 466.65 309.66 478 331.08C484.41 343.18 492.91 358.71 503.44 376.68C507.663 377.142 511.914 377.302 516.16 377.16C518.52 377.08 520.77 376.91 522.88 376.68C513.519 355.389 505.347 333.596 498.4 311.4C491.11 288.08 487.47 276.4 486.4 262.2C485.51 250.28 486.33 241.71 485.2 215.2C484.8 205.89 484.33 198.27 484 193.36C476.075 188.489 466.781 186.323 457.519 187.188C448.256 188.054 439.526 191.904 432.64 198.16L432.68 198.12Z" stroke="#6D4558" stroke-linecap="round" stroke-linejoin="round"/>
<path d="M454.4 264.3C453.88 259.55 453.22 253.64 452.4 246.84C450.96 234.5 450.4 230.63 448.8 225.6C447.52 221.546 445.846 217.627 443.8 213.9" stroke="#6D4558" stroke-linecap="round" stroke-linejoin="round"/>
<path d="M432.68 198.12C449.921 201.149 467.659 199.491 484.04 193.32C483.347 189.107 482.707 184.747 482.12 180.24C480.9 170.59 480.12 161.38 479.78 152.7C482.07 145.06 484.65 132.79 481.4 121.56C480.901 119.62 480.046 117.789 478.88 116.16C472.83 107.96 460.1 108.61 457.04 108.84L439.76 110C437.546 109.758 435.305 109.941 433.16 110.54C430.731 111.305 428.471 112.527 426.5 114.14C417.92 121.36 426.84 158.99 416.06 165.44C414.34 166.44 411.13 167.29 404.9 164.54L408.68 181.1C412.265 183.545 416.606 184.63 420.92 184.16C423.375 183.832 425.74 183.013 427.872 181.752C430.004 180.491 431.86 178.814 433.33 176.82C432.95 180.98 432.69 185.42 432.62 190.1C432.58 192.88 432.6 195.553 432.68 198.12Z" fill="#BAE8E0"/>
<path d="M429.43 172.37C428.312 174.173 426.859 175.744 425.15 177C418.24 182 409.69 179.72 408.26 179.31L408.68 181.14C410.732 182.515 413.039 183.465 415.464 183.934C417.889 184.403 420.383 184.381 422.8 183.87C427.035 182.873 430.771 180.389 433.33 176.87L433.51 175.6C432.9 175.2 432.26 174.74 431.61 174.24C430.8 173.6 430.08 173 429.43 172.37Z" fill="#9DDFD3"/>
<path d="M470.78 197.27C475.289 196.252 479.72 194.915 484.04 193.27C483.347 189.09 482.707 184.747 482.12 180.24C480.9 170.59 480.12 161.38 479.78 152.7C479.84 152.49 479.91 152.27 479.97 152.05C467.606 163.496 452.948 172.182 436.97 177.53C439.52 180.22 443.48 183.45 448.67 184.02C459.94 185.25 470.07 173.46 473.15 176.28C473.87 176.94 473.99 178.78 474.23 182.46C474.326 184.126 474.306 185.797 474.17 187.46C474.183 189.455 473.879 191.44 473.27 193.34C472.694 194.795 471.849 196.128 470.78 197.27V197.27Z" fill="#9DDFD3"/>
<path d="M427.627 134.106C427.946 134.397 428.137 134.803 428.158 135.235C428.178 135.667 428.026 136.089 427.735 136.409L424.632 139.818L422.213 137.617L425.317 134.208C425.608 133.888 426.014 133.697 426.445 133.677C426.877 133.656 427.299 133.809 427.619 134.1L427.627 134.106Z" fill="#6986C5"/>
<path d="M427.627 134.106C427.946 134.397 428.137 134.803 428.158 135.235C428.178 135.667 428.026 136.089 427.735 136.409L424.632 139.818L422.213 137.617L425.317 134.208C425.608 133.888 426.014 133.697 426.445 133.677C426.877 133.656 427.299 133.809 427.619 134.1L427.627 134.106Z" stroke="#6D4558" stroke-linecap="round" stroke-linejoin="round"/>
<path d="M426.78 138.201L423.183 134.944L403.184 157.033L406.78 160.29L426.78 138.201Z" fill="#6986C5"/>
<path d="M426.78 138.201L423.183 134.944L403.184 157.033L406.78 160.29L426.78 138.201Z" stroke="#6D4558" stroke-width="0.998248" stroke-linecap="round" stroke-linejoin="round"/>
<path d="M428.13 147.11C427.6 146.54 427.05 145.91 426.5 145.23C425.95 144.55 425.58 144.03 425.18 143.45C425.06 143.267 424.897 143.116 424.705 143.009C424.514 142.903 424.3 142.844 424.081 142.838C423.862 142.832 423.645 142.88 423.448 142.976C423.251 143.072 423.08 143.214 422.95 143.39C422.777 143.649 422.58 143.89 422.36 144.11C421.85 144.62 421.17 145.3 420.36 145.24C419.36 145.17 418.83 144.05 417.44 141.6C417.04 140.91 416.49 139.96 415.8 138.83C415.598 138.469 415.265 138.2 414.869 138.079C414.473 137.958 414.046 137.996 413.677 138.184C413.308 138.371 413.027 138.694 412.891 139.085C412.756 139.476 412.777 139.904 412.95 140.28L413.8 142.28C414.072 142.91 414.132 143.613 413.97 144.28C413.82 144.85 413.69 145.44 413.57 146.07C413.45 146.7 413.35 147.34 413.27 147.93C413.104 149.3 413.461 150.682 414.27 151.8C416.682 155.173 419.504 158.233 422.67 160.91C425.112 158.024 426.826 154.595 427.67 150.91C427.935 149.659 428.089 148.388 428.13 147.11V147.11Z" fill="#FFECD2"/>
<path d="M428.13 147.11C427.6 146.54 427.05 145.91 426.5 145.23C425.95 144.55 425.35 143.72 424.87 143C424.78 142.857 424.655 142.74 424.507 142.659C424.36 142.577 424.194 142.535 424.025 142.535C423.856 142.535 423.69 142.577 423.543 142.659C423.395 142.74 423.27 142.857 423.18 143C422.955 143.394 422.679 143.757 422.36 144.08C421.85 144.59 421.17 145.27 420.36 145.21C419.36 145.14 418.83 144.02 417.44 141.57C417.04 140.88 416.49 139.93 415.8 138.8C415.598 138.439 415.265 138.17 414.869 138.049C414.473 137.928 414.046 137.966 413.677 138.154C413.308 138.341 413.027 138.664 412.891 139.055C412.756 139.446 412.777 139.874 412.95 140.25L413.8 142.25C414.072 142.88 414.132 143.583 413.97 144.25C413.82 144.82 413.69 145.41 413.57 146.04C413.45 146.67 413.35 147.31 413.27 147.9C413.104 149.27 413.461 150.652 414.27 151.77C416.682 155.143 419.504 158.203 422.67 160.88C425.112 157.994 426.826 154.565 427.67 150.88C427.933 149.639 428.087 148.378 428.13 147.11V147.11Z" stroke="#6D4558" stroke-linecap="round" stroke-linejoin="round"/>
<path d="M479.78 152.7C478.608 156.249 476.941 159.616 474.83 162.7C473.01 165.36 462.03 181.36 445.4 179.85C430.09 178.46 422.21 163.34 421.64 162.21C422.35 159.7 423.23 156.98 424.34 154.11C425.404 151.352 426.606 148.648 427.94 146.01C430.69 149.87 438.09 159.1 448.66 159.46C449.597 159.528 450.539 159.468 451.46 159.28C463 156.74 465.09 128.9 465.28 126.06" fill="#BAE8E0"/>
<path d="M481.4 121.56C480.901 119.62 480.046 117.789 478.88 116.16C474.23 109.86 465.64 108.79 460.52 108.73C465.221 110.269 469.398 113.092 472.58 116.88C484.31 131.4 473.83 154.88 471.68 159.36C468.232 166.501 463.338 172.848 457.31 178C461.906 177.439 466.336 175.938 470.326 173.589C474.316 171.241 477.779 168.096 480.5 164.35C480.19 160.35 479.94 156.49 479.78 152.72C482.07 145.06 484.65 132.79 481.4 121.56Z" fill="#9DDFD3"/>
<path d="M479.78 152.7C478.608 156.249 476.941 159.616 474.83 162.7C473.01 165.36 462.03 181.36 445.4 179.85C430.09 178.46 422.21 163.34 421.64 162.21C422.35 159.7 423.23 156.98 424.34 154.11C425.404 151.352 426.606 148.648 427.94 146.01C430.69 149.87 438.09 159.1 448.66 159.46C449.597 159.528 450.539 159.468 451.46 159.28C463 156.74 465.09 128.9 465.28 126.06" stroke="#6D4558" stroke-linecap="round" stroke-linejoin="round"/>
<path d="M420.32 158.86C419.44 161.86 418.11 164.26 416.06 165.48C414.34 166.48 411.13 167.33 404.9 164.58L408.68 181.14C412.265 183.585 416.606 184.67 420.92 184.2C423.375 183.872 425.74 183.053 427.872 181.792C430.004 180.531 431.86 178.854 433.33 176.86C432.95 181.02 432.69 185.46 432.62 190.14C432.58 192.893 432.6 195.56 432.68 198.14C449.921 201.169 467.659 199.511 484.04 193.34C483.347 189.113 482.707 184.747 482.12 180.24C480.9 170.59 480.12 161.38 479.78 152.7C482.07 145.06 484.65 132.79 481.4 121.56C480.901 119.62 480.046 117.789 478.88 116.16C472.83 107.96 460.1 108.61 457.04 108.84L439.76 110C437.546 109.758 435.305 109.941 433.16 110.54C430.731 111.305 428.471 112.527 426.5 114.14C422.67 117.37 422.33 126.67 422.16 136.55" stroke="#6D4558" stroke-linecap="round" stroke-linejoin="round"/>
<path d="M412.15 190.12L387.25 191.18C386.563 191.199 385.891 190.983 385.345 190.566C384.799 190.149 384.412 189.557 384.25 188.89L372.55 140.35C372.395 139.694 372.465 139.004 372.75 138.392C373.035 137.781 373.518 137.283 374.12 136.98L395.35 126.43C395.747 126.235 396.183 126.13 396.626 126.123C397.069 126.115 397.507 126.206 397.911 126.389C398.314 126.572 398.672 126.841 398.959 127.179C399.246 127.516 399.455 127.913 399.57 128.34L414.94 186.34C415.058 186.776 415.075 187.233 414.992 187.677C414.908 188.121 414.726 188.54 414.457 188.903C414.189 189.267 413.842 189.565 413.443 189.776C413.043 189.986 412.601 190.104 412.15 190.12V190.12Z" fill="#FFBF8A"/>
<path d="M414.91 186.38L399.54 128.38C399.425 127.953 399.216 127.556 398.929 127.219C398.642 126.881 398.284 126.612 397.881 126.429C397.477 126.246 397.039 126.155 396.596 126.163C396.153 126.17 395.717 126.275 395.32 126.47L393.12 127.56C393.68 127.965 394.083 128.552 394.26 129.22L409.63 187.22C409.769 187.771 409.749 188.35 409.572 188.89C409.395 189.43 409.068 189.909 408.63 190.27L412.13 190.12C412.576 190.101 413.012 189.983 413.407 189.774C413.802 189.565 414.145 189.271 414.411 188.912C414.677 188.554 414.86 188.141 414.947 187.703C415.033 187.264 415.021 186.813 414.91 186.38Z" fill="#FF847C"/>
<path d="M412.15 190.12L387.25 191.18C386.563 191.199 385.891 190.983 385.345 190.566C384.799 190.149 384.412 189.557 384.25 188.89L372.55 140.35C372.395 139.694 372.465 139.004 372.75 138.392C373.035 137.781 373.518 137.283 374.12 136.98L395.35 126.43C395.747 126.235 396.183 126.13 396.626 126.123C397.069 126.115 397.507 126.206 397.911 126.389C398.314 126.572 398.672 126.841 398.959 127.179C399.246 127.516 399.455 127.913 399.57 128.34L414.94 186.34C415.058 186.776 415.075 187.233 414.992 187.677C414.908 188.121 414.726 188.54 414.457 188.903C414.189 189.267 413.842 189.565 413.443 189.776C413.043 189.986 412.601 190.104 412.15 190.12V190.12Z" stroke="#6D4558" stroke-linecap="round" stroke-linejoin="round"/>
<path d="M393.86 132.4L392.93 127.96C392.878 127.737 392.775 127.528 392.631 127.35C392.486 127.172 392.302 127.029 392.094 126.933C391.886 126.837 391.658 126.789 391.429 126.794C391.199 126.798 390.974 126.855 390.77 126.96L385.88 129.41C386.008 129.057 386.075 128.685 386.08 128.31C386.084 127.669 385.91 127.04 385.578 126.491C385.246 125.943 384.769 125.498 384.199 125.204C383.629 124.911 382.989 124.781 382.35 124.829C381.711 124.877 381.098 125.101 380.578 125.476C380.058 125.852 379.653 126.364 379.407 126.955C379.16 127.547 379.083 128.195 379.182 128.829C379.282 129.462 379.555 130.055 379.971 130.542C380.387 131.03 380.93 131.392 381.54 131.59L376.11 134.31C375.813 134.461 375.574 134.705 375.43 135.005C375.285 135.305 375.243 135.644 375.31 135.97L376.23 140.4C376.284 140.622 376.387 140.83 376.533 141.007C376.678 141.183 376.861 141.325 377.069 141.421C377.276 141.517 377.503 141.565 377.732 141.562C377.961 141.558 378.186 141.503 378.39 141.4L393.05 134.05C393.348 133.902 393.589 133.661 393.735 133.362C393.881 133.064 393.925 132.726 393.86 132.4V132.4Z" fill="#ED6663"/>
<path d="M393.86 132.4L392.93 127.96C392.878 127.737 392.775 127.528 392.631 127.35C392.486 127.172 392.302 127.029 392.094 126.933C391.886 126.837 391.658 126.789 391.429 126.794C391.199 126.798 390.974 126.855 390.77 126.96L385.88 129.41C386.008 129.057 386.075 128.685 386.08 128.31C386.084 127.669 385.91 127.04 385.578 126.491C385.246 125.943 384.769 125.498 384.199 125.204C383.629 124.911 382.989 124.781 382.35 124.829C381.711 124.877 381.098 125.101 380.578 125.476C380.058 125.852 379.653 126.364 379.407 126.955C379.16 127.547 379.083 128.195 379.182 128.829C379.282 129.462 379.555 130.055 379.971 130.542C380.387 131.03 380.93 131.392 381.54 131.59L376.11 134.31C375.813 134.461 375.574 134.705 375.43 135.005C375.285 135.305 375.243 135.644 375.31 135.97L376.23 140.4C376.284 140.622 376.387 140.83 376.533 141.007C376.678 141.183 376.861 141.325 377.069 141.421C377.276 141.517 377.503 141.565 377.732 141.562C377.961 141.558 378.186 141.503 378.39 141.4L393.05 134.05C393.348 133.902 393.589 133.661 393.735 133.362C393.881 133.064 393.925 132.726 393.86 132.4V132.4Z" stroke="#6D4558" stroke-linecap="round" stroke-linejoin="round"/>
<path d="M455.18 88.21C455.61 88.07 461.46 86.06 462.74 80.58C463.091 79.4361 463.181 78.228 463.003 77.0447C462.825 75.8615 462.384 74.7332 461.712 73.7429C461.041 72.7527 460.156 71.9257 459.122 71.323C458.088 70.7202 456.933 70.357 455.74 70.26C456.045 69.7072 456.14 69.0628 456.008 68.4455C455.875 67.8281 455.525 67.2793 455.02 66.9C454.684 66.738 454.318 66.6484 453.945 66.6372C453.572 66.6259 453.201 66.6932 452.856 66.8346C452.511 66.9761 452.199 67.1886 451.941 67.4582C451.684 67.7279 451.486 68.0488 451.36 68.4C448.933 64.6776 445.283 61.9189 441.04 60.6C439.46 60.13 433.58 58.38 428.2 61.6C425.721 63.0918 423.781 65.3331 422.66 68C421.5 70.92 422.2 72.78 420.85 77.78C420.476 79.1664 420.019 80.529 419.48 81.86C423.501 84.444 428.225 85.7159 433 85.5C435.897 88.3142 439.635 90.1026 443.644 90.592C447.653 91.0813 451.711 90.2447 455.2 88.21H455.18Z" fill="#D2A186"/>
<path d="M455.18 88.21C455.61 88.07 461.46 86.06 462.74 80.58C463.091 79.4361 463.181 78.228 463.003 77.0447C462.825 75.8615 462.384 74.7332 461.712 73.7429C461.041 72.7527 460.156 71.9257 459.122 71.323C458.088 70.7202 456.933 70.357 455.74 70.26C456.045 69.7072 456.14 69.0628 456.008 68.4455C455.875 67.8281 455.525 67.2793 455.02 66.9C454.684 66.738 454.318 66.6484 453.945 66.6372C453.572 66.6259 453.201 66.6932 452.856 66.8346C452.511 66.9761 452.199 67.1886 451.941 67.4582C451.684 67.7279 451.486 68.0488 451.36 68.4C448.933 64.6776 445.283 61.9189 441.04 60.6C437.864 59.5605 434.456 59.4529 431.22 60.29V60.29C438.37 60.48 441.75 62.66 443.5 64.79C445.25 66.92 446.5 70.56 449.5 70.97C450.63 71.13 452.23 70.85 452.98 71.87C453.36 72.38 453.23 72.87 453.34 73.43C453.78 75.95 457.34 76.33 458.34 78.23C458.92 79.36 458.82 81.44 455.5 85.63C455.562 86.0578 455.562 86.4922 455.5 86.92C455.452 87.3625 455.345 87.7965 455.18 88.21V88.21Z" fill="#B18D7B"/>
<path d="M455.18 88.21C455.61 88.07 461.46 86.06 462.74 80.58C463.091 79.4361 463.181 78.228 463.003 77.0447C462.825 75.8615 462.384 74.7332 461.712 73.7429C461.041 72.7527 460.156 71.9257 459.122 71.323C458.088 70.7202 456.933 70.357 455.74 70.26C456.045 69.7072 456.14 69.0628 456.008 68.4455C455.875 67.8281 455.525 67.2793 455.02 66.9C454.684 66.738 454.318 66.6484 453.945 66.6372C453.572 66.6259 453.201 66.6932 452.856 66.8346C452.511 66.9761 452.199 67.1886 451.941 67.4582C451.684 67.7279 451.486 68.0488 451.36 68.4C448.933 64.6776 445.283 61.9189 441.04 60.6C439.46 60.13 433.58 58.38 428.2 61.6C425.721 63.0918 423.781 65.3331 422.66 68C421.5 70.92 422.2 72.78 420.85 77.78C420.476 79.1664 420.019 80.529 419.48 81.86C423.501 84.444 428.225 85.7159 433 85.5C435.897 88.3142 439.635 90.1026 443.644 90.592C447.653 91.0813 451.711 90.2447 455.2 88.21H455.18Z" stroke="#6D4558" stroke-linecap="round" stroke-linejoin="round"/>
<path d="M439.76 110C440.491 109.091 441.028 108.041 441.337 106.916C441.647 105.792 441.723 104.615 441.56 103.46C440.81 103.52 434.05 103.93 430.4 99.14C428.869 96.991 428.088 94.3972 428.18 91.76C428.37 88.32 430.18 86.87 430.76 81.98C430.9 80.7453 430.941 79.5012 430.88 78.26C432.528 78.0862 434.144 77.6823 435.68 77.06C437.276 76.4166 438.771 75.5478 440.12 74.48C438.78 75.66 438.87 77.48 439.64 78.08C440.127 78.3458 440.689 78.4371 441.235 78.3389C441.781 78.2407 442.277 77.9588 442.64 77.54C442.069 79.7074 442.37 82.0125 443.48 83.96C444.333 85.3723 445.586 86.4999 447.08 87.2C446.76 86.1152 446.845 84.9509 447.319 83.9242C447.794 82.8975 448.626 82.0785 449.66 81.62C452.05 80.74 454.77 82.62 455.42 85.1C455.704 86.2946 455.545 87.5518 454.971 88.6373C454.397 89.7229 453.447 90.5626 452.3 91C451.663 97.319 453.332 103.655 457 108.84C454.95 115.24 449 118.26 444.9 116.84C441 115.44 439.86 110.47 439.76 110Z" fill="#FFECD2"/>
<path d="M445.28 102C445.319 102.598 445.22 103.197 444.99 103.75C444.645 104.419 444.149 104.999 443.542 105.443C442.935 105.887 442.232 106.184 441.49 106.31C441.672 105.394 441.696 104.454 441.56 103.53C442.249 103.451 442.923 103.273 443.56 103C444.175 102.744 444.753 102.408 445.28 102V102Z" fill="#EAB292"/>
<path d="M430.88 78.3C430.046 78.362 429.209 78.2671 428.41 78.02C427.608 77.7734 426.859 77.3801 426.2 76.86" stroke="#6D4558" stroke-linecap="round" stroke-linejoin="round"/>
<path d="M439.76 110C440.491 109.091 441.028 108.041 441.337 106.916C441.647 105.792 441.723 104.615 441.56 103.46C440.81 103.52 434.05 103.93 430.4 99.14C428.869 96.991 428.088 94.3972 428.18 91.76C428.37 88.32 430.18 86.87 430.76 81.98C430.9 80.7453 430.941 79.5012 430.88 78.26C432.528 78.0862 434.144 77.6823 435.68 77.06C437.276 76.4166 438.771 75.5478 440.12 74.48C438.78 75.66 438.87 77.48 439.64 78.08C440.127 78.3458 440.689 78.4371 441.235 78.3389C441.781 78.2407 442.277 77.9588 442.64 77.54C442.069 79.7074 442.37 82.0125 443.48 83.96C444.333 85.3723 445.586 86.4999 447.08 87.2C446.76 86.1152 446.845 84.9509 447.319 83.9242C447.794 82.8975 448.626 82.0785 449.66 81.62C452.05 80.74 454.77 82.62 455.42 85.1C455.704 86.2946 455.545 87.5518 454.971 88.6373C454.397 89.7229 453.447 90.5626 452.3 91C451.663 97.319 453.332 103.655 457 108.84C454.95 115.24 449 118.26 444.9 116.84C441 115.44 439.86 110.47 439.76 110Z" stroke="#6D4558" stroke-linecap="round" stroke-linejoin="round"/>
<path d="M441.56 103.5C442.249 103.421 442.923 103.243 443.56 102.97C444.179 102.715 444.76 102.379 445.29 101.97" stroke="#6D4558" stroke-linecap="round" stroke-linejoin="round"/>
<path d="M432.44 87C432.954 87 433.37 86.5836 433.37 86.07C433.37 85.5564 432.954 85.14 432.44 85.14C431.926 85.14 431.51 85.5564 431.51 86.07C431.51 86.5836 431.926 87 432.44 87Z" fill="#6D4558"/>
<path d="M438.65 87.93C439.164 87.93 439.58 87.5136 439.58 87C439.58 86.4864 439.164 86.07 438.65 86.07C438.136 86.07 437.72 86.4864 437.72 87C437.72 87.5136 438.136 87.93 438.65 87.93Z" fill="#6D4558"/>
<path d="M435.29 86.61C435.22 87.423 434.974 88.2112 434.57 88.92C434.11 89.71 433.57 90.17 433.7 90.69C433.772 90.8635 433.882 91.0185 434.022 91.1432C434.163 91.2679 434.329 91.3591 434.51 91.41" stroke="#6D4558" stroke-linecap="round" stroke-linejoin="round"/>
<path d="M434.18 94.56C435.009 94.7101 435.863 94.6163 436.64 94.29C437.41 93.95 437.73 93.5 438.14 93.63C438.55 93.76 439.02 94.93 438.68 95.63C438.34 96.33 436.88 96.8 435.32 96.2" stroke="#6D4558" stroke-linecap="round" stroke-linejoin="round"/>
<path d="M450.26 85.51C450.38 85.3577 450.531 85.2333 450.704 85.1452C450.877 85.0572 451.066 85.0076 451.26 85C451.536 85.0068 451.802 85.1017 452.02 85.2709C452.237 85.4401 452.395 85.6746 452.47 85.94C452.55 86.2165 452.541 86.5112 452.444 86.7823C452.347 87.0533 452.167 87.2869 451.93 87.45" stroke="#6D4558" stroke-linecap="round" stroke-linejoin="round"/>
<path d="M280.58 393H271.21C268.283 392.998 265.422 392.127 262.991 390.497C260.559 388.866 258.668 386.55 257.555 383.842C256.443 381.134 256.161 378.157 256.744 375.288C257.327 372.42 258.749 369.789 260.83 367.73C263.494 372.388 267.611 376.044 272.55 378.14C272.153 378.44 271.849 378.846 271.672 379.311C271.495 379.776 271.453 380.282 271.55 380.77C271.79 381.95 271.84 383.16 272.05 384.34C272.121 384.787 272.31 385.208 272.596 385.559C272.882 385.911 273.256 386.18 273.68 386.34C275.166 386.877 276.526 387.711 277.68 388.79C278.94 389.966 279.93 391.403 280.58 393V393Z" fill="#6986C5"/>
<path d="M280.58 393H271.21C268.283 392.998 265.422 392.127 262.991 390.497C260.559 388.866 258.668 386.55 257.555 383.842C256.443 381.134 256.161 378.157 256.744 375.288C257.327 372.42 258.749 369.789 260.83 367.73C263.494 372.388 267.611 376.044 272.55 378.14C272.153 378.44 271.849 378.846 271.672 379.311C271.495 379.776 271.453 380.282 271.55 380.77C271.79 381.95 271.84 383.16 272.05 384.34C272.121 384.787 272.31 385.208 272.596 385.559C272.882 385.911 273.256 386.18 273.68 386.34C275.166 386.877 276.526 387.711 277.68 388.79C278.94 389.966 279.93 391.403 280.58 393V393Z" stroke="#6D4558" stroke-linecap="round" stroke-linejoin="round"/>
<path d="M307.7 376.52H307.69" stroke="#6D4558" stroke-linecap="round" stroke-linejoin="round"/>
<path d="M319.72 341.47L272.55 378.14C267.611 376.044 263.494 372.388 260.83 367.73L291.48 337.43C292.311 336.607 292.947 335.609 293.341 334.509C293.736 333.408 293.879 332.233 293.76 331.07C292.59 318.59 288.44 310.74 284.9 305.88C275.09 292.42 262.57 291.88 249.26 276.72C243.681 270.347 239.279 263.034 236.26 255.12C237.26 254.21 244.77 247.66 254.98 249.36C259.551 250.161 263.751 252.387 266.98 255.72C271.753 259.02 276.713 262.3 281.86 265.56C292.91 272.56 303.86 278.69 314.42 284.13C336.65 295.52 339.4 326.16 319.72 341.47Z" fill="#FFE8E8"/>
<path d="M314.46 284.13C303.85 278.69 292.95 272.54 281.9 265.56C276.753 262.313 271.793 259.033 267.02 255.72L260.26 258.92C259.49 264.73 258.83 269.03 258.33 272.1C258.09 273.53 257.92 274.52 258.52 275.3C259.68 276.8 262.73 276.24 272.52 274.1C279.52 272.57 279.39 272.56 279.84 272.54C284.84 272.34 287.84 274.71 295.84 279.62C309.09 287.75 309.79 286.62 313.96 290.78C317.646 294.202 320.563 298.367 322.52 303C328.46 317.57 321.43 331.34 320.72 332.7C317.64 338.6 313.8 341.33 306.86 347.1C296.921 355.395 287.44 364.225 278.46 373.55V373.55L319.72 341.47C339.4 326.16 336.65 295.52 314.46 284.13Z" fill="#F8C5A8"/>
<path d="M319.72 341.47L272.55 378.14C267.611 376.044 263.494 372.388 260.83 367.73L291.48 337.43C292.311 336.607 292.947 335.609 293.341 334.509C293.736 333.408 293.879 332.233 293.76 331.07C292.59 318.59 288.44 310.74 284.9 305.88C275.09 292.42 262.57 291.88 249.26 276.72C243.681 270.347 239.279 263.034 236.26 255.12C237.26 254.21 244.77 247.66 254.98 249.36C259.551 250.161 263.751 252.387 266.98 255.72C271.753 259.02 276.713 262.3 281.86 265.56C292.91 272.56 303.86 278.69 314.42 284.13C336.65 295.52 339.4 326.16 319.72 341.47Z" stroke="#6D4558" stroke-linecap="round" stroke-linejoin="round"/>
<path d="M342.45 393H315.51C314.984 393.001 314.471 392.838 314.042 392.534C313.614 392.229 313.291 391.797 313.12 391.3C311.65 387.02 309.85 382.05 307.7 376.52C312.195 377.1 316.76 376.78 321.13 375.58C321.728 377.397 322.684 379.077 323.94 380.52C324.917 381.634 326.081 382.568 327.38 383.28C332.49 386.06 337.05 383.73 341.06 386.88C342.34 387.914 343.332 389.261 343.94 390.79C344.041 391.034 344.079 391.299 344.053 391.561C344.026 391.824 343.935 392.076 343.788 392.294C343.64 392.513 343.441 392.692 343.207 392.815C342.974 392.938 342.714 393.002 342.45 393V393Z" fill="#6986C5"/>
<path d="M342.45 393H315.51C314.984 393.001 314.471 392.838 314.042 392.534C313.614 392.229 313.291 391.797 313.12 391.3C311.65 387.02 309.85 382.05 307.7 376.52C312.195 377.1 316.76 376.78 321.13 375.58C321.728 377.397 322.684 379.077 323.94 380.52C324.917 381.634 326.081 382.568 327.38 383.28C332.49 386.06 337.05 383.73 341.06 386.88C342.34 387.914 343.332 389.261 343.94 390.79C344.041 391.034 344.079 391.299 344.053 391.561C344.026 391.824 343.935 392.076 343.788 392.294C343.64 392.513 343.441 392.692 343.207 392.815C342.974 392.938 342.714 393.002 342.45 393V393Z" stroke="#6D4558" stroke-linecap="round" stroke-linejoin="round"/>
<path d="M321.13 375.58C316.76 376.78 312.195 377.1 307.7 376.52C305.01 369.6 301.75 361.81 297.86 353.4C287.47 330.92 282.27 319.69 274.86 312.97C255.69 295.65 237.07 303.07 224.07 286.08C216.92 276.74 215.71 265.56 215.79 257.64C220.286 254.866 225.315 253.068 230.55 252.36C238.675 251.36 246.908 252.956 254.07 256.92C256.01 261.697 258.772 266.096 262.23 269.92C265.866 273.85 270.173 277.101 274.95 279.52L276.01 280.1C284.159 284.739 291.264 291.008 296.88 298.517C302.496 306.026 306.503 314.612 308.65 323.74C312.65 340.547 316.673 357.36 320.72 374.18C320.832 374.653 320.969 375.121 321.13 375.58V375.58Z" fill="#FFE8E8"/>
<path d="M318.74 365.91C315.407 351.837 312.04 337.767 308.64 323.7C306.493 314.572 302.486 305.986 296.87 298.477C291.254 290.968 284.149 284.699 276 280.06L274.94 279.48C270.163 277.061 265.856 273.81 262.22 269.88C258.762 266.056 256 261.657 254.06 256.88C246.898 252.916 238.665 251.32 230.54 252.32C225.305 253.028 220.276 254.826 215.78 257.6C215.732 260.923 215.963 264.245 216.47 267.53C219.106 270.242 222.057 272.629 225.26 274.64C244.98 286.99 262.87 277.37 281.18 289.28C285.783 292.355 289.771 296.262 292.94 300.8C302.79 313.9 301.41 324.52 309.26 345.44C311.914 352.487 315.082 359.328 318.74 365.91Z" fill="#F8C5A8"/>
<path d="M321.13 375.58C316.76 376.78 312.195 377.1 307.7 376.52C305.01 369.6 301.75 361.81 297.86 353.4C287.47 330.92 282.27 319.69 274.86 312.97C255.69 295.65 237.07 303.07 224.07 286.08C216.92 276.74 215.71 265.56 215.79 257.64C220.286 254.866 225.315 253.068 230.55 252.36C238.675 251.36 246.908 252.956 254.07 256.92C256.01 261.697 258.772 266.096 262.23 269.92C265.866 273.85 270.173 277.101 274.95 279.52L276.01 280.1C284.159 284.739 291.264 291.008 296.88 298.517C302.496 306.026 306.503 314.612 308.65 323.74C312.65 340.547 316.673 357.36 320.72 374.18C320.832 374.653 320.969 375.121 321.13 375.58V375.58Z" stroke="#6D4558" stroke-linecap="round" stroke-linejoin="round"/>
<path d="M291.25 213.14C292.72 215.06 294.07 216.57 295.1 217.68C299.36 222.23 302.45 225.43 306.5 225.48C307.588 225.469 308.665 225.262 309.68 224.87C316.32 222.56 320.29 214.7 323.36 208.62C323.36 208.62 326.56 202.29 330 200.28C330.8 199.824 331.644 199.452 332.52 199.17H332.6C340.86 196.69 351.14 203.35 350.6 206.53C350.2 208.81 344.6 206.76 338.2 210.33C325.56 217.33 329.56 235.22 314.92 243.51C313.519 244.369 312 245.016 310.41 245.43C297.86 248.6 285.41 235.43 282.41 232.23C282.21 231.55 279.83 222.88 285.29 216.93C286.92 215.178 288.972 213.873 291.25 213.14V213.14Z" fill="#D2A186"/>
<path d="M335.42 210.12C320.78 217.18 322.85 236.84 310.58 240.48C303.78 242.48 296.16 238.53 294.14 237.48C290.409 235.527 287.158 232.771 284.62 229.41C284.3 229.84 283.97 230.29 283.62 230.74C283.27 231.19 282.8 231.74 282.39 232.2C285.39 235.45 297.85 248.57 310.39 245.4C311.98 244.986 313.499 244.339 314.9 243.48C329.54 235.19 325.54 217.34 338.18 210.3C340.849 208.885 343.794 208.066 346.81 207.9C342.889 207.703 338.98 208.465 335.42 210.12V210.12Z" fill="#B18D7B"/>
<path d="M291.25 213.14C292.72 215.06 294.07 216.57 295.1 217.68C299.36 222.23 302.45 225.43 306.5 225.48C307.588 225.469 308.665 225.262 309.68 224.87C316.32 222.56 320.29 214.7 323.36 208.62C323.36 208.62 326.56 202.29 330 200.28C330.8 199.824 331.644 199.452 332.52 199.17H332.6C340.86 196.69 351.14 203.35 350.6 206.53C350.2 208.81 344.6 206.76 338.2 210.33C325.56 217.33 329.56 235.22 314.92 243.51C313.519 244.369 312 245.016 310.41 245.43C297.86 248.6 285.41 235.43 282.41 232.23C282.21 231.55 279.83 222.88 285.29 216.93C286.92 215.178 288.972 213.873 291.25 213.14V213.14Z" stroke="#6D4558" stroke-linecap="round" stroke-linejoin="round"/>
<path d="M215.78 257.64C215.78 255.753 215.82 253.833 215.9 251.88C215.967 249.773 216.047 247.693 216.14 245.64C212.858 239.157 210.933 232.073 210.482 224.82C210.032 217.568 211.066 210.299 213.52 203.46C214.925 199.547 217.46 196.14 220.803 193.669C224.146 191.198 228.147 189.775 232.3 189.58L234.74 189.48C244.085 189.131 253.443 189.465 262.74 190.48C265.64 190.807 268.409 191.863 270.79 193.55C274.083 195.675 277.158 198.12 279.97 200.85C282.97 203.85 286.92 207.93 291.24 213.11C290.188 220.187 287.107 226.808 282.37 232.17C279.833 229.343 277.063 226.734 274.09 224.37C271.112 221.991 267.941 219.864 264.61 218.01C264.537 232.245 266.974 246.381 271.81 259.77C253.274 263.937 233.97 263.192 215.81 257.61L215.78 257.64Z" fill="#8ABAF1"/>
<path d="M271.82 259.8C266.984 246.411 264.547 232.275 264.62 218.04C262.972 220.216 261.695 222.648 260.84 225.24C258.59 232.18 260.33 237.96 260.9 241.98C261.58 246.68 261.26 253.32 257.17 262.06C262.099 261.639 266.993 260.884 271.82 259.8Z" fill="#6986C5"/>
<path d="M215.78 257.64C215.78 255.753 215.82 253.833 215.9 251.88C215.967 249.773 216.047 247.693 216.14 245.64C212.858 239.157 210.933 232.073 210.482 224.82C210.032 217.568 211.066 210.299 213.52 203.46C214.925 199.547 217.46 196.14 220.803 193.669C224.146 191.198 228.147 189.775 232.3 189.58L234.74 189.48C244.085 189.131 253.443 189.465 262.74 190.48C265.64 190.807 268.409 191.863 270.79 193.55C274.083 195.675 277.158 198.12 279.97 200.85C282.97 203.85 286.92 207.93 291.24 213.11C290.188 220.187 287.107 226.808 282.37 232.17C279.833 229.343 277.063 226.734 274.09 224.37C271.112 221.991 267.941 219.864 264.61 218.01C264.537 232.245 266.974 246.381 271.81 259.77C253.274 263.937 233.97 263.192 215.81 257.61L215.78 257.64Z" stroke="#6D4558" stroke-linecap="round" stroke-linejoin="round"/>
<path d="M233.24 213C232.56 217.48 231.86 226.63 236.66 235.68C237.06 236.433 237.48 237.153 237.92 237.84" stroke="#6D4558" stroke-linecap="round" stroke-linejoin="round"/>
<path d="M237.92 237.84C244.92 246.49 251.92 250.62 256.64 252.78C273.12 260.24 287.64 254.99 294.64 265.02C296.33 267.46 298.38 271.94 297.15 273.11C295.92 274.28 291.86 271.74 290.5 270.96C277.36 263.41 259.92 271.18 244.78 268.08C237.06 266.5 226.78 261.43 216.16 245.64L215.71 244.72C219.818 244.126 223.868 243.189 227.82 241.92C231.283 240.812 234.659 239.448 237.92 237.84V237.84Z" fill="#D2A186"/>
<path d="M237.92 237.84C244.92 246.49 251.92 250.62 256.64 252.78C273.12 260.24 287.64 254.99 294.64 265.02C296.33 267.46 298.38 271.94 297.15 273.11C295.92 274.28 291.86 271.74 290.5 270.96C277.36 263.41 259.92 271.18 244.78 268.08C237.06 266.5 226.78 261.43 216.16 245.64L215.71 244.72C219.818 244.126 223.868 243.189 227.82 241.92C231.283 240.812 234.659 239.448 237.92 237.84V237.84Z" stroke="#6D4558" stroke-linecap="round" stroke-linejoin="round"/>
<path d="M231.04 154.49C237.872 154.49 243.41 148.952 243.41 142.12C243.41 135.288 237.872 129.75 231.04 129.75C224.208 129.75 218.67 135.288 218.67 142.12C218.67 148.952 224.208 154.49 231.04 154.49Z" fill="#FF847C"/>
<path d="M229.57 129.85L228.81 129.96L228.43 130.03C228.12 130.1 227.81 130.18 227.51 130.27C227.21 130.36 227.14 130.39 226.96 130.45L226.57 130.59L225.95 130.85L225.82 130.92C225.338 131.144 224.87 131.397 224.42 131.68V131.68C224.68 131.68 224.93 131.68 225.19 131.68C228.014 131.681 230.752 132.648 232.952 134.419C235.151 136.191 236.678 138.661 237.28 141.42C237.351 141.726 237.357 142.043 237.297 142.35C237.237 142.658 237.113 142.95 236.933 143.207C236.753 143.464 236.52 143.679 236.251 143.84C235.982 144.001 235.681 144.103 235.37 144.14C233.497 144.346 231.698 144.99 230.12 146.02C227.665 147.675 225.89 150.161 225.12 153.02C226.856 153.962 228.792 154.475 230.767 154.515C232.742 154.555 234.698 154.122 236.471 153.252C238.244 152.381 239.783 151.099 240.959 149.512C242.135 147.925 242.913 146.08 243.23 144.13C243.23 143.86 243.32 143.59 243.35 143.31C243.38 143.03 243.35 142.54 243.35 142.15C243.354 140.525 243.038 138.915 242.419 137.412C241.8 135.909 240.892 134.542 239.745 133.391C238.598 132.239 237.235 131.325 235.735 130.7C234.234 130.076 232.625 129.753 231 129.75C230.626 129.75 230.252 129.77 229.88 129.81L229.57 129.85Z" fill="#ED6663"/>
<path d="M231.04 154.49C237.872 154.49 243.41 148.952 243.41 142.12C243.41 135.288 237.872 129.75 231.04 129.75C224.208 129.75 218.67 135.288 218.67 142.12C218.67 148.952 224.208 154.49 231.04 154.49Z" stroke="#6D4558" stroke-linecap="round" stroke-linejoin="round"/>
<path d="M264.22 165.52C265.046 165.654 265.884 165.701 266.72 165.66C268.351 165.571 269.945 165.141 271.4 164.4C270.493 162.607 269.74 160.741 269.15 158.82C267.15 152.2 268.68 149.93 267.15 146.58C264.77 141.26 256.49 137.18 249.33 139.47C245.824 140.704 242.883 143.166 241.05 146.4C237.548 146.236 234.111 147.392 231.42 149.64C225.94 154.64 225.85 164.51 230.88 170.16C234.7 174.45 240.2 174.87 241.71 174.93L264.22 165.52Z" fill="#FF847C"/>
<path d="M262.67 148.74C264.18 152.09 262.67 154.36 264.67 160.98C265.16 162.582 265.765 164.146 266.48 165.66H266.74C268.371 165.571 269.965 165.141 271.42 164.4C270.513 162.607 269.76 160.741 269.17 158.82C267.17 152.2 268.7 149.93 267.17 146.58C264.79 141.26 256.51 137.18 249.35 139.47C247.951 139.924 246.635 140.599 245.45 141.47C252.46 139.59 260.35 143.57 262.67 148.74Z" fill="#ED6663"/>
<path d="M264.22 165.52C265.046 165.654 265.884 165.701 266.72 165.66C268.351 165.571 269.945 165.141 271.4 164.4C270.493 162.607 269.74 160.741 269.15 158.82C267.15 152.2 268.68 149.93 267.15 146.58C264.77 141.26 256.49 137.18 249.33 139.47C245.824 140.704 242.883 143.166 241.05 146.4C237.548 146.236 234.111 147.392 231.42 149.64C225.94 154.64 225.85 164.51 230.88 170.16C234.7 174.45 240.2 174.87 241.71 174.93L264.22 165.52Z" stroke="#6D4558" stroke-linecap="round" stroke-linejoin="round"/>
<path d="M236.39 189.43C237.738 187.785 238.858 185.965 239.72 184.02C241.493 179.931 242.115 175.436 241.52 171.02C237.69 168.96 235.63 165.53 236.26 162.68C236.57 161.3 237.71 159.19 239.72 158.87C241.73 158.55 243.29 160.05 244.04 161.21C244.484 161.948 244.755 162.776 244.833 163.633C244.911 164.491 244.794 165.354 244.49 166.16C244.794 166.549 245.176 166.869 245.612 167.1C246.048 167.331 246.528 167.468 247.02 167.502C247.512 167.536 248.006 167.466 248.469 167.297C248.933 167.128 249.355 166.863 249.71 166.52C251.11 165.18 251.1 162.19 249.17 159.52C249.666 159.791 250.232 159.905 250.795 159.848C251.357 159.791 251.889 159.565 252.32 159.2C252.845 158.667 253.14 157.948 253.14 157.2C253.14 156.452 252.845 155.733 252.32 155.2C253.74 155.786 255.28 156.019 256.81 155.878C258.339 155.737 259.812 155.226 261.1 154.39C261.145 155.981 261.34 157.565 261.68 159.12C262.78 164.03 264.56 164.85 265.1 168.02C265.416 170.141 265.167 172.307 264.376 174.3C263.586 176.293 262.283 178.042 260.6 179.37C258.35 180.972 255.616 181.749 252.86 181.57C252.948 183.022 253.206 184.458 253.63 185.85C254.05 187.206 254.627 188.508 255.35 189.73C255.19 191.19 254.58 194.73 251.96 196.38C248.21 198.79 241.05 196.59 236.39 189.43Z" fill="#D2A186"/>
<path d="M248.8 179.77C248.542 180.583 248.545 181.458 248.811 182.269C249.077 183.08 249.591 183.787 250.28 184.29C251.177 184.953 252.292 185.25 253.4 185.12C253.29 184.71 253.19 184.28 253.11 183.81C252.989 183.105 252.906 182.394 252.86 181.68C252.084 181.685 251.316 181.516 250.613 181.185C249.911 180.855 249.291 180.371 248.8 179.77V179.77Z" fill="#B18D7B"/>
<path d="M236.39 189.43C237.738 187.785 238.858 185.965 239.72 184.02C241.493 179.931 242.115 175.436 241.52 171.02C237.69 168.96 235.63 165.53 236.26 162.68C236.57 161.3 237.71 159.19 239.72 158.87C241.73 158.55 243.29 160.05 244.04 161.21C244.484 161.948 244.755 162.776 244.833 163.633C244.911 164.491 244.794 165.354 244.49 166.16C244.794 166.549 245.176 166.869 245.612 167.1C246.048 167.331 246.528 167.468 247.02 167.502C247.512 167.536 248.006 167.466 248.469 167.297C248.933 167.128 249.355 166.863 249.71 166.52C251.11 165.18 251.1 162.19 249.17 159.52C249.666 159.791 250.232 159.905 250.795 159.848C251.357 159.791 251.889 159.565 252.32 159.2C252.845 158.667 253.14 157.948 253.14 157.2C253.14 156.452 252.845 155.733 252.32 155.2C253.74 155.786 255.28 156.019 256.81 155.878C258.339 155.737 259.812 155.226 261.1 154.39C261.145 155.981 261.34 157.565 261.68 159.12C262.78 164.03 264.56 164.85 265.1 168.02C265.416 170.141 265.167 172.307 264.376 174.3C263.586 176.293 262.283 178.042 260.6 179.37C258.35 180.972 255.616 181.749 252.86 181.57C252.948 183.022 253.206 184.458 253.63 185.85C254.05 187.206 254.627 188.508 255.35 189.73C255.19 191.19 254.58 194.73 251.96 196.38C248.21 198.79 241.05 196.59 236.39 189.43Z" stroke="#6D4558" stroke-linecap="round" stroke-linejoin="round"/>
<path d="M252.86 181.68C252.084 181.685 251.316 181.516 250.613 181.185C249.911 180.855 249.291 180.371 248.8 179.77" stroke="#6D4558" stroke-linecap="round" stroke-linejoin="round"/>
<path d="M260.48 164.94C261.154 164.94 261.7 164.394 261.7 163.72C261.7 163.046 261.154 162.5 260.48 162.5C259.806 162.5 259.26 163.046 259.26 163.72C259.26 164.394 259.806 164.94 260.48 164.94Z" fill="#6D4558"/>
<path d="M253.88 166.88C254.554 166.88 255.1 166.334 255.1 165.66C255.1 164.986 254.554 164.44 253.88 164.44C253.206 164.44 252.66 164.986 252.66 165.66C252.66 166.334 253.206 166.88 253.88 166.88Z" fill="#6D4558"/>
<path d="M257.36 164.9C257.542 165.589 257.865 166.233 258.31 166.79C259.03 167.66 259.78 167.91 259.79 168.49C259.79 168.77 259.64 169.17 258.85 169.66" stroke="#6D4558" stroke-linecap="round" stroke-linejoin="round"/>
<path d="M259.5 172.61C259.35 172.32 258.72 172.68 257.27 172.5C256.27 172.37 255.78 172.08 255.56 172.32C255.34 172.56 255.56 173.4 256.06 173.85C256.286 174.049 256.552 174.195 256.841 174.28C257.129 174.365 257.433 174.385 257.73 174.34C258.86 174.15 259.7 173 259.5 172.61Z" fill="#6D4558"/>
<path d="M240.79 162.88C240.544 162.95 240.318 163.076 240.13 163.25C239.942 163.424 239.798 163.64 239.71 163.88C239.638 164.113 239.621 164.36 239.659 164.6C239.697 164.841 239.79 165.07 239.93 165.27" stroke="#6D4558" stroke-linecap="round" stroke-linejoin="round"/>
<path d="M701.64 393H18.36" stroke="#6D4558" stroke-linecap="round" stroke-linejoin="round"/>
<path d="M648.24 78H647.12H646.01L634.4 101.44H647.12H659.85L648.24 78Z" stroke="#FF847C" stroke-miterlimit="10"/>
<path d="M647.12 81.72C648.479 81.72 649.58 80.6186 649.58 79.26C649.58 77.9014 648.479 76.8 647.12 76.8C645.761 76.8 644.66 77.9014 644.66 79.26C644.66 80.6186 645.761 81.72 647.12 81.72Z" fill="#FF847C"/>
<path d="M671.62 101.44H622.63C620.653 101.44 619.05 103.043 619.05 105.02V173.11C619.05 175.087 620.653 176.69 622.63 176.69H671.62C673.597 176.69 675.2 175.087 675.2 173.11V105.02C675.2 103.043 673.597 101.44 671.62 101.44Z" fill="#FDF3E8"/>
<path d="M671.56 101.44H622.69C620.68 101.44 619.05 103.07 619.05 105.08V173.05C619.05 175.06 620.68 176.69 622.69 176.69H671.56C673.57 176.69 675.2 175.06 675.2 173.05V105.08C675.2 103.07 673.57 101.44 671.56 101.44Z" stroke="#6D4558" stroke-linecap="round" stroke-linejoin="round"/>
<path d="M668.66 123.18H625.71C625.159 123.17 624.623 123.361 624.203 123.718C623.783 124.076 623.508 124.574 623.43 125.12C623.399 125.421 623.432 125.725 623.526 126.012C623.62 126.299 623.773 126.564 623.976 126.788C624.179 127.012 624.426 127.192 624.702 127.314C624.979 127.437 625.278 127.5 625.58 127.5H639.83V166.28C639.809 167.026 640.074 167.752 640.57 168.309C641.066 168.867 641.757 169.214 642.5 169.28C642.885 169.305 643.271 169.25 643.635 169.119C643.998 168.989 644.33 168.785 644.611 168.52C644.893 168.256 645.117 167.937 645.269 167.582C645.422 167.228 645.501 166.846 645.5 166.46V142.38C646.407 142.38 647.277 142.74 647.918 143.382C648.56 144.023 648.92 144.893 648.92 145.8V166.28C648.899 167.026 649.164 167.752 649.66 168.309C650.156 168.867 650.847 169.214 651.59 169.28C651.975 169.305 652.361 169.25 652.725 169.119C653.088 168.989 653.42 168.785 653.701 168.52C653.983 168.256 654.207 167.937 654.359 167.582C654.512 167.228 654.591 166.846 654.59 166.46V127.5H668.84C669.142 127.5 669.441 127.437 669.718 127.314C669.994 127.192 670.241 127.012 670.444 126.788C670.647 126.564 670.8 126.299 670.894 126.012C670.988 125.725 671.021 125.421 670.99 125.12C670.915 124.563 670.635 124.055 670.203 123.696C669.772 123.337 669.221 123.152 668.66 123.18V123.18ZM646 120.77C646.856 120.97 647.749 120.948 648.594 120.707C649.44 120.466 650.21 120.013 650.831 119.391C651.453 118.77 651.906 118 652.147 117.154C652.388 116.309 652.41 115.416 652.21 114.56C651.996 113.621 651.522 112.761 650.84 112.08C650.159 111.398 649.299 110.924 648.36 110.71C647.505 110.512 646.613 110.535 645.769 110.778C644.925 111.02 644.157 111.473 643.536 112.094C642.916 112.716 642.464 113.485 642.224 114.329C641.983 115.173 641.961 116.065 642.16 116.92C642.374 117.858 642.848 118.716 643.527 119.397C644.206 120.078 645.063 120.554 646 120.77V120.77Z" fill="#8ABAF1"/>
<path d="M649.52 115.74C649.518 116.859 649.151 117.948 648.474 118.839C647.797 119.731 646.848 120.377 645.77 120.68C646.227 120.819 646.702 120.894 647.18 120.9C648.549 120.9 649.861 120.356 650.829 119.389C651.796 118.421 652.34 117.109 652.34 115.74C652.34 114.371 651.796 113.059 650.829 112.091C649.861 111.124 648.549 110.58 647.18 110.58C646.702 110.586 646.227 110.661 645.77 110.8C646.848 111.103 647.797 111.749 648.474 112.641C649.151 113.532 649.518 114.621 649.52 115.74V115.74Z" fill="#6986C5"/>
<path d="M642.65 166.44C642.649 166.933 642.518 167.417 642.271 167.844C642.023 168.27 641.668 168.624 641.24 168.87C641.708 169.148 642.246 169.283 642.79 169.26C643.529 169.181 644.212 168.83 644.707 168.276C645.202 167.722 645.474 167.003 645.47 166.26V142.38C644.722 142.38 644.005 142.677 643.476 143.206C642.947 143.735 642.65 144.452 642.65 145.2V166.44Z" fill="#6986C5"/>
<path d="M668.78 123.18H666C666.573 123.18 667.122 123.408 667.527 123.813C667.932 124.218 668.16 124.767 668.16 125.34C668.16 125.913 667.932 126.462 667.527 126.867C667.122 127.272 666.573 127.5 666 127.5H668.82C669.393 127.5 669.942 127.272 670.347 126.867C670.752 126.462 670.98 125.913 670.98 125.34C670.98 124.767 670.752 124.218 670.347 123.813C669.942 123.408 669.393 123.18 668.82 123.18H668.78Z" fill="#6986C5"/>
<path d="M651.71 142.38V166.44C651.709 166.933 651.578 167.417 651.331 167.844C651.083 168.27 650.728 168.624 650.3 168.87C650.768 169.147 651.307 169.282 651.85 169.26C652.589 169.181 653.272 168.83 653.767 168.276C654.262 167.722 654.534 167.003 654.53 166.26V127.5C653.782 127.5 653.065 127.797 652.536 128.326C652.007 128.855 651.71 129.572 651.71 130.32V142.38Z" fill="#6986C5"/>
<path d="M651.08 131.88H659.85" stroke="#6D4558" stroke-linecap="round" stroke-linejoin="round"/>
<path d="M642.02 157.56H634.88" stroke="#6D4558" stroke-linecap="round" stroke-linejoin="round"/>
<path d="M649.28 113.4H656.72" stroke="#6D4558" stroke-linecap="round" stroke-linejoin="round"/>
<path d="M641.36 139.06H634.88" stroke="#6D4558" stroke-linecap="round" stroke-linejoin="round"/>
<path d="M660.68 115.44C661.807 115.44 662.72 114.527 662.72 113.4C662.72 112.273 661.807 111.36 660.68 111.36C659.553 111.36 658.64 112.273 658.64 113.4C658.64 114.527 659.553 115.44 660.68 115.44Z" fill="#BAE8E0"/>
<path d="M663.59 133.92C664.717 133.92 665.63 133.007 665.63 131.88C665.63 130.753 664.717 129.84 663.59 129.84C662.463 129.84 661.55 130.753 661.55 131.88C661.55 133.007 662.463 133.92 663.59 133.92Z" fill="#FFBF8A"/>
<path d="M631.37 141.1C632.497 141.1 633.41 140.187 633.41 139.06C633.41 137.933 632.497 137.02 631.37 137.02C630.243 137.02 629.33 137.933 629.33 139.06C629.33 140.187 630.243 141.1 631.37 141.1Z" fill="#FF847C"/>
<path d="M631.37 159.6C632.497 159.6 633.41 158.687 633.41 157.56C633.41 156.433 632.497 155.52 631.37 155.52C630.243 155.52 629.33 156.433 629.33 157.56C629.33 158.687 630.243 159.6 631.37 159.6Z" fill="#AB7F95"/>
<path d="M664.13 112.46H668.12" stroke="#6D4558" stroke-linecap="round" stroke-linejoin="round"/>
<path d="M664.13 114.35H669.77" stroke="#6D4558" stroke-linecap="round" stroke-linejoin="round"/>
<path d="M666.95 130.94H670.94" stroke="#6D4558" stroke-linecap="round" stroke-linejoin="round"/>
<path d="M666.95 132.83H672.59" stroke="#6D4558" stroke-linecap="round" stroke-linejoin="round"/>
<path d="M622.22 138.11H626.21" stroke="#6D4558" stroke-linecap="round" stroke-linejoin="round"/>
<path d="M622.22 140H627.86" stroke="#6D4558" stroke-linecap="round" stroke-linejoin="round"/>
<path d="M622.22 156.62H626.21" stroke="#6D4558" stroke-linecap="round" stroke-linejoin="round"/>
<path d="M622.22 158.51H627.86" stroke="#6D4558" stroke-linecap="round" stroke-linejoin="round"/>
<path d="M668.66 123.18H625.71C625.159 123.17 624.623 123.361 624.203 123.718C623.783 124.076 623.508 124.574 623.43 125.12C623.399 125.421 623.432 125.725 623.526 126.012C623.62 126.299 623.773 126.564 623.976 126.788C624.179 127.012 624.426 127.192 624.702 127.314C624.979 127.437 625.278 127.5 625.58 127.5H639.83V166.28C639.809 167.026 640.074 167.752 640.57 168.309C641.066 168.867 641.757 169.214 642.5 169.28C642.885 169.305 643.271 169.25 643.635 169.119C643.998 168.989 644.33 168.785 644.611 168.52C644.893 168.256 645.117 167.937 645.269 167.582C645.422 167.228 645.501 166.846 645.5 166.46V142.38C646.407 142.38 647.277 142.74 647.918 143.382C648.56 144.023 648.92 144.893 648.92 145.8V166.28C648.899 167.026 649.164 167.752 649.66 168.309C650.156 168.867 650.847 169.214 651.59 169.28C651.975 169.305 652.361 169.25 652.725 169.119C653.088 168.989 653.42 168.785 653.701 168.52C653.983 168.256 654.207 167.937 654.359 167.582C654.512 167.228 654.591 166.846 654.59 166.46V127.5H668.84C669.142 127.5 669.441 127.437 669.718 127.314C669.994 127.192 670.241 127.012 670.444 126.788C670.647 126.564 670.8 126.299 670.894 126.012C670.988 125.725 671.021 125.421 670.99 125.12C670.915 124.563 670.635 124.055 670.203 123.696C669.772 123.337 669.221 123.152 668.66 123.18V123.18ZM646 120.77C646.856 120.97 647.749 120.948 648.594 120.707C649.44 120.466 650.21 120.013 650.831 119.391C651.453 118.77 651.906 118 652.147 117.154C652.388 116.309 652.41 115.416 652.21 114.56C651.996 113.621 651.522 112.761 650.84 112.08C650.159 111.398 649.299 110.924 648.36 110.71C647.505 110.512 646.613 110.535 645.769 110.778C644.925 111.02 644.157 111.473 643.536 112.094C642.916 112.716 642.464 113.485 642.224 114.329C641.983 115.173 641.961 116.065 642.16 116.92C642.374 117.858 642.848 118.716 643.527 119.397C644.206 120.078 645.063 120.554 646 120.77V120.77Z" stroke="#6D4558" stroke-linecap="round" stroke-linejoin="round"/>
<path d="M39.68 356.69C39.27 356.57 34.32 355.06 32.84 350.21C32.472 348.882 32.385 347.491 32.5848 346.128C32.7845 344.764 33.2665 343.457 34 342.29C36.58 338.03 42.07 336.18 46.51 337.07C52.44 338.26 57.13 344.48 56.86 352.01C58.43 348.46 62.07 346.62 65.23 347.42C68.62 348.28 69.9 351.81 70 352.1C70.1013 350.337 70.783 348.657 71.9389 347.322C73.0947 345.987 74.6597 345.072 76.39 344.72C77.9153 344.392 79.5051 344.555 80.9329 345.183C82.3606 345.812 83.5535 346.876 84.3414 348.222C85.1294 349.569 85.4722 351.13 85.3212 352.682C85.1701 354.235 84.5327 355.701 83.5 356.87L39.68 356.69Z" fill="#BAE8E0"/>
<path d="M84.59 348.68C83.8383 347.22 82.6348 346.041 81.159 345.32C79.6831 344.6 78.0139 344.375 76.4 344.68C76.1733 344.718 75.9494 344.771 75.73 344.84C76.7479 345.096 77.6989 345.568 78.5184 346.223C79.338 346.879 80.007 347.703 80.48 348.64C81.1073 349.96 81.34 351.434 81.1502 352.883C80.9604 354.332 80.3561 355.696 79.41 356.81H83.51C84.4476 355.699 85.0475 354.344 85.2389 352.903C85.4303 351.462 85.2051 349.997 84.59 348.68V348.68Z" fill="#9DDFD3"/>
<path d="M39.68 356.69C39.27 356.57 34.32 355.06 32.84 350.21C32.472 348.882 32.385 347.491 32.5848 346.128C32.7845 344.764 33.2665 343.457 34 342.29C36.58 338.03 42.07 336.18 46.51 337.07C52.44 338.26 57.13 344.48 56.86 352.01C58.43 348.46 62.07 346.62 65.23 347.42C68.62 348.28 69.9 351.81 70 352.1C70.1013 350.337 70.783 348.657 71.9389 347.322C73.0947 345.987 74.6597 345.072 76.39 344.72C77.9153 344.392 79.5051 344.555 80.9329 345.183C82.3606 345.812 83.5535 346.876 84.3414 348.222C85.1294 349.569 85.4722 351.13 85.3212 352.682C85.1701 354.235 84.5327 355.701 83.5 356.87L39.68 356.69Z" stroke="#6D4558" stroke-linecap="round" stroke-linejoin="round"/>
<path d="M49 326.47C49.35 324.47 43.72 321.55 39 320.55C35 319.7 29.15 319.7 28.57 321.55C27.99 323.4 32.63 327.06 37.39 328.29C42.45 329.64 48.61 328.45 49 326.47Z" fill="#BAE8E0"/>
<path d="M44.43 315.33C45.02 313.49 39.21 310.13 36.43 308.8C32.74 307.01 26.33 304.86 25.27 306.55C24.33 308.05 27.64 312.5 31.75 314.74C37 317.58 43.85 317.15 44.43 315.33Z" fill="#BAE8E0"/>
<path d="M39.8 303C40.64 301.95 38.45 298.95 35.66 295.14C33.2 291.78 29.43 286.62 27.5 287.4C25.9 288.05 25.64 292.78 27.32 296.28C30.17 302.29 38.54 304.62 39.8 303Z" fill="#BAE8E0"/>
<path d="M28.55 321.58C28.73 320.98 29.46 320.58 30.49 320.32C31.35 322.27 35.21 324.96 39.17 325.99C42.3531 326.814 45.7037 326.728 48.84 325.74C48.9516 325.966 48.9933 326.22 48.96 326.47C48.61 328.47 42.45 329.64 37.37 328.32C32.61 327.09 28 323.45 28.55 321.58Z" fill="#9DDFD3"/>
<path d="M25.31 306.55C25.6 306.09 26.31 305.92 27.2 305.95C28 307.95 30.57 310.76 33.59 312.4C36.827 314.146 40.547 314.781 44.18 314.21C44.3008 314.367 44.3857 314.549 44.4289 314.742C44.4721 314.936 44.4725 315.136 44.43 315.33C43.85 317.15 36.98 317.58 31.79 314.74C27.68 312.5 24.37 308.05 25.31 306.55Z" fill="#9DDFD3"/>
<path d="M27.5 287.44C27.6856 287.373 27.8856 287.355 28.08 287.39C27.7843 289.637 28.131 291.922 29.08 293.98C31.24 298.51 36.58 300.98 39.58 301.16C39.96 302.01 40.06 302.66 39.76 303.04C38.5 304.62 30.13 302.29 27.28 296.32C25.64 292.82 25.9 288.09 27.5 287.44Z" fill="#9DDFD3"/>
<path d="M52.88 360.46C53.4458 355.923 53.6064 351.345 53.36 346.78C52.29 327.15 44.09 317.57 39.68 300.94C36.7764 289.658 36.124 277.914 37.76 266.38" stroke="#6D4558" stroke-linecap="round" stroke-linejoin="round"/>
<path d="M49 326.47C49.35 324.47 43.72 321.55 39 320.55C35 319.7 29.15 319.7 28.57 321.55C27.99 323.4 32.63 327.06 37.39 328.29C42.45 329.64 48.61 328.45 49 326.47Z" stroke="#6D4558" stroke-linecap="round" stroke-linejoin="round"/>
<path d="M44.43 315.33C45.02 313.49 39.21 310.13 36.43 308.8C32.74 307.01 26.33 304.86 25.27 306.55C24.33 308.05 27.64 312.5 31.75 314.74C37 317.58 43.85 317.15 44.43 315.33Z" stroke="#6D4558" stroke-linecap="round" stroke-linejoin="round"/>
<path d="M37.42 273.76C39.31 273.35 39.32 266.64 39.1 263.6C38.82 259.51 37.48 252.88 35.49 252.81C33.72 252.74 31.49 257.81 31.62 262.51C31.75 268.42 35.55 274.17 37.42 273.76Z" fill="#BAE8E0"/>
<path d="M35.49 252.81C36.03 252.81 36.49 253.34 36.96 254.15C35.63 255.83 34.47 259.47 34.55 262.9C34.643 266.583 35.9469 270.133 38.26 273C38.1858 273.184 38.0721 273.349 37.9269 273.484C37.7817 273.618 37.6087 273.72 37.42 273.78C35.55 274.19 31.75 268.44 31.62 262.53C31.52 257.83 33.72 252.74 35.49 252.81Z" fill="#9DDFD3"/>
<path d="M37.42 273.76C39.31 273.35 39.32 266.64 39.1 263.6C38.82 259.51 37.48 252.88 35.49 252.81C33.72 252.74 31.49 257.81 31.62 262.51C31.75 268.42 35.55 274.17 37.42 273.76Z" stroke="#6D4558" stroke-linecap="round" stroke-linejoin="round"/>
<path d="M56.46 301.7C54.64 301.06 51.1 306.76 49.68 309.45C47.76 313.08 45.41 319.45 47.06 320.53C48.53 321.53 53.06 318.35 55.46 314.32C58.47 309.23 58.26 302.34 56.46 301.7Z" fill="#BAE8E0"/>
<path d="M47.06 320.53C46.61 320.22 46.47 319.53 46.52 318.61C48.52 317.89 51.44 315.4 53.18 312.44C55.0302 309.264 55.7889 305.568 55.34 301.92C55.4999 301.805 55.6827 301.726 55.876 301.688C56.0693 301.65 56.2685 301.654 56.46 301.7C58.26 302.34 58.46 309.23 55.46 314.32C53.08 318.35 48.53 321.52 47.06 320.53Z" fill="#9DDFD3"/>
<path d="M56.46 301.7C54.64 301.06 51.1 306.76 49.68 309.45C47.76 313.08 45.41 319.45 47.06 320.53C48.53 321.53 53.06 318.35 55.46 314.32C58.47 309.23 58.26 302.34 56.46 301.7Z" stroke="#6D4558" stroke-linecap="round" stroke-linejoin="round"/>
<path d="M39.8 303C40.64 301.95 38.45 298.95 35.66 295.14C33.2 291.78 29.43 286.62 27.5 287.4C25.9 288.05 25.64 292.78 27.32 296.28C30.17 302.29 38.54 304.62 39.8 303Z" stroke="#6D4558" stroke-linecap="round" stroke-linejoin="round"/>
<path d="M36.74 284.61C37.58 283.56 35.39 280.56 32.6 276.75C30.14 273.39 26.37 268.23 24.44 269.01C22.84 269.66 22.59 274.39 24.26 277.89C27.11 283.86 35.49 286.19 36.74 284.61Z" fill="#BAE8E0"/>
<path d="M24.44 269C24.6236 268.953 24.8163 268.953 25 269C24.7043 271.247 25.051 273.532 26 275.59C28.16 280.12 33.5 282.59 36.5 282.77C36.88 283.62 36.98 284.27 36.68 284.65C35.43 286.23 27.05 283.9 24.2 277.93C22.59 274.39 22.84 269.66 24.44 269Z" fill="#9DDFD3"/>
<path d="M36.74 284.61C37.58 283.56 35.39 280.56 32.6 276.75C30.14 273.39 26.37 268.23 24.44 269.01C22.84 269.66 22.59 274.39 24.26 277.89C27.11 283.86 35.49 286.19 36.74 284.61Z" stroke="#6D4558" stroke-linecap="round" stroke-linejoin="round"/>
<path d="M48.63 288.05C47.3 287.89 45.9 291.33 44.13 295.7C42.57 299.57 40.13 305.49 41.85 306.7C43.25 307.7 47.39 305.44 49.49 302.17C53.07 296.63 50.63 288.28 48.63 288.05Z" fill="#BAE8E0"/>
<path d="M41.85 306.72C41.693 306.598 41.572 306.435 41.5 306.25C43.5602 305.302 45.3132 303.795 46.56 301.9C49.27 297.67 48.56 291.9 47.13 289.19C47.65 288.42 48.13 287.99 48.63 288.05C50.63 288.28 53.07 296.63 49.49 302.19C47.39 305.46 43.25 307.74 41.85 306.72Z" fill="#9DDFD3"/>
<path d="M48.63 288.05C47.3 287.89 45.9 291.33 44.13 295.7C42.57 299.57 40.13 305.49 41.85 306.7C43.25 307.7 47.39 305.44 49.49 302.17C53.07 296.63 50.63 288.28 48.63 288.05Z" stroke="#6D4558" stroke-linecap="round" stroke-linejoin="round"/>
<path d="M44.87 272.1C43.53 271.95 42.14 275.39 40.36 279.76C38.8 283.62 36.36 289.55 38.08 290.76C39.48 291.76 43.63 289.5 45.72 286.23C49.3 280.69 46.87 272.34 44.87 272.1Z" fill="#BAE8E0"/>
<path d="M38.08 290.78C37.9288 290.652 37.8091 290.491 37.73 290.31C39.7862 289.374 41.5392 287.881 42.79 286C45.5 281.78 44.79 276 43.36 273.3C43.88 272.52 44.36 272.1 44.87 272.15C46.87 272.39 49.3 280.74 45.72 286.3C43.63 289.52 39.48 291.8 38.08 290.78Z" fill="#9DDFD3"/>
<path d="M44.87 272.1C43.53 271.95 42.14 275.39 40.36 279.76C38.8 283.62 36.36 289.55 38.08 290.76C39.48 291.76 43.63 289.5 45.72 286.23C49.3 280.69 46.87 272.34 44.87 272.1Z" stroke="#6D4558" stroke-linecap="round" stroke-linejoin="round"/>
<path d="M67.09 340.87C66.15 339.03 70.82 333.87 76.47 331.87C81.66 330.03 88.1 330.73 88.62 332.68C89.14 334.63 82.97 338.2 78.62 339.79C74.81 341.19 68 342.75 67.09 340.87Z" fill="#BAE8E0"/>
<path d="M71 324C70.64 322 76.27 319.09 81 318.09C85 317.23 90.85 317.24 91.43 319.09C92.01 320.94 87.37 324.6 82.61 325.83C77.5 327.22 71.35 326 71 324Z" fill="#BAE8E0"/>
<path d="M75.52 312.9C74.94 311.06 80.75 307.71 83.52 306.38C87.21 304.59 93.61 302.44 94.68 304.13C95.62 305.63 92.3 310.07 88.2 312.32C83 315.16 76.1 314.73 75.52 312.9Z" fill="#BAE8E0"/>
<path d="M80.16 300.62C79.32 299.57 81.51 296.57 84.3 292.76C86.75 289.4 90.53 284.24 92.46 285.02C94.06 285.67 94.31 290.39 92.64 293.9C89.79 299.87 81.41 302.2 80.16 300.62Z" fill="#BAE8E0"/>
<path d="M88.62 332.66C88.46 332.06 87.74 331.58 86.62 331.25C85.62 333.32 80.53 336.06 76.82 337.43C74.01 338.43 69.67 339.57 67.14 339.37C67.0204 339.599 66.9498 339.851 66.9326 340.109C66.9154 340.368 66.952 340.627 67.04 340.87C68.04 342.75 74.76 341.19 78.62 339.77C83 338.18 89.16 334.74 88.62 332.66Z" fill="#9DDFD3"/>
<path d="M91.41 319.16C91.22 318.56 90.49 318.16 89.47 317.9C88.61 319.9 84.75 322.54 80.79 323.56C77.6036 324.384 74.2497 324.298 71.11 323.31C71.0095 323.525 70.9714 323.764 71 324C71.35 326 77.5 327.18 82.59 325.86C87.35 324.67 92 321 91.41 319.16Z" fill="#9DDFD3"/>
<path d="M94.65 304.13C94.36 303.67 93.65 303.5 92.75 303.52C91.96 305.52 89.38 308.33 86.37 309.98C83.1326 311.724 79.413 312.36 75.78 311.79C75.6583 311.945 75.572 312.124 75.5271 312.316C75.4822 312.508 75.4798 312.707 75.52 312.9C76.1 314.73 82.98 315.16 88.17 312.32C92.27 310.07 95.59 305.63 94.65 304.13Z" fill="#9DDFD3"/>
<path d="M92.46 285C92.2707 284.934 92.0686 284.914 91.87 284.94C92.161 287.19 91.8145 289.477 90.87 291.54C88.7 296.07 83.37 298.54 80.37 298.72C79.98 299.57 79.88 300.21 80.19 300.6C81.44 302.18 89.82 299.85 92.67 293.88C94.31 290.39 94.06 285.67 92.46 285Z" fill="#9DDFD3"/>
<path d="M67.08 358C66.5093 353.464 66.3486 348.885 66.6 344.32C67.66 324.69 75.86 315.11 80.28 298.48C83.1674 287.223 83.8197 275.508 82.2 264" stroke="#6D4558" stroke-linecap="round" stroke-linejoin="round"/>
<path d="M67.09 340.87C66.15 339.03 70.82 333.87 76.47 331.87C81.66 330.03 88.1 330.73 88.62 332.68C89.14 334.63 82.97 338.2 78.62 339.79C74.81 341.19 68 342.75 67.09 340.87Z" stroke="#6D4558" stroke-linecap="round" stroke-linejoin="round"/>
<path d="M46.92 334.36C47.87 332.52 54.8 333.26 59.73 336.66C64.27 339.78 67.48 345.41 66.2 346.97C64.92 348.53 58.42 345.64 54.61 343.09C51.19 340.8 46 336.23 46.92 334.36Z" fill="#BAE8E0"/>
<path d="M66.2 347C66.3904 346.629 66.4897 346.217 66.4897 345.8C66.4897 345.383 66.3904 344.971 66.2 344.6C63.94 345.01 58.73 342.49 55.44 340.29C52.96 338.62 49.52 335.75 48.2 333.59C47.9429 333.628 47.6965 333.718 47.4762 333.856C47.2559 333.994 47.0665 334.175 46.92 334.39C45.92 336.26 51.19 340.83 54.61 343.12C58.42 345.64 64.84 348.63 66.2 347Z" fill="#9DDFD3"/>
<path d="M46.92 334.36C47.87 332.52 54.8 333.26 59.73 336.66C64.27 339.78 67.48 345.41 66.2 346.97C64.92 348.53 58.42 345.64 54.61 343.09C51.19 340.8 46 336.23 46.92 334.36Z" stroke="#6D4558" stroke-linecap="round" stroke-linejoin="round"/>
<path d="M71 324C70.64 322 76.27 319.09 81 318.09C85 317.23 90.85 317.24 91.43 319.09C92.01 320.94 87.37 324.6 82.61 325.83C77.5 327.22 71.35 326 71 324Z" stroke="#6D4558" stroke-linecap="round" stroke-linejoin="round"/>
<path d="M68.06 332.92C69.44 331.4 66.23 325.92 62.79 322.58C59.85 319.71 54.92 316.58 53.43 317.88C51.94 319.18 53.91 324.7 57.28 328.29C60.87 332.12 66.7 334.41 68.06 332.92Z" fill="#BAE8E0"/>
<path d="M53.43 317.88C53.7851 317.689 54.1819 317.589 54.585 317.589C54.9881 317.589 55.3849 317.689 55.74 317.88C55.42 319.99 57.25 324.32 60.05 327.31C62.2906 329.725 65.1677 331.458 68.35 332.31C68.3223 332.56 68.2214 332.797 68.06 332.99C66.7 334.48 60.87 332.19 57.28 328.36C53.91 324.7 51.94 319.15 53.43 317.88Z" fill="#9DDFD3"/>
<path d="M68.06 332.92C69.44 331.4 66.23 325.92 62.79 322.58C59.85 319.71 54.92 316.58 53.43 317.88C51.94 319.18 53.91 324.7 57.28 328.29C60.87 332.12 66.7 334.41 68.06 332.92Z" stroke="#6D4558" stroke-linecap="round" stroke-linejoin="round"/>
<path d="M75.52 312.9C74.94 311.06 80.75 307.71 83.52 306.38C87.21 304.59 93.61 302.44 94.68 304.13C95.62 305.63 92.3 310.07 88.2 312.32C83 315.16 76.1 314.73 75.52 312.9Z" stroke="#6D4558" stroke-linecap="round" stroke-linejoin="round"/>
<path d="M82.53 271.34C80.65 270.93 80.64 264.22 80.85 261.18C81.14 257.09 82.47 250.46 84.47 250.39C86.24 250.32 88.47 255.39 88.33 260.09C88.21 266 84.4 271.75 82.53 271.34Z" fill="#BAE8E0"/>
<path d="M84.47 250.39C83.92 250.39 83.47 250.92 83 251.73C84.32 253.4 85.48 257.05 85.41 260.48C85.3054 264.156 83.9987 267.697 81.69 270.56C81.7654 270.743 81.8795 270.907 82.0245 271.042C82.1695 271.177 82.342 271.278 82.53 271.34C84.4 271.75 88.21 266 88.33 260.09C88.43 255.41 86.24 250.32 84.47 250.39Z" fill="#9DDFD3"/>
<path d="M82.53 271.34C80.65 270.93 80.64 264.22 80.85 261.18C81.14 257.09 82.47 250.46 84.47 250.39C86.24 250.32 88.47 255.39 88.33 260.09C88.21 266 84.4 271.75 82.53 271.34Z" stroke="#6D4558" stroke-linecap="round" stroke-linejoin="round"/>
<path d="M63.49 299.28C65.31 298.63 68.86 304.33 70.28 307.02C72.19 310.65 74.55 317.02 72.89 318.1C71.42 319.1 66.89 315.93 64.49 311.9C61.49 306.81 61.69 299.92 63.49 299.28Z" fill="#BAE8E0"/>
<path d="M72.89 318.1C73.34 317.8 73.49 317.1 73.43 316.19C71.43 315.46 68.52 312.98 66.77 310.02C64.9225 306.843 64.1673 303.147 64.62 299.5C64.4592 299.383 64.2747 299.303 64.0794 299.265C63.8842 299.227 63.683 299.232 63.49 299.28C61.69 299.92 61.49 306.81 64.49 311.9C66.87 315.93 71.42 319.1 72.89 318.1Z" fill="#9DDFD3"/>
<path d="M63.49 299.28C65.31 298.63 68.86 304.33 70.28 307.02C72.19 310.65 74.55 317.02 72.89 318.1C71.42 319.1 66.89 315.93 64.49 311.9C61.49 306.81 61.69 299.92 63.49 299.28Z" stroke="#6D4558" stroke-linecap="round" stroke-linejoin="round"/>
<path d="M80.16 300.62C79.32 299.57 81.51 296.57 84.3 292.76C86.75 289.4 90.53 284.24 92.46 285.02C94.06 285.67 94.31 290.39 92.64 293.9C89.79 299.87 81.41 302.2 80.16 300.62Z" stroke="#6D4558" stroke-linecap="round" stroke-linejoin="round"/>
<path d="M83.22 282.19C82.38 281.13 84.57 278.14 87.36 274.33C89.81 270.97 93.59 265.81 95.52 266.59C97.12 267.24 97.37 271.96 95.7 275.47C92.85 281.44 84.47 283.76 83.22 282.19Z" fill="#BAE8E0"/>
<path d="M95.52 266.59C95.3307 266.524 95.1287 266.504 94.93 266.53C95.221 268.78 94.8746 271.067 93.93 273.13C91.76 277.66 86.42 280.13 83.42 280.31C83.04 281.16 82.94 281.8 83.25 282.19C84.5 283.76 92.88 281.44 95.73 275.47C97.37 272 97.12 267.24 95.52 266.59Z" fill="#9DDFD3"/>
<path d="M83.22 282.19C82.38 281.13 84.57 278.14 87.36 274.33C89.81 270.97 93.59 265.81 95.52 266.59C97.12 267.24 97.37 271.96 95.7 275.47C92.85 281.44 84.47 283.76 83.22 282.19Z" stroke="#6D4558" stroke-linecap="round" stroke-linejoin="round"/>
<path d="M71.32 285.62C72.66 285.47 74.05 288.9 75.82 293.28C77.38 297.14 79.82 303.07 78.1 304.28C76.71 305.28 72.56 303.02 70.46 299.75C66.88 294.21 69.32 285.86 71.32 285.62Z" fill="#BAE8E0"/>
<path d="M78.1 304.3C78.2571 304.176 78.3808 304.014 78.46 303.83C76.3947 302.885 74.6401 301.373 73.4 299.47C70.68 295.25 71.4 289.47 72.82 286.77C72.3 285.99 71.82 285.57 71.32 285.62C69.32 285.86 66.88 294.21 70.46 299.77C72.56 303 76.71 305.32 78.1 304.3Z" fill="#9DDFD3"/>
<path d="M71.32 285.62C72.66 285.47 74.05 288.9 75.82 293.28C77.38 297.14 79.82 303.07 78.1 304.28C76.71 305.28 72.56 303.02 70.46 299.75C66.88 294.21 69.32 285.86 71.32 285.62Z" stroke="#6D4558" stroke-linecap="round" stroke-linejoin="round"/>
<path d="M75.09 269.68C76.42 269.52 77.82 272.96 79.59 277.34C81.15 281.2 83.59 287.13 81.87 288.34C80.48 289.34 76.33 287.09 74.23 283.82C70.65 278.26 73.09 269.92 75.09 269.68Z" fill="#BAE8E0"/>
<path d="M81.87 288.35C82.0289 288.232 82.1532 288.073 82.23 287.89C80.1663 286.938 78.4101 285.428 77.16 283.53C74.45 279.31 75.16 273.53 76.59 270.83C76.07 270.05 75.59 269.62 75.09 269.68C73.09 269.92 70.65 278.26 74.23 283.83C76.33 287.1 80.48 289.37 81.87 288.35Z" fill="#9DDFD3"/>
<path d="M75.09 269.68C76.42 269.52 77.82 272.96 79.59 277.34C81.15 281.2 83.59 287.13 81.87 288.34C80.48 289.34 76.33 287.09 74.23 283.82C70.65 278.26 73.09 269.92 75.09 269.68Z" stroke="#6D4558" stroke-linecap="round" stroke-linejoin="round"/>
<path d="M76.04 393H44.84L38.84 358.04H82.04L76.04 393Z" fill="#D2A186"/>
<path d="M80.76 365.48L81.83 359.24H39.05L40.12 365.48H80.76Z" fill="#B18D7B"/>
<path d="M76.04 393H44.84L38.84 358.04H82.04L76.04 393Z" stroke="#6D4558" stroke-linecap="round" stroke-linejoin="round"/>
<path d="M83.96 354.92H36.92C35.1969 354.92 33.8 356.317 33.8 358.04C33.8 359.763 35.1969 361.16 36.92 361.16H83.96C85.6831 361.16 87.08 359.763 87.08 358.04C87.08 356.317 85.6831 354.92 83.96 354.92Z" fill="#D2A186"/>
<path d="M83.96 354.92H36.92C35.1969 354.92 33.8 356.317 33.8 358.04C33.8 359.763 35.1969 361.16 36.92 361.16H83.96C85.6831 361.16 87.08 359.763 87.08 358.04C87.08 356.317 85.6831 354.92 83.96 354.92Z" stroke="#6D4558" stroke-linecap="round" stroke-linejoin="round"/>
<path d="M378 162.92C370.64 158.6 367.26 151.43 369.12 146.31C370.92 141.31 377.86 137.73 380.55 139.47C382.17 140.47 382.03 143.35 381.99 144.24C381.73 149.81 376.26 152.9 375.66 153.24L378 162.92Z" fill="#FFECD2"/>
<path d="M382 144.24C382 143.35 382.18 140.51 380.56 139.47C380.174 139.236 379.74 139.096 379.29 139.06C380.1 140.744 380.346 142.645 379.99 144.48C379.08 148.4 375.26 149.24 373.99 152.94C373.43 154.58 373.25 157.13 375.22 161C376.104 161.705 377.036 162.346 378.01 162.92L375.67 153.22C376.22 152.9 381.69 149.81 382 144.24Z" fill="#EAB292"/>
<path d="M378 162.92C370.64 158.6 367.26 151.43 369.12 146.31C370.92 141.31 377.86 137.73 380.55 139.47C382.17 140.47 382.03 143.35 381.99 144.24C381.73 149.81 376.26 152.9 375.66 153.24L378 162.92Z" stroke="#6D4558" stroke-linecap="round" stroke-linejoin="round"/>
</svg>
