<svg width="293" height="262" viewBox="0 0 293 262" fill="none" xmlns="http://www.w3.org/2000/svg">
<g clip-path="url(#clip0)">
<path fill-rule="evenodd" clip-rule="evenodd" d="M133.74 241.78C134.167 245.5 134.647 249.407 135.18 253.5L142.77 253.41C143.217 249.083 143.65 244.89 144.07 240.83L133.74 241.78Z" fill="#B28B67"/>
<path fill-rule="evenodd" clip-rule="evenodd" d="M133.82 251.77C133.333 252.904 133.036 254.11 132.94 255.34C132.989 256.744 133.15 258.142 133.42 259.52H159.15C159.92 256.96 159.49 255.58 157.8 255.37C156.934 255.235 156.076 255.052 155.23 254.82L143.85 248.67C143.784 248.639 143.713 248.622 143.64 248.62H143.44L143.27 248.73C143.218 248.777 143.177 248.835 143.15 248.9L142.26 251.07C141.092 251.688 139.808 252.055 138.49 252.15C137.354 252.06 136.248 251.741 135.24 251.21C134.979 251.11 134.691 251.11 134.43 251.21C134.301 251.257 134.182 251.33 134.083 251.425C133.983 251.519 133.904 251.633 133.85 251.76L133.82 251.77Z" fill="#384A51"/>
<path fill-rule="evenodd" clip-rule="evenodd" d="M137.45 240.17C135.943 243.868 135.113 247.808 135 251.8L143.25 252.89C144.32 248.67 145.35 244.57 146.33 240.62L137.45 240.17Z" fill="#B28B67"/>
<path fill-rule="evenodd" clip-rule="evenodd" d="M134.64 250C133.998 251.058 133.532 252.213 133.26 253.42C133.108 254.815 133.071 256.22 133.15 257.62L158.65 261.22C159.77 258.79 159.54 257.36 157.9 256.92C157.061 256.66 156.237 256.356 155.43 256.01L145 248.29C144.942 248.255 144.877 248.231 144.81 248.22H144.6C144.533 248.242 144.469 248.272 144.41 248.31C144.356 248.353 144.309 248.403 144.27 248.46L143.09 250.46C141.843 250.902 140.52 251.085 139.2 251C138.087 250.744 137.036 250.268 136.11 249.6C135.875 249.45 135.591 249.4 135.319 249.46C135.047 249.52 134.81 249.686 134.66 249.92L134.64 250Z" fill="#384A51"/>
<path d="M158.77 98.0003C172.4 115.77 166.28 165.69 166.12 191.19C165.97 216.84 165.02 236.66 164.27 243.41C164.273 243.738 164.21 244.064 164.086 244.368C163.962 244.672 163.779 244.948 163.547 245.18C163.316 245.413 163.04 245.597 162.737 245.722C162.433 245.848 162.108 245.912 161.78 245.91H148.67C146.84 245.91 146.56 244.51 146.58 242.14C146.67 230.86 148.8 197.51 147.31 186.79C145.52 173.86 140.64 141.15 140.64 141.15C140.64 141.15 137.86 180.2 136.64 192.8C135.47 204.33 130.77 235.63 129.52 243.89C129.462 244.455 129.191 244.976 128.761 245.348C128.332 245.72 127.777 245.914 127.21 245.89H115.88C114.09 245.89 110.7 244.71 111.26 240.96C112.71 231.29 115.33 204.67 114.91 188.96C112.91 115.96 125.59 97.9602 125.59 97.9602C125.08 94.7602 157.25 96.0603 158.77 98.0003Z" fill="#FFBF8A"/>
<path d="M127.16 246H115.88C114.09 246 110.7 244.82 111.26 241.07C112.71 231.4 115.33 204.78 114.91 189.07C112.91 116.07 125.59 98.0698 125.59 98.0698C125.08 94.7898 157.25 96.0698 158.77 98.0698" stroke="black" stroke-width="0.5" stroke-miterlimit="10"/>
<path d="M164.27 243.45C164.273 243.778 164.21 244.104 164.086 244.407C163.962 244.711 163.779 244.988 163.547 245.22C163.315 245.453 163.04 245.637 162.737 245.762C162.433 245.887 162.108 245.951 161.78 245.95H148.67C146.84 245.95 146.56 244.55 146.58 242.18C146.67 230.9 148.8 197.55 147.31 186.83C145.52 173.9 140.64 141.19 140.64 141.19" stroke="black" stroke-width="0.5" stroke-miterlimit="10"/>
<path d="M130.87 44.5001L148.22 44.3001C148.22 44.3001 150.41 42.6901 156.79 43.7101C166.19 45.2201 163.1 66.8001 163.1 66.8001L158.77 98.0001C158.77 98.0001 160.09 101.57 143.39 101.57C126.69 101.57 125.59 98.0001 125.59 98.0001L118.05 66.1201C118.05 66.1201 115.99 44.0101 121.71 44.1201C125 44.2001 130.87 44.5001 130.87 44.5001Z" fill="#FDF3E8"/>
<path d="M128.68 18.17C128.68 18.17 134.28 10.73 135.61 9.76C136.94 8.79 139.24 7.14 139.19 6.76C139.14 6.38 138.58 5 134.65 8C132.92 9.28 132.65 10.14 132.65 10.14C132.835 9.48378 133.075 8.84473 133.37 8.23C135.2 6.48 143.17 4.71 143.17 4.71C143.75 4.29 142.71 3.31 140 2.14C138.08 1.32 131.82 3.46 131.72 3.53C130.453 3.79343 129.341 4.54861 128.63 5.63C127.115 8.96112 125.406 12.2001 123.51 15.33L128.68 18.17Z" fill="#B28B67"/>
<path fill-rule="evenodd" clip-rule="evenodd" d="M133.9 0.510047L132.55 0.820047C124.5 2.70005 120.21 13.82 122.09 21.89L124.7 33.07C125.541 36.6463 127.665 39.7895 130.669 41.9037C133.674 44.0179 137.35 44.956 141 44.54V44.65L160.67 40.06C163.07 36.29 156.47 16.89 153.18 10C149.07 1.27005 141.22 -1.19995 133.9 0.510047Z" fill="black"/>
<path fill-rule="evenodd" clip-rule="evenodd" d="M131 46.6302C131 46.6302 134 50.1302 141.88 49.4102C147.88 48.8702 149.36 42.8002 149.36 42.8002L147.07 36.2602C147.07 36.2602 150.27 36.2602 151.68 34.8902C157.89 28.6902 153.58 13.0302 147.95 6.6202C142.32 0.210205 121.36 1.7302 123.73 16.4902C124.55 21.6102 127.73 25.6102 131.73 28.5502L131 46.6302Z" fill="#B28B67"/>
<path fill-rule="evenodd" clip-rule="evenodd" d="M149.33 18.3003C149.726 17.9917 150.203 17.8041 150.703 17.7597C151.203 17.7154 151.706 17.8163 152.15 18.0503C152.29 18.1303 152.22 18.3303 152.15 18.2803C151.769 18.0822 151.334 18.0121 150.91 18.0803C149.74 18.1603 149.19 18.6103 149.33 18.3003Z" fill="black"/>
<path fill-rule="evenodd" clip-rule="evenodd" d="M139.94 20.4901C140.336 20.1804 140.812 19.992 141.313 19.9477C141.813 19.9033 142.316 20.0049 142.76 20.2401C142.9 20.3201 142.83 20.5201 142.76 20.4701C142.379 20.272 141.944 20.2019 141.52 20.2701C140.35 20.3501 139.79 20.8001 139.94 20.4901Z" fill="black"/>
<path d="M151.63 20.38C151.475 20.4158 151.313 20.4051 151.164 20.3495C151.015 20.2938 150.886 20.1956 150.793 20.067C150.699 19.9385 150.646 19.7852 150.639 19.6265C150.632 19.4677 150.672 19.3103 150.753 19.174C150.835 19.0377 150.955 18.9285 151.099 18.86C151.242 18.7914 151.402 18.7666 151.56 18.7885C151.717 18.8105 151.865 18.8783 151.984 18.9835C152.103 19.0886 152.189 19.2266 152.23 19.38C152.258 19.4851 152.265 19.5949 152.25 19.7027C152.235 19.8105 152.199 19.9142 152.142 20.0075C152.086 20.1008 152.012 20.1819 151.924 20.2459C151.836 20.31 151.736 20.3556 151.63 20.38Z" fill="black"/>
<path d="M142.2 22.39C142.045 22.4238 141.883 22.4113 141.735 22.3542C141.588 22.2971 141.46 22.1977 141.368 22.0685C141.276 21.9393 141.223 21.7859 141.218 21.6274C141.212 21.4689 141.253 21.3122 141.336 21.1768C141.418 21.0413 141.539 20.9332 141.682 20.8656C141.826 20.7981 141.986 20.7742 142.143 20.7969C142.3 20.8196 142.447 20.8879 142.566 20.9933C142.684 21.0988 142.769 21.2367 142.81 21.39C142.837 21.4957 142.842 21.6057 142.826 21.7136C142.81 21.8215 142.772 21.925 142.715 22.0181C142.658 22.1112 142.583 22.1921 142.495 22.2559C142.407 22.3198 142.306 22.3654 142.2 22.39Z" fill="black"/>
<path fill-rule="evenodd" clip-rule="evenodd" d="M136.16 17.9399C140.81 13.2899 146.75 11.0599 147.06 5.27991C144.23 2.65991 140.9 -0.410089 133.06 1.41991C128.96 2.41991 120.85 4.26991 122.96 25.5499C123.51 31.2099 118.58 35.1999 121.82 45.2699C122.65 47.8799 124.43 49.4599 132.27 47.6299C140.27 45.7599 138.76 42.9199 138.86 42.0199C139.42 37.2599 137.66 34.1599 136.18 28.4099C134.51 21.9999 135.81 17.7799 136.16 17.9399Z" fill="black"/>
<path fill-rule="evenodd" clip-rule="evenodd" d="M148.49 7.28982C149.484 9.28826 150.372 11.3378 151.15 13.4298L147.32 14.4298L146.68 9.34982L146.35 14.5498L136.16 17.9798L147.06 5.31982L148.49 7.28982Z" fill="black"/>
<path fill-rule="evenodd" clip-rule="evenodd" d="M147.06 36.26C147.06 36.26 142.94 36.8 140.06 35.71C140.06 35.71 141.69 38.19 147.4 37.77L147.06 36.26Z" fill="#774B2D"/>
<path d="M148.28 26.8298C147.45 27.0098 146.73 26.9498 146.68 26.6898C146.63 26.4298 147.26 26.0798 148.09 25.9098C148.92 25.7398 149.64 25.7998 149.69 26.0498C149.74 26.2998 149.12 26.6598 148.28 26.8298Z" fill="#774B2D"/>
<path fill-rule="evenodd" clip-rule="evenodd" d="M147.51 19.7998C147.51 19.7998 151.51 25.8898 149.2 26.7998C148.224 27.1491 147.153 27.1169 146.2 26.7098C146.2 26.7098 148.79 26.7898 149.29 26.1598C149.79 25.5298 149.5 23.9998 147.51 19.7998Z" fill="black"/>
<path d="M147.151 32.0688C147.796 31.9183 148.186 31.2252 148.022 30.5206C147.858 29.816 147.202 29.3667 146.556 29.5172C145.911 29.6676 145.521 30.3607 145.685 31.0654C145.849 31.77 146.505 32.2192 147.151 32.0688Z" fill="black"/>
<path d="M125.59 98C125.59 98 126.22 101.84 146.59 101.52C146.485 102.873 146.25 104.212 145.89 105.52" stroke="black" stroke-width="0.5" stroke-miterlimit="10"/>
<path d="M143 261.58C147 209.23 142.55 157.88 162.49 108.27C168.15 94.1902 181.05 71.9802 198.89 71.2702C226.44 70.1002 209.57 125.45 204.58 146.16C201.37 159.48 196.58 172.73 191.58 185.47C182.77 208.05 169.51 239.63 159.49 261.63" fill="#384A51"/>
<path d="M128.7 261.58C120 239.39 111.54 217.12 103 194.89C95.39 175.18 86.54 155.89 80.39 135.64C75.71 120.23 63.61 84.9003 81.32 74.0403C112.85 54.7003 138.05 129.53 141.37 156.11C145.76 191.11 144.81 226.37 145.37 261.58" fill="#8CA6AD"/>
<path d="M103.65 261.58C103.65 261.58 85.22 238 76.91 227C58.34 202.35 35.46 175.57 38.91 147.85C39.7 141.47 42.04 134.37 48.45 130.6C52.4931 128.411 57.1145 127.528 61.68 128.07C76.77 129.51 90.28 151.42 97.07 162.65C110.36 184.65 130.94 261.58 130.94 261.58" fill="#384A51"/>
<path d="M89.55 89.5498C112.04 135.04 133.99 219.27 134.55 261.55" stroke="#384A51" stroke-miterlimit="10"/>
<path d="M54.5901 141.79C74.3801 179.79 114.59 261.58 114.59 261.58" stroke="#8CA6AD" stroke-miterlimit="10"/>
<path d="M197.74 83.2603C181.59 119.26 159.46 197.34 150.55 261.69" stroke="#8CA6AD" stroke-miterlimit="10"/>
<path d="M159.52 261.58C159.52 261.58 169.52 220.58 175.88 197.26C182.81 171.94 205.49 133.18 229.33 122.16C234.81 119.63 241.43 117.89 246.73 120.78C249.931 122.706 252.301 125.754 253.38 129.33C257.44 141.17 237.59 178.59 230.77 189.09C217.4 209.65 198.26 242.32 183.08 261.58" fill="#8CA6AD"/>
<path d="M242.31 130.41C214.13 154.88 176.43 232.89 165.89 261.58" stroke="#384A51" stroke-miterlimit="10"/>
<path d="M110.14 95.0001C110.14 95.0001 96.6001 92.4701 88.7101 81.3701C88.0801 78.7201 101.21 62.7301 108 54.6701C109.35 53.0385 111.062 51.7443 113 50.8901L120.18 56.6301L100.62 80.6901C105.32 83.7601 107.22 86.6901 112.83 91.1901C118.24 94.0001 110.14 95.0001 110.14 95.0001Z" fill="#B28B67"/>
<path d="M126.08 48.0702C126.08 48.0702 125.08 46.6502 118.65 46.7502C111.38 46.8602 95.76 69.7502 95.76 69.7502L104.45 76.0002L123.29 62.9002L127.62 58.9002L126.08 48.0702Z" fill="#FDF3E8"/>
<path d="M118.65 46.75C111.38 46.86 95.76 69.75 95.76 69.75L104.45 76L123.29 62.9" stroke="black" stroke-width="0.5" stroke-miterlimit="10"/>
<path d="M110.67 90.46C110.67 90.46 116.13 92.76 117.22 93.02C118.348 93.3737 119.377 93.9906 120.22 94.82C120.29 95.07 119.7 95.82 116.83 94.5C115.41 94.15 115.33 94.5 115.33 94.5C115.33 94.5 117.16 94.98 117.33 95.04C118.94 95.66 121.89 96.66 121.89 96.66C122.28 97.66 121.41 97.66 120.21 97.51C120.82 98.19 120.54 98.65 119.49 98.51C119.546 98.5855 119.582 98.6742 119.594 98.7675C119.606 98.8608 119.594 98.9557 119.558 99.0429C119.523 99.1302 119.466 99.207 119.393 99.266C119.32 99.3251 119.233 99.3643 119.14 99.38C118.133 99.5409 117.102 99.4481 116.14 99.11C115.75 99.2753 115.327 99.3521 114.904 99.3348C114.48 99.3175 114.066 99.2066 113.69 99.01C111.737 97.3368 109.893 95.5398 108.17 93.63L110.67 90.46Z" fill="#B28B67"/>
<path d="M178.64 91.1601C176.79 85.0001 174.71 76.2601 169.81 72.7501C169.81 72.7501 160.51 69.8701 160.81 73.3801C161.29 77.0587 162.569 80.5878 164.557 83.7197C166.546 86.8516 169.195 89.5106 172.32 91.5101C176.72 103.91 177.32 114.63 177.99 117.08C178.76 119.79 181.99 121.9 181.99 116.08C181.99 110.26 179.28 93.3101 178.64 91.1601Z" fill="#B28B67"/>
<path d="M156.81 45.4702C156.81 45.4702 154.59 44.2502 161.38 45.5302C168.53 46.8902 173.75 78.1402 173.75 78.1402L162.66 80.1402L152.69 60.0002L150.58 54.5302L156.81 45.4702Z" fill="#FDF3E8"/>
<path d="M173.75 78.1398L162.66 80.1398C160.679 77.2388 159.042 74.118 157.78 70.8398" stroke="black" stroke-width="0.5" stroke-miterlimit="10"/>
<path d="M177.58 121.73C177.27 122.95 176.9 123.38 176.58 124.5C178.32 125.57 178.88 122.83 179.27 122.41C179.73 122.7 179.68 123.9 179.59 124.3C179.37 125.3 178.92 126.89 179.52 126.93C180.12 126.97 180.25 126.19 180.25 126.19C180.25 126.19 180.36 126.51 180.92 126.28C181.48 126.05 181.48 125.28 181.48 125.28C181.48 125.28 181.71 125.39 182.12 125.09C182.92 124.5 182.49 119.44 182.35 118.26C182.21 117.08 182 116.12 182 116.12L178 117.12C177.962 118.664 177.821 120.204 177.58 121.73Z" fill="#B28B67"/>
<path d="M0 261.69H292.46" stroke="black" stroke-width="0.5" stroke-miterlimit="10"/>
</g>
<defs>
<clipPath id="clip0">
<rect width="292.46" height="261.94" fill="white"/>
</clipPath>
</defs>
</svg>
