<svg width="174" height="68" viewBox="0 0 174 68" fill="none" xmlns="http://www.w3.org/2000/svg">
<path fill-rule="evenodd" clip-rule="evenodd" d="M79.116 26.7953C79.116 24.9171 77.7028 23.468 75.8723 23.468C74.0474 23.468 72.6286 24.9171 72.6286 26.7953C72.6286 28.6736 74.0474 30.1222 75.8723 30.1222C77.7033 30.1222 79.116 28.6736 79.116 26.7953ZM70.7344 26.7953C70.7344 23.8769 72.951 21.6742 75.8723 21.6742C78.7922 21.6742 81.0102 23.8774 81.0102 26.7953C81.0102 29.7137 78.7922 31.916 75.8723 31.916C72.951 31.916 70.7344 29.7137 70.7344 26.7953ZM89.7199 24.9886C89.7199 24.0728 89.1494 23.4353 88.0596 23.4353H86.3872C86.3032 23.4353 86.2226 23.4696 86.1632 23.5305C86.1038 23.5914 86.0704 23.6741 86.0704 23.7603V26.1982C86.0704 26.3772 86.2127 26.5222 86.3872 26.5222H88.0596C89.1499 26.5222 89.7199 25.9443 89.7199 24.9886ZM91.5509 25.0078C91.5509 26.802 90.2959 28.16 88.3451 28.16H86.3872C86.3032 28.16 86.2226 28.1942 86.1632 28.2551C86.1038 28.3161 86.0704 28.3987 86.0704 28.4849V31.4619C86.0705 31.5045 86.0624 31.5466 86.0465 31.586C86.0307 31.6254 86.0074 31.6612 85.9781 31.6913C85.9488 31.7214 85.9139 31.7453 85.8756 31.7616C85.8372 31.778 85.7961 31.7864 85.7546 31.7864H84.4991C84.4575 31.7864 84.4164 31.7781 84.3779 31.7618C84.3395 31.7455 84.3046 31.7216 84.2751 31.6915C84.2457 31.6614 84.2224 31.6256 84.2064 31.5862C84.1905 31.5468 84.1823 31.5045 84.1823 31.4619V22.1288C84.1823 21.9497 84.3241 21.8043 84.4991 21.8043H88.3451C90.2964 21.8043 91.5504 23.2404 91.5504 25.0083L91.5509 25.0078ZM96.4974 23.8515V25.6256C96.4974 25.8046 96.6383 25.9505 96.8137 25.9505H99.633C99.808 25.9505 99.9498 26.0955 99.9498 26.2755V27.3286C99.9498 27.4148 99.9164 27.4974 99.857 27.5584C99.7976 27.6193 99.7171 27.6536 99.633 27.6536H96.8137C96.7722 27.6535 96.731 27.6618 96.6926 27.6781C96.6542 27.6943 96.6193 27.7182 96.5899 27.7483C96.5605 27.7783 96.5372 27.8141 96.5212 27.8534C96.5052 27.8928 96.497 27.9349 96.4969 27.9776V29.7392C96.4969 29.9187 96.6383 30.0641 96.8137 30.0641H100.102C100.277 30.0641 100.419 30.2096 100.419 30.3881V31.4614C100.419 31.5475 100.385 31.6301 100.326 31.691C100.267 31.7519 100.186 31.7862 100.102 31.7864H94.9251C94.8836 31.7864 94.8424 31.7779 94.804 31.7616C94.7656 31.7453 94.7307 31.7213 94.7013 31.6911C94.6719 31.661 94.6486 31.6251 94.6328 31.5857C94.6169 31.5463 94.6088 31.504 94.6088 31.4614V22.1288C94.6088 21.9497 94.7506 21.8048 94.9251 21.8048H100.102C100.276 21.8048 100.418 21.9497 100.418 22.1288V23.2016C100.418 23.2877 100.385 23.3702 100.326 23.4312C100.266 23.4921 100.186 23.5264 100.102 23.5265H96.8133C96.7292 23.5265 96.6487 23.5608 96.5893 23.6217C96.5298 23.6826 96.4965 23.7653 96.4965 23.8515H96.4974ZM113.018 22.1288V31.4614C113.018 31.5476 112.985 31.6302 112.925 31.6912C112.866 31.7521 112.785 31.7864 112.701 31.7864H111.384C111.336 31.7864 111.289 31.7754 111.246 31.7541C111.203 31.7328 111.165 31.7018 111.136 31.6635L106.246 25.364C106.059 25.124 105.682 25.2588 105.682 25.5665V31.4614C105.682 31.5476 105.649 31.6302 105.589 31.6912C105.53 31.7521 105.449 31.7864 105.365 31.7864H104.136C104.052 31.7862 103.972 31.7519 103.912 31.691C103.853 31.6301 103.82 31.5475 103.82 31.4614V22.1288C103.82 21.9497 103.961 21.8043 104.136 21.8043H105.441C105.537 21.8043 105.628 21.8494 105.688 21.9262L110.579 28.2032C110.766 28.4432 111.143 28.3078 111.143 28.0016V22.1283C111.143 21.9492 111.284 21.8038 111.459 21.8038H112.701C112.876 21.8038 113.018 21.9492 113.018 22.1283V22.1288ZM81.0097 43.987C81.0097 46.9179 78.7992 49.1206 75.8723 49.1206C72.951 49.1206 70.7344 46.9174 70.7344 44C70.7344 41.0816 72.951 38.8793 75.8723 38.8793C77.5522 38.8793 79.0009 39.6118 79.9218 40.7825C79.9513 40.8196 79.9725 40.8628 79.984 40.9092C79.9954 40.9556 79.9968 41.004 79.9881 41.051C79.9793 41.0979 79.9607 41.1424 79.9334 41.1812C79.9061 41.22 79.8708 41.2522 79.8301 41.2755L78.7445 41.8904C78.6821 41.9269 78.6093 41.9403 78.5384 41.9285C78.4675 41.9168 78.4027 41.8804 78.3547 41.8256C77.7651 41.12 76.8821 40.6726 75.8653 40.6726C74.0474 40.6726 72.6286 42.0958 72.6286 44.0451C72.6286 45.872 73.8892 47.3273 75.8976 47.3273C77.3262 47.3273 78.3879 46.5939 78.853 45.4308C78.9368 45.2196 78.7782 44.9878 78.5559 44.9878H76.7777C76.7362 44.9878 76.695 44.9794 76.6566 44.9631C76.6182 44.9467 76.5833 44.9228 76.5539 44.8926C76.5245 44.8624 76.5012 44.8266 76.4854 44.7872C76.4695 44.7477 76.4614 44.7055 76.4614 44.6628V43.7139C76.4614 43.5344 76.6032 43.3889 76.7777 43.3889H80.6827C80.8506 43.3889 80.9868 43.5219 80.999 43.6932C81.006 43.7873 81.0097 43.8852 81.0097 43.987ZM91.7788 44C91.7788 42.1217 90.3656 40.6731 88.535 40.6731C86.7106 40.6731 85.2913 42.1217 85.2913 44C85.2913 45.8782 86.7106 47.3268 88.535 47.3268C90.3656 47.3268 91.7788 45.8782 91.7788 44ZM83.3971 44C83.3971 41.0816 85.6142 38.8788 88.535 38.8788C91.4549 38.8788 93.673 41.082 93.673 44C93.673 46.9184 91.4549 49.1211 88.535 49.1211C85.6142 49.1211 83.3971 46.9179 83.3971 44ZM104.482 39.4486L101.034 48.7812C101.012 48.8428 100.971 48.8958 100.919 48.9333C100.866 48.9707 100.803 48.9909 100.739 48.991H99.2245C99.1603 48.991 99.0976 48.9709 99.0448 48.9334C98.992 48.8959 98.9515 48.8429 98.9288 48.7812L95.4871 39.4486C95.4691 39.3994 95.4629 39.3465 95.4691 39.2943C95.4753 39.2422 95.4938 39.1924 95.5229 39.1491C95.552 39.1059 95.5909 39.0706 95.6363 39.0461C95.6817 39.0217 95.7321 39.0089 95.7833 39.0089H97.0982C97.2316 39.0089 97.3509 39.0953 97.3958 39.2244L99.684 45.8019C99.7842 46.0899 100.18 46.0899 100.28 45.8024L102.574 39.2244C102.595 39.1613 102.636 39.1068 102.689 39.0682C102.743 39.0296 102.806 39.0089 102.872 39.0089H104.186C104.407 39.0089 104.561 39.236 104.482 39.4486ZM109.376 41.0556V42.8307C109.376 43.0097 109.518 43.1552 109.692 43.1552H112.512C112.687 43.1552 112.829 43.3001 112.829 43.4796V44.5332C112.829 44.6193 112.795 44.7019 112.736 44.7627C112.676 44.8235 112.596 44.8577 112.512 44.8577H109.692C109.608 44.8578 109.528 44.8921 109.469 44.9531C109.409 45.014 109.376 45.0966 109.376 45.1827V46.9443C109.376 47.1233 109.518 47.2683 109.692 47.2683H112.981C113.156 47.2683 113.297 47.4142 113.297 47.5932V48.666C113.297 48.7087 113.289 48.7509 113.273 48.7904C113.257 48.8298 113.234 48.8656 113.205 48.8958C113.175 48.926 113.14 48.9499 113.102 48.9663C113.064 48.9826 113.022 48.991 112.981 48.991H107.804C107.762 48.9909 107.721 48.9825 107.683 48.9661C107.644 48.9498 107.609 48.9258 107.58 48.8956C107.551 48.8654 107.528 48.8296 107.512 48.7902C107.496 48.7509 107.488 48.7086 107.488 48.666V39.3339C107.488 39.1544 107.629 39.0089 107.804 39.0089H112.981C113.156 39.0089 113.297 39.1544 113.297 39.3339V40.4067C113.297 40.4493 113.289 40.4915 113.273 40.5309C113.257 40.5703 113.234 40.6061 113.205 40.6363C113.175 40.6664 113.14 40.6903 113.102 40.7066C113.064 40.7229 113.022 40.7312 112.981 40.7312H109.692C109.608 40.7313 109.528 40.7655 109.469 40.8263C109.409 40.8872 109.376 40.9696 109.376 41.0556ZM118.586 42.8955C118.586 43.0745 118.728 43.2204 118.903 43.2204H120.373C121.279 43.2204 121.767 42.7452 121.767 41.9465C121.767 41.1603 121.279 40.6467 120.372 40.6467H118.903C118.819 40.6467 118.738 40.6809 118.679 40.7419C118.619 40.8028 118.586 40.8855 118.586 40.9716V42.8955ZM119.983 44.7728H118.902C118.818 44.7728 118.737 44.807 118.678 44.8679C118.619 44.9289 118.585 45.0115 118.585 45.0977V48.666C118.585 48.7087 118.577 48.7509 118.561 48.7904C118.545 48.8298 118.522 48.8656 118.493 48.8958C118.463 48.926 118.429 48.9499 118.39 48.9663C118.352 48.9826 118.311 48.991 118.269 48.991H117.014C116.972 48.991 116.931 48.9826 116.893 48.9663C116.854 48.9499 116.819 48.926 116.79 48.8958C116.761 48.8656 116.737 48.8298 116.722 48.7904C116.706 48.7509 116.698 48.7087 116.698 48.666V39.3339C116.698 39.1544 116.839 39.0089 117.014 39.0089H120.499C122.5 39.0089 123.596 40.3347 123.596 41.9657C123.596 43.0577 123.05 43.9337 122.208 44.4032C122.171 44.4237 122.139 44.4518 122.112 44.4857C122.086 44.5196 122.066 44.5586 122.055 44.6004C122.044 44.6422 122.041 44.6859 122.047 44.7289C122.052 44.7719 122.066 44.8132 122.088 44.8505L124.195 48.5009C124.223 48.5502 124.238 48.6063 124.239 48.6635C124.239 48.7207 124.225 48.7769 124.197 48.8266C124.169 48.8763 124.129 48.9176 124.081 48.9464C124.033 48.9751 123.978 48.9904 123.923 48.9905H122.612C122.556 48.9907 122.5 48.9752 122.451 48.9456C122.402 48.916 122.362 48.8735 122.335 48.8225L120.26 44.9417C120.232 44.8906 120.192 44.848 120.143 44.8183C120.095 44.7886 120.039 44.7728 119.982 44.7728H119.983ZM136.52 39.3339V48.6665C136.52 48.7525 136.486 48.835 136.427 48.8958C136.368 48.9566 136.287 48.9909 136.203 48.991H134.886C134.838 48.9911 134.791 48.9802 134.748 48.959C134.705 48.9378 134.667 48.9069 134.638 48.8686L129.748 42.5686C129.561 42.3286 129.184 42.464 129.184 42.7712V48.6665C129.184 48.7526 129.15 48.8352 129.091 48.896C129.032 48.9568 128.951 48.991 128.867 48.991H127.637C127.554 48.9909 127.473 48.9566 127.414 48.8958C127.355 48.835 127.322 48.7525 127.322 48.6665V39.3339C127.322 39.1544 127.463 39.0089 127.637 39.0089H128.943C129.039 39.0089 129.13 39.054 129.19 39.1313L134.081 45.4078C134.268 45.6478 134.645 45.5124 134.645 45.2052V39.3344C134.645 39.1548 134.786 39.0094 134.961 39.0094H136.203C136.378 39.0094 136.52 39.1548 136.52 39.3344L136.52 39.3339ZM150.994 39.3339V48.6665C150.994 48.7526 150.961 48.8351 150.902 48.896C150.842 48.9568 150.762 48.991 150.678 48.991H149.423C149.339 48.991 149.259 48.9568 149.199 48.896C149.14 48.8352 149.106 48.7526 149.106 48.6665V43.2531C149.106 42.8974 148.629 42.8009 148.497 43.1302L146.241 48.7894C146.217 48.8489 146.177 48.8998 146.125 48.9357C146.073 48.9716 146.011 48.9908 145.949 48.991H145.392C145.329 48.9909 145.267 48.9716 145.215 48.9355C145.163 48.8995 145.122 48.8483 145.098 48.7884L142.855 43.1273C142.724 42.7976 142.245 42.8931 142.245 43.2497V48.6665C142.245 48.7526 142.212 48.8352 142.152 48.896C142.093 48.9568 142.013 48.991 141.929 48.991H140.674C140.59 48.991 140.51 48.9568 140.45 48.896C140.391 48.8352 140.357 48.7526 140.357 48.6665V39.3339C140.357 39.1544 140.5 39.0089 140.674 39.0089H142.706C142.834 39.0089 142.949 39.0881 142.998 39.2096L145.375 45.1155C145.399 45.1749 145.439 45.2258 145.491 45.2617C145.543 45.2975 145.604 45.3167 145.667 45.3168C145.73 45.3169 145.791 45.2979 145.843 45.2622C145.895 45.2266 145.936 45.1758 145.96 45.1164L148.36 39.2086C148.384 39.1495 148.425 39.099 148.477 39.0635C148.529 39.028 148.59 39.009 148.652 39.0089H150.679C150.853 39.0089 150.994 39.1544 150.994 39.3339ZM156.727 41.0556V42.8307C156.727 43.0097 156.868 43.1552 157.043 43.1552H159.863C160.038 43.1552 160.179 43.3001 160.179 43.4796V44.5332C160.179 44.6193 160.146 44.7018 160.087 44.7627C160.027 44.8235 159.947 44.8577 159.863 44.8577H157.043C156.959 44.8577 156.879 44.892 156.819 44.9529C156.76 45.0138 156.727 45.0965 156.727 45.1827V46.9443C156.727 47.1233 156.868 47.2683 157.043 47.2683H160.332C160.507 47.2683 160.648 47.4142 160.648 47.5932V48.666C160.648 48.7086 160.64 48.7509 160.624 48.7902C160.608 48.8296 160.585 48.8654 160.556 48.8956C160.526 48.9258 160.491 48.9498 160.453 48.9661C160.415 48.9825 160.374 48.9909 160.332 48.991H155.155C155.113 48.991 155.072 48.9826 155.034 48.9663C154.995 48.9499 154.96 48.926 154.931 48.8958C154.902 48.8656 154.878 48.8298 154.862 48.7904C154.847 48.7509 154.838 48.7087 154.838 48.666V39.3339C154.838 39.1544 154.981 39.0089 155.155 39.0089H160.332C160.507 39.0089 160.648 39.1544 160.648 39.3339V40.4067C160.648 40.4493 160.64 40.4914 160.624 40.5308C160.608 40.5702 160.585 40.606 160.556 40.6361C160.526 40.6662 160.491 40.6901 160.453 40.7064C160.415 40.7228 160.374 40.7312 160.332 40.7312H157.043C156.959 40.7312 156.879 40.7653 156.82 40.8262C156.76 40.887 156.727 40.9695 156.727 41.0556ZM173.248 39.3339V48.6665C173.248 48.7092 173.24 48.7514 173.224 48.7908C173.208 48.8302 173.184 48.866 173.155 48.8962C173.125 48.9263 173.09 48.9502 173.052 48.9664C173.013 48.9827 172.972 48.9911 172.931 48.991H171.613C171.566 48.991 171.519 48.9801 171.476 48.9589C171.433 48.9377 171.395 48.9068 171.366 48.8686L166.475 42.5686C166.289 42.3286 165.912 42.464 165.912 42.7712V48.6665C165.912 48.7525 165.878 48.835 165.819 48.8958C165.76 48.9566 165.679 48.9909 165.595 48.991H164.365C164.281 48.9909 164.201 48.9566 164.141 48.8958C164.082 48.835 164.049 48.7525 164.049 48.6665V39.3339C164.049 39.1544 164.19 39.0089 164.365 39.0089H165.67C165.767 39.0089 165.857 39.054 165.917 39.1313L170.809 45.4078C170.995 45.6478 171.372 45.5124 171.372 45.2052V39.3344C171.372 39.1548 171.513 39.0094 171.689 39.0094H172.931C173.106 39.0094 173.247 39.1548 173.247 39.3344" fill="#EEEEEE"/>
<path fill-rule="evenodd" clip-rule="evenodd" d="M76.9423 59.3981C76.9423 58.4823 76.3724 57.8449 75.2826 57.8449H73.6102C73.5262 57.8449 73.4456 57.8791 73.3862 57.94C73.3268 58.001 73.2934 58.0836 73.2934 58.1698V60.6077C73.2934 60.7868 73.4352 60.9317 73.6102 60.9317H75.2826C76.3729 60.9317 76.9428 60.3538 76.9428 59.3981H76.9423ZM78.7738 59.4183C78.7738 61.2116 77.5198 62.5695 75.5675 62.5695H73.6102C73.5262 62.5695 73.4456 62.6037 73.3862 62.6647C73.3268 62.7256 73.2934 62.8083 73.2934 62.8945V65.8714C73.2934 65.914 73.2853 65.9563 73.2694 65.9957C73.2536 66.0351 73.2303 66.0709 73.2009 66.101C73.1715 66.1311 73.1366 66.155 73.0982 66.1713C73.0598 66.1876 73.0186 66.196 72.9771 66.1959H71.7221C71.6805 66.196 71.6393 66.1876 71.6009 66.1713C71.5624 66.1551 71.5275 66.1312 71.4981 66.101C71.4687 66.0709 71.4453 66.0351 71.4294 65.9957C71.4135 65.9563 71.4053 65.9141 71.4053 65.8714V56.5383C71.4053 56.3593 71.5466 56.2138 71.7221 56.2138H75.5675C77.5193 56.2138 78.7738 57.6505 78.7738 59.4183ZM83.7199 60.1004C83.7199 60.2794 83.8617 60.4253 84.0367 60.4253H85.506C86.4119 60.4253 86.9004 59.9501 86.9004 59.1509C86.9004 58.3647 86.4119 57.8516 85.506 57.8516H84.0367C83.9951 57.8515 83.9539 57.8599 83.9155 57.8761C83.877 57.8924 83.8421 57.9163 83.8127 57.9464C83.7833 57.9766 83.7599 58.0124 83.744 58.0518C83.7281 58.0912 83.7199 58.1334 83.7199 58.1761V60.1009V60.1004ZM85.1162 61.9781H84.0367C83.9527 61.9781 83.8722 62.0123 83.8128 62.0731C83.7534 62.134 83.72 62.2165 83.7199 62.3026V65.8709C83.7199 65.9136 83.7118 65.9559 83.6959 65.9954C83.68 66.0348 83.6567 66.0707 83.6272 66.1009C83.5978 66.131 83.5629 66.155 83.5244 66.1713C83.4859 66.1876 83.4447 66.196 83.4031 66.1959H82.1481C82.1065 66.1959 82.0653 66.1875 82.0269 66.1712C81.9885 66.1548 81.9536 66.1309 81.9243 66.1007C81.8949 66.0705 81.8716 66.0347 81.8557 65.9953C81.8398 65.9558 81.8317 65.9136 81.8318 65.8709V56.5383C81.8318 56.3593 81.9731 56.2143 82.1481 56.2143H85.6328C87.6346 56.2143 88.731 57.5396 88.731 59.1706C88.731 60.2621 88.1844 61.1391 87.3426 61.6076C87.3055 61.6283 87.2728 61.6564 87.2466 61.6903C87.2203 61.7242 87.2009 61.7632 87.1897 61.805C87.1784 61.8467 87.1754 61.8904 87.181 61.9333C87.1865 61.9763 87.2004 62.0176 87.2219 62.0549L89.3285 65.7058C89.3569 65.7551 89.3721 65.8111 89.3725 65.8683C89.373 65.9255 89.3587 65.9818 89.3311 66.0315C89.3035 66.0812 89.2636 66.1226 89.2154 66.1514C89.1672 66.1801 89.1124 66.1953 89.0567 66.1954H87.7465C87.6898 66.1955 87.6341 66.1799 87.5853 66.1504C87.5365 66.1208 87.4963 66.0784 87.469 66.0274L85.3937 62.1466C85.3664 62.0956 85.3262 62.0531 85.2774 62.0235C85.2286 61.9938 85.1729 61.9782 85.1162 61.9781ZM99.9057 61.2049C99.9057 59.3266 98.4925 57.878 96.662 57.878C94.8375 57.878 93.4183 59.3266 93.4183 61.2049C93.4183 63.0831 94.8375 64.5322 96.662 64.5322C98.4925 64.5322 99.9057 63.0831 99.9057 61.2049ZM91.5241 61.2049C91.5241 58.2865 93.7412 56.0842 96.662 56.0842C99.5819 56.0842 101.8 58.2865 101.8 61.2049C101.8 64.1233 99.5819 66.326 96.662 66.326C93.7412 66.326 91.5241 64.1228 91.5241 61.2049ZM108.223 64.4737C110.288 64.4737 111.289 63.3169 111.289 61.2049C111.289 59.0929 110.288 57.9365 108.223 57.9365H107.17C107.086 57.9365 107.006 57.9707 106.946 58.0316C106.887 58.0924 106.854 58.175 106.854 58.261V64.1487C106.854 64.3282 106.995 64.4737 107.17 64.4737H108.223ZM104.972 56.5383C104.972 56.3593 105.114 56.2143 105.289 56.2143H108.304C111.536 56.2143 113.246 58.1823 113.246 61.2049C113.246 64.2269 111.536 66.1959 108.304 66.1959H105.289C105.247 66.1959 105.206 66.1875 105.168 66.1712C105.129 66.1548 105.094 66.1309 105.065 66.1007C105.036 66.0705 105.012 66.0347 104.996 65.9953C104.981 65.9558 104.972 65.9136 104.972 65.8709V56.5383ZM116.28 62.7385V56.5388C116.28 56.3588 116.421 56.2138 116.596 56.2138H117.851C118.026 56.2138 118.168 56.3588 118.168 56.5388V62.4394C118.168 64.0316 119.061 64.6105 120.234 64.6105C121.411 64.6105 122.304 64.0316 122.304 62.4394V56.5388C122.304 56.3588 122.447 56.2138 122.621 56.2138H123.883C124.058 56.2138 124.199 56.3588 124.199 56.5388V62.7385C124.199 65.1236 122.488 66.3255 120.234 66.3255C117.991 66.3255 116.28 65.1236 116.28 62.7385H116.28ZM127.175 61.2049C127.175 58.2865 129.386 56.0842 132.313 56.0842C133.628 56.0842 134.881 56.5853 135.784 57.4018C135.817 57.4318 135.844 57.4687 135.863 57.51C135.882 57.5514 135.892 57.5964 135.893 57.6421C135.894 57.6878 135.886 57.7331 135.868 57.7752C135.851 57.8174 135.825 57.8553 135.793 57.8866L134.924 58.7228C134.866 58.7783 134.791 58.8096 134.712 58.8105C134.633 58.8114 134.557 58.7818 134.498 58.7276C133.924 58.1914 133.142 57.878 132.313 57.878C130.481 57.878 129.069 59.3204 129.069 61.2049C129.069 63.0893 130.481 64.5322 132.312 64.5322C133.142 64.5322 133.924 64.2183 134.498 63.6821C134.557 63.6278 134.633 63.5981 134.712 63.599C134.791 63.5999 134.867 63.6313 134.924 63.6869L135.793 64.5236C135.825 64.5549 135.851 64.5928 135.868 64.6349C135.886 64.6771 135.894 64.7224 135.893 64.7681C135.892 64.8138 135.882 64.8588 135.863 64.9002C135.844 64.9415 135.817 64.9784 135.784 65.0084C134.881 65.8244 133.628 66.326 132.312 66.326C129.386 66.326 127.175 64.1228 127.175 61.2049ZM144.634 57.9361H142.764C142.723 57.9361 142.681 57.9445 142.643 57.9608C142.605 57.9771 142.57 58.0011 142.54 58.0313C142.511 58.0614 142.488 58.0973 142.472 58.1367C142.456 58.1761 142.448 58.2184 142.448 58.261V65.8714C142.448 65.9574 142.414 66.0398 142.355 66.1005C142.296 66.1613 142.215 66.1954 142.132 66.1954H140.883C140.841 66.1955 140.8 66.1872 140.762 66.1709C140.723 66.1547 140.688 66.1308 140.659 66.1007C140.629 66.0706 140.606 66.0349 140.59 65.9956C140.574 65.9562 140.566 65.914 140.566 65.8714V58.261C140.566 58.2184 140.558 58.1762 140.542 58.1367C140.526 58.0973 140.503 58.0615 140.474 58.0313C140.444 58.0011 140.409 57.9772 140.371 57.9608C140.333 57.9445 140.292 57.9361 140.25 57.9361H138.374C138.29 57.9359 138.209 57.9017 138.15 57.8408C138.091 57.78 138.058 57.6976 138.058 57.6116V56.5388C138.058 56.3588 138.199 56.2138 138.374 56.2138H144.634C144.809 56.2138 144.95 56.3588 144.95 56.5388V57.6116C144.95 57.6977 144.917 57.7802 144.857 57.8411C144.798 57.9019 144.718 57.9361 144.634 57.9361ZM147.239 64.5034L147.924 63.626C147.951 63.5909 147.985 63.562 148.024 63.5412C148.062 63.5204 148.105 63.5081 148.149 63.5052C148.192 63.5022 148.236 63.5087 148.277 63.5241C148.318 63.5396 148.355 63.5636 148.387 63.5948C149.041 64.2423 149.942 64.6815 150.734 64.6815C151.494 64.6815 152.045 64.2793 152.045 63.5703C152.045 62.6799 151.177 62.3482 150.068 61.8485C148.795 61.2764 147.452 60.6265 147.452 58.8649C147.452 57.0975 148.795 56.0837 150.455 56.0837C151.553 56.0837 152.587 56.5047 153.435 57.2007C153.565 57.3073 153.584 57.5031 153.485 57.6409L152.872 58.4943C152.847 58.5295 152.815 58.5591 152.779 58.5814C152.742 58.6036 152.702 58.6181 152.66 58.6238C152.617 58.6296 152.575 58.6265 152.534 58.6148C152.493 58.6031 152.455 58.583 152.421 58.5557C151.768 57.9994 151.029 57.7282 150.411 57.7282C149.796 57.7282 149.309 58.0469 149.309 58.6705C149.309 59.4826 150.144 59.8009 151.266 60.2953C152.546 60.8737 153.933 61.5884 153.933 63.4469C153.933 65.3573 152.464 66.3193 150.728 66.3193C149.475 66.3193 148.191 65.8037 147.279 64.9522C147.218 64.8968 147.179 64.8195 147.172 64.736C147.164 64.6526 147.188 64.5694 147.239 64.5034Z" fill="#EEEEEE"/>
<path fill-rule="evenodd" clip-rule="evenodd" d="M16.5616 62.9117C16.7143 62.6422 16.7607 62.3229 16.6911 62.0194C16.6216 61.7159 16.4415 61.4512 16.1877 61.2797C10.7002 57.5914 7.07329 51.2323 7.07329 43.9997C7.07329 36.768 10.7002 30.409 16.1877 26.7206C16.4414 26.549 16.6214 26.2844 16.691 25.9809C16.7605 25.6774 16.7142 25.3582 16.5616 25.0886L14.2191 20.927C14.1373 20.7825 14.0277 20.6565 13.897 20.5568C13.7664 20.457 13.6173 20.3855 13.4588 20.3465C13.3004 20.3076 13.1359 20.3021 12.9753 20.3304C12.8148 20.3586 12.6615 20.42 12.5247 20.5109C4.99332 25.4731 0 34.1362 0 44.0002C0 53.8642 4.99285 62.5267 12.5247 67.4895C12.6614 67.5802 12.8147 67.6416 12.9753 67.6699C13.1358 67.6981 13.3003 67.6927 13.4587 67.6538C13.6171 67.6149 13.7662 67.5435 13.8969 67.4438C14.0276 67.3441 14.1372 67.2182 14.2191 67.0738L16.5616 62.9117Z" fill="#276EF1"/>
<path fill-rule="evenodd" clip-rule="evenodd" d="M40.1913 20.9264L37.8493 25.089C37.6968 25.3584 37.6506 25.6774 37.72 25.9807C37.7894 26.2839 37.9693 26.5484 38.2227 26.72C43.7102 30.4084 47.3367 36.7679 47.3367 44C47.3367 51.2322 43.7102 57.5912 38.2227 61.28C37.9693 61.4516 37.7894 61.7162 37.72 62.0194C37.6506 62.3227 37.6968 62.6417 37.8493 62.9111L40.1913 67.0732C40.2732 67.2176 40.3828 67.3436 40.5135 67.4433C40.6441 67.5431 40.7932 67.6145 40.9516 67.6535C41.1101 67.6924 41.2745 67.6979 41.4351 67.6697C41.5956 67.6415 41.749 67.5801 41.8857 67.4893C49.418 62.5266 54.41 53.864 54.41 44C54.41 34.136 49.4171 25.4735 41.8857 20.5103C41.749 20.4195 41.5957 20.3582 41.4351 20.33C41.2746 20.3019 41.1101 20.3074 40.9517 20.3464C40.7934 20.3854 40.6443 20.4569 40.5137 20.5567C40.3831 20.6565 40.2736 20.7824 40.1918 20.9269" fill="#276EF1"/>
<path opacity="0.5" d="M4.116 8.076C4.448 8.076 4.734 8.038 4.974 7.962C5.214 7.886 5.41 7.78 5.562 7.644C5.718 7.504 5.832 7.34 5.904 7.152C5.976 6.96 6.012 6.75 6.012 6.522C6.012 6.078 5.854 5.728 5.538 5.472C5.222 5.212 4.748 5.082 4.116 5.082H2.256V8.076H4.116ZM2.256 1.32V4.254H3.792C4.12 4.254 4.404 4.218 4.644 4.146C4.888 4.074 5.088 3.974 5.244 3.846C5.404 3.718 5.522 3.564 5.598 3.384C5.674 3.2 5.712 3 5.712 2.784C5.712 2.276 5.56 1.906 5.256 1.674C4.952 1.438 4.48 1.32 3.84 1.32H2.256ZM3.84 0.401999C4.368 0.401999 4.822 0.454 5.202 0.558C5.586 0.662 5.9 0.81 6.144 1.002C6.392 1.194 6.574 1.43 6.69 1.71C6.806 1.986 6.864 2.298 6.864 2.646C6.864 2.858 6.83 3.062 6.762 3.258C6.698 3.45 6.6 3.63 6.468 3.798C6.336 3.966 6.168 4.118 5.964 4.254C5.764 4.386 5.528 4.494 5.256 4.578C5.888 4.698 6.362 4.924 6.678 5.256C6.998 5.584 7.158 6.016 7.158 6.552C7.158 6.916 7.09 7.248 6.954 7.548C6.822 7.848 6.626 8.106 6.366 8.322C6.11 8.538 5.794 8.706 5.418 8.826C5.042 8.942 4.614 9 4.134 9H1.098V0.401999H3.84ZM13.4729 2.922V9H12.8369C12.6849 9 12.5889 8.926 12.5489 8.778L12.4649 8.124C12.2009 8.416 11.9049 8.652 11.5769 8.832C11.2489 9.008 10.8729 9.096 10.4489 9.096C10.1169 9.096 9.82291 9.042 9.56691 8.934C9.31491 8.822 9.10291 8.666 8.93091 8.466C8.75891 8.266 8.62891 8.024 8.54091 7.74C8.45691 7.456 8.41491 7.142 8.41491 6.798V2.922H9.48291V6.798C9.48291 7.258 9.58691 7.614 9.79491 7.866C10.0069 8.118 10.3289 8.244 10.7609 8.244C11.0769 8.244 11.3709 8.17 11.6429 8.022C11.9189 7.87 12.1729 7.662 12.4049 7.398V2.922H13.4729ZM16.2943 2.922V9H15.2263V2.922H16.2943ZM16.5223 1.014C16.5223 1.118 16.5003 1.216 16.4563 1.308C16.4163 1.396 16.3603 1.476 16.2883 1.548C16.2203 1.616 16.1383 1.67 16.0423 1.71C15.9503 1.75 15.8523 1.77 15.7483 1.77C15.6443 1.77 15.5463 1.75 15.4543 1.71C15.3663 1.67 15.2883 1.616 15.2203 1.548C15.1523 1.476 15.0983 1.396 15.0583 1.308C15.0183 1.216 14.9983 1.118 14.9983 1.014C14.9983 0.909999 15.0183 0.811999 15.0583 0.719999C15.0983 0.624 15.1523 0.542 15.2203 0.473999C15.2883 0.402 15.3663 0.346 15.4543 0.305999C15.5463 0.265999 15.6443 0.245999 15.7483 0.245999C15.8523 0.245999 15.9503 0.265999 16.0423 0.305999C16.1383 0.346 16.2203 0.402 16.2883 0.473999C16.3603 0.542 16.4163 0.624 16.4563 0.719999C16.5003 0.811999 16.5223 0.909999 16.5223 1.014ZM19.1531 0.162V9H18.0851V0.162H19.1531ZM22.7511 9.096C22.2711 9.096 21.9011 8.962 21.6411 8.694C21.3851 8.426 21.2571 8.04 21.2571 7.536V3.816H20.5251C20.4611 3.816 20.4071 3.798 20.3631 3.762C20.3191 3.722 20.2971 3.662 20.2971 3.582V3.156L21.2931 3.03L21.5391 1.152C21.5511 1.092 21.5771 1.044 21.6171 1.008C21.6611 0.968 21.7171 0.948 21.7851 0.948H22.3251V3.042H24.0831V3.816H22.3251V7.464C22.3251 7.72 22.3871 7.91 22.5111 8.034C22.6351 8.158 22.7951 8.22 22.9911 8.22C23.1031 8.22 23.1991 8.206 23.2791 8.178C23.3631 8.146 23.4351 8.112 23.4951 8.076C23.5551 8.04 23.6051 8.008 23.6451 7.98C23.6891 7.948 23.7271 7.932 23.7591 7.932C23.8151 7.932 23.8651 7.966 23.9091 8.034L24.2211 8.544C24.0371 8.716 23.8151 8.852 23.5551 8.952C23.2951 9.048 23.0271 9.096 22.7511 9.096ZM29.3302 7.536C29.5262 7.8 29.7402 7.986 29.9722 8.094C30.2082 8.202 30.4662 8.256 30.7462 8.256C31.3182 8.256 31.7562 8.054 32.0602 7.65C32.3642 7.246 32.5162 6.644 32.5162 5.844C32.5162 5.1 32.3802 4.554 32.1082 4.206C31.8402 3.854 31.4562 3.678 30.9562 3.678C30.6082 3.678 30.3042 3.758 30.0442 3.918C29.7882 4.078 29.5502 4.304 29.3302 4.596V7.536ZM29.3302 3.798C29.5862 3.502 29.8742 3.266 30.1942 3.09C30.5182 2.914 30.8902 2.826 31.3102 2.826C31.6662 2.826 31.9862 2.894 32.2702 3.03C32.5582 3.166 32.8022 3.364 33.0022 3.624C33.2022 3.88 33.3542 4.192 33.4582 4.56C33.5662 4.928 33.6202 5.342 33.6202 5.802C33.6202 6.294 33.5602 6.742 33.4402 7.146C33.3202 7.55 33.1462 7.896 32.9182 8.184C32.6942 8.468 32.4202 8.69 32.0962 8.85C31.7722 9.006 31.4082 9.084 31.0042 9.084C30.6042 9.084 30.2662 9.01 29.9902 8.862C29.7182 8.71 29.4802 8.496 29.2762 8.22L29.2222 8.772C29.1902 8.924 29.0982 9 28.9462 9H28.2562V0.162H29.3302V3.798ZM40.0627 2.922L36.6727 10.794C36.6367 10.874 36.5907 10.938 36.5347 10.986C36.4827 11.034 36.4007 11.058 36.2887 11.058H35.4967L36.6067 8.646L34.0987 2.922H35.0227C35.1147 2.922 35.1867 2.946 35.2387 2.994C35.2947 3.038 35.3327 3.088 35.3527 3.144L36.9787 6.972C37.0427 7.14 37.0967 7.316 37.1407 7.5C37.1967 7.312 37.2567 7.134 37.3207 6.966L38.8987 3.144C38.9227 3.08 38.9627 3.028 39.0187 2.988C39.0787 2.944 39.1447 2.922 39.2167 2.922H40.0627Z" fill="#EEEEEE"/>
</svg>
