<svg width="130" height="138" viewBox="0 0 130 138" fill="none" 
  xmlns="http://www.w3.org/2000/svg">
  <path d="M61.255 32.0527L77.8609 36.5084C78.172 36.5675 78.4597 36.7139 78.69 36.9304C78.9202 37.1469 79.0835 37.4244 79.1605 37.7302L83.7813 53.3252V63.3147C83.7813 64.1135 83.6221 64.9044 83.3128 65.6416C83.0035 66.3787 82.5503 67.0474 81.9795 67.6089C81.4087 68.1705 80.7315 68.6136 79.9874 68.9127C79.2432 69.2118 78.4468 69.361 77.6443 69.3515H41.5446C39.9302 69.409 38.3204 69.1468 36.8085 68.5802C35.2967 68.0136 33.913 67.1538 32.7376 66.0507C31.5622 64.9476 30.6186 63.6231 29.9615 62.1542C29.3044 60.6852 28.9469 59.101 28.9097 57.4935V12.1457C28.9096 10.5446 29.2276 8.9594 29.8453 7.48114C30.463 6.00288 31.3683 4.66078 32.509 3.53202C33.6496 2.40327 35.0033 1.51014 36.492 0.904022C37.9807 0.297898 39.5752 -0.0092609 41.1836 0.000212643H71.5796C74.8157 0.000212643 77.9192 1.27982 80.2075 3.55753C82.4957 5.83525 83.7813 8.92449 83.7813 12.1457V16.0265H51.2193C49.6041 16.0263 48.054 16.6601 46.9052 17.7902C45.7563 18.9203 45.1014 20.4556 45.0824 22.0633V51.6723C45.0824 52.1678 45.2801 52.6431 45.6322 52.9935C45.9842 53.344 46.4617 53.5408 46.9595 53.5408H59.3779C59.8757 53.5408 60.3532 53.344 60.7052 52.9935C61.0573 52.6431 61.255 52.1678 61.255 51.6723V32.0527Z" fill="#384A51"/>
  <path d="M57.284 84.8027C54.2202 84.8027 51.2819 83.5913 49.1155 81.4349C46.9491 79.2784 45.7321 76.3537 45.7321 73.3041V69.9982H77.6442C79.425 69.9982 81.1329 69.294 82.3921 68.0406C83.6514 66.7872 84.3588 65.0872 84.3588 63.3146V33.8493C84.34 33.2138 84.0731 32.6106 83.6148 32.1678C83.1564 31.725 82.5427 31.4775 81.904 31.4777H60.6052V51.6722C60.6158 51.8354 60.5913 51.999 60.5334 52.152C60.4754 52.305 60.3854 52.444 60.2692 52.5596C60.1531 52.6752 60.0135 52.7648 59.8597 52.8225C59.706 52.8802 59.5417 52.9045 59.3778 52.894H46.9594C46.7955 52.9045 46.6312 52.8802 46.4775 52.8225C46.3238 52.7648 46.1842 52.6752 46.068 52.5596C45.9518 52.444 45.8618 52.305 45.8039 52.152C45.7459 51.999 45.7214 51.8354 45.7321 51.6722V22.0632C45.751 20.6271 46.3375 19.2563 47.3645 18.2475C48.3915 17.2387 49.7764 16.6731 51.2192 16.6732H88.9073C91.9711 16.6732 94.9094 17.8847 97.0758 20.0411C99.2422 22.1975 100.459 25.1222 100.459 28.1719V73.3041C100.459 76.3537 99.2422 79.2784 97.0758 81.4349C94.9094 83.5913 91.9711 84.8027 88.9073 84.8027H57.284Z" fill="#8CA6AD"/>
  <path d="M88.9074 17.2482C91.818 17.2482 94.6093 18.3991 96.6674 20.4477C98.7255 22.4963 99.8817 25.2748 99.8817 28.1719V73.3041C99.8817 76.2013 98.7255 78.9798 96.6674 81.0284C94.6093 83.077 91.818 84.2279 88.9074 84.2279H57.284C54.3735 84.2279 51.5821 83.077 49.524 81.0284C47.4659 78.9798 46.3097 76.2013 46.3097 73.3041V70.5732H77.6443C79.5591 70.5732 81.3956 69.816 82.7496 68.4683C84.1036 67.1205 84.8642 65.2926 84.8642 63.3866V33.8494C84.8642 33.0489 84.5448 32.2811 83.9761 31.7151C83.4074 31.149 82.6361 30.831 81.8319 30.831H60.172V51.6723C60.172 51.8438 60.1035 52.0084 59.9817 52.1297C59.8598 52.251 59.6945 52.3191 59.5222 52.3191H46.9595C46.7872 52.3191 46.6219 52.251 46.5 52.1297C46.3782 52.0084 46.3097 51.8438 46.3097 51.6723V22.0633C46.3287 20.7797 46.8543 19.5551 47.773 18.6541C48.6916 17.7531 49.9296 17.2481 51.2193 17.2482H88.9074ZM88.9074 16.0265H51.2193C49.6041 16.0264 48.054 16.6601 46.9051 17.7902C45.7563 18.9203 45.1013 20.4556 45.0823 22.0633V51.6723C45.0823 52.1679 45.2801 52.6431 45.6321 52.9936C45.9842 53.344 46.4616 53.5408 46.9595 53.5408H59.3778C59.8631 53.5222 60.3222 53.3172 60.6588 52.9688C60.9953 52.6204 61.1832 52.1557 61.1828 51.6723V32.0527H81.9041C82.3897 32.0524 82.8565 32.2393 83.2065 32.5744C83.5566 32.9094 83.7626 33.3664 83.7812 33.8494V63.3147C83.7813 64.1135 83.6221 64.9044 83.3128 65.6416C83.0035 66.3787 82.5503 67.0474 81.9795 67.609C81.4086 68.1705 80.7315 68.6136 79.9873 68.9127C79.2432 69.2119 78.4468 69.361 77.6443 69.3515H45.0823V73.3041C45.0823 76.5253 46.3678 79.6146 48.6561 81.8923C50.9444 84.17 54.0479 85.4496 57.284 85.4496H88.9074C92.1435 85.4496 95.2471 84.17 97.5353 81.8923C99.8236 79.6146 101.109 76.5253 101.109 73.3041V28.1719C101.109 24.9508 99.8236 21.8615 97.5353 19.5838C95.2471 17.3061 92.1435 16.0265 88.9074 16.0265Z" fill="#7F9DA5"/>
  <path d="M11.0043 92.6361C9.56518 92.5497 8.12306 92.7464 6.76035 93.215C5.39764 93.6836 4.14104 94.4149 3.06235 95.367C1.99737 96.4221 1.17481 97.6945 0.651317 99.0964C0.127824 100.498 -0.0841565 101.997 0.0299753 103.488V120.808C-0.0749535 122.269 0.120625 123.737 0.604761 125.121C1.0889 126.505 1.85143 127.776 2.84575 128.857C4.96977 130.726 7.73826 131.705 10.5711 131.588C13.483 131.712 16.3298 130.707 18.513 128.785C19.5774 127.753 20.4107 126.509 20.9582 125.134C21.5056 123.76 21.755 122.285 21.6898 120.808V111.106H11.0043V116.065H15.1197V120.377C15.2091 121.8 14.8288 123.213 14.0367 124.401C13.6724 124.888 13.1899 125.276 12.6343 125.527C12.0788 125.779 11.4683 125.886 10.8599 125.838C7.89972 125.838 6.45573 123.898 6.45573 120.017V104.566C6.29814 102.99 6.5726 101.4 7.24992 99.9665C7.61831 99.417 8.12643 98.9746 8.72252 98.6842C9.31861 98.3938 9.98138 98.2659 10.6433 98.3135C11.213 98.2954 11.7798 98.4018 12.3037 98.6253C12.8276 98.8488 13.296 99.184 13.6757 99.6071C14.5404 100.599 14.981 101.889 14.9031 103.2V104.135H21.6898V103.2C21.7913 101.755 21.5866 100.304 21.0891 98.9426C20.5917 97.5808 19.8124 96.3381 18.8018 95.2951C16.6524 93.4272 13.8529 92.4726 11.0043 92.6361Z" fill="#384A51"/>
  <path d="M36.1296 92.6362C33.2264 92.4852 30.3781 93.4646 28.1877 95.3672C27.1227 96.4223 26.3001 97.6946 25.7766 99.0966C25.2531 100.499 25.0411 101.997 25.1553 103.488V120.808C25.06 122.275 25.267 123.745 25.7636 125.13C26.2603 126.514 27.036 127.782 28.0433 128.857C30.1553 130.747 32.9323 131.728 35.7686 131.588C38.5582 131.627 41.2619 130.627 43.3495 128.785C44.3993 127.749 45.2132 126.501 45.7364 125.124C46.2595 123.748 46.4797 122.276 46.3819 120.808V103.488C46.5007 102.008 46.3049 100.521 45.8073 99.1213C45.3097 97.722 44.5215 96.4429 43.4939 95.3672C41.4927 93.5328 38.8488 92.5524 36.1296 92.6362ZM36.1296 125.839C33.2416 125.839 31.7254 123.898 31.7254 120.017V104.566C31.6348 102.97 31.9843 101.379 32.7362 99.9666C33.1098 99.4224 33.6189 98.984 34.2137 98.6943C34.8085 98.4045 35.4686 98.2734 36.1296 98.3137C36.7602 98.2748 37.3895 98.4082 37.9494 98.6996C38.5093 98.9909 38.9785 99.429 39.3064 99.9666C40.1132 101.361 40.4899 102.96 40.3894 104.566V120.017C40.4627 121.53 40.0859 123.029 39.3064 124.329C38.9456 124.825 38.4658 125.223 37.9109 125.486C37.356 125.75 36.7436 125.871 36.1296 125.839Z" fill="#384A51"/>
  <path d="M54.1076 132.738H56.6345C56.6396 133.131 56.7255 133.518 56.887 133.877C57.0484 134.235 57.2819 134.557 57.5731 134.822C58.1922 135.357 58.9918 135.639 59.8113 135.612C60.2998 135.655 60.7915 135.58 61.2442 135.392C61.6969 135.204 62.0971 134.91 62.4105 134.534C62.9938 133.507 63.2693 132.335 63.2047 131.157V128.138C62.8005 128.821 62.2178 129.383 61.5185 129.762C60.8192 130.142 60.0296 130.326 59.2337 130.294C58.4954 130.317 57.7613 130.174 57.0863 129.875C56.4112 129.577 55.8126 129.13 55.335 128.569C54.2189 127.083 53.6804 125.245 53.8188 123.395V117.718C53.6804 115.867 54.2189 114.029 55.335 112.543C55.8126 111.982 56.4112 111.536 57.0863 111.237C57.7613 110.939 58.4954 110.795 59.2337 110.818C60.0472 110.784 60.8536 110.982 61.5574 111.39C62.2611 111.797 62.8328 112.397 63.2047 113.118V111.106H65.8761V130.941C65.9723 132.765 65.4371 134.566 64.3599 136.044C63.8157 136.705 63.1155 137.221 62.3218 137.547C61.5281 137.874 60.6656 137.999 59.8113 137.912C58.2919 138.003 56.7947 137.515 55.6238 136.547C55.1203 136.051 54.7257 135.456 54.4647 134.8C54.2038 134.145 54.0822 133.442 54.1076 132.738ZM63.2047 123.036V118.077C63.2047 114.843 62.0495 113.19 59.7391 113.19C59.2867 113.165 58.8355 113.257 58.4303 113.459C58.025 113.661 57.6797 113.964 57.4287 114.34C56.75 115.436 56.446 116.722 56.5623 118.005V123.036C56.4836 124.33 56.758 125.621 57.3565 126.773C57.6615 127.135 58.0426 127.427 58.4729 127.627C58.9033 127.827 59.3725 127.93 59.8474 127.93C60.3224 127.93 60.7916 127.827 61.2219 127.627C61.6523 127.427 62.0334 127.135 62.3383 126.773C63.0179 125.65 63.3213 124.341 63.2047 123.036Z" fill="#384A51"/>
  <path d="M69.4138 124.904V117.718C69.331 116.777 69.435 115.83 69.7199 114.93C70.0049 114.03 70.4651 113.194 71.0744 112.471C71.6727 111.892 72.3873 111.446 73.1712 111.161C73.9551 110.876 74.7906 110.759 75.623 110.818C76.4422 110.782 77.2604 110.91 78.0293 111.194C78.7981 111.478 79.502 111.912 80.0994 112.471C81.3041 113.943 81.8751 115.829 81.6878 117.718V124.904C81.8751 126.793 81.3041 128.679 80.0994 130.15C78.8639 131.267 77.2553 131.885 75.5869 131.885C73.9185 131.885 72.3099 131.267 71.0744 130.15C70.4651 129.427 70.0049 128.592 69.7199 127.692C69.435 126.792 69.331 125.844 69.4138 124.904ZM79.0164 124.904V118.364C79.1506 117.048 78.8186 115.726 78.0778 114.627C77.7924 114.234 77.4096 113.922 76.9667 113.72C76.5238 113.519 76.0359 113.435 75.5508 113.477C75.0672 113.449 74.5839 113.538 74.1434 113.739C73.7028 113.939 73.3183 114.244 73.0238 114.627C72.3094 115.738 71.9797 117.05 72.0852 118.364V124.904C71.9901 126.218 72.319 127.527 73.0238 128.641C73.3336 129.002 73.7227 129.287 74.1609 129.474C74.5991 129.661 75.0747 129.745 75.5508 129.719C76.0282 129.756 76.5075 129.678 76.9476 129.49C77.3878 129.302 77.7756 129.011 78.0778 128.641C78.8745 127.459 79.2084 126.027 79.0164 124.617V124.904Z" fill="#384A51"/>
  <path d="M86.6695 111.106L90.496 127.276L94.3226 111.106H97.2828L91.8678 131.516H89.1243L83.7093 111.106H86.6695Z" fill="#384A51"/>
  <path d="M102.481 126.054H104.936C104.915 126.515 104.988 126.974 105.149 127.406C105.31 127.838 105.557 128.234 105.874 128.57C106.563 129.131 107.44 129.414 108.329 129.36C109.216 129.4 110.088 129.119 110.784 128.57C111.12 128.247 111.379 127.854 111.542 127.419C111.704 126.983 111.766 126.517 111.722 126.054C111.763 125.327 111.532 124.61 111.073 124.042C110.496 123.408 109.779 122.916 108.979 122.605L106.38 121.527C105.23 121.185 104.222 120.483 103.506 119.525C102.79 118.566 102.405 117.403 102.409 116.208C102.385 115.459 102.52 114.713 102.807 114.019C103.093 113.326 103.523 112.7 104.069 112.184C105.233 111.14 106.764 110.597 108.329 110.675C109.105 110.628 109.882 110.738 110.613 110.997C111.345 111.256 112.017 111.66 112.589 112.184C113.133 112.728 113.556 113.381 113.83 114.099C114.103 114.818 114.222 115.585 114.177 116.352V116.855H111.939C111.972 116.361 111.906 115.865 111.745 115.396C111.584 114.927 111.331 114.495 111 114.124C110.688 113.795 110.305 113.54 109.88 113.379C109.455 113.217 108.999 113.153 108.546 113.19C108.127 113.164 107.708 113.22 107.311 113.355C106.915 113.491 106.549 113.704 106.235 113.981C105.943 114.271 105.714 114.619 105.565 115.003C105.416 115.387 105.349 115.797 105.369 116.208C105.337 116.869 105.514 117.522 105.874 118.077C106.403 118.7 107.07 119.193 107.824 119.514L110.423 120.52C111.647 120.961 112.74 121.703 113.6 122.676C114.347 123.638 114.707 124.842 114.61 126.054C114.667 126.844 114.554 127.636 114.28 128.38C114.006 129.123 113.578 129.8 113.022 130.366C111.773 131.467 110.139 132.035 108.473 131.947C107.67 131.996 106.865 131.88 106.108 131.608C105.35 131.337 104.657 130.914 104.069 130.366C103.51 129.803 103.079 129.126 102.804 128.382C102.53 127.638 102.42 126.844 102.481 126.054Z" fill="#384A51"/>
  <path d="M118.293 132.738H120.82C120.825 133.131 120.911 133.518 121.072 133.877C121.233 134.235 121.467 134.557 121.758 134.822C122.377 135.357 123.177 135.639 123.996 135.612C124.474 135.656 124.956 135.58 125.397 135.392C125.838 135.204 126.225 134.909 126.523 134.534C127.14 133.52 127.418 132.338 127.318 131.157V128.138C126.931 128.821 126.363 129.384 125.674 129.765C124.986 130.145 124.205 130.329 123.419 130.294C122.68 130.317 121.946 130.174 121.271 129.875C120.596 129.577 119.998 129.13 119.52 128.569C118.404 127.083 117.865 125.245 118.004 123.395V117.718C117.865 115.867 118.404 114.029 119.52 112.543C119.998 111.982 120.596 111.536 121.271 111.237C121.946 110.939 122.68 110.795 123.419 110.818C124.223 110.78 125.022 110.977 125.715 111.386C126.408 111.795 126.965 112.397 127.318 113.118V111.106H129.989V130.941C130.085 132.764 129.55 134.566 128.473 136.044C127.929 136.705 127.228 137.221 126.435 137.547C125.641 137.874 124.778 137.999 123.924 137.912C122.403 138.018 120.9 137.528 119.737 136.547C119.246 136.044 118.865 135.447 118.616 134.792C118.368 134.136 118.258 133.437 118.293 132.738ZM127.318 123.036V118.077C127.318 114.843 126.235 113.19 123.924 113.19C123.462 113.166 123.001 113.259 122.584 113.46C122.168 113.661 121.809 113.964 121.542 114.34C120.927 115.46 120.651 116.733 120.747 118.005V123.036C120.614 124.333 120.892 125.64 121.542 126.773C121.821 127.131 122.184 127.416 122.599 127.604C123.014 127.792 123.469 127.877 123.924 127.851C124.417 127.893 124.912 127.801 125.357 127.586C125.802 127.371 126.18 127.04 126.451 126.629C127.101 125.547 127.404 124.293 127.318 123.036Z" fill="#384A51"/>
  <path d="M49.9197 128.641H49.5587C48.841 128.641 48.2592 129.221 48.2592 129.935V130.294C48.2592 131.009 48.841 131.588 49.5587 131.588H49.9197C50.6375 131.588 51.2193 131.009 51.2193 130.294V129.935C51.2193 129.221 50.6375 128.641 49.9197 128.641Z" fill="#384A51"/>
  <path d="M98.5103 128.641H98.1493C97.4315 128.641 96.8497 129.221 96.8497 129.935V130.294C96.8497 131.009 97.4315 131.588 98.1493 131.588H98.5103C99.228 131.588 99.8099 131.009 99.8099 130.294V129.935C99.8099 129.221 99.228 128.641 98.5103 128.641Z" fill="#384A51"/>
</svg>