<svg width="307" height="328" viewBox="0 0 307 328" fill="none" xmlns="http://www.w3.org/2000/svg">
<path d="M196.138 0.925781H31.883C23.6924 0.925781 15.8371 4.17325 10.0455 9.95379C4.25376 15.7343 1 23.5744 1 31.7493C0.999068 35.7977 1.7972 39.8067 3.3488 43.5472C4.9004 47.2877 7.17509 50.6865 10.0429 53.5494C12.9108 56.4124 16.3156 58.6835 20.063 60.233C23.8103 61.7824 27.8268 62.58 31.883 62.58H49.3976L59.0388 72.2026L68.68 62.58H196.138C204.331 62.58 212.188 59.3317 217.981 53.5499C223.774 47.768 227.028 39.9261 227.028 31.7493C227.027 23.5738 223.771 15.7337 217.978 9.95336C212.186 4.17303 204.33 0.925781 196.138 0.925781Z" fill="#F9F9F9" stroke="black" stroke-linecap="round" stroke-linejoin="round"/>
<path d="M193.923 54.3503H54.2607V8.95117H193.923C199.948 8.95117 205.727 11.3401 209.988 15.5925C214.248 19.8448 216.642 25.6122 216.642 31.626C216.648 34.6078 216.065 37.5617 214.927 40.3185C213.788 43.0752 212.115 45.5807 210.005 47.6915C207.895 49.8023 205.388 51.477 202.629 52.6196C199.869 53.7622 196.911 54.3504 193.923 54.3503Z" fill="#F0F0F0"/>
<path d="M65.869 22.732H65.1591L64.9816 21.9597C64.7251 22.2587 64.4081 22.5001 64.0515 22.6682C63.7149 22.8103 63.3521 22.8803 62.9866 22.8737C62.5267 22.881 62.0709 22.7867 61.6519 22.5974C61.2719 22.4218 60.9333 22.1683 60.658 21.8534C60.3781 21.5289 60.1636 21.1536 60.0261 20.748C59.7419 19.8777 59.7419 18.9398 60.0261 18.0695C60.1637 17.6662 60.3783 17.2932 60.658 16.9712C60.9309 16.652 61.27 16.3957 61.6519 16.2201C62.0709 16.0308 62.5267 15.9364 62.9866 15.9438C63.3326 15.9397 63.6772 15.9874 64.0089 16.0855C64.3239 16.1719 64.6201 16.3161 64.8822 16.5106C65.1501 16.7107 65.3726 16.965 65.5354 17.2568C65.6981 17.5486 65.7972 17.8715 65.8264 18.2041H64.6905C64.6689 18.0002 64.6009 17.8039 64.4917 17.6302C64.3927 17.469 64.2623 17.3293 64.1083 17.2192C63.9513 17.1072 63.7759 17.0233 63.5901 16.9712C63.3941 16.9141 63.1908 16.8855 62.9866 16.8862C62.6681 16.8776 62.3528 16.9508 62.0708 17.0988C61.8182 17.2356 61.6036 17.4328 61.446 17.6727C61.2775 17.918 61.1548 18.1916 61.0839 18.4805C61.0104 18.7845 60.9723 19.096 60.9704 19.4087C60.9722 19.7192 61.0103 20.0283 61.0839 20.3299C61.1562 20.6205 61.2787 20.8963 61.446 21.1448C61.6058 21.381 61.82 21.5754 62.0708 21.7117C62.3528 21.8596 62.6681 21.9328 62.9866 21.9242C63.2541 21.9362 63.5214 21.8978 63.7746 21.8109C63.9923 21.7333 64.1908 21.61 64.3568 21.4495C64.5193 21.2864 64.641 21.0873 64.7118 20.8684C64.7927 20.6237 64.8358 20.368 64.8396 20.1102H63.0789V19.2529H65.9187L65.869 22.732Z" fill="black"/>
<path d="M69.9581 15.9635C70.4157 15.9561 70.8692 16.0505 71.2857 16.2398C71.6712 16.4127 72.0132 16.6693 72.2867 16.9909C72.5643 17.3132 72.7765 17.6862 72.9115 18.0893C73.2048 18.9581 73.2048 19.8989 72.9115 20.7677C72.7765 21.1729 72.5644 21.5482 72.2867 21.8731C72.0103 22.1898 71.6689 22.4435 71.2857 22.6171C70.8657 22.7995 70.4125 22.8936 69.9545 22.8936C69.4965 22.8936 69.0434 22.7995 68.6233 22.6171C68.2434 22.4415 67.9047 22.188 67.6294 21.8731C67.347 21.5492 67.1301 21.1738 66.9905 20.7677C66.7063 19.8974 66.7063 18.9595 66.9905 18.0893C67.1281 17.6859 67.3427 17.3129 67.6223 16.9909C67.8952 16.6717 68.2343 16.4154 68.6162 16.2398C69.0372 16.0488 69.4957 15.9544 69.9581 15.9635ZM69.9581 16.9059C69.6396 16.8973 69.3242 16.9705 69.0422 17.1185C68.7897 17.2554 68.575 17.4525 68.4175 17.6924C68.249 17.9377 68.1263 18.2114 68.0554 18.5002C67.9783 18.8036 67.9402 19.1155 67.9418 19.4285C67.9402 19.7391 67.9783 20.0487 68.0554 20.3496C68.1276 20.6402 68.2502 20.916 68.4175 21.1645C68.5772 21.4007 68.7915 21.5951 69.0422 21.7314C69.3242 21.8794 69.6396 21.9526 69.9581 21.944C70.2764 21.951 70.5913 21.8779 70.8739 21.7314C71.1232 21.5931 71.3371 21.3991 71.4987 21.1645C71.6607 20.914 71.7806 20.6388 71.8536 20.3496C71.933 20.049 71.9736 19.7394 71.9744 19.4285C71.9736 19.1152 71.933 18.8033 71.8536 18.5002C71.782 18.2128 71.662 17.9397 71.4987 17.6924C71.3394 17.454 71.1251 17.2572 70.8739 17.1185C70.5913 16.972 70.2764 16.8989 69.9581 16.9059Z" fill="black"/>
<path d="M59.9335 30.4731C60.0615 30.0693 60.2663 29.694 60.537 29.3677C60.8082 29.0432 61.1475 28.782 61.5309 28.6025C61.9616 28.4016 62.4329 28.3022 62.9082 28.3119C63.3977 28.2974 63.8839 28.3969 64.3281 28.6025C64.7115 28.782 65.0508 29.0432 65.3221 29.3677C65.5931 29.6926 65.7959 30.0685 65.9184 30.4731C66.1921 31.3209 66.1921 32.233 65.9184 33.0807C65.7976 33.4861 65.5946 33.8623 65.3221 34.1861C65.0508 34.5107 64.7115 34.7719 64.3281 34.9514C63.8821 35.151 63.3968 35.2478 62.9082 35.2348C62.4338 35.2434 61.9633 35.1466 61.5309 34.9514C61.1475 34.7719 60.8082 34.5107 60.537 34.1861C60.2648 33.8609 60.0598 33.4853 59.9335 33.0807C59.6686 32.2316 59.6686 31.3222 59.9335 30.4731ZM60.75 32.7619C60.8306 33.0767 60.9677 33.3744 61.1547 33.6405C61.339 33.9011 61.5822 34.1147 61.8646 34.2641C62.1897 34.4179 62.5449 34.4977 62.9047 34.4977C63.2644 34.4977 63.6197 34.4179 63.9448 34.2641C64.2278 34.1156 64.4712 33.9018 64.6547 33.6405C64.8467 33.3764 64.9865 33.0782 65.0665 32.7619C65.1517 32.4405 65.1946 32.1094 65.1943 31.7769C65.1942 31.4445 65.1512 31.1135 65.0665 30.792C64.9865 30.4756 64.8467 30.1774 64.6547 29.9133C64.4692 29.6538 64.2263 29.4405 63.9448 29.2898C63.6197 29.136 63.2644 29.0562 62.9047 29.0562C62.5449 29.0562 62.1897 29.136 61.8646 29.2898C61.5841 29.4419 61.3415 29.655 61.1547 29.9133C60.9677 30.1795 60.8306 30.4771 60.75 30.792C60.6572 31.1027 60.607 31.4245 60.6009 31.7486C60.6011 32.0918 60.6514 32.4331 60.75 32.7619Z" fill="#767676"/>
<path d="M66.5508 30.9861V30.3271H67.3601V29.6185C67.3495 29.4557 67.3737 29.2925 67.4312 29.1397C67.4888 28.987 67.5783 28.8483 67.6938 28.7328C67.9778 28.5162 68.3312 28.4104 68.6877 28.4352H68.9433L69.1918 28.4919V29.2004C69.1205 29.1757 69.0467 29.159 68.9717 29.1508H68.7516C68.594 29.1379 68.4366 29.1778 68.3043 29.2642C68.2449 29.3165 68.1995 29.3828 68.1722 29.457C68.1449 29.5313 68.1367 29.6111 68.1482 29.6894V30.3271H69.0782V31.0357H68.1482V35.1313H67.3601V30.9861H66.5508Z" fill="#767676"/>
<path d="M69.1206 30.9869V30.3279H69.93V29.6193C69.9188 29.4558 69.9435 29.2919 70.0024 29.1389C70.0613 28.9859 70.1528 28.8476 70.2708 28.7336C70.5507 28.5145 70.9029 28.4083 71.2576 28.436H71.5132C71.5997 28.4484 71.6851 28.4674 71.7688 28.4926V29.2012C71.6973 29.1772 71.6236 29.1606 71.5487 29.1516H71.3215C71.1639 29.1387 71.0065 29.1786 70.8742 29.265C70.8162 29.3184 70.7719 29.3848 70.7447 29.4588C70.7175 29.5327 70.7084 29.612 70.718 29.6902V30.3279H71.6481V31.0365H70.718V35.1321H69.93V30.9869H69.1206Z" fill="#767676"/>
<path d="M72.4077 29.4305V28.4668H73.1957V29.4305H72.4077ZM73.1957 30.3304V35.1204H72.4077V30.3304H73.1957Z" fill="#767676"/>
<path d="M77.2913 31.1348C77.0639 30.9553 76.7786 30.8646 76.489 30.8797C76.2432 30.8736 75.9996 30.9271 75.7791 31.0356C75.5939 31.136 75.4356 31.2794 75.3176 31.4537C75.1993 31.638 75.1152 31.842 75.0691 32.056C75.0188 32.2888 74.995 32.5265 74.9981 32.7646C74.9952 32.9844 75.0214 33.2036 75.0762 33.4165C75.1224 33.6172 75.2067 33.8073 75.3247 33.9763C75.4347 34.1416 75.5833 34.2777 75.7578 34.3731C76.0074 34.4891 76.284 34.5352 76.5578 34.5065C76.8317 34.4778 77.0925 34.3753 77.3126 34.2101C77.5461 33.9819 77.6897 33.6777 77.7173 33.3527H78.5266C78.4709 33.8723 78.2348 34.3561 77.8593 34.7203C77.4635 35.0533 76.9565 35.2254 76.4393 35.2021C76.1087 35.2097 75.7801 35.1494 75.4738 35.025C75.2018 34.9168 74.9588 34.747 74.7638 34.5289C74.5739 34.3009 74.4293 34.0387 74.3378 33.7566C74.2415 33.4348 74.1937 33.1004 74.1959 32.7646C74.1953 32.4242 74.2431 32.0854 74.3378 31.7584C74.4238 31.4624 74.566 31.1858 74.7567 30.9435C74.9519 30.7134 75.194 30.5275 75.4667 30.3979C75.7801 30.2621 76.119 30.1944 76.4607 30.1995C76.7195 30.1992 76.9772 30.2325 77.2274 30.2987C77.4544 30.3586 77.6686 30.4594 77.8593 30.5963C78.0429 30.7357 78.1952 30.9119 78.3066 31.1136C78.4278 31.3327 78.505 31.5734 78.5337 31.8221H77.7173C77.6605 31.5502 77.5097 31.3069 77.2913 31.1348Z" fill="#767676"/>
<path d="M79.4502 29.4305V28.4668H80.2453V29.4305H79.4502ZM80.2453 30.3304V35.1204H79.4502V30.3304H80.2453Z" fill="#767676"/>
<path d="M85.7193 35.0624C85.5447 35.1539 85.3482 35.1956 85.1513 35.1828C85.0636 35.1876 84.9758 35.175 84.8929 35.1458C84.8101 35.1166 84.7339 35.0714 84.6686 35.0128C84.5994 34.9381 84.547 34.8495 84.5152 34.7529C84.4833 34.6563 84.4727 34.554 84.484 34.453C84.2846 34.7031 84.0225 34.8962 83.7243 35.0128C83.428 35.1282 83.1123 35.1859 82.7943 35.1828C82.5863 35.1846 82.3788 35.1608 82.1766 35.112C81.9948 35.0679 81.8235 34.9885 81.6725 34.8781C81.528 34.7699 81.4112 34.6291 81.3318 34.4671C81.24 34.282 81.1915 34.0785 81.1898 33.8719C81.1799 33.6423 81.2262 33.4137 81.3247 33.2059C81.4119 33.0367 81.5385 32.8909 81.6939 32.7807C81.8514 32.6711 82.0267 32.5896 82.2121 32.5398C82.4082 32.4817 82.6073 32.4344 82.8085 32.3981C83.0286 32.3556 83.2345 32.3201 83.4261 32.2989C83.6012 32.2829 83.7746 32.2521 83.9444 32.2068C84.0737 32.1787 84.1936 32.1176 84.2923 32.0296C84.339 31.9882 84.3755 31.9367 84.3989 31.8789C84.4223 31.8211 84.4319 31.7587 84.4272 31.6966C84.4332 31.5507 84.3988 31.4061 84.3278 31.2785C84.2661 31.1789 84.1808 31.0962 84.0793 31.0376C83.9704 30.9809 83.8528 30.9426 83.7314 30.9242C83.6061 30.9169 83.4804 30.9169 83.3551 30.9242C83.0662 30.9134 82.7795 30.9795 82.5245 31.1155C82.407 31.1914 82.3116 31.2969 82.2481 31.4213C82.1845 31.5457 82.155 31.6847 82.1624 31.8241H81.3744C81.3738 31.5625 81.4371 31.3047 81.559 31.073C81.6645 30.8732 81.8182 30.7027 82.0062 30.577C82.1999 30.452 82.4136 30.3609 82.6381 30.3077C82.8895 30.2499 83.1468 30.2214 83.4048 30.2227C83.6212 30.2216 83.8373 30.2382 84.0509 30.2723C84.2543 30.2991 84.4513 30.3615 84.633 30.4565C84.8031 30.5533 84.945 30.6925 85.0448 30.8604C85.1666 31.076 85.2233 31.3221 85.2081 31.569V34.0349C85.1936 34.1691 85.1936 34.3046 85.2081 34.4388C85.2081 34.5238 85.3004 34.5663 85.4282 34.5663C85.5103 34.5643 85.5917 34.5499 85.6696 34.5238L85.7193 35.0624ZM84.4414 32.5965C84.3263 32.6814 84.1923 32.7374 84.0509 32.7594C83.8853 32.7925 83.7148 32.8209 83.5397 32.8445L83.0073 32.9224C82.8415 32.9438 82.6792 32.9867 82.5245 33.05C82.3888 33.1109 82.2695 33.2032 82.1766 33.3192C82.0777 33.4543 82.03 33.62 82.0417 33.7869C82.0389 33.9005 82.0658 34.0128 82.1198 34.1128C82.1719 34.1999 82.2421 34.2748 82.3257 34.3325C82.4154 34.3883 82.5138 34.429 82.6168 34.453C82.7348 34.4641 82.8537 34.4641 82.9718 34.453C83.1989 34.4587 83.4251 34.4226 83.6391 34.3467C83.8061 34.2861 83.9603 34.1948 84.0935 34.0774C84.2057 33.9797 84.2953 33.8588 84.3562 33.7231C84.4103 33.6127 84.4394 33.4917 84.4414 33.3688V32.5965Z" fill="#767676"/>
<path d="M87.288 28.4668V35.085H86.5V28.4668H87.288Z" fill="#767676"/>
<path d="M95.218 35.0061C94.8473 35.1528 94.4525 35.2297 94.0537 35.2329C93.596 35.241 93.1423 35.1466 92.726 34.9565C92.3487 34.7924 92.01 34.551 91.7321 34.2479C91.4615 33.9297 91.2564 33.5613 91.1286 33.1638C90.9868 32.7608 90.9148 32.3367 90.9156 31.9096C90.9124 31.444 90.9794 30.9806 91.1144 30.5349C91.234 30.1198 91.4342 29.7322 91.7037 29.3941C91.9729 29.0649 92.3093 28.7968 92.6905 28.6076C93.1213 28.4067 93.5925 28.3073 94.0679 28.3171C94.4104 28.3149 94.7518 28.3577 95.0831 28.4446C95.3912 28.5203 95.6825 28.6525 95.9422 28.8343C96.1956 29.0267 96.408 29.2676 96.5669 29.5429C96.7494 29.8497 96.87 30.1891 96.9219 30.542H96.0345C96.0021 30.3099 95.9198 30.0875 95.7931 29.8901C95.6811 29.7111 95.5338 29.5568 95.36 29.4366C95.179 29.3182 94.98 29.2297 94.7707 29.1745C94.5386 29.1164 94.3001 29.0878 94.0608 29.0894C93.7207 29.0764 93.3829 29.1495 93.0787 29.3019C92.7746 29.4543 92.514 29.681 92.3214 29.961C92.1329 30.234 91.9958 30.5389 91.9167 30.8609C91.8317 31.1992 91.7888 31.5467 91.7889 31.8954C91.7876 32.2318 91.8379 32.5663 91.938 32.8875C92.0286 33.1929 92.1755 33.4789 92.3711 33.7307C92.5633 33.9747 92.8053 34.1752 93.081 34.3188C93.386 34.4665 93.7219 34.5393 94.0608 34.5314C94.3763 34.5395 94.6902 34.484 94.9837 34.3684C95.2372 34.2653 95.465 34.1081 95.6511 33.9078C95.8402 33.7045 95.9831 33.4628 96.07 33.1992C96.1616 32.9279 96.2025 32.6421 96.1907 32.356H94.0608V31.5978H96.9716V35.0841H96.4108L96.1836 34.2621C95.9347 34.5923 95.6011 34.8494 95.218 35.0061Z" fill="#767676"/>
<path d="M98.0291 31.7029C98.1225 31.4122 98.2721 31.1426 98.4693 30.9093C98.6649 30.6832 98.907 30.5019 99.1792 30.3778C99.8228 30.1136 100.545 30.1136 101.188 30.3778C101.46 30.5033 101.702 30.6843 101.898 30.9093C102.095 31.1426 102.245 31.4122 102.338 31.7029C102.44 32.0237 102.49 32.3585 102.488 32.6949C102.49 33.0267 102.44 33.3567 102.338 33.6728C102.245 33.9634 102.095 34.233 101.898 34.4664C101.704 34.6916 101.461 34.8707 101.188 34.9907C100.543 35.246 99.8245 35.246 99.1792 34.9907C98.906 34.8715 98.6634 34.6923 98.4693 34.4664C98.2721 34.233 98.1225 33.9634 98.0291 33.6728C97.9279 33.3567 97.8776 33.0267 97.88 32.6949C97.8771 32.3585 97.9274 32.0237 98.0291 31.7029ZM98.8313 33.4673C98.8999 33.673 99.0085 33.8632 99.1508 34.0271C99.2813 34.1769 99.4438 34.2956 99.6264 34.3743C99.8102 34.4538 100.008 34.4949 100.209 34.4949C100.409 34.4949 100.607 34.4538 100.791 34.3743C100.973 34.2956 101.136 34.1769 101.266 34.0271C101.409 33.8632 101.517 33.673 101.586 33.4673C101.747 32.9625 101.747 32.4203 101.586 31.9155C101.516 31.7084 101.407 31.5162 101.266 31.3486C101.135 31.1984 100.973 31.0776 100.791 30.9943C100.607 30.9147 100.409 30.8737 100.209 30.8737C100.008 30.8737 99.8102 30.9147 99.6264 30.9943C99.4446 31.0776 99.2826 31.1984 99.1508 31.3486C99.01 31.5162 98.9017 31.7084 98.8313 31.9155C98.6703 32.4203 98.6703 32.9625 98.8313 33.4673Z" fill="#767676"/>
<path d="M104.788 35.0847L103.006 30.3301H103.908L105.25 34.3194L106.556 30.3301H107.387L105.633 35.1201L104.788 35.0847Z" fill="#767676"/>
<path d="M111.504 34.7794C111.11 35.0608 110.633 35.2029 110.148 35.1833C109.807 35.1941 109.468 35.1313 109.154 34.999C108.881 34.8832 108.638 34.7062 108.444 34.4818C108.244 34.2492 108.096 33.976 108.011 33.6811C107.911 33.3547 107.856 33.0161 107.848 32.6749C107.843 32.3342 107.901 31.9956 108.018 31.6758C108.117 31.3836 108.277 31.1155 108.487 30.8892C108.684 30.6669 108.926 30.4882 109.197 30.3649C109.484 30.2414 109.793 30.1786 110.106 30.1806C110.478 30.1692 110.846 30.2599 111.171 30.4428C111.446 30.6251 111.677 30.8674 111.845 31.1514C112.017 31.4249 112.137 31.7275 112.2 32.0442C112.263 32.3446 112.29 32.6516 112.278 32.9583H108.686C108.676 33.1616 108.701 33.365 108.757 33.5606C108.812 33.7423 108.904 33.911 109.026 34.0566C109.157 34.2068 109.319 34.3255 109.502 34.4038C109.727 34.4979 109.969 34.5415 110.212 34.5314C110.504 34.5458 110.793 34.4663 111.036 34.3046C111.261 34.1299 111.413 33.8771 111.462 33.596H112.235C112.15 34.0686 111.889 34.4914 111.504 34.7794ZM111.313 31.7041C111.248 31.5426 111.151 31.3957 111.029 31.2719C110.831 31.082 110.582 30.9535 110.312 30.902C110.042 30.8504 109.764 30.878 109.509 30.9813C109.349 31.0488 109.204 31.1476 109.083 31.2719C108.964 31.3966 108.87 31.5434 108.806 31.7041C108.737 31.8709 108.696 32.0482 108.686 32.2285H111.44C111.427 32.0478 111.384 31.8705 111.313 31.7041Z" fill="#767676"/>
<path d="M113.847 30.3309V31.3371C114.001 30.992 114.247 30.6954 114.557 30.4797C114.873 30.2824 115.244 30.1905 115.615 30.2175V31.0395C115.34 31.0322 115.065 31.0754 114.806 31.167C114.594 31.2419 114.407 31.3744 114.266 31.5496C114.125 31.7271 114.024 31.9324 113.968 32.1519C113.894 32.4128 113.854 32.6818 113.847 32.9527V35.0784H113.066V30.3309H113.847Z" fill="#767676"/>
<path d="M117.092 30.3299V31.0385C117.242 30.7596 117.468 30.5293 117.745 30.3749C118.022 30.2205 118.337 30.1483 118.654 30.1669C118.923 30.1581 119.191 30.2039 119.442 30.3016C119.636 30.3805 119.811 30.5015 119.953 30.6559C120.084 30.8169 120.177 31.006 120.223 31.2086C120.282 31.4401 120.31 31.6783 120.308 31.9172V35.0704H119.527V31.8392C119.535 31.7099 119.517 31.5804 119.473 31.4585C119.429 31.3367 119.36 31.2251 119.271 31.1306C119.177 31.0411 119.066 30.9717 118.943 30.9266C118.821 30.8815 118.691 30.8617 118.561 30.8684C118.348 30.8623 118.135 30.9009 117.937 30.9818C117.766 31.0479 117.615 31.155 117.497 31.2936C117.377 31.4356 117.285 31.5992 117.227 31.7754C117.168 31.9684 117.139 32.1691 117.142 32.3706V35.0774H116.354V30.3299H117.092Z" fill="#767676"/>
<path d="M122.253 30.3301V31.0387C122.416 30.7795 122.646 30.5679 122.917 30.4248C123.189 30.2818 123.493 30.2125 123.8 30.2239C124.081 30.2211 124.358 30.2842 124.61 30.4081C124.732 30.4741 124.841 30.5638 124.929 30.6721C125.017 30.7804 125.082 30.905 125.121 31.0387C125.278 30.7865 125.498 30.579 125.76 30.4364C126.026 30.2934 126.324 30.2203 126.626 30.2239C126.846 30.2223 127.065 30.2485 127.279 30.3018C127.462 30.3501 127.633 30.4344 127.783 30.5498C127.924 30.6651 128.034 30.8136 128.103 30.982C128.187 31.1814 128.228 31.3963 128.223 31.6127V35.1556H127.435V31.9457C127.436 31.8052 127.422 31.6651 127.393 31.5277C127.373 31.4059 127.327 31.2899 127.258 31.1875C127.183 31.0901 127.085 31.0123 126.974 30.9608C126.826 30.8989 126.666 30.8698 126.505 30.8758C126.337 30.8674 126.169 30.8926 126.01 30.9498C125.852 31.0069 125.706 31.095 125.582 31.2088C125.47 31.3281 125.383 31.4684 125.325 31.6217C125.268 31.775 125.242 31.9381 125.249 32.1016V35.0848H124.496V31.9457C124.497 31.8005 124.483 31.6557 124.453 31.5135C124.431 31.3935 124.383 31.2798 124.311 31.1804C124.242 31.0834 124.149 31.0054 124.042 30.9537C123.899 30.8983 123.747 30.8718 123.594 30.8758C123.389 30.8712 123.186 30.9201 123.005 31.0175C122.853 31.1032 122.718 31.2161 122.608 31.3505C122.503 31.4666 122.421 31.6012 122.366 31.7473C122.323 31.8582 122.299 31.9756 122.295 32.0945V35.0777H121.514V30.3301H122.253Z" fill="#767676"/>
<path d="M132.832 34.7794C132.437 35.0588 131.96 35.2008 131.476 35.1833C131.133 35.1934 130.792 35.1306 130.475 34.999C130.203 34.8814 129.96 34.7047 129.765 34.4818C129.567 34.2474 129.42 33.9748 129.332 33.6811C129.234 33.3543 129.182 33.0158 129.176 32.6749C129.169 32.3347 129.224 31.9961 129.339 31.6758C129.444 31.3862 129.603 31.1192 129.808 30.8892C130.005 30.6669 130.247 30.4882 130.518 30.3649C130.802 30.2413 131.109 30.1786 131.419 30.1806C131.792 30.1692 132.16 30.2599 132.484 30.4428C132.774 30.6192 133.017 30.8621 133.194 31.1514C133.366 31.4249 133.486 31.7275 133.549 32.0442C133.613 32.3446 133.639 32.6516 133.627 32.9583H130.035C130.028 33.162 130.054 33.3654 130.113 33.5606C130.163 33.7448 130.255 33.9148 130.383 34.0566C130.509 34.2082 130.669 34.3273 130.851 34.4038C131.076 34.4975 131.318 34.541 131.561 34.5314C131.851 34.5458 132.137 34.4662 132.378 34.3046C132.603 34.1299 132.755 33.8771 132.804 33.596H133.585C133.489 34.0697 133.221 34.4913 132.832 34.7794ZM132.64 31.7041C132.573 31.5422 132.474 31.3953 132.349 31.2719C132.227 31.1491 132.082 31.0505 131.923 30.9813C131.753 30.9087 131.569 30.8725 131.384 30.8751C131.202 30.8707 131.021 30.9037 130.853 30.9719C130.684 31.0402 130.531 31.1423 130.404 31.2719C130.289 31.4002 130.196 31.5462 130.127 31.7041C130.061 31.872 130.021 32.0487 130.007 32.2285H132.768C132.755 32.0478 132.712 31.8705 132.64 31.7041Z" fill="#767676"/>
<path d="M135.146 30.3294V31.038C135.297 30.7603 135.524 30.531 135.801 30.3767C136.077 30.2224 136.392 30.1495 136.708 30.1665C136.977 30.1562 137.245 30.202 137.496 30.3011C137.693 30.3759 137.868 30.4975 138.007 30.6554C138.139 30.817 138.234 31.0058 138.284 31.2081C138.337 31.4406 138.363 31.6783 138.362 31.9167V35.0699H137.574V31.8387C137.583 31.7088 137.564 31.5785 137.519 31.4563C137.474 31.3342 137.403 31.223 137.311 31.1301C137.217 31.0403 137.106 30.9706 136.984 30.9255C136.862 30.8804 136.731 30.8608 136.601 30.868C136.387 30.8618 136.175 30.9004 135.977 30.9813C135.807 31.0492 135.657 31.156 135.536 31.2931C135.418 31.4351 135.329 31.5988 135.274 31.775C135.213 31.9675 135.182 32.1682 135.181 32.3702V35.077H134.436V30.3294H135.146Z" fill="#767676"/>
<path d="M141.628 30.3273V31.0359H140.677V34.012C140.668 34.0849 140.668 34.1587 140.677 34.2316C140.688 34.2835 140.718 34.3292 140.762 34.3592C140.816 34.3983 140.88 34.4206 140.947 34.423H141.245H141.607V35.1315H141.003C140.827 35.1337 140.651 35.1194 140.478 35.089C140.35 35.0697 140.23 35.0158 140.13 34.9331C140.033 34.8523 139.964 34.7433 139.931 34.6214C139.877 34.4472 139.853 34.2651 139.86 34.0828V31.0359H139.044V30.3273H139.86V28.9102H140.656V30.3273H141.628Z" fill="#767676"/>
<path d="M146.094 28.4668V34.341H149.601V35.085H145.213V28.4668H146.094Z" fill="#767676"/>
<path d="M150.29 29.4305V28.4668H151.078V29.4305H150.29ZM151.078 30.3304V35.1204H150.29V30.3304H151.078Z" fill="#767676"/>
<path d="M153.044 30.3299V31.0385C153.193 30.7596 153.42 30.5293 153.697 30.3749C153.974 30.2205 154.289 30.1483 154.605 30.1669C154.875 30.1581 155.143 30.2039 155.394 30.3016C155.588 30.3805 155.763 30.5015 155.905 30.6559C156.036 30.8169 156.128 31.006 156.174 31.2086C156.233 31.4401 156.262 31.6783 156.26 31.9172V35.0704H155.464V31.8392C155.473 31.7099 155.454 31.5804 155.41 31.4585C155.366 31.3367 155.298 31.2251 155.209 31.1306C155.115 31.0411 155.003 30.9717 154.881 30.9266C154.759 30.8815 154.629 30.8617 154.499 30.8684C154.285 30.8623 154.072 30.9009 153.874 30.9818C153.704 31.0479 153.553 31.155 153.434 31.2936C153.314 31.4356 153.223 31.5992 153.164 31.7754C153.106 31.9684 153.077 32.1691 153.079 32.3706V35.0774H152.291V30.3299H153.044Z" fill="#767676"/>
<path d="M158.305 28.4668V32.3853L160.492 30.3304H161.55L159.647 32.0735L161.692 35.1204H160.705L159.058 32.6191L158.348 33.3277V35.1417H157.51V28.4668H158.305Z" fill="#767676"/>
<path d="M168.315 29.3762C167.982 29.1534 167.587 29.0418 167.186 29.0573C167.003 29.0559 166.82 29.0725 166.64 29.1069C166.468 29.1414 166.305 29.2062 166.157 29.2982C166.018 29.3844 165.904 29.5038 165.823 29.6454C165.735 29.8108 165.693 29.9969 165.702 30.1839C165.695 30.3659 165.759 30.5435 165.88 30.68C166.016 30.818 166.181 30.9245 166.363 30.9917C166.592 31.0802 166.83 31.1466 167.073 31.1901L167.846 31.3602C168.109 31.424 168.372 31.4948 168.627 31.5799C168.879 31.6591 169.118 31.7736 169.337 31.92C169.535 32.0597 169.7 32.2411 169.82 32.4514C169.946 32.7229 170.007 33.0201 169.997 33.3191C169.987 33.6181 169.907 33.9107 169.763 34.1733C169.609 34.4198 169.4 34.6282 169.153 34.7827C168.899 34.9468 168.617 35.0644 168.322 35.1299C168.022 35.2002 167.715 35.2358 167.406 35.2362C167.051 35.2368 166.698 35.1891 166.356 35.0945C166.041 35.0103 165.745 34.8686 165.482 34.6764C165.234 34.4868 165.03 34.2448 164.886 33.9678C164.738 33.6409 164.665 33.2849 164.673 32.9262H165.504C165.499 33.1722 165.555 33.4155 165.667 33.6348C165.768 33.831 165.914 34.0008 166.093 34.1308C166.278 34.2644 166.488 34.3607 166.711 34.4142C166.942 34.4758 167.181 34.5067 167.42 34.5063C167.623 34.507 167.825 34.4904 168.024 34.4567C168.212 34.4175 168.393 34.3531 168.564 34.2654C168.723 34.1774 168.857 34.0507 168.954 33.8969C169.06 33.7195 169.112 33.5152 169.103 33.3088C169.112 33.106 169.047 32.9068 168.918 32.749C168.786 32.5981 168.621 32.4794 168.436 32.4018C168.208 32.3024 167.97 32.2288 167.726 32.1822L166.952 32.0121C166.689 31.9554 166.434 31.8846 166.178 31.8066C165.928 31.7393 165.689 31.6367 165.468 31.5019C165.272 31.3781 165.107 31.2108 164.985 31.013C164.854 30.7825 164.79 30.5198 164.801 30.2548C164.792 29.9668 164.856 29.6813 164.988 29.4248C165.12 29.1684 165.314 28.9493 165.553 28.788C165.786 28.6265 166.046 28.5066 166.32 28.4337C166.609 28.3569 166.908 28.3187 167.207 28.3204C167.526 28.3189 167.844 28.3594 168.152 28.4408C168.431 28.5131 168.693 28.6435 168.918 28.8235C169.142 28.9956 169.319 29.2193 169.437 29.4754C169.573 29.7713 169.645 30.0923 169.65 30.4178H168.812C168.81 30.2186 168.764 30.0223 168.678 29.8424C168.592 29.6626 168.469 29.5035 168.315 29.3762Z" fill="#767676"/>
<path d="M171.667 28.4668V30.9965C171.727 30.8541 171.816 30.7261 171.929 30.6209C172.041 30.5188 172.168 30.435 172.306 30.3729C172.444 30.3078 172.589 30.2602 172.739 30.2312C172.883 30.1976 173.031 30.181 173.179 30.1816C173.448 30.1713 173.717 30.2172 173.967 30.3162C174.164 30.391 174.339 30.5126 174.478 30.6705C174.61 30.8322 174.705 31.0209 174.755 31.2232C174.808 31.4557 174.834 31.6934 174.833 31.9318V35.085H174.045V31.8397C174.054 31.7097 174.034 31.5794 173.988 31.4576C173.941 31.3358 173.869 31.2255 173.776 31.1341C173.683 31.0426 173.572 30.9722 173.449 30.9277C173.326 30.8832 173.195 30.8655 173.065 30.876C172.851 30.8699 172.639 30.9085 172.441 30.9894C172.271 31.0572 172.12 31.164 172 31.3011C171.88 31.4417 171.791 31.6058 171.738 31.783C171.673 31.9747 171.642 32.176 171.645 32.3782V35.085H170.857V28.4668H171.667Z" fill="#767676"/>
<path d="M175.926 31.7029C176.019 31.4106 176.171 31.1404 176.373 30.9093C176.569 30.6832 176.811 30.5019 177.083 30.3778C177.727 30.1136 178.449 30.1136 179.092 30.3778C179.364 30.5021 179.606 30.6834 179.802 30.9093C180.004 31.1404 180.156 31.4106 180.249 31.7029C180.351 32.0237 180.401 32.3585 180.398 32.6949C180.401 33.0267 180.351 33.3567 180.249 33.6728C180.156 33.9651 180.004 34.2352 179.802 34.4664C179.608 34.6923 179.365 34.8715 179.092 34.9907C178.447 35.246 177.728 35.246 177.083 34.9907C176.81 34.8715 176.567 34.6923 176.373 34.4664C176.171 34.2352 176.019 33.9651 175.926 33.6728C175.83 33.3556 175.783 33.0261 175.784 32.6949C175.782 32.3591 175.83 32.0248 175.926 31.7029ZM176.735 33.4673C176.797 33.6759 176.906 33.8674 177.055 34.0271C177.184 34.1784 177.347 34.2973 177.53 34.3743C177.713 34.4569 177.912 34.498 178.112 34.4947C178.311 34.4979 178.507 34.4568 178.687 34.3743C178.873 34.2976 179.039 34.1787 179.17 34.0271C179.313 33.8632 179.421 33.673 179.49 33.4673C179.641 32.961 179.641 32.4217 179.49 31.9155C179.419 31.7084 179.311 31.5162 179.17 31.3486C179.036 31.1976 178.872 31.0768 178.687 30.9943C178.506 30.9146 178.31 30.8735 178.112 30.8738C177.912 30.8742 177.714 30.9152 177.53 30.9943C177.348 31.0763 177.185 31.1972 177.055 31.3486C176.909 31.5125 176.8 31.7058 176.735 31.9155C176.574 32.4203 176.574 32.9625 176.735 33.4673Z" fill="#767676"/>
<path d="M182.081 30.3362V31.3424C182.237 30.9987 182.482 30.7028 182.791 30.485C183.108 30.2894 183.478 30.1978 183.849 30.2228V31.0448C183.576 31.038 183.304 31.0813 183.047 31.1723C182.835 31.2472 182.648 31.3797 182.507 31.5549C182.366 31.7324 182.265 31.9377 182.209 32.1572C182.143 32.4262 182.112 32.7024 182.117 32.9792V35.105H181.329V30.3362H182.081Z" fill="#767676"/>
<path d="M186.512 30.3273V31.0359H185.554V34.012C185.541 34.0847 185.541 34.159 185.554 34.2316C185.565 34.2835 185.595 34.3292 185.639 34.3592C185.693 34.3983 185.757 34.4206 185.823 34.423H186.122H186.484V35.1315H185.88C185.704 35.1337 185.528 35.1194 185.355 35.089C185.227 35.0697 185.107 35.0158 185.007 34.9331C184.918 34.834 184.862 34.7106 184.844 34.5789C184.796 34.4035 184.774 34.222 184.78 34.0403V30.9934H183.963V30.3273H184.78V28.9102H185.554V30.3273H186.512Z" fill="#767676"/>
<path d="M190.785 34.7794C190.389 35.0588 189.913 35.2008 189.429 35.1833C189.086 35.1934 188.745 35.1306 188.428 34.999C188.154 34.8832 187.912 34.7062 187.718 34.4818C187.52 34.2474 187.372 33.9748 187.285 33.6811C187.188 33.3539 187.133 33.0158 187.121 32.6749C187.116 32.3342 187.174 31.9956 187.292 31.6758C187.396 31.3862 187.555 31.1192 187.76 30.8892C187.958 30.6669 188.2 30.4882 188.47 30.3649C188.754 30.2407 189.062 30.1779 189.372 30.1806C189.744 30.1692 190.113 30.2599 190.437 30.4428C190.725 30.6209 190.968 30.8634 191.147 31.1514C191.319 31.4249 191.439 31.7275 191.502 32.0442C191.565 32.3446 191.592 32.6516 191.58 32.9583H187.988C187.981 33.162 188.007 33.3654 188.066 33.5606C188.116 33.7432 188.205 33.9125 188.328 34.0566C188.458 34.2068 188.621 34.3255 188.804 34.4038C189.028 34.4975 189.271 34.541 189.514 34.5314C189.803 34.5458 190.09 34.4662 190.33 34.3046C190.556 34.1299 190.708 33.8771 190.756 33.596H191.537C191.442 34.0697 191.173 34.4913 190.785 34.7794ZM190.593 31.7041C190.526 31.5422 190.427 31.3953 190.302 31.2719C190.18 31.1491 190.035 31.0505 189.876 30.9813C189.705 30.9095 189.522 30.8733 189.336 30.8751C189.155 30.8707 188.974 30.9037 188.805 30.9719C188.637 31.0402 188.484 31.1423 188.357 31.2719C188.117 31.5353 187.977 31.8733 187.959 32.2285H190.714C190.707 32.0477 190.666 31.8699 190.593 31.7041Z" fill="#767676"/>
<path d="M193.114 30.3294V31.038C193.265 30.7603 193.492 30.531 193.768 30.3767C194.045 30.2224 194.359 30.1495 194.676 30.1665C194.956 30.1627 195.234 30.2182 195.492 30.3294C195.689 30.4042 195.864 30.5258 196.003 30.6837C196.135 30.8454 196.23 31.0341 196.28 31.2364C196.333 31.4689 196.359 31.7066 196.358 31.945V35.0982H195.57V31.8387C195.579 31.7087 195.559 31.5784 195.513 31.4567C195.466 31.3349 195.394 31.2245 195.301 31.1331C195.208 31.0417 195.097 30.9713 194.974 30.9268C194.851 30.8822 194.72 30.8646 194.59 30.875C194.376 30.8689 194.164 30.9075 193.966 30.9884C193.795 31.0545 193.644 31.1616 193.525 31.3002C193.405 31.4408 193.316 31.6049 193.263 31.782C193.198 31.9738 193.167 32.1751 193.17 32.3773V35.0841H192.368V30.3294H193.114Z" fill="#767676"/>
<path d="M200.931 34.7794C200.535 35.0588 200.059 35.2008 199.575 35.1833C199.232 35.1934 198.891 35.1306 198.574 34.999C198.302 34.8814 198.059 34.7047 197.864 34.4818C197.666 34.2474 197.518 33.9748 197.431 33.6811C197.333 33.3543 197.28 33.0158 197.275 32.6749C197.267 32.3347 197.323 31.9961 197.438 31.6758C197.542 31.3862 197.701 31.1192 197.906 30.8892C198.104 30.6669 198.346 30.4882 198.616 30.3649C198.901 30.2413 199.208 30.1786 199.518 30.1806C199.89 30.1692 200.259 30.2599 200.583 30.4428C200.873 30.6192 201.116 30.8621 201.293 31.1514C201.465 31.4249 201.585 31.7275 201.648 32.0442C201.711 32.3446 201.738 32.6516 201.726 32.9583H198.134C198.127 33.162 198.153 33.3654 198.212 33.5606C198.261 33.7448 198.354 33.9148 198.481 34.0566C198.607 34.2082 198.768 34.3273 198.95 34.4038C199.175 34.4975 199.417 34.541 199.66 34.5314C199.95 34.5458 200.236 34.4662 200.476 34.3046C200.702 34.1299 200.854 33.8771 200.902 33.596H201.683C201.588 34.0697 201.32 34.4913 200.931 34.7794ZM200.739 31.7041C200.672 31.5422 200.573 31.3953 200.448 31.2719C200.326 31.1491 200.181 31.0505 200.022 30.9813C199.852 30.9087 199.668 30.8725 199.482 30.8751C199.301 30.8707 199.12 30.9037 198.951 30.9719C198.783 31.0402 198.63 31.1423 198.503 31.2719C198.388 31.4002 198.294 31.5462 198.226 31.7041C198.16 31.872 198.119 32.0487 198.105 32.2285H200.867C200.854 32.0478 200.811 31.8705 200.739 31.7041Z" fill="#767676"/>
<path d="M203.231 30.3306V31.3368C203.387 30.9932 203.632 30.6972 203.941 30.4794C204.257 30.283 204.627 30.1912 204.999 30.2172V31.0392C204.723 31.0332 204.449 31.0764 204.189 31.1667C203.979 31.2453 203.793 31.3772 203.65 31.5494C203.508 31.7256 203.409 31.9315 203.359 32.1517C203.306 32.4152 203.287 32.6841 203.302 32.9524V35.0781H202.514V30.3306H203.231Z" fill="#767676"/>
<path d="M63.3483 48.7511C63.1333 48.946 62.8808 49.0948 62.6061 49.1887C62.3314 49.2825 62.0403 49.3193 61.7509 49.2967C61.5335 49.2973 61.3168 49.2736 61.1048 49.2259C60.8942 49.1859 60.6923 49.1091 60.5084 48.9991C60.3311 48.8989 60.1803 48.758 60.0683 48.5882C59.9439 48.4065 59.8771 48.1917 59.8766 47.9717H60.5865C60.583 48.0974 60.6289 48.2194 60.7143 48.3118C60.7924 48.406 60.8891 48.4832 60.9983 48.5386C61.1178 48.5968 61.2443 48.6397 61.3746 48.6661C61.5022 48.676 61.6304 48.676 61.758 48.6661C61.9733 48.673 62.1873 48.6293 62.3827 48.5386C62.5491 48.4594 62.6931 48.3401 62.8016 48.1914C62.919 48.0307 63.0013 47.8472 63.043 47.6528C63.0946 47.4203 63.1185 47.1824 63.114 46.9442V46.6466C62.9945 46.9114 62.7895 47.1285 62.5318 47.2631C62.2733 47.3897 61.9891 47.4552 61.7012 47.4544C61.3949 47.4636 61.0909 47.4005 60.8137 47.2702C60.5713 47.1562 60.3577 46.9891 60.1889 46.7813C60.0181 46.5709 59.8881 46.3306 59.8056 46.0727C59.719 45.7879 59.6759 45.4917 59.6778 45.194C59.6791 44.9144 59.7149 44.6359 59.7843 44.365C59.8501 44.09 59.9683 43.8303 60.1322 43.5997C60.3025 43.3606 60.5261 43.1641 60.7853 43.0258C61.0898 42.8689 61.4298 42.7932 61.7722 42.8061C62.0457 42.8048 62.3157 42.8679 62.5602 42.9903C62.7999 43.1188 62.9953 43.3164 63.1211 43.5572V42.9124H63.831V47.0505C63.8904 47.6578 63.718 48.2651 63.3483 48.7511ZM62.3969 46.7104C62.5651 46.6144 62.7066 46.478 62.8087 46.3136C62.9181 46.1391 62.9973 45.9475 63.043 45.7467C63.1422 45.3465 63.1422 44.9282 63.043 44.528C62.9981 44.3436 62.9212 44.1685 62.8158 44.0107C62.7114 43.8443 62.564 43.7091 62.3891 43.6193C62.2142 43.5295 62.0182 43.4884 61.8218 43.5005C61.6224 43.4912 61.4239 43.5317 61.2441 43.6183C61.0644 43.7049 60.9091 43.8349 60.7924 43.9965C60.6994 44.1517 60.6345 44.322 60.6007 44.4996C60.549 44.7035 60.5228 44.9129 60.5226 45.1232C60.5228 45.328 60.5442 45.5322 60.5865 45.7326C60.6207 45.93 60.6905 46.1197 60.7924 46.2923C60.8912 46.4545 61.0275 46.5906 61.19 46.6892C61.3739 46.7994 61.5862 46.8536 61.8006 46.845C62.0109 46.8418 62.2167 46.7832 62.3969 46.675V46.7104Z" fill="#767676"/>
<path d="M64.8606 44.2491C64.9496 43.9723 65.0946 43.7167 65.2865 43.498C65.4825 43.2795 65.7251 43.1076 65.9965 42.995C66.6068 42.7491 67.2889 42.7491 67.8992 42.995C68.1694 43.1096 68.4116 43.2813 68.6091 43.498C68.7986 43.7173 68.9411 43.9729 69.028 44.2491C69.1095 44.5635 69.1407 44.8888 69.1203 45.2128C69.1215 45.5277 69.0736 45.8409 68.9783 46.1411C68.8862 46.4022 68.744 46.6429 68.5594 46.8497C68.3619 47.0665 68.1197 47.2381 67.8495 47.3528C67.2373 47.5887 66.559 47.5887 65.9468 47.3528C65.6755 47.2401 65.4329 47.0682 65.2369 46.8497C65.0498 46.6435 64.9051 46.4028 64.8109 46.1411C64.7179 45.8405 64.6724 45.5274 64.676 45.2128C64.6854 44.8838 64.7478 44.5584 64.8606 44.2491ZM65.6273 45.9214C65.694 46.1164 65.7977 46.2969 65.9326 46.4529C66.0567 46.5951 66.2123 46.7067 66.387 46.7788C66.5595 46.8537 66.7455 46.8924 66.9336 46.8924C67.1217 46.8924 67.3078 46.8537 67.4803 46.7788C67.6529 46.703 67.8077 46.592 67.9347 46.4529C68.0699 46.2982 68.1714 46.1173 68.2328 45.9214C68.3074 45.6925 68.3457 45.4535 68.3464 45.2128C68.3449 44.9722 68.3066 44.7333 68.2328 44.5042C68.1714 44.3084 68.0699 44.1274 67.9347 43.9728C67.81 43.8294 67.6547 43.7156 67.4803 43.6398C67.3078 43.5649 67.1217 43.5262 66.9336 43.5262C66.7455 43.5262 66.5595 43.5649 66.387 43.6398C66.2105 43.712 66.0544 43.8263 65.9326 43.9728C65.7977 44.1288 65.694 44.3092 65.6273 44.5042C65.5561 44.7337 65.5202 44.9726 65.5208 45.2128C65.5194 45.4531 65.5553 45.6921 65.6273 45.9214Z" fill="#767676"/>
<path d="M71.1509 46.4648V47.4356H70.1782V46.4648H71.1509Z" fill="#767676"/>
<path d="M75.8503 48.7568C75.6353 48.9516 75.3828 49.1005 75.1081 49.1943C74.8334 49.2882 74.5423 49.3249 74.2528 49.3024C74.0355 49.303 73.8188 49.2792 73.6068 49.2316C73.3962 49.1915 73.1943 49.1148 73.0104 49.0048C72.8331 48.9046 72.6822 48.7637 72.5702 48.5938C72.4459 48.4121 72.3791 48.1974 72.3786 47.9774H73.0885C73.0859 48.1016 73.1288 48.2226 73.2092 48.3175C73.2914 48.4103 73.3901 48.4872 73.5003 48.5442C73.6198 48.6025 73.7462 48.6453 73.8766 48.6718C74.0042 48.6816 74.1323 48.6816 74.2599 48.6718C74.4753 48.6786 74.6893 48.6349 74.8847 48.5442C75.0511 48.4651 75.1951 48.3457 75.3036 48.197C75.421 48.0364 75.5033 47.8529 75.545 47.6585C75.5966 47.4259 75.6205 47.1881 75.616 46.9499V46.6523C75.4966 46.917 75.2916 47.1341 75.0338 47.2688C74.7753 47.3954 74.4911 47.4608 74.2031 47.4601C73.8969 47.4693 73.5928 47.4062 73.3157 47.2759C73.0723 47.1601 72.8568 46.9934 72.6838 46.7869C72.5177 46.5746 72.3903 46.3347 72.3075 46.0783C72.2209 45.7935 72.1779 45.4973 72.1797 45.1997C72.1811 44.92 72.2169 44.6416 72.2863 44.3707C72.3521 44.0957 72.4702 43.8359 72.6341 43.6054C72.8036 43.3681 73.0244 43.1719 73.2802 43.0314C73.5875 42.8754 73.9296 42.7999 74.2742 42.8118C74.5477 42.8105 74.8177 42.8736 75.0622 42.996C75.3019 43.1245 75.4973 43.322 75.6231 43.5629V42.918H76.333V47.0562C76.3924 47.6635 76.22 48.2708 75.8503 48.7568ZM74.8989 46.7161C75.0656 46.618 75.2066 46.4821 75.3107 46.3193C75.4201 46.1448 75.4993 45.9531 75.545 45.7524C75.6349 45.3511 75.6349 44.9349 75.545 44.5336C75.4971 44.3503 75.4204 44.1757 75.3178 44.0164C75.2134 43.8499 75.066 43.7147 74.8911 43.6249C74.7162 43.5351 74.5202 43.4941 74.3239 43.5062C74.1099 43.4987 73.8975 43.545 73.7062 43.6408C73.5441 43.7297 73.4035 43.8531 73.2944 44.0022C73.1818 44.1604 73.0999 44.3382 73.053 44.5265C73.0037 44.7307 72.9799 44.9401 72.982 45.1501C72.9822 45.3549 73.0036 45.5591 73.0459 45.7595C73.0801 45.957 73.1498 46.1466 73.2518 46.3193C73.3505 46.4814 73.4869 46.6175 73.6494 46.7161C73.8333 46.8263 74.0455 46.8805 74.2599 46.872C74.4868 46.8701 74.7085 46.8038 74.8989 46.6806V46.7161Z" fill="#767676"/>
<path d="M77.3704 44.2491C77.4595 43.9723 77.6044 43.7167 77.7964 43.498C77.9909 43.2778 78.2339 43.1056 78.5064 42.995C79.1167 42.7491 79.7988 42.7491 80.4091 42.995C80.6809 43.1067 80.9237 43.2788 81.119 43.498C81.3138 43.7147 81.4591 43.971 81.545 44.2491C81.6404 44.5518 81.6883 44.8673 81.687 45.1845C81.6882 45.4994 81.6403 45.8125 81.545 46.1127C81.4529 46.3754 81.3079 46.6166 81.119 46.8213C80.9237 47.0406 80.6809 47.2126 80.4091 47.3244C79.7969 47.5604 79.1186 47.5604 78.5064 47.3244C78.2339 47.2137 77.9909 47.0415 77.7964 46.8213C77.6093 46.6152 77.4646 46.3745 77.3704 46.1127C77.2775 45.8122 77.232 45.499 77.2355 45.1845C77.232 44.8676 77.2775 44.5521 77.3704 44.2491ZM78.1301 45.9214C78.1968 46.1164 78.3004 46.2969 78.4354 46.4529C78.5583 46.5933 78.7111 46.7047 78.8826 46.7788C79.057 46.8556 79.2459 46.8943 79.4364 46.8922C79.6247 46.8944 79.8112 46.8557 79.9831 46.7788C80.1546 46.7047 80.3074 46.5933 80.4303 46.4529C80.5678 46.2986 80.6717 46.1177 80.7356 45.9214C80.8076 45.6921 80.8435 45.4531 80.8421 45.2128C80.8428 44.9726 80.8068 44.7337 80.7356 44.5042C80.6717 44.308 80.5678 44.127 80.4303 43.9728C80.3097 43.8281 80.1564 43.7139 79.9831 43.6398C79.8112 43.5629 79.6247 43.5242 79.4364 43.5264C79.2459 43.5243 79.057 43.5629 78.8826 43.6398C78.7093 43.7139 78.556 43.8281 78.4354 43.9728C78.3004 44.1288 78.1968 44.3092 78.1301 44.5042C78.0589 44.7337 78.023 44.9726 78.0236 45.2128C78.0222 45.4531 78.0581 45.6921 78.1301 45.9214Z" fill="#767676"/>
<path d="M83.7529 47.4329L82.0703 42.9121H82.9081L84.1789 46.6818L85.4497 42.9121H86.2306L84.5765 47.4329H83.7529Z" fill="#767676"/>
<path d="M87.3877 46.4648V47.4356H86.415V46.4648H87.3877Z" fill="#767676"/>
<path d="M89.2547 46.4315C89.3247 46.5416 89.4195 46.6338 89.5316 46.7008C89.6511 46.7679 89.7804 46.8157 89.9149 46.8425C90.0599 46.871 90.2073 46.8852 90.3551 46.885H90.7243C90.8465 46.868 90.9659 46.8346 91.0792 46.7858C91.1861 46.7428 91.2793 46.6718 91.349 46.5803C91.4232 46.4801 91.4608 46.3576 91.4555 46.2331C91.459 46.1483 91.4405 46.064 91.402 45.9883C91.3635 45.9126 91.3061 45.8481 91.2355 45.8009C91.0676 45.6914 90.8829 45.6101 90.6888 45.5599C90.4687 45.4962 90.2273 45.4395 89.9788 45.3899C89.7367 45.342 89.4991 45.2733 89.2689 45.1844C89.0605 45.0989 88.8738 44.9682 88.7222 44.8017C88.5584 44.6036 88.4794 44.349 88.5021 44.0932C88.4954 43.8883 88.5498 43.6861 88.6583 43.5121C88.7563 43.3517 88.8899 43.216 89.0488 43.1153C89.2167 43.0076 89.4015 42.9286 89.5955 42.8815C89.7936 42.837 89.9958 42.8132 90.1989 42.8106C90.4371 42.8091 90.6748 42.8305 90.9089 42.8744C91.1109 42.9133 91.3037 42.9902 91.4768 43.1011C91.6465 43.2114 91.7857 43.3625 91.8815 43.5405C91.9919 43.7605 92.0501 44.003 92.0519 44.249H91.3419C91.3376 44.1205 91.2984 43.9956 91.2284 43.8877C91.1678 43.7916 91.085 43.7114 90.987 43.6538C90.8824 43.5956 90.7701 43.5526 90.6533 43.5263C90.5345 43.5001 90.4129 43.4882 90.2912 43.4909H89.9575C89.85 43.5088 89.7451 43.5397 89.6451 43.583C89.5567 43.6238 89.479 43.6844 89.418 43.7601C89.3528 43.8397 89.3198 43.9409 89.3257 44.0436C89.325 44.1038 89.3372 44.1634 89.3617 44.2185C89.3863 44.2735 89.4224 44.3226 89.4677 44.3624C89.5668 44.4541 89.6825 44.5262 89.8085 44.575C89.9634 44.6336 90.1224 44.6809 90.2841 44.7167L90.8095 44.8301C90.9941 44.8726 91.1787 44.9222 91.3561 44.9789C91.5263 45.0308 91.6869 45.1098 91.8318 45.2127C91.9659 45.3099 92.0794 45.4327 92.1655 45.5741C92.2559 45.7414 92.3 45.9297 92.2933 46.1197C92.3076 46.3675 92.2483 46.614 92.1229 46.8283C92.0111 47.0083 91.8577 47.159 91.6756 47.2676C91.481 47.3779 91.2701 47.4568 91.0509 47.5015C90.8167 47.5447 90.579 47.5661 90.3409 47.5652C90.1022 47.5645 89.8642 47.5383 89.631 47.4873C89.4153 47.4379 89.2107 47.349 89.0275 47.2251C88.8503 47.1052 88.7043 46.9449 88.6015 46.7574C88.4939 46.5364 88.4358 46.2946 88.4312 46.0489H89.1766C89.1697 46.181 89.1965 46.3126 89.2547 46.4315Z" fill="#767676"/>
<path d="M96.4681 48.7568C96.2532 48.9516 96.0006 49.1005 95.7259 49.1943C95.4512 49.2882 95.1602 49.325 94.8707 49.3024C94.6534 49.3026 94.4367 49.2788 94.2247 49.2316C94.0148 49.189 93.8134 49.1124 93.6283 49.0048C93.4526 48.9025 93.3021 48.7621 93.1881 48.5938C93.0699 48.4093 93.0037 48.1963 92.9964 47.9774H93.7064C93.7094 48.1019 93.7544 48.2217 93.8342 48.3175C93.9149 48.4119 94.0139 48.489 94.1253 48.5442C94.2423 48.6025 94.3664 48.6454 94.4944 48.6718C94.622 48.6816 94.7502 48.6816 94.8778 48.6718C95.0932 48.6786 95.3072 48.6349 95.5026 48.5442C95.6703 48.4672 95.8148 48.3475 95.9215 48.197C96.0389 48.0364 96.1211 47.8529 96.1629 47.6585C96.217 47.4262 96.2432 47.1884 96.2409 46.9499V46.6523C96.1239 46.9186 95.9182 47.1364 95.6588 47.2688C95.4031 47.396 95.1209 47.4616 94.8352 47.4601C94.5289 47.4701 94.2247 47.4069 93.9478 47.2759C93.7031 47.1621 93.4872 46.9951 93.3159 46.7869C93.1451 46.5766 93.015 46.3363 92.9325 46.0784C92.8459 45.7935 92.8029 45.4973 92.8047 45.1997C92.8061 44.92 92.8419 44.6416 92.9113 44.3707C92.9771 44.0957 93.0952 43.8359 93.2591 43.6054C93.4313 43.3679 93.6545 43.1719 93.9123 43.0314C94.2171 42.8754 94.5568 42.7998 94.8991 42.8118C95.175 42.8096 95.4475 42.8728 95.6943 42.996C95.9317 43.1275 96.1263 43.3243 96.2551 43.5629V42.9181H96.9651V47.0562C97.024 47.6657 96.8461 48.2745 96.4681 48.7568ZM95.5168 46.7161C95.6855 46.6183 95.829 46.4824 95.9357 46.3193C96.0397 46.1429 96.1164 45.9518 96.1629 45.7524C96.2133 45.5459 96.2395 45.3343 96.2409 45.1218C96.2423 44.9235 96.2184 44.7259 96.1699 44.5336C96.1245 44.3507 96.0502 44.1761 95.9498 44.0164C95.8438 43.8634 95.7057 43.7352 95.5452 43.6408C95.3615 43.545 95.156 43.4986 94.9488 43.5062C94.7372 43.4996 94.5274 43.5459 94.3383 43.6408C94.1728 43.7277 94.0294 43.8513 93.9194 44.0022C93.809 44.1608 93.7295 44.3386 93.6851 44.5265C93.6334 44.7304 93.6072 44.9398 93.607 45.1501C93.6072 45.3549 93.6286 45.5591 93.6709 45.7595C93.7107 45.9565 93.7827 46.1456 93.8839 46.3193C93.9799 46.4811 94.1139 46.6173 94.2744 46.7161C94.4605 46.8273 94.6753 46.8815 94.892 46.872C95.1143 46.869 95.3311 46.8026 95.5168 46.6807V46.7161Z" fill="#767676"/>
<path d="M33.3598 28.4625L39.8417 30.1843C39.9597 30.2162 40.0674 30.278 40.1545 30.3636C40.2416 30.4493 40.305 30.5559 40.3386 30.6732L42.1206 36.7671V40.6572C42.1206 41.283 41.8716 41.8832 41.4282 42.3257C40.9848 42.7682 40.3835 43.0168 39.7565 43.0168H25.5574C24.3052 43.0112 23.1062 42.5108 22.2227 41.625C21.3392 40.7393 20.8432 39.5404 20.8433 38.2906V20.6822C20.8451 19.4299 21.3449 18.2296 22.2328 17.3448C23.1206 16.4599 24.324 15.963 25.5787 15.963H37.3852C38.0085 15.9592 38.6264 16.0785 39.2034 16.314C39.7803 16.5495 40.3049 16.8965 40.747 17.3351C41.1891 17.7737 41.5399 18.2952 41.7793 18.8696C42.0187 19.4441 42.1419 20.06 42.1419 20.6822V22.2127H29.4621C28.8345 22.2127 28.2324 22.4611 27.7879 22.9034C27.3434 23.3457 27.0927 23.9459 27.0909 24.5723V36.1223C27.0909 36.3102 27.1657 36.4904 27.2988 36.6233C27.432 36.7562 27.6125 36.8309 27.8008 36.8309H32.6498C32.8381 36.8309 33.0187 36.7562 33.1518 36.6233C33.285 36.4904 33.3598 36.3102 33.3598 36.1223V28.4625Z" fill="#384A51"/>
<path d="M31.8267 49.2061C30.5884 49.2042 29.4012 48.7124 28.5256 47.8384C27.6499 46.9644 27.1572 45.7796 27.1553 44.5436V43.0839H39.757C40.3997 43.0839 41.0162 42.8296 41.4713 42.3766C41.9265 41.9237 42.1831 41.3091 42.185 40.6676V29.1673C42.185 28.9667 42.1062 28.7742 41.9655 28.6311C41.8247 28.488 41.6333 28.4057 41.4324 28.402H33.2964V36.1185C33.2964 36.2902 33.2286 36.4549 33.1076 36.577C32.9866 36.699 32.8223 36.7685 32.6503 36.7704H27.8013C27.6293 36.7685 27.465 36.699 27.3441 36.577C27.2231 36.4549 27.1553 36.2902 27.1553 36.1185V24.5685C27.1571 23.9583 27.4008 23.3737 27.8331 22.9422C28.2654 22.5107 28.8513 22.2675 29.4626 22.2656H44.1232C45.3634 22.2675 46.5524 22.7601 47.4294 23.6354C48.3064 24.5107 48.7999 25.6973 48.8018 26.9352V44.5436C48.7999 45.7808 48.3061 46.9667 47.4289 47.8409C46.5517 48.7151 45.3628 49.2061 44.1232 49.2061H31.8267Z" fill="#8CA6AD"/>
<path d="M44.1226 22.3275C45.3465 22.3275 46.5203 22.8128 47.3857 23.6765C48.2511 24.5403 48.7373 25.7118 48.7373 26.9333V44.5417C48.7355 45.762 48.2485 46.9317 47.3832 47.7939C46.518 48.6562 45.3453 49.1404 44.1226 49.1404H31.8262C30.6035 49.1404 29.4309 48.6562 28.5656 47.7939C27.7004 46.9317 27.2134 45.762 27.2115 44.5417V43.1245H39.7564C40.4155 43.1245 41.0475 42.8632 41.5135 42.3981C41.9795 41.933 42.2413 41.3022 42.2413 40.6445V29.1654C42.2413 28.9491 42.1567 28.7414 42.0055 28.5865C41.8543 28.4316 41.6485 28.3419 41.4319 28.3363H33.2391V36.1308C33.2391 36.2868 33.177 36.4363 33.0665 36.5466C32.956 36.6569 32.8061 36.7189 32.6498 36.7189H27.8008C27.6445 36.7189 27.4946 36.6569 27.3841 36.5466C27.2736 36.4363 27.2115 36.2868 27.2115 36.1308V24.5666C27.2134 23.9721 27.4513 23.4026 27.8732 22.9829C28.295 22.5632 28.8664 22.3275 29.4621 22.3275H44.1226ZM44.1226 22.207H29.4621C28.8344 22.207 28.2324 22.4554 27.7879 22.8977C27.3434 23.34 27.0927 23.9402 27.0908 24.5666V36.1166C27.0908 36.3045 27.1656 36.4848 27.2988 36.6177C27.4319 36.7505 27.6125 36.8252 27.8008 36.8252H32.6498C32.8381 36.8252 33.0186 36.7505 33.1518 36.6177C33.2849 36.4848 33.3597 36.3045 33.3597 36.1166V28.4568H41.4319C41.6202 28.4568 41.8008 28.5314 41.9339 28.6643C42.0671 28.7972 42.1419 28.9774 42.1419 29.1654V40.6516C42.1419 40.9614 42.0807 41.2683 41.9619 41.5545C41.8431 41.8408 41.669 42.1009 41.4494 42.3201C41.2299 42.5392 40.9693 42.713 40.6824 42.8315C40.3956 42.9501 40.0882 43.0112 39.7777 43.0112H27.0908V44.5417C27.0927 45.794 27.5925 46.9943 28.4803 47.8791C29.3682 48.7639 30.5715 49.2609 31.8262 49.2609H44.1226C44.7442 49.2618 45.3598 49.1405 45.9343 48.9037C46.5087 48.667 47.0308 48.3195 47.4706 47.8812C47.9105 47.4429 48.2594 46.9223 48.4974 46.3493C48.7355 45.7763 48.8581 45.162 48.8581 44.5417V26.9333C48.859 26.3124 48.7371 25.6974 48.4995 25.1235C48.2618 24.5497 47.9131 24.0283 47.4732 23.5892C47.0333 23.1502 46.5109 22.8021 45.9359 22.5649C45.361 22.3277 44.7448 22.2061 44.1226 22.207Z" fill="#7F9DA5"/>
<path d="M220.291 73.9609H91.6333C83.4531 73.9609 75.6076 77.2023 69.8207 82.9727C64.0338 88.7431 60.779 96.5705 60.7715 104.735C60.7715 108.78 61.5697 112.785 63.1207 116.522C64.6716 120.26 66.9449 123.655 69.8107 126.515C75.5984 132.292 83.4482 135.537 91.6333 135.537H99.4428L109.077 145.153L118.711 135.537H220.235C224.292 135.545 228.311 134.753 232.062 133.209C235.813 131.664 239.222 129.396 242.094 126.535C244.966 123.674 247.244 120.276 248.799 116.536C250.353 112.795 251.153 108.785 251.153 104.735C251.146 96.5705 247.891 88.7431 242.104 82.9727C236.317 77.2023 228.472 73.9609 220.291 73.9609Z" fill="#384A51" stroke="black" stroke-linecap="round" stroke-linejoin="round"/>
<path d="M91.6899 93.4922H221.853" stroke="#F7C5A8" stroke-linecap="round" stroke-linejoin="round"/>
<path d="M91.6899 104.674H221.853" stroke="#F7C5A8" stroke-linecap="round" stroke-linejoin="round"/>
<path d="M91.6899 115.865H221.853" stroke="#F7C5A8" stroke-linecap="round" stroke-linejoin="round"/>
<path d="M182.941 124.561C184.982 123.929 186.055 121.545 185.337 119.235C184.62 116.925 182.383 115.564 180.342 116.196C178.301 116.828 177.228 119.212 177.946 121.522C178.664 123.832 180.9 125.193 182.941 124.561Z" fill="#E5B5A1"/>
<path d="M105.406 257.625C105.406 257.625 131.738 243.992 193.518 265.15C193.518 265.15 274.872 240.81 296.128 254.798L202.954 312.002L105.406 257.625Z" fill="#8CA6AD"/>
<path d="M153.605 176.369L131.028 225.418C127.756 231.086 128.132 240.766 130.489 243.883C133.591 247.979 140.272 248.425 147.883 248.213L185.319 250.459L186.391 235.713L144.07 231.568L174.726 187.182L153.605 176.369Z" fill="#E5B5A1"/>
<path d="M239.338 256.873L214.88 264.922C214.88 264.922 206.957 257.836 214.071 253.741C248.206 233.999 257.073 235.374 257.073 235.374C249.022 228.196 223.357 187.19 223.357 187.19L240.489 177.008L266.949 222.981C266.949 222.981 280.743 247.867 258.465 253.075L239.338 256.873Z" fill="#E5B5A1"/>
<path d="M164.857 205.89L143.615 194.723C143.615 194.723 147.946 182.783 152.369 172.275C155.656 164.48 157.296 159.775 184.367 152.803L213.745 153.143C217.933 153.596 219.424 154.454 224.216 155.552C238.905 158.911 251.905 195.233 251.905 195.233L234.568 205.862L230.663 204.997C230.102 207.747 234.766 266.935 234.766 266.935L159.341 268.494L164.857 205.89Z" fill="#FDF3E8"/>
<path d="M238.644 277.667L240.49 222.957H153.435L157.113 278.284L238.644 277.667Z" fill="black"/>
<path d="M191.112 249.725C191.112 250.88 191.455 252.009 192.098 252.969C192.741 253.929 193.654 254.678 194.723 255.12C195.792 255.562 196.968 255.677 198.103 255.452C199.238 255.227 200.28 254.671 201.098 253.854C201.917 253.038 202.474 251.997 202.7 250.865C202.925 249.732 202.809 248.558 202.367 247.491C201.924 246.424 201.174 245.512 200.212 244.871C199.25 244.229 198.119 243.887 196.962 243.887C195.41 243.887 193.922 244.502 192.825 245.597C191.728 246.692 191.112 248.177 191.112 249.725Z" fill="#FAFAFA"/>
<path d="M251.756 307.052C251.756 307.052 262.59 306.428 267.73 307.633C272.87 308.838 274.943 314.513 274.46 318.262C273.978 322.01 270.662 329.195 251.834 326.921L251.756 307.052Z" fill="#8CA6AD"/>
<path d="M144.269 302.012C142.375 301.861 140.471 302.165 138.717 302.897C136.964 303.629 135.411 304.769 134.188 306.221C130.035 311.181 133.365 317.729 137.504 319.805C141.643 321.881 144.191 322.264 151.703 321.548L144.269 302.012Z" fill="#8CA6AD"/>
<path d="M166.193 302.569C166.193 302.569 157.51 309.421 170.119 318.59C170.119 318.59 192.638 313.105 194.371 312.468L186.838 297.885L166.193 302.569Z" fill="#E5B5A1"/>
<path d="M215.222 318.016L230.613 322.813C230.613 322.813 247.546 317.902 232.282 304.964L217.089 302.838L215.222 318.016Z" fill="#E5B5A1"/>
<path d="M161.187 300.105C161.187 300.105 146.988 301.353 142.267 302.38C137.546 303.407 130.375 312.201 138.085 318.529C145.796 324.856 166.306 319.528 170.119 318.593L166.193 302.571L161.187 300.105Z" fill="#384A51"/>
<path d="M232.282 304.959C232.282 304.959 260.772 307.793 266.246 309.104C271.72 310.415 276.718 319.265 268.035 324.225C259.352 329.186 237.415 326.635 230.613 322.808L232.282 304.959Z" fill="#384A51"/>
<path d="M219.667 300.784C219.667 300.784 195.046 286.031 184.091 278.492C173.136 270.953 143.233 255.3 118.853 255.434C94.4734 255.569 93.9694 267.594 94.1753 271.123C94.4663 275.374 96.3051 290.963 113.614 296.228C126.705 300.21 208.457 319.434 214.662 320.242L219.667 300.784Z" fill="#8CA6AD"/>
<path d="M185.007 315.271L177.744 298.052C177.744 298.052 198.006 288.323 204.971 283.172C211.936 278.02 248.413 251.03 283.669 251.852C318.926 252.674 304.258 275.392 302.434 277.928C300.609 280.465 291.685 292.568 277.038 295.523C262.392 298.477 191.027 315.93 185.007 315.271Z" fill="#8CA6AD"/>
<path d="M101.005 259.09C101.005 259.09 134.174 236.99 213.59 297.113C213.59 297.113 145.64 238.492 101.005 259.09Z" fill="black"/>
<path d="M199.866 286.484C199.866 286.484 212.645 277.35 219.95 273.056C227.256 268.762 264.443 244.592 298.585 254.349C298.585 254.349 284.826 247.873 259.14 254.442C233.794 260.918 202.485 282.877 199.461 286.023L199.866 286.484Z" fill="black"/>
<path d="M219.041 303.199L214.647 320.248L188.457 314.522L214.093 319.546L219.041 303.199Z" fill="black"/>
<path fill-rule="evenodd" clip-rule="evenodd" d="M181.855 106.969C183.757 79.8938 217.686 85.1869 223.635 99.5146C225.765 104.588 227.427 119.759 222.862 133.654C219.567 143.702 209.813 145.226 209.813 145.226L210.054 153.02C210.054 153.02 206.504 163.146 195.677 161.629C181.478 159.652 182.266 153.594 182.266 153.594C182.266 153.594 181.194 116.365 181.855 106.969Z" fill="#E5B5A1"/>
<g style="mix-blend-mode:multiply">
<path fill-rule="evenodd" clip-rule="evenodd" d="M209.812 145.222C209.812 145.222 202.273 144.464 197.651 141.354C197.651 141.354 199.504 146.413 209.812 148.043V145.222Z" fill="#B28B67"/>
</g>
<path fill-rule="evenodd" clip-rule="evenodd" d="M211.46 130.103C211.46 130.103 208.741 132.293 206.611 129.508C208.117 130.234 209.822 130.443 211.46 130.103Z" fill="black"/>
<path fill-rule="evenodd" clip-rule="evenodd" d="M214.619 111.909C214.761 111.646 217.757 110.08 220.043 111.576C220.292 111.746 220.185 112.079 219.979 111.994C219.251 111.62 218.426 111.479 217.615 111.59C215.372 111.668 214.321 112.454 214.619 111.909Z" fill="black"/>
<path fill-rule="evenodd" clip-rule="evenodd" d="M198.95 111.946C199.12 111.677 202.62 110.04 205.19 111.507C205.481 111.67 205.339 112.01 205.105 111.925C204.255 111.563 203.323 111.438 202.407 111.564C199.851 111.691 198.588 112.528 198.95 111.946Z" fill="black"/>
<path fill-rule="evenodd" clip-rule="evenodd" d="M210.131 111.744C211.018 118.121 213.262 123.939 211.991 124.435C211.268 124.77 210.452 124.85 209.678 124.661C208.904 124.471 208.217 124.024 207.731 123.393C207.731 123.393 211.657 125.151 211.537 123.294C211.43 121.785 210.131 111.744 210.131 111.744Z" fill="black"/>
<path d="M216.855 115.984C217.667 115.984 218.324 115.328 218.324 114.518C218.324 113.707 217.667 113.051 216.855 113.051C216.043 113.051 215.385 113.707 215.385 114.518C215.385 115.328 216.043 115.984 216.855 115.984Z" fill="black"/>
<path d="M201.612 115.844C202.424 115.844 203.082 115.187 203.082 114.377C203.082 113.567 202.424 112.91 201.612 112.91C200.801 112.91 200.143 113.567 200.143 114.377C200.143 115.187 200.801 115.844 201.612 115.844Z" fill="black"/>
<g style="mix-blend-mode:multiply">
<path fill-rule="evenodd" clip-rule="evenodd" d="M211.622 124.274C213.39 122.772 210.152 123.679 208.605 123.644C207.057 123.608 211.26 124.572 211.622 124.274Z" fill="#B28B67"/>
</g>
<path d="M214.568 85.2894C214.568 85.2894 221.363 83.9927 225.757 92.3328C227.738 96.0883 227.539 102.799 224.465 104.584C221.923 106.051 213.617 99.8934 213.617 99.8934C202.123 108.163 202.549 99.8934 195.868 104.896C186.262 112.138 182.471 118.692 182.471 118.692C182.471 118.692 177.502 119.613 175.663 112.903C173.994 106.866 173.739 102.692 176.948 95.9679C186.39 76.2337 210.202 81.7465 214.568 85.2894Z" fill="black"/>
</svg>
