<svg width="50" height="50" viewBox="0 0 50 50" fill="none" xmlns="http://www.w3.org/2000/svg">
    <path d="M24.9999 8.33317C28.4458 8.33317 31.2499 11.1373 31.2499 14.5832H35.4166C35.4166 8.83942 30.7437 4.1665 24.9999 4.1665C19.2562 4.1665 14.5833 8.83942 14.5833 14.5832V18.7498H12.4999C10.202 18.7498 8.33325 20.6186 8.33325 22.9165V41.6665C8.33325 43.9644 10.202 45.8332 12.4999 45.8332H37.4999C39.7978 45.8332 41.6666 43.9644 41.6666 41.6665V22.9165C41.6666 20.6186 39.7978 18.7498 37.4999 18.7498H18.7499V14.5832C18.7499 11.1373 21.5541 8.33317 24.9999 8.33317ZM37.5041 41.6665H27.0833V36.9207C28.3228 36.1978 29.1666 34.8686 29.1666 33.3332C29.1666 31.0353 27.2978 29.1665 24.9999 29.1665C22.702 29.1665 20.8333 31.0353 20.8333 33.3332C20.8333 34.8665 21.677 36.1978 22.9166 36.9207V41.6665H12.4999V22.9165H37.4999L37.5041 41.6665Z" fill="#3C4950"/>
</svg>
