<svg width="24" height="24" viewBox="0 0 24 24" fill="none" xmlns="http://www.w3.org/2000/svg">
<path d="M10.998 16L15.998 12L10.998 8V11H1.99805V13H10.998V16Z" fill="#384A51"/>
<path d="M12.9988 2.99805C10.5938 2.99805 8.33377 3.93505 6.63477 5.63505L8.04877 7.04905C9.37077 5.72705 11.1288 4.99805 12.9988 4.99805C14.8688 4.99805 16.6268 5.72705 17.9488 7.04905C19.2708 8.37105 19.9998 10.129 19.9998 11.999C19.9998 13.869 19.2708 15.627 17.9488 16.949C16.6268 18.271 14.8688 19 12.9988 19C11.1288 19 9.37077 18.271 8.04877 16.949L6.63477 18.363C8.33377 20.063 10.5938 21 12.9988 21C15.4038 21 17.6638 20.063 19.3628 18.363C21.0628 16.664 21.9998 14.404 21.9998 11.999C21.9998 9.59405 21.0628 7.33405 19.3628 5.63505C17.6638 3.93505 15.4038 2.99805 12.9988 2.99805Z" fill="#384A51"/>
</svg>
