<svg xmlns="http://www.w3.org/2000/svg" width="24" height="24" fill="none" viewBox="0 0 24 24">
    <path fill="#384A51" d="M10 11H7.101l.001-.009c.065-.319.163-.634.291-.937.126-.297.281-.583.461-.85.178-.264.384-.513.61-.74.227-.226.476-.432.742-.611.266-.18.551-.334.848-.46.302-.128.617-.226.938-.291.658-.135 1.357-.135 2.018 0 .318.065.634.163.937.291.296.125.581.281.85.461.266.179.514.384.738.609l1.416-1.412c-.314-.316-.664-.604-1.036-.855-.373-.252-.773-.47-1.188-.646-.425-.18-.868-.317-1.315-.408-.923-.189-1.899-.189-2.819 0-.449.092-.892.229-1.316.409-.419.176-.819.393-1.191.645-.37.249-.718.537-1.036.854-.318.317-.605.666-.853 1.035-.252.373-.47.773-.646 1.19-.18.424-.317.867-.408 1.315-.028.135-.043.273-.063.41H2l4 4 4-4zm4 2h2.899l-.001.008c-.066.324-.164.639-.292.938-.123.293-.278.579-.459.848-.179.264-.385.514-.613.742-.225.225-.473.43-.739.61-.268.18-.553.335-.849.461-.303.128-.618.226-.938.291-.657.135-1.357.135-2.017 0-.319-.065-.634-.163-.937-.291-.297-.126-.583-.281-.85-.461-.264-.178-.513-.384-.74-.61L7.05 16.95c.317.317.666.605 1.035.854.373.252.773.47 1.19.646.424.18.867.317 1.315.408.461.094.935.142 1.41.142.475 0 .949-.048 1.408-.142.449-.091.893-.229 1.317-.409.415-.176.815-.393 1.188-.645.372-.251.722-.54 1.035-.854.317-.317.605-.666.855-1.037.254-.377.472-.777.645-1.187.178-.42.315-.863.408-1.316.027-.135.043-.273.063-.41H22l-4-4-4 4z"/>
</svg>
