<svg width="670" height="373" viewBox="0 0 670 373" fill="none" xmlns="http://www.w3.org/2000/svg">
<path d="M553.591 21.9574C553.591 21.9574 636.313 64.2819 582.333 127.985C528.353 191.688 481.389 205.793 562.704 245.126C644.02 284.458 613.18 377.665 454.751 364.407C296.321 351.149 320.849 272.917 205.886 284.458C90.9218 296 39.0396 242.134 64.2772 180.997C89.5148 119.86 182.049 110.027 264.068 115.585C346.087 121.144 386.914 95.8348 373.429 60.4245C357.305 18.1077 458.255 -28.4918 553.591 21.9574Z" fill="#FDF3E8"/>
<path d="M406.513 371.637H569.333H406.513Z" fill="#FFE8E8"/>
<path d="M406.513 371.637H569.333" stroke="#2B2E4A" stroke-width="1.11916" stroke-linecap="round"/>
<path d="M531.114 309.148C512.616 306.37 494.769 323.064 491.249 346.436C489.888 355.473 490.87 364.187 493.655 371.634H553.62C555.922 366.851 557.488 361.749 558.266 356.499C561.768 333.131 549.625 311.93 531.114 309.148Z" fill="#ED6663"/>
<path d="M520.944 309.545C506.476 312.829 494.126 327.423 491.263 346.425C489.902 355.463 490.884 364.177 493.669 371.623H541.361C543.663 366.84 545.229 361.738 546.007 356.488C549.4 334.009 538.274 313.528 520.944 309.545Z" fill="#FF847C"/>
<path fill-rule="evenodd" clip-rule="evenodd" d="M531.114 309.148C512.616 306.37 494.769 323.064 491.249 346.436C489.888 355.473 490.87 364.187 493.655 371.634H553.62C555.922 366.851 557.488 361.749 558.266 356.499C561.768 333.131 549.625 311.93 531.114 309.148Z" stroke="#2B2E4A" stroke-width="1.11916" stroke-linecap="round"/>
<path d="M558.191 340.243L517.75 370.833C517.634 370.924 517.471 370.922 517.357 370.828C517.243 370.734 517.211 370.574 517.279 370.443L544.642 315.2" stroke="#2B2E4A" stroke-width="1.11916" stroke-linecap="round"/>
<path d="M476.757 272.156C448.824 269.378 422.481 304.031 417.949 349.541C417.21 356.879 417.085 364.265 417.576 371.623H517.399C518.146 367.713 518.733 363.704 519.157 359.597C523.676 314.087 504.7 274.931 476.757 272.156Z" fill="#ED6663"/>
<path d="M463.134 273.73C440.708 281.13 421.747 311.551 417.949 349.541C417.21 356.879 417.085 364.265 417.576 371.623H496.584C497.334 367.713 497.92 363.704 498.342 359.597C502.464 318.109 487.057 281.91 463.134 273.73Z" fill="#FF847C"/>
<path fill-rule="evenodd" clip-rule="evenodd" d="M476.757 272.156C448.824 269.378 422.481 304.031 417.949 349.541C417.21 356.879 417.085 364.265 417.576 371.623H517.399C518.146 367.713 518.733 363.704 519.157 359.597C523.676 314.087 504.7 274.931 476.757 272.156Z" stroke="#2B2E4A" stroke-width="1.11916" stroke-linecap="round"/>
<path d="M495.483 280.326L467.874 370.728C467.856 370.782 467.879 370.841 467.928 370.869C467.978 370.898 468.041 370.887 468.078 370.844L516.629 318.358" stroke="#2B2E4A" stroke-width="1.11916" stroke-linecap="round"/>
<path d="M457.114 276.266L467.702 370.65C467.705 370.67 467.693 370.689 467.675 370.695C467.656 370.702 467.635 370.695 467.625 370.678L428.14 310.905" stroke="#2B2E4A" stroke-width="1.11916" stroke-linecap="round"/>
<path d="M518.324 355.336L467.723 370.823L417.439 356.443" stroke="#2B2E4A" stroke-width="1.11916" stroke-linecap="round"/>
<path d="M526.011 308.871L519.632 353.166" stroke="#2B2E4A" stroke-width="1.11916" stroke-linecap="round"/>
<path d="M517.754 370.833L557.133 361.982" stroke="#2B2E4A" stroke-width="1.11916" stroke-linecap="round"/>
<path d="M240.777 190.807C240.777 197.528 245.026 202.977 250.264 202.977H496.047C501.285 202.977 505.533 197.528 505.533 190.807V48.4851H240.777V190.807Z" fill="#FDF3E8"/>
<path fill-rule="evenodd" clip-rule="evenodd" d="M240.777 190.807C240.777 197.528 245.026 202.977 250.264 202.977H496.047C501.285 202.977 505.533 197.528 505.533 190.807V48.4851H240.777V190.807Z" stroke="#48426D" stroke-width="1.24522"/>
<path d="M496.059 22.596H250.275C247.758 22.5929 245.342 23.5898 243.56 25.367C241.779 27.1442 240.778 29.5559 240.778 32.0708V48.4851H505.545V32.0708C505.545 26.838 501.298 22.596 496.059 22.596Z" fill="#8BBAF1" stroke="#48426D" stroke-width="1.24522"/>
<path d="M252.484 40.9673C254.331 40.9673 255.828 39.4721 255.828 37.6278C255.828 35.7834 254.331 34.2882 252.484 34.2882C250.637 34.2882 249.14 35.7834 249.14 37.6278C249.14 39.4721 250.637 40.9673 252.484 40.9673Z" fill="#48426D"/>
<path d="M263.631 40.9673C265.477 40.9673 266.974 39.4721 266.974 37.6278C266.974 35.7834 265.477 34.2882 263.631 34.2882C261.784 34.2882 260.287 35.7834 260.287 37.6278C260.287 39.4721 261.784 40.9673 263.631 40.9673Z" fill="#48426D"/>
<path d="M274.781 40.9673C276.627 40.9673 278.124 39.4721 278.124 37.6278C278.124 35.7834 276.627 34.2882 274.781 34.2882C272.934 34.2882 271.437 35.7834 271.437 37.6278C271.437 39.4721 272.934 40.9673 274.781 40.9673Z" fill="#48426D"/>
<path d="M477.117 35.6787H493.283" stroke="#48426D" stroke-width="1.24522"/>
<rect x="274.724" y="131.158" width="17.7263" height="38.7074" rx="6.48447" fill="#8BBAF1" stroke="#48426D" stroke-width="1.24522"/>
<rect x="306.48" y="110.837" width="17.7263" height="59.028" rx="6.48447" fill="#8BBAF1" stroke="#48426D" stroke-width="1.24522"/>
<rect x="338.24" y="95.5298" width="17.7263" height="74.3356" rx="6.48447" fill="#8BBAF1" stroke="#48426D" stroke-width="1.24522"/>
<path d="M382.132 78.0737H373.424C372.515 78.0727 371.642 78.4331 370.999 79.0754C370.356 79.7177 369.995 80.5892 369.996 81.4975V166.442C369.995 167.349 370.356 168.22 370.998 168.862C371.64 169.504 372.512 169.865 373.42 169.865H384.299C386.192 169.865 387.727 168.332 387.727 166.442V81.4975C387.727 79.6066 386.192 78.0737 384.299 78.0737H382.132Z" fill="#6886C5"/>
<path d="M382.132 78.0737H373.424C372.515 78.0727 371.642 78.4331 370.999 79.0754C370.356 79.7177 369.995 80.5892 369.996 81.4975V163.148H380.349C382.242 163.148 383.777 161.615 383.777 159.724V78.0737H382.132Z" fill="#6886C5"/>
<path fill-rule="evenodd" clip-rule="evenodd" d="M382.132 78.0737H373.424C372.515 78.0727 371.642 78.4331 370.999 79.0754C370.356 79.7177 369.995 80.5892 369.996 81.4975V166.442C369.995 167.349 370.356 168.22 370.998 168.862C371.64 169.504 372.512 169.865 373.42 169.865H384.299C386.192 169.865 387.727 168.332 387.727 166.442V81.4975C387.727 79.6066 386.192 78.0737 384.299 78.0737H382.132Z" stroke="#48426D" stroke-width="1.24522" stroke-linecap="round"/>
<path d="M395.126 66.8564V171.819C395.126 175.368 392.246 178.245 388.692 178.245H270.593" stroke="#48426D" stroke-width="1.24522" stroke-linecap="round"/>
<path d="M270.609 180.707C271.971 180.707 273.075 179.605 273.075 178.245C273.075 176.885 271.971 175.782 270.609 175.782C269.248 175.782 268.144 176.885 268.144 178.245C268.144 179.605 269.248 180.707 270.609 180.707Z" fill="#48426D" stroke="#48426D" stroke-width="1.24522" stroke-linecap="round"/>
<rect opacity="0.63" x="437.543" y="70.1959" width="55.7404" height="9.7429" fill="#8F8AB0"/>
<rect opacity="0.63" x="419.149" y="90.5166" width="74.1339" height="9.74289" fill="#8F8AB0"/>
<rect opacity="0.63" x="419.149" y="110.837" width="74.1339" height="9.74289" fill="#8F8AB0"/>
<rect opacity="0.63" x="419.149" y="131.158" width="45.9857" height="9.7429" fill="#8F8AB0"/>
<path opacity="0.63" d="M427.09 176.395C431.247 176.395 434.617 173.029 434.617 168.877C434.617 164.725 431.247 161.359 427.09 161.359C422.933 161.359 419.563 164.725 419.563 168.877C419.563 173.029 422.933 176.395 427.09 176.395Z" fill="#8F8AB0"/>
<path d="M416.326 242.701C416.326 246.266 418.592 249.158 421.383 249.158H552.457C555.249 249.158 557.515 246.266 557.515 242.701V167.22H416.326V242.701Z" fill="#FDF3E8" stroke="#48426D" stroke-width="1.24522"/>
<path d="M552.457 153.414H421.383C418.59 153.416 416.327 155.676 416.325 158.465V167.22H557.515V158.465C557.513 155.676 555.249 153.416 552.457 153.414Z" fill="#8BBAF1" stroke="#48426D" stroke-width="1.24522"/>
<path d="M422.568 163.21C423.553 163.21 424.351 162.413 424.351 161.43C424.351 160.446 423.553 159.649 422.568 159.649C421.583 159.649 420.785 160.446 420.785 161.43C420.785 162.413 421.583 163.21 422.568 163.21Z" fill="#48426D"/>
<path d="M428.512 163.21C429.496 163.21 430.295 162.413 430.295 161.43C430.295 160.446 429.496 159.649 428.512 159.649C427.527 159.649 426.729 160.446 426.729 161.43C426.729 162.413 427.527 163.21 428.512 163.21Z" fill="#48426D"/>
<path d="M434.458 163.21C435.443 163.21 436.241 162.413 436.241 161.43C436.241 160.446 435.443 159.649 434.458 159.649C433.473 159.649 432.675 160.446 432.675 161.43C432.675 162.413 433.473 163.21 434.458 163.21Z" fill="#48426D"/>
<rect opacity="0.63" x="514.118" y="223.923" width="33.29" height="4.89824" fill="#8F8AB0"/>
<rect opacity="0.63" x="420.785" y="178.797" width="20.5101" height="4.89825" fill="#8F8AB0"/>
<rect opacity="0.63" x="508.768" y="232.234" width="38.6428" height="4.89825" fill="#8F8AB0"/>
<path d="M433.166 230.453C431.018 230.452 429.091 229.134 428.314 227.134C427.537 225.134 428.069 222.863 429.654 221.415L467.821 186.599L494.988 213.732L530.877 177.767C532.191 176.451 534.108 175.935 535.906 176.413C537.704 176.891 539.111 178.291 539.595 180.086C540.079 181.88 539.569 183.796 538.255 185.113L494.999 228.454L467.495 200.983L436.674 229.094C435.717 229.97 434.465 230.456 433.166 230.453Z" fill="#DBF6E9"/>
<path d="M527.622 188.95L491.736 224.915L466.237 199.447C465.302 198.516 463.8 198.483 462.825 199.371L429.956 229.35C431.958 230.913 434.798 230.805 436.674 229.094L467.495 200.983L494.999 228.454L534.7 188.674C532.632 186.902 529.545 187.023 527.622 188.95Z" fill="#9DDFD3"/>
<path d="M494.999 228.454L535.812 187.556C533.512 183.167 530.625 180.969 527.434 181.218L519.582 189.092C520.299 191.221 520.789 195.112 517.124 199.122C512.944 203.695 498.105 218.229 491.357 224.812L494.999 228.454Z" fill="#9DDFD3"/>
<path fill-rule="evenodd" clip-rule="evenodd" d="M433.166 230.453C431.018 230.452 429.091 229.134 428.314 227.134C427.537 225.134 428.069 222.863 429.654 221.415L467.821 186.599L494.988 213.732L530.877 177.767C532.191 176.451 534.108 175.935 535.906 176.413C537.704 176.891 539.111 178.291 539.595 180.086C540.079 181.88 539.569 183.796 538.255 185.113L494.999 228.454L467.495 200.983L436.674 229.094C435.717 229.97 434.465 230.456 433.166 230.453V230.453Z" stroke="#48426D" stroke-width="1.24522"/>
<path d="M511.02 182.29L537.381 174.064C538.563 173.697 539.851 174.006 540.738 174.869C541.624 175.732 541.967 177.01 541.629 178.2L534.129 204.499C533.806 205.635 532.91 206.519 531.769 206.828C530.628 207.137 529.408 206.826 528.554 206.008L509.693 187.935C508.834 187.11 508.474 185.894 508.746 184.735C509.018 183.576 509.883 182.647 511.02 182.29Z" fill="#9DDFD3" stroke="#48426D" stroke-width="1.24522"/>
<path d="M50.5601 195.735C50.5601 195.735 62.0633 216.512 80.6255 203.674C91.1739 195.548 80.3839 180.635 73.0296 182.676C65.6752 184.717 63.6315 190.837 57.5042 187.574C51.3769 184.311 46.883 190.837 50.5601 195.735Z" fill="#F7C5A8"/>
<path d="M57.5042 187.574C59.5172 188.646 61.0893 188.7 62.5541 188.225C62.2626 192.02 62.6538 198.114 67.3394 201.545C73.2098 205.846 81.6454 196.042 85.0158 194.743C85.1462 197.899 83.9384 201.12 80.6293 203.674C62.0748 216.512 50.5601 195.735 50.5601 195.735C46.883 190.837 51.3769 184.307 57.5042 187.574Z" fill="#FFBF8A"/>
<path fill-rule="evenodd" clip-rule="evenodd" d="M50.5601 195.735C50.5601 195.735 62.0633 216.512 80.6255 203.674C91.1739 195.548 80.3839 180.635 73.0296 182.676C65.6752 184.717 63.6315 190.837 57.5042 187.574C51.3769 184.311 46.883 190.837 50.5601 195.735Z" stroke="#48426D" stroke-width="1.24522"/>
<path d="M115.525 14.2776C115.525 14.2776 87.3772 11.4168 79.743 35.2341C72.5842 57.5807 87.6418 70.1614 65.4331 82.8839C32.9904 101.489 22.0318 172.477 120.295 175.813C192.336 174.384 192.815 110.056 171.822 91.9413C148.574 71.8886 145.583 62.8734 154.184 50.9629C162.784 39.0523 159.417 13.324 115.525 14.2776Z" fill="#F7C5A8"/>
<path d="M98.4246 173.718C23.9495 161.264 35.6329 99.957 65.4337 82.8954C87.6424 70.173 72.5848 57.5922 79.7436 35.2456C87.3778 11.4168 115.526 14.2777 115.526 14.2777C117.136 14.2432 118.685 14.247 120.185 14.2777C105.76 19.2832 83.1332 32.2277 89.7628 63.356C99.3066 108.164 55.4144 108.624 77.3586 151.031C83.4361 162.765 90.8594 169.754 98.4246 173.718Z" fill="#FFBF8A"/>
<path fill-rule="evenodd" clip-rule="evenodd" d="M115.525 14.2776C115.525 14.2776 87.3772 11.4168 79.743 35.234C72.5842 57.5807 87.6418 70.1614 65.4331 82.8839C32.9904 101.489 22.0318 172.477 120.295 175.813C192.336 174.384 192.815 110.056 171.822 91.9413C148.574 71.8886 145.583 62.8734 154.184 50.9629C162.784 39.0523 159.417 13.324 115.525 14.2776Z" stroke="#48426D" stroke-width="1.24522"/>
<path d="M120.108 14.2776V322.466V14.2776Z" fill="#8BBAF1"/>
<path d="M120.108 14.2776V322.466" stroke="#48426D" stroke-width="1.24522"/>
<path d="M120.107 243.6L77.3579 202.499L120.107 243.6Z" fill="#8BBAF1"/>
<path d="M120.107 243.6L77.3579 202.499" stroke="#48426D" stroke-width="1.24522"/>
<path d="M92.7383 19.0342L120.108 46.1718L92.7383 19.0342Z" fill="#8BBAF1"/>
<path d="M92.7383 19.0342L120.108 46.1718" stroke="#48426D" stroke-width="1.24522"/>
<path d="M154.169 50.9705L119.931 84.7681L154.169 50.9705Z" fill="#8BBAF1"/>
<path d="M154.169 50.9705L119.931 84.7681" stroke="#48426D" stroke-width="1.24522"/>
<path d="M135.564 16.1848L119.931 31.4004L135.564 16.1848Z" fill="#8BBAF1"/>
<path d="M135.564 16.1848L119.931 31.4004" stroke="#48426D" stroke-width="1.24522"/>
<path d="M76.4033 72.4133L120.108 113.836L76.4033 72.4133Z" fill="#8BBAF1"/>
<path d="M76.4033 72.4133L120.108 113.836" stroke="#48426D" stroke-width="1.24522"/>
<path d="M47.3044 102.91L120.108 170.064L47.3044 102.91Z" fill="#8BBAF1"/>
<path d="M47.3044 102.91L120.108 170.064" stroke="#48426D" stroke-width="1.24522"/>
<path d="M175.637 95.7595L119.82 146.24L175.637 95.7595Z" fill="#8BBAF1"/>
<path d="M175.637 95.7595L119.82 146.24" stroke="#48426D" stroke-width="1.24522"/>
<path d="M98.9251 123.701C114.454 122.897 207.492 116.459 263.926 75.1593C273.719 74.4469 282.101 102.408 282.101 102.408C282.101 102.408 193.749 134.306 98.8944 128.247C97.729 128.161 96.8137 127.215 96.7663 126.049C96.7229 124.809 97.6842 123.763 98.9251 123.701Z" fill="#FF847C"/>
<path opacity="0.82" d="M282.113 102.416C282.113 102.416 275.399 80.0613 266.978 75.8295C264.846 75.8295 263.044 76.1282 261.806 76.6797C261.23 77.0856 260.655 77.4916 260.065 77.8937C256.411 82.1064 265.816 91.0259 232.994 106.586C196.947 123.701 98.9252 126.742 96.9121 126.804C97.2306 127.629 97.9994 128.195 98.883 128.255C193.749 134.314 282.113 102.416 282.113 102.416Z" fill="#ED6663"/>
<path fill-rule="evenodd" clip-rule="evenodd" d="M98.9251 123.701C114.454 122.897 207.492 116.459 263.926 75.1593C273.719 74.4469 282.101 102.408 282.101 102.408C282.101 102.408 193.749 134.306 98.8944 128.247C97.729 128.161 96.8137 127.215 96.7663 126.049V126.049C96.7229 124.809 97.6842 123.763 98.9251 123.701Z" stroke="#2B2E4A" stroke-width="1.24522" stroke-linecap="round"/>
<path d="M256.223 62.8083L315.809 58.5956C316.736 58.5255 317.624 58.9796 318.109 59.7717C318.594 60.5637 318.594 61.5603 318.11 62.3526L287.204 112.882C286.754 113.613 285.955 114.059 285.096 114.059C284.236 114.059 283.438 113.613 282.987 112.882L254.29 66.5768C253.834 65.8401 253.797 64.9191 254.193 64.1483C254.588 63.3776 255.358 62.8694 256.223 62.8083Z" fill="#FF847C"/>
<path opacity="0.82" d="M315.81 58.5956L314.583 58.6836C310.104 67.2393 300.135 84.1783 286.331 95.5757C277.972 100.29 260.641 62.7202 254.195 66.3968L254.291 66.5768L282.987 112.894C283.438 113.625 284.237 114.07 285.096 114.07C285.956 114.07 286.754 113.625 287.205 112.894L318.095 62.364C318.584 61.5737 318.589 60.5762 318.107 59.7814C317.625 58.9867 316.738 58.5287 315.81 58.5956Z" fill="#ED6663"/>
<path fill-rule="evenodd" clip-rule="evenodd" d="M256.223 62.8083L315.809 58.5956C316.736 58.5255 317.624 58.9796 318.109 59.7717C318.594 60.5637 318.594 61.5603 318.11 62.3526L287.204 112.882C286.754 113.613 285.955 114.059 285.096 114.059C284.236 114.059 283.438 113.613 282.987 112.882L254.29 66.5768C253.834 65.8401 253.797 64.9191 254.193 64.1483C254.588 63.3776 255.358 62.8694 256.223 62.8083Z" stroke="#2B2E4A" stroke-width="1.24522" stroke-linecap="round"/>
<path d="M69.7121 371.486H42.1659C42.1659 371.486 35.264 353.414 47.9174 354.253C60.5709 355.091 39.3016 330.443 47.6299 323.27C55.9581 316.097 65.153 322.408 68.3125 330.163C71.472 337.919 79.8156 331.883 79.8156 331.883C79.8156 331.883 77.2313 304.63 86.1347 302.624C95.0381 300.617 103.389 310.367 101.649 334.181C109.977 318.973 122.27 312.39 127.04 326.728C131.81 341.067 118.88 353.973 118.88 353.973C118.88 353.973 137.837 332.457 145.307 338.769C152.776 345.08 143.255 361.146 143.255 361.146C143.255 361.146 166.81 348.236 166.235 371.486H69.7121Z" fill="#9DDFD3" stroke="#48426D" stroke-width="1.24522"/>
<path d="M59.6891 371.486C59.6891 371.486 35.5593 353.414 43.8914 338.493C52.2235 323.572 64.8578 344.805 64.8578 344.805C64.8578 344.805 48.1974 305.216 64.8578 297.756C81.5182 290.296 90.9967 338.493 90.9967 338.493C90.9967 338.493 90.7092 302.348 107.101 302.635C123.493 302.922 112.538 341.078 112.538 341.078C112.538 341.078 126.614 320.995 135.805 325.583C144.996 330.171 135.805 350.258 131.495 353.127C127.186 355.995 147.581 339.929 152.753 345.084C157.926 350.239 148.152 368.323 143.551 371.479L59.6891 371.486Z" fill="#DBF6E9"/>
<path d="M111.104 318.984C113.689 331.622 111.104 343.947 111.104 343.947C111.104 343.947 112.036 342.415 113.405 339.883C112.841 340.626 112.527 341.078 112.527 341.078C112.527 341.078 123.455 302.934 107.082 302.635C102.144 302.547 98.7233 305.775 96.3459 310.329C96.3498 310.329 108.516 306.381 111.104 318.984Z" fill="#BAE9E0"/>
<path d="M124.954 359.028C128.851 355.679 132.388 351.932 135.506 347.849C139.379 340.722 142.565 328.961 135.805 325.583C133.121 324.25 130.053 325.005 127.017 326.732C127.017 326.732 137.527 331.887 131.783 346.52C129.267 352.935 126.863 356.754 124.954 359.028Z" fill="#BAE9E0"/>
<path d="M90.9967 338.493C90.9967 338.493 81.5219 290.296 64.8577 297.756C61.6599 299.188 59.6928 301.808 58.5962 305.098C70.6016 300.912 81.8172 318.747 90.9967 338.493Z" fill="#BAE9E0"/>
<path d="M65.1454 346.528C64.6249 345.093 63.9835 343.704 63.2282 342.376C59.551 337.275 50.3983 326.824 43.8837 338.493C42.7351 340.536 42.1329 342.841 42.1353 345.184C42.3231 345.096 56.5985 337.972 65.1454 346.528Z" fill="#BAE9E0"/>
<path d="M152.753 345.092C150.993 343.338 147.476 344.035 143.769 345.609C143.88 345.609 151.249 345.199 142.411 359.725C137.269 368.174 119.597 370.786 105.582 371.487H143.542C148.155 368.331 157.921 350.258 152.753 345.092Z" fill="#BAE9E0"/>
<path fill-rule="evenodd" clip-rule="evenodd" d="M59.6891 371.486C59.6891 371.486 35.5593 353.414 43.8914 338.493C52.2235 323.572 64.8578 344.805 64.8578 344.805C64.8578 344.805 48.1974 305.216 64.8578 297.756C81.5182 290.296 90.9967 338.493 90.9967 338.493C90.9967 338.493 90.7092 302.348 107.101 302.635C123.493 302.922 112.538 341.078 112.538 341.078C112.538 341.078 126.614 320.995 135.805 325.583C144.996 330.171 135.805 350.258 131.495 353.127C127.186 355.995 147.581 339.929 152.753 345.084C157.926 350.239 148.152 368.323 143.551 371.479L59.6891 371.486Z" stroke="#48426D" stroke-width="1.24522"/>
<path d="M1 371.682H509.178H1Z" fill="#DEB097"/>
<path d="M1 371.682H509.178" stroke="#2B2E4A" stroke-width="1.24522" stroke-linecap="round"/>
<path d="M262.051 114.741C252.339 89.9475 237.776 88.6569 236.303 90.4914C234.831 92.3258 241.085 97.473 238.508 96.0024C235.931 94.5318 232.99 94.5356 237.039 97.8407C263.385 118.387 247.239 155.555 232.028 147.578C233.527 154.984 234.267 166.141 228.577 175.684C265.809 175.409 269.896 134.763 262.051 114.741Z" fill="#DEB097"/>
<path d="M262.051 114.741C255.272 97.3925 246.069 91.5521 240.701 90.2385C256.851 98.0627 266.848 123.94 253.608 150.013C249.313 158.466 241.502 161.824 232.833 162.778C232.352 167.328 230.914 171.726 228.615 175.684C265.809 175.408 269.896 134.763 262.051 114.741Z" fill="#D2A186"/>
<path fill-rule="evenodd" clip-rule="evenodd" d="M262.051 114.741C252.339 89.9475 237.776 88.6569 236.303 90.4914C234.831 92.3258 241.085 97.473 238.508 96.0024C235.931 94.5318 232.99 94.5356 237.039 97.8407C263.385 118.387 247.239 155.555 232.028 147.578C233.527 154.984 234.267 166.141 228.577 175.684C265.809 175.409 269.896 134.763 262.051 114.741Z" stroke="#2B2E4A" stroke-width="1.24522" stroke-linecap="round"/>
<path d="M137.173 342.076C133.822 339.337 132.745 335.565 132.522 332.467C128.251 334.495 123.875 336.297 119.412 337.863C119.853 341.505 120.977 345.99 123.63 350.153C126.288 347.284 130.513 344.507 137.173 342.076Z" fill="#D2A186" stroke="#2B2E4A" stroke-width="1.24522" stroke-linecap="round"/>
<path d="M118.96 371.182C121.146 367.352 115.95 358.379 123.619 350.145C120.977 345.982 119.853 341.497 119.401 337.855C117.357 338.579 115.252 339.284 113.063 339.954C106.456 344.733 117.737 373.326 118.96 371.182Z" fill="#2B2E4A" stroke="#2B2E4A" stroke-width="1.24522" stroke-linecap="round"/>
<path d="M227.842 240.392C223.064 181.992 160.732 213.629 168.171 229.948C168.171 229.948 202.811 298.834 132.511 332.467C132.734 335.58 133.811 339.337 137.163 342.076C141.059 340.685 145.061 339.608 149.13 338.855C193.34 330.349 232.627 298.799 227.842 240.392Z" fill="#DBF6E9"/>
<path d="M227.841 240.392C227.514 235.801 226.658 231.263 225.288 226.869C214.839 218.172 204.31 211.201 195.172 206.885C182.113 208.521 169.72 217.283 167.81 225.057C168.025 227.806 168.617 230.512 169.57 233.1C169.927 233.958 170.337 234.98 170.763 236.164C173.236 241.908 177.611 249.281 185.172 258.418C206.047 283.637 181.223 321.023 133.895 337.947C134.67 339.548 135.789 340.958 137.174 342.076C141.07 340.685 145.072 339.608 149.141 338.855C193.34 330.349 232.627 298.799 227.841 240.392Z" fill="#9DDFD3"/>
<path fill-rule="evenodd" clip-rule="evenodd" d="M227.842 240.392C223.064 181.992 160.732 213.629 168.171 229.948C168.171 229.948 202.811 298.834 132.511 332.467C132.734 335.58 133.811 339.337 137.163 342.076C141.059 340.685 145.061 339.608 149.13 338.855C193.34 330.349 232.627 298.799 227.842 240.392Z" stroke="#2B2E4A" stroke-width="1.24522" stroke-linecap="round"/>
<path d="M302.117 338.981C304.364 330.418 307.485 319.775 308.033 305.789C310.974 216.877 236.671 193.366 236.671 193.366C199.888 186.017 171.932 201.447 181.863 228.267C191.794 255.086 219.014 251.414 262.419 268.682C292.021 280.459 292.538 313.766 289.873 337.139C293.776 338.619 297.951 339.247 302.117 338.981Z" fill="#DBF6E9"/>
<path d="M181.33 209.761C179.263 215.016 179.263 221.251 181.863 228.267C191.794 255.075 219.014 251.414 262.419 268.682C292.02 280.459 292.538 313.766 289.873 337.139C291.49 337.75 293.158 338.217 294.858 338.533C295.579 326.102 296.342 308.144 294.808 286.686C291.867 245.535 236.322 245.535 241.84 227.532C247.358 209.528 236.69 193.366 236.69 193.366C209.577 193.133 191.759 199.992 181.33 209.761Z" fill="#9DDFD3"/>
<path fill-rule="evenodd" clip-rule="evenodd" d="M302.117 338.981C304.364 330.418 307.485 319.775 308.033 305.789C310.974 216.877 236.671 193.366 236.671 193.366C199.888 186.017 171.932 201.447 181.863 228.267C191.794 255.086 219.014 251.414 262.419 268.682C292.021 280.459 292.538 313.766 289.873 337.139C293.776 338.619 297.951 339.247 302.117 338.981Z" stroke="#2B2E4A" stroke-width="1.24522" stroke-linecap="round"/>
<path d="M132.189 154.831C123.953 149.297 118.366 131.979 131.108 120.252C135.889 115.844 134.049 112.903 131.108 112.535C128.167 112.168 110.141 120.988 111.982 150.013C112.772 162.521 118.477 171.46 125.828 176.986C124.52 166.761 129.225 158.741 132.189 154.831Z" fill="#DEB097"/>
<path d="M117.917 122.784C114.106 128.666 111.176 137.444 111.974 150.013C112.764 162.521 118.469 171.46 125.82 176.986C125.422 173.831 125.567 170.63 126.249 167.523C117.875 158.531 111.226 140.906 117.917 122.784Z" fill="#D2A186"/>
<path d="M183.699 114.374L188.243 115.66C188.487 115.703 188.684 115.885 188.746 116.125C188.808 116.365 188.724 116.619 188.531 116.775L187.047 117.989" fill="#2B2E4A"/>
<path d="M183.699 114.374L188.243 115.66C188.487 115.703 188.684 115.885 188.746 116.125C188.808 116.365 188.724 116.619 188.531 116.775L187.047 117.989" stroke="#2B2E4A" stroke-width="1.24522" stroke-linecap="round"/>
<path fill-rule="evenodd" clip-rule="evenodd" d="M132.189 154.831C123.953 149.297 118.366 131.979 131.108 120.252C135.889 115.844 134.049 112.903 131.108 112.535C128.167 112.168 110.141 120.988 111.982 150.013C112.772 162.521 118.477 171.46 125.828 176.986C124.52 166.761 129.225 158.741 132.189 154.831Z" stroke="#2B2E4A" stroke-width="1.24522" stroke-linecap="round"/>
<path d="M160.18 178.3C171.583 165.811 177.101 137.153 174.156 135.682C174.156 135.682 154.662 138.991 143.995 152.951C140.571 157.428 136.092 157.443 132.201 154.831C129.244 158.741 124.532 166.761 125.839 176.986C137.438 185.726 153.175 185.952 160.18 178.3Z" fill="#8F8AB0"/>
<path d="M165.387 170.859C164.963 168.812 164.184 166.855 163.086 165.076C163.086 165.076 150.214 158.462 141.384 172.057C138.623 176.312 131.591 173.275 126.234 167.523C125.552 170.63 125.407 173.83 125.805 176.986C137.423 185.726 153.159 185.952 160.145 178.3C162.168 176.025 163.926 173.528 165.387 170.859Z" fill="#48426D"/>
<path fill-rule="evenodd" clip-rule="evenodd" d="M160.18 178.3C171.583 165.811 177.101 137.153 174.156 135.682C174.156 135.682 154.662 138.991 143.995 152.951C140.571 157.428 136.092 157.443 132.201 154.831C129.244 158.741 124.532 166.761 125.839 176.986C137.438 185.726 153.175 185.952 160.18 178.3Z" stroke="#2B2E4A" stroke-width="1.24522" stroke-linecap="round"/>
<path d="M171.564 133.848C171.564 133.848 197.312 126.131 209.083 141.561C220.855 156.991 202.829 171.322 236.671 193.366C244.394 197.039 230.049 237.822 175.609 234.513C159.056 233.043 138.09 161.767 171.564 133.848Z" fill="#8F8AB0"/>
<path d="M237.519 194.017C234.244 196.962 229.498 214.951 195.839 217.98C155.011 221.657 155.26 161.656 155.26 161.656C147.856 194.488 162.929 233.387 175.609 234.513C227.776 237.684 243.125 200.375 237.519 194.017Z" fill="#48426D"/>
<path d="M168.998 134.579C168.998 134.579 197.323 126.131 209.094 141.561C220.866 156.991 202.84 171.322 236.682 193.366C244.405 197.039 230.06 237.822 175.62 234.513C163.35 233.426 148.89 197.089 154.592 165.026" stroke="#2B2E4A" stroke-width="1.24522" stroke-linecap="round"/>
<path d="M176.863 106.251C176.863 106.251 178.416 112.639 185.061 114.917C191.706 117.196 189.087 138.459 173.232 135.215C157.377 131.971 165.725 107.093 176.863 106.251Z" fill="#DEB097"/>
<path d="M182.12 113.462C179.593 111.73 177.738 109.184 176.863 106.251C165.724 107.093 157.373 131.941 173.232 135.2C174.969 135.582 176.762 135.638 178.519 135.365C180.494 131.631 177.231 127.77 174.919 125.683C172.392 123.385 177.081 124.293 179.194 124.488C181.307 124.683 181.878 121.723 180.022 118.414C179.133 116.813 180.502 114.971 182.12 113.462Z" fill="#D2A186"/>
<path fill-rule="evenodd" clip-rule="evenodd" d="M176.863 106.251C176.863 106.251 178.416 112.639 185.061 114.917C191.706 117.196 189.087 138.459 173.232 135.215C157.377 131.971 165.725 107.093 176.863 106.251Z" stroke="#2B2E4A" stroke-width="1.24522" stroke-linecap="round"/>
<path d="M179.275 92.4828C179.275 92.4828 187.71 95.1636 185.709 102.249C183.355 110.571 173.232 112.206 177.373 118.809C181.514 125.411 179.037 126.353 174.401 121.895C169.766 117.438 167.373 122.926 171.457 126.491C175.54 130.057 177.062 134.94 173.895 137.214C170.728 139.489 152.806 135.395 153.956 120.578C155.214 104.24 169.677 111.36 169.294 101.475C163.358 86.1943 179.275 92.4828 179.275 92.4828Z" fill="#2B2E4A"/>
<path opacity="0.65" d="M174.402 121.895C178.75 126.077 181.204 125.511 178.071 119.98C176.219 119.682 173.508 118.946 171.196 119.525C166.783 120.628 171.58 128.333 162.197 127.261C152.814 126.188 155.099 115.193 155.099 115.193C154.443 116.93 154.055 118.756 153.949 120.609C152.799 135.426 170.736 139.535 173.888 137.245C177.04 134.955 175.533 130.083 171.449 126.522C167.366 122.96 169.766 117.441 174.402 121.895Z" fill="#2B2E4A"/>
<path fill-rule="evenodd" clip-rule="evenodd" d="M179.275 92.4828C179.275 92.4828 187.71 95.1636 185.709 102.249C183.355 110.571 173.232 112.206 177.373 118.809C181.514 125.411 179.037 126.353 174.401 121.895C169.766 117.438 167.373 122.926 171.457 126.491C175.54 130.057 177.062 134.94 173.895 137.214C170.728 139.489 152.806 135.395 153.956 120.578C155.214 104.24 169.677 111.36 169.294 101.475C163.358 86.1943 179.275 92.4828 179.275 92.4828Z" stroke="#2B2E4A" stroke-width="1.24522" stroke-linecap="round"/>
<path d="M299.954 355.227C299.237 350.631 300.434 345.385 302.117 338.981C297.951 339.247 293.776 338.619 289.874 337.139C289.157 343.439 288.206 349.011 287.535 353.258C290.296 354.132 295.15 355.38 299.954 355.227Z" fill="#DEB097"/>
<path d="M294.839 338.533C293.139 338.217 291.471 337.75 289.854 337.139C289.137 343.439 288.186 349.011 287.515 353.259C289.668 353.939 291.867 354.461 294.095 354.821C293.965 351.853 294.383 346.262 294.839 338.533Z" fill="#D2A186"/>
<path fill-rule="evenodd" clip-rule="evenodd" d="M299.954 355.227C299.237 350.631 300.434 345.385 302.117 338.981C297.951 339.247 293.776 338.619 289.874 337.139C289.157 343.439 288.206 349.011 287.535 353.258C290.296 354.132 295.15 355.38 299.954 355.227Z" stroke="#2B2E4A" stroke-width="1.24522" stroke-linecap="round"/>
<path d="M313.555 370.083C304.51 365.437 300.825 360.803 299.955 355.227C295.154 355.38 290.296 354.132 287.535 353.259C287.044 356.349 286.699 358.735 286.699 360.152C286.714 370.818 317.228 372.656 313.555 370.083Z" fill="#2B2E4A" stroke="#2B2E4A" stroke-width="1.24522" stroke-linecap="round"/>
<path d="M191.426 166.179C206.426 172.973 218.681 175.753 228.589 175.684C234.268 166.141 233.528 155.004 232.04 147.578C231.748 147.425 231.457 147.26 231.166 147.072C208.359 130.907 185.307 132.274 185.307 132.274" fill="#8F8AB0"/>
<path d="M191.425 166.179C206.426 172.973 218.68 175.753 228.588 175.684C230.887 171.726 232.325 167.328 232.806 162.778C214.727 164.769 192.906 156.306 191.395 161.767C191.197 162.483 191.063 163.214 190.992 163.954L191.425 166.179Z" fill="#48426D"/>
<path d="M191.426 166.179C206.426 172.973 218.681 175.753 228.589 175.684C234.268 166.141 233.528 155.004 232.04 147.578C231.748 147.425 231.457 147.26 231.166 147.072C208.359 130.907 185.307 132.274 185.307 132.274" stroke="#2B2E4A" stroke-width="1.24522" stroke-linecap="round"/>
<path d="M180.659 117.9C181.264 117.9 181.755 117.41 181.755 116.805C181.755 116.201 181.264 115.71 180.659 115.71C180.053 115.71 179.562 116.201 179.562 116.805C179.562 117.41 180.053 117.9 180.659 117.9Z" fill="#2B2E4A"/>
<path d="M188.473 123.952C187.236 125.226 185.354 125.633 183.699 124.986" stroke="#2B2E4A" stroke-width="1.24522" stroke-linecap="round"/>
<path d="M487.17 371.678H669" stroke="#2B2E4A" stroke-width="1.12594" stroke-linecap="round"/>
<path d="M565.761 337.001C568.273 309.836 572.09 275.372 584.045 267.595C604.214 254.47 593.937 180.849 560.514 192.509C560.514 192.509 525.37 253.249 551.346 334.44C551.529 334.938 551.71 335.45 551.887 335.966C555.551 336.97 560.153 337.526 565.761 337.001Z" fill="#D5CDE0"/>
<path d="M578.981 195.522C573.828 193.538 567.658 194.145 560.513 198.614C560.513 198.614 554.707 200.14 553.485 224.863C552.262 249.587 563.569 260.575 558.68 279.804C553.79 299.033 566.625 331.693 551.957 335.966H551.911C555.578 336.958 560.162 337.514 565.76 336.989C568.272 309.823 572.089 275.36 584.044 267.583C585.086 266.893 586.034 266.073 586.865 265.141C587.355 264.371 587.918 263.649 588.546 262.986C599.018 247.407 595.009 208.466 578.981 195.522Z" fill="#8F8AB0"/>
<path d="M549.513 361.91C540.956 359.469 533.927 360.079 533.927 360.995C533.927 361.91 551.652 374.12 560.208 371.678C562.922 370.902 564.035 355.672 565.761 337.001C560.153 337.526 555.551 336.97 551.887 335.972C555.814 347.577 557.7 364.245 549.513 361.91Z" fill="#F0BFA4"/>
<path d="M560.208 371.678C562.921 370.903 564.034 355.672 565.76 337.001C562.196 337.36 558.599 337.248 555.064 336.668C557.365 339.11 560.406 343.475 560.214 349.396C559.908 358.858 560.519 371.983 549.823 367.099C542.712 363.852 538.44 361.013 536.105 360.281C534.919 360.397 534.171 360.613 533.984 360.867C533.966 360.909 533.948 360.949 533.932 360.995C533.926 361.911 551.651 374.12 560.208 371.678Z" fill="#EAB292"/>
<path fill-rule="evenodd" clip-rule="evenodd" d="M565.761 337.001C568.273 309.836 572.09 275.372 584.045 267.595C604.214 254.47 593.937 180.849 560.514 192.509C560.514 192.509 525.37 253.249 551.346 334.44C551.529 334.938 551.71 335.45 551.887 335.966C555.551 336.97 560.153 337.526 565.761 337.001Z" stroke="#2B2E4A" stroke-width="1.12594" stroke-linecap="round"/>
<path fill-rule="evenodd" clip-rule="evenodd" d="M549.513 361.91C540.956 359.469 533.927 360.079 533.927 360.995C533.927 361.91 551.652 374.12 560.208 371.678C562.922 370.902 564.035 355.672 565.761 337.001C560.153 337.526 555.551 336.97 551.887 335.972C555.814 347.577 557.7 364.245 549.513 361.91Z" stroke="#2B2E4A" stroke-width="1.12594" stroke-linecap="round"/>
<path d="M568.154 189.457C563.163 182.977 561.253 177.315 560.547 173.496C557.403 173.225 553.962 162.353 556.235 152.219C558.408 146.673 558.375 137.873 553.485 142.757C548.901 147.335 531.177 179.079 560.819 198.003C565.003 200.711 569.355 197.536 573.276 191.392C571.039 191.49 569.263 190.913 568.154 189.457Z" fill="#F0BFA4"/>
<path d="M568.154 189.457C566.203 186.952 564.528 184.246 563.157 181.383C559.795 182.418 550.933 184.1 546.762 174.806C545.217 171.385 544.433 167.671 544.464 163.918C542.835 175.026 545.503 188.224 560.819 198.003C565.003 200.711 569.355 197.536 573.275 191.392C571.038 191.49 569.263 190.913 568.154 189.457Z" fill="#EAB292"/>
<path fill-rule="evenodd" clip-rule="evenodd" d="M568.154 189.457C563.163 182.977 561.253 177.315 560.547 173.496C557.403 173.225 553.962 162.353 556.235 152.219C558.408 146.673 558.375 137.873 553.485 142.757C548.901 147.335 531.177 179.079 560.819 198.003C565.003 200.711 569.355 197.536 573.276 191.392C571.039 191.49 569.263 190.913 568.154 189.457Z" stroke="#2B2E4A" stroke-width="1.12594" stroke-linecap="round"/>
<path d="M581.379 134.397C581.379 134.397 564.486 135.431 564.486 162.292C563.942 170.557 562.289 173.649 560.547 173.496C561.253 177.315 563.163 182.977 568.153 189.457C569.263 190.897 571.038 191.49 573.275 191.392C584.817 173.313 592.619 129.522 581.379 134.397Z" fill="#8BBAF1" stroke="#2B2E4A" stroke-width="1.12594" stroke-linecap="round"/>
<path d="M613.076 248.976C622.244 212.654 623.338 192.222 623.338 192.222C621.987 184.918 604.825 194.34 597.185 190.678C589.545 187.015 567.848 209.297 570.598 255.691C572.716 291.403 595.284 318.785 611.704 334.379C615.484 332.941 620.386 330.625 624.319 327.227C614.491 306.106 606.885 273.504 613.076 248.976Z" fill="#D5CDE0"/>
<path d="M624.319 327.227C614.491 306.106 606.885 273.507 613.076 248.976C619.708 222.699 622.116 204.743 622.938 196.819C621.39 197.304 619.921 198.012 618.577 198.919C608.251 205.728 591.345 202.615 580.842 202.945C578.372 207.172 576.382 211.661 574.91 216.329C578.525 222.33 585.224 230.162 595.963 231.285C613.687 233.117 587.712 257.535 606.047 299.046C615.426 320.277 615.215 329.767 612.771 333.976C616.367 332.511 620.744 330.316 624.319 327.227Z" fill="#8F8AB0"/>
<path d="M622.549 371.678C626.015 371.678 648.219 353.364 638.746 347.565C634.281 344.888 629.043 337.382 624.319 327.227C620.386 330.625 615.484 332.941 611.704 334.379C616.615 339.049 620.978 342.66 624.077 345.123C637.523 355.806 619.084 371.678 622.549 371.678Z" fill="#F0BFA4"/>
<path fill-rule="evenodd" clip-rule="evenodd" d="M613.076 248.976C622.244 212.654 623.338 192.222 623.338 192.222C621.987 184.918 604.825 194.34 597.185 190.678C589.545 187.015 567.848 209.297 570.598 255.691C572.716 291.403 595.284 318.785 611.704 334.379C615.484 332.941 620.386 330.625 624.319 327.227C614.491 306.106 606.885 273.504 613.076 248.976Z" stroke="#2B2E4A" stroke-width="1.12594" stroke-linecap="round"/>
<path d="M638.746 347.565C634.281 344.888 629.043 337.382 624.319 327.227C622.735 328.575 621.032 329.777 619.23 330.817C621.712 334.419 627.393 342.266 632.023 345.733C638.135 350.312 635.43 360.079 625.627 365.121C623.39 369.007 621.128 371.678 622.549 371.678C626.015 371.678 648.219 353.364 638.746 347.565Z" fill="#EAB292"/>
<path fill-rule="evenodd" clip-rule="evenodd" d="M622.549 371.678C626.015 371.678 648.219 353.364 638.746 347.565C634.281 344.888 629.043 337.382 624.319 327.227C620.386 330.625 615.484 332.941 611.704 334.379C616.615 339.049 620.978 342.66 624.077 345.123C637.523 355.806 619.084 371.678 622.549 371.678Z" stroke="#2B2E4A" stroke-width="1.12594" stroke-linecap="round"/>
<path d="M586.489 132.684C586.489 132.684 619.188 132.074 623.161 179.995C624.383 206.855 619.493 221.2 601.463 221.506C583.433 221.811 557.152 213.265 556.235 202.582C556.235 196.477 572.126 179.079 572.126 156.187C572.126 133.295 586.489 132.684 586.489 132.684Z" fill="#8BBAF1"/>
<path d="M601.463 221.506C619.493 221.2 624.383 206.855 623.161 179.995C623.045 178.606 622.907 177.248 622.745 175.953C622.519 176.248 622.329 176.568 622.177 176.906C622.177 176.906 612.465 212.959 584.044 212.959C555.624 212.959 558.985 199.835 556.235 202.582C557.152 213.265 583.433 221.811 601.463 221.506Z" fill="#6886C5"/>
<path d="M591.99 153.745C591.99 153.745 607.27 166.26 598.713 178.774C598.528 179.046 598.324 179.305 598.102 179.549C602.585 182.812 609.626 189.579 609.987 200.07C626.642 192.228 621.395 168.021 621.395 168.021C621.395 168.021 615.827 135.126 586.795 132.684C585.267 136.652 578.85 148.556 591.99 153.745Z" fill="#8BBAF1"/>
<path d="M586.794 132.684C586.568 133.274 586.232 134.04 585.878 134.934C586.175 135.14 586.503 135.297 586.849 135.401C586.849 135.401 611.853 140.01 613.381 168.396C614.695 192.793 603.141 182.693 598.896 180.147C603.37 183.603 609.644 190.183 609.983 200.07C626.638 192.228 621.391 168.021 621.391 168.021C621.391 168.021 615.826 135.126 586.794 132.684Z" fill="#6886C5"/>
<path d="M586.489 132.684C586.489 132.684 619.188 132.074 623.161 179.995C624.383 206.855 619.493 221.2 601.463 221.506C583.433 221.811 557.152 213.265 556.235 202.582C556.235 196.477 572.126 179.079 572.126 156.187C572.121 154.441 572.214 152.697 572.404 150.961" stroke="#2B2E4A" stroke-width="1.12594" stroke-linecap="round"/>
<path d="M586.795 130.243C586.795 130.243 590.157 149.472 580.683 149.777C574.571 149.777 581.294 140.315 576.71 138.179C572.126 136.042 580.378 124.138 586.795 130.243Z" fill="#F0BFA4"/>
<path d="M581.905 136.347C580.469 136.347 578.803 137.785 577.34 138.572C580.185 140.919 576.261 147.61 578.932 149.356C578.932 149.356 578.241 143.364 581.905 142.146C585.569 140.929 584.044 136.347 581.905 136.347Z" fill="#EAB292"/>
<path fill-rule="evenodd" clip-rule="evenodd" d="M586.795 130.243C586.795 130.243 590.157 149.472 580.683 149.777C574.571 149.777 581.294 140.315 576.71 138.179C572.126 136.042 580.378 124.138 586.795 130.243Z" stroke="#2B2E4A" stroke-width="1.12594" stroke-linecap="round"/>
<path d="M564.486 119.865C564.486 119.865 569.07 122.917 568.764 130.853C568.458 138.789 578.543 141.536 583.127 137.263C587.711 132.99 588.322 125.359 588.322 125.359C588.322 125.359 590.767 116.202 584.349 115.286C577.932 114.371 564.486 111.624 564.486 119.865Z" fill="#F0BFA4"/>
<path d="M566.484 115.683C565.244 116.571 564.486 117.908 564.486 119.865C564.486 119.865 566.344 121.104 567.615 124.056C570.573 122.649 576.083 120.616 577.626 124.138C579.765 129.022 580.151 131.888 581.599 130.853C583.738 129.327 583.127 122.307 584.961 121.696C586.794 121.086 582.907 132.553 584.239 133.383C585.346 134.07 586.379 133.814 588.017 131.497C588.297 129.464 588.399 127.41 588.322 125.359C588.322 125.359 589.453 121.116 588.151 118.119C587.219 116.703 585.954 115.641 584.349 115.286C583.653 115.186 582.87 115.064 582.033 114.939C578.011 114.529 571.514 114.606 566.484 115.683Z" fill="#EAB292"/>
<path d="M588.322 125.359C588.322 125.359 590.767 116.202 584.349 115.286C577.932 114.371 564.486 111.624 564.486 119.865C564.486 119.865 569.07 122.917 568.764 130.853C568.458 138.789 578.543 141.536 583.127 137.263" stroke="#2B2E4A" stroke-width="1.12594" stroke-linecap="round"/>
<path d="M581.294 127.801C581.294 127.801 579.46 116.202 569.376 120.17C559.291 124.138 551.651 118.339 555.624 109.182C559.597 100.025 575.793 92.0892 588.017 103.383C600.241 114.676 588.017 132.99 586.489 132.684C584.961 132.379 588.017 121.086 585.572 121.391C583.127 121.696 583.127 130.243 581.294 127.801Z" fill="#2B2E4A"/>
<g opacity="0.92">
<path d="M584.912 121.708C583.931 120.665 582.873 119.441 581.599 120.182C579.97 121.098 580.82 123.634 580.377 124.785C580.793 125.758 581.1 126.773 581.294 127.813C582.944 129.998 583.109 123.29 584.912 121.708Z" fill="#48426D"/>
<path d="M588.017 103.383C575.794 92.0892 559.597 100.025 555.624 109.182C555.411 109.673 555.226 110.175 555.068 110.687C555.264 110.467 565.214 99.4513 576.71 103.077C588.323 106.74 588.418 122.612 586.841 122.917C586.74 122.936 586.636 122.936 586.535 122.917C586.804 125.969 585.343 132.449 586.499 132.684C588.017 132.99 600.241 114.676 588.017 103.383Z" fill="#48426D"/>
</g>
<path fill-rule="evenodd" clip-rule="evenodd" d="M581.294 127.801C581.294 127.801 579.46 116.202 569.376 120.17C559.291 124.138 551.651 118.339 555.624 109.182C559.597 100.025 575.793 92.0892 588.017 103.383C600.241 114.676 588.017 132.99 586.489 132.684C584.961 132.379 588.017 121.086 585.572 121.391C583.127 121.696 583.127 130.243 581.294 127.801Z" stroke="#2B2E4A" stroke-width="1.12594" stroke-linecap="round"/>
<path d="M564.181 162.148L552.629 164.389C551.892 164.535 551.135 164.259 550.664 163.674L535.583 144.866C535.149 144.322 535.032 143.59 535.275 142.937C535.519 142.285 536.087 141.807 536.772 141.68L548.323 139.436C549.062 139.293 549.819 139.569 550.291 140.153L565.369 158.962C565.806 159.506 565.924 160.239 565.68 160.892C565.436 161.545 564.867 162.022 564.181 162.148Z" fill="#D1E3F8" stroke="#2B2E4A" stroke-width="1.12594" stroke-linecap="round"/>
<path d="M547.037 140.956C546.566 140.371 545.807 140.095 545.069 140.242L536.011 142C535.558 142.311 535.254 142.797 535.174 143.341C535.093 143.884 535.243 144.437 535.587 144.866L550.668 163.674C551.138 164.259 551.896 164.535 552.633 164.389L561.693 162.63C562.147 162.319 562.45 161.833 562.531 161.29C562.612 160.746 562.462 160.193 562.118 159.764L547.037 140.956Z" fill="#6886C5"/>
<path d="M550.341 145.08L547.037 140.956C546.566 140.371 545.807 140.095 545.069 140.242L536.011 142C535.558 142.311 535.254 142.797 535.174 143.341C535.093 143.884 535.243 144.437 535.587 144.866L550.668 163.674C551.138 164.259 551.896 164.535 552.633 164.389L561.693 162.63C562.147 162.319 562.45 161.833 562.531 161.29C562.612 160.746 562.462 160.193 562.118 159.764" stroke="#2B2E4A" stroke-width="1.12594" stroke-linecap="round"/>
<path d="M598.102 179.549C588.968 189.481 563.811 151.233 561.125 148.862C558.374 146.42 553.79 145.504 553.485 150.693C553.179 155.882 556.235 149.777 558.374 155.577C563.875 175.416 576.71 205.023 601.769 202.276C604.611 202.002 607.387 201.256 609.983 200.07C609.623 189.579 602.582 182.812 598.102 179.549Z" fill="#F0BFA4"/>
<path d="M598.102 179.549C597.951 179.712 597.791 179.867 597.622 180.013C598.671 182.69 605.372 201.059 588.782 193.269C570.95 184.897 564.783 146.496 553.546 152.277C554.026 154.414 556.541 150.592 558.378 155.577C563.878 175.416 576.714 205.023 601.772 202.276C604.613 202.002 607.389 201.256 609.984 200.07C609.623 189.579 602.582 182.812 598.102 179.549Z" fill="#EAB292"/>
<path fill-rule="evenodd" clip-rule="evenodd" d="M598.102 179.549C588.968 189.481 563.811 151.233 561.125 148.862C558.374 146.42 553.79 145.504 553.485 150.693C553.179 155.882 556.235 149.777 558.374 155.577C563.875 175.416 576.71 205.023 601.769 202.276C604.611 202.002 607.387 201.256 609.983 200.07C609.623 189.579 602.582 182.812 598.102 179.549Z" stroke="#2B2E4A" stroke-width="1.12594" stroke-linecap="round"/>
<path d="M591.989 153.745C591.989 153.745 607.269 166.259 598.712 178.774C598.527 179.046 598.323 179.305 598.101 179.549C602.584 182.812 609.625 189.579 609.986 200.07C626.641 192.228 621.394 168.021 621.394 168.021" stroke="#2B2E4A" stroke-width="1.12594" stroke-linecap="round"/>
<path d="M571.472 125.539C571.472 125.539 572.132 128.897 571.402 130.392C570.671 131.888 572.655 131.918 574.225 130.896" stroke="#2B2E4A" stroke-width="1.12594" stroke-linecap="round"/>
<path d="M575.233 126.472C575.711 126.472 576.098 126.086 576.098 125.609C576.098 125.132 575.711 124.745 575.233 124.745C574.756 124.745 574.369 125.132 574.369 125.609C574.369 126.086 574.756 126.472 575.233 126.472Z" fill="#2B2E4A"/>
<path d="M569.324 127.855C569.802 127.855 570.189 127.469 570.189 126.992C570.189 126.515 569.802 126.128 569.324 126.128C568.847 126.128 568.46 126.515 568.46 126.992C568.46 127.469 568.847 127.855 569.324 127.855Z" fill="#2B2E4A"/>
<path d="M578.848 132.684C578.848 132.684 578.848 134.21 577.015 134.515" stroke="#2B2E4A" stroke-width="1.12594" stroke-linecap="round"/>
<path d="M638.746 347.565C637.665 346.89 636.667 346.092 635.77 345.187C633.863 347.186 630.449 348.667 627.852 349.573C633.047 359.716 619.543 371.678 622.55 371.678C626.015 371.678 648.22 353.364 638.746 347.565Z" fill="#2B2E4A"/>
<path d="M560.208 371.678C561.357 371.348 562.219 368.424 562.959 363.742C559.564 363.131 556.388 360.543 554.622 358.858C553.831 361.382 552.223 362.695 549.509 361.91C540.953 359.469 533.924 360.079 533.924 360.995C533.924 361.91 551.652 374.12 560.208 371.678Z" fill="#2B2E4A"/>
</svg>
