<svg width="25" height="30" viewBox="0 0 109 128" fill="none" xmlns="http://www.w3.org/2000/svg">
<path d="M11.5977 22.5243C10.1017 22.429 8.6022 22.643 7.19272 23.1531C5.78324 23.6632 4.49409 24.4583 3.40579 25.4888C2.31748 26.5193 1.45339 27.763 0.867482 29.1424C0.281573 30.5217 -0.0135725 32.007 0.000479158 33.5055V103.654C-0.00486177 105.143 0.33907 106.613 1.00468 107.945C1.67029 109.278 2.63904 110.436 3.83321 111.326C4.68908 111.94 5.63543 112.417 6.63823 112.74V33.859C6.62977 33.2167 6.75419 32.5797 7.00367 31.9877C7.25316 31.3958 7.62232 30.8618 8.088 30.4193C8.55368 29.9768 9.10583 29.6352 9.70979 29.4161C10.3137 29.197 10.9565 29.105 11.5977 29.146C12.9317 29.2314 14.1843 29.8173 15.1047 30.7865C16.0251 31.7556 16.5456 33.0364 16.5618 34.3727V118.198C16.5567 119.687 16.9002 121.157 17.5649 122.491C18.2296 123.824 19.197 124.983 20.3899 125.875C21.2549 126.488 22.2088 126.965 23.2185 127.289V34.7356C23.1793 31.6101 21.96 28.6149 19.8049 26.3503C17.6499 24.0856 14.7182 22.719 11.5977 22.5243Z" fill="white"/>
<path d="M23.1997 34.7356C23.1609 31.6131 21.9442 28.6205 19.7931 26.3563C17.6419 24.0922 14.7149 22.7235 11.5977 22.5242C10.4072 22.4606 9.21401 22.5847 8.06201 22.8918L88.4646 2.21126C100.722 -0.960577 108.59 7.74902 108.59 19.2487L108.557 95.7452C108.557 103.423 103.753 108.909 97.1436 110.511L32.0579 127.252C30.315 127.799 28.4894 128.035 26.6647 127.949C25.4907 127.892 24.3299 127.677 23.2138 127.308L23.1997 34.7356Z" fill="#48426D"/>
<path d="M90.8311 112.137C94.7298 111.142 97.1436 110.516 97.1436 110.516C103.744 108.913 108.557 103.446 108.557 95.7499L108.59 19.2534C108.59 12.5044 105.874 6.71684 101.16 3.72881C95.2013 -0.677835 86.8664 -0.871067 75.8679 1.5467L75.7642 1.57497C75.7642 1.57497 36.5694 11.4345 35.1692 11.9435C33.5287 12.528 32.7131 14.6865 33.3118 16.3879C33.3118 16.3879 35.471 15.8553 37.1728 15.3982C37.1728 15.3982 46.9314 14.1822 50.7265 19.8991C52.4566 22.5101 52.6688 24.6498 52.6688 28.7878V31.9125C52.2916 54.893 53.4608 80.6824 90.8311 67.2127V112.137Z" fill="white"/>
<path d="M88.6797 44.5017C90.5823 42.6494 90.5402 39.5213 88.5857 37.5148C86.6312 35.5083 83.5044 35.3832 81.6017 37.2355C79.6991 39.0878 79.7412 42.216 81.6957 44.2225C83.6502 46.229 86.7771 46.354 88.6797 44.5017Z" fill="#48426D"/>
</svg>
