<svg width="25" height="30" viewBox="0 0 25 30" fill="none" xmlns="http://www.w3.org/2000/svg">
<path fill-rule="evenodd" clip-rule="evenodd" d="M11.1513 11.1238L16.9223 12.6542C17.1359 12.7109 17.304 12.8748 17.3659 13.0866L18.9515 18.5073V21.9681C18.9515 23.1283 18.0083 24.0692 16.8452 24.0692H4.21247C1.88592 24.0692 0 22.1879 0 19.8671V4.20209C0 1.8817 1.88592 0 4.21247 0H14.739C17.0651 0 18.9515 1.8817 18.9515 4.20209V5.56231H7.68186C6.5188 5.56231 5.57563 6.50274 5.57563 7.66336V17.9358C5.57563 18.2842 5.8587 18.5661 6.2075 18.5661H10.5194C10.8682 18.5661 11.1513 18.2842 11.1513 17.9358V11.1238Z" fill="#8CA6AD"/>
<path fill-rule="evenodd" clip-rule="evenodd" d="M20.735 5.5625H7.68143C6.51837 5.5625 5.5752 6.50293 5.5752 7.66355V17.936C5.5752 18.2843 5.85827 18.5663 6.20707 18.5663H10.5189C10.8677 18.5663 11.1508 18.2843 11.1508 17.936V11.124H18.3192C18.668 11.124 18.951 11.4064 18.951 11.7543V21.9683C18.951 23.1289 18.0079 24.0694 16.8448 24.0694L5.5752 24.0698V25.4292C5.5752 27.7504 7.46112 29.6317 9.78809 29.6317H20.7355C23.0616 29.6317 24.9475 27.7504 24.9475 25.4296V9.76459C24.9475 7.44378 23.0616 5.5625 20.735 5.5625Z" fill="#DCE9EA"/>
</svg>
