<svg width="140" height="47" viewBox="0 0 280 94" fill="none" xmlns="http://www.w3.org/2000/svg">
<g clip-path="url(#clip0)">
<path d="M127.036 25.8523C127.036 17.6347 133.598 11.1952 141.953 11.2019C150.308 11.2086 156.856 17.6482 156.853 25.8791C156.849 34.1101 150.291 40.5429 141.939 40.5463C133.588 40.5496 127.033 34.0462 127.036 25.8523ZM147.571 25.8523C147.571 22.4913 145.212 20.0681 141.929 20.0681C138.694 20.0681 136.348 22.498 136.348 25.8455C136.348 29.193 138.687 31.623 141.923 31.6364C145.158 31.6499 147.571 29.2401 147.571 25.8791V25.8523Z" fill="#8F8AB0"/>
<path d="M121.422 39.723H112.143V20.8109L108.625 20.7908V11.9817H112.181C112.163 11.73 112.163 11.4773 112.181 11.2255C112.193 9.21974 112.679 7.24508 113.599 5.46152C115.237 2.43667 117.907 0.863749 121.199 0.302472C122.675 0.0604842 124.192 0.0974546 125.688 -1.2706e-05C125.871 -0.0110635 126.055 -0.0110635 126.238 -1.2706e-05V8.54686H126.15C124.657 8.57711 123.117 8.53006 122.049 9.87443C121.59 10.4592 121.472 11.1012 121.472 11.9817H126.238V20.8076C125.958 20.8076 121.422 20.8076 121.422 20.8076V39.723Z" fill="#8F8AB0"/>
<path d="M178.526 21.4832C177.429 21.5215 176.336 21.6236 175.251 21.789C172.12 22.4343 170.236 24.75 170.195 27.9463V39.7096H160.971V12.0289H170.172V16.6468C171.823 13.0674 174.708 11.5684 178.526 11.4071V21.4832Z" fill="#8F8AB0"/>
<path d="M189.405 34.7857C189.405 36.3269 188.791 37.8049 187.699 38.8947C186.606 39.9845 185.124 40.5967 183.578 40.5967C182.033 40.5967 180.551 39.9845 179.458 38.8947C178.365 37.8049 177.751 36.3269 177.751 34.7857C177.751 33.2445 178.365 31.7664 179.458 30.6766C180.551 29.5868 182.033 28.9746 183.578 28.9746C185.124 28.9746 186.606 29.5868 187.699 30.6766C188.791 31.7664 189.405 33.2445 189.405 34.7857Z" fill="#8F8AB0"/>
<path d="M251.616 86.524L259.256 82.1178C259.374 82.2556 259.462 82.3497 259.536 82.4539C260.496 83.7631 261.881 84.7003 263.456 85.1059C265.031 85.5115 266.698 85.3606 268.174 84.6789C268.876 84.3936 269.488 83.9228 269.942 83.317C270.396 82.7112 270.676 81.9933 270.752 81.2406C270.884 80.1315 270.779 78.9955 270.779 77.8125C270.686 77.8601 270.598 77.9176 270.516 77.9839C268.43 80.2223 265.798 81.0894 262.802 81.0087C259.822 80.9595 256.949 79.8997 254.654 78.0041C252.359 76.1084 250.78 73.4899 250.177 70.5797C249.102 65.6761 249.941 61.1523 253.241 57.2536C256.688 53.1768 262.654 51.6744 267.311 53.607C268.621 54.1919 269.816 55.0044 270.84 56.0067V53.5868L280.007 53.6506V80.2794C280.007 83.9764 278.884 87.2433 276.03 89.7606C274.245 91.315 272.08 92.3713 269.755 92.8224C265.228 93.7669 260.817 93.4711 256.631 91.3604C254.648 90.3739 252.988 88.8443 251.845 86.9509C251.771 86.8433 251.721 86.7122 251.616 86.524ZM264.918 72.687C268.4 72.687 270.83 70.3344 270.833 66.9331C270.836 63.5318 268.417 61.1691 264.942 61.1691C261.467 61.1691 259.031 63.5217 259.027 66.9264C259.024 70.331 261.44 72.6803 264.918 72.687Z" fill="#48426D"/>
<path d="M161.412 56.0505V42.4353H170.664V81.3348H161.433V78.8242C161.433 78.8242 161.183 79.1032 161.133 79.1603C158.666 81.7415 155.562 82.4439 152.155 82.0843C147.824 81.6306 144.524 79.4224 142.499 75.6515C139.341 69.7799 139.466 63.8613 143.19 58.2552C144.678 56.0381 146.847 54.3623 149.371 53.4799C151.896 52.5974 154.639 52.556 157.19 53.3617C158.549 53.7798 159.789 54.5162 160.806 55.5094C160.964 55.6337 161.119 55.7917 161.412 56.0505ZM161.412 67.4777C161.412 64.0159 159.165 61.5523 155.902 61.4448C152.347 61.3272 149.961 63.495 149.711 67.0643C149.529 69.632 150.722 71.9242 152.805 72.9224C156.232 74.5592 161.382 73.0299 161.406 67.4709L161.412 67.4777Z" fill="#48426D"/>
<path d="M118.24 70.9159C119.194 73.0736 120.913 73.9408 123.026 74.1861C125.308 74.4415 127.468 74.1357 129.291 72.5661L129.547 72.3477L136.288 77.0295C135.587 77.7017 134.98 78.3738 134.286 78.9452C131.842 80.9618 128.968 81.8591 125.86 82.0944C122.261 82.3666 118.783 81.8793 115.635 80.0409C110.937 77.3017 108.729 73.0871 108.625 67.7398C108.5 61.3204 112.059 55.9429 117.92 53.7852C123.542 51.7148 130.444 52.8139 134.539 57.8183C137.541 61.5154 138.354 65.7602 137.572 70.3815C137.511 70.6571 137.447 70.8521 137.447 70.8521L118.24 70.9159ZM128.718 64.4495C128.381 62.0968 126.062 60.5037 123.238 60.6213C120.657 60.7289 118.351 62.4799 118.237 64.4495H128.718Z" fill="#48426D"/>
<path d="M193.787 53.6273H202.998V81.3349H193.817V78.552C193.725 78.6998 193.621 78.8402 193.507 78.9721C191.215 81.6609 188.182 82.4406 184.839 82.0709C180.016 81.5332 176.835 78.3739 176.076 73.5442C175.891 72.3881 175.794 71.2196 175.786 70.0488C175.756 64.8192 175.76 53.5802 175.76 53.5802H185.024V68.5633C185.014 69.2995 185.1 70.0338 185.28 70.7479C185.799 72.6435 187.639 73.6719 189.884 73.3896C191.99 73.1241 193.281 71.9175 193.635 69.827C193.738 69.1868 193.788 68.5394 193.787 67.8911C193.787 63.4177 193.787 53.6273 193.787 53.6273Z" fill="#48426D"/>
<path d="M222.771 75.5304L230.808 71.4972C230.933 71.7392 231.031 71.9241 231.125 72.1123C231.628 73.1023 232.479 73.8729 233.515 74.2765C234.552 74.6802 235.701 74.6886 236.743 74.3003C236.998 74.231 237.226 74.0863 237.397 73.8854C237.568 73.6844 237.674 73.4365 237.701 73.1744C237.728 72.9205 237.663 72.6653 237.519 72.4545C237.374 72.2438 237.159 72.0915 236.912 72.0249C235.662 71.588 234.381 71.2384 233.124 70.8217C231.678 70.3444 230.205 69.9277 228.813 69.3227C222.292 66.4827 223.084 58.0972 227.711 55.0017C230.633 53.0524 233.862 52.5617 237.273 52.9079C240.036 53.1868 242.554 54.1044 244.529 56.1176C245.401 57.0049 246.099 58.0602 246.975 59.1693L239.045 62.7285C238.857 62.4462 238.708 62.1975 238.523 61.9522C238.144 61.3601 237.592 60.8972 236.943 60.6252C236.293 60.3532 235.576 60.285 234.886 60.4297C234.463 60.5077 234.072 60.7048 233.757 60.9977C233.65 61.101 233.569 61.2283 233.521 61.369C233.472 61.5097 233.458 61.6598 233.479 61.8071C233.5 61.9543 233.556 62.0945 233.642 62.2161C233.728 62.3378 233.841 62.4373 233.973 62.5067C234.519 62.8206 235.102 63.0645 235.709 63.2327C237.63 63.7872 239.601 64.1939 241.492 64.8392C244.104 65.7299 246.21 67.3061 246.942 70.0991C248.067 74.3339 246.898 78.8577 241.843 80.881C239.628 81.7973 237.25 82.2541 234.853 82.2235C232.456 82.1929 230.09 81.6755 227.9 80.7029C225.544 79.708 223.896 77.9133 222.771 75.5304Z" fill="#48426D"/>
<path d="M219.663 76.3943C219.618 77.9123 218.98 79.3526 217.884 80.4073C216.789 81.462 215.322 82.0473 213.8 82.038C212.277 82.0288 210.818 81.4258 209.735 80.358C208.653 79.2901 208.032 77.8421 208.005 76.3237C208.05 74.8057 208.689 73.3654 209.784 72.3107C210.88 71.256 212.346 70.6707 213.869 70.6799C215.392 70.6891 216.85 71.2921 217.933 72.36C219.016 73.4279 219.637 74.8758 219.663 76.3943Z" fill="#48426D"/>
<path d="M8.47595 16.4384C7.38238 16.369 6.28621 16.5253 5.25592 16.8974C4.22562 17.2695 3.28333 17.8495 2.48791 18.6011C1.69248 19.3527 1.061 20.2598 0.632916 21.2657C0.20483 22.2716 -0.0106683 23.3548 -0.000118861 24.4475V75.5977C-0.00340061 76.6841 0.248146 77.7563 0.734428 78.7285C1.22071 79.7007 1.92825 80.5461 2.80052 81.197C3.42651 81.6464 4.119 81.9957 4.85298 82.2322V24.7029C4.84833 24.2358 4.94033 23.7727 5.12325 23.3426C5.30616 22.9124 5.57605 22.5246 5.91605 22.2032C6.25605 21.8818 6.65886 21.6337 7.09932 21.4746C7.53977 21.3154 8.00841 21.2485 8.47595 21.2781C9.45109 21.3391 10.3671 21.7655 11.0402 22.4717C11.7134 23.1779 12.094 24.1118 12.1057 25.0861V86.2082C12.1024 87.2946 12.3539 88.3668 12.8402 89.339C13.3265 90.3112 14.034 91.1566 14.9063 91.8075C15.5332 92.2563 16.2254 92.6066 16.9588 92.846V25.3415C16.9302 23.0645 16.0405 20.8823 14.4676 19.2315C12.8948 17.5806 10.7548 16.5831 8.47595 16.4384Z" fill="#48426D"/>
<path d="M16.9587 25.3415C16.9302 23.0645 16.0404 20.8822 14.4676 19.2314C12.8947 17.5806 10.7547 16.583 8.47586 16.4383C7.60672 16.3923 6.7357 16.4818 5.89429 16.7039L64.674 1.62668C73.6287 -0.68901 79.385 5.65981 79.385 14.0622L79.3614 69.8538C79.3614 75.4565 75.8496 79.4526 71.0201 80.6256L23.4227 92.8124C22.1484 93.211 20.8136 93.3828 19.4796 93.3199C18.621 93.2773 17.772 93.1202 16.9553 92.8527L16.9587 25.3415Z" fill="#8F8AB0"/>
<path d="M66.3928 81.7852L71.01 80.6055C75.8395 79.4325 79.3513 75.4364 79.3513 69.8337L79.3749 14.0421C79.3749 9.12167 77.3932 4.90033 73.9421 2.71908C69.5878 -0.497342 63.4945 -0.641863 55.4531 1.12599L55.379 1.14616C55.379 1.14616 26.7323 8.33857 25.701 8.70491C24.5012 9.13175 23.9047 10.7047 24.3529 11.9482C24.3529 11.9482 25.9335 11.5584 27.1738 11.2223C27.1738 11.2223 34.3085 10.335 37.0822 14.5059C38.3494 16.4116 38.5044 17.971 38.5044 20.9892V23.2679C38.228 40.0255 39.0807 58.8333 66.4029 49.0127L66.3928 81.7852Z" fill="#48426D"/>
<path d="M65.3806 32.331C66.7727 30.979 66.7433 28.6972 65.3149 27.2344C63.8864 25.7716 61.5999 25.6817 60.2077 27.0337C58.8156 28.3857 58.845 30.6675 60.2734 32.1303C61.7018 33.5931 63.9884 33.683 65.3806 32.331Z" fill="#D5CDE0"/>
</g>
<defs>
<clipPath id="clip0">
<rect width="280" height="93.3333" fill="white"/>
</clipPath>
</defs>
</svg>
