<svg width="67" height="67" viewBox="0 0 67 67" fill="none" xmlns="http://www.w3.org/2000/svg">
<path d="M61.0323 4.24216V10.3842H1V4.24216C1 3.38229 1.34158 2.55763 1.94961 1.94961C2.55763 1.34158 3.38229 1 4.24216 1H61.0323" fill="#F7C5A8"/>
<path d="M61.0323 10.3843H1V57.0866H61.0323V10.3843Z" fill="#FDF3E8"/>
<path d="M7.00895 7.34163C7.79135 7.34163 8.42561 6.70737 8.42561 5.92496C8.42561 5.14256 7.79135 4.5083 7.00895 4.5083C6.22655 4.5083 5.59229 5.14256 5.59229 5.92496C5.59229 6.70737 6.22655 7.34163 7.00895 7.34163Z" fill="#FDF3E8"/>
<path d="M11.3727 7.34163C12.1551 7.34163 12.7894 6.70737 12.7894 5.92496C12.7894 5.14256 12.1551 4.5083 11.3727 4.5083C10.5903 4.5083 9.95605 5.14256 9.95605 5.92496C9.95605 6.70737 10.5903 7.34163 11.3727 7.34163Z" fill="#FDF3E8"/>
<path d="M15.737 7.34163C16.5194 7.34163 17.1536 6.70737 17.1536 5.92496C17.1536 5.14256 16.5194 4.5083 15.737 4.5083C14.9546 4.5083 14.3203 5.14256 14.3203 5.92496C14.3203 6.70737 14.9546 7.34163 15.737 7.34163Z" fill="#FDF3E8"/>
<path d="M1 57.0865V4.24216C1 3.38229 1.34158 2.55763 1.94961 1.94961C2.55763 1.34158 3.38229 1 4.24216 1H61.0323" stroke="black" stroke-width="0.5" stroke-miterlimit="10"/>
<path d="M1 10.3843H61.0323" stroke="black" stroke-width="0.5" stroke-miterlimit="10"/>
<path d="M65.4154 56.1358L40.3528 27.4888C37.7126 24.4809 34.3532 22.1911 30.5883 20.8333L22.7349 17.981L26.0341 27.7265C27.0117 30.6172 28.546 33.2884 30.5503 35.5894L55.6889 64.5977C56.3523 65.3592 57.1854 65.9542 58.121 66.3347C59.0565 66.7151 60.0684 66.8705 61.0749 66.7881C62.0815 66.7058 63.0547 66.3881 63.916 65.8606C64.7773 65.3332 65.5026 64.6107 66.0334 63.7515C66.7588 62.583 67.0902 61.2127 66.979 59.8419C66.8677 58.471 66.3197 57.172 65.4154 56.1358Z" fill="#FDF3E8"/>
<path d="M65.4154 56.1358L40.3528 27.4888C37.7126 24.4809 34.3532 22.1911 30.5883 20.8333L22.7349 17.981L28.1258 21.3752C28.392 22.1549 33.1364 24.3417 37.4529 28.9815C62.0972 55.185 66.0334 63.7515 66.0334 63.7515C66.7588 62.583 67.0902 61.2127 66.979 59.8419C66.8677 58.471 66.3197 57.172 65.4154 56.1358Z" fill="#F7C5A8"/>
<path d="M22.7349 18.0098L26.0341 27.7553C27.0117 30.646 28.546 33.3172 30.5503 35.6182L55.6889 64.598" stroke="black" stroke-width="0.5" stroke-miterlimit="10"/>
<path d="M22.7349 18.0098L24.8076 24.1423C26.4984 23.2138 27.93 21.877 28.972 20.2536L22.7349 18.0098Z" fill="black"/>
</svg>
