<svg width="720" height="900" viewBox="0 0 720 900" fill="none" xmlns="http://www.w3.org/2000/svg">
<rect width="720" height="900" fill="#2B2E4A"/>
<rect x="408.321" y="315" width="185.357" height="347.737" rx="17.2003" fill="#48426D" stroke="#48426D" stroke-width="1.25"/>
<rect x="387.905" y="315" width="185.357" height="347.737" rx="17.2003" fill="#8F8AB0" stroke="#48426D" stroke-width="1.25"/>
<rect x="402.796" y="333.397" width="155.571" height="310.526" rx="17.2003" fill="#D5CDE0"/>
<path d="M514.079 346.409H449.669C444.718 346.409 440.406 342.823 439.205 337.728L436.591 326.667H527.386L524.486 337.961C523.206 342.949 518.944 346.409 514.079 346.409Z" fill="#8F8AB0"/>
<rect opacity="0.47" x="436.66" y="368.065" width="106.113" height="56.2924" rx="13.0444" fill="#F9F9F9"/>
<rect opacity="0.47" x="481.83" y="480.65" width="60.9434" height="56.2924" rx="13.0444" fill="#F9F9F9"/>
<rect opacity="0.47" x="448.49" y="553.436" width="94.2829" height="12.9078" rx="6.45391" fill="#F9F9F9"/>
<rect opacity="0.47" x="448.49" y="578.176" width="94.2829" height="12.9078" rx="6.4539" fill="#F9F9F9"/>
<rect opacity="0.47" x="512.301" y="602.916" width="30.4716" height="12.9078" rx="6.4539" fill="#F9F9F9"/>
<rect opacity="0.47" x="436.66" y="434.756" width="106.113" height="25.9555" rx="12.9777" fill="#F9F9F9"/>
<path d="M182.836 404.768C182.836 410.302 186.373 414.789 190.727 414.789H395.423C399.783 414.789 403.313 410.302 403.313 404.768V287.587H182.836V404.768Z" fill="#D1E3F8" stroke="#2B2E4A" stroke-width="1.25"/>
<path d="M395.423 266H190.727C186.369 266 182.836 269.533 182.836 273.892V287.587H403.313V273.892C403.313 269.533 399.781 266 395.423 266Z" fill="#8BBAF1" stroke="#2B2E4A" stroke-width="1.25"/>
<path d="M192.583 281.32C194.121 281.32 195.368 280.073 195.368 278.534C195.368 276.996 194.121 275.749 192.583 275.749C191.045 275.749 189.798 276.996 189.798 278.534C189.798 280.073 191.045 281.32 192.583 281.32Z" fill="#2B2E4A"/>
<path d="M201.867 281.32C203.405 281.32 204.652 280.073 204.652 278.534C204.652 276.996 203.405 275.749 201.867 275.749C200.329 275.749 199.082 276.996 199.082 278.534C199.082 280.073 200.329 281.32 201.867 281.32Z" fill="#2B2E4A"/>
<path d="M211.15 281.32C212.688 281.32 213.935 280.073 213.935 278.534C213.935 276.996 212.688 275.749 211.15 275.749C209.612 275.749 208.365 276.996 208.365 278.534C208.365 280.073 209.612 281.32 211.15 281.32Z" fill="#2B2E4A"/>
<rect x="220.434" y="378.811" width="145.515" height="20.8908" rx="10.4454" fill="#6886C5"/>
<mask id="mask0" mask-type="alpha" maskUnits="userSpaceOnUse" x="257" y="297" width="66" height="65">
<path fill-rule="evenodd" clip-rule="evenodd" d="M290.058 361.866C307.875 361.866 322.317 347.42 322.317 329.601C322.317 311.782 307.875 297.336 290.058 297.336C272.242 297.336 257.799 311.782 257.799 329.601C257.799 347.42 272.242 361.866 290.058 361.866Z" fill="white"/>
</mask>
<g mask="url(#mask0)">
<path opacity="0.63" d="M290.058 361.866C307.875 361.866 322.317 347.42 322.317 329.601C322.317 311.782 307.875 297.336 290.058 297.336C272.242 297.336 257.799 311.782 257.799 329.601C257.799 347.42 272.242 361.866 290.058 361.866Z" fill="#D1E3F8"/>
<path d="M287.827 326.558H292.29C301.134 326.558 308.304 333.728 308.304 342.574V363.054H271.813V342.574C271.813 333.728 278.983 326.558 287.827 326.558Z" fill="#8BBAF1"/>
<path d="M291.58 357.244C295.89 357.244 299.385 353.749 299.385 349.438V338.992C299.388 334.707 297.877 330.558 295.117 327.28C293.472 326.806 291.769 326.566 290.057 326.567C285.218 326.567 280.578 328.49 277.156 331.912C273.735 335.335 271.813 339.976 271.813 344.816V357.253L291.58 357.244Z" fill="#D1E3F8"/>
<path fill-rule="evenodd" clip-rule="evenodd" d="M287.827 326.558H292.29C301.134 326.558 308.304 333.728 308.304 342.574V363.054H271.813V342.574C271.813 333.728 278.983 326.558 287.827 326.558Z" stroke="#2B2E4A" stroke-width="1.25"/>
<path d="M290.016 323.939C294.918 323.939 298.893 319.964 298.893 315.061C298.893 310.157 294.918 306.182 290.016 306.182C285.113 306.182 281.139 310.157 281.139 315.061C281.139 319.964 285.113 323.939 290.016 323.939Z" fill="#2B2E4A" stroke="#2B2E4A" stroke-width="1.25"/>
</g>
<path fill-rule="evenodd" clip-rule="evenodd" d="M290.058 361.866C307.874 361.866 322.317 347.42 322.317 329.601C322.317 311.782 307.874 297.336 290.058 297.336C272.242 297.336 257.799 311.782 257.799 329.601C257.799 347.42 272.242 361.866 290.058 361.866Z" stroke="#2B2E4A" stroke-width="1.25" stroke-linecap="round"/>
<path d="M236.447 392.97C237.985 392.97 239.232 391.723 239.232 390.185C239.232 388.647 237.985 387.399 236.447 387.399C234.909 387.399 233.662 388.647 233.662 390.185C233.662 391.723 234.909 392.97 236.447 392.97Z" fill="#2B2E4A"/>
<path d="M245.731 392.97C247.269 392.97 248.516 391.723 248.516 390.185C248.516 388.647 247.269 387.399 245.731 387.399C244.193 387.399 242.946 388.647 242.946 390.185C242.946 391.723 244.193 392.97 245.731 392.97Z" fill="#2B2E4A"/>
<path d="M255.014 392.97C256.552 392.97 257.799 391.723 257.799 390.185C257.799 388.647 256.552 387.399 255.014 387.399C253.476 387.399 252.229 388.647 252.229 390.185C252.229 391.723 253.476 392.97 255.014 392.97Z" fill="#2B2E4A"/>
<path d="M264.296 392.97C265.834 392.97 267.081 391.723 267.081 390.185C267.081 388.647 265.834 387.399 264.296 387.399C262.758 387.399 261.511 388.647 261.511 390.185C261.511 391.723 262.758 392.97 264.296 392.97Z" fill="#2B2E4A"/>
<path d="M273.58 392.97C275.118 392.97 276.365 391.723 276.365 390.185C276.365 388.647 275.118 387.399 273.58 387.399C272.042 387.399 270.795 388.647 270.795 390.185C270.795 391.723 272.042 392.97 273.58 392.97Z" fill="#2B2E4A"/>
<path d="M282.864 392.97C284.402 392.97 285.649 391.723 285.649 390.185C285.649 388.647 284.402 387.399 282.864 387.399C281.325 387.399 280.079 388.647 280.079 390.185C280.079 391.723 281.325 392.97 282.864 392.97Z" fill="#2B2E4A"/>
<path d="M336.775 390.853C339.251 393.067 347.731 399.228 357.966 390.795C358.167 390.629 358.285 390.383 358.29 390.122C358.295 389.861 358.186 389.611 357.991 389.437C355.506 387.225 347.035 381.062 336.8 389.488C336.597 389.655 336.477 389.902 336.472 390.165C336.467 390.427 336.578 390.679 336.775 390.853Z" fill="#8BBAF1"/>
<path d="M347.038 393.552C349.106 393.552 350.782 391.876 350.782 389.808C350.782 387.74 349.106 386.064 347.038 386.064C344.971 386.064 343.295 387.74 343.295 389.808C343.295 391.876 344.971 393.552 347.038 393.552Z" fill="#D1E3F8"/>
<path d="M351.375 383.054L342.691 396.851L351.375 383.054Z" fill="#D1E3F8"/>
<path d="M351.375 383.054L342.691 396.851" stroke="#2B2E4A" stroke-width="1.25" stroke-linecap="round"/>
<path d="M376.857 275.749H388.926H376.857Z" fill="#D1E3F8"/>
<path d="M376.857 275.749H388.926" stroke="#2B2E4A" stroke-width="1.25" stroke-linecap="round"/>
<path opacity="0.68" d="M435.126 360.96C437.336 360.96 439.127 359.169 439.127 356.958C439.127 354.748 437.336 352.956 435.126 352.956C432.916 352.956 431.125 354.748 431.125 356.958C431.125 359.169 432.916 360.96 435.126 360.96Z" fill="#F9F9F9"/>
<path d="M402.456 405.47C393.415 413.869 396.348 366.517 377.502 370.639C372.145 371.289 375.493 375.174 377.502 375.174C379.512 375.174 383.865 376.792 382.86 388.446C381.856 400.101 383.53 430.206 400.607 429.235C402.367 429.14 404.116 428.888 405.831 428.481C407.733 421.056 404.17 410.068 402.456 405.47Z" fill="#F0BFA4"/>
<path d="M405.358 415.259C400.356 420.239 394.268 420.973 389.892 414.847C383.412 405.771 389.473 376.309 378.644 375.328C380.794 375.958 383.7 378.677 382.86 388.433C381.855 400.088 383.53 430.193 400.607 429.221C402.367 429.127 404.115 428.875 405.831 428.468C406.832 424.559 406.319 419.687 405.358 415.259Z" fill="#EAB292"/>
<path fill-rule="evenodd" clip-rule="evenodd" d="M402.456 405.47C393.415 413.869 396.348 366.517 377.502 370.639C372.145 371.289 375.493 375.174 377.502 375.174C379.512 375.174 383.865 376.792 382.86 388.446C381.856 400.101 383.53 430.206 400.607 429.235C402.367 429.14 404.116 428.888 405.831 428.481C407.733 421.056 404.17 410.068 402.456 405.47Z" stroke="#2B2E4A" stroke-width="1.25" stroke-linecap="round"/>
<path d="M442.798 541.442C446.146 505.607 453.875 461.563 441.793 455.284C429.712 449.004 408.449 452.243 408.449 452.243C408.449 452.243 390.226 535.748 419.024 579.956C427.022 592.286 435.657 604.192 444.894 615.624C448.42 614.398 453.624 612.067 458.084 607.971C449.786 588.154 440.886 561.905 442.798 541.442Z" fill="#BAE9E0"/>
<path opacity="0.54" d="M441.807 455.284C429.752 449.008 408.463 452.243 408.463 452.243C408.463 452.243 406.149 462.849 404.471 478.503C410.097 484.581 417.889 499.049 421.703 533.404C425.128 564.216 438.248 593.781 450.108 613.413C453.002 611.971 455.685 610.14 458.084 607.971C449.787 588.155 440.886 561.905 442.798 541.442C443.391 535.112 444.117 528.528 444.851 521.937C444.777 521.009 444.792 520.076 444.894 519.15C444.995 518.502 445.154 517.864 445.37 517.245C448.581 488.155 451.236 460.19 441.807 455.284Z" fill="#9DDFD3"/>
<path fill-rule="evenodd" clip-rule="evenodd" d="M442.798 541.442C446.146 505.607 453.875 461.563 441.793 455.284C429.712 449.004 408.449 452.243 408.449 452.243C408.449 452.243 390.226 535.748 419.024 579.956C427.022 592.286 435.657 604.192 444.894 615.624C448.42 614.398 453.624 612.067 458.084 607.971C449.786 588.154 440.886 561.905 442.798 541.442Z" stroke="#2B2E4A" stroke-width="1.25" stroke-linecap="round"/>
<path d="M422.037 414.656L433.087 381.962C433.087 381.962 418.689 378.078 405.629 401.052C404.424 403.175 403.379 404.606 402.455 405.46C404.17 410.058 407.732 421.046 405.83 428.461C418.598 425.403 422.037 414.656 422.037 414.656Z" fill="#FF847C"/>
<path opacity="0.46" d="M421.369 395.087C421.369 395.087 416.681 390.733 411.993 404.13C410.369 408.775 408.018 412.616 405.359 415.259C406.32 419.686 406.833 424.572 405.832 428.471C418.599 425.403 422.038 414.656 422.038 414.656L424.486 407.419C424.278 400.496 423.669 395.087 421.369 395.087Z" fill="#ED6663"/>
<path fill-rule="evenodd" clip-rule="evenodd" d="M422.037 414.656L433.087 381.962C433.087 381.962 418.689 378.078 405.629 401.052C404.424 403.175 403.379 404.606 402.455 405.46C404.17 410.058 407.732 421.046 405.83 428.461C418.598 425.403 422.037 414.656 422.037 414.656Z" stroke="#2B2E4A" stroke-width="1.25" stroke-linecap="round"/>
<path d="M466.935 453.067C466.935 453.067 451.84 436.951 433.088 466.088C411.152 505.429 405.547 576.667 403.829 616.756C407.104 618.524 411.531 620.105 417.273 620.657C423.197 601.866 432.074 578.673 445.478 555.173C476.619 500.583 466.935 453.067 466.935 453.067Z" fill="#BAE9E0"/>
<path opacity="0.45" d="M417.273 620.657C423.196 601.866 432.073 578.673 445.477 555.173C476.618 500.583 466.934 453.067 466.934 453.067C466.934 453.067 458.998 444.6 447.49 451.057C445.939 452.099 444.422 453.18 442.962 454.262C439.838 456.941 436.527 460.756 433.088 466.098C432.585 466.999 432.083 467.923 431.608 468.857C437.866 471.349 449.264 477.465 452.844 489.876C457.699 506.709 416.881 590.499 411.426 619.673C413.348 620.144 415.302 620.473 417.273 620.657Z" fill="#9DDFD3"/>
<path fill-rule="evenodd" clip-rule="evenodd" d="M466.935 453.067C466.935 453.067 451.84 436.951 433.088 466.088C411.152 505.429 405.547 576.667 403.829 616.756C407.104 618.524 411.531 620.105 417.273 620.657C423.197 601.866 432.074 578.673 445.478 555.173C476.619 500.583 466.935 453.067 466.935 453.067Z" stroke="#2B2E4A" stroke-width="1.25" stroke-linecap="round"/>
<path d="M430.646 380.255C430.646 380.255 414.001 393.748 413.666 407.814C413.331 421.88 416.345 439.295 405.964 457.045C400.607 466.423 446.146 482.498 465.902 459.055C469.921 452.692 460.88 437.956 460.88 419.201C460.88 400.446 443.27 370.783 430.646 380.255Z" fill="#FF847C"/>
<path d="M417.771 395.158C415.477 399.056 413.773 403.407 413.666 407.814C413.331 421.88 416.345 439.295 405.964 457.045C400.607 466.423 446.146 482.498 465.902 459.055C469.921 452.692 460.88 437.956 460.88 419.201C460.88 400.446 443.27 370.783 430.646 380.255" stroke="#2B2E4A" stroke-width="1.25" stroke-linecap="round"/>
<path opacity="0.46" d="M445.141 406.475C445.141 406.475 435.096 405.805 438.444 410.828C441.793 415.852 456.861 451.175 445.141 459.805C434.121 467.916 406.7 457.879 405.629 459.373C405.661 459.519 405.702 459.663 405.749 459.805C406.419 460.652 409.285 463.271 413.612 466.426C426.671 472.622 452.367 475.134 465.919 459.058C469.622 453.197 462.235 440.23 461.057 423.558C453.991 413.481 446.953 406.233 445.141 406.475Z" fill="#ED6663"/>
<path d="M444.78 424.486C444.623 424.854 444.445 425.226 444.271 425.611C436.62 441.325 408.362 430.511 400.767 431.154C393.173 431.797 391.392 442.511 395.547 443.194C399.703 443.877 396.96 434.151 401.775 438.525C421.903 453.144 448.581 452.591 461.308 435.822C457.26 431.127 449.759 426.937 444.78 424.486Z" fill="#F0BFA4"/>
<path d="M461.309 435.822C459.728 434.059 457.953 432.479 456.018 431.113C446.472 445.012 428.226 447.745 400.272 436.616C400.391 437.006 400.554 437.381 400.758 437.734C401.116 437.967 401.452 438.232 401.763 438.525C421.904 453.143 448.581 452.588 461.309 435.822Z" fill="#EAB292"/>
<path fill-rule="evenodd" clip-rule="evenodd" d="M444.78 424.486C444.623 424.854 444.445 425.226 444.271 425.611C436.62 441.325 408.362 430.511 400.767 431.154C393.173 431.797 391.392 442.511 395.547 443.194C399.703 443.877 396.96 434.151 401.775 438.525C421.903 453.144 448.581 452.591 461.308 435.822C457.26 431.127 449.759 426.937 444.78 424.486Z" stroke="#2B2E4A" stroke-width="1.25" stroke-linecap="round"/>
<path d="M440.233 407.144C444.405 411.26 448.39 416.009 444.78 424.482C449.76 426.934 457.26 431.124 461.309 435.819C464.013 432.319 465.967 428.299 467.051 424.01C474.944 392.073 441.124 380.017 441.124 380.017C438.224 378.275 432.334 385.171 431.413 393.078" fill="#FF847C"/>
<path opacity="0.46" d="M456.018 431.114C457.953 432.479 459.727 434.059 461.309 435.822C464.013 432.322 465.967 428.302 467.051 424.014C474.944 392.074 441.124 380.017 441.124 380.017C438.224 378.275 432.334 385.171 431.413 393.078L432.454 394.736C435.672 394.019 440.698 392.254 442.463 388.055C445.142 381.691 467.912 402.121 460.21 422.885C459.157 425.79 457.749 428.554 456.018 431.114Z" fill="#ED6663"/>
<path d="M440.233 407.144C444.405 411.26 448.39 416.009 444.78 424.482C449.76 426.934 457.26 431.124 461.309 435.819C464.013 432.319 465.967 428.299 467.051 424.01C474.944 392.073 441.124 380.017 441.124 380.017C438.224 378.275 432.334 385.171 431.413 393.078" stroke="#2B2E4A" stroke-width="1.25" stroke-linecap="round"/>
<path d="M437.106 349.54C437.106 349.54 425.721 349.875 422.707 359.922C419.694 369.969 429.404 372.984 429.404 372.984L437.106 349.54Z" fill="#2B2E4A" stroke="#2B2E4A" stroke-width="1.44177" stroke-linecap="round"/>
<path d="M441.124 377.338C441.124 377.338 437.776 396.092 427.061 395.423C421.033 394.418 432.753 381.691 428.4 379.347C424.047 377.003 441.124 366.286 441.124 377.338Z" fill="#F0BFA4"/>
<path d="M429.261 380.351C430.339 383.489 424.412 391.135 425.413 394.19C425.39 394.079 424.804 391.343 429.07 388.717C433.423 386.038 432.753 381.015 432.753 381.015C432.017 379.792 430.701 379.682 429.261 380.351Z" fill="#EAB292"/>
<path fill-rule="evenodd" clip-rule="evenodd" d="M441.124 377.338C441.124 377.338 437.776 396.092 427.061 395.423C421.033 394.418 432.753 381.691 428.4 379.347C424.047 377.003 441.124 366.286 441.124 377.338Z" stroke="#2B2E4A" stroke-width="1.25" stroke-linecap="round"/>
<path d="M429.361 359.684C429.361 359.684 430.225 363.703 425.57 366.53C417.989 371.121 421.217 383.56 429.284 383.292C437.35 383.024 443.987 373.154 441.161 367.076C438.335 360.997 432.515 350.545 429.361 359.684Z" fill="#F0BFA4"/>
<path d="M441.144 367.076C440.261 365.146 439.271 363.267 438.181 361.446C434.98 359.41 431.819 359.266 429.408 360.505C429.408 361.828 428.916 364.494 425.554 366.533L425.417 366.627C425.838 366.654 431.414 367.123 431.414 371.316C431.414 375.67 432.083 379.689 433.758 377.344C435.432 375 436.102 378.014 435.097 380.023C434.709 380.804 435.147 380.978 435.83 380.898C440.431 377.528 443.137 371.363 441.144 367.076Z" fill="#EAB292"/>
<path d="M441.144 367.076C438.322 360.997 432.515 350.545 429.361 359.684C429.361 359.684 430.225 363.703 425.57 366.53C417.989 371.121 421.217 383.56 429.284 383.292C430.287 383.257 431.28 383.081 432.234 382.769" stroke="#2B2E4A" stroke-width="1.25" stroke-linecap="round"/>
<path d="M450.252 354.313C450.252 354.313 456.949 332.936 474.943 338.823C493.36 344.852 483.65 373.654 461.884 368.63C440.119 363.606 450.252 354.313 450.252 354.313Z" fill="#48426D"/>
<path d="M461.885 368.63C479.137 372.612 488.81 355.344 482.914 345.009C483.65 354.229 478.159 362.029 469.587 362.601C454.518 363.606 455.359 349.038 450.252 354.313C449.318 355.277 448.488 357.045 447.908 359.256C447.888 362.267 450.594 366.024 461.885 368.63Z" fill="#2B2E4A"/>
<path fill-rule="evenodd" clip-rule="evenodd" d="M450.252 354.313C450.252 354.313 456.949 332.936 474.943 338.823C493.36 344.852 483.65 373.654 461.884 368.63C440.119 363.606 450.252 354.313 450.252 354.313Z" stroke="#2B2E4A" stroke-width="1.44177" stroke-linecap="round"/>
<path d="M445.143 353.894C445.143 353.894 450.165 352.22 452.174 355.569C454.184 358.918 453.514 364.946 449.83 365.281C446.147 365.616 445.143 353.894 445.143 353.894Z" fill="#8BBAF1" stroke="#2B2E4A" stroke-width="1.44177" stroke-linecap="round"/>
<path d="M449.161 358.248C449.161 358.248 455.643 377.193 436.999 379.946C435.877 380.087 441.124 370.639 438.111 371.979C435.097 373.318 434.762 378.007 433.758 377.337C432.753 376.668 436.771 367.29 431.079 364.946C425.386 362.601 425.721 354.564 430.744 351.55C435.767 348.535 445.142 346.861 449.161 358.248Z" fill="#48426D"/>
<path d="M449.16 358.247C448.005 354.969 446.401 352.775 444.586 351.382C444.586 351.382 448.826 357.578 445.477 367.29C443.133 373.988 441.124 359.587 434.427 360.592C427.73 361.596 427.884 354.584 427.884 354.563C425.928 358.207 426.806 363.177 431.078 364.946C436.771 367.29 432.753 376.667 433.757 377.337C434.762 378.007 435.097 373.318 438.11 371.979C441.124 370.639 435.877 380.087 436.999 379.946C455.643 377.193 449.16 358.247 449.16 358.247Z" fill="#2B2E4A"/>
<path fill-rule="evenodd" clip-rule="evenodd" d="M449.161 358.248C449.161 358.248 455.643 377.193 436.999 379.946C435.877 380.087 441.124 370.639 438.111 371.979C435.097 373.318 434.762 378.007 433.758 377.337C432.753 376.668 436.771 367.29 431.079 364.946C425.386 362.601 425.721 354.564 430.744 351.55C435.767 348.535 445.142 346.861 449.161 358.248Z" stroke="#2B2E4A" stroke-width="1.44177" stroke-linecap="round"/>
<path d="M417.273 620.657C411.514 620.098 407.104 618.524 403.829 616.755C403.263 629.904 403.119 639.703 402.951 643.923C402.925 645.814 402.546 647.683 401.836 649.436C403.738 650.37 406.26 651.368 408.781 651.669C410.569 644.258 413.235 633.474 417.273 620.657Z" fill="#F0BFA4"/>
<path d="M402.649 649.821C404.59 650.739 406.656 651.363 408.781 651.67C410.569 644.245 413.234 633.474 417.272 620.658C415.301 620.467 413.347 620.131 411.426 619.653C411.238 620.658 411.091 621.605 410.987 622.479C408.935 640.307 405.117 647.102 402.649 649.821Z" fill="#EAB292"/>
<path fill-rule="evenodd" clip-rule="evenodd" d="M417.273 620.657C411.514 620.098 407.104 618.524 403.829 616.755C403.263 629.904 403.119 639.703 402.951 643.923C402.925 645.814 402.546 647.683 401.836 649.436C403.738 650.37 406.26 651.368 408.781 651.669C410.569 644.258 413.235 633.474 417.273 620.657Z" stroke="#2B2E4A" stroke-width="1.25" stroke-linecap="round"/>
<path d="M381.186 654.975C381.521 657.989 403.621 662.678 405.63 662.678C406.186 662.678 407.097 658.659 408.781 651.669C406.26 651.368 403.738 650.37 401.836 649.436C397.731 658.897 380.898 652.359 381.186 654.975Z" fill="#2B2E4A" stroke="#2B2E4A" stroke-width="1.25" stroke-linecap="round"/>
<path d="M467.869 629.673C465.421 624.475 461.815 616.873 458.088 607.971C453.627 612.067 448.424 614.398 444.898 615.624C453.34 626.093 458.881 632.131 460.941 636.703C463.71 634.643 466.332 631.606 467.869 629.673Z" fill="#EAB292" stroke="#2B2E4A" stroke-width="1.25" stroke-linecap="round"/>
<path d="M461.551 642.249C458.872 650.956 453.514 660.668 455.858 659.664C458.202 658.659 472.601 642.249 470.926 636.555C470.638 635.574 469.513 633.166 467.866 629.673C466.332 631.605 463.71 634.643 460.938 636.706C461.862 638.759 462.086 640.517 461.551 642.249Z" fill="#2B2E4A" stroke="#2B2E4A" stroke-width="1.25" stroke-linecap="round"/>
<path d="M429.997 370.897C430.548 370.897 430.995 370.451 430.995 369.899C430.995 369.348 430.548 368.901 429.997 368.901C429.446 368.901 428.999 369.348 428.999 369.899C428.999 370.451 429.446 370.897 429.997 370.897Z" fill="#2B2E4A"/>
<path d="M424.609 372.562L423.605 372.073C422.935 371.755 422.781 370.968 423.293 370.589L425.848 369.494C426.342 369.288 426.745 368.911 426.983 368.433L427.248 367.887" stroke="#2B2E4A" stroke-width="1.25" stroke-linecap="round"/>
<path d="M425.292 376.303C425.182 376.279 425.067 376.309 424.982 376.384C424.897 376.458 424.852 376.569 424.86 376.681C424.923 377.398 425.452 377.987 426.158 378.127C426.864 378.266 427.577 377.923 427.908 377.284C427.958 377.183 427.957 377.063 427.907 376.962C427.856 376.861 427.761 376.789 427.65 376.768L425.292 376.303Z" fill="#2B2E4A" stroke="#2B2E4A" stroke-width="1.25" stroke-linecap="round"/>
<path d="M214.785 582.877L200.456 651.893C199.586 656.091 195.887 659.102 191.6 659.1H187.444" stroke="#8F8AB0" stroke-width="1.25" stroke-linecap="round"/>
<path d="M178.008 575.208L161.68 651.893C160.81 656.092 157.111 659.102 152.824 659.101H148.651" stroke="#8F8AB0" stroke-width="1.25" stroke-linecap="round"/>
<path d="M263.18 562.156C263.18 562.156 234.707 589.191 191.72 581.5C148.732 573.81 125.316 517.183 126.015 472.79C126.714 428.397 170.051 428.048 179.138 439.932C188.225 451.817 228.556 549.737 249.809 540.627C271.061 531.518 274.871 555.742 263.18 562.156Z" fill="#FDF3E8"/>
<path opacity="0.78" d="M179.138 439.932C173.801 432.941 156.662 430.201 143.276 438.094C151.877 435.039 172.847 434.34 149.78 454.963C135.748 467.508 147.683 528.718 170.75 536.223C187.494 541.686 181.032 496.025 193.467 466.844C186.931 453.834 181.755 443.34 179.138 439.932Z" fill="#FFBF8A"/>
<path opacity="0.78" d="M262.316 543.05C262.316 543.05 230.862 589.54 176.691 566.12C139.365 549.985 129.419 511.776 126.839 489.569C131.358 530.34 154.005 574.751 191.719 581.501C234.707 589.191 263.169 562.156 263.169 562.156C270.012 558.402 271.557 548.545 267.363 542.844C265.678 542.718 263.985 542.788 262.316 543.05Z" fill="#FFBF8A"/>
<path fill-rule="evenodd" clip-rule="evenodd" d="M263.18 562.156C263.18 562.156 234.707 589.191 191.72 581.5C148.732 573.81 125.316 517.183 126.015 472.79C126.714 428.397 170.051 428.048 179.138 439.932C188.225 451.817 228.556 549.737 249.809 540.627C271.061 531.518 274.871 555.742 263.18 562.156Z" stroke="#2B2E4A" stroke-width="1.25" stroke-linecap="round"/>
<path d="M292.374 535.709C278.394 507.745 227.368 514.037 227.368 514.037C227.368 514.037 203.603 518.931 201.806 529.271C200.01 539.61 205.35 536.408 239.95 537.807C274.55 539.205 258.473 577.655 269.657 581.151C276.042 583.147 288.802 604.392 299.751 622.649C303.285 620.426 308.513 617.714 314.154 616.707C308.961 593.539 301.88 554.707 292.374 535.709Z" fill="#8BBAF1"/>
<path d="M314.004 616.753C312.707 614.085 307.252 611.453 302.17 608.066C295.879 603.872 296.578 566.819 287.841 543.05C279.485 520.329 245.402 513.978 242.435 513.467C237.406 513.327 232.373 513.518 227.368 514.037C223.521 514.889 219.744 516.031 216.069 517.452C210.477 523.625 208.95 531.522 213.389 531.165C215.073 531.029 217.876 533.42 221.305 537.359C226.288 537.415 232.425 537.502 239.95 537.807C274.55 539.205 258.473 577.655 269.657 581.151C276.042 583.147 288.802 604.392 299.752 622.649C303.264 620.454 308.422 617.766 314.004 616.753Z" fill="#6886C5"/>
<path fill-rule="evenodd" clip-rule="evenodd" d="M292.374 535.709C278.394 507.745 227.368 514.037 227.368 514.037C227.368 514.037 203.603 518.931 201.806 529.271C200.01 539.61 205.35 536.408 239.95 537.807C274.55 539.205 258.473 577.655 269.657 581.151C276.042 583.147 288.802 604.392 299.751 622.649C303.285 620.426 308.513 617.714 314.154 616.707C308.961 593.539 301.88 554.707 292.374 535.709Z" stroke="#2B2E4A" stroke-width="1.25" stroke-linecap="round"/>
<path d="M205.268 582.877L219.597 651.893C220.467 656.091 224.166 659.102 228.453 659.1H232.609" stroke="#8F8AB0" stroke-width="1.25" stroke-linecap="round"/>
<path d="M242.046 575.208L258.374 651.893C259.244 656.092 262.943 659.102 267.23 659.101H271.403" stroke="#8F8AB0" stroke-width="1.25" stroke-linecap="round"/>
<path d="M271.053 531.515C245.191 511.94 221.775 530.815 209.543 528.369C197.31 525.922 159.771 528.274 159.771 528.274C159.771 528.274 178.787 561.925 226.318 561.925C242.395 561.226 254.627 554.235 250.433 578.354C248.2 591.193 241.511 607.301 236.481 621.192C239.421 623.579 245.268 627.347 253.089 627.606C270.567 605.773 303.923 556.322 271.053 531.515Z" fill="#8BBAF1"/>
<path d="M268.257 564.722C269.655 552.138 254.627 540.953 237.851 543.05C221.076 545.147 222.372 527.67 222.372 527.67C222.439 527.32 222.491 526.971 222.53 526.646C217.427 528.044 213.031 529.068 209.543 528.369C202.902 527.034 188.699 527.124 177.169 527.474C172.975 530.62 169.596 534.294 167.733 538.327C177.319 548.244 196.042 561.912 226.322 561.912C242.398 561.213 254.631 554.222 250.437 578.341C248.203 591.18 241.514 607.287 236.485 621.178C239.424 623.565 245.271 627.334 253.093 627.592C228.569 620.489 266.859 577.281 268.257 564.722Z" fill="#6886C5"/>
<path fill-rule="evenodd" clip-rule="evenodd" d="M271.053 531.515C245.191 511.94 221.775 530.815 209.543 528.369C197.31 525.922 159.771 528.274 159.771 528.274C159.771 528.274 178.787 561.925 226.318 561.925C242.395 561.226 254.627 554.235 250.433 578.354C248.2 591.193 241.511 607.301 236.481 621.192C239.421 623.579 245.268 627.347 253.089 627.606C270.567 605.773 303.923 556.322 271.053 531.515Z" stroke="#2B2E4A" stroke-width="1.44177" stroke-linecap="round"/>
<path d="M267.908 499.007C260.468 498.475 241.113 494.91 225.655 481.407C221.027 483.703 215.485 488.639 214.436 499.181C231.351 506.641 274.678 506.295 276.296 505.648C278.044 504.949 277.694 499.706 267.908 499.007Z" fill="#BFA190"/>
<path d="M276.664 502.656C270.723 497.93 251.501 506.333 234.956 497.469C229.331 494.404 224.162 490.567 219.599 486.07C217.086 488.985 215.035 493.166 214.448 499.167C231.363 506.627 274.69 506.281 276.308 505.634C277.115 505.327 277.472 504.054 276.664 502.656Z" fill="#B18E7B"/>
<path fill-rule="evenodd" clip-rule="evenodd" d="M267.908 499.007C260.468 498.475 241.113 494.91 225.655 481.407C221.027 483.703 215.485 488.639 214.436 499.181C231.351 506.641 274.678 506.295 276.296 505.648C278.044 504.949 277.694 499.706 267.908 499.007Z" stroke="#2B2E4A" stroke-width="1.25" stroke-linecap="round"/>
<path d="M225.665 481.406C220.451 476.877 216.06 471.478 212.689 465.449C197.661 438.534 179.137 439.932 179.137 439.932C170.051 443.777 197.661 487.821 210.941 497.259C212.039 498.015 213.21 498.659 214.436 499.181C215.485 488.639 221.028 483.703 225.665 481.406Z" fill="#FF847C"/>
<path d="M219.598 486.084C212.608 479.268 208.726 472.843 208.505 471.752C208.156 470.005 199.069 456.023 198.021 471.752C197.514 479.38 201.935 487.335 206.625 493.505C207.961 494.87 209.404 496.126 210.941 497.259C212.039 498.015 213.21 498.659 214.436 499.182C215.034 493.18 217.085 488.999 219.598 486.084Z" fill="#ED6663"/>
<path fill-rule="evenodd" clip-rule="evenodd" d="M225.665 481.406C220.451 476.877 216.06 471.478 212.689 465.449C197.661 438.534 179.137 439.932 179.137 439.932C170.051 443.777 197.661 487.821 210.941 497.259C212.039 498.015 213.21 498.659 214.436 499.181C215.485 488.639 221.028 483.703 225.665 481.406Z" stroke="#2B2E4A" stroke-width="1.25" stroke-linecap="round"/>
<rect x="232.271" y="504.599" width="89.8194" height="8.3892" rx="4.1946" fill="#FFBF8A" stroke="#2B2E4A" stroke-width="1.25" stroke-linecap="round"/>
<path d="M179.139 439.933C157.47 441.331 151.179 462.304 151.179 462.304C146.287 473.839 145.238 528.369 173.896 540.254C202.555 552.138 234.358 521.028 227.019 512.29C211.932 499.506 205.407 480.683 199.804 465.45" fill="#FF847C"/>
<path d="M227.018 512.29C226.84 512.139 226.668 511.986 226.497 511.832C224.215 515.61 218.903 525.964 193.551 527.366C161.142 529.162 157.469 493.763 157.469 493.763C157.469 493.763 159.915 486.423 152.227 479.781C150.892 478.628 149.647 479.082 148.532 480.666C148.103 501.464 153.404 531.756 173.895 540.254C202.553 552.138 234.357 521.028 227.018 512.29Z" fill="#ED6663"/>
<path d="M148.731 476.985C148.731 476.985 145.257 504.054 164.109 515.24C166.206 504.994 176.69 497.573 183.138 493.917C173.765 486.615 173.545 471.042 173.545 471.042C173.545 471.042 175.642 459.507 181.933 458.459C188.224 457.41 177.04 439.667 167.604 442.946C158.167 446.224 149.779 457.76 148.731 476.985Z" fill="#FF847C"/>
<path d="M164.11 515.239C165.287 509.517 169.079 504.676 173.319 500.876C172.057 498.849 166.605 501.111 159.923 486.412C151.185 467.187 164.466 451.457 170.757 456.7C177.048 461.943 178.662 460.154 178.662 460.154C179.562 459.275 180.701 458.681 181.937 458.448C188.228 457.399 177.044 439.656 167.608 442.935C158.172 446.214 149.784 457.749 148.736 476.974C148.732 476.985 145.258 504.054 164.11 515.239Z" fill="#ED6663"/>
<path d="M179.139 439.933C157.47 441.331 151.179 462.304 151.179 462.304C146.287 473.839 145.238 528.369 173.896 540.254C202.555 552.138 234.358 521.028 227.019 512.29C211.932 499.506 205.407 480.683 199.804 465.45" stroke="#2B2E4A" stroke-width="1.25" stroke-linecap="round"/>
<path d="M167.604 435.039C167.604 435.039 169.701 461.954 183.681 461.255C192.767 459.507 180.186 441.331 183.681 439.583C187.176 437.835 169.002 426.3 167.604 435.039Z" fill="#BFA190"/>
<path d="M179.138 440.981C175.992 442.03 175.293 447.623 179.837 449.37C182.982 450.573 184.506 456.9 185.163 460.727C190.175 457.857 183.657 446.396 183.091 441.593C181.675 440.817 180.277 440.604 179.138 440.981Z" fill="#B18E7B"/>
<path d="M193.816 416.513C193.816 416.513 191.72 419.309 195.564 427.698C198.377 433.836 196.263 444.477 182.633 444.477C169.003 444.477 167.255 430.145 170.75 421.756C174.245 413.367 191.72 411.619 193.816 416.513Z" fill="#BFA190"/>
<path d="M170.75 421.756C168.929 426.125 167.472 430.68 167.255 437.136C168.395 438.485 168.304 442.432 169.192 442.222C174.277 441.013 169.352 419.658 172.452 420.396C175.552 421.134 174.595 433.291 174.944 435.738C182.284 436.437 178.149 423.961 182.983 425.251C187.341 426.412 191.056 424.44 194.166 424.203C191.489 417.911 193.817 416.513 193.817 416.513C191.72 411.619 174.245 413.367 170.75 421.756Z" fill="#B18E7B"/>
<path d="M167.604 435.039C167.604 435.039 169.701 461.954 183.681 461.255C190.492 459.944 185.323 450.419 183.681 444.476" stroke="#2B2E4A" stroke-width="1.25" stroke-linecap="round"/>
<path d="M170.75 421.756C174.245 413.367 191.72 411.619 193.816 416.513C193.816 416.513 191.72 419.309 195.564 427.698C198.377 433.836 196.263 444.477 182.633 444.477C180.827 444.496 179.033 444.193 177.334 443.582" stroke="#2B2E4A" stroke-width="1.25" stroke-linecap="round"/>
<path d="M169.352 435.039C169.352 435.039 168.653 424.203 171.799 423.504C174.944 422.805 172.148 435.738 174.944 435.738C177.74 435.738 176.691 420.707 181.934 421.756C187.176 422.805 208.495 417.911 207.097 402.88C205.699 387.85 186.128 389.248 183.681 401.832C183.332 405.677 166.906 398.686 161.663 407.424C156.421 416.163 167.954 447.273 169.352 435.039Z" fill="#48426D"/>
<path d="M161.663 407.424C156.421 416.163 167.954 447.273 169.352 435.039C169.352 435.039 169.076 430.729 169.66 427.369C169.66 427.369 169.702 419.658 172.148 416.163C174.594 412.667 165.508 410.221 167.255 408.123C168.796 406.274 179.306 405.781 179.138 403.055C173.791 402.786 165.2 401.545 161.663 407.424Z" fill="#2B2E4A"/>
<path fill-rule="evenodd" clip-rule="evenodd" d="M169.352 435.039C169.352 435.039 168.653 424.203 171.799 423.504C174.944 422.805 172.148 435.738 174.944 435.738C177.74 435.738 176.691 420.707 181.934 421.756C187.176 422.805 208.495 417.911 207.097 402.88C205.699 387.85 186.128 389.248 183.681 401.832C183.332 405.677 166.906 398.686 161.663 407.424C156.421 416.163 167.954 447.273 169.352 435.039Z" stroke="#2B2E4A" stroke-width="1.25" stroke-linecap="round"/>
<path d="M320.56 512.988H273.5L293.67 467.75C294.457 465.993 296.201 464.862 298.126 464.859H338.177C339.826 464.868 341.359 465.706 342.257 467.089C343.154 468.473 343.294 470.215 342.63 471.724L325.729 509.647C324.815 511.682 322.791 512.991 320.56 512.988Z" fill="#F7C5A8"/>
<path d="M166.664 628.491H253.24" stroke="#8F8AB0" stroke-width="1.25" stroke-linecap="round"/>
<path opacity="0.78" d="M338.178 464.859H307.213C307.37 467.708 309.355 470.889 317.547 470.693C332.226 470.343 332.575 474.538 328.731 487.471C324.887 500.405 315.45 509.843 294.83 508.095C281.819 506.99 276.045 510.192 273.994 512.988H320.56C322.794 512.989 324.819 511.674 325.729 509.633L342.63 471.724C343.295 470.215 343.154 468.473 342.257 467.089C341.36 465.706 339.826 464.868 338.178 464.859Z" fill="#FFBF8A"/>
<path fill-rule="evenodd" clip-rule="evenodd" d="M320.56 512.988H273.5L293.67 467.75C294.457 465.993 296.201 464.862 298.126 464.859H338.177C339.826 464.868 341.359 465.706 342.257 467.089C343.154 468.473 343.294 470.215 342.63 471.724L325.729 509.647C324.815 511.682 322.791 512.991 320.56 512.988Z" stroke="#2B2E4A" stroke-width="1.25" stroke-linecap="round"/>
<path d="M317.329 489.43C318.794 485.962 318.064 482.34 315.697 481.34C313.331 480.34 310.225 482.34 308.759 485.807C307.294 489.275 308.025 492.897 310.391 493.897C312.758 494.897 315.864 492.897 317.329 489.43Z" fill="#F9F9F9"/>
<path d="M353.076 512.989H236.465H353.076Z" fill="#F9F9F9"/>
<path d="M353.076 512.989H236.465" stroke="#8F8AB0" stroke-width="1.25" stroke-linecap="round"/>
<path d="M320.332 635.331C318.651 635.108 316.609 627.659 314.153 616.721C308.512 617.714 303.283 620.426 299.75 622.664C303.717 629.277 307.439 635.496 310.542 640.27C310.563 640.242 314.408 634.632 320.332 635.331Z" fill="#B18E7B" stroke="#2B2E4A" stroke-width="1.44177" stroke-linecap="round"/>
<path d="M317.887 649.313C324.178 651.41 341.303 632.185 340.604 629.738C339.905 627.291 325.576 636.03 320.333 635.331C314.392 634.632 310.547 640.242 310.547 640.256C313.889 645.388 316.489 648.848 317.887 649.313Z" fill="#8F8AB0" stroke="#2B2E4A" stroke-width="1.44177" stroke-linecap="round"/>
<path d="M243.521 643.497C243.829 640.414 245.436 636.803 249.046 632.535C250.249 631.112 251.619 629.459 253.101 627.606C245.279 627.347 239.432 623.579 236.493 621.192C234.284 627.295 232.397 632.968 231.345 637.75C231.345 637.75 236.248 644.675 243.521 643.497Z" fill="#BFA190" stroke="#2B2E4A" stroke-width="1.44177" stroke-linecap="round"/>
<path d="M231.211 648.964C236.104 659.8 260.219 665.392 257.423 661.198C255.285 657.989 242.504 653.55 243.51 643.497C236.237 644.675 231.334 637.75 231.334 637.75C230.292 642.535 230.079 646.429 231.211 648.964Z" fill="#8F8AB0" stroke="#2B2E4A" stroke-width="1.44177" stroke-linecap="round"/>
<path d="M239.6 503.551C231.212 486.772 214.436 497.958 194.166 497.608C189.517 497.528 185.921 496.088 183.132 493.914C176.709 497.584 166.206 505.005 164.109 515.24C167.042 516.954 170.227 518.197 173.546 518.92C199.88 524.863 229.115 500.394 231.212 503.54C233.309 506.686 241.697 508.095 239.6 503.551Z" fill="#BFA190"/>
<path d="M233.658 502.152C233.309 499.706 230.163 497.259 210.242 503.551C190.321 509.843 173.312 500.887 173.312 500.887C169.072 504.687 165.273 509.528 164.103 515.25C167.035 516.965 170.22 518.207 173.539 518.931C199.873 524.873 229.108 500.405 231.205 503.551C232.201 505.043 234.616 506.144 236.654 506.4L237.817 506.005C235.755 506.676 234.008 504.589 233.658 502.152Z" fill="#B18E7B"/>
<path fill-rule="evenodd" clip-rule="evenodd" d="M239.6 503.551C231.212 486.772 214.436 497.958 194.166 497.608C189.517 497.528 185.921 496.088 183.132 493.914C176.709 497.584 166.206 505.005 164.109 515.24C167.042 516.954 170.227 518.197 173.546 518.92C199.88 524.863 229.115 500.394 231.212 503.54C233.309 506.686 241.697 508.095 239.6 503.551Z" stroke="#2B2E4A" stroke-width="1.25" stroke-linecap="round"/>
<path d="M148.731 476.985C148.731 476.985 145.257 504.054 164.109 515.24C166.206 504.994 176.69 497.573 183.138 493.917C173.765 486.615 173.545 471.042 173.545 471.042" stroke="#2B2E4A" stroke-width="1.25" stroke-linecap="round"/>
<path d="M154.673 529.417C154.673 529.417 173.545 541.652 194.165 534.311C214.785 526.971 234.008 555.983 220.727 573.111C198.359 574.859 170.05 562.275 164.808 552.837" fill="#FDF3E8"/>
<path d="M154.673 529.068C154.673 529.068 173.545 541.302 194.165 533.962C214.785 526.621 234.008 555.634 220.727 572.762" stroke="#2B2E4A" stroke-width="1.25" stroke-linecap="round"/>
<path d="M190.915 427.002C190.915 427.002 191.681 430.386 192.967 431.47C194.253 432.553 192.432 433.392 190.562 433.095" stroke="#2B2E4A" stroke-width="1.25" stroke-linecap="round"/>
<path d="M190.321 437.835C188.953 438.241 187.496 438.241 186.127 437.835" stroke="#2B2E4A" stroke-width="1.25" stroke-linecap="round"/>
<line x1="-4.37114e-08" y1="662.5" x2="720" y2="662.5" stroke="#8F8AB0"/>
</svg>
