<svg xmlns="http://www.w3.org/2000/svg" width="721" height="900" fill="none" viewBox="0 0 721 900">
    <path stroke="#000" stroke-miterlimit="10" stroke-width=".5" d="M549.748 588.54h-379.18M360.158 588.54v230.17M403.108 588.59l-42.95 32.96-42.8-32.8"/>
    <path fill="#8CA6AD" d="M90.158 900h-90v-39.69l90-30V900z" opacity=".1"/>
    <path fill="#8CA6AD" d="M180.158 830.31h-90V900h90v-69.69z" opacity=".2"/>
    <path fill="#8CA6AD" d="M270.158 900h-90v-69.69l90-1V900z" opacity=".4"/>
    <path fill="#8CA6AD" d="M360.158 900h-90v-70.69l90-6V900z" opacity=".5"/>
    <path fill="#8CA6AD" d="M450.158 900h-90v-76.69l90 3V900z" opacity=".4"/>
    <path fill="#8CA6AD" d="M540.158 900h-90v-73.69l90-20V900z" opacity=".3"/>
    <path fill="#8CA6AD" d="M630.158 900h-90v-93.69l90-10V900z" opacity=".2"/>
    <path fill="#8CA6AD" d="M720.158 900h-90V796.31l90-23V900z" opacity=".1"/>
    <path stroke="#70888E" stroke-miterlimit="10" d="M.158 860.31l90-30h90l90-1 90-6 90 3 90-20 90-10 90-23"/>
    <path fill="#8CA6AD" d="M90.158 835.7c2.977 0 5.39-2.413 5.39-5.39s-2.413-5.39-5.39-5.39-5.39 2.413-5.39 5.39 2.413 5.39 5.39 5.39zM180.158 835.7c2.977 0 5.39-2.413 5.39-5.39s-2.413-5.39-5.39-5.39-5.39 2.413-5.39 5.39 2.413 5.39 5.39 5.39zM270.158 834.7c2.977 0 5.39-2.413 5.39-5.39s-2.413-5.39-5.39-5.39-5.39 2.413-5.39 5.39 2.413 5.39 5.39 5.39zM360.158 829.49c2.977 0 5.39-2.413 5.39-5.39s-2.413-5.39-5.39-5.39-5.39 2.413-5.39 5.39 2.413 5.39 5.39 5.39zM450.158 831.7c2.977 0 5.39-2.413 5.39-5.39s-2.413-5.39-5.39-5.39-5.39 2.413-5.39 5.39 2.413 5.39 5.39 5.39zM540.158 811.7c2.977 0 5.39-2.413 5.39-5.39s-2.413-5.39-5.39-5.39-5.39 2.413-5.39 5.39 2.413 5.39 5.39 5.39zM630.158 801.7c2.977 0 5.39-2.413 5.39-5.39s-2.413-5.39-5.39-5.39-5.39 2.413-5.39 5.39 2.413 5.39 5.39 5.39z"/>
    <path fill="#8CA6AD" fill-rule="evenodd" d="M375.448 499.35h164.84c3 0 5.36 2 5.36 4.55v52.25c0 2.5-2.4 4.54-5.36 4.54h-164.84c-3 0-5.36-2-5.36-4.54V503.9c0-2.51 2.4-4.55 5.36-4.55z" clip-rule="evenodd"/>
    <path stroke="#000" stroke-miterlimit="10" stroke-width=".5" d="M545.648 556.15c0 2.5-2.4 4.54-5.36 4.54h-164.84c-3 0-5.36-2-5.36-4.54V503.9"/>
    <path fill="#F7C5A8" d="M394.438 519.31v13.35c-.025.226 0 .454.075.668.075.214.197.409.358.569.16.161.355.283.569.358.214.075.443.101.668.075h12.23c.226.026.454 0 .668-.075.214-.075.409-.197.57-.358.16-.16.282-.355.357-.569.075-.214.101-.442.075-.668v-16.42c.026-.225 0-.454-.075-.668-.075-.214-.197-.409-.357-.569-.161-.161-.356-.283-.57-.358-.214-.075-.442-.1-.668-.075h-9.16l-4.74 4.74z"/>
    <path stroke="#000" stroke-linecap="round" stroke-linejoin="round" stroke-width=".5" d="M409.998 516.24v16.42c.026.226 0 .454-.075.668-.075.214-.197.409-.358.569-.16.161-.355.283-.569.358-.214.075-.442.101-.668.075h-12.22"/>
    <path fill="#FDF3E8" d="M394.438 519.31l4.74-4.74v4.74h-4.74z"/>
    <path fill="#70888E" d="M473.298 515.66h-47.23c-1.988 0-3.6 1.612-3.6 3.6s1.612 3.6 3.6 3.6h47.23c1.988 0 3.6-1.612 3.6-3.6s-1.612-3.6-3.6-3.6zM520.798 528.44h-95.39c-1.623 0-2.94 1.316-2.94 2.94v.01c0 1.624 1.317 2.94 2.94 2.94h95.39c1.624 0 2.94-1.316 2.94-2.94v-.01c0-1.624-1.316-2.94-2.94-2.94zM520.798 538.01h-95.39c-1.623 0-2.94 1.316-2.94 2.94v.01c0 1.623 1.317 2.94 2.94 2.94h95.39c1.624 0 2.94-1.317 2.94-2.94v-.01c0-1.624-1.316-2.94-2.94-2.94z"/>
    <path fill="#8CA6AD" fill-rule="evenodd" d="M375.448 428h164.84c3 0 5.36 2 5.36 4.54v52.25c0 2.51-2.4 4.54-5.36 4.54h-164.84c-3 0-5.36-2-5.36-4.54v-52.23c0-2.51 2.4-4.56 5.36-4.56z" clip-rule="evenodd"/>
    <path stroke="#000" stroke-miterlimit="10" stroke-width=".5" d="M545.648 484.81c0 2.51-2.4 4.54-5.36 4.54h-164.84c-3 0-5.36-2-5.36-4.54v-52.25"/>
    <path fill="#70888E" d="M473.298 444.33h-47.23c-1.988 0-3.6 1.612-3.6 3.6s1.612 3.6 3.6 3.6h47.23c1.988 0 3.6-1.612 3.6-3.6s-1.612-3.6-3.6-3.6zM520.798 457.1h-95.39c-1.623 0-2.94 1.316-2.94 2.94v.01c0 1.624 1.317 2.94 2.94 2.94h95.39c1.624 0 2.94-1.316 2.94-2.94v-.01c0-1.624-1.316-2.94-2.94-2.94zM520.798 466.68h-95.39c-1.623 0-2.94 1.316-2.94 2.94v.01c0 1.624 1.317 2.94 2.94 2.94h95.39c1.624 0 2.94-1.316 2.94-2.94v-.01c0-1.624-1.316-2.94-2.94-2.94z"/>
    <path fill="#F7C5A8" d="M393.618 461.37c1.037 1.037 2.444 1.619 3.91 1.619 1.467 0 2.873-.582 3.91-1.619l3.13-3.13-1.57-1.56-3.13 3.13c-.308.308-.675.553-1.078.72-.403.167-.835.253-1.272.253-.436 0-.868-.086-1.272-.253-.403-.167-.769-.412-1.078-.72-.308-.309-.553-.675-.72-1.078-.167-.404-.253-.836-.253-1.272 0-.437.086-.869.253-1.272s.412-.77.72-1.078l3.13-3.13-1.56-1.56-3.13 3.13c-1.035 1.038-1.616 2.445-1.614 3.912.002 1.466.586 2.872 1.624 3.908zm17.22-9.37c1.037-1.039 1.619-2.446 1.618-3.914-.001-1.467-.585-2.874-1.623-3.911s-2.446-1.619-3.913-1.618c-1.468.001-2.875.584-3.912 1.623l-3.13 3.13 1.56 1.56 3.13-3.13c.623-.624 1.469-.974 2.35-.974.882 0 1.727.35 2.35.974.623.623.974 1.468.974 2.35 0 .881-.351 1.726-.974 2.35l-3.13 3.13 1.56 1.56 3.14-3.13z"/>
    <path fill="#FDF3E8" d="M398.308 458.25l-1.56-1.57 9.39-9.39 1.57 1.56-9.4 9.4z"/>
    <path stroke="#000" stroke-miterlimit="10" stroke-width=".5" d="M396.748 450.42l-3.13 3.13c-1.037 1.037-1.619 2.443-1.619 3.91 0 1.466.582 2.873 1.619 3.91M407.698 455.11l3.14-3.13c1.032-1.039 1.611-2.445 1.611-3.91 0-1.465-.579-2.87-1.611-3.91M398.308 458.25l-1.56-1.57 9.39-9.39"/>
    <g opacity=".9">
        <path fill="#8CA6AD" fill-rule="evenodd" d="M375.448 356.68h164.84c3 0 5.36 2 5.36 4.54v52.25c0 2.51-2.4 4.55-5.36 4.55h-164.84c-3 0-5.36-2-5.36-4.55v-52.25c0-2.51 2.4-4.54 5.36-4.54z" clip-rule="evenodd" opacity=".9"/>
        <path stroke="#000" stroke-miterlimit="10" stroke-width=".5" d="M545.648 413.47c0 2.51-2.4 4.55-5.36 4.55h-164.84c-3 0-5.36-2-5.36-4.55v-52.25" opacity=".9"/>
    </g>
    <g opacity=".9">
        <path fill="#F7C5A8" d="M394.438 376.64V390c-.027.226-.002.456.072.671.074.216.196.412.357.573.16.162.355.285.57.361.215.075.445.101.671.075h12.23c.226.024.454-.003.668-.079.214-.076.407-.2.567-.361.159-.161.28-.357.354-.571.074-.215.098-.444.071-.669v-16.43c.028-.226.003-.455-.071-.67-.074-.215-.196-.411-.357-.572-.161-.16-.357-.283-.572-.357-.215-.074-.444-.098-.67-.071h-9.16l-4.73 4.74z" opacity=".9"/>
        <path stroke="#000" stroke-linecap="round" stroke-linejoin="round" stroke-width=".5" d="M409.998 373.57V390c.027.227.003.456-.071.672-.075.215-.197.411-.357.573-.161.161-.356.284-.571.36-.215.075-.444.101-.671.075h-12.22" opacity=".9"/>
        <path fill="#FDF3E8" d="M394.438 376.64l4.74-4.74v4.74h-4.74z" opacity=".9"/>
    </g>
    <g opacity=".9">
        <path fill="#70888E" d="M473.298 372.99h-47.23c-1.988 0-3.6 1.612-3.6 3.6s1.612 3.6 3.6 3.6h47.23c1.988 0 3.6-1.612 3.6-3.6s-1.612-3.6-3.6-3.6zM520.798 385.77h-95.39c-1.623 0-2.94 1.316-2.94 2.94v.01c0 1.624 1.317 2.94 2.94 2.94h95.39c1.624 0 2.94-1.316 2.94-2.94v-.01c0-1.624-1.316-2.94-2.94-2.94zM520.798 395.34h-95.39c-1.623 0-2.94 1.317-2.94 2.94v.01c0 1.624 1.317 2.94 2.94 2.94h95.39c1.624 0 2.94-1.316 2.94-2.94v-.01c0-1.623-1.316-2.94-2.94-2.94z" opacity=".9"/>
    </g>
    <path fill="#8CA6AD" fill-rule="evenodd" d="M375.448 285.34h164.84c3 0 5.36 2 5.36 4.55v52.25c0 2.51-2.4 4.54-5.36 4.54h-164.84c-3 0-5.36-2-5.36-4.54v-52.25c0-2.51 2.4-4.55 5.36-4.55z" clip-rule="evenodd" opacity=".8"/>
    <path stroke="#000" stroke-miterlimit="10" stroke-width=".5" d="M545.648 342.14c0 2.51-2.4 4.54-5.36 4.54h-164.84c-3 0-5.36-2-5.36-4.54v-52.25" opacity=".8"/>
    <path fill="#70888E" d="M473.298 301.65h-47.23c-1.988 0-3.6 1.612-3.6 3.6s1.612 3.6 3.6 3.6h47.23c1.988 0 3.6-1.612 3.6-3.6s-1.612-3.6-3.6-3.6zM520.798 314.43h-95.39c-1.623 0-2.94 1.316-2.94 2.94v.01c0 1.624 1.317 2.94 2.94 2.94h95.39c1.624 0 2.94-1.316 2.94-2.94v-.01c0-1.624-1.316-2.94-2.94-2.94zM520.798 324.01h-95.39c-1.623 0-2.94 1.316-2.94 2.94v.01c0 1.623 1.317 2.94 2.94 2.94h95.39c1.624 0 2.94-1.317 2.94-2.94v-.01c0-1.624-1.316-2.94-2.94-2.94z" opacity=".8"/>
    <path fill="#F7C5A8" d="M393.618 318.7c1.037 1.037 2.444 1.619 3.91 1.619 1.467 0 2.873-.582 3.91-1.619l3.13-3.13-1.57-1.57-3.13 3.13c-.308.308-.675.553-1.078.72-.403.167-.835.253-1.272.253-.436 0-.868-.086-1.272-.253-.403-.167-.769-.412-1.078-.72-.308-.309-.553-.675-.72-1.078-.167-.404-.253-.836-.253-1.272 0-.437.086-.869.253-1.272s.412-.77.72-1.078l3.13-3.13-1.56-1.56-3.13 3.13c-.514.514-.922 1.125-1.2 1.797-.278.672-.42 1.393-.419 2.12.001.727.145 1.447.425 2.119.279.671.689 1.281 1.204 1.794zm17.22-9.39c1.037-1.039 1.619-2.446 1.618-3.914-.001-1.467-.585-2.874-1.623-3.911s-2.446-1.619-3.913-1.618c-1.468.001-2.875.584-3.912 1.623l-3.13 3.13 1.56 1.56 3.13-3.13c.623-.623 1.469-.974 2.35-.974.882 0 1.727.351 2.35.974s.974 1.468.974 2.35c0 .881-.351 1.727-.974 2.35l-3.13 3.13 1.56 1.56 3.14-3.13z" opacity=".8"/>
    <path fill="#FDF3E8" d="M398.308 315.57l-1.56-1.57 9.39-9.39 1.57 1.56-9.4 9.4z" opacity=".8"/>
    <path stroke="#000" stroke-miterlimit="10" stroke-width=".5" d="M396.748 307.75l-3.13 3.13c-1.037 1.037-1.619 2.443-1.619 3.91 0 1.466.582 2.873 1.619 3.91M407.698 312.44l3.14-3.13c1.032-1.039 1.611-2.445 1.611-3.91 0-1.465-.579-2.87-1.611-3.91M398.308 315.57l-1.56-1.57 9.39-9.39" opacity=".8"/>
    <g opacity=".6">
        <path fill="#8CA6AD" fill-rule="evenodd" d="M375.448 214h164.84c3 0 5.36 2 5.36 4.54v52.26c0 2.51-2.4 4.54-5.36 4.54h-164.84c-3 0-5.36-2-5.36-4.54v-52.25c0-2.55 2.4-4.55 5.36-4.55z" clip-rule="evenodd" opacity=".6"/>
        <path stroke="#000" stroke-miterlimit="10" stroke-width=".5" d="M545.648 270.8c0 2.51-2.4 4.54-5.36 4.54h-164.84c-3 0-5.36-2-5.36-4.54v-52.25" opacity=".6"/>
    </g>
    <g opacity=".6">
        <path fill="#F7C5A8" d="M394.438 234v13.34c-.027.226-.003.455.071.67.074.215.197.411.358.572.16.161.356.283.571.357.215.074.444.099.67.071h12.23c.226.028.455.003.67-.071.215-.074.411-.196.572-.357.161-.161.283-.357.357-.572.074-.215.099-.444.071-.67V230.9c.028-.226.003-.455-.071-.67-.074-.215-.196-.411-.357-.571-.161-.161-.357-.284-.572-.358-.215-.074-.444-.098-.67-.071h-9.16l-4.74 4.77z" opacity=".6"/>
        <path stroke="#000" stroke-linecap="round" stroke-linejoin="round" stroke-width=".5" d="M409.998 230.9v16.41c.028.226.003.455-.071.671-.074.215-.196.41-.357.571-.161.161-.357.283-.572.357-.215.075-.444.099-.67.071h-12.22" opacity=".6"/>
        <path fill="#FDF3E8" d="M394.438 233.97l4.74-4.74v4.74h-4.74z" opacity=".6"/>
    </g>
    <g opacity=".6">
        <path fill="#70888E" d="M473.298 230.32h-47.23c-1.988 0-3.6 1.612-3.6 3.6s1.612 3.6 3.6 3.6h47.23c1.988 0 3.6-1.612 3.6-3.6s-1.612-3.6-3.6-3.6zM520.798 243.1h-95.39c-1.623 0-2.94 1.316-2.94 2.94v.01c0 1.623 1.317 2.94 2.94 2.94h95.39c1.624 0 2.94-1.317 2.94-2.94v-.01c0-1.624-1.316-2.94-2.94-2.94zM520.798 252.67h-95.39c-1.623 0-2.94 1.316-2.94 2.94v.01c0 1.624 1.317 2.94 2.94 2.94h95.39c1.624 0 2.94-1.316 2.94-2.94v-.01c0-1.624-1.316-2.94-2.94-2.94z" opacity=".6"/>
    </g>
    <g opacity=".5">
        <path fill="#8CA6AD" fill-rule="evenodd" d="M375.448 142.67h164.84c3 0 5.36 2 5.36 4.55v52.24c0 2.51-2.4 4.55-5.36 4.55h-164.84c-3 0-5.36-2-5.36-4.55v-52.24c0-2.51 2.4-4.55 5.36-4.55z" clip-rule="evenodd" opacity=".5"/>
        <path stroke="#000" stroke-miterlimit="10" stroke-width=".5" d="M545.648 199.46c0 2.51-2.4 4.55-5.36 4.55h-164.84c-3 0-5.36-2-5.36-4.55v-52.24" opacity=".5"/>
    </g>
    <g opacity=".5">
        <path fill="#70888E" d="M473.298 158.98h-47.23c-1.988 0-3.6 1.612-3.6 3.6s1.612 3.6 3.6 3.6h47.23c1.988 0 3.6-1.612 3.6-3.6s-1.612-3.6-3.6-3.6zM520.798 171.76h-95.39c-1.623 0-2.94 1.316-2.94 2.94v.01c0 1.623 1.317 2.94 2.94 2.94h95.39c1.624 0 2.94-1.317 2.94-2.94v-.01c0-1.624-1.316-2.94-2.94-2.94zM520.798 181.33h-95.39c-1.623 0-2.94 1.316-2.94 2.94v.01c0 1.624 1.317 2.94 2.94 2.94h95.39c1.624 0 2.94-1.316 2.94-2.94v-.01c0-1.624-1.316-2.94-2.94-2.94z" opacity=".5"/>
    </g>
    <path fill="#F7C5A8" d="M393.618 176c1.037 1.037 2.444 1.62 3.91 1.62 1.467 0 2.873-.583 3.91-1.62l3.13-3.13-1.57-1.54-3.13 3.14c-.308.309-.675.554-1.078.721-.403.167-.835.253-1.272.253-.436 0-.868-.086-1.272-.253-.403-.167-.769-.412-1.078-.721-.308-.308-.553-.675-.72-1.078-.167-.403-.253-.835-.253-1.272 0-.436.086-.868.253-1.272.167-.403.412-.769.72-1.078l3.13-3.13-1.56-1.57-3.13 3.13c-1.027 1.039-1.602 2.441-1.6 3.902.002 1.461.58 2.862 1.61 3.898zm17.22-9.39c.98-1.05 1.513-2.439 1.488-3.875-.025-1.436-.606-2.806-1.622-3.821-1.015-1.015-2.385-1.597-3.821-1.622-1.435-.025-2.825.509-3.875 1.488l-3.13 3.13 1.56 1.57 3.13-3.13c.624-.614 1.465-.957 2.34-.954.876.003 1.715.352 2.334.97.62.618.97 1.456.975 2.332.005.875-.336 1.717-.949 2.342l-3.13 3.13 1.56 1.57 3.14-3.13z" opacity=".5"/>
    <path fill="#FDF3E8" d="M398.308 172.9l-1.56-1.56 9.39-9.4 1.57 1.57-9.4 9.39z" opacity=".5"/>
    <path stroke="#000" stroke-miterlimit="10" stroke-width=".5" d="M396.748 165.07l-3.13 3.13c-1.037 1.039-1.62 2.447-1.62 3.915s.583 2.876 1.62 3.915M407.698 169.77l3.14-3.13c1.033-1.041 1.612-2.448 1.612-3.915 0-1.466-.579-2.874-1.612-3.915M398.308 172.9l-1.56-1.56 9.39-9.4" opacity=".5"/>
    <g opacity=".3">
        <path fill="#8CA6AD" fill-rule="evenodd" d="M375.448 71.34h164.84c3 0 5.36 2 5.36 4.54v52.25c0 2.51-2.4 4.54-5.36 4.54h-164.84c-3 0-5.36-2-5.36-4.54V75.88c0-2.51 2.4-4.54 5.36-4.54z" clip-rule="evenodd" opacity=".3"/>
        <path stroke="#000" stroke-miterlimit="10" stroke-width=".5" d="M545.648 128.13c0 2.51-2.4 4.54-5.36 4.54h-164.84c-3 0-5.36-2-5.36-4.54V75.88" opacity=".3"/>
    </g>
    <g opacity=".3">
        <path fill="#F7C5A8" d="M394.438 91.29v13.35c-.027.226-.003.455.071.67.074.216.197.411.358.572.16.161.356.283.571.357.215.074.444.099.67.071h12.23c.226.028.455.003.67-.071.215-.074.411-.196.572-.357.161-.161.283-.356.357-.572.074-.215.099-.444.071-.67V88.23c.027-.226.003-.456-.071-.671-.075-.215-.197-.411-.357-.573-.161-.162-.356-.285-.571-.36-.215-.076-.444-.102-.671-.076h-9.16l-4.74 4.74z" opacity=".3"/>
        <path stroke="#000" stroke-linecap="round" stroke-linejoin="round" stroke-width=".5" d="M409.998 88.23v16.41c.028.226.003.455-.071.67-.074.215-.196.411-.357.572-.161.16-.357.283-.572.357-.215.074-.444.098-.67.071h-12.22" opacity=".3"/>
        <path fill="#FDF3E8" d="M394.438 91.3l4.74-4.74v4.74h-4.74z" opacity=".3"/>
    </g>
    <g opacity=".3">
        <path fill="#70888E" d="M473.298 87.65h-47.23c-1.988 0-3.6 1.612-3.6 3.6s1.612 3.6 3.6 3.6h47.23c1.988 0 3.6-1.612 3.6-3.6s-1.612-3.6-3.6-3.6zM520.798 100.42h-95.39c-1.623 0-2.94 1.316-2.94 2.94v.01c0 1.624 1.317 2.94 2.94 2.94h95.39c1.624 0 2.94-1.316 2.94-2.94v-.01c0-1.624-1.316-2.94-2.94-2.94zM520.798 110h-95.39c-1.623 0-2.94 1.316-2.94 2.94v.01c0 1.624 1.317 2.94 2.94 2.94h95.39c1.624 0 2.94-1.316 2.94-2.94v-.01c0-1.624-1.316-2.94-2.94-2.94z" opacity=".3"/>
    </g>
    <g opacity=".1">
        <path fill="#8CA6AD" fill-rule="evenodd" d="M375.448 0h164.84c3 0 5.36 2 5.36 4.54v52.25c0 2.51-2.4 4.55-5.36 4.55h-164.84c-3 0-5.36-2-5.36-4.55V4.54c0-2.54 2.4-4.54 5.36-4.54z" clip-rule="evenodd" opacity=".1"/>
        <path stroke="#000" stroke-miterlimit="10" stroke-width=".5" d="M545.648 56.79c0 2.51-2.4 4.55-5.36 4.55h-164.84c-3 0-5.36-2-5.36-4.55V4.54" opacity=".1"/>
    </g>
    <g opacity=".1">
        <path fill="#70888E" d="M473.298 16.31h-47.23c-1.988 0-3.6 1.612-3.6 3.6s1.612 3.6 3.6 3.6h47.23c1.988 0 3.6-1.612 3.6-3.6s-1.612-3.6-3.6-3.6zM520.798 29.09h-95.39c-1.623 0-2.94 1.316-2.94 2.94v.01c0 1.624 1.317 2.94 2.94 2.94h95.39c1.624 0 2.94-1.316 2.94-2.94v-.01c0-1.624-1.316-2.94-2.94-2.94zM520.798 38.66h-95.39c-1.623 0-2.94 1.316-2.94 2.94v.01c0 1.624 1.317 2.94 2.94 2.94h95.39c1.624 0 2.94-1.316 2.94-2.94v-.01c0-1.624-1.316-2.94-2.94-2.94z" opacity=".1"/>
    </g>
    <path fill="#F7C5A8" d="M393.618 33.36c1.037 1.037 2.444 1.62 3.91 1.62 1.467 0 2.873-.583 3.91-1.62l3.13-3.13-1.57-1.57-3.13 3.13c-.307.313-.673.563-1.076.733-.404.171-.838.26-1.276.263-.439.002-.873-.082-1.279-.248-.406-.167-.774-.412-1.085-.722-.31-.31-.556-.678-.723-1.083-.168-.405-.253-.84-.252-1.278.002-.439.09-.872.26-1.277.17-.404.419-.77.731-1.078l3.14-3.1-1.56-1.57-3.13 3.13c-1.028 1.038-1.605 2.44-1.605 3.9 0 1.461.577 2.863 1.605 3.9zM410.838 24c1.042-1.04 1.629-2.45 1.631-3.923.002-1.472-.581-2.885-1.621-3.927-1.04-1.042-2.451-1.63-3.923-1.631-1.472-.002-2.885.581-3.927 1.62l-3.13 3.13 1.56 1.57 3.13-3.13c.624-.613 1.465-.956 2.341-.953.875.003 1.714.351 2.333.97.62.618.97 1.456.975 2.331.005.876-.336 1.718-.949 2.343l-3.13 3.13 1.56 1.57 3.15-3.1z" opacity=".1"/>
    <path fill="#FDF3E8" d="M398.308 30.23l-1.56-1.57 9.39-9.39 1.57 1.57-9.4 9.39z" opacity=".1"/>
    <path stroke="#000" stroke-miterlimit="10" stroke-width=".5" d="M407.698 27.1l3.14-3.1c1.033-1.041 1.612-2.449 1.612-3.915 0-1.467-.579-2.874-1.612-3.915m-14.09 6.23l-3.13 3.13c-1.037 1.039-1.62 2.447-1.62 3.915s.583 2.876 1.62 3.915l3.13-10.96zM398.308 30.23l-1.56-1.57 9.39-9.39" opacity=".1"/>
    <path fill="#AF897B" fill-rule="evenodd" d="M256.988 816.12l-3.66-21.17h20.69l-8.71 21.17h-8.32z" clip-rule="evenodd"/>
    <path fill="#8CA6AD" d="M247.368 587.72s-11.25 27.64-7.62 56.29 9.25 84.63 9.25 94.51c0 9.88-1.31 59.27 1.65 61.57 2.96 2.3 23.38 12.85 25 3 1.62-9.85 8.21-102.41 5.09-113.94 0 0 11 15.81 12 21.73.472 3.536 1.484 6.98 3 10.21 1.31 3.3-2.31 4-2.64 7.58-.33 3.58.66 8.23 0 13.17-.66 4.94-31.94 54.33-30.29 58 1.65 3.67 24.69 16.79 28.64 11.85 3.95-4.94 29.31-48.74 35.24-64.21 5.93-15.47 5.27-35.9-4.28-60.27-9.55-24.37-29.64-77.38-28.65-85 .99-7.62-.09-17.22-4-19.64l-42.39 5.15z"/>
    <path stroke="#000" stroke-miterlimit="10" stroke-width=".5" d="M255.328 605.4s-6.26 13.78-1.57 29.12c4.69 15.34 17.52 39.27 27 54.6 0 0 11 15.81 12 21.73.472 3.536 1.484 6.98 3 10.21 1.31 3.3-2.31 4-2.64 7.58-.33 3.58.66 8.23 0 13.17-.66 4.94-31.94 54.33-30.29 58 1.65 3.67 24.69 16.79 28.64 11.85"/>
    <path fill="#F7C5A8" fill-rule="evenodd" d="M254.608 814.61c-.697 1.586-1.129 3.275-1.28 5 .05 1.956.25 3.905.6 5.83l41.55.42c1.11-3.56.53-5.49-1.82-5.8-2.35-.31-4.27-.59-5.81-.83l-19.22-8.8c-.089-.038-.183-.062-.28-.07-.093-.015-.187-.015-.28 0-.089.034-.17.085-.24.15-.074.066-.132.148-.17.24l-1.28 3c-1.636.838-3.426 1.335-5.26 1.46-1.583-.156-3.12-.625-4.52-1.38-.353-.161-.754-.179-1.12-.05-.182.063-.349.162-.491.291-.143.128-.258.285-.339.459l-.04.08z" clip-rule="evenodd"/>
    <path fill="#8CA6AD" fill-rule="evenodd" d="M295.998 823.13c-.048.92-.223 1.828-.52 2.7l-41.55-.42c-.17-.95-.31-1.91-.41-2.87 4.22.39 16.12 1.45 19.52 1.3 4.13-.17 20.67.44 22.96-.71z" clip-rule="evenodd"/>
    <path fill="#AF897B" fill-rule="evenodd" d="M280.608 811.13c-3.71 4.28-3.67 4.21-7.66 8.77l-8.71-6c2.67-5.08 2.18-4.16 4.68-8.74 3.695 2.363 7.61 4.363 11.69 5.97z" clip-rule="evenodd"/>
    <path fill="#FFBF8A" fill-rule="evenodd" d="M264.088 810.86c-1.467.901-2.775 2.04-3.87 3.37-1.068 1.635-2.001 3.354-2.79 5.14l34 23.85c2.93-2.3 3.55-4.22 1.79-5.81-1.76-1.59-3.19-2.9-4.32-4l-10.86-18.13c-.05-.084-.114-.159-.19-.22-.078-.056-.166-.097-.26-.12-.096-.011-.193-.011-.29 0-.095.018-.186.052-.27.1l-2.74 1.75c-1.824-.225-3.582-.828-5.16-1.77-1.224-1.017-2.227-2.273-2.95-3.69-.098-.167-.228-.313-.382-.43-.154-.117-.33-.202-.518-.25-.376-.091-.772-.038-1.11.15l-.08.06z" clip-rule="evenodd"/>
    <path fill="#8CA6AD" fill-rule="evenodd" d="M292.998 841.81c-.475.507-.99.976-1.54 1.4l-34-23.84c.21-.48.73-1.54 1-2 3.47 2.56 15.29 11.47 17.4 12.81 2.47 1.56 14.76 10.5 16.2 11.23.301.16.616.294.94.4z" clip-rule="evenodd"/>
    <path fill="#FFBF8A" d="M243.718 516.68s-5.34.87-3.64 28.77c1.7 27.9 2.38 42.2 12.59 46.28 10.21 4.08 36.75 1.36 37.09-9.19.34-10.55-5.76-21.77-5.76-21.77s16.67-12.93 17-16.68c.33-3.75-9.19-21.77-12.93-23.47-3.74-1.7-10.55-5.45-10.55-5.45s-21.31 4.72-33.8 1.51z"/>
    <path fill="#AF897B" d="M278.048 506.31c8.075 0 14.62-8.694 14.62-19.42 0-10.725-6.545-19.42-14.62-19.42-8.074 0-14.62 8.695-14.62 19.42 0 10.726 6.546 19.42 14.62 19.42z"/>
    <path fill="#000" d="M272.238 484.32s.79-2.82 6.56-2.82l-6.56 2.82zM284.338 479.24s1.47-2.68 6.21-2.42l-6.21 2.42zM276.198 488.4c.751 0 1.36-.609 1.36-1.36 0-.751-.609-1.36-1.36-1.36-.751 0-1.36.609-1.36 1.36 0 .751.609 1.36 1.36 1.36zM288.218 483.51c.751 0 1.36-.609 1.36-1.36 0-.751-.609-1.36-1.36-1.36-.751 0-1.36.609-1.36 1.36 0 .751.609 1.36 1.36 1.36z"/>
    <path fill="#AF897B" d="M277.508 515.17v-8.91l-13.25-12.93-7.66 24.44 20.91-2.6z"/>
    <path fill="#000" d="M294.368 528.63s3.41-19 3.41-30.89-3.67-40.07-19-40.71c-15.33-.64-26.28 2-33 10.44-6.87 8.66-22 46.35-18 51.51 4 5.16 34.58 19.12 35.6 14.64 1.02-4.48.63-34.76 0-46.73 0 0 13.74-6.37 17.31-19.08 0 0 7.67-.05 10.7 13 3.03 13.05-4 26.09-13.93 25.47v8.91s13.87 4.37 16.91 13.44zM392.948 580.28l16.93-41.88h-63.1l-16.92 41.88h63.09z"/>
    <path fill="#456682" d="M390.178 577.77l14.9-36.86h-55.53l-14.89 36.86h55.52z"/>
    <path fill="#000" d="M298.068 588.54h94.88v-8.26h-93.52l-1.36 8.26zM409.878 541.97v-3.57l-16.93 41.88v3.57"/>
    <path fill="#AF897B" d="M262.158 497.852c2.263-.74 3.436-3.361 2.62-5.854-.815-2.494-3.31-3.915-5.573-3.175-2.262.74-3.435 3.361-2.62 5.854.816 2.494 3.311 3.915 5.573 3.175z"/>
    <path stroke="#000" stroke-miterlimit="10" stroke-width=".5" d="M252.668 591.73c10.21 4.08 36.75 1.36 37.09-9.19.34-10.55-5.76-21.77-5.76-21.77s16.67-12.93 17-16.68M277.508 550.22s1.7 6.8 6.47 10.55"/>
    <path fill="#AF897B" d="M263.428 497.15s2.32 8.54 14.62 9.16v3.4s-10.55-.92-14.62-12.56z"/>
    <path fill="#000" fill-rule="evenodd" d="M285.228 496.51c.51 1.75-2.9 3.46-4 .94 1.399.112 2.798-.217 4-.94zM283.048 486.41c.85 3.18 2.63 6 1.75 6.32-.512.212-1.069.291-1.62.23-.516-.043-1.009-.234-1.42-.55 0 0 2.83.7 2.68-.23-.13-.76-1.39-5.77-1.39-5.77z" clip-rule="evenodd"/>
    <path fill="#AF897B" d="M304.428 570.21l2.14 10.63c.923.358 1.901.551 2.89.57 0 0-4.24-8.01-5.03-11.2z"/>
    <path fill="#AF897B" d="M298.458 548s7.13 24.9 7.82 31.13c.69 6.23 3.46 6.93 9.93 4.39s21.71-3.46 24-5.77c2.29-2.31 10.32-4.48 14.58-4.17 4.26.31 3.48 1.58 2.69 2.68 0 0 16.68 4.63-.48 6.3-4.29.42-9.78-.07-13.88 2.34-4.1 2.41-38.44 20.47-43.88 13.77-5.44-6.7-11.91-26.13-13.05-39.67l12.27-11z"/>
    <path fill="#AF897B" d="M335.998 570.15s2.43-1.63 8.2-4.94c1.078-.406 2.271-.381 3.33.07.11 0 5.55 2.34 6.5 3.85 1.35 2.14 1.6 3.33 1 3.34 0 0-6.48-2.62-8.62-2.27-.506.29-.984.624-1.43 1 0 0 .34.61 2.18.54 4.19-.14 3.95 1.06 3.79 1.36-.16.3-2.59.35-4 .39-1.41.04-8.72 1.48-8.72 1.48-6.89 3.12-27.07 8.12-31.69 5.88l-2.14-10.63s8.72 2.88 13 1.46c4.28-1.42 13.11-1.37 18.6-1.53z"/>
</svg>
