<svg width="14" height="14" viewBox="0 0 14 14" fill="none" xmlns="http://www.w3.org/2000/svg">
<path d="M12.333 0.333984H5.66634C4.93101 0.333984 4.33301 0.931984 4.33301 1.66732V4.33398H1.66634C0.931008 4.33398 0.333008 4.93198 0.333008 5.66732V12.334C0.333008 13.0693 0.931008 13.6673 1.66634 13.6673H8.33301C9.06834 13.6673 9.66634 13.0693 9.66634 12.334V9.66732H12.333C13.0683 9.66732 13.6663 9.06932 13.6663 8.33398V1.66732C13.6663 0.931984 13.0683 0.333984 12.333 0.333984ZM1.66634 12.334V5.66732H8.33301L8.33434 12.334H1.66634ZM12.333 8.33398H9.66634V5.66732C9.66634 4.93198 9.06834 4.33398 8.33301 4.33398H5.66634V1.66732H12.333V8.33398Z" fill="#384A51"/>
</svg>
