<svg width="162" height="133" viewBox="0 0 162 133" fill="none" xmlns="http://www.w3.org/2000/svg">
<path d="M6.67712 125.863L6.67712 6.13696C6.67712 4.50925 7.24073 2.94821 8.24397 1.79724C9.2472 0.646286 10.6079 -0.000305348 12.0267 -0.00030541L130.252 -0.000310577L130.252 132L12.0267 132C10.6079 132 9.24721 131.353 8.24397 130.202C7.24074 129.051 6.67712 127.49 6.67712 125.863Z" fill="#FDF3E8"/>
<path d="M6.67712 125.863L6.67712 6.13696C6.67712 4.50925 7.24073 2.94821 8.24397 1.79724C9.2472 0.646286 10.6079 -0.000305348 12.0267 -0.00030541L27.741 -0.000306097L27.741 132L12.0267 132C10.6079 132 9.24721 131.353 8.24397 130.202C7.24074 129.051 6.67712 127.49 6.67712 125.863Z" fill="#F7C5A8"/>
<path d="M6.67712 110.936V126.383C6.67712 129.485 9.19196 132 12.2942 132H130.252V0" stroke="black" stroke-width="0.702129" stroke-miterlimit="10"/>
<path d="M1.06018 21.0645L12.2943 21.0645" stroke="black" stroke-width="0.702129" stroke-linecap="round" stroke-linejoin="round"/>
<path d="M1.06018 32.2988H12.2943" stroke="black" stroke-width="0.702129" stroke-linecap="round" stroke-linejoin="round"/>
<path d="M1.06018 43.5332H12.2943" stroke="black" stroke-width="0.702129" stroke-linecap="round" stroke-linejoin="round"/>
<path d="M1.06018 54.7676H12.2943" stroke="black" stroke-width="0.702129" stroke-linecap="round" stroke-linejoin="round"/>
<path d="M1.06018 66H12.2943" stroke="black" stroke-width="0.702129" stroke-linecap="round" stroke-linejoin="round"/>
<path d="M1.06018 77.2344H12.2943" stroke="black" stroke-width="0.702129" stroke-linecap="round" stroke-linejoin="round"/>
<path d="M1.06018 88.4688H12.2943" stroke="black" stroke-width="0.702129" stroke-linecap="round" stroke-linejoin="round"/>
<path d="M1.06018 99.7031H12.2943" stroke="black" stroke-width="0.702129" stroke-linecap="round" stroke-linejoin="round"/>
<path d="M1.06018 110.938H12.2943" stroke="black" stroke-width="0.702129" stroke-linecap="round" stroke-linejoin="round"/>
<path d="M117.19 8.66406H39.426C38.4015 8.66406 37.5709 9.49212 37.5709 10.5136C37.5709 11.535 38.4015 12.3631 39.426 12.3631H117.19C118.215 12.3631 119.045 11.535 119.045 10.5136C119.045 9.49212 118.215 8.66406 117.19 8.66406Z" fill="#F7C5A8"/>
<path d="M74.7837 47.1602C69.783 47.1602 65.7146 51.2286 65.7146 56.2293C65.7146 61.2301 69.783 65.2985 74.7837 65.2985C79.7845 65.2985 83.8529 61.2301 83.8529 56.2293C83.8529 51.2286 79.7845 47.1602 74.7837 47.1602ZM91.1082 81.623V79.8092C91.1082 72.8096 85.411 67.1123 78.4114 67.1123H71.1561C64.1547 67.1123 58.4592 72.8096 58.4592 79.8092V81.623H62.0869H63.9007C67.0603 81.623 66.1553 81.623 71.1561 81.623H78.4114C83.4121 81.623 80.2252 81.623 85.6667 81.623H87.4806H91.1082Z" fill="#F7C5A8"/>
<path d="M58.6348 81.4469H90.9327V78.6384C90.9327 73.0213 84.6136 67.4043 79.6986 67.4043" stroke="black" stroke-width="0.702129" stroke-linecap="round" stroke-linejoin="round"/>
<path d="M68.3295 62.6253C71.8941 66.1899 77.6735 66.1899 81.238 62.6253C84.8026 59.0607 84.8026 53.2814 81.238 49.7168" stroke="black" stroke-width="0.702129" stroke-linecap="round"/>
<path d="M82.6648 89.7065C83.662 90.7035 85.0143 91.2636 86.4244 91.2636C87.8345 91.2636 89.1868 90.7035 90.184 89.7065L93.1935 86.6969L91.6839 85.1969L88.6743 88.2065C88.3776 88.5033 88.0253 88.7386 87.6376 88.8992C87.2499 89.0598 86.8344 89.1425 86.4148 89.1425C85.9951 89.1425 85.5796 89.0598 85.1919 88.8992C84.8042 88.7386 84.4519 88.5033 84.1552 88.2065C83.8585 87.9098 83.6231 87.5575 83.4625 87.1698C83.3019 86.7821 83.2192 86.3666 83.2192 85.9469C83.2192 85.5273 83.3019 85.1118 83.4625 84.7241C83.6231 84.3364 83.8585 83.9841 84.1552 83.6873L87.1647 80.6778L85.6648 79.1778L82.6552 82.1874C81.6595 83.1858 81.1011 84.5388 81.1029 85.9489C81.1047 87.359 81.6665 88.7106 82.6648 89.7065ZM99.2223 80.697C100.219 79.6986 100.779 78.345 100.778 76.934C100.777 75.523 100.216 74.1701 99.2175 73.173C98.2191 72.1759 96.8656 71.6163 95.4545 71.6172C94.0435 71.6181 92.6907 72.1795 91.6936 73.1779L88.684 76.1874L90.184 77.6874L93.1935 74.6778C93.7928 74.0786 94.6056 73.7419 95.4531 73.7419C96.3006 73.7419 97.1134 74.0786 97.7127 74.6778C98.312 75.2771 98.6487 76.0899 98.6487 76.9374C98.6487 77.7849 98.312 78.5977 97.7127 79.197L94.7031 82.2066L96.2031 83.7066L99.2223 80.697Z" fill="#8CA6AD"/>
<path d="M87.1743 86.7043L85.6743 85.1947L94.7031 76.166L96.2126 77.666L87.1743 86.7043Z" fill="#8CA6AD"/>
<path d="M85.6747 79.1797L82.6651 82.1892C81.6681 83.1864 81.108 84.5387 81.108 85.9488C81.108 87.3589 81.6681 88.7112 82.6651 89.7084" stroke="black" stroke-width="0.702129" stroke-miterlimit="10"/>
<path d="M96.2035 83.6869L99.2227 80.6774C100.215 79.6777 100.772 78.3263 100.772 76.9178C100.772 75.5092 100.215 74.1578 99.2227 73.1582" stroke="black" stroke-width="0.702129" stroke-miterlimit="10"/>
<path d="M87.1743 86.7043L85.6743 85.1947L94.7031 76.166" stroke="black" stroke-width="0.702129" stroke-miterlimit="10"/>
<path d="M151.089 117.904C149.974 116.793 148.167 116.793 147.053 117.904C145.938 119.015 145.938 120.817 147.053 121.928L155.765 130.615C156.88 131.726 158.687 131.726 159.802 130.615C160.916 129.503 160.916 127.702 159.802 126.59L151.089 117.904Z" fill="#F7C5A8"/>
<path d="M159.801 130.605C159.537 130.87 159.222 131.081 158.876 131.224C158.53 131.368 158.158 131.442 157.783 131.442C157.408 131.442 157.036 131.368 156.69 131.224C156.344 131.081 156.029 130.87 155.765 130.605L147.056 121.93C146.787 121.664 146.573 121.348 146.427 120.999C146.281 120.65 146.206 120.276 146.206 119.898C146.206 119.52 146.281 119.146 146.427 118.797C146.573 118.448 146.787 118.131 147.056 117.865" stroke="black" stroke-miterlimit="10"/>
<path d="M131.93 119.898C144.85 116.446 152.517 103.206 149.056 90.3245C145.594 77.4433 132.314 69.7989 119.394 73.2505C106.474 76.702 98.8064 89.9423 102.268 102.824C105.73 115.705 119.01 123.349 131.93 119.898Z" fill="#8CA6AD"/>
<path d="M108.534 79.4925C113.091 75.0397 119.227 72.56 125.608 72.5921C131.989 72.6242 138.099 75.1657 142.611 79.6641C147.123 84.1625 149.672 90.2545 149.704 96.6162C149.736 102.978 147.249 109.095 142.783 113.639" stroke="black" stroke-miterlimit="10"/>
<path d="M137.67 84.5977C140.853 87.7733 142.642 92.0794 142.642 96.5692C142.642 101.059 140.853 105.365 137.67 108.541" stroke="black" stroke-miterlimit="10"/>
<path d="M129.573 80.0938C131.243 80.4854 132.844 81.1297 134.318 82.0043" stroke="black" stroke-miterlimit="10"/>
<path d="M147.056 117.899L142.783 113.646" stroke="black" stroke-miterlimit="10"/>
</svg>
