<svg width="16" height="16" viewBox="0 0 16 16" fill="none" xmlns="http://www.w3.org/2000/svg">
<path d="M13.3335 2.66602H2.66683C1.9315 2.66602 1.3335 3.26402 1.3335 3.99935V11.9993C1.3335 12.7347 1.9315 13.3327 2.66683 13.3327H13.3335C14.0688 13.3327 14.6668 12.7347 14.6668 11.9993V3.99935C14.6668 3.26402 14.0688 2.66602 13.3335 2.66602ZM13.3335 3.99935V4.34002L8.00016 8.48868L2.66683 4.34068V3.99935H13.3335ZM2.66683 11.9993V6.02868L7.59083 9.85868C7.71083 9.95268 7.8555 9.99935 8.00016 9.99935C8.14483 9.99935 8.2895 9.95268 8.4095 9.85868L13.3335 6.02868L13.3348 11.9993H2.66683Z" fill="#767676"/>
</svg>
