<svg width="99" height="32" viewBox="0 0 99 32" fill="none" xmlns="http://www.w3.org/2000/svg">
<path d="M11.7447 11.7414L17.8234 13.356C17.9283 13.3874 18.0238 13.4444 18.1012 13.5218C18.1787 13.5992 18.2357 13.6947 18.2671 13.7996L19.9665 19.5173V23.1723C19.9665 23.7605 19.7327 24.3246 19.3167 24.7406C18.9006 25.1565 18.3364 25.3902 17.748 25.3902H4.43699C3.26023 25.3902 2.13166 24.9228 1.29957 24.091C0.467468 23.2591 0 22.1309 0 20.9544L0 4.43574C0 3.25931 0.467468 2.13106 1.29957 1.2992C2.13166 0.467336 3.26023 0 4.43699 0L15.5295 0C16.7062 0 17.8348 0.467336 18.6669 1.2992C19.499 2.13106 19.9665 3.25931 19.9665 4.43574V5.87292H8.09307C7.50469 5.87292 6.94041 6.10659 6.52436 6.52252C6.10831 6.93845 5.87458 7.50257 5.87458 8.09079V18.9317C5.87458 19.1082 5.9447 19.2774 6.06951 19.4022C6.19433 19.527 6.36361 19.5971 6.54013 19.5971H11.0925C11.269 19.5971 11.4383 19.527 11.5631 19.4022C11.6879 19.2774 11.758 19.1082 11.758 18.9317L11.7447 11.7414Z" fill="#384A51"/>
<path d="M21.8389 5.87256H8.08422C7.49584 5.87256 6.93155 6.10623 6.51551 6.52216C6.09946 6.93809 5.86572 7.50221 5.86572 8.09043V18.9314C5.86572 19.1078 5.93584 19.2771 6.06066 19.4019C6.18547 19.5266 6.35476 19.5967 6.53127 19.5967H11.0925C11.269 19.5967 11.4383 19.5266 11.5631 19.4019C11.6879 19.2771 11.758 19.1078 11.758 18.9314V11.741H19.3009C19.3895 11.741 19.4771 11.7587 19.5587 11.7929C19.6404 11.8272 19.7143 11.8774 19.7763 11.9406C19.8383 12.0038 19.887 12.0787 19.9197 12.161C19.9524 12.2433 19.9683 12.3312 19.9665 12.4197V23.1897C19.9665 23.7779 19.7328 24.342 19.3167 24.758C18.9007 25.1739 18.3364 25.4076 17.748 25.4076H5.8746V26.8403C5.8746 28.0167 6.34206 29.145 7.17416 29.9768C8.00626 30.8087 9.13483 31.276 10.3116 31.276H21.8478C23.0245 31.276 24.1531 30.8087 24.9852 29.9768C25.8173 29.145 26.2848 28.0167 26.2848 26.8403V10.3083C26.2848 9.13187 25.8173 8.00362 24.9852 7.17176C24.1531 6.33989 23.0245 5.87256 21.8478 5.87256H21.8389Z" fill="#7F9DA5"/>
<path d="M10.3117 30.8372H21.8478C22.9069 30.8372 23.9226 30.4166 24.6715 29.6679C25.4204 28.9192 25.8411 27.9038 25.8411 26.845V10.3086C25.8411 9.24978 25.4204 8.23436 24.6715 7.48569C23.9226 6.73701 22.9069 6.31641 21.8478 6.31641H8.09316C7.62245 6.31641 7.17103 6.50334 6.83819 6.83609C6.50535 7.16883 6.31836 7.62013 6.31836 8.0907V18.9317C6.31836 18.9905 6.34174 19.0469 6.38334 19.0885C6.42495 19.1301 6.48137 19.1534 6.54021 19.1534H11.0926C11.1514 19.1534 11.2078 19.1301 11.2494 19.0885C11.291 19.0469 11.3144 18.9905 11.3144 18.9317V11.2977H19.301C19.4478 11.2977 19.5931 11.3269 19.7286 11.3834C19.864 11.44 19.9869 11.5228 20.0901 11.6272C20.1933 11.7316 20.2747 11.8554 20.3297 11.9915C20.3846 12.1276 20.412 12.2732 20.4103 12.42V23.19C20.4103 23.8958 20.1298 24.5728 19.6305 25.0719C19.1313 25.571 18.4541 25.8514 17.7481 25.8514H6.31836V26.8406C6.31778 27.3652 6.42064 27.8848 6.62106 28.3697C6.82148 28.8545 7.11553 29.2952 7.4864 29.6663C7.85727 30.0375 8.29768 30.332 8.78246 30.5329C9.26724 30.7338 9.78688 30.8372 10.3117 30.8372Z" fill="#8CA6AD"/>
<path d="M38.3089 5.98399C36.8244 5.91375 35.37 6.41905 34.2491 7.39456C33.233 8.32606 32.7139 9.72332 32.7139 11.5464V20.4046C32.7139 22.2099 33.2019 23.5983 34.1648 24.5298C35.1276 25.4613 36.4543 25.9404 38.1092 25.9404C39.5743 25.994 41.004 25.4826 42.1025 24.5121C43.1275 23.5717 43.6466 22.1878 43.6466 20.4046V15.4587H38.3089V17.9915H40.3766V20.2094C40.4208 20.942 40.2329 21.67 39.8397 22.2898C39.6494 22.5393 39.4003 22.7379 39.1147 22.8679C38.829 22.998 38.5156 23.0553 38.2024 23.035C36.7249 23.035 35.9839 22.0281 35.9839 20.0364V12.1142C35.9364 11.2952 36.1193 10.4792 36.5119 9.75881C36.699 9.48331 36.9554 9.26198 37.2553 9.11713C37.5552 8.97228 37.888 8.90903 38.2202 8.93376C38.5135 8.92315 38.8056 8.97591 39.0767 9.08844C39.3478 9.20097 39.5914 9.37062 39.7909 9.58581C40.2085 10.0948 40.4178 10.743 40.3766 11.4V11.8835H43.6511V11.4C43.6511 9.62574 43.1541 8.25509 42.178 7.3502C41.1123 6.41386 39.7264 5.9245 38.3089 5.98399Z" fill="#384A51"/>
<path d="M51.0966 5.98419C49.6105 5.91279 48.1544 6.41817 47.0323 7.39476C46.0162 8.32626 45.4971 9.72352 45.4971 11.5466V20.4048C45.4971 22.2101 45.9851 23.5985 46.948 24.53C47.9108 25.4615 49.2375 25.9406 50.8925 25.9406C52.3652 26.0004 53.804 25.4886 54.9079 24.5123C55.9329 23.5719 56.4564 22.188 56.4564 20.4048V11.5333C56.4564 9.71022 55.9639 8.31296 54.9922 7.37702C53.9286 6.41665 52.5281 5.91594 51.0966 5.98419ZM51.0078 23.0174C49.5303 23.0174 48.7893 22.0105 48.7893 20.0189V12.1144C48.7364 11.2971 48.9131 10.4812 49.2996 9.75901C49.486 9.47749 49.7443 9.25091 50.0478 9.10273C50.3513 8.95455 50.6888 8.89015 51.0256 8.91622C51.3488 8.8994 51.6707 8.96804 51.9589 9.11522C52.2471 9.2624 52.4914 9.48293 52.6672 9.75457C53.0652 10.4747 53.2499 11.2932 53.1997 12.1144V20.0189C53.2427 20.7896 53.0509 21.5552 52.6495 22.2146C52.4692 22.4751 52.2255 22.6855 51.9414 22.826C51.6573 22.9664 51.3421 23.0323 51.0256 23.0174H51.0078Z" fill="#384A51"/>
<path d="M60.2765 26.5518H61.6076C61.6114 26.7505 61.6544 26.9465 61.7344 27.1285C61.8144 27.3105 61.9296 27.4748 62.0735 27.6119C62.3914 27.8896 62.8057 28.0313 63.2271 28.0067C63.4729 28.0281 63.7202 27.9877 63.9464 27.8893C64.1727 27.791 64.3708 27.6377 64.5227 27.4434C64.8228 26.9235 64.9589 26.3252 64.9132 25.7267V24.1831C64.713 24.5326 64.4203 24.8202 64.0673 25.0143C63.7143 25.2083 63.3146 25.3014 62.9121 25.2832C62.5339 25.2952 62.158 25.2217 61.8122 25.0681C61.4665 24.9144 61.1599 24.6847 60.9155 24.396C60.4096 23.8046 60.1567 22.9174 60.1567 21.7346V18.838C60.1567 17.6552 60.4096 16.768 60.9155 16.1766C61.1599 15.8879 61.4665 15.6582 61.8122 15.5046C62.158 15.3509 62.5339 15.2774 62.9121 15.2894C63.3224 15.2749 63.7284 15.3773 64.0827 15.5846C64.437 15.7919 64.725 16.0957 64.9132 16.4605V15.458H66.2931V25.5981C66.3429 26.5373 66.074 27.4657 65.5299 28.2329C65.2485 28.5668 64.8917 28.8289 64.489 28.9978C64.0863 29.1667 63.6493 29.2375 63.2138 29.2044C62.4375 29.2516 61.6729 28.9974 61.0796 28.4946C60.8208 28.2423 60.6161 27.9399 60.4781 27.6058C60.34 27.2718 60.2714 26.9132 60.2765 26.5518ZM64.9132 21.5705V19.0199C64.9132 17.3609 64.3334 16.5315 63.1739 16.5315C62.9419 16.5219 62.711 16.5686 62.5009 16.6675C62.2907 16.7663 62.1076 16.9144 61.967 17.0992C61.6242 17.6717 61.469 18.3371 61.5233 19.0022V21.5705C61.4665 22.2323 61.612 22.8959 61.9404 23.4734C62.0814 23.6622 62.2671 23.813 62.4809 23.9121C62.6947 24.0112 62.9298 24.0556 63.165 24.0412C63.4167 24.055 63.6678 24.0044 63.8945 23.8942C64.1212 23.784 64.3161 23.6178 64.4606 23.4113C64.7965 22.8585 64.9544 22.2159 64.9132 21.5705Z" fill="#384A51"/>
<path d="M68.0945 22.5239V18.86C68.0945 17.6298 68.3711 16.7293 68.9242 16.1586C69.231 15.8607 69.5967 15.6302 69.9979 15.482C70.399 15.3338 70.8268 15.2712 71.2536 15.2981C71.6743 15.276 72.0948 15.3437 72.4872 15.4967C72.8797 15.6497 73.2351 15.8844 73.5298 16.1852C74.0741 16.7767 74.3477 17.6742 74.3506 18.8777V22.5416C74.3506 23.757 74.077 24.6545 73.5298 25.2341C73.2344 25.5341 72.8789 25.7682 72.4866 25.9211C72.0943 26.074 71.6741 26.1422 71.2536 26.1213C70.8269 26.1474 70.3993 26.0843 69.9983 25.9362C69.5972 25.788 69.2314 25.558 68.9242 25.2607C68.3711 24.6664 68.0945 23.7541 68.0945 22.5239ZM72.9752 22.3598V19.0197C73.0329 18.3515 72.8776 17.6823 72.5315 17.1079C72.3781 16.9144 72.1801 16.7609 71.9545 16.6605C71.7289 16.5601 71.4823 16.5157 71.2359 16.5312C70.9891 16.5169 70.7425 16.5608 70.5159 16.6595C70.2892 16.7581 70.089 16.9087 69.9314 17.099C69.6252 17.476 69.4877 18.1148 69.4877 19.0197V22.3598C69.4877 23.2469 69.6386 23.9078 69.9314 24.2849C70.0897 24.4724 70.2897 24.6203 70.5155 24.7166C70.7413 24.8129 70.9865 24.8549 71.2314 24.8394C71.4779 24.8548 71.7245 24.8105 71.9501 24.7101C72.1757 24.6097 72.3736 24.4562 72.527 24.2627C72.8719 23.691 73.0272 23.025 72.9707 22.3598H72.9752Z" fill="#384A51"/>
<path d="M77.0439 15.4575L79.005 23.739L80.9485 15.4575H82.4482L79.675 25.9214H78.2996L75.5442 15.4575H77.0439Z" fill="#384A51"/>
<path d="M84.9376 23.1097V22.9899H86.2154V23.1097C86.2017 23.346 86.2376 23.5825 86.3209 23.8041C86.4042 24.0257 86.5331 24.2273 86.6991 24.3961C87.0698 24.685 87.5246 24.8453 87.9946 24.8525C88.4646 24.8597 88.9242 24.7135 89.3036 24.436C89.5813 24.121 89.7467 23.7229 89.774 23.304C89.8013 22.885 89.6889 22.4688 89.4544 22.1205C89.1478 21.8038 88.773 21.5611 88.3585 21.4108L87.0274 20.8652C85.6904 20.3122 85.0219 19.4014 85.0219 18.1328C85.0048 17.7485 85.0691 17.3649 85.2106 17.0072C85.352 16.6495 85.5674 16.3256 85.8427 16.0569C86.1429 15.7873 86.4935 15.58 86.8742 15.4467C87.255 15.3135 87.6585 15.257 88.0612 15.2806C88.4588 15.2592 88.8566 15.3181 89.2309 15.4537C89.6052 15.5894 89.9483 15.799 90.2398 16.0702C90.5115 16.3507 90.7226 16.684 90.86 17.0496C90.9974 17.4151 91.0581 17.8049 91.0384 18.1949V18.4566H89.7606V18.3368C89.7934 17.8373 89.6348 17.3441 89.3169 16.9573C88.9809 16.6584 88.5503 16.4875 88.1008 16.4745C87.6512 16.4615 87.2115 16.6073 86.8588 16.8864C86.7087 17.0354 86.5917 17.2142 86.5152 17.4114C86.4388 17.6086 86.4047 17.8196 86.4151 18.0308C86.409 18.3703 86.5082 18.7035 86.6991 18.9845C86.958 19.3077 87.3023 19.552 87.693 19.6897L89.024 20.2398C89.6356 20.4658 90.1857 20.832 90.6302 21.3088C91.019 21.8153 91.2099 22.4461 91.1671 23.0831C91.192 23.491 91.1302 23.8996 90.9856 24.2819C90.8411 24.6642 90.6171 25.0115 90.3285 25.301C89.6879 25.8571 88.855 26.1404 88.008 26.0905C87.6038 26.1104 87.1996 26.0501 86.8189 25.913C86.4381 25.776 86.0883 25.565 85.7895 25.2921C85.5042 25.007 85.2812 24.6659 85.1345 24.2902C84.9879 23.9146 84.9208 23.5126 84.9376 23.1097Z" fill="#384A51"/>
<path d="M92.995 26.5517H94.3261C94.3299 26.7504 94.3729 26.9464 94.4529 27.1284C94.5329 27.3104 94.6481 27.4747 94.792 27.6118C95.1104 27.8887 95.5243 28.0303 95.9456 28.0066C96.1914 28.028 96.4387 27.9876 96.6649 27.8892C96.8912 27.7909 97.0893 27.6376 97.2412 27.4433C97.5351 26.9215 97.665 26.3233 97.614 25.7267V24.183C97.4151 24.5298 97.1253 24.8156 96.7757 25.0095C96.4261 25.2034 96.0301 25.298 95.6306 25.2831C95.2525 25.2951 94.8765 25.2216 94.5307 25.068C94.185 24.9143 93.8784 24.6846 93.634 24.3959C93.1281 23.8045 92.8752 22.9174 92.8752 21.7345V18.838C92.8752 17.6551 93.1281 16.7679 93.634 16.1765C93.8784 15.8878 94.185 15.6581 94.5307 15.5045C94.8765 15.3509 95.2525 15.2773 95.6306 15.2894C96.0389 15.279 96.4417 15.3843 96.7926 15.5931C97.1436 15.8019 97.4283 16.1056 97.614 16.4693V15.4579H98.9939V25.598C99.0449 26.5367 98.7776 27.465 98.2351 28.2329C97.9528 28.5667 97.5952 28.8289 97.1918 28.9978C96.7884 29.1666 96.3507 29.2374 95.9146 29.2043C95.1383 29.2515 94.3737 28.9973 93.7804 28.4946C93.5248 28.2407 93.3234 27.9376 93.1884 27.6037C93.0534 27.2697 92.9876 26.9118 92.995 26.5517ZM97.614 21.5704V19.0198C97.614 17.3608 97.0371 16.5314 95.8746 16.5314C95.6426 16.5219 95.4117 16.5685 95.2016 16.6674C94.9915 16.7662 94.8084 16.9143 94.6678 17.0991C94.3249 17.6716 94.1698 18.337 94.2241 19.0021V21.5704C94.1695 22.2321 94.3148 22.895 94.6412 23.4733C94.7821 23.6621 94.9679 23.8129 95.1817 23.912C95.3954 24.0111 95.6306 24.0555 95.8658 24.0411C96.119 24.0565 96.3718 24.0066 96.6002 23.8963C96.8286 23.7861 97.0249 23.619 97.1703 23.4112C97.503 22.8574 97.6579 22.2149 97.614 21.5704Z" fill="#384A51"/>
<path d="M58.4886 24.4536H57.6455C57.4617 24.4536 57.3127 24.6026 57.3127 24.7863V25.6291C57.3127 25.8128 57.4617 25.9618 57.6455 25.9618H58.4886C58.6723 25.9618 58.8213 25.8128 58.8213 25.6291V24.7863C58.8213 24.6026 58.6723 24.4536 58.4886 24.4536Z" fill="#384A51"/>
<path d="M83.2554 24.4536H82.4124C82.2286 24.4536 82.0796 24.6026 82.0796 24.7863V25.6291C82.0796 25.8128 82.2286 25.9618 82.4124 25.9618H83.2554C83.4392 25.9618 83.5882 25.8128 83.5882 25.6291V24.7863C83.5882 24.6026 83.4392 24.4536 83.2554 24.4536Z" fill="#384A51"/>
</svg>
