<svg width="765" height="419" viewBox="0 -68 765 419" fill="none" xmlns="http://www.w3.org/2000/svg">
<g clip-path="url(#clip0_4_2)">
<path d="M48.81 255.73H765V353.35H48.81C35.8648 353.35 23.4498 348.208 14.2961 339.054C5.14247 329.9 0 317.485 0 304.54H0C0 291.595 5.14247 279.18 14.2961 270.026C23.4498 260.872 35.8648 255.73 48.81 255.73V255.73Z" fill="#FDF3E8"/>
<path d="M48.81 255.73H103V353.35H48.81C35.8648 353.35 23.4498 348.208 14.2961 339.054C5.14247 329.9 0 317.485 0 304.54H0C0 291.595 5.14247 279.18 14.2961 270.026C23.4498 260.872 35.8648 255.73 48.81 255.73V255.73Z" fill="#6D4558"/>
<path d="M48.81 255.73H103V353.35H48.81C35.8648 353.35 23.4498 348.208 14.2961 339.054C5.14247 329.9 0 317.485 0 304.54H0C0 291.595 5.14247 279.18 14.2961 270.026C23.4498 260.872 35.8648 255.73 48.81 255.73V255.73Z" stroke="#472F40" stroke-linecap="round" stroke-linejoin="round"/>
<path d="M765 353.35H48.81C35.8648 353.35 23.4498 348.208 14.2961 339.054C5.14247 329.9 0 317.485 0 304.54H0C0 291.595 5.14247 279.18 14.2961 270.026C23.4498 260.872 35.8648 255.73 48.81 255.73H765" stroke="#472F40" stroke-linecap="round" stroke-linejoin="round"/>
<path d="M63.7999 300.89H51.2199C50.0933 300.89 49.1799 301.803 49.1799 302.93V311.29C49.1799 312.417 50.0933 313.33 51.2199 313.33H63.7999C64.9266 313.33 65.8399 312.417 65.8399 311.29V302.93C65.8399 301.803 64.9266 300.89 63.7999 300.89Z" fill="#FDF3E8"/>
<path d="M54.4299 297.7C54.4747 296.915 54.8182 296.176 55.39 295.636C55.9617 295.096 56.7184 294.795 57.5049 294.795C58.2914 294.795 59.0481 295.096 59.6199 295.636C60.1916 296.176 60.5351 296.915 60.5799 297.7V300.86H62.7099V297.79C62.7407 297.087 62.6289 296.386 62.3812 295.727C62.1336 295.069 61.7551 294.468 61.2688 293.959C60.7824 293.451 60.1982 293.047 59.5513 292.771C58.9044 292.494 58.2083 292.352 57.5049 292.352C56.8015 292.352 56.1054 292.494 55.4585 292.771C54.8117 293.047 54.2274 293.451 53.7411 293.959C53.2547 294.468 52.8763 295.069 52.6286 295.727C52.3809 296.386 52.2691 297.087 52.2999 297.79V300.86H54.4299V297.7Z" fill="#FDF3E8"/>
<path d="M406.44 170.31C406.93 191.24 413.73 201.9 419.31 207.66C435.87 224.74 466.04 223.77 477.45 240.6C478.86 242.67 483.29 249.21 481.05 252.48C479.81 254.31 476.97 254.48 476.05 254.48C470.34 254.71 466.6 249.55 466.15 248.9C456.217 242.503 445.859 236.79 435.15 231.8C412.34 221.17 402.97 220.86 395.55 212.18C389.44 205.03 384.49 191.99 390.33 166.1C393.474 164.771 396.997 164.643 400.23 165.74C402.698 166.631 404.855 168.219 406.44 170.31V170.31Z" fill="#D2A186"/>
<path d="M419.31 207.66C414.953 203.074 411.701 197.554 409.8 191.52V191.52C410.669 197.438 412.875 203.081 416.25 208.02C430.03 227.74 455.8 222.31 473.13 242.58C475.927 245.859 478.265 249.502 480.08 253.41C480.472 253.17 480.812 252.854 481.08 252.48C483.32 249.21 478.89 242.67 477.48 240.6C466 223.77 435.87 224.74 419.31 207.66Z" fill="#C2866F"/>
<path d="M406.44 170.31C406.93 191.24 413.73 201.9 419.31 207.66C435.87 224.74 466.04 223.77 477.45 240.6C478.86 242.67 483.29 249.21 481.05 252.48C479.81 254.31 476.97 254.48 476.05 254.48C470.34 254.71 466.6 249.55 466.15 248.9C456.217 242.503 445.859 236.79 435.15 231.8C412.34 221.17 402.97 220.86 395.55 212.18C389.44 205.03 384.49 191.99 390.33 166.1C393.474 164.771 396.997 164.643 400.23 165.74C402.698 166.631 404.855 168.219 406.44 170.31V170.31Z" stroke="#472F40" stroke-linecap="round" stroke-linejoin="round"/>
<path d="M465.21 321.12C463.61 326.23 454.77 354.53 447.29 378.47C445.24 378.21 443.18 377.93 441.09 377.64C437.51 377.14 434 376.607 430.56 376.04C432.07 368.44 433.45 360.42 434.61 352.04C436.527 338.191 437.729 324.253 438.21 310.28L438.93 269.96C431.25 267.66 399.64 257.26 387.63 228.02C385.508 222.837 384.115 217.385 383.49 211.82C388.334 209.213 393.939 208.385 399.33 209.48C401.55 209.981 403.677 210.832 405.63 212C410.377 215.253 415.327 218.199 420.45 220.82C439.13 230.39 448.93 229.94 459.99 239.36C464.817 243.61 468.844 248.69 471.88 254.36C480.74 271.61 474.93 290.05 465.21 321.12Z" fill="#8ABAF1"/>
<path d="M465.21 289.92C456.58 288.09 446.31 293.12 438.34 303.33L438.21 310.26C437.8 322.31 436.8 335.49 434.94 349.58C443.431 343.689 451.248 336.881 458.25 329.28C460.79 326.53 463.1 323.8 465.25 321.12C468.54 310.62 471.38 301.57 473.35 293.51C470.887 291.811 468.125 290.593 465.21 289.92V289.92Z" fill="#6986C5"/>
<path d="M405.23 219C407.259 218.065 409.144 216.846 410.83 215.38C408.77 214.1 407.02 212.94 405.63 211.99C403.677 210.822 401.55 209.971 399.33 209.47C398.91 209.38 398.48 209.3 398.06 209.23C397.39 210 397.32 210.99 397.22 212.4C397.13 213.61 396.94 216.4 398.93 218.4C399.927 219.343 401.206 219.933 402.57 220.08C403.479 219.777 404.367 219.416 405.23 219V219Z" fill="#6986C5"/>
<path d="M461.18 411.72L430.74 399.08C429.369 398.508 428.246 397.466 427.573 396.141C426.901 394.816 426.722 393.295 427.07 391.85C427.863 388.577 428.63 385.217 429.37 381.77C431.28 382.4 433.23 383.03 435.21 383.64C438.47 384.647 441.667 385.58 444.8 386.44L444.54 387.27C444.246 388.203 444.228 389.201 444.487 390.145C444.746 391.089 445.271 391.937 446 392.59C446.67 393.2 447.43 393.84 448.29 394.5C454.65 399.37 458.73 399.19 462.15 402.78C463.557 404.307 464.584 406.143 465.15 408.14C465.293 408.674 465.286 409.238 465.13 409.768C464.973 410.299 464.672 410.776 464.262 411.146C463.851 411.517 463.346 411.766 462.802 411.868C462.258 411.969 461.696 411.918 461.18 411.72V411.72Z" fill="#FF847C"/>
<path d="M384.11 410.44C383.999 410.848 383.778 411.217 383.47 411.507C383.163 411.797 382.782 411.997 382.369 412.085C381.956 412.172 381.526 412.145 381.128 412.004C380.729 411.864 380.377 411.617 380.11 411.29C371.22 400.849 364.17 388.974 359.26 376.17C358.841 375.098 358.75 373.926 359 372.802C359.249 371.678 359.827 370.654 360.66 369.86C362.95 367.68 365.77 364.99 368.95 361.92L369.38 361.51C370.193 362.803 371.05 364.11 371.95 365.43C374.462 369.104 377.18 372.633 380.09 376C379.114 376.962 378.488 378.222 378.31 379.58C377.897 382.524 378.067 385.521 378.81 388.4C380.27 393.91 383.14 395.7 384.39 400.64C385.151 403.875 385.055 407.253 384.11 410.44V410.44Z" fill="#FF847C"/>
<path d="M447.29 378.47C446.44 381.2 445.61 383.87 444.8 386.47C441.66 385.61 438.463 384.677 435.21 383.67C433.21 383.06 431.28 382.43 429.37 381.8C429.77 379.92 430.167 378.01 430.56 376.07C434 376.63 437.51 377.163 441.09 377.67C443.18 377.93 445.24 378.21 447.29 378.47Z" fill="#D2A186"/>
<path d="M387.34 370.44C385.14 372.11 382.93 373.77 380.73 375.44C380.501 375.608 380.287 375.795 380.09 376C377.197 372.631 374.496 369.102 372 365.43C371.1 364.097 370.243 362.79 369.43 361.51C371.69 359.33 373.853 357.233 375.92 355.22C378.91 360.865 382.775 366.002 387.37 370.44H387.34Z" fill="#D2A186"/>
<path d="M465.21 321.12C463.61 326.23 454.77 354.53 447.29 378.47C445.24 378.21 443.18 377.93 441.09 377.64C437.51 377.14 434 376.607 430.56 376.04C432.07 368.44 433.45 360.42 434.61 352.04C436.527 338.191 437.729 324.253 438.21 310.28L438.93 269.96C431.25 267.66 399.64 257.26 387.63 228.02C385.508 222.837 384.115 217.385 383.49 211.82C388.334 209.213 393.939 208.385 399.33 209.48C401.55 209.981 403.677 210.832 405.63 212C410.377 215.253 415.327 218.199 420.45 220.82C439.13 230.39 448.93 229.94 459.99 239.36C464.817 243.61 468.844 248.69 471.88 254.36C480.74 271.61 474.93 290.05 465.21 321.12Z" stroke="#472F40" stroke-linecap="round" stroke-linejoin="round"/>
<path d="M447.29 378.47C446.44 381.2 445.61 383.87 444.8 386.47C441.66 385.61 438.463 384.677 435.21 383.67C433.21 383.06 431.28 382.43 429.37 381.8C429.77 379.92 430.167 378.01 430.56 376.07C434 376.63 437.51 377.163 441.09 377.67C443.18 377.93 445.24 378.21 447.29 378.47Z" stroke="#472F40" stroke-linecap="round" stroke-linejoin="round"/>
<path d="M461.18 411.72L430.74 399.08C429.369 398.508 428.246 397.466 427.573 396.141C426.901 394.816 426.722 393.295 427.07 391.85C427.863 388.577 428.63 385.217 429.37 381.77C431.28 382.4 433.23 383.03 435.21 383.64C438.47 384.647 441.667 385.58 444.8 386.44L444.54 387.27C444.246 388.203 444.228 389.201 444.487 390.145C444.746 391.089 445.271 391.937 446 392.59C446.67 393.2 447.43 393.84 448.29 394.5C454.65 399.37 458.73 399.19 462.15 402.78C463.557 404.307 464.584 406.143 465.15 408.14C465.293 408.674 465.286 409.238 465.13 409.768C464.973 410.299 464.672 410.776 464.262 411.146C463.851 411.517 463.346 411.766 462.802 411.868C462.258 411.969 461.696 411.918 461.18 411.72V411.72Z" stroke="#472F40" stroke-linecap="round" stroke-linejoin="round"/>
<path d="M469.94 305.63C448.86 322.81 427.193 339.953 404.94 357.06C399.08 361.56 393.223 366.02 387.37 370.44C382.774 366.002 378.91 360.866 375.92 355.22C410.35 321.73 419.41 310.04 426.6 296.4L426.65 296.3C427.565 294.561 428.091 292.644 428.193 290.681C428.295 288.718 427.969 286.757 427.239 284.933C426.509 283.108 425.391 281.464 423.964 280.113C422.536 278.763 420.832 277.738 418.97 277.11C414.74 275.68 411.15 274.56 408.36 273.72C379.21 264.95 365.92 265.33 350.92 253.28C344.8 248.557 339.824 242.516 336.361 235.604C332.898 228.693 331.038 221.09 330.92 213.36L334.7 201.72C341.165 201.153 347.665 201.093 354.14 201.54C369.137 202.613 383.824 206.337 397.52 212.54C398.932 215.327 400.685 217.927 402.74 220.28C407.397 225.436 413.278 229.336 419.84 231.62C427.84 234.62 453.78 244.48 464.66 250.34L464.93 250.49C485.72 261.8 488.29 290.69 469.94 305.63Z" fill="#8ABAF1"/>
<path d="M418.94 277.11C421.521 277.979 423.777 279.611 425.41 281.79V281.79C423.571 278.37 421.335 275.178 418.75 272.28C396.75 247.65 361.75 257.65 352.87 238.44C350.52 233.38 349.92 226.14 353.23 222.78C357.91 218.04 367.64 223.78 384.91 223.14C390.945 222.91 396.93 221.943 402.73 220.26C400.675 217.907 398.922 215.307 397.51 212.52C394.79 211.3 391.75 210.05 388.44 208.85C384.477 209.637 380.469 210.182 376.44 210.48C361.98 211.484 347.47 209.44 333.85 204.48L330.96 213.35C331.078 221.079 332.938 228.683 336.401 235.594C339.864 242.506 344.84 248.547 350.96 253.27C365.96 265.27 379.25 264.94 408.4 273.71C411.12 274.56 414.71 275.68 418.94 277.11Z" fill="#6986C5"/>
<path d="M384.11 410.44C383.999 410.848 383.778 411.217 383.47 411.507C383.163 411.797 382.782 411.997 382.369 412.085C381.956 412.172 381.526 412.145 381.128 412.004C380.729 411.864 380.377 411.617 380.11 411.29C371.22 400.849 364.17 388.974 359.26 376.17C358.841 375.098 358.75 373.926 359 372.802C359.249 371.678 359.827 370.654 360.66 369.86C362.95 367.68 365.77 364.99 368.95 361.92L369.38 361.51C370.193 362.803 371.05 364.11 371.95 365.43C374.462 369.104 377.18 372.633 380.09 376C379.114 376.962 378.488 378.222 378.31 379.58C377.897 382.524 378.067 385.521 378.81 388.4C380.27 393.91 383.14 395.7 384.39 400.64C385.151 403.875 385.055 407.253 384.11 410.44V410.44Z" stroke="#472F40" stroke-linecap="round" stroke-linejoin="round"/>
<path d="M387.34 370.44C385.14 372.11 382.93 373.77 380.73 375.44C380.501 375.608 380.287 375.795 380.09 376C377.197 372.631 374.496 369.102 372 365.43C371.1 364.097 370.243 362.79 369.43 361.51C371.69 359.33 373.853 357.233 375.92 355.22C378.91 360.865 382.775 366.002 387.37 370.44H387.34Z" stroke="#472F40" stroke-linecap="round" stroke-linejoin="round"/>
<path d="M469.94 305.63C448.86 322.81 427.193 339.953 404.94 357.06C399.08 361.56 393.223 366.02 387.37 370.44C382.774 366.002 378.91 360.866 375.92 355.22C410.35 321.73 419.41 310.04 426.6 296.4L426.65 296.3C427.565 294.561 428.091 292.644 428.193 290.681C428.295 288.718 427.969 286.757 427.239 284.933C426.509 283.108 425.391 281.464 423.964 280.113C422.536 278.763 420.832 277.738 418.97 277.11C414.74 275.68 411.15 274.56 408.36 273.72C379.21 264.95 365.92 265.33 350.92 253.28C344.8 248.557 339.824 242.516 336.361 235.604C332.898 228.693 331.038 221.09 330.92 213.36L334.7 201.72C341.165 201.153 347.665 201.093 354.14 201.54C369.137 202.613 383.824 206.337 397.52 212.54C398.932 215.327 400.685 217.927 402.74 220.28C407.397 225.436 413.278 229.336 419.84 231.62C427.84 234.62 453.78 244.48 464.66 250.34L464.93 250.49C485.72 261.8 488.29 290.69 469.94 305.63Z" stroke="#472F40" stroke-linecap="round" stroke-linejoin="round"/>
<path d="M394.09 67.63C393.27 67.3 382.63 63.2 372.43 68.83C368.181 71.246 364.711 74.8268 362.43 79.15C355.89 91.35 363.17 100.67 357.87 119.95C357.266 122.147 356.545 124.31 355.71 126.43C373.442 134.493 393.287 136.679 412.35 132.67C410.11 126.337 408.809 119.71 408.49 113C407.83 98.33 412.44 93.12 408.97 83.48C408.39 81.85 404.61 71.88 394.09 67.63Z" fill="#6D4558"/>
<path d="M394.09 67.63C393.27 67.3 382.63 63.2 372.43 68.83C368.181 71.246 364.711 74.8268 362.43 79.15C355.89 91.35 363.17 100.67 357.87 119.95C357.266 122.147 356.545 124.31 355.71 126.43C373.442 134.493 393.287 136.679 412.35 132.67C410.11 126.337 408.809 119.71 408.49 113C407.83 98.33 412.44 93.12 408.97 83.48C408.39 81.85 404.61 71.88 394.09 67.63Z" stroke="#472F40" stroke-linecap="round" stroke-linejoin="round"/>
<path d="M392.05 69.5001C392.99 70.0101 401.52 74.7201 404.64 84.2701C407.92 94.2701 402.03 99.7301 401.03 116.27C400.676 122.292 401.042 128.335 402.12 134.27C405.55 133.95 408.958 133.435 412.33 132.73C410.09 126.377 408.797 119.729 408.49 113C407.83 98.3301 412.44 93.1201 408.97 83.4801C408.39 81.8601 404.61 71.8901 394.09 67.6401C389.226 65.8501 383.964 65.4349 378.88 66.4401C383.46 66.3146 387.995 67.3683 392.05 69.5001V69.5001Z" fill="#472F40"/>
<path d="M351.21 171.12C348.655 181.577 345.333 191.831 341.27 201.8C339.751 205.52 337.921 209.106 335.8 212.52C334.8 214.15 333.65 215.96 332.37 217.92C323.32 231.85 318.18 239.64 309.57 246.6C305.915 249.556 301.952 252.111 297.75 254.22C295.81 255.204 293.665 255.717 291.49 255.72H271.87C271.094 255.718 270.34 255.466 269.718 255.003C269.096 254.539 268.639 253.888 268.415 253.145C268.191 252.403 268.212 251.608 268.474 250.878C268.735 250.148 269.225 249.521 269.87 249.09L270 249C274.74 245.81 278.74 246.56 284.9 244.65C289.388 243.222 293.549 240.918 297.14 237.87C314.01 220.93 321.46 205.03 325.14 193.71C328.01 184.89 329.92 174.8 331.74 164.94C337.915 167.913 344.486 169.984 351.25 171.09L351.21 171.12Z" fill="#D2A186"/>
<path d="M400.77 200.46C402.135 204.409 403.759 208.264 405.63 212C404.732 212.724 403.79 213.392 402.81 214C387.95 223.15 367.63 216.93 351.63 212C348.63 211.09 344.19 209.63 338.85 207.5C344.025 195.764 348.16 183.598 351.21 171.14C344.446 170.038 337.876 167.97 331.7 165C334.96 147.33 337.92 130.45 345.59 123.11C349.569 119.27 354.52 116.587 359.91 115.35C362.63 114.887 365.409 114.887 368.13 115.35C368.46 115.79 373.18 121.9 380.61 121.29C383.807 120.974 386.797 119.56 389.07 117.29C392.89 117.883 396.437 119.628 399.24 122.29C403.11 126.11 403.92 130.74 405 137.5C406.14 144.6 405.44 147.62 405.9 160.27C406.06 164.57 406.28 168.08 406.44 170.35C404.74 170.35 402.97 170.41 401.13 170.53C399.29 170.65 397.43 170.8 395.55 170.98C395.738 181.019 397.5 190.967 400.77 200.46V200.46Z" fill="#FF847C"/>
<path d="M360.63 209.28C358.537 206.759 356.893 203.898 355.77 200.82C349.77 184.01 364.5 169.57 357.93 151.82C357.328 150.184 356.574 148.607 355.68 147.11C355.09 151.67 354.33 156.46 353.34 161.45C352.673 164.783 351.963 167.993 351.21 171.08C348.161 183.538 344.025 195.705 338.85 207.44C344.19 209.57 348.64 211.03 351.63 211.94C358.515 214.194 365.527 216.038 372.63 217.46C367.991 215.815 363.857 212.997 360.63 209.28V209.28Z" fill="#ED6663"/>
<path d="M351.21 171.12C348.643 181.607 345.301 191.889 341.21 201.88C339.711 205.547 337.908 209.083 335.82 212.45C334.82 214.1 333.64 215.94 332.35 217.92C323.3 231.85 318.16 239.64 309.55 246.6C305.895 249.556 301.932 252.111 297.73 254.22C295.79 255.204 293.645 255.717 291.47 255.72H271.87C271.094 255.718 270.34 255.466 269.718 255.003C269.096 254.539 268.639 253.888 268.415 253.145C268.191 252.403 268.212 251.608 268.474 250.878C268.735 250.148 269.225 249.521 269.87 249.09L270 249C274.74 245.81 278.74 246.56 284.9 244.65C289.388 243.222 293.549 240.918 297.14 237.87C314.01 220.93 321.46 205.03 325.14 193.71C328.01 184.89 329.92 174.8 331.74 164.94C337.915 167.913 344.486 169.984 351.25 171.09L351.21 171.12Z" stroke="#472F40" stroke-linecap="round" stroke-linejoin="round"/>
<path d="M400.77 200.46C402.135 204.409 403.759 208.264 405.63 212C404.732 212.724 403.79 213.392 402.81 214C387.95 223.15 367.63 216.93 351.63 212C348.63 211.09 344.19 209.63 338.85 207.5C344.025 195.764 348.16 183.598 351.21 171.14C344.446 170.038 337.876 167.97 331.7 165C334.96 147.33 337.92 130.45 345.59 123.11C349.569 119.27 354.52 116.587 359.91 115.35C362.63 114.887 365.409 114.887 368.13 115.35C368.46 115.79 373.18 121.9 380.61 121.29C383.807 120.974 386.797 119.56 389.07 117.29C392.89 117.883 396.437 119.628 399.24 122.29C403.11 126.11 403.92 130.74 405 137.5C406.14 144.6 405.44 147.62 405.9 160.27C406.06 164.57 406.28 168.08 406.44 170.35C404.74 170.35 402.97 170.41 401.13 170.53C399.29 170.65 397.43 170.8 395.55 170.98C395.738 181.019 397.5 190.967 400.77 200.46V200.46Z" stroke="#472F40" stroke-linecap="round" stroke-linejoin="round"/>
<path d="M351.21 171.12C353.357 162.347 354.96 153.45 356.01 144.48" stroke="#472F40" stroke-linecap="round" stroke-linejoin="round"/>
<path d="M395.55 170.94C395.35 168 395.17 165.02 395.01 162C394.71 156 394.51 150.16 394.41 144.48" stroke="#472F40" stroke-linecap="round" stroke-linejoin="round"/>
<path d="M368.13 115.32C369.915 113.794 371.274 111.831 372.074 109.622C372.873 107.413 373.085 105.035 372.69 102.72C371.175 102.618 369.751 101.963 368.689 100.878C367.626 99.7939 367 98.3564 366.93 96.8399C366.93 94.1999 368.93 91.4399 371.73 91.1999C374.53 90.9599 376.41 93.4399 376.53 93.5999C378.682 93.6729 380.826 93.3022 382.828 92.5108C384.831 91.7194 386.649 90.5243 388.17 88.9999C390.344 86.6995 391.743 83.776 392.17 80.6399C392.848 82.4413 393.799 84.1277 394.99 85.6399C396.374 87.4102 398.068 88.9146 399.99 90.0799C400.06 91.3599 400.19 93.2999 400.44 95.6599C400.86 99.6599 401.13 100.14 400.98 101.51C400.8 102.959 400.333 104.358 399.607 105.625C398.881 106.892 397.91 108.002 396.75 108.89C392.41 112.2 387.26 110.78 386.67 110.6C386.61 111.185 386.61 111.775 386.67 112.36C386.912 114.2 387.731 115.915 389.01 117.26C388.92 118.26 388.29 124.14 384.51 125.96C380.24 128.1 372.24 124.57 368.13 115.32Z" fill="#D2A186"/>
<path d="M368.13 115.32C369.915 113.794 371.274 111.831 372.074 109.622C372.873 107.413 373.085 105.035 372.69 102.72C371.175 102.618 369.751 101.963 368.689 100.878C367.626 99.7939 367 98.3564 366.93 96.8399C366.93 94.1999 368.93 91.4399 371.73 91.1999C374.53 90.9599 376.41 93.4399 376.53 93.5999C378.682 93.6729 380.826 93.3022 382.828 92.5108C384.831 91.7194 386.649 90.5243 388.17 88.9999C390.344 86.6995 391.743 83.776 392.17 80.6399C392.848 82.4413 393.799 84.1277 394.99 85.6399C396.374 87.4102 398.068 88.9146 399.99 90.0799C400.06 91.3599 400.19 93.2999 400.44 95.6599C400.86 99.6599 401.13 100.14 400.98 101.51C400.8 102.959 400.333 104.358 399.607 105.625C398.881 106.892 397.91 108.002 396.75 108.89C392.41 112.2 387.26 110.78 386.67 110.6C386.61 111.185 386.61 111.775 386.67 112.36C386.912 114.2 387.731 115.915 389.01 117.26C388.92 118.26 388.29 124.14 384.51 125.96C380.24 128.1 372.24 124.57 368.13 115.32Z" stroke="#472F40" stroke-linecap="round" stroke-linejoin="round"/>
<path d="M372.56 95.25C372.207 95.2384 371.859 95.3306 371.559 95.5151C371.258 95.6996 371.019 95.9683 370.87 96.2878C370.72 96.6074 370.668 96.9637 370.72 97.3125C370.772 97.6614 370.925 97.9873 371.16 98.25" stroke="#472F40" stroke-linecap="round" stroke-linejoin="round"/>
<path d="M389.46 94.9101C390.167 94.9101 390.74 94.337 390.74 93.6301C390.74 92.9232 390.167 92.3501 389.46 92.3501C388.753 92.3501 388.18 92.9232 388.18 93.6301C388.18 94.337 388.753 94.9101 389.46 94.9101Z" fill="#472F40"/>
<path d="M397.15 94.9101C397.857 94.9101 398.43 94.337 398.43 93.6301C398.43 92.9232 397.857 92.3501 397.15 92.3501C396.443 92.3501 395.87 92.9232 395.87 93.6301C395.87 94.337 396.443 94.9101 397.15 94.9101Z" fill="#472F40"/>
<path d="M393.17 92.51C393.068 93.69 393.253 94.8771 393.71 95.97C394.18 97.07 394.81 97.7 394.56 98.27C394.31 98.84 393.45 98.95 392.72 98.99" stroke="#472F40" stroke-linecap="round" stroke-linejoin="round"/>
<path d="M391.74 102.58C391.08 102.583 390.431 102.41 389.86 102.08C389.217 101.696 388.707 101.123 388.4 100.44" stroke="#472F40" stroke-linecap="round" stroke-linejoin="round"/>
<path d="M571.79 168.06C570.766 173.307 570.958 178.719 572.35 183.88C572.697 185.134 573.118 186.366 573.61 187.57C574.151 188.148 574.807 188.606 575.535 188.916C576.264 189.226 577.049 189.381 577.84 189.37C578.821 189.319 579.771 189.009 580.593 188.471C581.415 187.934 582.08 187.188 582.52 186.31C582.039 181.825 580.395 177.544 577.75 173.89C576.098 171.632 574.084 169.662 571.79 168.06V168.06Z" fill="#9DDFD3"/>
<path d="M571.79 168.06C570.766 173.307 570.958 178.719 572.35 183.88C572.697 185.134 573.118 186.366 573.61 187.57C574.151 188.148 574.807 188.606 575.535 188.916C576.264 189.226 577.049 189.381 577.84 189.37C578.821 189.319 579.771 189.009 580.593 188.471C581.415 187.934 582.08 187.188 582.52 186.31C582.039 181.825 580.395 177.544 577.75 173.89C576.098 171.632 574.084 169.662 571.79 168.06V168.06Z" stroke="#472F40" stroke-linecap="round" stroke-linejoin="round"/>
<path d="M580.81 159.16C579.963 157.512 578.937 155.963 577.75 154.54C573.925 150.089 568.742 147.021 563 145.81C560.56 145.26 552.82 143.5 550.76 146.81C550.39 147.557 550.213 148.385 550.244 149.218C550.275 150.051 550.515 150.863 550.94 151.58C553.03 155.58 558.24 153.82 563.72 156.98C568.23 159.59 570.33 164.51 574.52 174.35C576.212 178.32 577.635 182.399 578.78 186.56C580.374 186.213 581.833 185.41 582.98 184.25C586.13 180.9 585.13 175.39 584.15 169.94C583.469 166.227 582.348 162.608 580.81 159.16V159.16Z" fill="#F0BFA4"/>
<path d="M580.81 159.16C579.963 157.512 578.937 155.963 577.75 154.54C573.925 150.089 568.742 147.021 563 145.81C560.56 145.26 552.82 143.5 550.76 146.81C550.39 147.557 550.213 148.385 550.244 149.218C550.275 150.051 550.515 150.863 550.94 151.58C553.03 155.58 558.24 153.82 563.72 156.98C568.23 159.59 570.33 164.51 574.52 174.35C576.212 178.32 577.635 182.399 578.78 186.56C580.374 186.213 581.833 185.41 582.98 184.25C586.13 180.9 585.13 175.39 584.15 169.94C583.469 166.227 582.348 162.608 580.81 159.16V159.16Z" stroke="#472F40" stroke-linecap="round" stroke-linejoin="round"/>
<path d="M666 90.12C668.747 89.616 671.199 88.0858 672.86 85.84C675.39 82.21 675.7 76.4 672.26 73.12C669.49 70.48 665.65 70.76 664.82 70.84C664.29 68.06 663.09 64.33 659.95 62.37C656.81 60.41 654.51 62.17 648.95 60.75C642.47 59.09 642.26 55.75 637.43 55.53C635.328 55.4961 633.249 55.9692 631.369 56.9092C629.489 57.8492 627.864 59.2284 626.63 60.93C623.45 65.36 624.34 70.36 624.63 72.09C626.14 80.51 633.63 84.7 634.85 85.34C635.57 86.61 641.52 96.85 649.66 96.76C653.24 96.76 657.54 94.67 660.22 93.4C662.226 92.453 664.158 91.3565 666 90.12V90.12Z" fill="#6D4558"/>
<path d="M664.81 70.84C664.28 68.06 663.08 64.33 659.94 62.37C656.8 60.41 654.5 62.17 648.94 60.75C646.956 60.2746 645.084 59.4151 643.43 58.22V58.22C644.703 60.482 646.539 62.3766 648.76 63.72C653.29 66.36 657.22 65.05 659.02 67.86C660.48 70.13 658.58 72.01 660.28 74.07C661.98 76.13 664.75 74.99 666.49 77.31C667.377 78.7309 667.699 80.4334 667.39 82.08C667.159 84.2214 666.207 86.2207 664.69 87.75C664.257 88.8043 664.191 89.9732 664.5 91.07C665.05 90.73 665.55 90.4 665.97 90.12C668.717 89.6159 671.17 88.0858 672.83 85.84C675.36 82.21 675.67 76.4 672.23 73.12C669.48 70.48 665.64 70.76 664.81 70.84Z" fill="#472F40"/>
<path d="M612.73 366C622.4 369.57 636.73 373.18 653.22 370.43C661.58 369.04 665.35 366.88 674.34 364.67C684.42 362.2 699.22 360.14 718.69 362.76C712.459 357.035 707.135 350.395 702.9 343.07C689.82 320.31 695.06 303.48 685.62 278.75C682.34 270.13 676.12 257.54 663.3 243.95L631.62 250.95C642.4 281.71 638.35 299.38 632.1 309.95C623.93 323.84 608.67 331.3 607.86 347.87C607.49 355.55 610.35 361.94 612.73 366Z" fill="#77C2B0"/>
<path d="M612.73 366C622.4 369.57 636.73 373.18 653.22 370.43C661.58 369.04 665.35 366.88 674.34 364.67C684.42 362.2 699.22 360.14 718.69 362.76C712.459 357.035 707.135 350.395 702.9 343.07C689.82 320.31 695.06 303.48 685.62 278.75C682.34 270.13 676.12 257.54 663.3 243.95L631.62 250.95C642.4 281.71 638.35 299.38 632.1 309.95C623.93 323.84 608.67 331.3 607.86 347.87C607.49 355.55 610.35 361.94 612.73 366Z" stroke="#472F40" stroke-linecap="round" stroke-linejoin="round"/>
<path d="M661.81 282.52L643.42 420H605.62C607.1 402.84 609.39 384.81 612.73 366C613.67 360.667 614.67 355.447 615.73 350.34L626.26 239.39C648.105 242.276 670.308 240.725 691.54 234.83C696.34 265.08 702.48 296.67 710.26 329.39C712.96 340.723 715.77 351.847 718.69 362.76L726.94 419.96H687.76L661.81 282.52Z" fill="#8ABAF1"/>
<path d="M718.69 362.8C716.27 353.753 713.937 344.547 711.69 335.18C706.272 333.576 701.003 331.509 695.94 329C689.23 325.586 682.969 321.353 677.3 316.4C676.544 325.561 676.457 334.766 677.04 343.94C677.68 353.94 678.61 355.72 679.38 356.94C684.56 364.81 694.59 362.17 706.92 369.18C712.733 372.554 717.729 377.171 721.55 382.7V382.7C720.59 376.04 719.637 369.407 718.69 362.8Z" fill="#6986C5"/>
<path d="M654.15 339.81C655.461 329.987 653.829 319.995 649.46 311.1L649.38 310.95C645.618 303.225 642.843 295.058 641.12 286.64C637.257 293.184 632.345 299.049 626.58 304C624.403 305.874 622.087 307.579 619.65 309.1C618.317 322.86 617.01 336.623 615.73 350.39C614.677 355.517 613.677 360.737 612.73 366.05C611.397 373.457 610.24 380.75 609.26 387.93L610.08 389.08C614.826 383.828 620.351 379.336 626.46 375.76C627.74 375.02 628.99 374.35 630.21 373.76C636.625 370.551 642.156 365.818 646.319 359.976C650.482 354.135 653.15 347.362 654.09 340.25L654.15 339.81Z" fill="#6986C5"/>
<path d="M661.81 282.52L643.42 420H605.62C607.1 402.84 609.39 384.81 612.73 366C613.67 360.667 614.67 355.447 615.73 350.34L626.26 239.39C648.105 242.276 670.308 240.725 691.54 234.83C696.34 265.08 702.48 296.67 710.26 329.39C712.96 340.723 715.77 351.847 718.69 362.76L726.94 419.96H687.76L661.81 282.52Z" stroke="#472F40" stroke-linecap="round" stroke-linejoin="round"/>
<path d="M627.61 260.44C627.46 244.86 627.53 232.24 627.61 223.96C627.72 212.41 627.95 199.25 629.53 147.64C629.93 134.64 630.27 123.91 630.53 116.92L640.73 112.36C643.898 114.726 647.789 115.92 651.739 115.738C655.689 115.556 659.454 114.008 662.39 111.36C663.39 114.22 665.05 118.95 666.77 124.86C677.57 162.1 673.32 183.78 679.01 222.06C680.974 235.187 683.78 248.173 687.41 260.94C675.177 261.1 662.697 261.1 649.97 260.94C642.417 260.827 634.963 260.66 627.61 260.44Z" fill="#6D4558"/>
<path d="M697.89 199.16C698.09 206.82 698.54 217.83 699.61 231.04C701.38 252.81 703.09 273.91 708.97 299.8C712.61 315.8 716.97 329.86 718.33 353.08C718.57 357.19 718.65 360.58 718.69 362.8C716.025 359.878 712.905 357.406 709.45 355.48C698.71 349.54 692.45 353.48 686.17 349.96C677.17 344.87 678.74 330.1 676.09 299.8C675.03 287.67 672.96 275.65 671.53 263.56C668.53 238.44 658.87 160.56 659.9 138.91C660.25 131.35 660.95 123.83 660.95 123.83C661.41 118.83 661.95 114.6 662.35 111.34C672.16 112.88 677.8 116.73 680.89 119.44C686.07 123.99 691.52 131.93 695.83 173.62C696.94 184.4 697.55 193.27 697.89 199.16Z" fill="#BAE8E0"/>
<path d="M688.38 236.79C694.61 241.72 695.15 250.56 695.58 254.97C696.58 264.71 699.52 278.48 708.3 296.79C702.96 272.28 701.3 251.98 699.61 231.07C698.54 217.86 698.09 206.85 697.89 199.19C697.73 196.4 697.51 192.92 697.2 188.9C686.398 192.588 675.092 194.588 663.68 194.83C664.96 207.34 666.41 220.18 667.74 231.7C670.794 231.527 673.857 231.736 676.86 232.32C679.44 232.8 684.61 233.81 688.38 236.79Z" fill="#9DDFD3"/>
<path d="M640.69 112.36C638.114 111.919 635.489 111.838 632.89 112.12C628.863 112.443 624.984 113.778 621.61 116C618.74 118.04 616.401 120.739 614.79 123.87C608.26 135.8 609.6 150.14 607.09 168.98C606.83 170.98 606.46 173.45 605.93 176.4C605.663 177.925 604.971 179.345 603.932 180.493C602.894 181.642 601.551 182.473 600.06 182.892C598.569 183.31 596.99 183.298 595.505 182.857C594.021 182.416 592.691 181.564 591.67 180.4L591.61 180.33C589.48 177.81 588.95 175.79 584.89 167.33C583.2 163.82 581.75 160.99 580.81 159.17C583.95 173.7 582.75 185 577.57 187.33C576.302 187.858 574.894 187.946 573.57 187.58C575.774 193.484 579.5 198.701 584.37 202.7C587.37 205.16 597.09 213 608.04 209.81C612.867 208.263 617.025 205.121 619.83 200.9C619.18 222.15 617.37 239.29 615.83 250.9C611.19 286.63 608.83 304.49 606.41 315.22C602.77 331.11 597.83 347.91 606.89 360.34C608.504 362.544 610.446 364.486 612.65 366.1C610.96 362.73 611.22 360.78 611.81 359.62C614.03 355.21 622.73 358.25 632.57 353.62C633.14 353.35 639.66 350.21 643.49 344.62C649.32 336.11 646.49 325.47 644.49 315.1C644.49 315.1 641 297.58 639.33 258.34C638.85 247.04 639.59 237.53 641.07 218.5C641.07 218.5 643.82 183.1 645.93 134.08C646.231 129.057 645.552 124.023 643.93 119.26C643.091 116.854 642.006 114.542 640.69 112.36Z" fill="#BAE8E0"/>
<path d="M634.92 218.43C636.733 219.563 638.79 220.248 640.92 220.43V220.43C640.92 219.76 641.03 219.11 641.08 218.43C641.08 218.43 641.78 209.38 642.75 194.12C638.58 193.34 633.19 193.34 627.33 189.26C624.773 187.458 622.555 185.216 620.78 182.64C620.513 188.267 620.237 193.893 619.95 199.52C619.84 202.16 619.72 204.79 619.6 207.43C622.385 207.564 625.071 208.505 627.33 210.14C630.88 212.8 631.15 216 634.92 218.43Z" fill="#9DDFD3"/>
<path d="M611.88 198.81C609.096 201.785 605.441 203.801 601.44 204.57C591.68 206.87 583.55 201.57 581.78 200.31C582.615 201.148 583.492 201.943 584.41 202.69C587.41 205.15 597.13 212.99 608.08 209.8C612.907 208.253 617.065 205.111 619.87 200.89C620.157 193.943 620.533 186.86 621 179.64C621.493 172.153 622.053 164.82 622.68 157.64C621.674 159.316 620.772 161.053 619.98 162.84C612.65 179.39 619.35 190.29 611.88 198.81Z" fill="#9DDFD3"/>
<path d="M666 90.12C668.747 89.616 671.199 88.0858 672.86 85.84C675.39 82.21 675.7 76.4 672.26 73.12C669.49 70.48 665.65 70.76 664.82 70.84C664.29 68.06 663.09 64.33 659.95 62.37C656.81 60.41 654.51 62.17 648.95 60.75C642.47 59.09 642.26 55.75 637.43 55.53C635.328 55.4961 633.249 55.9692 631.369 56.9092C629.489 57.8492 627.864 59.2284 626.63 60.93C623.45 65.36 624.34 70.36 624.63 72.09C626.14 80.51 633.63 84.7 634.85 85.34C635.57 86.61 641.52 96.85 649.66 96.76C653.24 96.76 657.54 94.67 660.22 93.4C662.226 92.453 664.158 91.3565 666 90.12V90.12Z" stroke="#472F40" stroke-linecap="round" stroke-linejoin="round"/>
<path d="M662.35 111.34C660.568 109.449 659.38 107.077 658.932 104.518C658.484 101.958 658.797 99.3237 659.83 96.9399C661.299 97.0689 662.762 96.6406 663.929 95.7402C665.096 94.8398 665.882 93.5331 666.13 92.0799C666.263 90.8551 665.981 89.6211 665.328 88.5764C664.675 87.5316 663.689 86.7368 662.53 86.3199C660.01 85.6099 656.53 87.5799 655.04 91.5699C654.89 92.0016 654.597 92.3689 654.21 92.6109C653.822 92.8529 653.364 92.9549 652.91 92.8999H652.7C652.226 92.8309 651.794 92.5879 651.489 92.2183C651.184 91.8486 651.028 91.3787 651.05 90.8999C651.137 86.8999 651.23 82.8699 651.33 78.8099C651.344 78.2893 651.223 77.7739 650.977 77.3145C650.732 76.8551 650.371 76.4675 649.93 76.1899C649.216 75.7483 648.42 75.4557 647.59 75.3299C646.05 75.1199 645.17 75.6399 643.27 75.8699C641.523 76.0725 639.753 75.9504 638.05 75.5099C637.79 76.6799 637.34 78.5099 636.61 80.7899C634.41 87.5599 632.72 88.5299 632.29 92.3099C632.16 93.4799 631.51 99.1899 635.41 102.75C638.6 105.67 642.89 105.37 643.93 105.27C643.867 106.125 643.706 106.971 643.45 107.79C642.899 109.504 641.953 111.066 640.69 112.35C641.61 113.892 642.843 115.223 644.311 116.257C645.779 117.291 647.448 118.004 649.21 118.35C654.29 119.17 659.62 116.39 662.35 111.34Z" fill="#F0BFA4"/>
<path d="M662.35 111.34C660.568 109.449 659.38 107.077 658.932 104.518C658.484 101.958 658.797 99.3237 659.83 96.9399C661.299 97.0689 662.762 96.6406 663.929 95.7402C665.096 94.8398 665.882 93.5331 666.13 92.0799C666.263 90.8551 665.981 89.6211 665.328 88.5764C664.675 87.5316 663.689 86.7368 662.53 86.3199C660.01 85.6099 656.53 87.5799 655.04 91.5699C654.89 92.0016 654.597 92.3689 654.21 92.6109C653.822 92.8529 653.364 92.9549 652.91 92.8999H652.7C652.226 92.8309 651.794 92.5879 651.489 92.2183C651.184 91.8486 651.028 91.3787 651.05 90.8999C651.137 86.8999 651.23 82.8699 651.33 78.8099C651.344 78.2893 651.223 77.7739 650.977 77.3145C650.732 76.8551 650.371 76.4675 649.93 76.1899C649.216 75.7483 648.42 75.4557 647.59 75.3299C646.05 75.1199 645.17 75.6399 643.27 75.8699C641.523 76.0725 639.753 75.9504 638.05 75.5099C637.79 76.6799 637.34 78.5099 636.61 80.7899C634.41 87.5599 632.72 88.5299 632.29 92.3099C632.16 93.4799 631.51 99.1899 635.41 102.75C638.6 105.67 642.89 105.37 643.93 105.27C643.867 106.125 643.706 106.971 643.45 107.79C642.899 109.504 641.953 111.066 640.69 112.35C641.61 113.892 642.843 115.223 644.311 116.257C645.779 117.291 647.448 118.004 649.21 118.35C654.29 119.17 659.62 116.39 662.35 111.34Z" stroke="#472F40" stroke-linecap="round" stroke-linejoin="round"/>
<path d="M638.05 75.5201C636.848 75.279 635.739 74.7036 634.85 73.8601" stroke="#472F40" stroke-linecap="round" stroke-linejoin="round"/>
<path d="M640.69 112.36C638.114 111.919 635.489 111.838 632.89 112.12C628.863 112.443 624.984 113.778 621.61 116C618.74 118.04 616.401 120.739 614.79 123.87C608.26 135.8 609.6 150.14 607.09 168.98C606.83 170.98 606.46 173.45 605.93 176.4C605.663 177.925 604.971 179.345 603.932 180.493C602.894 181.642 601.551 182.473 600.06 182.892C598.569 183.31 596.99 183.298 595.505 182.857C594.021 182.416 592.691 181.564 591.67 180.4L591.61 180.33C589.48 177.81 588.95 175.79 584.89 167.33C583.2 163.82 581.75 160.99 580.81 159.17C583.95 173.7 582.75 185 577.57 187.33C576.302 187.858 574.894 187.946 573.57 187.58C575.774 193.484 579.5 198.701 584.37 202.7C587.37 205.16 597.09 213 608.04 209.81C612.867 208.263 617.025 205.121 619.83 200.9C619.18 222.15 617.37 239.29 615.83 250.9C611.19 286.63 608.83 304.49 606.41 315.22C602.77 331.11 597.83 347.91 606.89 360.34C608.504 362.544 610.446 364.486 612.65 366.1C610.96 362.73 611.22 360.78 611.81 359.62C614.03 355.21 622.73 358.25 632.57 353.62C633.14 353.35 639.66 350.21 643.49 344.62C649.32 336.11 646.49 325.47 644.49 315.1C644.49 315.1 641 297.58 639.33 258.34C638.85 247.04 639.59 237.53 641.07 218.5C641.07 218.5 643.82 183.1 645.93 134.08C646.231 129.057 645.552 124.023 643.93 119.26C643.091 116.854 642.006 114.542 640.69 112.36Z" stroke="#472F40" stroke-linecap="round" stroke-linejoin="round"/>
<path d="M635.65 117.16C633.055 120.407 631.226 124.198 630.3 128.25C629.957 129.723 630.059 131.265 630.593 132.681C631.127 134.096 632.069 135.321 633.3 136.2L635.71 137.93C636.617 138.583 637.291 139.508 637.635 140.572C637.979 141.635 637.973 142.78 637.62 143.84C629.07 169.26 630.05 177.36 632.99 179.68C635.129 181.185 637.065 182.959 638.75 184.96C640.435 186.994 641.835 189.248 642.91 191.66C643.84 176.92 644.96 156.96 645.91 134.02C646.211 128.997 645.532 123.964 643.91 119.2C643.067 116.815 641.982 114.523 640.67 112.36C638.797 113.737 637.11 115.351 635.65 117.16V117.16Z" fill="#9DDFD3"/>
<path d="M635.65 117.16C633.055 120.407 631.226 124.198 630.3 128.25C629.957 129.723 630.059 131.265 630.593 132.681C631.127 134.096 632.069 135.321 633.3 136.2L635.71 137.93C636.617 138.583 637.291 139.508 637.635 140.572C637.979 141.635 637.973 142.78 637.62 143.84C629.07 169.26 630.05 177.36 632.99 179.68C635.129 181.185 637.065 182.959 638.75 184.96C640.435 186.994 641.835 189.248 642.91 191.66C643.84 176.92 644.96 156.96 645.91 134.02C646.211 128.997 645.532 123.964 643.91 119.2C643.067 116.815 641.982 114.523 640.67 112.36C638.797 113.737 637.11 115.351 635.65 117.16V117.16Z" stroke="#472F40" stroke-linecap="round" stroke-linejoin="round"/>
<path d="M619.87 200.89C620.03 197.163 620.21 193.413 620.41 189.64C621.163 175.8 622.183 162.3 623.47 149.14" stroke="#472F40" stroke-linecap="round" stroke-linejoin="round"/>
<path d="M697.89 199.16C698.09 206.82 698.54 217.83 699.61 231.04C701.38 252.81 703.09 273.91 708.97 299.8C712.61 315.8 716.97 329.86 718.33 353.08C718.57 357.19 718.65 360.58 718.69 362.8C716.025 359.878 712.905 357.406 709.45 355.48C698.71 349.54 692.45 353.48 686.17 349.96C677.17 344.87 678.74 330.1 676.09 299.8C675.03 287.67 672.96 275.65 671.53 263.56C668.53 238.44 658.87 160.56 659.9 138.91C660.25 131.35 660.95 123.83 660.95 123.83C661.41 118.83 661.95 114.6 662.35 111.34C672.16 112.88 677.8 116.73 680.89 119.44C686.07 123.99 691.52 131.93 695.83 173.62C696.94 184.4 697.55 193.27 697.89 199.16Z" stroke="#472F40" stroke-linecap="round" stroke-linejoin="round"/>
<path d="M659.9 138.91C659.44 148.45 661.07 168.91 663.28 190.91C664.988 186.938 666.962 183.086 669.19 179.38V179.38C670.998 176.38 671.578 172.798 670.81 169.38L664.65 141.59C664.33 140.143 664.435 138.635 664.951 137.246C665.467 135.857 666.373 134.647 667.56 133.76L669.26 132.48C670.238 131.757 670.992 130.773 671.438 129.641C671.883 128.51 672.002 127.276 671.78 126.08C670.619 120.147 667.235 114.881 662.32 111.36C661.89 114.62 661.38 118.87 660.92 123.85C661 123.83 660.25 131.35 659.9 138.91Z" fill="#9DDFD3"/>
<path d="M659.9 138.91C659.44 148.45 661.07 168.91 663.28 190.91C664.988 186.938 666.962 183.086 669.19 179.38V179.38C670.998 176.38 671.578 172.798 670.81 169.38L664.65 141.59C664.33 140.143 664.435 138.635 664.951 137.246C665.467 135.857 666.373 134.647 667.56 133.76L669.26 132.48C670.238 131.757 670.992 130.773 671.438 129.641C671.883 128.51 672.002 127.276 671.78 126.08C670.619 120.147 667.235 114.881 662.32 111.36C661.89 114.62 661.38 118.87 660.92 123.85C661 123.83 660.25 131.35 659.9 138.91Z" stroke="#472F40" stroke-linecap="round" stroke-linejoin="round"/>
<path d="M637.92 85.6301C638.627 85.6301 639.2 85.057 639.2 84.3501C639.2 83.6431 638.627 83.0701 637.92 83.0701C637.213 83.0701 636.64 83.6431 636.64 84.3501C636.64 85.057 637.213 85.6301 637.92 85.6301Z" fill="#472F40"/>
<path d="M644.56 87.05C645.267 87.05 645.84 86.4769 645.84 85.77C645.84 85.0631 645.267 84.49 644.56 84.49C643.853 84.49 643.28 85.0631 643.28 85.77C643.28 86.4769 643.853 87.05 644.56 87.05Z" fill="#472F40"/>
<path d="M640.72 86C640.645 86.5421 640.494 87.0707 640.27 87.57C639.7 88.87 638.97 89.25 639.01 89.96C639.01 90.33 639.29 90.86 640.36 91.44" stroke="#472F40" stroke-linecap="round" stroke-linejoin="round"/>
<path d="M638.92 95C639.605 95.3795 640.407 95.4901 641.17 95.31C641.923 95.1189 642.576 94.6512 643 94" stroke="#472F40" stroke-linecap="round" stroke-linejoin="round"/>
<path d="M660.07 90.18C660.349 90.0393 660.657 89.9661 660.97 89.9661C661.283 89.9661 661.591 90.0393 661.87 90.18C662.153 90.342 662.392 90.5706 662.566 90.8459C662.74 91.1213 662.845 91.4351 662.87 91.76C662.887 92.1047 662.826 92.4487 662.693 92.767C662.56 93.0853 662.357 93.3699 662.1 93.6" stroke="#472F40" stroke-linecap="round" stroke-linejoin="round"/>
<path d="M626.81 173.12L648 229.49C648.121 229.812 648.306 230.105 648.543 230.353C648.781 230.601 649.066 230.798 649.382 230.933C649.698 231.068 650.038 231.137 650.381 231.136C650.725 231.136 651.064 231.066 651.38 230.93L689.7 214.38C690.301 214.11 690.773 213.617 691.016 213.004C691.259 212.392 691.253 211.708 691 211.1L668.8 156.15C668.675 155.841 668.49 155.559 668.255 155.321C668.021 155.083 667.743 154.894 667.435 154.764C667.128 154.634 666.798 154.566 666.464 154.564C666.13 154.561 665.799 154.625 665.49 154.75L628.24 169.88C627.627 170.128 627.134 170.605 626.867 171.21C626.6 171.815 626.58 172.5 626.81 173.12V173.12Z" fill="#FFBF8A"/>
<path d="M686 198.77C676.398 201.853 666.261 202.909 656.23 201.87C649.115 201.12 642.152 199.313 635.57 196.51L642.06 213.83C645.045 215.425 648.159 216.763 651.37 217.83C659.067 220.331 667.184 221.28 675.25 220.62L689.63 214.41C689.938 214.283 690.217 214.096 690.452 213.861C690.688 213.626 690.875 213.347 691.002 213.039C691.129 212.732 691.194 212.402 691.194 212.069C691.194 211.737 691.128 211.407 691 211.1L686 198.77Z" fill="#FF847C"/>
<path d="M626.81 173.12L648 229.49C648.121 229.812 648.306 230.105 648.543 230.353C648.781 230.601 649.066 230.798 649.382 230.933C649.698 231.068 650.038 231.137 650.381 231.136C650.725 231.136 651.064 231.066 651.38 230.93L689.7 214.38C690.301 214.11 690.773 213.617 691.016 213.004C691.259 212.392 691.253 211.708 691 211.1L668.8 156.15C668.675 155.841 668.49 155.559 668.255 155.321C668.021 155.083 667.743 154.894 667.435 154.764C667.128 154.634 666.798 154.566 666.464 154.564C666.13 154.561 665.799 154.625 665.49 154.75L628.24 169.88C627.627 170.128 627.134 170.605 626.867 171.21C626.6 171.815 626.58 172.5 626.81 173.12V173.12Z" stroke="#472F40" stroke-linecap="round" stroke-linejoin="round"/>
<path d="M650 156.23C649.806 155.68 649.502 155.174 649.106 154.745C648.711 154.315 648.233 153.97 647.701 153.73C647.169 153.491 646.593 153.361 646.01 153.35C645.426 153.339 644.846 153.446 644.305 153.665C643.764 153.884 643.273 154.211 642.862 154.625C642.45 155.039 642.127 155.532 641.912 156.075C641.696 156.617 641.593 157.198 641.608 157.782C641.623 158.365 641.757 158.939 642 159.47L638.32 161C637.572 161.302 636.891 161.749 636.316 162.315C635.741 162.881 635.284 163.556 634.971 164.299C634.658 165.043 634.495 165.841 634.491 166.647C634.488 167.454 634.644 168.254 634.95 169V169L661.64 158.2C661.34 157.45 660.894 156.767 660.329 156.191C659.763 155.614 659.089 155.156 658.345 154.841C657.601 154.527 656.802 154.363 655.995 154.36C655.187 154.356 654.387 154.512 653.64 154.82L650 156.23Z" fill="#FDF3E8"/>
<path d="M650 156.23C649.806 155.68 649.502 155.174 649.106 154.745C648.711 154.315 648.233 153.97 647.701 153.73C647.169 153.491 646.593 153.361 646.01 153.35C645.426 153.339 644.846 153.446 644.305 153.665C643.764 153.884 643.273 154.211 642.862 154.625C642.45 155.039 642.127 155.532 641.912 156.075C641.696 156.617 641.593 157.198 641.608 157.782C641.623 158.365 641.757 158.939 642 159.47L638.32 161C637.572 161.302 636.891 161.749 636.316 162.315C635.741 162.881 635.284 163.556 634.971 164.299C634.658 165.043 634.495 165.841 634.491 166.647C634.488 167.454 634.644 168.254 634.95 169V169L661.64 158.2C661.34 157.45 660.894 156.767 660.329 156.191C659.763 155.614 659.089 155.156 658.345 154.841C657.601 154.527 656.802 154.363 655.995 154.36C655.187 154.356 654.387 154.512 653.64 154.82L650 156.23Z" stroke="#472F40" stroke-linecap="round" stroke-linejoin="round"/>
<path d="M640 206.38C639.222 206.214 638.473 205.931 637.78 205.54C633.64 203.2 633.06 197.81 632.98 196.9L647.5 199.78C646.987 201.817 645.777 203.611 644.08 204.85C642.871 205.696 641.467 206.222 640 206.38Z" fill="#9DDFD3"/>
<path d="M640 206.38C639.222 206.214 638.473 205.931 637.78 205.54C633.64 203.2 633.06 197.81 632.98 196.9L647.5 199.78C646.987 201.817 645.777 203.611 644.08 204.85C642.871 205.696 641.467 206.222 640 206.38Z" stroke="#472F40" stroke-linecap="round" stroke-linejoin="round"/>
<path d="M639.76 183.61C638.2 183.21 636.54 182.73 634.76 182.14C632.76 181.47 631 180.76 629.36 180.04L626.48 172.36C625.77 173.19 620.05 180.06 622.16 187.75C623.93 194.19 630.09 197.23 634.22 199.27C637.6 200.93 641.252 201.966 645 202.33C646.579 199.482 647.12 196.173 646.53 192.97C646.11 191.027 645.291 189.191 644.126 187.58C642.961 185.969 641.474 184.617 639.76 183.61V183.61Z" fill="#F0BFA4"/>
<path d="M639.76 183.61C638.2 183.21 636.54 182.73 634.76 182.14C632.76 181.47 631 180.76 629.36 180.04L626.48 172.36C625.77 173.19 620.05 180.06 622.16 187.75C623.93 194.19 630.09 197.23 634.22 199.27C637.6 200.93 641.252 201.966 645 202.33C646.579 199.482 647.12 196.173 646.53 192.97C646.11 191.027 645.291 189.191 644.126 187.58C642.961 185.969 641.474 184.617 639.76 183.61V183.61Z" stroke="#472F40" stroke-linecap="round" stroke-linejoin="round"/>
<path d="M662.35 111.34C665.235 111.208 668.126 111.328 670.99 111.7C673.224 111.991 675.426 112.487 677.57 113.18C679.325 113.889 681.001 114.781 682.57 115.84C694.93 124.35 699.57 152.2 699.57 152.2C703.57 176.2 705.57 188.13 700.11 196.3C690.73 210.3 666.11 214.25 639.99 206.38C640.21 206.12 640.42 205.85 640.62 205.57C645.35 198.9 641.92 188.79 639.72 183.57C646.967 186.434 654.698 187.87 662.49 187.8C668.83 187.71 674.72 187.63 677.25 183.8C677.82 182.94 679.3 180.27 675.25 167.96C673.37 162.201 671.029 156.603 668.25 151.22C669.67 151.05 679.6 149.73 682.94 142.57C687.23 133.4 677.11 122.4 674.84 119.94C671.351 116.2 667.088 113.266 662.35 111.34Z" fill="#BAE8E0"/>
<path d="M700.15 196.3C705.61 188.13 703.61 176.15 699.61 152.2C698.905 148.342 697.987 144.526 696.86 140.77C696.06 146.402 695.932 152.108 696.48 157.77C697.23 165.4 698.71 167.5 699.18 173.25C699.38 175.57 700.37 187.51 694.18 196.83C685.54 209.78 667.88 210.36 664.64 210.37C680.57 210.62 693.82 205.77 700.15 196.3Z" fill="#9DDFD3"/>
<path d="M662.35 111.34C665.235 111.208 668.126 111.328 670.99 111.7C673.237 111.914 675.448 112.411 677.57 113.18C679.325 113.889 681.001 114.781 682.57 115.84C694.93 124.35 699.57 152.2 699.57 152.2C703.57 176.2 705.57 188.13 700.11 196.3C690.73 210.3 666.11 214.25 639.99 206.38C640.21 206.12 640.42 205.85 640.62 205.57C645.35 198.9 641.92 188.79 639.72 183.57C646.967 186.434 654.698 187.87 662.49 187.8C668.83 187.71 674.72 187.63 677.25 183.8C677.82 182.94 679.3 180.27 675.25 167.96C673.37 162.201 671.029 156.603 668.25 151.22" stroke="#472F40" stroke-linecap="round" stroke-linejoin="round"/>
<path d="M571 249.45C572.106 249.45 573.167 249.889 573.949 250.671C574.731 251.453 575.17 252.514 575.17 253.62V255.73" stroke="#472F40" stroke-width="2" stroke-linecap="round" stroke-linejoin="round"/>
<path d="M537.17 249.45C538.276 249.45 539.337 249.889 540.119 250.671C540.901 251.453 541.34 252.514 541.34 253.62V255.73" stroke="#472F40" stroke-width="2" stroke-linecap="round" stroke-linejoin="round"/>
<path d="M518.45 309.15V289.86C518.45 287.95 518.826 286.058 519.558 284.294C520.289 282.529 521.361 280.925 522.712 279.575C524.063 278.225 525.667 277.154 527.433 276.424C529.198 275.694 531.09 275.319 533 275.32V275.32C534.909 275.32 536.8 275.696 538.564 276.427C540.328 277.158 541.931 278.229 543.281 279.579C544.631 280.929 545.702 282.532 546.433 284.296C547.164 286.06 547.54 287.951 547.54 289.86V309.15" stroke="#472F40" stroke-width="2" stroke-linecap="round" stroke-linejoin="round"/>
<path d="M518.45 312.35C520.217 312.35 521.65 310.917 521.65 309.15C521.65 307.383 520.217 305.95 518.45 305.95C516.683 305.95 515.25 307.383 515.25 309.15C515.25 310.917 516.683 312.35 518.45 312.35Z" fill="#472F40"/>
<path d="M547.53 312.35C549.297 312.35 550.73 310.917 550.73 309.15C550.73 307.383 549.297 305.95 547.53 305.95C545.763 305.95 544.33 307.383 544.33 309.15C544.33 310.917 545.763 312.35 547.53 312.35Z" fill="#472F40"/>
<path d="M533 275.32V253.62C533.003 252.513 533.444 251.452 534.228 250.671C535.011 249.889 536.073 249.45 537.18 249.45" stroke="#472F40" stroke-width="2" stroke-linecap="round" stroke-linejoin="round"/>
<path d="M566.85 275.32V253.62C566.853 252.513 567.294 251.452 568.078 250.671C568.862 249.889 569.923 249.45 571.03 249.45" stroke="#472F40" stroke-width="2" stroke-linecap="round" stroke-linejoin="round"/>
<path d="M566.85 281.55C570.291 281.55 573.08 278.761 573.08 275.32C573.08 271.879 570.291 269.09 566.85 269.09C563.409 269.09 560.62 271.879 560.62 275.32C560.62 278.761 563.409 281.55 566.85 281.55Z" fill="#472F40"/>
</g>
<defs>
<clipPath id="clip0_4_2">
<rect width="765" height="420" fill="white"/>
</clipPath>
</defs>
</svg>
