<svg width="300" height="265" viewBox="0 0 300 265" fill="none" xmlns="http://www.w3.org/2000/svg">
<path d="M205.88 250C215.134 250.045 224.344 248.738 233.22 246.12C245.151 242.672 256.11 236.481 265.22 228.04C302.49 193 304.31 117 263.8 89.4801C252.83 82.0001 240.47 79.2901 229 78.9101C217.942 78.534 207.117 75.6355 197.351 70.4361C187.584 65.2366 179.136 57.8738 172.65 48.9101C165.88 39.494 157.206 31.6067 147.19 25.7601C110.61 4.6301 66.2899 17.6901 41.6799 37.6401C-9.65009 79.2501 -5.32009 175.18 41.3199 221.64C45.3377 225.64 49.6866 229.293 54.3199 232.56C70.8389 244.056 90.5151 250.149 110.64 250H205.88Z" fill="#FDF3E8"/>
<path d="M295.24 250.04H8.2002" stroke="#472F40" stroke-width="0.75" stroke-linecap="round" stroke-linejoin="round"/>
<path d="M108.37 194.78H27.3699C25.7296 194.78 24.3999 196.11 24.3999 197.75C24.3999 199.39 25.7296 200.72 27.3699 200.72H108.37C110.01 200.72 111.34 199.39 111.34 197.75C111.34 196.11 110.01 194.78 108.37 194.78Z" fill="#FFBF8A"/>
<path d="M35.3402 200.72H30.6602V250.04H35.3402V200.72Z" fill="#FFBF8A"/>
<path d="M35.3402 200.72H30.6602V204.8H35.3402V200.72Z" fill="#FF847C"/>
<path d="M104.82 200.72H100.14V250.04H104.82V200.72Z" fill="#FFBF8A"/>
<path d="M104.82 200.72H100.14V204.8H104.82V200.72Z" fill="#FF847C"/>
<path d="M108.37 194.78H27.3699C25.7296 194.78 24.3999 196.11 24.3999 197.75C24.3999 199.39 25.7296 200.72 27.3699 200.72H108.37C110.01 200.72 111.34 199.39 111.34 197.75C111.34 196.11 110.01 194.78 108.37 194.78Z" stroke="#472F40" stroke-width="0.75" stroke-linecap="round" stroke-linejoin="round"/>
<path d="M35.3402 200.72H30.6602V250.04H35.3402V200.72Z" stroke="#472F40" stroke-width="0.75" stroke-linecap="round" stroke-linejoin="round"/>
<path d="M104.82 200.72H100.14V250.04H104.82V200.72Z" stroke="#472F40" stroke-width="0.75" stroke-linecap="round" stroke-linejoin="round"/>
<path d="M264.79 193.16H238.15C237.255 193.16 236.53 193.885 236.53 194.78V207.74C236.53 208.635 237.255 209.36 238.15 209.36H264.79C265.684 209.36 266.41 208.635 266.41 207.74V194.78C266.41 193.885 265.684 193.16 264.79 193.16Z" fill="#FDF3E8"/>
<path d="M247.24 196.4H241.39V206.12H247.24V196.4Z" fill="#F8C5A8"/>
<path d="M261.55 196.4H255.7V206.12H261.55V196.4Z" fill="#F8C5A8"/>
<path d="M264.79 193.16H238.15C237.255 193.16 236.53 193.885 236.53 194.78V207.74C236.53 208.635 237.255 209.36 238.15 209.36H264.79C265.684 209.36 266.41 208.635 266.41 207.74V194.78C266.41 193.885 265.684 193.16 264.79 193.16Z" stroke="#472F40" stroke-width="0.75" stroke-linecap="round" stroke-linejoin="round"/>
<path d="M247.24 196.4H241.39V206.12H247.24V196.4Z" stroke="#472F40" stroke-width="0.75" stroke-linecap="round" stroke-linejoin="round"/>
<path d="M261.55 196.4H255.7V206.12H261.55V196.4Z" stroke="#472F40" stroke-width="0.75" stroke-linecap="round" stroke-linejoin="round"/>
<path d="M243.15 199.51H245.49" stroke="#472F40" stroke-width="0.75" stroke-linecap="round" stroke-linejoin="round"/>
<path d="M243.15 203.02H245.49" stroke="#472F40" stroke-width="0.75" stroke-linecap="round" stroke-linejoin="round"/>
<path d="M257.46 199.51H259.8" stroke="#472F40" stroke-width="0.75" stroke-linecap="round" stroke-linejoin="round"/>
<path d="M257.46 203.02H259.8" stroke="#472F40" stroke-width="0.75" stroke-linecap="round" stroke-linejoin="round"/>
<path d="M159.16 46.28H44.8101C41.2313 46.28 38.3301 49.1812 38.3301 52.76V133.4C38.3301 136.979 41.2313 139.88 44.8101 139.88H159.16C162.739 139.88 165.64 136.979 165.64 133.4V52.76C165.64 49.1812 162.739 46.28 159.16 46.28Z" fill="#D2E3F9"/>
<path d="M159.88 52.52H44.0898V133.64H159.88V52.52Z" fill="#6986C5"/>
<path d="M159.16 46.28H44.8101C41.2313 46.28 38.3301 49.1812 38.3301 52.76V133.4C38.3301 136.979 41.2313 139.88 44.8101 139.88H159.16C162.739 139.88 165.64 136.979 165.64 133.4V52.76C165.64 49.1812 162.739 46.28 159.16 46.28Z" stroke="#472F40" stroke-width="0.75" stroke-linecap="round" stroke-linejoin="round"/>
<path d="M159.88 52.52H44.0898V133.64H159.88V52.52Z" stroke="#472F40" stroke-width="0.75" stroke-linecap="round" stroke-linejoin="round"/>
<path d="M49.48 60.6799H58.65" stroke="white" stroke-linecap="round" stroke-linejoin="round"/>
<path d="M49.48 66.0801H79.69" stroke="white" stroke-linecap="round" stroke-linejoin="round"/>
<path d="M49.48 71.48H69.88" stroke="white" stroke-linecap="round" stroke-linejoin="round"/>
<path d="M49.9399 82.28H154.04" stroke="white" stroke-linecap="round" stroke-linejoin="round"/>
<path d="M62.3101 123.26C67.5457 123.26 71.7901 119.016 71.7901 113.78C71.7901 108.544 67.5457 104.3 62.3101 104.3C57.0744 104.3 52.8301 108.544 52.8301 113.78C52.8301 119.016 57.0744 123.26 62.3101 123.26Z" stroke="white" stroke-linecap="round" stroke-linejoin="round"/>
<path d="M101.99 123.26C107.225 123.26 111.47 119.016 111.47 113.78C111.47 108.544 107.225 104.3 101.99 104.3C96.7541 104.3 92.5098 108.544 92.5098 113.78C92.5098 119.016 96.7541 123.26 101.99 123.26Z" stroke="white" stroke-linecap="round" stroke-linejoin="round"/>
<path d="M141.67 123.26C146.906 123.26 151.15 119.016 151.15 113.78C151.15 108.544 146.906 104.3 141.67 104.3C136.434 104.3 132.19 108.544 132.19 113.78C132.19 119.016 136.434 123.26 141.67 123.26Z" stroke="white" stroke-linecap="round" stroke-linejoin="round"/>
<path d="M70.9 105.19L53.71 122.37" stroke="white" stroke-linecap="round" stroke-linejoin="round"/>
<path d="M110.58 105.19L93.3901 122.37" stroke="white" stroke-linecap="round" stroke-linejoin="round"/>
<path d="M150.26 105.19L133.07 122.37" stroke="white" stroke-linecap="round" stroke-linejoin="round"/>
<path d="M94.9702 157.7H34.8002C32.5137 157.7 30.6602 159.553 30.6602 161.84V190.64C30.6602 192.926 32.5137 194.78 34.8002 194.78H94.9702C97.2566 194.78 99.1102 192.926 99.1102 190.64V161.84C99.1102 159.553 97.2566 157.7 94.9702 157.7Z" fill="#D2E3F9"/>
<path d="M81.1498 163.96H70.2598V174.85H81.1498V163.96Z" fill="#8ABAF1"/>
<path d="M94.6498 163.96H83.7598V174.85H94.6498V163.96Z" fill="#BAE8E0"/>
<path d="M81.1498 177.64H70.2598V188.53H81.1498V177.64Z" fill="#FFBF8A"/>
<path d="M89.2098 177.64H89.1998C86.1953 177.64 83.7598 180.075 83.7598 183.08V183.09C83.7598 186.094 86.1953 188.53 89.1998 188.53H89.2098C92.2142 188.53 94.6498 186.094 94.6498 183.09V183.08C94.6498 180.075 92.2142 177.64 89.2098 177.64Z" fill="#FF847C"/>
<path d="M81.15 163.96H78.27V174.85H81.15V163.96Z" fill="#6986C5"/>
<path d="M94.65 163.96H91.77V174.85H94.65V163.96Z" fill="#9DDFD3"/>
<path d="M81.15 177.64H78.27V188.53H81.15V177.64Z" fill="#FF847C"/>
<path d="M89.1998 177.64C88.7128 177.64 88.2282 177.707 87.7598 177.84C88.9083 178.156 89.9213 178.84 90.6433 179.788C91.3653 180.735 91.7563 181.894 91.7563 183.085C91.7563 184.276 91.3653 185.435 90.6433 186.382C89.9213 187.33 88.9083 188.014 87.7598 188.33C88.2292 188.458 88.7132 188.525 89.1998 188.53V188.53C89.9344 188.562 90.6679 188.444 91.356 188.185C92.044 187.925 92.6725 187.529 93.2035 187.02C93.7345 186.512 94.157 185.901 94.4457 185.224C94.7343 184.548 94.8832 183.82 94.8832 183.085C94.8832 182.35 94.7343 181.622 94.4457 180.946C94.157 180.269 93.7345 179.658 93.2035 179.15C92.6725 178.641 92.044 178.245 91.356 177.985C90.6679 177.726 89.9344 177.609 89.1998 177.64V177.64Z" fill="#ED6663"/>
<path d="M64.1198 161.85H35.3398V190.63H64.1198V161.85Z" fill="#FDF3E8"/>
<path d="M40.8 185.56H58.65C58.9527 185.559 59.2497 185.477 59.5099 185.322C59.7701 185.168 59.984 184.946 60.1291 184.68C60.2742 184.414 60.3453 184.115 60.3349 183.812C60.3245 183.509 60.233 183.215 60.07 182.96L51.14 169.12C50.988 168.883 50.7787 168.687 50.5315 168.552C50.2842 168.417 50.0068 168.346 49.725 168.346C49.4431 168.346 49.1657 168.417 48.9184 168.552C48.6712 168.687 48.4619 168.883 48.31 169.12L39.38 183C39.2272 183.254 39.144 183.544 39.1389 183.841C39.1338 184.138 39.2069 184.431 39.3508 184.69C39.4947 184.95 39.7044 185.167 39.9588 185.319C40.2132 185.472 40.5033 185.555 40.8 185.56Z" fill="#FF847C"/>
<path d="M60.0701 183L51.1401 169.16C50.9881 168.923 50.7788 168.727 50.5316 168.592C50.2843 168.457 50.0069 168.386 49.7251 168.386C49.4432 168.386 49.1658 168.457 48.9185 168.592C48.6713 168.727 48.462 168.923 48.3101 169.16L47.5601 170.32L55.7501 183C55.9131 183.255 56.0046 183.549 56.015 183.852C56.0254 184.155 55.9543 184.454 55.8092 184.72C55.6641 184.986 55.4502 185.208 55.19 185.363C54.9298 185.517 54.6328 185.599 54.3301 185.6H58.6501C58.9528 185.599 59.2498 185.517 59.51 185.363C59.7702 185.208 59.9841 184.986 60.1292 184.72C60.2743 184.454 60.3454 184.155 60.335 183.852C60.3246 183.549 60.2331 183.255 60.0701 183V183Z" fill="#ED6663"/>
<path d="M94.9702 157.7H34.8002C32.5137 157.7 30.6602 159.553 30.6602 161.84V190.64C30.6602 192.926 32.5137 194.78 34.8002 194.78H94.9702C97.2566 194.78 99.1102 192.926 99.1102 190.64V161.84C99.1102 159.553 97.2566 157.7 94.9702 157.7Z" stroke="#472F40" stroke-width="0.75" stroke-linecap="round" stroke-linejoin="round"/>
<path d="M64.1198 161.85H35.3398V190.63H64.1198V161.85Z" stroke="#472F40" stroke-width="0.75" stroke-linecap="round" stroke-linejoin="round"/>
<path d="M81.1498 163.96H70.2598V174.85H81.1498V163.96Z" stroke="#472F40" stroke-width="0.75" stroke-linecap="round" stroke-linejoin="round"/>
<path d="M94.6498 163.96H83.7598V174.85H94.6498V163.96Z" stroke="#472F40" stroke-width="0.75" stroke-linecap="round" stroke-linejoin="round"/>
<path d="M81.1498 177.64H70.2598V188.53H81.1498V177.64Z" stroke="#472F40" stroke-width="0.75" stroke-linecap="round" stroke-linejoin="round"/>
<path d="M89.2098 177.64H89.1998C86.1953 177.64 83.7598 180.075 83.7598 183.08V183.09C83.7598 186.094 86.1953 188.53 89.1998 188.53H89.2098C92.2142 188.53 94.6498 186.094 94.6498 183.09V183.08C94.6498 180.075 92.2142 177.64 89.2098 177.64Z" stroke="#472F40" stroke-width="0.75" stroke-linecap="round" stroke-linejoin="round"/>
<path d="M40.8 185.56H58.65C58.9527 185.559 59.2497 185.477 59.5099 185.322C59.7701 185.168 59.984 184.946 60.1291 184.68C60.2742 184.414 60.3453 184.115 60.3349 183.812C60.3245 183.509 60.233 183.215 60.07 182.96L51.14 169.12C50.988 168.883 50.7787 168.687 50.5315 168.552C50.2842 168.417 50.0068 168.346 49.725 168.346C49.4431 168.346 49.1657 168.417 48.9184 168.552C48.6712 168.687 48.4619 168.883 48.31 169.12L39.38 183C39.2272 183.254 39.144 183.544 39.1389 183.841C39.1338 184.138 39.2069 184.431 39.3508 184.69C39.4947 184.95 39.7044 185.167 39.9588 185.319C40.2132 185.472 40.5033 185.555 40.8 185.56Z" stroke="#472F40" stroke-width="0.75" stroke-linecap="round" stroke-linejoin="round"/>
<path d="M49.7202 171.79V179.24" stroke="#472F40" stroke-linecap="round" stroke-linejoin="round"/>
<path d="M49.7202 183.48C50.4106 183.48 50.9702 182.92 50.9702 182.23C50.9702 181.54 50.4106 180.98 49.7202 180.98C49.0299 180.98 48.4702 181.54 48.4702 182.23C48.4702 182.92 49.0299 183.48 49.7202 183.48Z" fill="#472F40"/>
<path d="M104.28 182.99H109.47" stroke="#472F40" stroke-linecap="round" stroke-linejoin="round"/>
<path d="M101.99 177.45L105.66 173.78" stroke="#472F40" stroke-linecap="round" stroke-linejoin="round"/>
<path d="M101.99 188.52L105.66 192.19" stroke="#472F40" stroke-linecap="round" stroke-linejoin="round"/>
<path d="M239.07 181.55C240.23 181.55 241.17 180.61 241.17 179.45C241.17 178.29 240.23 177.35 239.07 177.35C237.91 177.35 236.97 178.29 236.97 179.45C236.97 180.61 237.91 181.55 239.07 181.55Z" fill="#6D4558"/>
<path d="M239.07 181.55C240.23 181.55 241.17 180.61 241.17 179.45C241.17 178.29 240.23 177.35 239.07 177.35C237.91 177.35 236.97 178.29 236.97 179.45C236.97 180.61 237.91 181.55 239.07 181.55Z" stroke="#472F40" stroke-width="0.75" stroke-linecap="round" stroke-linejoin="round"/>
<path d="M245.128 179.761L242.287 176.587L235.893 182.309L238.735 185.483L245.128 179.761Z" fill="#6D4558"/>
<path d="M243.957 180.809L246.445 183.588C246.622 183.786 246.713 184.045 246.698 184.31C246.683 184.575 246.564 184.823 246.366 185C246.169 185.177 245.909 185.268 245.644 185.253C245.379 185.239 245.131 185.119 244.954 184.922L242.467 182.142L243.883 180.875L243.957 180.809Z" fill="#FFBF8A"/>
<path d="M241.329 183.164L243.816 185.943C243.993 186.141 244.084 186.4 244.07 186.665C244.055 186.93 243.936 187.178 243.738 187.355C243.54 187.532 243.281 187.623 243.016 187.608C242.751 187.594 242.503 187.474 242.326 187.277L239.838 184.497L241.262 183.224L241.329 183.164Z" fill="#FFBF8A"/>
<path d="M245.128 179.761L242.287 176.587L235.893 182.309L238.735 185.483L245.128 179.761Z" stroke="#472F40" stroke-width="0.75" stroke-linecap="round" stroke-linejoin="round"/>
<path d="M243.957 180.809L246.445 183.588C246.622 183.786 246.713 184.045 246.698 184.31C246.683 184.575 246.564 184.823 246.366 185C246.169 185.177 245.909 185.268 245.644 185.253C245.379 185.239 245.131 185.119 244.954 184.922L242.467 182.142L243.883 180.875L243.957 180.809Z" stroke="#472F40" stroke-width="0.75" stroke-linecap="round" stroke-linejoin="round"/>
<path d="M241.329 183.164L243.816 185.943C243.993 186.141 244.084 186.4 244.07 186.665C244.055 186.93 243.936 187.178 243.738 187.355C243.54 187.532 243.281 187.623 243.016 187.608C242.751 187.594 242.503 187.474 242.326 187.277L239.838 184.497L241.262 183.224L241.329 183.164Z" stroke="#472F40" stroke-width="0.75" stroke-linecap="round" stroke-linejoin="round"/>
<path d="M180 146.48C182.735 146.115 185.516 146.293 188.182 147.003C190.849 147.714 193.349 148.943 195.54 150.62C190.872 164.469 191.754 179.588 198 192.8C191.236 194.065 184.278 193.86 177.6 192.2C172.337 177.24 173.199 160.806 180 146.48V146.48Z" fill="#FFBF8A"/>
<path d="M169.64 229.64C171.708 230.118 173.801 230.478 175.91 230.72C181.28 231.34 187.91 232.03 194.48 229.04C196.024 228.378 197.469 227.503 198.77 226.44C202.47 223.36 203.39 219.83 204.53 217.67C209.17 208.88 226.19 207.12 224.69 207.44C222.88 207.83 212.26 209.96 203.18 203.18C199.827 200.639 197.165 197.297 195.44 193.46C192.485 191.977 189.081 191.656 185.9 192.56C180.2 194.36 178.02 199.99 177.62 201.02C175.21 207.24 178.72 210.48 177.44 217.22C176.82 220.47 175 224.89 169.64 229.64Z" fill="#9DDFD3"/>
<path d="M169.64 229.64C171.708 230.118 173.801 230.478 175.91 230.72C181.28 231.34 187.91 232.03 194.48 229.04C196.024 228.378 197.469 227.503 198.77 226.44C202.61 223.25 203.83 219.26 204.53 217.67C206.14 214.01 210.85 209.76 224.69 207.44C207.25 205.86 203.18 203.18 203.18 203.18C199.827 200.639 197.165 197.297 195.44 193.46C192.485 191.977 189.081 191.656 185.9 192.56C180.2 194.36 178.02 199.99 177.62 201.02C175.21 207.24 178.72 210.48 177.44 217.22C176.82 220.47 175 224.89 169.64 229.64Z" stroke="#472F40" stroke-width="0.75" stroke-linecap="round" stroke-linejoin="round"/>
<path d="M203.75 134C205.293 134.049 206.812 133.61 208.092 132.747C209.372 131.883 210.347 130.639 210.88 129.19C211.88 125.85 209.68 122.72 207.78 121.36C204.18 118.79 197.92 119.8 193.06 124.6C193.343 124.059 193.467 123.449 193.42 122.84C193.42 122.6 193.31 121.62 192.86 121.49C192.41 121.36 191.58 122.42 191.24 123.11C190.939 123.733 190.785 124.418 190.79 125.11C190.319 124.72 189.765 124.443 189.17 124.3C188.01 124.05 186.6 124.3 186.49 124.89C186.42 125.25 186.94 125.7 187.44 126.12C187.675 126.325 187.929 126.506 188.2 126.66C187.301 126.832 186.451 127.202 185.712 127.744C184.974 128.285 184.365 128.984 183.93 129.79C183.504 130.596 183.282 131.495 183.286 132.408C183.29 133.32 183.518 134.217 183.951 135.02C184.385 135.823 185.009 136.506 185.769 137.01C186.529 137.515 187.402 137.824 188.31 137.91C189.606 139.267 191.302 140.175 193.15 140.5C197.1 141.11 201.4 138.55 203.75 134Z" fill="#6D4558"/>
<path d="M193.05 121.65C192.999 121.591 192.933 121.547 192.86 121.52C192.47 121.41 191.96 121.97 191.58 122.52C192.06 122.22 192.56 121.92 193.05 121.65Z" fill="#472F40"/>
<path d="M189.33 124.36H189.18L189.04 124.67L189.33 124.36Z" fill="#472F40"/>
<path d="M207.78 121.39C206.792 120.75 205.684 120.316 204.524 120.115C203.364 119.914 202.176 119.95 201.03 120.22C202.01 120.42 202.939 120.818 203.76 121.39C205.66 122.75 207.9 125.88 206.86 129.22C206.327 130.669 205.352 131.913 204.072 132.777C202.792 133.64 201.273 134.079 199.73 134.03C199.004 135.541 197.97 136.883 196.693 137.97C195.417 139.057 193.927 139.864 192.32 140.34C192.593 140.414 192.87 140.471 193.15 140.51C197.1 141.11 201.4 138.51 203.75 134.03C205.293 134.079 206.812 133.64 208.092 132.777C209.372 131.913 210.347 130.669 210.88 129.22C211.92 125.88 209.68 122.75 207.78 121.39Z" fill="#472F40"/>
<path d="M186.77 125.12C186.757 124.927 186.757 124.733 186.77 124.54C186.695 124.575 186.628 124.625 186.573 124.687C186.518 124.749 186.476 124.821 186.45 124.9V124.9C186.6 125 186.69 125.06 186.77 125.12Z" fill="#472F40"/>
<path d="M203.75 134C205.293 134.049 206.812 133.61 208.092 132.747C209.372 131.883 210.347 130.639 210.88 129.19C211.88 125.85 209.68 122.72 207.78 121.36C204.18 118.79 197.92 119.8 193.06 124.6C193.343 124.059 193.467 123.449 193.42 122.84C193.42 122.6 193.31 121.62 192.86 121.49C192.41 121.36 191.58 122.42 191.24 123.11C190.939 123.733 190.785 124.418 190.79 125.11C190.319 124.72 189.765 124.443 189.17 124.3C188.01 124.05 186.6 124.3 186.49 124.89C186.42 125.25 186.94 125.7 187.44 126.12C187.675 126.325 187.929 126.506 188.2 126.66C187.301 126.832 186.451 127.202 185.712 127.744C184.974 128.285 184.365 128.984 183.93 129.79C183.504 130.596 183.282 131.495 183.286 132.408C183.29 133.32 183.518 134.217 183.951 135.02C184.385 135.823 185.009 136.506 185.769 137.01C186.529 137.515 187.402 137.824 188.31 137.91C189.606 139.267 191.302 140.175 193.15 140.5C197.1 141.11 201.4 138.55 203.75 134Z" stroke="#472F40" stroke-width="0.75" stroke-linecap="round" stroke-linejoin="round"/>
<path d="M224.92 189.47C224.45 187.13 224.27 184.05 226 181.82C228.45 178.66 233.17 179.23 233.65 176.87C234.02 175.02 231.42 173.2 231.13 173C228.19 171 224.66 172.44 224.2 172.64C223.202 173.091 222.302 173.733 221.55 174.53C218.46 177.66 217.82 181.89 217.66 183.92L224.92 189.47Z" fill="#F0BFA4"/>
<path d="M231.13 173C231 172.91 230.87 172.84 230.75 172.77C231.42 173.65 232.17 174.9 231.75 175.88C231.19 177.24 228.91 176.97 226.89 177.98C225.28 178.79 223.37 180.64 222.24 185.29C222.26 186.243 222.521 187.176 223 188L224.88 189.44C224.41 187.1 224.23 184.02 225.96 181.79C228.41 178.63 233.13 179.2 233.61 176.84C234 175 231.42 173.2 231.13 173Z" fill="#EAB292"/>
<path d="M164.25 207.41L165.02 209.85C165.086 210.061 165.206 210.252 165.367 210.404C165.528 210.557 165.725 210.665 165.94 210.72C166.559 210.868 167.143 211.136 167.658 211.511C168.172 211.885 168.608 212.357 168.94 212.9C169.384 213.627 169.611 214.466 169.595 215.318C169.579 216.17 169.321 217 168.85 217.71C167.57 219.48 165.1 219.62 163.54 219.1C161.83 218.52 160.99 217.1 159.39 214.26C158.429 212.586 157.629 210.825 157 209L164.25 207.41Z" fill="#F0BFA4"/>
<path d="M224.92 189.47C224.45 187.13 224.27 184.05 226 181.82C228.45 178.66 233.17 179.23 233.65 176.87C234.02 175.02 231.42 173.2 231.13 173C228.19 171 224.66 172.44 224.2 172.64C223.202 173.091 222.302 173.733 221.55 174.53C218.46 177.66 217.82 181.89 217.66 183.92L224.92 189.47Z" stroke="#472F40" stroke-width="0.75" stroke-linecap="round" stroke-linejoin="round"/>
<path d="M164.25 207.41L165.02 209.85C165.086 210.061 165.206 210.252 165.367 210.404C165.528 210.557 165.725 210.665 165.94 210.72C166.559 210.868 167.143 211.136 167.658 211.511C168.172 211.885 168.608 212.357 168.94 212.9C169.384 213.627 169.611 214.466 169.595 215.318C169.579 216.17 169.321 217 168.85 217.71C167.57 219.48 165.1 219.62 163.54 219.1C161.83 218.52 160.99 217.1 159.39 214.26C158.429 212.586 157.629 210.825 157 209L164.25 207.41Z" stroke="#472F40" stroke-width="0.75" stroke-linecap="round" stroke-linejoin="round"/>
<path d="M143.29 230L139.46 228.3C139.113 228.146 138.739 228.061 138.359 228.052C137.979 228.043 137.601 228.109 137.247 228.247C136.893 228.385 136.569 228.591 136.295 228.854C136.021 229.117 135.802 229.432 135.65 229.78L131.5 239.26C130.63 241.248 130.461 243.473 131.02 245.57V245.57C131.364 246.861 132.125 248.002 133.185 248.816C134.245 249.63 135.544 250.071 136.88 250.07V250.07C137.232 250.07 137.575 249.964 137.866 249.766C138.157 249.568 138.381 249.287 138.51 248.96C138.606 248.739 138.656 248.501 138.656 248.26C138.656 248.019 138.606 247.781 138.51 247.56L136.9 244.16C136.572 243.482 136.402 242.738 136.402 241.985C136.402 241.232 136.572 240.488 136.9 239.81C137.287 239.044 137.865 238.39 138.578 237.912C139.29 237.434 140.114 237.147 140.97 237.08L141.67 237.02L143.29 230Z" fill="#6D4558"/>
<path d="M212 241L209.2 246.71C209.031 247.059 208.953 247.446 208.974 247.833C208.994 248.221 209.113 248.596 209.319 248.925C209.525 249.254 209.811 249.525 210.151 249.713C210.49 249.901 210.872 250 211.26 250H229.17C229.355 250.001 229.535 249.945 229.686 249.838C229.837 249.731 229.95 249.579 230.01 249.405C230.069 249.23 230.072 249.041 230.019 248.864C229.965 248.687 229.857 248.532 229.71 248.42V248.42C228.629 247.572 227.312 247.079 225.94 247.01L222.1 246.81C221.176 246.713 220.288 246.396 219.51 245.886C218.733 245.377 218.088 244.689 217.63 243.88L217.22 243.16L212 241Z" fill="#6D4558"/>
<path d="M143.29 230L139.46 228.3C139.113 228.146 138.739 228.061 138.359 228.052C137.979 228.043 137.601 228.109 137.247 228.247C136.893 228.385 136.569 228.591 136.295 228.854C136.021 229.117 135.802 229.432 135.65 229.78L131.5 239.26C130.63 241.248 130.461 243.473 131.02 245.57V245.57C131.364 246.861 132.125 248.002 133.185 248.816C134.245 249.63 135.544 250.071 136.88 250.07V250.07C137.232 250.07 137.575 249.964 137.866 249.766C138.157 249.568 138.381 249.287 138.51 248.96C138.606 248.739 138.656 248.501 138.656 248.26C138.656 248.019 138.606 247.781 138.51 247.56L136.9 244.16C136.572 243.482 136.402 242.738 136.402 241.985C136.402 241.232 136.572 240.488 136.9 239.81C137.287 239.044 137.865 238.39 138.578 237.912C139.29 237.434 140.114 237.147 140.97 237.08L141.67 237.02L143.29 230Z" stroke="#472F40" stroke-width="0.75" stroke-linecap="round" stroke-linejoin="round"/>
<path d="M212 241L209.2 246.71C209.031 247.059 208.953 247.446 208.974 247.833C208.994 248.221 209.113 248.596 209.319 248.925C209.525 249.254 209.811 249.525 210.151 249.713C210.49 249.901 210.872 250 211.26 250H229.17C229.355 250.001 229.535 249.945 229.686 249.838C229.837 249.731 229.95 249.579 230.01 249.405C230.069 249.23 230.072 249.041 230.019 248.864C229.965 248.687 229.857 248.532 229.71 248.42V248.42C228.629 247.572 227.312 247.079 225.94 247.01L222.1 246.81C221.176 246.713 220.288 246.396 219.51 245.886C218.733 245.377 218.088 244.689 217.63 243.88L217.22 243.16L212 241Z" stroke="#472F40" stroke-width="0.75" stroke-linecap="round" stroke-linejoin="round"/>
<path d="M165.39 189.9C167.09 194.817 168.515 199.825 169.66 204.9C172.71 218.38 174.75 227.42 170.47 231.09C167.32 233.79 161.88 232.63 153.79 230.89C149.771 230.016 145.859 228.712 142.12 227C141.7 229.333 141.28 231.667 140.86 234L139.96 239.13C146.561 242.008 153.358 244.414 160.3 246.33C168.97 248.71 172.6 248.86 176.23 247.59C179.541 246.38 182.443 244.258 184.6 241.47C185.68 240.1 188.45 236.18 189.37 219.79C189.65 214.74 189.64 210.5 189.57 207.46C191.954 208 194.294 208.719 196.57 209.61C202.57 211.97 210.29 214.98 213.31 221.31C217.84 230.79 209.36 242.39 208.9 243C210.56 243.5 212.4 244 214.39 244.35C216.562 244.772 218.755 245.072 220.96 245.25C225.717 240.267 228.692 233.85 229.42 227C230.032 220.686 228.681 214.337 225.55 208.82C220.96 200.92 213.92 197.48 207.28 194.24C202.931 192.122 198.346 190.531 193.62 189.5C188.529 187.018 182.865 185.951 177.22 186.41C173.083 186.772 169.061 187.959 165.39 189.9V189.9Z" fill="#8ABAF1"/>
<path d="M228.55 216.12C227.881 213.563 226.872 211.108 225.55 208.82C221.55 201.91 215.64 198.41 209.78 195.47C208.95 195.05 208.11 194.65 207.28 194.24C206.45 193.83 205.75 193.52 205 193.19L204.34 192.91L202.77 192.27L202.11 192.02L200.54 191.45L200.08 191.29C199.43 191.07 198.79 190.87 198.18 190.68C197.49 191.14 196.93 191.57 196.53 191.89C196.87 193.6 197.4 196.17 198.1 199.28C198.967 203.443 200.062 207.556 201.38 211.6C203.407 212.474 205.357 213.518 207.21 214.72C210.72 212.8 214.62 208 219.16 209.24C222.41 210.13 223.95 213.63 225.46 216.56C229.9 225.16 227.46 234.25 226.59 237.09C226.73 236.79 226.88 236.47 227.02 236.15C227.05 236.061 227.087 235.974 227.13 235.89C227.26 235.59 227.38 235.29 227.5 234.97C227.55 234.85 227.6 234.72 227.64 234.6C227.81 234.16 227.96 233.72 228.11 233.26C228.2 232.98 228.29 232.71 228.37 232.42C228.45 232.13 228.48 232.01 228.54 231.8C228.6 231.59 228.7 231.19 228.77 230.89C228.84 230.59 228.86 230.48 228.91 230.27C228.96 230.06 229.05 229.57 229.11 229.21L229.2 228.67C229.29 228.13 229.36 227.57 229.42 227C229.766 223.35 229.472 219.668 228.55 216.12V216.12Z" fill="#6986C5"/>
<path d="M189.79 197.75C189.094 199.668 188.496 201.621 188 203.6C184.17 218.44 187 230.6 181.67 238.43C180.779 239.753 179.674 240.919 178.4 241.88C175.82 243.667 172.777 244.667 169.64 244.76C165.04 245.07 163.37 243.76 157.28 242.76C153.737 242.143 150.146 241.842 146.55 241.86C151.91 243.91 156.6 245.36 160.34 246.39C169.01 248.77 172.64 248.92 176.27 247.65C179.581 246.44 182.482 244.318 184.64 241.53C185.72 240.16 188.49 236.24 189.41 219.85C189.69 214.8 189.68 210.56 189.61 207.52C189.61 206.2 189.54 204.83 189.61 203.4C189.54 201.39 189.64 199.51 189.79 197.75Z" fill="#6986C5"/>
<path d="M165.39 189.9C167.09 194.817 168.515 199.825 169.66 204.9C172.71 218.38 174.75 227.42 170.47 231.09C167.32 233.79 161.88 232.63 153.79 230.89C149.771 230.016 145.859 228.712 142.12 227C141.7 229.333 141.28 231.667 140.86 234L139.96 239.13C146.561 242.008 153.358 244.414 160.3 246.33C168.97 248.71 172.6 248.86 176.23 247.59C179.541 246.38 182.443 244.258 184.6 241.47C185.68 240.1 188.45 236.18 189.37 219.79C189.65 214.74 189.64 210.5 189.57 207.46C191.954 208 194.294 208.719 196.57 209.61C202.57 211.97 210.29 214.98 213.31 221.31C217.84 230.79 209.36 242.39 208.9 243C210.56 243.5 212.4 244 214.39 244.35C216.562 244.772 218.755 245.072 220.96 245.25C225.717 240.267 228.692 233.85 229.42 227C230.032 220.686 228.681 214.337 225.55 208.82C220.96 200.92 213.92 197.48 207.28 194.24C202.931 192.122 198.346 190.531 193.62 189.5C188.529 187.018 182.865 185.951 177.22 186.41C173.083 186.772 169.061 187.959 165.39 189.9V189.9Z" stroke="#472F40" stroke-width="0.75" stroke-linecap="round" stroke-linejoin="round"/>
<path d="M189.57 207.48C189.51 205.74 189.49 203.88 189.57 201.92C189.64 199.64 189.8 197.49 190.02 195.5" stroke="#472F40" stroke-width="0.75" stroke-linecap="round" stroke-linejoin="round"/>
<path d="M215.99 130.89H222.02" stroke="#472F40" stroke-linecap="round" stroke-linejoin="round"/>
<path d="M213.32 124.45L217.59 120.18" stroke="#472F40" stroke-linecap="round" stroke-linejoin="round"/>
<path d="M213.32 137.32L217.59 141.59" stroke="#472F40" stroke-linecap="round" stroke-linejoin="round"/>
<path d="M194.28 149.47C193.907 148.829 193.67 148.118 193.584 147.382C193.498 146.646 193.565 145.899 193.78 145.19C194.13 145.36 198.01 147.19 201.12 145.1C202.297 144.284 203.183 143.114 203.65 141.76C204.48 139.42 203.48 138.06 203.73 134.39C203.811 133.191 204.006 132.002 204.31 130.84C203.554 130.522 202.749 130.339 201.93 130.3C201.15 130.3 199.18 130.16 198.01 131.3C196.62 132.64 197.7 134.44 196.39 136.3C195.615 137.289 194.518 137.976 193.29 138.24C193.726 137.592 193.928 136.815 193.863 136.037C193.797 135.258 193.468 134.526 192.93 133.96C192.49 133.535 191.935 133.249 191.335 133.137C190.734 133.025 190.113 133.092 189.55 133.33C188.842 133.722 188.302 134.359 188.03 135.121C187.757 135.883 187.772 136.718 188.07 137.47C188.161 137.711 188.289 137.938 188.45 138.14C188.682 138.421 188.81 138.775 188.81 139.14C188.819 139.926 188.704 140.709 188.47 141.46C187.915 143.168 186.807 144.643 185.32 145.65C185.314 146.695 185.617 147.718 186.189 148.592C186.761 149.466 187.578 150.153 188.538 150.565C189.498 150.978 190.558 151.099 191.587 150.913C192.615 150.727 193.565 150.243 194.32 149.52L194.28 149.47Z" fill="#F0BFA4"/>
<path d="M194.28 149.47C193.907 148.829 193.67 148.118 193.584 147.382C193.498 146.646 193.565 145.899 193.78 145.19C194.13 145.36 198.01 147.19 201.12 145.1C202.297 144.284 203.183 143.114 203.65 141.76C204.48 139.42 203.48 138.06 203.73 134.39C203.811 133.191 204.006 132.002 204.31 130.84C203.554 130.522 202.749 130.339 201.93 130.3C201.15 130.3 199.18 130.16 198.01 131.3C196.62 132.64 197.7 134.44 196.39 136.3C195.615 137.289 194.518 137.976 193.29 138.24C193.726 137.592 193.928 136.815 193.863 136.037C193.797 135.258 193.468 134.526 192.93 133.96C192.49 133.535 191.935 133.249 191.335 133.137C190.734 133.025 190.113 133.092 189.55 133.33C188.842 133.722 188.302 134.359 188.03 135.121C187.757 135.883 187.772 136.718 188.07 137.47C188.161 137.711 188.289 137.938 188.45 138.14C188.682 138.421 188.81 138.775 188.81 139.14C188.819 139.926 188.704 140.709 188.47 141.46C187.915 143.168 186.807 144.643 185.32 145.65C185.314 146.695 185.617 147.718 186.189 148.592C186.761 149.466 187.578 150.153 188.538 150.565C189.498 150.978 190.558 151.099 191.587 150.913C192.615 150.727 193.565 150.243 194.32 149.52L194.28 149.47Z" stroke="#472F40" stroke-width="0.75" stroke-linecap="round" stroke-linejoin="round"/>
<path d="M204.31 130.84C204.589 130.935 204.877 131.002 205.17 131.04C205.927 131.126 206.693 131.008 207.39 130.7" stroke="#472F40" stroke-width="0.75" stroke-linecap="round" stroke-linejoin="round"/>
<path d="M198.86 136.54C199.203 136.54 199.48 136.262 199.48 135.92C199.48 135.578 199.203 135.3 198.86 135.3C198.518 135.3 198.24 135.578 198.24 135.92C198.24 136.262 198.518 136.54 198.86 136.54Z" fill="#472F40"/>
<path d="M202.28 136.54C202.623 136.54 202.9 136.262 202.9 135.92C202.9 135.578 202.623 135.3 202.28 135.3C201.938 135.3 201.66 135.578 201.66 135.92C201.66 136.262 201.938 136.54 202.28 136.54Z" fill="#472F40"/>
<path d="M200.8 135.92C200.8 136.371 200.881 136.818 201.04 137.24C201.26 137.83 201.52 138.07 201.43 138.32C201.34 138.57 201.06 138.74 199.99 138.74" stroke="#472F40" stroke-width="0.75" stroke-linecap="round" stroke-linejoin="round"/>
<path d="M199.45 141.53C199.277 141.638 199.074 141.689 198.871 141.679C198.667 141.668 198.471 141.595 198.31 141.47C198.198 141.33 198.132 141.159 198.122 140.98C198.111 140.801 198.156 140.623 198.25 140.47C198.398 140.253 198.626 140.102 198.885 140.052C199.143 140.001 199.411 140.054 199.63 140.2C199.739 140.278 199.826 140.382 199.884 140.502C199.942 140.623 199.968 140.757 199.96 140.89C199.935 141.031 199.875 141.163 199.786 141.275C199.697 141.386 199.582 141.474 199.45 141.53V141.53Z" fill="#472F40"/>
<path d="M191.14 135.41C190.964 135.375 190.782 135.382 190.608 135.428C190.435 135.475 190.275 135.561 190.14 135.68C189.993 135.82 189.888 135.998 189.835 136.193C189.782 136.389 189.784 136.595 189.84 136.79" stroke="#472F40" stroke-width="0.75" stroke-linecap="round" stroke-linejoin="round"/>
<path d="M194.28 149.47C194.2 151.03 194.04 153.38 193.64 156.2C192.22 166.2 189.77 168.2 188.78 174.02C186.52 187.17 196.5 192.16 198.26 208.19C198.37 209.19 198.59 211.57 200.12 212.36C202.86 213.78 206.54 208.54 213.12 206.78C216.97 205.845 221.011 206.075 224.73 207.44C224.06 206.65 223.33 205.84 222.54 205.02C221.36 203.79 220.2 202.69 219.08 201.71C221.165 200.284 222.892 198.395 224.124 196.189C225.356 193.984 226.06 191.523 226.18 189C225.041 187.226 223.426 185.809 221.52 184.91C220.305 184.344 218.997 184.005 217.66 183.91C217.55 185.12 217.12 188.5 214.99 190.55C214.565 190.993 214.045 191.335 213.47 191.55C212.404 191.874 211.257 191.792 210.247 191.322C209.238 190.851 208.437 190.024 208 189C206.23 185.16 205.52 173.2 205 168.37C204.36 162.52 203.66 156.95 199.43 152.79C197.946 151.358 196.197 150.23 194.28 149.47Z" stroke="#472F40" stroke-width="0.75" stroke-linecap="round" stroke-linejoin="round"/>
<path d="M194.28 149.47C194.2 151.03 194.04 153.38 193.64 156.2C192.22 166.2 189.77 168.2 188.78 174.02C186.52 187.17 196.5 192.16 198.26 208.19C198.37 209.19 198.59 211.57 200.12 212.36C202.86 213.78 206.54 208.54 213.12 206.78C216.97 205.845 221.011 206.075 224.73 207.44C224.06 206.65 223.33 205.84 222.54 205.02C221.36 203.79 220.2 202.69 219.08 201.71C221.165 200.284 222.892 198.395 224.124 196.189C225.356 193.984 226.06 191.523 226.18 189C225.041 187.226 223.426 185.809 221.52 184.91C220.305 184.344 218.997 184.005 217.66 183.91C217.55 185.12 217.12 188.5 214.99 190.55C214.565 190.993 214.045 191.335 213.47 191.55C212.404 191.874 211.257 191.792 210.247 191.322C209.238 190.851 208.437 190.024 208 189C206.23 185.16 205.52 173.2 205 168.37C204.36 162.52 203.66 156.95 199.43 152.79C197.946 151.358 196.197 150.23 194.28 149.47Z" fill="#BAE8E0"/>
<path d="M188.78 174C188.537 175.376 188.429 176.773 188.46 178.17C188.847 174.902 190.097 171.796 192.08 169.17C193.73 167.06 196.08 165.17 195.56 163.29C195.23 162.02 193.89 161.62 194.06 160.59C194.23 159.56 195.98 159.38 196.46 157.95C196.63 157.087 196.481 156.191 196.04 155.43C195.285 153.483 194.696 151.476 194.28 149.43C194.2 150.99 194.04 153.34 193.64 156.16C192.22 166.23 189.77 168.24 188.78 174Z" fill="#9DDFD3"/>
<path d="M188.78 174C188.537 175.376 188.429 176.773 188.46 178.17C188.847 174.902 190.097 171.796 192.08 169.17C193.73 167.06 196.08 165.17 195.56 163.29C195.23 162.02 193.89 161.62 194.06 160.59C194.23 159.56 195.98 159.38 196.46 157.95C196.63 157.087 196.481 156.191 196.04 155.43C195.285 153.483 194.696 151.476 194.28 149.43C194.2 150.99 194.04 153.34 193.64 156.16C192.22 166.23 189.77 168.24 188.78 174Z" stroke="#472F40" stroke-width="0.75" stroke-linecap="round" stroke-linejoin="round"/>
<path d="M222.83 185.66C222.925 187.094 222.745 188.533 222.3 189.9C222.07 190.63 220.47 195.27 216.95 196.07C215.03 196.51 213.41 195.6 210.88 194.18C206.58 191.77 205.63 189.33 202.37 188.91C201.259 188.782 200.133 188.894 199.07 189.24C199.26 189.72 199.46 190.24 199.65 190.69C202.87 191.733 205.987 193.072 208.96 194.69C212.567 196.645 215.948 198.992 219.04 201.69C221.13 200.271 222.863 198.386 224.101 196.184C225.34 193.982 226.052 191.523 226.18 189C225.305 187.668 224.164 186.531 222.83 185.66V185.66Z" fill="#9DDFD3"/>
<path d="M194.28 149.47C194.2 151.03 194.04 153.38 193.64 156.2C192.22 166.2 189.77 168.2 188.78 174.02C186.52 187.17 196.5 192.16 198.26 208.19C198.37 209.19 198.59 211.57 200.12 212.36C202.86 213.78 206.54 208.54 213.12 206.78C216.97 205.845 221.011 206.075 224.73 207.44C224.095 206.489 223.404 205.578 222.66 204.71C221.667 203.549 220.584 202.469 219.42 201.48C221.416 200.047 223.064 198.182 224.241 196.025C225.418 193.868 226.094 191.474 226.22 189.02C225.081 187.246 223.466 185.829 221.56 184.93C220.345 184.364 219.037 184.025 217.7 183.93C217.59 185.14 217.16 188.52 215.03 190.57C214.605 191.013 214.085 191.355 213.51 191.57C212.436 191.904 211.277 191.825 210.258 191.35C209.24 190.875 208.434 190.037 208 189C206.23 185.16 205.52 173.2 205 168.37C204.36 162.52 203.66 156.95 199.43 152.79C197.946 151.358 196.197 150.23 194.28 149.47Z" stroke="#472F40" stroke-width="0.75" stroke-linecap="round" stroke-linejoin="round"/>
<path d="M185.32 145.6C183.816 144.751 182.2 144.118 180.52 143.72C177.95 143.197 175.306 143.153 172.72 143.59C165.65 144.9 151.4 162.83 151.12 185.96C151.054 194.513 152.813 202.981 156.28 210.8C157.761 210.529 159.223 210.169 160.66 209.72C162.257 209.222 163.82 208.621 165.34 207.92C162.126 197.812 161.568 187.046 163.72 176.66C163.899 180.26 164.29 183.846 164.89 187.4C167.15 200.69 173.28 218.63 170.48 222.92C169.834 223.918 169.398 225.038 169.2 226.21C168.97 227.64 169.05 229.48 169.64 229.64C170.23 229.8 170.64 228.09 172.04 227.12C174.09 225.72 176.68 226.95 179.96 227.61C183.24 228.27 188.14 229.19 190.52 227.36C192.38 225.93 192.93 222.59 190.88 213.2C187.88 199.65 184.99 198.5 182.88 188.36C181.21 180.49 179.77 172.36 183.12 164.6C184.72 161.449 185.736 158.034 186.12 154.52C186.363 151.523 186.092 148.506 185.32 145.6V145.6Z" fill="#BAE8E0"/>
<path d="M181 174.78C181 175.21 181 175.62 181.07 176C181.05 175.58 181 175.17 181 174.78Z" fill="#9DDFD3"/>
<path d="M182.84 147.92C180.74 150.13 177.84 153.14 178.64 155.06C179.29 156.71 182.3 156.72 182.24 157.52C182.18 158.32 179.82 157.89 178.7 159.44C177.77 160.73 178.18 162.66 178.64 164.78C178.857 165.784 179.158 166.767 179.54 167.72C180.373 169.988 180.865 172.368 181 174.78C180.959 173.41 181.083 172.04 181.37 170.7C181.667 168.6 182.242 166.549 183.08 164.6C184.68 161.449 185.696 158.034 186.08 154.52C186.336 151.525 186.079 148.509 185.32 145.6C184.448 146.324 183.62 147.099 182.84 147.92V147.92Z" fill="#9DDFD3"/>
<path d="M181 174.78C181 175.21 181 175.62 181.07 176C181.05 175.58 181 175.17 181 174.78Z" stroke="#472F40" stroke-width="0.75" stroke-linecap="round" stroke-linejoin="round"/>
<path d="M182.84 147.92C180.74 150.13 177.84 153.14 178.64 155.06C179.29 156.71 182.3 156.72 182.24 157.52C182.18 158.32 179.82 157.89 178.7 159.44C177.77 160.73 178.18 162.66 178.64 164.78C178.857 165.784 179.158 166.767 179.54 167.72C180.373 169.988 180.865 172.368 181 174.78C180.959 173.41 181.083 172.04 181.37 170.7C181.667 168.6 182.242 166.549 183.08 164.6C184.68 161.449 185.696 158.034 186.08 154.52C186.336 151.525 186.079 148.509 185.32 145.6C184.448 146.324 183.62 147.099 182.84 147.92V147.92Z" stroke="#472F40" stroke-width="0.75" stroke-linecap="round" stroke-linejoin="round"/>
<path d="M168.62 174.74C168.663 169.414 169.589 164.133 171.36 159.11C167.746 164.435 165.155 170.386 163.72 176.66C163.899 180.26 164.29 183.846 164.89 187.4C167.15 200.69 173.28 218.63 170.48 222.92C169.834 223.918 169.399 225.038 169.2 226.21C168.97 227.64 169.05 229.48 169.64 229.64C170.23 229.8 170.64 228.09 172.04 227.12C173.44 226.15 175.33 226.48 177.47 227.02C177.897 220.799 177.585 214.548 176.54 208.4C174 193.84 168.56 187.65 168.62 174.74Z" fill="#9DDFD3"/>
<path d="M185.32 145.6C183.816 144.751 182.2 144.118 180.52 143.72C177.95 143.197 175.306 143.153 172.72 143.59C165.65 144.9 151.4 162.83 151.12 185.96C151.054 194.513 152.813 202.981 156.28 210.8C157.761 210.529 159.223 210.169 160.66 209.72C162.257 209.222 163.82 208.621 165.34 207.92C162.126 197.812 161.568 187.046 163.72 176.66C163.899 180.26 164.29 183.846 164.89 187.4C167.15 200.69 173.28 218.63 170.48 222.92C169.834 223.918 169.398 225.038 169.2 226.21C168.97 227.64 169.05 229.48 169.64 229.64C170.23 229.8 170.64 228.09 172.04 227.12C174.09 225.72 176.68 226.95 179.96 227.61C183.24 228.27 188.14 229.19 190.52 227.36C192.38 225.93 192.93 222.59 190.88 213.2C187.88 199.65 184.99 198.5 182.88 188.36C181.21 180.49 179.77 172.36 183.12 164.6C184.72 161.449 185.736 158.034 186.12 154.52C186.363 151.523 186.092 148.506 185.32 145.6V145.6Z" stroke="#472F40" stroke-width="0.75" stroke-linecap="round" stroke-linejoin="round"/>
<path d="M163.72 176.66C164.134 174.844 164.645 173.051 165.25 171.29C167.397 165.135 170.661 159.429 174.88 154.46" stroke="#472F40" stroke-width="0.75" stroke-linecap="round" stroke-linejoin="round"/>
<path d="M224.69 207.44C223.679 205.937 222.534 204.528 221.27 203.23C218.997 200.945 216.399 199.007 213.56 197.48C208.14 194.461 202.481 191.892 196.64 189.8" stroke="#472F40" stroke-width="0.75" stroke-linecap="round" stroke-linejoin="round"/>
<path d="M198.32 161.6C197.402 163.986 196.758 166.469 196.4 169C195.864 173.118 196.026 177.296 196.88 181.36C197.466 184.547 198.395 187.662 199.65 190.65" stroke="#472F40" stroke-width="0.75" stroke-linecap="round" stroke-linejoin="round"/>
<path d="M99.1001 176.24H108.34C111.698 176.24 114.918 177.574 117.292 179.948C119.666 182.322 121 185.542 121 188.9V195.27C121 206.674 125.53 217.612 133.595 225.676C141.659 233.74 152.596 238.27 164 238.27V238.27C172.566 238.272 180.938 235.715 188.041 230.928C195.145 226.141 200.657 219.341 203.87 211.4L214.65 184.77C215.839 181.835 217.877 179.322 220.503 177.553C223.129 175.784 226.224 174.839 229.39 174.84V174.84C231.223 174.84 233.035 175.231 234.705 175.988C236.374 176.745 237.863 177.851 239.07 179.23V179.23" stroke="#472F40" stroke-linecap="round" stroke-linejoin="round"/>
<path d="M183.33 88.8399C182.576 88.8426 181.848 88.561 181.292 88.0514C180.737 87.5418 180.393 86.8415 180.33 86.0899L178.1 61.9399C178.033 61.2125 178.119 60.4791 178.351 59.7865C178.584 59.0939 178.958 58.4573 179.45 57.9173C179.942 57.3773 180.541 56.9457 181.209 56.65C181.877 56.3543 182.6 56.2011 183.33 56.2V56.2C184.061 56.2012 184.784 56.3545 185.452 56.6501C186.121 56.9456 186.72 57.377 187.213 57.9169C187.706 58.4567 188.081 59.0931 188.315 59.7857C188.548 60.4783 188.635 61.2119 188.57 61.9399L186.35 86.0899C186.287 86.845 185.941 87.5481 185.38 88.0583C184.82 88.5684 184.088 88.8476 183.33 88.8399Z" fill="#FF847C"/>
<path d="M183.33 99.7601C185.318 99.7601 186.93 98.1483 186.93 96.1601C186.93 94.1718 185.318 92.5601 183.33 92.5601C181.342 92.5601 179.73 94.1718 179.73 96.1601C179.73 98.1483 181.342 99.7601 183.33 99.7601Z" fill="#FF847C"/>
<path d="M183.33 88.8399C182.576 88.8426 181.848 88.561 181.292 88.0514C180.737 87.5418 180.393 86.8415 180.33 86.0899L178.1 61.9399C178.033 61.2125 178.119 60.4791 178.351 59.7865C178.584 59.0939 178.958 58.4573 179.45 57.9173C179.942 57.3773 180.541 56.9457 181.209 56.65C181.877 56.3543 182.6 56.2011 183.33 56.2V56.2C184.061 56.2012 184.784 56.3545 185.452 56.6501C186.121 56.9456 186.72 57.377 187.213 57.9169C187.706 58.4567 188.081 59.0931 188.315 59.7857C188.548 60.4783 188.635 61.2119 188.57 61.9399L186.35 86.0899C186.287 86.845 185.941 87.5481 185.38 88.0583C184.82 88.5684 184.088 88.8476 183.33 88.8399Z" stroke="#472F40" stroke-width="0.75" stroke-linecap="round" stroke-linejoin="round"/>
<path d="M183.33 99.7601C185.318 99.7601 186.93 98.1483 186.93 96.1601C186.93 94.1718 185.318 92.5601 183.33 92.5601C181.342 92.5601 179.73 94.1718 179.73 96.1601C179.73 98.1483 181.342 99.7601 183.33 99.7601Z" stroke="#472F40" stroke-width="0.75" stroke-linecap="round" stroke-linejoin="round"/>
</svg>
