<svg width="294" height="263" viewBox="0 0 294 263" fill="none" xmlns="http://www.w3.org/2000/svg">
<path d="M100.131 77.3788C100.69 79.5926 102.544 81.04 104.284 80.6071L185.688 60.356C187.423 59.9243 188.377 57.7783 187.819 55.5645L175.997 8.68959L88.3094 30.5039L100.131 77.3788Z" fill="#D1E3F8"/>
<path fill-rule="evenodd" clip-rule="evenodd" d="M100.201 77.3616C100.76 79.5754 102.615 81.0227 104.354 80.5899L185.758 60.3388C187.493 59.9071 188.447 57.7611 187.889 55.5473L176.067 8.67238L88.3796 30.4867L100.201 77.3616Z" stroke="#48426D" stroke-width="0.75"/>
<path d="M170.775 0.928207L89.3635 21.1813C87.6324 21.6165 86.5826 23.361 87.0164 25.0813L88.3797 30.4866L176.075 8.67035L174.712 3.26504C174.502 2.43613 173.97 1.72389 173.231 1.28548C172.493 0.847073 171.609 0.718528 170.775 0.928207Z" fill="#8BBAF1" stroke="#48426D" stroke-width="0.75"/>
<path d="M91.6246 27.0489C92.2362 26.8967 92.6078 26.2809 92.4546 25.6734C92.3014 25.0659 91.6814 24.6968 91.0698 24.849C90.4581 25.0012 90.0865 25.617 90.2397 26.2244C90.3929 26.8319 91.0129 27.201 91.6246 27.0489Z" fill="#48426D"/>
<path d="M95.3177 26.13C95.9293 25.9779 96.301 25.3621 96.1478 24.7546C95.9946 24.1471 95.3745 23.778 94.7629 23.9302C94.1512 24.0823 93.7796 24.6981 93.9328 25.3056C94.086 25.9131 94.706 26.2822 95.3177 26.13Z" fill="#48426D"/>
<path d="M99.0095 25.2118C99.6211 25.0597 99.9927 24.4439 99.8395 23.8364C99.6863 23.2289 99.0663 22.8598 98.4546 23.012C97.843 23.1641 97.4714 23.7799 97.6246 24.3874C97.7778 24.9949 98.3978 25.364 99.0095 25.2118Z" fill="#48426D"/>
<rect opacity="0.63" width="19.0254" height="1.5125" transform="matrix(0.970422 -0.241415 0.244542 0.969639 132.575 60.0251)" fill="white"/>
<rect opacity="0.63" width="23.6867" height="1.5125" transform="matrix(0.970422 -0.241416 0.244541 0.969639 131.03 63.8193)" fill="white"/>
<path d="M157.531 46.7604L135.531 26.4327C135.082 26.0028 134.442 25.8329 133.837 25.9834C133.233 26.1338 132.749 26.5833 132.557 27.1725L122.806 55.399C122.307 56.8466 123.587 58.3186 125.033 57.959L156.782 50.0606C158.227 49.701 158.658 47.8035 157.531 46.7604Z" fill="#FF847C"/>
<path d="M157.531 46.7602L135.531 26.4325C135.145 26.0632 134.614 25.8834 134.082 25.9418C133.55 26.0002 133.071 26.2908 132.776 26.7347C133.547 26.5545 136.363 28.2311 146.647 42.2272C150.81 48.0606 153.802 49.5093 122.803 55.4243C122.325 56.8584 123.6 58.3153 125.036 57.958L156.782 50.0604C158.227 49.7008 158.658 47.8033 157.531 46.7602Z" fill="#ED6663"/>
<path fill-rule="evenodd" clip-rule="evenodd" d="M157.531 46.7604L135.531 26.4327C135.082 26.0028 134.442 25.8329 133.837 25.9834C133.233 26.1338 132.749 26.5833 132.557 27.1725L122.806 55.399C122.307 56.8466 123.587 58.3186 125.033 57.959L156.782 50.0606C158.227 49.701 158.658 47.8035 157.531 46.7604Z" stroke="#48426D" stroke-width="0.75" stroke-linecap="round"/>
<path d="M139.299 47.3668C138.747 47.5033 138.181 47.2005 137.992 46.6677L133.53 34.0101C133.32 33.4147 133.372 32.759 133.672 32.2033C133.973 31.6475 134.495 31.2429 135.111 31.0883C135.724 30.936 136.373 31.045 136.901 31.3891C137.43 31.7332 137.79 32.2809 137.894 32.8999L140.112 46.1287C140.206 46.6884 139.852 47.226 139.299 47.3668Z" fill="white" stroke="#48426D" stroke-width="0.75" stroke-linecap="round"/>
<path d="M140.344 51.7742C141.2 51.5613 141.72 50.6995 141.506 49.8493C141.292 48.9992 140.424 48.4827 139.568 48.6956C138.712 48.9086 138.192 49.7703 138.406 50.6205C138.621 51.4706 139.488 51.9871 140.344 51.7742Z" fill="white" stroke="#48426D" stroke-width="0.75" stroke-linecap="round"/>
<path d="M1 261.751H293.46" stroke="#2B2E4A" stroke-width="0.75" stroke-linecap="round"/>
<path d="M207.233 259.847C209.17 260.396 216.644 245.276 217.198 237.578C217.303 236.101 215.219 233.938 211.897 231.219C211.374 233.3 210.062 236.247 206.867 239.351C211.302 246.155 205.702 259.404 207.233 259.847Z" fill="#2B2E4A" stroke="#2B2E4A" stroke-width="0.75" stroke-linecap="round"/>
<path d="M203.579 224.859C187.43 212.815 163.995 195.03 174.846 177.369C190.901 151.251 194.223 139.429 194.223 139.429C195.883 121.009 143.566 112.212 139.414 160.323C135.417 206.637 166.561 228.23 197.29 234.935C201.439 232.508 203 227.749 203.579 224.859Z" fill="#2B2E4A"/>
<path d="M203.579 224.859C187.43 212.815 163.995 195.03 174.846 177.369C190.901 151.251 194.223 139.429 194.223 139.429C195.884 121.009 143.566 112.212 139.414 160.323C139.212 162.652 139.104 164.915 139.076 167.117C140.382 167.286 141.702 167.312 143.013 167.197C143.013 167.197 154.639 161.148 157.13 185.067C159.621 208.985 185.918 221.632 194.776 223.281C203.634 224.931 194.776 231.254 197.268 234.828C197.287 234.856 197.312 234.883 197.331 234.908C201.447 232.461 203.003 227.738 203.579 224.859Z" fill="#2B2E4A"/>
<path fill-rule="evenodd" clip-rule="evenodd" d="M203.579 224.859C187.43 212.815 163.995 195.03 174.846 177.369C190.901 151.251 194.223 139.429 194.223 139.429C195.883 121.009 143.566 112.212 139.414 160.323C135.417 206.637 166.561 228.23 197.29 234.935C201.439 232.508 203 227.749 203.579 224.859Z" stroke="#2B2E4A" stroke-width="0.75" stroke-linecap="round"/>
<path d="M143.566 122.384C138.307 135.305 117.823 141.079 99.8301 165.822C84.3149 187.156 91.6974 222.047 96.1264 240.184C99.2211 241.338 102.905 241.558 106.05 241.432C104.389 222.506 104.389 194.909 132.782 180.123C178.179 156.48 179.009 136.685 179.009 136.685C188.686 113.311 148.826 109.462 143.566 122.384Z" fill="#48426D"/>
<path d="M132.771 180.118C178.168 156.474 178.998 136.68 178.998 136.68C187.175 116.959 160.064 111.139 148.239 117.57C147.619 118.455 147.328 119.351 147.433 120.179C147.433 120.179 134.423 127.052 147.433 144.647C160.443 162.242 102.036 169.94 101.759 209.255C101.483 248.569 97.6073 231.798 96.2233 240.046C96.2233 240.104 96.2067 240.156 96.1984 240.211C99.2765 241.336 102.917 241.545 106.031 241.426C104.373 222.506 104.37 194.909 132.771 180.118Z" fill="#2B2E4A"/>
<path fill-rule="evenodd" clip-rule="evenodd" d="M143.566 122.384C138.307 135.305 117.823 141.079 99.8301 165.822C84.3149 187.156 91.6974 222.047 96.1264 240.184C99.2211 241.338 102.905 241.558 106.05 241.432C104.389 222.506 104.389 194.909 132.782 180.123C178.179 156.48 179.009 136.685 179.009 136.685C188.686 113.311 148.826 109.462 143.566 122.384Z" stroke="#2B2E4A" stroke-width="0.75" stroke-linecap="round"/>
<path d="M96.1263 240.184C96.8294 243.084 97.4578 245.556 97.9035 247.475C98.4156 249.674 98.5401 251.445 98.3657 252.853C101.236 254.227 104.713 254.455 107.224 254.378C107.055 250.964 106.487 246.51 106.039 241.432C102.894 241.553 99.21 241.339 96.1263 240.184Z" fill="#DEB097"/>
<path d="M101.051 241.284C103.138 246.045 105.084 252.974 98.7229 252.974H98.6316C101.447 254.241 104.782 254.45 107.213 254.376C107.044 250.961 106.476 246.507 106.028 241.429C104.368 241.501 102.704 241.452 101.051 241.284V241.284Z" fill="#D2A186"/>
<path fill-rule="evenodd" clip-rule="evenodd" d="M96.1263 240.184C96.8294 243.084 97.4578 245.556 97.9035 247.475C98.4156 249.674 98.5401 251.445 98.3657 252.853C101.236 254.227 104.713 254.455 107.224 254.378C107.055 250.964 106.487 246.51 106.039 241.432C102.894 241.553 99.21 241.339 96.1263 240.184Z" stroke="#2B2E4A" stroke-width="0.75" stroke-linecap="round"/>
<path d="M206.867 239.351C210.062 236.247 211.374 233.303 211.897 231.219C209.611 229.349 206.732 227.213 203.579 224.86C203 227.749 201.439 232.508 197.29 234.936C198.483 235.211 199.676 235.439 200.866 235.653C203.806 236.184 205.685 237.539 206.867 239.351Z" fill="#D2A186" stroke="#2B2E4A" stroke-width="0.75" stroke-linecap="round"/>
<path d="M191.103 52.7589C188.697 56.4154 184.977 59.2141 179.828 60.2506C160.729 64.0996 156.023 69.0482 156.023 69.0482C132.771 82.7944 142.736 100.115 147.165 108.362C151.594 116.61 141.352 118.26 143.843 124.583C158.514 147.677 189.794 147.952 194.223 139.429C204.741 101.489 187.817 85.0103 190.901 81.1449C195.324 78.1039 199.1 74.2258 202.012 69.7328C200.761 58.9255 194.793 54.4909 191.103 52.7589Z" fill="#8BBAF1"/>
<path d="M202.012 69.7328C200.755 58.9255 194.793 54.4909 191.103 52.7589C191.023 52.8826 190.937 53.0008 190.854 53.1191C192.088 54.7329 197.68 62.6645 191.731 66.8488C185.088 71.5225 176.507 76.1963 181.766 87.1932C187.026 98.1902 191.455 135.855 169.586 133.656C147.718 131.456 143.289 120.184 143.566 122.384C143.602 122.659 143.616 123.252 143.671 124.091C143.721 124.25 143.777 124.415 143.843 124.583C158.514 147.677 189.794 147.952 194.223 139.429C204.741 101.489 187.817 85.0103 190.901 81.1449C195.324 78.1039 199.1 74.2258 202.012 69.7328Z" fill="#6886C5"/>
<path fill-rule="evenodd" clip-rule="evenodd" d="M191.103 52.7589C188.697 56.4154 184.977 59.2141 179.828 60.2506C160.729 64.0996 156.023 69.0482 156.023 69.0482C132.771 82.7944 142.736 100.115 147.165 108.362C151.594 116.61 141.352 118.26 143.843 124.583C158.514 147.677 189.794 147.952 194.223 139.429C204.741 101.489 187.817 85.0103 190.901 81.1449C195.324 78.1039 199.1 74.2258 202.012 69.7328C200.761 58.9255 194.793 54.4909 191.103 52.7589Z" stroke="#2B2E4A" stroke-width="0.75" stroke-linecap="round"/>
<path d="M198.928 23.9606C182.873 9.11462 173.185 16.5376 172.355 18.737C171.524 20.9364 177.06 16.5376 178.998 17.9122C180.936 19.2868 176.784 18.737 176.23 20.3865C175.676 22.8609 180.659 20.9364 183.981 22.0361C194.499 26.6548 197.622 42.8589 191.103 52.759C194.793 54.491 200.755 58.9255 202.012 69.7328C211.529 55.1041 211.28 35.3864 198.928 23.9606Z" fill="#DEB097"/>
<path d="M198.928 23.9606C195.266 20.5735 191.933 18.3494 188.963 16.9528C188.983 16.9528 203.155 23.9771 203.634 39.9062C204.188 58.3262 194.613 48.7918 191.178 52.8277C193.5 55.5247 200.036 57.2265 202.012 69.7329C211.529 55.1041 211.28 35.3865 198.928 23.9606Z" fill="#D2A186"/>
<path fill-rule="evenodd" clip-rule="evenodd" d="M198.928 23.9606C182.873 9.11462 173.185 16.5376 172.355 18.737C171.524 20.9364 177.06 16.5376 178.998 17.9122C180.936 19.2868 176.784 18.737 176.23 20.3865C175.676 22.8609 180.659 20.9364 183.981 22.0361C194.499 26.6548 197.622 42.8589 191.103 52.759C194.793 54.491 200.755 58.9255 202.012 69.7328C211.529 55.1041 211.28 35.3865 198.928 23.9606Z" stroke="#2B2E4A" stroke-width="0.75" stroke-linecap="round"/>
<path d="M145.227 52.2778C145.227 52.2778 146.058 54.4772 143.843 60.5256C141.629 66.5739 144.674 73.722 152.424 70.148C160.175 66.5739 154.916 48.4289 145.227 52.2778Z" fill="#DEB097"/>
<path d="M145.227 52.2778C145.227 52.2778 145.781 53.7927 144.729 57.7516C145.715 58.4882 146.819 59.0542 147.995 59.4259C151.594 60.5256 146.871 68.2675 149.656 69.895C151.195 70.7995 154.182 69.3452 155.732 66.1203C157.675 59.7173 152.806 49.2674 145.227 52.2778Z" fill="#D2A186"/>
<path fill-rule="evenodd" clip-rule="evenodd" d="M145.227 52.2778C145.227 52.2778 146.058 54.4772 143.843 60.5256C141.629 66.5739 144.674 73.722 152.424 70.148C160.175 66.5739 154.916 48.4289 145.227 52.2778Z" stroke="#2B2E4A" stroke-width="0.75" stroke-linecap="round"/>
<path d="M126.274 91.4711L125.85 91.867C105.92 110.562 97.3388 81.4198 100.937 77.296C104.536 73.1721 105.92 72.0724 101.768 73.7219C99.1852 74.7474 105.563 71.2339 103.705 68.7733C100.384 64.3745 82.7149 79.839 97.6156 102.039C107.794 117.204 126.432 114.576 139.486 108.588C130.174 104.945 127.207 96.6754 126.274 91.4711Z" fill="#DEB097"/>
<path d="M92.3977 79.3553C90.8974 85.2525 91.6143 93.1016 97.6156 102.039C107.794 117.204 126.432 114.576 139.486 108.588C130.218 104.967 127.243 96.7663 126.293 91.5648C124.156 96.4997 123.077 111.013 106.75 105.338C90.2552 99.6036 92.3673 79.6248 92.3977 79.3553Z" fill="#D2A186"/>
<path fill-rule="evenodd" clip-rule="evenodd" d="M126.274 91.4711L125.85 91.867C105.92 110.562 97.3388 81.4198 100.937 77.296C104.536 73.1721 105.92 72.0724 101.768 73.7219C99.1852 74.7474 105.563 71.2339 103.705 68.7733C100.384 64.3745 82.7149 79.839 97.6156 102.039C107.794 117.204 126.432 114.576 139.486 108.588C130.174 104.945 127.207 96.6754 126.274 91.4711Z" stroke="#2B2E4A" stroke-width="0.75" stroke-linecap="round"/>
<path d="M153.811 69.895C153.811 69.895 145.894 73.1281 126.274 91.4711C127.207 96.6755 130.163 104.942 139.486 108.588C147.021 105.132 152.693 100.557 153.808 97.6405" fill="#8BBAF1"/>
<path d="M141.075 95.9909C133.047 102.314 126.958 94.3414 126.404 91.5921C126.392 91.5278 126.372 91.4651 126.346 91.4052L126.274 91.4711C127.207 96.6755 130.163 104.942 139.486 108.588C147.021 105.132 152.693 100.557 153.808 97.6405V96.9916C150.226 94.5008 145.374 92.6066 141.075 95.9909Z" fill="#6886C5"/>
<path d="M153.811 69.895C153.811 69.895 145.894 73.1281 126.274 91.4711C127.207 96.6755 130.163 104.942 139.486 108.588C147.021 105.132 152.693 100.557 153.808 97.6405" stroke="#2B2E4A" stroke-width="0.75" stroke-linecap="round"/>
<path d="M151.317 58.3262C151.317 58.3262 139.137 53.1026 143.013 46.7793C146.888 40.456 160.175 40.1811 163.22 47.879C166.265 55.5769 162.113 62.45 174.846 63.2748C187.579 64.0996 195.33 74.8217 192.008 83.8942C188.686 92.9667 173.838 91.2154 171.801 90.4924C167.926 89.1178 164.881 97.6404 156.023 92.1419C141.352 82.7945 154.085 59.7008 151.317 58.3262Z" fill="#48426D"/>
<path d="M174.846 63.2748C162.113 62.4501 166.265 55.5769 163.22 47.879C161.332 43.1063 155.505 41.4018 150.428 42.3008C155.519 43.3483 161.421 46.8783 160.452 57.7763C158.791 76.4712 174.846 64.9244 178.444 74.2718C182.043 83.6193 168.202 80.5951 167.649 86.3685C167.095 92.142 160.175 93.764 153.808 89.2415C152.978 88.6587 152.341 88.3508 151.871 88.26C152.991 89.8066 154.401 91.1246 156.023 92.142C164.881 97.6405 167.926 89.1178 171.801 90.4924C173.838 91.2155 188.686 92.9667 192.008 83.8942C195.33 74.8217 187.579 64.0996 174.846 63.2748Z" fill="#2B2E4A"/>
<path fill-rule="evenodd" clip-rule="evenodd" d="M151.317 58.3262C151.317 58.3262 139.137 53.1026 143.013 46.7793C146.888 40.456 160.175 40.1811 163.22 47.879C166.265 55.5769 162.113 62.45 174.846 63.2748C187.579 64.0996 195.33 74.8217 192.008 83.8942C188.686 92.9667 173.838 91.2154 171.801 90.4924C167.926 89.1178 164.881 97.6404 156.023 92.1419C141.352 82.7945 154.085 59.7008 151.317 58.3262Z" stroke="#2B2E4A" stroke-width="0.75" stroke-linecap="round"/>
<path d="M98.3547 252.853C97.4108 260.55 87.6062 257.628 84.3287 259.022C80.4534 260.671 95.6309 262.871 105.09 261.496C107.044 261.221 107.434 258.582 107.224 254.378C104.708 254.455 101.225 254.233 98.3547 252.853Z" fill="#2B2E4A" stroke="#2B2E4A" stroke-width="0.75" stroke-linecap="round"/>
<path d="M146.658 59.8823C147.091 59.8823 147.442 59.5339 147.442 59.1042C147.442 58.6745 147.091 58.3262 146.658 58.3262C146.226 58.3262 145.875 58.6745 145.875 59.1042C145.875 59.5339 146.226 59.8823 146.658 59.8823Z" fill="#2B2E4A"/>
<path d="M144.673 58.0511C144.673 58.0511 143.375 60.7372 142.182 61.6252C141.075 62.4499 141.352 62.9998 143.013 63.2747" fill="#D2A186"/>
<path d="M144.673 58.0511C144.673 58.0511 143.375 60.7372 142.182 61.6252C141.075 62.4499 141.352 62.9998 143.013 63.2747" stroke="#2B2E4A" stroke-width="0.75" stroke-linecap="round"/>
<path d="M145.504 65.4742C145.504 65.4742 144.397 66.5748 143.229 65.7631" stroke="#2B2E4A" stroke-width="0.75" stroke-linecap="round"/>
<path d="M198.334 177.387C198.334 177.387 204.745 165.877 200.066 160.098C195.388 154.319 192.273 166.284 198.334 177.387Z" fill="#BAE9E0"/>
<path d="M195.184 167.913C195.652 171.233 196.719 174.443 198.334 177.387C198.334 177.387 200.799 172.961 201.556 168.221C200.45 170.307 198.346 172.396 195.184 167.913Z" fill="#9DDFD3"/>
<path fill-rule="evenodd" clip-rule="evenodd" d="M198.334 177.387C198.334 177.387 204.745 165.877 200.066 160.098C195.388 154.319 192.273 166.284 198.334 177.387Z" stroke="#48426D" stroke-width="0.75"/>
<path d="M197.645 158.972C197.645 158.972 199.714 174.449 196.715 190.608" stroke="#48426D" stroke-width="0.75"/>
<path d="M195.003 213.022C195.003 213.022 191.636 189.76 202.313 173.734C212.99 157.707 220.724 173.112 215.379 186.578C210.436 199.036 195.32 215.428 195.003 213.022Z" fill="#9DDFD3"/>
<path d="M207.966 167.799C206.222 168.81 204.324 170.714 202.313 173.734C193.523 186.928 194.251 205.021 194.783 211.007C195.032 211.818 195.189 212.261 195.189 212.261C195.976 214.56 207.584 195.559 209.991 182.384C211.008 176.812 210.003 171.336 207.966 167.799Z" fill="#BAE9E0"/>
<path fill-rule="evenodd" clip-rule="evenodd" d="M195.003 213.022C195.003 213.022 191.636 189.76 202.313 173.734C212.99 157.707 220.724 173.112 215.379 186.578C210.436 199.036 195.32 215.428 195.003 213.022Z" stroke="#48426D" stroke-width="0.75"/>
<path d="M197.588 220.242C197.192 219.92 198.737 202.6 205.849 196.352C212.96 190.105 219.088 199.414 214.076 205.188C209.065 210.962 199.353 221.687 197.588 220.242Z" fill="#9DDFD3"/>
<path d="M211.416 194.355C209.791 194.062 207.855 194.583 205.835 196.352C200.427 201.104 198.237 212.263 197.673 217.474C197.797 218.763 197.945 219.553 198.038 219.608C200.051 220.703 207.586 208.372 211.439 201.782C212.962 199.188 212.676 196.363 211.416 194.355Z" fill="#BAE9E0"/>
<path fill-rule="evenodd" clip-rule="evenodd" d="M197.588 220.242C197.192 219.92 198.737 202.6 205.849 196.352C212.96 190.105 219.088 199.414 214.076 205.188C209.065 210.962 199.353 221.687 197.588 220.242Z" stroke="#48426D" stroke-width="0.75"/>
<path d="M191.387 215.516C191.387 215.516 187.385 199.188 176.68 187.264C165.976 175.34 170.254 165.294 175.261 162.288C180.267 159.282 197.549 164.573 196.688 192.085C196.367 212.182 192.006 217.899 191.387 215.516Z" fill="#9DDFD3"/>
<path d="M180.748 161.78C176.203 165.312 172.899 173.961 180.827 185.549C189.866 198.769 191.68 215.471 191.68 215.471C191.715 215.752 191.814 215.932 191.966 216.001C193.339 215.613 196.426 208.867 196.688 192.094C197.336 171.353 187.687 163.235 180.748 161.78Z" fill="#BAE9E0"/>
<path fill-rule="evenodd" clip-rule="evenodd" d="M191.387 215.516C191.387 215.516 187.385 199.188 176.68 187.264C165.976 175.34 170.254 165.294 175.261 162.288C180.267 159.282 197.549 164.573 196.688 192.085C196.367 212.182 192.006 217.899 191.387 215.516Z" stroke="#48426D" stroke-width="0.75"/>
<path d="M187.122 220.601C187.122 220.601 181.857 212.758 174.04 208.474C166.222 204.19 166.424 198.109 168.381 195.59C170.338 193.071 180.195 192.633 185.193 207.277C189 217.917 187.901 221.736 187.122 220.601Z" fill="#9DDFD3"/>
<path d="M187.879 219.385C187.98 217.479 187.445 213.574 185.189 207.28C181.554 196.626 175.344 193.956 171.477 194.263C170.431 197.104 171.004 201.531 176.271 205.718C183.248 211.262 187.085 219.877 187.085 219.877C187.279 220.298 187.605 220.17 187.879 219.385Z" fill="#BAE9E0"/>
<path fill-rule="evenodd" clip-rule="evenodd" d="M187.122 220.601C187.122 220.601 181.857 212.758 174.04 208.474C166.222 204.19 166.424 198.109 168.381 195.59C170.338 193.071 180.195 192.633 185.193 207.277C189 217.917 187.901 221.736 187.122 220.601Z" stroke="#48426D" stroke-width="0.75"/>
<path d="M191.425 235.954L179.152 235.94L183.065 259.303C183.32 260.823 184.643 261.937 186.194 261.94H191.397H196.599C198.152 261.945 199.48 260.833 199.738 259.312L203.693 235.966L191.425 235.954Z" fill="#9DDFD3"/>
<path d="M200.727 235.964C200.743 237.769 200.694 254.555 193.816 257.127C188.817 258.997 184.814 257.226 182.33 254.946L183.058 259.295C183.313 260.814 184.636 261.929 186.187 261.931H191.39H196.592C198.145 261.936 199.473 260.824 199.731 259.303L203.693 235.966L200.727 235.964Z" fill="#BAE9E0"/>
<path fill-rule="evenodd" clip-rule="evenodd" d="M191.425 235.954L179.152 235.94L183.065 259.303C183.32 260.823 184.643 261.937 186.194 261.94H191.397H196.599C198.152 261.945 199.48 260.833 199.738 259.312L203.693 235.966L191.425 235.954Z" stroke="#48426D" stroke-width="0.75"/>
<path d="M203.691 235.799C203.692 234.736 198.162 233.868 191.338 233.861C184.515 233.854 178.982 234.71 178.981 235.773C178.98 236.836 184.511 237.704 191.334 237.711C198.158 237.718 203.69 236.862 203.691 235.799Z" fill="#48426D" stroke="#48426D" stroke-width="0.75"/>
<path d="M196.916 235.799C196.916 235.799 201.13 220.405 206.942 223.139C209.684 225.226 197.399 237.243 196.916 235.799Z" fill="#9DDFD3"/>
<path d="M204.565 222.978C200.016 224.48 196.916 235.798 196.916 235.798C196.943 235.886 197.035 235.938 197.125 235.915C198.758 235.001 204.357 226.573 204.565 222.978Z" fill="#BAE9E0"/>
<path fill-rule="evenodd" clip-rule="evenodd" d="M196.916 235.799C196.916 235.799 201.13 220.405 206.942 223.139C209.684 225.226 197.399 237.243 196.916 235.799Z" stroke="#48426D" stroke-width="0.75"/>
<path d="M187.872 235.789C187.872 235.789 181.915 219.743 177.068 221.502C172.22 223.26 187.385 237.232 187.872 235.789Z" fill="#9DDFD3"/>
<path d="M178.768 221.552C179.316 226.046 186.803 235.957 187.779 235.547C187.108 233.799 182.84 223.08 178.768 221.552Z" fill="#BAE9E0"/>
<path fill-rule="evenodd" clip-rule="evenodd" d="M187.872 235.789C187.872 235.789 181.915 219.743 177.068 221.502C172.22 223.26 187.385 237.232 187.872 235.789Z" stroke="#48426D" stroke-width="0.75"/>
<path d="M213.393 167.658C213.393 167.658 191.453 209.489 192.07 235.954C192.07 235.954 194.563 172.282 174.387 162.956" stroke="#48426D" stroke-width="0.75"/>
<path d="M168.376 195.831C168.376 195.831 191.132 208.526 189.656 236.272" stroke="#48426D" stroke-width="0.75"/>
<path d="M214.753 196.607C214.753 196.607 193.871 214.78 193.363 235.955" stroke="#48426D" stroke-width="0.75"/>
<path d="M179.996 240.986C179.996 240.986 192.222 244.775 202.847 241.01" stroke="#48426D" stroke-width="0.75"/>
</svg>
