<svg width="489" height="210" viewBox="0 0 489 210" fill="none" xmlns="http://www.w3.org/2000/svg">
<g clip-path="url(#clip0_2145_62914)">
<path fill-rule="evenodd" clip-rule="evenodd" d="M239.695 194.338C240.02 197.337 240.376 200.488 240.784 203.785L246.516 203.713C246.864 200.22 247.194 196.84 247.506 193.572L239.695 194.338Z" fill="#B28B67"/>
<path fill-rule="evenodd" clip-rule="evenodd" d="M239.751 202.391C239.38 203.303 239.155 204.276 239.086 205.269C239.123 206.4 239.245 207.527 239.449 208.638L258.897 208.598C259.479 206.534 259.154 205.414 257.876 205.252C256.598 205.091 256.772 204.938 255.933 204.809L247.328 199.844C247.23 199.806 247.123 199.806 247.025 199.844C246.976 199.866 246.931 199.896 246.889 199.932C246.852 199.973 246.822 200.019 246.799 200.069L246.133 201.818C245.25 202.316 244.279 202.613 243.282 202.689C242.421 202.616 241.583 202.358 240.817 201.931C240.724 201.879 240.621 201.849 240.515 201.842C240.409 201.836 240.304 201.853 240.205 201.892C240.106 201.932 240.015 201.993 239.94 202.072C239.864 202.151 239.805 202.246 239.766 202.351L239.751 202.391Z" fill="#384A51"/>
<path fill-rule="evenodd" clip-rule="evenodd" d="M215.455 193.04C214.324 196.023 213.701 199.198 213.617 202.415L219.863 203.293C220.672 199.892 221.443 196.579 222.184 193.403L215.455 193.04Z" fill="#B28B67"/>
<path fill-rule="evenodd" clip-rule="evenodd" d="M213.332 200.956C212.848 201.806 212.499 202.734 212.296 203.704C212.182 204.831 212.152 205.966 212.205 207.098L231.486 210C232.341 208.041 232.167 206.888 230.919 206.534C230.285 206.323 229.662 206.079 229.052 205.8L221.188 199.585C221.14 199.558 221.089 199.539 221.037 199.529H220.885C220.834 199.545 220.786 199.569 220.742 199.601C220.697 199.631 220.661 199.673 220.636 199.722L219.736 201.334C218.795 201.697 217.793 201.848 216.795 201.778C215.954 201.57 215.159 201.186 214.458 200.649C214.281 200.528 214.065 200.488 213.86 200.536C213.654 200.585 213.475 200.718 213.362 200.907L213.332 200.956Z" fill="#384A51"/>
<path d="M246.846 78.4719C257.152 92.7959 252.524 133.035 252.403 153.59C252.29 174.266 251.571 190.243 251.004 195.684C251.006 195.949 250.959 196.211 250.865 196.456C250.771 196.701 250.633 196.923 250.458 197.111C250.283 197.298 250.074 197.447 249.845 197.548C249.616 197.649 249.37 197.7 249.121 197.699H239.209C237.825 197.699 237.613 196.571 237.628 194.66C237.696 185.568 239.307 158.685 238.188 150.044C236.834 139.621 233.137 113.254 233.137 113.254C233.137 113.254 231.042 144.732 230.074 154.88C229.19 164.182 225.636 189.413 224.691 196.071C224.649 196.527 224.444 196.948 224.119 197.248C223.794 197.548 223.374 197.704 222.944 197.683H214.415C213.061 197.683 210.498 196.732 210.922 193.709C212.018 185.914 213.999 164.456 213.682 151.793C212.169 92.9491 221.757 78.4396 221.757 78.4396C221.371 75.8199 245.696 76.8678 246.846 78.4719Z" fill="#8CA6AD"/>
<path d="M222.944 197.699H214.415C213.061 197.699 210.498 196.748 210.922 193.725C212.018 185.93 213.999 164.472 213.682 151.809C212.169 92.9651 221.757 78.4557 221.757 78.4557C221.371 75.8037 245.696 76.8435 246.846 78.4557" stroke="black" stroke-width="0.5" stroke-miterlimit="10"/>
<path d="M251.038 195.684C251.04 195.949 250.993 196.211 250.899 196.456C250.805 196.701 250.667 196.924 250.492 197.111C250.317 197.298 250.108 197.447 249.879 197.548C249.65 197.649 249.404 197.7 249.156 197.699H239.212C237.829 197.699 237.617 196.571 237.632 194.66C237.7 185.568 239.311 158.685 238.192 150.044C236.838 139.621 233.141 113.254 233.141 113.254" stroke="black" stroke-width="0.5" stroke-miterlimit="10"/>
<path d="M257.084 73.2083C254.721 71.5966 252.718 69.4532 251.214 66.9286C249.711 64.404 248.744 61.5593 248.381 58.5941C248.146 55.7647 255.186 58.0862 255.186 58.0862C258.891 60.9156 259.042 67.6061 260.608 72.5151C261.061 73.9015 257.084 73.2083 257.084 73.2083Z" fill="#B28B67"/>
<path d="M225.748 35.3143L238.867 35.1531C238.867 35.1531 240.523 33.8553 245.347 34.6614C252.455 35.8785 250.118 53.2737 250.118 53.2737L246.844 78.4557C246.844 78.4557 247.842 81.3334 235.215 81.3334C222.587 81.3334 221.756 78.4557 221.756 78.4557L216.054 52.7578C216.054 52.7578 214.497 34.9354 218.822 35.0241C221.302 35.0725 225.748 35.3143 225.748 35.3143Z" fill="#456682"/>
<path d="M227.703 12.8974C227.703 12.8974 233.109 8.06089 234.258 7.56112C235.408 7.06135 237.374 6.1666 237.412 5.85223C237.449 5.53786 237.26 4.38516 233.858 5.96508C233.142 6.21017 232.505 6.66557 232.02 7.27899C232.272 6.80363 232.563 6.35313 232.89 5.93284C234.531 4.88493 240.708 4.95748 240.708 4.95748C241.207 4.73178 240.61 3.77254 238.81 2.3619C237.548 1.36236 232.565 1.90244 232.474 1.93468C231.505 1.91473 230.568 2.30283 229.865 3.01483C228.166 5.3456 226.341 7.56878 224.398 9.67305L227.703 12.8974Z" fill="#B28B67"/>
<path d="M245.366 36.0964C245.366 36.0964 243.688 35.113 248.822 36.1448C254.228 37.2411 258.175 62.4311 258.175 62.4311L249.79 64.0432L242.228 47.7282L240.633 43.327L245.366 36.0964Z" fill="#456682"/>
<path d="M258.177 62.4308L249.792 64.0429C248.298 61.7022 247.06 59.187 246.102 56.5464" stroke="black" stroke-width="0.5" stroke-miterlimit="10"/>
<path d="M212.471 73.9578C212.471 73.9578 202.233 71.9104 196.259 62.971C195.775 60.8429 205.681 47.9295 210.815 41.4325C211.833 40.112 213.128 39.0654 214.596 38.3774L220.032 42.9963L205.22 62.4067C208.781 64.8814 210.218 67.2432 214.467 70.8625C218.565 73.1034 212.471 73.9578 212.471 73.9578Z" fill="#B28B67"/>
<path d="M224.442 36.0882C224.442 36.0882 223.686 34.9436 218.824 35.0322C213.32 35.129 201.539 53.6366 201.539 53.6366L208.11 58.6101L222.348 48.0182L225.614 44.7939L224.442 36.0882Z" fill="#456682"/>
<path d="M218.824 35.0322C213.32 35.129 201.539 53.6366 201.539 53.6366L208.11 58.6101L222.348 48.0182" stroke="black" stroke-width="0.5" stroke-miterlimit="10"/>
<path fill-rule="evenodd" clip-rule="evenodd" d="M234.588 0H233.537C227.284 0 222.195 7.94795 222.195 14.6223V23.8761C222.2 26.8424 223.227 29.7034 225.081 31.915C226.935 34.1266 229.487 35.5344 232.252 35.8706V35.9592H247.526C249.938 33.4443 248.411 17.0002 247.17 10.9708C245.628 3.37748 240.267 0 234.588 0Z" fill="black"/>
<path fill-rule="evenodd" clip-rule="evenodd" d="M224.524 35.6689C224.524 35.6689 226.143 38.9738 232.086 39.8525C236.623 40.5215 238.725 36.0317 238.725 36.0317L238.158 30.4778C238.158 30.4778 240.517 31.0904 241.787 30.244C247.435 26.5199 246.952 13.4372 243.897 7.3755C240.842 1.31378 225.167 -1.33822 224.373 10.6804C224.101 14.8479 225.742 18.572 228.154 21.6109L224.524 35.6689Z" fill="#B28B67"/>
<path fill-rule="evenodd" clip-rule="evenodd" d="M242.894 16.7908C243.24 16.6213 243.624 16.5616 244.001 16.6187C244.377 16.6759 244.731 16.8476 245.019 17.1132C245.102 17.2019 245.019 17.3389 244.958 17.2906C244.711 17.0698 244.403 16.9422 244.081 16.9278C243.219 16.7586 242.72 17.0085 242.894 16.7908Z" fill="black"/>
<path fill-rule="evenodd" clip-rule="evenodd" d="M235.603 16.7908C235.948 16.622 236.331 16.5626 236.706 16.6198C237.082 16.677 237.434 16.8483 237.72 17.1132C237.803 17.2019 237.72 17.3389 237.66 17.2906C237.416 17.0623 237.107 16.9288 236.783 16.9117C235.913 16.7586 235.437 17.0084 235.603 16.7908Z" fill="black"/>
<path d="M244.23 18.8464C244.109 18.8464 243.99 18.8081 243.889 18.7363C243.789 18.6646 243.71 18.5626 243.664 18.4433C243.617 18.324 243.605 18.1927 243.629 18.0661C243.653 17.9394 243.711 17.8231 243.797 17.7318C243.882 17.6405 243.991 17.5783 244.11 17.5531C244.229 17.5279 244.352 17.5408 244.464 17.5902C244.576 17.6396 244.672 17.7233 244.739 17.8307C244.806 17.9381 244.842 18.0643 244.842 18.1935C244.843 18.2795 244.828 18.3649 244.798 18.4446C244.767 18.5243 244.722 18.5967 244.665 18.6575C244.608 18.7184 244.54 18.7664 244.465 18.7989C244.39 18.8313 244.31 18.8475 244.23 18.8464Z" fill="black"/>
<path d="M236.941 18.6931C236.819 18.6931 236.701 18.6548 236.6 18.583C236.5 18.5113 236.421 18.4093 236.375 18.29C236.328 18.1707 236.316 18.0394 236.34 17.9128C236.364 17.7861 236.422 17.6698 236.508 17.5784C236.593 17.4871 236.702 17.4249 236.821 17.3998C236.94 17.3746 237.063 17.3875 237.175 17.4369C237.287 17.4863 237.383 17.57 237.45 17.6774C237.517 17.7848 237.553 17.911 237.553 18.0401C237.553 18.2133 237.489 18.3794 237.374 18.5018C237.259 18.6243 237.103 18.6931 236.941 18.6931Z" fill="black"/>
<path fill-rule="evenodd" clip-rule="evenodd" d="M233.256 14.0983C237.475 11.2851 242.232 10.6402 243.472 6.15841C241.816 3.58701 239.895 0.556152 233.793 0.556152C230.617 0.556152 224.319 0.556151 222.217 17.645C221.65 22.1994 217.332 24.4242 217.99 32.9606C218.156 35.1612 219.192 36.733 225.279 36.733C231.51 36.733 230.867 34.2261 231.101 33.5087C232.319 29.8652 231.563 27.1165 231.457 22.3203C231.373 16.9276 233.022 13.9048 233.256 14.0983Z" fill="black"/>
<path fill-rule="evenodd" clip-rule="evenodd" d="M244.161 7.99655C244.551 9.74898 244.854 11.5221 245.069 13.3086L242.082 13.357L242.483 9.25404L241.348 13.2844L233.258 14.0905L243.473 6.15869L244.161 7.99655Z" fill="black"/>
<path fill-rule="evenodd" clip-rule="evenodd" d="M238.137 30.4777C238.137 30.4777 235.006 30.1391 233.086 28.7607C233.086 28.7607 233.842 31.0097 238.137 31.7271V30.4777Z" fill="#774B2D"/>
<path d="M240.657 23.304C240.014 23.304 239.493 23.1025 239.5 22.8929C239.508 22.6833 240.029 22.5221 240.672 22.5382C241.315 22.5543 241.837 22.7397 241.829 22.9493C241.821 23.1589 241.3 23.3201 240.657 23.304Z" fill="#774B2D"/>
<path fill-rule="evenodd" clip-rule="evenodd" d="M241.296 17.645C241.296 17.645 243.187 23.1505 241.342 23.4246C240.569 23.5179 239.793 23.2993 239.164 22.812C239.164 22.812 241.062 23.3521 241.538 22.949C242.015 22.546 242.037 21.3127 241.296 17.645Z" fill="black"/>
<path d="M238.923 27.1891C239.424 27.1891 239.83 26.7163 239.83 26.1331C239.83 25.5499 239.424 25.0771 238.923 25.0771C238.422 25.0771 238.016 25.5499 238.016 26.1331C238.016 26.7163 238.422 27.1891 238.923 27.1891Z" fill="black"/>
<path d="M227.369 71.9106L227.014 73.676L229.781 73.5309L229.131 75.3446L227.566 75.8282L231.8 77.7064L230.28 78.3351L227.702 78.1255L228.36 79.4878L224.7 76.8761L224.133 76.0136L224.7 74.5223L227.369 71.9106Z" fill="#FDF3E8"/>
<path d="M246.204 78.8187L245.871 77.7225L243.421 78.593L244.102 76.8116L245.312 75.5702L242.461 75.1672L245.062 74.2886L246.393 74.1838L245.916 71.9106L248.177 74.5223L248.752 75.3848L248.177 76.8761L246.204 78.8187Z" fill="#FDF3E8"/>
<path d="M0 206.873H73.519C104.377 206.873 135.62 207.292 156.694 188.558C177.767 169.825 156.225 118.752 188.036 90.7326C203.219 77.3678 217.525 75.6992 224.791 75.6992" stroke="#F7C5A8" stroke-width="3" stroke-miterlimit="10"/>
<path d="M488.998 206.873H415.479C384.621 206.873 325.302 207.292 304.214 188.558C283.125 169.825 309.794 122.234 280.675 91.0873C273.93 83.8326 255.322 75.7153 248.078 75.7153" stroke="#F7C5A8" stroke-width="3" stroke-miterlimit="10"/>
<path d="M209.633 71.2332C211.463 73.5475 213.131 76.0019 214.623 78.5765C215.175 79.4713 216.4 79.9711 217.171 79.3826C217.313 79.4304 217.462 79.4479 217.61 79.4341C217.758 79.4202 217.902 79.3753 218.034 79.302C218.283 79.1678 218.508 78.9877 218.699 78.77C218.818 78.8269 218.947 78.8564 219.077 78.8564C219.207 78.8564 219.336 78.8269 219.455 78.77C219.562 78.6931 219.649 78.5883 219.707 78.4655C219.765 78.3428 219.793 78.2062 219.788 78.0687C219.855 78.1239 219.931 78.1644 220.013 78.1879C220.095 78.2114 220.18 78.2175 220.264 78.2057C220.348 78.1966 220.429 78.1699 220.503 78.127C220.577 78.0841 220.642 78.0259 220.695 77.9559L220.99 75.2071C220.99 75.2071 221.618 73.1113 220.453 72.4423C219.289 71.7732 211.72 69.3228 211.72 69.3228L209.633 71.2332Z" fill="#B28B67"/>
<path d="M260.651 72.7246C260.651 74.9896 260.651 74.0546 256.954 79.4311C256.364 80.2856 255.117 80.7289 254.375 80.076C254.087 80.158 253.78 80.1145 253.521 79.9551C253.28 79.8082 253.065 79.6172 252.886 79.3908C252.767 79.4478 252.638 79.4772 252.508 79.4772C252.378 79.4772 252.249 79.4478 252.13 79.3908C252.026 79.3087 251.944 79.1997 251.891 79.0741C251.838 78.9485 251.816 78.8106 251.827 78.6734C251.758 78.7258 251.679 78.7628 251.596 78.7822C251.513 78.8016 251.427 78.803 251.343 78.7863C251.177 78.7552 251.028 78.6571 250.928 78.5122L250.769 75.7554C250.769 75.7554 250.232 73.6354 251.427 73.0228C253.134 72.3766 254.877 71.8383 256.644 71.4106C256.644 71.4106 260.651 71.991 260.651 72.7246Z" fill="#B28B67"/>
<path d="M280.36 186.433C282.038 183.018 282.664 179.839 281.758 179.333C280.851 178.827 278.756 181.185 277.078 184.6C275.4 188.015 274.774 191.194 275.68 191.7C276.586 192.206 278.681 189.848 280.36 186.433Z" fill="#F0F0F0"/>
<path d="M278.566 186.95C279.698 184.647 280.334 182.623 279.986 182.429C279.638 182.235 278.439 183.944 277.307 186.247C276.175 188.55 275.54 190.574 275.887 190.769C276.235 190.963 277.434 189.253 278.566 186.95Z" fill="#8CA6AD"/>
<path d="M286.294 208.638C293.744 208.638 299.784 205.191 299.784 200.94C299.784 196.688 293.744 193.242 286.294 193.242C278.844 193.242 272.805 196.688 272.805 200.94C272.805 205.191 278.844 208.638 286.294 208.638Z" fill="#F0F0F0"/>
<path fill-rule="evenodd" clip-rule="evenodd" d="M275.906 199.714C276.995 199.714 277.88 201.713 277.88 204.18C277.88 205.695 277.978 208.638 277.071 208.638H274.137C273.048 208.638 273.933 206.639 273.933 204.18C273.933 201.721 274.818 199.714 275.906 199.714Z" fill="#F0F0F0"/>
<path fill-rule="evenodd" clip-rule="evenodd" d="M284.178 205.445C285.252 205.268 288.48 203.946 288.48 206.405C288.48 207.928 288.48 208.638 287.55 208.638H279.324C278.235 208.638 278.802 207.614 279.452 206.816C280.102 206.018 283.104 205.631 284.178 205.445Z" fill="#F0F0F0"/>
<path d="M279.323 208.638C279.104 208.638 278.801 208.573 278.756 208.283C278.732 208.022 278.779 207.758 278.892 207.525C278.995 207.294 279.124 207.077 279.278 206.88C279.443 206.681 279.65 206.526 279.883 206.429C280.764 206.05 281.679 205.764 282.612 205.574C283.535 205.365 284.473 205.212 285.395 205.058L286.779 204.801C287.228 204.73 287.671 204.617 288.102 204.462L288.026 204.72C287.764 203.983 287.764 203.168 288.026 202.431C288.262 201.713 288.66 201.069 289.183 200.552C289.708 200.04 290.368 199.713 291.074 199.617C291.762 199.528 292.459 199.561 293.138 199.714C292.461 199.618 291.774 199.64 291.104 199.779C290.447 199.917 289.841 200.252 289.357 200.746C288.894 201.255 288.545 201.87 288.336 202.544C288.113 203.191 288.113 203.903 288.336 204.551L288.412 204.744L288.253 204.809C287.339 205.112 286.399 205.322 285.448 205.437C284.51 205.574 283.588 205.719 282.665 205.905C281.744 206.06 280.839 206.303 279.958 206.63C279.53 206.8 279.18 207.142 278.983 207.582C278.861 207.786 278.798 208.024 278.801 208.267C278.824 208.525 279.096 208.646 279.323 208.638Z" fill="#8CA6AD"/>
<path d="M300.486 202.02C301.501 202.02 302.323 201.143 302.323 200.061C302.323 198.979 301.501 198.102 300.486 198.102C299.471 198.102 298.648 198.979 298.648 200.061C298.648 201.143 299.471 202.02 300.486 202.02Z" fill="#F0F0F0"/>
<path d="M275.906 199.714C276.111 199.715 276.313 199.764 276.498 199.859C276.682 199.954 276.844 200.092 276.972 200.262C277.235 200.596 277.447 200.971 277.6 201.375C277.896 202.182 278.052 203.039 278.061 203.906C278.083 204.753 278.062 205.6 278.001 206.445C277.968 206.872 277.903 207.295 277.804 207.711C277.749 207.92 277.668 208.121 277.562 208.307C277.517 208.405 277.447 208.489 277.361 208.547C277.274 208.605 277.173 208.637 277.071 208.638C277.164 208.617 277.25 208.572 277.321 208.505C277.393 208.439 277.447 208.354 277.479 208.259C277.55 208.067 277.598 207.867 277.623 207.662C277.683 207.254 277.714 206.842 277.713 206.429C277.713 205.623 277.713 204.744 277.713 203.914C277.695 203.094 277.573 202.281 277.35 201.496C277.237 201.103 277.069 200.731 276.851 200.391C276.75 200.211 276.613 200.057 276.45 199.94C276.286 199.823 276.101 199.746 275.906 199.714Z" fill="#8CA6AD"/>
<path d="M284.063 189.35C287.011 186.656 288.861 183.8 288.195 182.972C287.529 182.144 284.599 183.657 281.651 186.352C278.703 189.047 276.852 191.903 277.518 192.731C278.184 193.559 281.114 192.045 284.063 189.35Z" fill="#F0F0F0"/>
<path d="M282.556 188.776C284.699 186.818 286.229 184.972 285.973 184.654C285.718 184.337 283.774 185.667 281.63 187.626C279.487 189.585 277.957 191.43 278.213 191.748C278.468 192.066 280.413 190.735 282.556 188.776Z" fill="#8CA6AD"/>
<path fill-rule="evenodd" clip-rule="evenodd" d="M279.506 191.387C280.701 193.596 279.045 197.03 275.816 198.989C272.588 200.948 269.011 200.794 267.801 198.594C267.174 197.425 268.096 196.442 268.875 194.991C269.563 193.701 269.971 191.936 271.491 190.96C274.72 189.01 278.312 189.187 279.506 191.387Z" fill="#F0F0F0"/>
<path d="M272.12 194.58C272.341 194.58 272.52 194.388 272.52 194.152C272.52 193.916 272.341 193.725 272.12 193.725C271.898 193.725 271.719 193.916 271.719 194.152C271.719 194.388 271.898 194.58 272.12 194.58Z" fill="#8CA6AD"/>
<path d="M277.238 197.941C276.464 198.804 275.522 199.475 274.478 199.908C273.962 200.128 273.424 200.285 272.875 200.375C272.328 200.46 271.773 200.46 271.227 200.375C272.295 200.233 273.342 199.946 274.342 199.521C275.349 199.086 276.318 198.558 277.238 197.941Z" fill="#8CA6AD"/>
<path d="M221.758 78.4722C221.758 78.4722 222.234 81.5675 237.637 81.3096C237.561 82.4004 237.384 83.4805 237.107 84.5339" stroke="black" stroke-width="0.5" stroke-miterlimit="10"/>
</g>
<defs>
<clipPath id="clip0_2145_62914">
<rect width="489" height="210" fill="white"/>
</clipPath>
</defs>
</svg>
