<svg width="180" height="118" viewBox="0 0 180 118" fill="none" 
  xmlns="http://www.w3.org/2000/svg">
  <g clip-path="url(#clip0)">
    <path d="M168.991 74.2249C170.572 74.23 172.086 74.8565 173.202 75.9676C174.319 77.0786 174.947 78.5837 174.95 80.1537C174.947 81.7236 174.319 83.2287 173.202 84.3398C172.086 85.4508 170.572 86.0774 168.991 86.0824H18.2221C16.6409 86.0774 15.1259 85.4511 14.0078 84.3404C12.8898 83.2296 12.2594 81.7245 12.2543 80.1537C12.2594 78.5828 12.8898 77.0777 14.0078 75.967C15.1259 74.8562 16.6409 74.2299 18.2221 74.2249H28.6223C30.2035 74.2198 31.7185 73.5936 32.8366 72.4828C33.9547 71.372 34.585 69.867 34.5901 68.2961C34.5876 66.7236 33.9583 65.2161 32.84 64.1032C31.7216 62.9904 30.2052 62.3628 28.6223 62.3577H5.96781C4.38828 62.3527 2.87475 61.7277 1.75695 60.619C0.639142 59.5103 0.00763477 58.0077 0 56.4385H0C0.00509246 54.8677 0.635477 53.3626 1.75356 52.2518C2.87164 51.1411 4.38662 50.5148 5.96781 50.5098H33.5858C34.3721 50.5123 35.1511 50.3609 35.8785 50.0643C36.6059 49.7678 37.2673 49.3318 37.825 48.7812C38.3828 48.2307 38.8259 47.5764 39.1292 46.8557C39.4324 46.135 39.5897 45.3621 39.5923 44.581C39.5872 43.011 38.9565 41.5069 37.8381 40.3977C36.7198 39.2885 35.2048 38.6643 33.6245 38.6618H12.4378C10.8566 38.6567 9.34159 38.0305 8.22351 36.9197C7.10543 35.8089 6.47505 34.3039 6.46996 32.733C6.47505 31.1622 7.10543 29.6571 8.22351 28.5463C9.34159 27.4355 10.8566 26.8093 12.4378 26.8042H174.042C175.622 26.8093 177.136 27.4359 178.253 28.5469C179.369 29.6579 179.997 31.163 180 32.733C179.997 34.303 179.369 35.8081 178.253 36.9191C177.136 38.0302 175.622 38.6567 174.042 38.6618H151.436C149.855 38.6643 148.34 39.2885 147.222 40.3977C146.104 41.5069 145.473 43.011 145.468 44.581C145.473 46.1518 146.103 47.6569 147.221 48.7677C148.339 49.8784 149.854 50.5047 151.436 50.5098H162.232C163.813 50.5148 165.328 51.1411 166.446 52.2518C167.564 53.3626 168.194 54.8677 168.2 56.4385C168.192 58.0077 167.56 59.5103 166.443 60.619C165.325 61.7277 163.811 62.3527 162.232 62.3577H154.844C153.263 62.3628 151.748 62.989 150.63 64.0998C149.512 65.2106 148.882 66.7157 148.877 68.2865C148.882 69.8574 149.512 71.3624 150.63 72.4732C151.748 73.584 153.263 74.2102 154.844 74.2153L168.991 74.2249Z" fill="#F0F0F0"/>
    <path d="M45.3186 0H139.51C140.79 0 142.018 0.50537 142.924 1.40494C143.829 2.3045 144.338 3.52457 144.338 4.79675V110.805H40.4902V4.79675C40.4902 3.52457 40.9989 2.3045 41.9044 1.40494C42.8099 0.50537 44.038 0 45.3186 0V0Z" fill="#FDF3E8"/>
    <path d="M45.3186 0H139.51C140.79 0 142.018 0.50537 142.924 1.40493C143.829 2.3045 144.338 3.52457 144.338 4.79675V12.9512H40.4902V4.79675C40.4902 3.52457 40.9989 2.3045 41.9044 1.40493C42.8099 0.50537 44.038 0 45.3186 0V0Z" fill="#F7C5A8"/>
    <path d="M144.338 12.9512V110.805H40.4902" stroke="black" stroke-miterlimit="10"/>
    <path d="M48.1386 8.02974C49.0026 8.02974 49.703 7.33393 49.703 6.47559C49.703 5.61726 49.0026 4.92145 48.1386 4.92145C47.2746 4.92145 46.5742 5.61726 46.5742 6.47559C46.5742 7.33393 47.2746 8.02974 48.1386 8.02974Z" fill="#FDF3E8"/>
    <path d="M53.9902 8.02974C54.8541 8.02974 55.5545 7.33393 55.5545 6.47559C55.5545 5.61726 54.8541 4.92145 53.9902 4.92145C53.1262 4.92145 52.4258 5.61726 52.4258 6.47559C52.4258 7.33393 53.1262 8.02974 53.9902 8.02974Z" fill="#FDF3E8"/>
    <path d="M59.8324 8.02974C60.6964 8.02974 61.3968 7.33393 61.3968 6.47559C61.3968 5.61726 60.6964 4.92145 59.8324 4.92145C58.9685 4.92145 58.2681 5.61726 58.2681 6.47559C58.2681 7.33393 58.9685 8.02974 59.8324 8.02974Z" fill="#FDF3E8"/>
    <path d="M133.745 4.92145H68.1664C67.3024 4.92145 66.6021 5.61726 66.6021 6.47559C66.6021 7.33393 67.3024 8.02974 68.1664 8.02974H133.745C134.609 8.02974 135.309 7.33393 135.309 6.47559C135.309 5.61726 134.609 4.92145 133.745 4.92145Z" fill="#FDF3E8"/>
    <path d="M139.796 101.543C138.476 100.232 136.336 100.232 135.016 101.543C133.696 102.855 133.696 104.981 135.016 106.292L145.333 116.542C146.653 117.853 148.793 117.853 150.113 116.542C151.433 115.231 151.433 113.105 150.113 111.793L139.796 101.543Z" fill="#F7C5A8"/>
    <path d="M150.113 116.532C149.8 116.845 149.427 117.094 149.017 117.263C148.607 117.432 148.167 117.52 147.723 117.52C147.279 117.52 146.839 117.432 146.429 117.263C146.018 117.094 145.646 116.845 145.333 116.532L135.019 106.296C134.701 105.982 134.448 105.608 134.275 105.197C134.102 104.785 134.013 104.343 134.013 103.898C134.013 103.452 134.102 103.01 134.275 102.598C134.448 102.187 134.701 101.813 135.019 101.499" stroke="black" stroke-miterlimit="10"/>
    <path d="M117.108 103.896C132.408 99.8235 141.487 84.1999 137.388 69C133.288 53.8001 117.562 44.7798 102.262 48.8526C86.9617 52.9254 77.882 68.549 81.9816 83.7489C86.0812 98.9488 101.808 107.969 117.108 103.896Z" fill="#8CA6AD"/>
    <path d="M89.4014 56.2179C94.7982 50.9636 102.064 48.0375 109.62 48.0754C117.177 48.1134 124.412 51.1122 129.755 56.4204C135.099 61.7286 138.117 68.9171 138.155 76.4239C138.194 83.9306 135.248 91.1491 129.959 96.5106" stroke="black" stroke-miterlimit="10"/>
    <path d="M123.904 62.2426C127.674 65.9899 129.792 71.071 129.792 76.369C129.792 81.667 127.674 86.7482 123.904 90.4954" stroke="black" stroke-miterlimit="10"/>
    <path d="M114.315 56.9278C116.294 57.3899 118.189 58.1502 119.936 59.1822" stroke="black" stroke-miterlimit="10"/>
    <path d="M135.02 101.538L129.959 96.5201" stroke="black" stroke-miterlimit="10"/>
  </g>
  <defs>
    <clipPath id="clip0">
      <rect width="180" height="118" fill="white"/>
    </clipPath>
  </defs>
</svg>