<svg width="28" height="24" viewBox="0 0 28 24" fill="none" xmlns="http://www.w3.org/2000/svg">
<mask id="mask0" mask-type="alpha" maskUnits="userSpaceOnUse" x="0" y="0" width="9" height="24">
<path d="M0.286133 0.00134277H8.7571V24H0.286133V0.00134277Z" fill="#EEEEEE"/>
</mask>
<g mask="url(#mask0)">
<path fill-rule="evenodd" clip-rule="evenodd" d="M8.6758 21.58C8.75316 21.4434 8.77665 21.2817 8.74143 21.128C8.70621 20.9742 8.61495 20.8402 8.4864 20.7533C5.7066 18.8848 3.86927 15.6635 3.86927 11.9996C3.86927 8.33618 5.7066 5.11483 8.4864 3.24641C8.61491 3.15947 8.70612 3.02539 8.74134 2.87167C8.77656 2.71794 8.75311 2.55623 8.6758 2.41967L7.48916 0.311498C7.44772 0.238286 7.39222 0.17447 7.32601 0.123921C7.25981 0.0733715 7.18429 0.0371418 7.10403 0.0174288C7.02377 -0.00228426 6.94044 -0.00506992 6.8591 0.00924071C6.77776 0.0235513 6.7001 0.0546601 6.63083 0.10068C2.81562 2.61444 0.286133 7.00295 0.286133 11.9998C0.286133 16.9967 2.81538 21.385 6.63083 23.899C6.70009 23.945 6.77774 23.9761 6.85906 23.9904C6.94039 24.0047 7.0237 24.0019 7.10395 23.9822C7.1842 23.9625 7.25972 23.9263 7.32593 23.8758C7.39214 23.8253 7.44767 23.7616 7.48916 23.6884L8.6758 21.58Z" fill="white"/>
</g>
<path fill-rule="evenodd" clip-rule="evenodd" d="M20.6458 0.310951L19.4594 2.41961C19.3822 2.55608 19.3587 2.71768 19.3939 2.8713C19.4291 3.02493 19.5202 3.15893 19.6486 3.24586C22.4284 5.11428 24.2655 8.33587 24.2655 11.9995C24.2655 15.6632 22.4284 18.8845 19.6486 20.7532C19.5202 20.8401 19.4291 20.9741 19.3939 21.1277C19.3587 21.2814 19.3822 21.443 19.4594 21.5794L20.6458 23.6879C20.6873 23.761 20.7428 23.8248 20.809 23.8754C20.8752 23.9259 20.9507 23.9621 21.031 23.9818C21.1112 24.0015 21.1945 24.0043 21.2759 23.99C21.3572 23.9757 21.4349 23.9447 21.5041 23.8987C25.3198 21.3847 27.8486 16.9964 27.8486 11.9995C27.8486 7.00264 25.3193 2.61438 21.5041 0.100133C21.4349 0.0541628 21.3572 0.0231005 21.2759 0.00882932C21.1946 -0.00544189 21.1113 -0.00262484 21.031 0.0171097C20.9508 0.0368443 20.8753 0.0730854 20.8091 0.123637C20.7429 0.174188 20.6875 0.237996 20.646 0.311194" fill="white"/>
</svg>
