<svg width="259" height="247" viewBox="0 0 259 247" fill="none" xmlns="http://www.w3.org/2000/svg">
<g clip-path="url(#clip0)">
<path d="M35.249 157.406V104.326H72.5176V20.543H225.224V56.8643" stroke="#384A51" stroke-miterlimit="10" stroke-dasharray="5 5"/>
<path d="M3.57812 171.734L35.2495 163.835L66.9101 128.281L98.5708 151.991L130.231 136.191L161.903 144.091L193.563 120.381L225.224 126.33L256.885 108.537" stroke="#8CA6AD" stroke-miterlimit="10"/>
<path d="M35.2498 165.935C36.412 165.935 37.3541 164.994 37.3541 163.835C37.3541 162.675 36.412 161.734 35.2498 161.734C34.0876 161.734 33.1455 162.675 33.1455 163.835C33.1455 164.994 34.0876 165.935 35.2498 165.935Z" fill="#8CA6AD"/>
<path d="M3.57793 173.834C4.74011 173.834 5.68224 172.894 5.68224 171.734C5.68224 170.574 4.74011 169.634 3.57793 169.634C2.41576 169.634 1.47363 170.574 1.47363 171.734C1.47363 172.894 2.41576 173.834 3.57793 173.834Z" fill="#8CA6AD"/>
<path d="M66.91 130.381C68.0721 130.381 69.0143 129.441 69.0143 128.281C69.0143 127.121 68.0721 126.181 66.91 126.181C65.7478 126.181 64.8057 127.121 64.8057 128.281C64.8057 129.441 65.7478 130.381 66.91 130.381Z" fill="#8CA6AD"/>
<path d="M98.7205 153.675C99.8827 153.675 100.825 152.735 100.825 151.575C100.825 150.415 99.8827 149.475 98.7205 149.475C97.5583 149.475 96.6162 150.415 96.6162 151.575C96.6162 152.735 97.5583 153.675 98.7205 153.675Z" fill="#8CA6AD"/>
<path d="M130.231 138.291C131.393 138.291 132.336 137.351 132.336 136.191C132.336 135.031 131.393 134.091 130.231 134.091C129.069 134.091 128.127 135.031 128.127 136.191C128.127 137.351 129.069 138.291 130.231 138.291Z" fill="#8CA6AD"/>
<path d="M161.902 146.192C163.064 146.192 164.006 145.251 164.006 144.091C164.006 142.931 163.064 141.991 161.902 141.991C160.74 141.991 159.798 142.931 159.798 144.091C159.798 145.251 160.74 146.192 161.902 146.192Z" fill="#8CA6AD"/>
<path d="M193.563 122.482C194.725 122.482 195.668 121.541 195.668 120.381C195.668 119.222 194.725 118.281 193.563 118.281C192.401 118.281 191.459 119.222 191.459 120.381C191.459 121.541 192.401 122.482 193.563 122.482Z" fill="#8CA6AD"/>
<path d="M225.224 128.43C226.387 128.43 227.329 127.49 227.329 126.33C227.329 125.17 226.387 124.229 225.224 124.229C224.062 124.229 223.12 125.17 223.12 126.33C223.12 127.49 224.062 128.43 225.224 128.43Z" fill="#8CA6AD"/>
<path d="M256.885 110.637C258.047 110.637 258.989 109.697 258.989 108.537C258.989 107.377 258.047 106.437 256.885 106.437C255.722 106.437 254.78 107.377 254.78 108.537C254.78 109.697 255.722 110.637 256.885 110.637Z" fill="#8CA6AD"/>
<path d="M43.7199 73.3887H11.3649C8.42147 73.3887 5.59856 74.5557 3.51723 76.6329C1.43589 78.7102 0.266602 81.5276 0.266602 84.4653C0.266602 87.4029 1.43589 90.2203 3.51723 92.2976C5.59856 94.3748 8.42147 95.5418 11.3649 95.5418H31.7777L35.2493 98.9959L38.7102 95.5418H43.7199C46.6615 95.539 49.4817 94.3707 51.5607 92.2938C53.6397 90.2168 54.8075 87.4011 54.8075 84.4653C54.8075 81.5294 53.6397 78.7137 51.5607 76.6367C49.4817 74.5597 46.6615 73.3915 43.7199 73.3887Z" fill="#FDF3E8"/>
<path d="M11.3649 73.3887C8.42147 73.3887 5.59856 74.5557 3.51722 76.6329C1.43589 78.7102 0.266602 81.5276 0.266602 84.4653V84.4653C0.266602 87.4029 1.43589 90.2203 3.51722 92.2976C5.59856 94.3748 8.42147 95.5418 11.3649 95.5418H31.7777L35.2493 98.9959" stroke="black" stroke-width="0.5" stroke-linecap="round" stroke-linejoin="round"/>
<path d="M24.749 80.4883H41.7223" stroke="#8CA6AD" stroke-linecap="round" stroke-linejoin="round"/>
<path d="M24.749 84.5078H41.7223" stroke="#8CA6AD" stroke-linecap="round" stroke-linejoin="round"/>
<path d="M24.749 88.5273H41.7223" stroke="#8CA6AD" stroke-linecap="round" stroke-linejoin="round"/>
<path d="M15.5737 83.2816L17.5071 83.7933C17.5411 83.8007 17.5723 83.8177 17.5969 83.8422C17.6215 83.8668 17.6385 83.8979 17.6459 83.9319L18.18 85.7442V86.8956C18.1815 86.9884 18.1642 87.0805 18.1293 87.1665C18.0944 87.2526 18.0425 87.3307 17.9768 87.3963C17.911 87.4619 17.8327 87.5137 17.7465 87.5486C17.6603 87.5834 17.568 87.6006 17.475 87.5992H13.2558C13.072 87.5992 12.89 87.5631 12.7203 87.4929C12.5505 87.4227 12.3962 87.3198 12.2663 87.1901C12.1364 87.0605 12.0333 86.9065 11.963 86.7371C11.8926 86.5676 11.8564 86.386 11.8564 86.2026V81.0215C11.8564 80.6501 12.0035 80.2938 12.2656 80.0302C12.5278 79.7666 12.8837 79.6171 13.2558 79.6143H16.77C17.1403 79.6199 17.4935 79.7706 17.7533 80.0339C18.0131 80.2972 18.1587 80.6519 18.1587 81.0215V81.4692H14.4201C14.2331 81.4692 14.0538 81.5434 13.9216 81.6753C13.7893 81.8073 13.7151 81.9862 13.7151 82.1728V85.6056C13.7151 85.6622 13.7376 85.7164 13.7776 85.7564C13.8177 85.7964 13.872 85.8188 13.9287 85.8188H15.3707C15.4255 85.8161 15.4772 85.7924 15.5149 85.7527C15.5527 85.7131 15.5738 85.6604 15.5737 85.6056V83.2816Z" fill="#384A51"/>
<path d="M15.1251 89.3694C14.7756 89.3695 14.4403 89.2316 14.1922 88.986C13.9442 88.7404 13.8034 88.4069 13.8005 88.0582V87.6957H17.4751C17.6857 87.6929 17.8867 87.6074 18.0346 87.4578C18.1826 87.3081 18.2655 87.1064 18.2655 86.8961V83.4847C18.2655 83.4055 18.234 83.3296 18.1779 83.2736C18.1218 83.2176 18.0457 83.1862 17.9664 83.1862H15.4883V85.5529C15.4883 85.584 15.4759 85.6138 15.4538 85.6358C15.4318 85.6578 15.4019 85.6702 15.3708 85.6702H13.886C13.8697 85.6716 13.8533 85.6697 13.8377 85.6645C13.8222 85.6593 13.808 85.6509 13.7959 85.6398C13.7838 85.6288 13.7742 85.6153 13.7677 85.6004C13.7611 85.5854 13.7577 85.5692 13.7578 85.5529V82.0881C13.7606 81.926 13.8271 81.7715 13.943 81.6578C14.0589 81.5441 14.2149 81.4804 14.3774 81.4805H18.7355C18.908 81.4805 19.0789 81.5144 19.2383 81.5803C19.3977 81.6462 19.5425 81.7428 19.6645 81.8645C19.7865 81.9863 19.8833 82.1309 19.9493 82.2899C20.0154 82.449 20.0494 82.6195 20.0494 82.7917V88.0582C20.0494 88.2304 20.0154 88.4009 19.9493 88.56C19.8833 88.7191 19.7865 88.8636 19.6645 88.9854C19.5425 89.1071 19.3977 89.2037 19.2383 89.2696C19.0789 89.3355 18.908 89.3694 18.7355 89.3694H15.1251Z" fill="#8CA6AD"/>
<path d="M18.778 81.597C19.1029 81.5998 19.4137 81.7299 19.6435 81.9592C19.8733 82.1885 20.0036 82.4987 20.0064 82.823V88.0574C20.0036 88.3817 19.8733 88.692 19.6435 88.9213C19.4137 89.1506 19.1029 89.2807 18.778 89.2834H15.1248C14.9626 89.2848 14.8017 89.2542 14.6515 89.1932C14.5012 89.1322 14.3645 89.0421 14.2493 88.9281C14.1341 88.8142 14.0427 88.6785 13.9803 88.5291C13.9179 88.3796 13.8857 88.2193 13.8858 88.0574V87.7803H17.4641C17.6993 87.7803 17.9248 87.687 18.091 87.5211C18.2573 87.3552 18.3507 87.1301 18.3507 86.8954V83.484C18.3479 83.3812 18.3051 83.2836 18.2312 83.2119C18.1574 83.1402 18.0585 83.1001 17.9555 83.1002H15.3919V83.2814V85.5841H13.9285V82.0874C13.9285 81.9489 13.9836 81.816 14.0818 81.718C14.1799 81.6201 14.3131 81.565 14.4519 81.565H18.81L18.778 81.597ZM18.81 81.3838H14.4198C14.2329 81.3838 14.0535 81.4579 13.9213 81.5899C13.7891 81.7218 13.7148 81.9008 13.7148 82.0874V85.5202C13.7148 85.5767 13.7374 85.631 13.7774 85.6709C13.8175 85.7109 13.8718 85.7334 13.9285 85.7334H15.3598C15.4165 85.7334 15.4708 85.7109 15.5109 85.6709C15.551 85.631 15.5735 85.5767 15.5735 85.5202V83.2814H17.9662C17.9937 83.28 18.0213 83.2841 18.0471 83.2937C18.073 83.3032 18.0966 83.3179 18.1166 83.3368C18.1366 83.3558 18.1525 83.3786 18.1634 83.4039C18.1743 83.4292 18.1798 83.4564 18.1798 83.484V86.8954C18.1813 86.9882 18.164 87.0804 18.1291 87.1664C18.0942 87.2524 18.0423 87.3305 17.9765 87.3962C17.9108 87.4618 17.8325 87.5136 17.7463 87.5484C17.6601 87.5833 17.5678 87.6005 17.4748 87.599H13.7148V88.0574C13.7148 88.4307 13.8634 88.7886 14.1278 89.0525C14.3922 89.3164 14.7509 89.4647 15.1248 89.4647H18.778C18.9626 89.4647 19.1455 89.4282 19.316 89.3574C19.4864 89.2865 19.6412 89.1827 19.7712 89.0519C19.9013 88.9211 20.0042 88.7658 20.0739 88.5952C20.1435 88.4245 20.1787 88.2417 20.1773 88.0574V82.823C20.1787 82.6387 20.1435 82.456 20.0739 82.2853C20.0042 82.1146 19.9013 81.9594 19.7712 81.8286C19.6412 81.6978 19.4864 81.5939 19.316 81.5231C19.1455 81.4522 18.9626 81.4158 18.778 81.4158L18.81 81.3838Z" fill="#7F9DA5"/>
<path d="M233.695 54.9131H201.34C198.396 54.9131 195.573 56.0801 193.492 58.1573C191.41 60.2346 190.241 63.052 190.241 65.9897C190.241 68.9273 191.41 71.7447 193.492 73.822C195.573 75.8992 198.396 77.0662 201.34 77.0662H221.763L225.224 80.5203L228.685 77.0662H233.695C236.638 77.0662 239.461 75.8992 241.542 73.822C243.624 71.7447 244.793 68.9273 244.793 65.9897C244.793 63.052 243.624 60.2346 241.542 58.1573C239.461 56.0801 236.638 54.9131 233.695 54.9131Z" fill="#FDF3E8"/>
<path d="M201.34 54.9131C198.396 54.9131 195.573 56.0801 193.492 58.1573C191.41 60.2346 190.241 63.052 190.241 65.9897C190.241 68.9273 191.41 71.7447 193.492 73.822C195.573 75.8992 198.396 77.0662 201.34 77.0662H221.763L225.224 80.5203" stroke="black" stroke-width="0.5" stroke-linecap="round" stroke-linejoin="round"/>
<path d="M214.734 62.0137H231.708" stroke="#8CA6AD" stroke-linecap="round" stroke-linejoin="round"/>
<path d="M214.734 66.0322H231.708" stroke="#8CA6AD" stroke-linecap="round" stroke-linejoin="round"/>
<path d="M214.734 70.0518H231.708" stroke="#8CA6AD" stroke-linecap="round" stroke-linejoin="round"/>
<path d="M205.559 64.8066L207.482 65.3183C207.517 65.3261 207.549 65.3431 207.575 65.3674C207.602 65.3918 207.621 65.4226 207.632 65.4569L208.166 67.2692V68.4206C208.166 68.6072 208.091 68.7861 207.959 68.9181C207.827 69.05 207.648 69.1242 207.461 69.1242H203.241C202.879 69.1105 202.535 68.9576 202.282 68.6975C202.03 68.4373 201.887 68.0899 201.885 67.7276V62.4932C201.885 62.1199 202.033 61.762 202.298 61.4981C202.562 61.2342 202.921 61.0859 203.295 61.0859H206.809C207.183 61.0859 207.542 61.2342 207.806 61.4981C208.07 61.762 208.219 62.1199 208.219 62.4932V62.8983H204.448C204.262 62.901 204.085 62.976 203.953 63.1074C203.821 63.2388 203.746 63.4161 203.743 63.6019V67.0347C203.743 67.0912 203.766 67.1454 203.806 67.1854C203.846 67.2254 203.9 67.2479 203.957 67.2479H205.399C205.456 67.2479 205.51 67.2254 205.55 67.1854C205.59 67.1454 205.613 67.0912 205.613 67.0347L205.559 64.8066Z" fill="#384A51"/>
<path d="M205.089 70.8941C204.741 70.8941 204.407 70.756 204.16 70.51C203.914 70.2641 203.775 69.9306 203.775 69.5828V69.2204H207.45C207.661 69.2176 207.862 69.1321 208.01 68.9824C208.157 68.8328 208.24 68.631 208.24 68.4208V65.0307C208.238 64.9524 208.205 64.878 208.15 64.8225C208.094 64.7671 208.02 64.7348 207.941 64.7322H205.452V67.0989C205.452 67.13 205.44 67.1598 205.418 67.1818C205.396 67.2038 205.366 67.2161 205.335 67.2161H203.893C203.862 67.2161 203.832 67.2038 203.81 67.1818C203.788 67.1598 203.775 67.13 203.775 67.0989V63.6448C203.778 63.4845 203.843 63.3315 203.957 63.2181C204.07 63.1048 204.224 63.0399 204.384 63.0371H208.742C209.091 63.0371 209.425 63.1753 209.671 63.4212C209.918 63.6671 210.056 64.0006 210.056 64.3484V69.5828C210.056 69.9306 209.918 70.2641 209.671 70.51C209.425 70.756 209.091 70.8941 208.742 70.8941H205.089Z" fill="#8CA6AD"/>
<path d="M208.753 63.1223C209.078 63.1223 209.391 63.2515 209.621 63.4814C209.852 63.7113 209.981 64.0232 209.981 64.3483V69.5827C209.981 69.9079 209.852 70.2197 209.621 70.4497C209.391 70.6796 209.078 70.8087 208.753 70.8087H205.089C204.764 70.806 204.453 70.6759 204.223 70.4466C203.994 70.2173 203.863 69.907 203.86 69.5827V69.2949H207.45C207.683 69.2921 207.906 69.1976 208.07 69.032C208.234 68.8664 208.325 68.6429 208.325 68.4101V65.0306C208.325 64.9288 208.285 64.8312 208.213 64.7592C208.141 64.6872 208.043 64.6468 207.941 64.6468H205.367V64.828V67.1308H203.893V63.6447C203.893 63.5761 203.906 63.5082 203.932 63.4448C203.959 63.3814 203.997 63.3238 204.046 63.2753C204.094 63.2268 204.152 63.1883 204.216 63.1621C204.279 63.1358 204.347 63.1223 204.416 63.1223H208.774H208.753ZM208.774 62.9411H204.416C204.23 62.9438 204.052 63.0188 203.92 63.1502C203.789 63.2816 203.714 63.4589 203.711 63.6447V67.0775C203.711 67.134 203.733 67.1882 203.774 67.2282C203.814 67.2682 203.868 67.2907 203.925 67.2907H205.367C205.423 67.2907 205.478 67.2682 205.518 67.2282C205.558 67.1882 205.58 67.134 205.58 67.0775V64.8067H207.973C208 64.8053 208.028 64.8094 208.054 64.819C208.08 64.8285 208.103 64.8432 208.123 64.8621C208.143 64.8811 208.159 64.9039 208.17 64.9292C208.181 64.9545 208.187 64.9818 208.187 65.0093V68.4207C208.187 68.6073 208.112 68.7863 207.98 68.9183C207.848 69.0502 207.669 69.1243 207.482 69.1243H203.711V69.5827C203.711 69.9505 203.855 70.3037 204.113 70.5667C204.37 70.8297 204.721 70.9816 205.089 70.99H208.742C209.116 70.99 209.475 70.8417 209.739 70.5778C210.003 70.3139 210.152 69.956 210.152 69.5827V64.3483C210.158 64.1608 210.126 63.9741 210.058 63.7992C209.991 63.6242 209.889 63.4644 209.758 63.3294C209.628 63.1943 209.472 63.0866 209.299 63.0126C209.126 62.9386 208.941 62.8998 208.753 62.8984L208.774 62.9411Z" fill="#7F9DA5"/>
<path d="M225.224 121.021V82.9941" stroke="#384A51" stroke-miterlimit="10" stroke-dasharray="5 5"/>
<g style="mix-blend-mode:multiply">
<path d="M138.862 75.0947C138.862 75.0947 142.462 62.515 146.51 59.1035L138.862 75.0947Z" fill="#FFBF8A"/>
</g>
<path d="M210.429 247C212.28 246.994 214.054 246.258 215.363 244.952C216.672 243.645 217.41 241.875 217.415 240.028C217.41 238.18 216.672 236.41 215.363 235.104C214.054 233.798 212.28 233.061 210.429 233.056H203.187C201.336 233.05 199.563 232.314 198.254 231.007C196.945 229.701 196.207 227.931 196.201 226.084C196.207 224.237 196.945 222.468 198.254 221.164C199.564 219.859 201.337 219.125 203.187 219.122H224.316C226.167 219.116 227.94 218.38 229.249 217.074C230.558 215.767 231.296 213.997 231.302 212.15C231.296 210.303 230.558 208.532 229.249 207.226C227.94 205.92 226.167 205.183 224.316 205.178H43.7944C42.8742 205.175 41.9624 205.353 41.1112 205.702C40.26 206.051 39.4859 206.564 38.8333 207.211C38.1806 207.858 37.6621 208.628 37.3074 209.475C36.9526 210.323 36.7686 211.232 36.7658 212.15C36.7686 213.068 36.9526 213.977 37.3074 214.825C37.6621 215.672 38.1806 216.441 38.8333 217.089C39.4859 217.736 40.26 218.249 41.1112 218.598C41.9624 218.947 42.8742 219.125 43.7944 219.122H52.532C54.3812 219.128 56.1532 219.863 57.4618 221.167C58.7704 222.471 59.5094 224.238 59.5179 226.084C59.5123 227.931 58.7744 229.701 57.4656 231.007C56.1567 232.314 54.3831 233.05 52.532 233.056H36.189C34.3379 233.061 32.5643 233.798 31.2555 235.104C29.9466 236.41 29.2088 238.18 29.2031 240.028C29.2088 241.875 29.9466 243.645 31.2555 244.952C32.5643 246.258 34.3379 246.994 36.189 247H210.429Z" fill="#F0F0F0"/>
<path fill-rule="evenodd" clip-rule="evenodd" d="M150.312 213.483C151.263 216.734 152.289 220.167 153.389 223.738L160.161 222.502C159.915 218.568 159.659 214.74 159.413 211.062L150.312 213.483Z" fill="#AF897B"/>
<path fill-rule="evenodd" clip-rule="evenodd" d="M151.904 222.394C151.645 223.483 151.565 224.606 151.669 225.72C151.924 226.966 152.281 228.189 152.737 229.377L179.442 224.793C179.741 222.383 179.143 221.211 177.605 221.285C176.066 221.36 174.785 221.413 173.78 221.435L160.418 218.044C160.358 218.028 160.295 218.028 160.236 218.044C160.171 218.05 160.108 218.072 160.054 218.108C160.003 218.141 159.956 218.181 159.916 218.226C159.876 218.275 159.85 218.334 159.841 218.396L159.371 220.464C158.423 221.199 157.331 221.725 156.166 222.01C155.135 222.096 154.096 221.976 153.111 221.658C152.866 221.594 152.605 221.628 152.385 221.754C152.17 221.888 152.014 222.097 151.947 222.341L151.904 222.394Z" fill="#456682"/>
<path fill-rule="evenodd" clip-rule="evenodd" d="M102.405 218.119C102.758 221.488 103.153 225.038 103.591 228.78H110.481C110.94 224.868 111.378 221.062 111.795 217.395L102.405 218.119Z" fill="#AF897B"/>
<path fill-rule="evenodd" clip-rule="evenodd" d="M102.373 227.171C101.923 228.185 101.641 229.265 101.54 230.369C101.571 231.643 101.703 232.912 101.935 234.164L129.013 234.431C129.74 232.118 129.366 230.86 127.838 230.657C126.311 230.454 125.051 230.273 124.046 230.113L111.517 224.388C111.457 224.379 111.395 224.379 111.335 224.388C111.272 224.373 111.206 224.373 111.143 224.388C111.085 224.406 111.034 224.439 110.993 224.484C110.945 224.527 110.906 224.577 110.876 224.634L110.043 226.585C108.977 227.131 107.81 227.454 106.614 227.533C105.582 227.428 104.581 227.124 103.666 226.638C103.433 226.542 103.172 226.542 102.939 226.638C102.82 226.678 102.71 226.742 102.616 226.826C102.522 226.911 102.447 227.014 102.395 227.128L102.373 227.171Z" fill="#456682"/>
<path fill-rule="evenodd" clip-rule="evenodd" d="M179.453 223.439C179.462 223.892 179.437 224.345 179.378 224.793L152.674 229.378C152.546 229.058 152.3 228.311 152.193 228.013C154.981 227.608 164.541 226.307 166.133 225.955C167.992 225.54 177.787 224.026 178.78 223.706C179.013 223.639 179.238 223.55 179.453 223.439Z" fill="#8CA6AD"/>
<path fill-rule="evenodd" clip-rule="evenodd" d="M129.366 232.703C129.325 233.302 129.207 233.894 129.013 234.462L101.935 234.196C101.817 233.577 101.721 232.948 101.657 232.319C104.413 232.575 112.168 233.268 114.39 233.172C117.082 233.055 127.86 233.471 129.366 232.703Z" fill="#8CA6AD"/>
<path fill-rule="evenodd" clip-rule="evenodd" d="M110.662 103.612L132.987 168.025L149.458 218.973L161.208 215.242C161.208 215.242 153.592 170.04 151.659 162.428C149.725 154.816 138.018 103.101 138.018 103.101L110.662 103.612Z" fill="#2F4B62"/>
<path fill-rule="evenodd" clip-rule="evenodd" d="M101.54 102.589C101.54 102.589 99.404 118.793 100.205 128.686C101.562 144.358 103.986 166.074 103.858 169.72C103.719 173.696 101.54 220.892 101.54 220.892L111.795 221.681C111.795 221.681 122.477 181.308 124.143 172.119C129.089 156.767 129.409 104.124 129.409 104.124L101.54 102.589Z" fill="#456682"/>
<path d="M101.54 102.589C101.54 102.589 99.404 118.793 100.205 128.686C101.562 144.358 103.986 166.074 103.858 169.72C103.719 173.696 101.54 220.892 101.54 220.892L111.795 221.681" stroke="black" stroke-width="0.5" stroke-linecap="round" stroke-linejoin="round"/>
<path d="M138.862 38.9437C133.639 36.8116 116.356 38.9437 116.356 38.9437C112.697 39.3407 109.071 39.9926 105.503 40.8946C104.215 41.0822 102.994 41.5838 101.946 42.3552L101.743 42.5044C101.33 42.8195 100.95 43.1768 100.611 43.5705C96.3385 48.9009 91.6172 68.0903 91.6172 68.0903L101.231 73.3141L101.541 102.589C101.541 102.589 113.921 105.307 121.323 105.307C126.956 105.395 132.571 104.651 137.987 103.1L142.9 65.6597L149.213 75.0199L159.521 63.0691C159.521 63.0691 145.507 41.6516 138.862 38.9437Z" fill="#FFBF8A"/>
<path d="M101.476 93.3564L101.572 102.589C101.572 102.589 113.952 105.307 121.354 105.307C126.987 105.395 132.603 104.651 138.018 103.1" stroke="black" stroke-width="0.5" stroke-linecap="round" stroke-linejoin="round"/>
<path d="M175.479 103.516C175.479 103.516 177.616 109.465 177.776 110.648C177.936 111.832 178.321 113.847 178.588 113.943C178.855 114.038 179.902 114.102 179.272 110.606C178.994 109.071 179.453 108.708 179.453 108.708C179.823 109.032 180.163 109.388 180.468 109.774C181.013 111.523 179.603 117.237 179.603 117.237C179.688 117.748 180.671 117.386 182.294 116C183.448 115.019 184.741 110.179 184.73 110.083C184.98 109.14 184.858 108.136 184.388 107.28C182.737 105.093 180.954 103.011 179.047 101.043L175.479 103.516Z" fill="#AF897B"/>
<path d="M179.795 102.109C177.786 97.674 167.713 79.3374 162.586 74.1562L158.089 64.6895L149.693 74.2842C151.3 76.1392 153.089 77.8286 155.034 79.3267C158.997 86.7253 176.334 104.476 176.334 104.476C176.334 104.476 181.194 105.851 179.795 102.109Z" fill="#AF897B"/>
<g style="mix-blend-mode:multiply">
<path d="M115.939 22.7712C116.483 22.561 116.922 22.1458 117.162 21.6153C117.402 21.0848 117.423 20.4814 117.221 19.9354C117.056 19.5737 116.79 19.2672 116.455 19.0524C116.119 18.8377 115.729 18.7239 115.331 18.7246C114.933 18.7253 114.543 18.8406 114.209 19.0565C113.875 19.2725 113.61 19.58 113.446 19.9423C113.282 20.3046 113.227 20.7063 113.286 21.0994C113.345 21.4925 113.516 21.8602 113.779 22.1587C114.042 22.4571 114.386 22.6736 114.769 22.7823C115.152 22.8909 115.558 22.887 115.939 22.7712Z" fill="#AF897B"/>
</g>
<path fill-rule="evenodd" clip-rule="evenodd" d="M115.362 13.4004C116.43 -1.01304 134.429 1.81207 137.591 9.43454C138.723 12.1317 139.61 20.2019 137.185 27.5579C136.671 29.1013 135.758 30.4823 134.539 31.5621C133.32 32.6419 131.838 33.3824 130.242 33.7092L130.37 37.8669C130.37 37.8669 128.479 43.1973 122.722 42.4404C115.159 41.3743 115.586 38.176 115.586 38.176C115.586 38.176 115.01 18.4003 115.362 13.4004Z" fill="#AF897B"/>
<path fill-rule="evenodd" clip-rule="evenodd" d="M131.107 26.2357C131 26.8647 128.586 27.7815 128.532 25.9159C128.5 24.8605 131.385 24.9564 131.107 26.2357Z" fill="black"/>
<path fill-rule="evenodd" clip-rule="evenodd" d="M132.795 15.9909C133.211 15.6972 133.702 15.5247 134.211 15.4927C134.72 15.4607 135.228 15.5705 135.679 15.8097C135.807 15.9056 135.753 16.0868 135.679 16.0335C135.29 15.8357 134.85 15.7613 134.418 15.8203C133.19 15.9056 132.634 16.3214 132.795 15.9909Z" fill="black"/>
<path fill-rule="evenodd" clip-rule="evenodd" d="M124.463 16.0551C124.955 15.7476 125.515 15.5653 126.095 15.5244C126.674 15.4836 127.254 15.5852 127.785 15.8206C127.945 15.9059 127.86 16.0871 127.785 16.0338C127.334 15.8425 126.839 15.7762 126.354 15.8419C124.976 15.9165 124.271 16.3643 124.463 16.0551Z" fill="black"/>
<path d="M133.981 18.198C134.173 18.1756 134.351 18.0834 134.48 17.9389C134.608 17.7944 134.68 17.6078 134.68 17.4144C134.68 17.2211 134.608 17.0344 134.48 16.89C134.351 16.7455 134.173 16.6533 133.981 16.6309C133.773 16.6337 133.575 16.718 133.429 16.8657C133.283 17.0133 133.201 17.2124 133.201 17.4198C133.201 17.6262 133.283 17.8241 133.43 17.9701C133.576 18.116 133.774 18.198 133.981 18.198Z" fill="black"/>
<path d="M125.874 18.1227C126.031 18.1248 126.185 18.08 126.317 17.9941C126.448 17.9083 126.551 17.7852 126.612 17.6406C126.674 17.496 126.69 17.3365 126.66 17.1825C126.63 17.0285 126.554 16.887 126.443 16.776C126.332 16.665 126.19 16.5897 126.036 16.5596C125.881 16.5295 125.722 16.546 125.577 16.607C125.432 16.668 125.309 16.7708 125.223 16.9022C125.137 17.0335 125.092 17.1875 125.094 17.3444C125.094 17.5508 125.176 17.7488 125.322 17.8947C125.468 18.0407 125.667 18.1227 125.874 18.1227Z" fill="black"/>
<path fill-rule="evenodd" clip-rule="evenodd" d="M131.203 22.6111C132.143 21.8115 130.413 22.2913 129.601 22.2699C128.789 22.2486 131.001 22.771 131.203 22.6111Z" fill="#B28B67"/>
<path d="M132.763 1.86523C132.763 1.86523 136.373 1.17228 138.712 5.60717C139.781 7.60074 139.663 11.1721 138.029 12.1316C136.672 12.9098 132.261 9.62629 132.261 9.62629C126.14 14.0292 126.364 9.62629 122.807 12.2915C120.002 14.2844 117.587 16.774 115.683 19.6368C115.683 19.6368 113.044 20.1272 112.061 16.5558C111.539 15.088 111.33 13.5274 111.448 11.9742C111.566 10.421 112.007 8.90948 112.745 7.53677C117.776 -2.95345 130.445 -0.000411373 132.763 1.86523Z" fill="black"/>
<path fill-rule="evenodd" clip-rule="evenodd" d="M130.413 15.9912C130.883 19.3813 132.079 22.473 131.395 22.7395C131.012 22.9229 130.577 22.9679 130.164 22.8668C129.751 22.7657 129.386 22.5248 129.131 22.1851C129.131 22.1851 131.267 23.1233 131.16 22.1318C131.096 21.3216 130.413 15.9912 130.413 15.9912Z" fill="black"/>
<g style="mix-blend-mode:multiply">
<path fill-rule="evenodd" clip-rule="evenodd" d="M130.242 33.7519C127.965 33.5172 125.762 32.8168 123.769 31.6943C123.769 31.6943 124.762 34.3915 130.242 35.255V33.7519Z" fill="#B28B67"/>
</g>
<path d="M135.925 60.6484C135.925 60.6484 143.573 63.5055 149.213 75.0192L159.521 63.0684" stroke="black" stroke-width="0.5" stroke-linecap="round" stroke-linejoin="round"/>
<path d="M150.003 68.9961L127.112 75.5525L126.429 72.0557L148.476 65.1582" fill="#456682"/>
<path d="M149.212 68.2285C148.838 68.3245 127.988 74.2838 127.71 74.3798C127.493 74.4714 127.313 74.6319 127.197 74.8362C127.081 75.0405 127.036 75.2773 127.069 75.5098C127.13 75.7368 127.272 75.9333 127.47 76.0613C127.667 76.1893 127.905 76.2397 128.137 76.2028" fill="#2F4B62"/>
<path d="M130.317 81.5436C133.849 80.1342 137.48 78.9869 141.18 78.1108C142.473 77.7697 143.872 76.5331 143.466 75.3071C143.714 75.0557 143.881 74.7366 143.947 74.3902C144.027 74.0352 144.001 73.6646 143.872 73.3242C144.087 73.1419 144.237 72.895 144.299 72.6205C144.352 72.3415 144.311 72.0529 144.182 71.7997C144.366 71.6644 144.495 71.4676 144.545 71.2453C144.59 71.0201 144.544 70.7866 144.417 70.595L139.247 72.1195C139.247 72.1195 134.141 73.1856 138.029 69.6142C141.917 66.0428 140.614 65.1686 140.219 65.0407C139.824 64.9128 137.591 67.0236 136.299 68.239C135.006 69.4543 128.886 78.0895 128.886 78.0895L130.317 81.5436Z" fill="#AF897B"/>
<path d="M131.107 76.6289C125.051 77.4071 110.075 79.8271 101.882 84.0914L103.944 74.7633L94.106 69.7207C94.106 69.7207 88.5408 91.2235 95.6655 93.473C103.709 96.0102 131.695 80.8399 131.695 80.8399C131.695 80.8399 136.096 76.3197 131.107 76.6289Z" fill="#AF897B"/>
<path d="M116.313 38.9434C112.654 39.3404 109.028 39.9923 105.46 40.8943C104.173 41.0818 102.951 41.5835 101.903 42.3548L101.701 42.5041C101.287 42.8191 100.907 43.1764 100.568 43.5701C96.2955 48.9005 91.5742 68.09 91.5742 68.09L103.944 74.785" stroke="black" stroke-width="0.5" stroke-linecap="round" stroke-linejoin="round"/>
<path d="M101.882 84.1134C101.882 84.1134 105.022 68.1222 107.223 64.6895" stroke="black" stroke-width="0.5" stroke-linecap="round" stroke-linejoin="round"/>
</g>
<defs>
<clipPath id="clip0">
<rect width="259" height="247" fill="white"/>
</clipPath>
</defs>
</svg>
