<svg width="260" height="250" viewBox="0 0 260 250" fill="none" xmlns="http://www.w3.org/2000/svg">
<path d="M162.8 239.37C179.016 239.384 194.862 234.531 208.289 225.438C221.716 216.346 232.104 203.432 238.11 188.37L238.27 187.98C256.68 141.31 262.4 67.8499 224.53 40.4399C220.049 37.3088 215.16 34.8056 210 32.9999C174.77 19.3499 158.24 43.3899 125 35.4199C99.7101 29.3599 97.1001 12.5699 69.5601 10.8199C51.3001 9.60993 40.4401 16.2099 38.2301 17.6099C33.2151 20.8141 28.8822 24.9771 25.4801 29.8599C20.3801 37.1899 16.8201 47.0299 16.9901 61.8599C17.3001 90.2099 30.6801 95.7099 33.9101 119.1C39.2001 157.51 7.42011 174.1 18.7901 207.66C20.2501 211.98 23.9601 222.46 34.2701 230.34C45.0801 238.6 57.0701 239.34 62.1101 239.34L162.8 239.37Z" fill="#FDF3E8"/>
<path d="M244.83 57.8601H154.73C152.123 57.8601 150.01 59.9733 150.01 62.5801V116.82C150.01 119.427 152.123 121.54 154.73 121.54H244.83C247.437 121.54 249.55 119.427 249.55 116.82V62.5801C249.55 59.9733 247.437 57.8601 244.83 57.8601Z" fill="#D2E3F9"/>
<path d="M243.25 63.6899H156.31V115.71H243.25V63.6899Z" fill="#8ABAF1"/>
<path d="M239.47 79.7099C239.466 81.3654 239.097 82.9996 238.39 84.4965C237.683 85.9935 236.656 87.3165 235.38 88.3717C234.105 89.4269 232.612 90.1884 231.009 90.6022C229.407 91.0159 227.732 91.0718 226.105 90.7658C224.478 90.4598 222.939 89.7995 221.596 88.8317C220.253 87.8639 219.139 86.6123 218.334 85.1658C217.529 83.7193 217.052 82.1133 216.937 80.4618C216.823 78.8103 217.073 77.1538 217.67 75.6099L220.67 76.7899C220.303 77.7194 220.116 78.7105 220.12 79.7099C220.12 81.2922 220.589 82.8389 221.468 84.1545C222.347 85.4701 223.597 86.4954 225.059 87.1009C226.52 87.7064 228.129 87.8649 229.681 87.5562C231.233 87.2475 232.658 86.4856 233.777 85.3668C234.896 84.2479 235.658 82.8225 235.966 81.2706C236.275 79.7188 236.117 78.1102 235.511 76.6484C234.906 75.1866 233.88 73.9372 232.565 73.0581C231.249 72.1791 229.702 71.7099 228.12 71.7099V68.4299C229.607 68.4207 231.082 68.7056 232.458 69.2684C233.835 69.8311 235.087 70.6605 236.142 71.7089C237.196 72.7573 238.034 74.0039 238.605 75.377C239.176 76.7501 239.47 78.2227 239.47 79.7099V79.7099Z" fill="#6986C5"/>
<path d="M161.71 121.54H237.85C237.85 122.906 237.307 124.216 236.342 125.182C235.376 126.147 234.066 126.69 232.7 126.69H166.86C165.494 126.69 164.184 126.147 163.218 125.182C162.253 124.216 161.71 122.906 161.71 121.54V121.54Z" fill="#8ABAF1"/>
<path d="M161.71 121.54H237.85C237.85 122.906 237.307 124.216 236.342 125.182C235.376 126.147 234.066 126.69 232.7 126.69H166.86C165.494 126.69 164.184 126.147 163.218 125.182C162.253 124.216 161.71 122.906 161.71 121.54V121.54Z" stroke="#472F40" stroke-width="0.75" stroke-linecap="round" stroke-linejoin="round"/>
<path d="M243.25 63.6899H156.31V115.71H243.25V63.6899Z" stroke="#472F40" stroke-width="0.75" stroke-linecap="round" stroke-linejoin="round"/>
<path d="M244.83 57.8601H154.73C152.123 57.8601 150.01 59.9733 150.01 62.5801V116.82C150.01 119.427 152.123 121.54 154.73 121.54H244.83C247.437 121.54 249.55 119.427 249.55 116.82V62.5801C249.55 59.9733 247.437 57.8601 244.83 57.8601Z" stroke="#472F40" stroke-width="0.75" stroke-linecap="round" stroke-linejoin="round"/>
<path d="M239.47 79.7099C239.466 81.3654 239.097 82.9996 238.39 84.4965C237.683 85.9935 236.656 87.3165 235.38 88.3717C234.105 89.4269 232.612 90.1884 231.009 90.6022C229.407 91.0159 227.732 91.0718 226.105 90.7658C224.478 90.4598 222.939 89.7995 221.596 88.8317C220.253 87.8639 219.139 86.6123 218.334 85.1658C217.529 83.7193 217.052 82.1133 216.937 80.4618C216.823 78.8103 217.073 77.1538 217.67 75.6099L220.67 76.7899C220.303 77.7194 220.116 78.7105 220.12 79.7099C220.12 81.2922 220.589 82.8389 221.468 84.1545C222.347 85.4701 223.597 86.4954 225.059 87.1009C226.52 87.7064 228.129 87.8649 229.681 87.5562C231.233 87.2475 232.658 86.4856 233.777 85.3668C234.896 84.2479 235.658 82.8225 235.966 81.2706C236.275 79.7188 236.117 78.1102 235.511 76.6484C234.906 75.1866 233.88 73.9372 232.565 73.0581C231.249 72.1791 229.702 71.7099 228.12 71.7099V68.4299C229.607 68.4207 231.082 68.7056 232.458 69.2684C233.835 69.8311 235.087 70.6605 236.142 71.7089C237.196 72.7573 238.034 74.0039 238.605 75.377C239.176 76.7501 239.47 78.2227 239.47 79.7099V79.7099Z" stroke="#472F40" stroke-width="0.75" stroke-linecap="round" stroke-linejoin="round"/>
<path d="M176.11 110.13C175.019 111.012 173.733 111.619 172.358 111.901C170.984 112.183 169.562 112.131 168.212 111.75C166.862 111.368 165.623 110.669 164.6 109.71C163.576 108.75 162.798 107.56 162.329 106.237C161.861 104.915 161.717 103.499 161.909 102.11C162.101 100.72 162.623 99.3968 163.433 98.2509C164.242 97.105 165.314 96.17 166.56 95.5243C167.805 94.8786 169.187 94.5411 170.59 94.54V97.06C169.59 97.0601 168.605 97.3 167.717 97.7598C166.829 98.2195 166.064 98.8856 165.487 99.7021C164.91 100.519 164.537 101.462 164.399 102.452C164.262 103.443 164.365 104.452 164.698 105.394C165.032 106.337 165.586 107.186 166.316 107.87C167.045 108.554 167.928 109.053 168.891 109.324C169.853 109.596 170.866 109.634 171.846 109.433C172.825 109.232 173.743 108.799 174.52 108.17L176.11 110.13Z" fill="#FF847C"/>
<path d="M179.36 103.31C179.36 104.617 179.068 105.908 178.506 107.087C177.944 108.267 177.125 109.307 176.11 110.13L174.52 108.13C175.525 107.317 176.253 106.213 176.605 104.97C176.956 103.726 176.914 102.404 176.483 101.186C176.052 99.9674 175.254 98.9126 174.198 98.1666C173.143 97.4206 171.882 97.02 170.59 97.02V94.54C171.742 94.5387 172.883 94.7647 173.948 95.2049C175.012 95.6452 175.98 96.2911 176.794 97.1058C177.609 97.9204 178.255 98.8877 178.695 99.9524C179.135 101.017 179.361 102.158 179.36 103.31V103.31Z" fill="#FDF3E8"/>
<path d="M176.11 110.13C175.019 111.012 173.733 111.619 172.358 111.901C170.984 112.183 169.562 112.131 168.212 111.75C166.862 111.368 165.623 110.669 164.6 109.71C163.576 108.75 162.798 107.56 162.329 106.237C161.861 104.915 161.717 103.499 161.909 102.11C162.101 100.72 162.623 99.3968 163.433 98.2509C164.242 97.105 165.314 96.17 166.56 95.5243C167.805 94.8786 169.187 94.5411 170.59 94.54V97.06C169.59 97.0601 168.605 97.3 167.717 97.7598C166.829 98.2195 166.064 98.8856 165.487 99.7021C164.91 100.519 164.537 101.462 164.399 102.452C164.262 103.443 164.365 104.452 164.698 105.394C165.032 106.337 165.586 107.186 166.316 107.87C167.045 108.554 167.928 109.053 168.891 109.324C169.853 109.596 170.866 109.634 171.846 109.433C172.825 109.232 173.743 108.799 174.52 108.17L176.11 110.13Z" stroke="#472F40" stroke-width="0.75" stroke-linecap="round" stroke-linejoin="round"/>
<path d="M179.36 103.31C179.36 104.617 179.068 105.908 178.506 107.087C177.944 108.267 177.125 109.307 176.11 110.13L174.52 108.13C175.525 107.317 176.253 106.213 176.605 104.97C176.956 103.726 176.914 102.404 176.483 101.186C176.052 99.9674 175.254 98.9126 174.198 98.1666C173.143 97.4206 171.882 97.02 170.59 97.02V94.54C171.742 94.5387 172.883 94.7647 173.948 95.2049C175.012 95.6452 175.98 96.2911 176.794 97.1058C177.609 97.9204 178.255 98.8877 178.695 99.9524C179.135 101.017 179.361 102.158 179.36 103.31V103.31Z" stroke="#472F40" stroke-width="0.75" stroke-linecap="round" stroke-linejoin="round"/>
<path d="M196.84 94.54V97.06C195.658 97.0607 194.501 97.3965 193.502 98.0285C192.503 98.6606 191.704 99.5628 191.197 100.631C190.69 101.699 190.497 102.888 190.639 104.062C190.781 105.235 191.253 106.344 192 107.26L190.05 108.86C189 107.575 188.336 106.018 188.135 104.371C187.934 102.723 188.205 101.052 188.916 99.5526C189.627 98.0529 190.749 96.7858 192.152 95.8985C193.555 95.0112 195.18 94.5401 196.84 94.54V94.54Z" fill="#F1D4DF"/>
<path d="M205.61 103.31C205.61 105.119 205.05 106.884 204.008 108.363C202.965 109.842 201.491 110.962 199.786 111.57C198.082 112.178 196.232 112.243 194.489 111.758C192.746 111.273 191.195 110.261 190.05 108.86L192 107.26C192.667 108.077 193.529 108.713 194.508 109.107C195.486 109.501 196.548 109.642 197.595 109.515C198.642 109.388 199.64 108.998 200.496 108.382C201.352 107.765 202.038 106.942 202.49 105.989C202.942 105.036 203.146 103.985 203.082 102.932C203.018 101.879 202.689 100.859 202.125 99.9681C201.561 99.0768 200.781 98.3427 199.857 97.8343C198.933 97.3258 197.895 97.0594 196.84 97.06V94.54C199.166 94.54 201.397 95.464 203.041 97.1087C204.686 98.7534 205.61 100.984 205.61 103.31Z" fill="#6D4558"/>
<path d="M205.61 103.31C205.61 105.119 205.05 106.884 204.008 108.363C202.965 109.842 201.491 110.962 199.786 111.57C198.082 112.178 196.232 112.243 194.489 111.758C192.746 111.273 191.195 110.261 190.05 108.86L192 107.26C192.667 108.077 193.529 108.713 194.508 109.107C195.486 109.501 196.548 109.642 197.595 109.515C198.642 109.388 199.64 108.998 200.496 108.382C201.352 107.765 202.038 106.942 202.49 105.989C202.942 105.036 203.146 103.985 203.082 102.932C203.018 101.879 202.689 100.859 202.125 99.9681C201.561 99.0768 200.781 98.3427 199.857 97.8343C198.933 97.3258 197.895 97.0594 196.84 97.06V94.54C199.166 94.54 201.397 95.464 203.041 97.1087C204.686 98.7534 205.61 100.984 205.61 103.31Z" stroke="#472F40" stroke-width="0.75" stroke-linecap="round" stroke-linejoin="round"/>
<path d="M196.84 94.54V97.06C195.658 97.0607 194.501 97.3965 193.502 98.0285C192.503 98.6606 191.704 99.5628 191.197 100.631C190.69 101.699 190.497 102.888 190.639 104.062C190.781 105.235 191.253 106.344 192 107.26L190.05 108.86C189 107.575 188.336 106.018 188.135 104.371C187.934 102.723 188.205 101.052 188.916 99.5526C189.627 98.0529 190.749 96.7858 192.152 95.8985C193.555 95.0112 195.18 94.5401 196.84 94.54V94.54Z" stroke="#472F40" stroke-width="0.75" stroke-linecap="round" stroke-linejoin="round"/>
<path d="M215.11 97.05H220.15" stroke="white" stroke-width="0.75" stroke-linecap="round" stroke-linejoin="round"/>
<path d="M215.11 100.41H226.78" stroke="white" stroke-width="0.75" stroke-linecap="round" stroke-linejoin="round"/>
<path d="M215.11 103.76H231.67" stroke="white" stroke-width="0.75" stroke-linecap="round" stroke-linejoin="round"/>
<path d="M215.11 108.86H224.44" stroke="white" stroke-width="0.75" stroke-linecap="round" stroke-linejoin="round"/>
<path d="M161.82 75.24V80.64" stroke="white" stroke-width="0.75" stroke-linecap="round" stroke-linejoin="round"/>
<path d="M205.61 75.24V80.64" stroke="white" stroke-width="0.75" stroke-linecap="round" stroke-linejoin="round"/>
<path d="M205.61 77.9401H199.78L198.19 88.0901L192.75 69.6101L188.07 84.7301L184.99 77.9401H177.91L175.3 87.1301L171.31 69.6101L166.99 83.1701L164.83 77.9401H161.82" stroke="white" stroke-width="0.75" stroke-linecap="round" stroke-linejoin="round"/>
<path d="M205 144.69H211.3C212.131 144.69 212.954 144.854 213.722 145.172C214.49 145.49 215.188 145.956 215.776 146.544C216.364 147.132 216.83 147.83 217.148 148.598C217.466 149.366 217.63 150.189 217.63 151.02V179.4C217.63 180.231 217.794 181.054 218.112 181.822C218.43 182.59 218.896 183.288 219.484 183.876C220.072 184.464 220.77 184.93 221.538 185.248C222.306 185.566 223.129 185.73 223.96 185.73C225.638 185.727 227.247 185.06 228.433 183.873C229.62 182.686 230.287 181.078 230.29 179.4V126.69" stroke="#472F40" stroke-width="0.75" stroke-linecap="round" stroke-linejoin="round"/>
<path d="M228.19 68.4299V71.6699C226.57 71.6646 224.986 72.1512 223.649 73.0655C222.312 73.9797 221.283 75.2785 220.7 76.7899L217.7 75.6099C218.528 73.4998 219.97 71.687 221.841 70.4067C223.711 69.1265 225.923 68.4377 228.19 68.4299V68.4299Z" fill="#FDF3E8"/>
<path d="M228.19 68.4299V71.6699C226.57 71.6646 224.986 72.1512 223.649 73.0655C222.312 73.9797 221.283 75.2785 220.7 76.7899L217.7 75.6099C218.528 73.4998 219.97 71.687 221.841 70.4067C223.711 69.1265 225.923 68.4377 228.19 68.4299V68.4299Z" stroke="#472F40" stroke-width="0.75" stroke-linecap="round" stroke-linejoin="round"/>
<path d="M223.87 97.05H239.47" stroke="white" stroke-width="0.75" stroke-linecap="round" stroke-linejoin="round"/>
<path d="M234.88 103.76H239.47" stroke="white" stroke-width="0.75" stroke-linecap="round" stroke-linejoin="round"/>
<path d="M172.33 115.71C171.56 116.457 170.933 117.338 170.48 118.31C170.307 118.986 170.404 119.704 170.75 120.31L170.94 120.62C171.125 120.937 171.198 121.307 171.145 121.671C171.092 122.034 170.918 122.369 170.65 122.62V122.62C169.98 123.24 169.35 123.86 168.76 124.47L164.33 128.9C161.468 131.724 158.344 134.269 155 136.5C149.81 139.93 147.21 141.64 144.63 141.67C138.14 141.73 132.99 134.42 125.63 124.33C126.55 123.69 127.5 123 128.46 122.25C130.293 120.817 132.049 119.288 133.72 117.67C135.773 121.242 138.072 124.667 140.6 127.92C141.459 129.036 142.7 129.794 144.085 130.049C145.47 130.304 146.9 130.037 148.1 129.3C156.43 124.12 170.62 115.02 171.77 114.52C171.88 114.47 171.999 114.444 172.12 114.444C172.241 114.444 172.36 114.47 172.47 114.52C172.6 114.599 172.697 114.724 172.74 114.87C172.83 115.19 172.47 115.55 172.33 115.71Z" fill="#DEB097"/>
<path d="M144.59 141.67C147.17 141.67 149.77 139.93 154.96 136.5C158.313 134.283 161.447 131.752 164.32 128.94L168.75 124.51C169.34 123.9 169.97 123.28 170.64 122.66C170.908 122.409 171.082 122.074 171.135 121.711C171.188 121.347 171.115 120.977 170.93 120.66L170.74 120.35C170.612 120.075 170.515 119.786 170.45 119.49V119.49C169.68 120.4 168.55 121.7 167.1 123.19C163.64 126.75 159.48 131.02 153.42 133.9C148.73 136.12 144.64 138.17 140.94 136.54C138.94 135.64 138.4 134.28 134.1 128.98C131.74 126.08 129.71 123.8 128.36 122.33C127.93 122.67 127.49 123 127.03 123.33C126.57 123.66 126.09 124.01 125.63 124.33C133 134.42 138.1 141.73 144.59 141.67Z" fill="#D2A186"/>
<path d="M172.33 115.71C171.56 116.457 170.933 117.338 170.48 118.31C170.307 118.986 170.404 119.704 170.75 120.31L170.94 120.62C171.125 120.937 171.198 121.307 171.145 121.671C171.092 122.034 170.918 122.369 170.65 122.62V122.62C169.98 123.24 169.35 123.86 168.76 124.47L164.33 128.9C161.468 131.724 158.344 134.269 155 136.5C149.81 139.93 147.21 141.64 144.63 141.67C138.14 141.73 132.99 134.42 125.63 124.33C126.55 123.69 127.5 123 128.46 122.25C130.293 120.817 132.049 119.288 133.72 117.67C135.773 121.242 138.072 124.667 140.6 127.92C141.459 129.036 142.7 129.794 144.085 130.049C145.47 130.304 146.9 130.037 148.1 129.3C156.43 124.12 170.62 115.02 171.77 114.52C171.88 114.47 171.999 114.444 172.12 114.444C172.241 114.444 172.36 114.47 172.47 114.52C172.6 114.599 172.697 114.724 172.74 114.87C172.83 115.19 172.47 115.55 172.33 115.71Z" stroke="#472F40" stroke-width="0.75" stroke-linecap="round" stroke-linejoin="round"/>
<path d="M202.8 134.79H145.82C144.605 134.79 143.62 135.775 143.62 136.99V152.39C143.62 153.605 144.605 154.59 145.82 154.59H202.8C204.015 154.59 205 153.605 205 152.39V136.99C205 135.775 204.015 134.79 202.8 134.79Z" fill="#D2E3F9"/>
<path d="M202.79 134.79H197.45C198.033 134.79 198.593 135.022 199.006 135.434C199.418 135.847 199.65 136.407 199.65 136.99V152.38C199.651 152.67 199.595 152.957 199.485 153.225C199.375 153.493 199.214 153.737 199.009 153.942C198.805 154.148 198.562 154.31 198.294 154.422C198.027 154.533 197.74 154.59 197.45 154.59H202.79C203.376 154.59 203.938 154.357 204.353 153.943C204.767 153.528 205 152.966 205 152.38V137C205 136.414 204.767 135.852 204.353 135.437C203.938 135.023 203.376 134.79 202.79 134.79Z" fill="#8ABAF1"/>
<path d="M190.33 138.97H181.87V143.43H190.33V138.97Z" fill="#FFBF8A"/>
<path d="M190.33 145.95H181.87V150.41H190.33V145.95Z" fill="#8ABAF1"/>
<path d="M201.04 138.97H192.58V143.43H201.04V138.97Z" fill="#FF847C"/>
<path d="M201.04 145.95H192.58V150.41H201.04V145.95Z" fill="#FDF3E8"/>
<path d="M190.33 138.97H187.96V143.43H190.33V138.97Z" fill="#FF847C"/>
<path d="M190.33 145.95H187.96V150.4H190.33V145.95Z" fill="#6986C5"/>
<path d="M201.04 138.97H198.67V143.43H201.04V138.97Z" fill="#ED6663"/>
<path d="M201.04 145.95H198.67V150.4H201.04V145.95Z" fill="#F8C5A8"/>
<path d="M177.01 138.97H147.94V150.4H177.01V138.97Z" fill="#8ABAF1"/>
<path d="M177.01 138.97H171.97V150.4H177.01V138.97Z" fill="#6986C5"/>
<path d="M202.8 134.79H145.82C144.605 134.79 143.62 135.775 143.62 136.99V152.39C143.62 153.605 144.605 154.59 145.82 154.59H202.8C204.015 154.59 205 153.605 205 152.39V136.99C205 135.775 204.015 134.79 202.8 134.79Z" stroke="#472F40" stroke-width="0.75" stroke-linecap="round" stroke-linejoin="round"/>
<path d="M177.01 138.97H147.94V150.4H177.01V138.97Z" stroke="#472F40" stroke-width="0.75" stroke-linecap="round" stroke-linejoin="round"/>
<path d="M190.33 138.97H181.87V143.43H190.33V138.97Z" stroke="#472F40" stroke-width="0.75" stroke-linecap="round" stroke-linejoin="round"/>
<path d="M190.33 145.95H181.87V150.41H190.33V145.95Z" stroke="#472F40" stroke-width="0.75" stroke-linecap="round" stroke-linejoin="round"/>
<path d="M201.04 138.97H192.58V143.43H201.04V138.97Z" stroke="#472F40" stroke-width="0.75" stroke-linecap="round" stroke-linejoin="round"/>
<path d="M201.04 145.95H192.58V150.41H201.04V145.95Z" stroke="#472F40" stroke-width="0.75" stroke-linecap="round" stroke-linejoin="round"/>
<path d="M145.69 158.91H141.55V239.37H145.69V158.91Z" fill="#FFBF8A"/>
<path d="M207.07 158.91H202.93V239.37H207.07V158.91Z" fill="#FFBF8A"/>
<path d="M145.69 158.91H141.55V161.79H145.69V158.91Z" fill="#FF847C"/>
<path d="M207.07 158.91H202.93V161.79H207.07V158.91Z" fill="#FF847C"/>
<path d="M207.07 199.86H202.93V204.18H207.07V199.86Z" fill="#FF847C"/>
<path d="M145.69 199.86H141.55V204.18H145.69V199.86Z" fill="#FF847C"/>
<path d="M210.13 154.59H138.49C137.297 154.59 136.33 155.557 136.33 156.75C136.33 157.943 137.297 158.91 138.49 158.91H210.13C211.323 158.91 212.29 157.943 212.29 156.75C212.29 155.557 211.323 154.59 210.13 154.59Z" fill="#FFBF8A"/>
<path d="M210.13 154.59H138.49C137.297 154.59 136.33 155.557 136.33 156.75C136.33 157.943 137.297 158.91 138.49 158.91H210.13C211.323 158.91 212.29 157.943 212.29 156.75C212.29 155.557 211.323 154.59 210.13 154.59Z" stroke="#472F40" stroke-width="0.75" stroke-linecap="round" stroke-linejoin="round"/>
<path d="M145.69 158.91H141.55V239.37H145.69V158.91Z" stroke="#472F40" stroke-width="0.75" stroke-linecap="round" stroke-linejoin="round"/>
<path d="M207.07 158.91H202.93V239.37H207.07V158.91Z" stroke="#472F40" stroke-width="0.75" stroke-linecap="round" stroke-linejoin="round"/>
<path d="M210.13 196.98H138.49C137.297 196.98 136.33 197.947 136.33 199.14C136.33 200.333 137.297 201.3 138.49 201.3H210.13C211.323 201.3 212.29 200.333 212.29 199.14C212.29 197.947 211.323 196.98 210.13 196.98Z" fill="#FFBF8A"/>
<path d="M210.13 196.98H138.49C137.297 196.98 136.33 197.947 136.33 199.14C136.33 200.333 137.297 201.3 138.49 201.3H210.13C211.323 201.3 212.29 200.333 212.29 199.14C212.29 197.947 211.323 196.98 210.13 196.98Z" stroke="#472F40" stroke-width="0.75" stroke-linecap="round" stroke-linejoin="round"/>
<path d="M115 84C117.68 82 118.89 78.74 118 76.17C116.7 72.29 111 70.87 107.47 72.93C104.39 74.7 103.92 78.45 103.87 78.93C102.07 78.41 99.6299 78.03 97.9299 79.29C94.4599 82 97.4999 89 97.8099 96.72C98.6099 116.42 80.9799 125.84 85.8099 138.86C86.6717 141.51 88.4428 143.77 90.8099 145.24C95.4199 147.85 100.81 145.76 102.09 145.24V103H111.99C111.75 102.7 107.13 96.77 109.65 90.23C110.68 87.6097 112.565 85.4143 115 84V84Z" fill="#6D4558"/>
<path d="M118.06 76.2001C116.82 72.4901 111.6 71.0401 108.06 72.7101C111.06 72.6301 114.18 74.1301 115.06 76.8801C115.92 79.4601 114.71 82.6701 112.06 84.7101C109.599 86.1054 107.684 88.2949 106.63 90.9201C104.56 96.2901 107.3 101.24 108.48 103.01H111.97C111.73 102.71 107.11 96.7801 109.63 90.2401C110.663 87.613 112.556 85.4135 115 84.0001C117.71 82.0001 118.92 78.7701 118.06 76.2001Z" fill="#472F40"/>
<path d="M115 84C117.68 82 118.89 78.74 118 76.17C116.7 72.29 111 70.87 107.47 72.93C104.39 74.7 103.92 78.45 103.87 78.93C102.07 78.41 99.6299 78.03 97.9299 79.29C94.4599 82 97.4999 89 97.8099 96.72C98.6099 116.42 80.9799 125.84 85.8099 138.86C86.6717 141.51 88.4428 143.77 90.8099 145.24C95.4199 147.85 100.81 145.76 102.09 145.24V103H111.99C111.75 102.7 107.13 96.77 109.65 90.23C110.68 87.6097 112.565 85.4143 115 84V84Z" stroke="#472F40" stroke-width="0.75" stroke-linecap="round" stroke-linejoin="round"/>
<path d="M88.4 239.37H71.71C71.3382 239.371 70.9721 239.279 70.6447 239.103C70.3173 238.927 70.0388 238.672 69.8345 238.362C69.6301 238.051 69.5062 237.694 69.474 237.324C69.4418 236.954 69.5023 236.581 69.65 236.24C70.28 234.78 70.9 233.31 71.53 231.81L80.02 232.81L79.33 234.2C80.3195 234.955 81.4375 235.524 82.63 235.88C85.46 236.72 87.38 235.88 88.81 237.2C88.9753 237.353 89.1229 237.524 89.25 237.71C89.3842 237.861 89.4697 238.048 89.4954 238.248C89.521 238.448 89.4855 238.652 89.3936 238.831C89.3016 239.011 89.1575 239.158 88.9802 239.254C88.8029 239.351 88.6006 239.391 88.4 239.37V239.37Z" fill="#6D4558"/>
<path d="M145.17 239.37H129.05C128.448 239.372 127.865 239.165 127.4 238.783C126.934 238.402 126.616 237.87 126.5 237.28L125.6 232.82L134.86 232.56C135.24 233.228 135.738 233.821 136.33 234.31C136.751 234.656 137.215 234.945 137.71 235.17C140.32 236.36 142.49 235.17 144.91 236.61C145.293 236.846 145.649 237.125 145.97 237.44C146.129 237.598 146.236 237.8 146.28 238.019C146.324 238.239 146.302 238.466 146.216 238.673C146.13 238.879 145.985 239.056 145.799 239.18C145.613 239.304 145.394 239.37 145.17 239.37Z" fill="#6D4558"/>
<path d="M103.75 178.53C99.55 189.68 94.75 201.29 89.35 213.27C86.29 220 83.16 226.55 80 232.82L71.51 231.82C75.51 222.19 79.43 211.82 83.03 200.68C85.5 193.06 87.64 185.68 89.51 178.54L103.75 178.53Z" fill="#FFBF8A"/>
<path d="M81.21 230.4C83.95 224.87 86.68 219.17 89.35 213.27C94.78 201.27 99.55 189.68 103.75 178.53H89.53C89.13 180.03 88.72 181.54 88.3 183.06C89.8255 183.613 91.3989 184.025 93 184.29C95.43 184.69 96 184.41 96.46 184.78C98.93 186.58 93.4 198.14 90.46 204.78C86.8093 213.104 83.7191 221.663 81.21 230.4V230.4Z" fill="#FF847C"/>
<path d="M134.86 232.56L125.6 232.82C123.867 224.473 122 215.937 120 207.21C117.58 196.99 115.06 187.11 112.44 177.57C117.05 176.171 121.966 176.129 126.6 177.45C128.007 185.583 129.34 193.943 130.6 202.53C131.933 211.79 133.07 220.83 134.01 229.65C134.084 230.669 134.374 231.661 134.86 232.56Z" fill="#FFBF8A"/>
<path d="M130.93 219.33C132.08 224.08 133.24 227.87 134 230.2C134 230.03 133.94 229.85 133.92 229.68C132.96 220.867 131.823 211.827 130.51 202.56C129.29 193.967 127.957 185.607 126.51 177.48C121.877 176.159 116.961 176.201 112.35 177.6C112.91 179.67 113.48 181.77 114.03 183.87C114.84 183.87 115.95 183.76 118.03 183.87C120.92 183.98 122.37 184.04 123.25 184.47C125.99 185.82 125.85 190.47 126.31 196.05C126.84 202.47 128.2 208.09 130.93 219.33Z" fill="#FF847C"/>
<path d="M103.75 178.53C99.55 189.68 94.75 201.29 89.35 213.27C86.29 220 83.16 226.55 80 232.82L71.51 231.82C75.51 222.19 79.43 211.82 83.03 200.68C85.5 193.06 87.64 185.68 89.51 178.54L103.75 178.53Z" stroke="#472F40" stroke-width="0.75" stroke-linecap="round" stroke-linejoin="round"/>
<path d="M88.4 239.37H71.71C71.3382 239.371 70.9721 239.279 70.6447 239.103C70.3173 238.927 70.0388 238.672 69.8345 238.362C69.6301 238.051 69.5062 237.694 69.474 237.324C69.4418 236.954 69.5023 236.581 69.65 236.24C70.28 234.78 70.9 233.31 71.53 231.81L80.02 232.81L79.33 234.2C80.3195 234.955 81.4375 235.524 82.63 235.88C85.46 236.72 87.38 235.88 88.81 237.2C88.9753 237.353 89.1229 237.524 89.25 237.71C89.3842 237.861 89.4697 238.048 89.4954 238.248C89.521 238.448 89.4855 238.652 89.3936 238.831C89.3016 239.011 89.1575 239.158 88.9802 239.254C88.8029 239.351 88.6006 239.391 88.4 239.37V239.37Z" stroke="#472F40" stroke-width="0.75" stroke-linecap="round" stroke-linejoin="round"/>
<path d="M80.03 232.82H80.02" stroke="#472F40" stroke-width="0.75" stroke-linecap="round" stroke-linejoin="round"/>
<path d="M134.86 232.56L125.6 232.82C123.867 224.473 122 215.937 120 207.21C117.58 196.99 115.06 187.11 112.44 177.57C117.05 176.171 121.966 176.129 126.6 177.45C128.007 185.583 129.34 193.943 130.6 202.53C131.933 211.79 133.07 220.83 134.01 229.65C134.084 230.669 134.374 231.661 134.86 232.56Z" stroke="#472F40" stroke-width="0.75" stroke-linecap="round" stroke-linejoin="round"/>
<path d="M145.17 239.37H129.05C128.448 239.372 127.865 239.165 127.4 238.783C126.934 238.402 126.616 237.87 126.5 237.28L125.6 232.82L134.86 232.56C135.24 233.228 135.738 233.821 136.33 234.31C136.751 234.656 137.215 234.945 137.71 235.17C140.32 236.36 142.49 235.17 144.91 236.61C145.293 236.846 145.649 237.125 145.97 237.44C146.129 237.598 146.236 237.8 146.28 238.019C146.324 238.239 146.302 238.466 146.216 238.673C146.13 238.879 145.985 239.056 145.799 239.18C145.613 239.304 145.394 239.37 145.17 239.37Z" stroke="#472F40" stroke-width="0.75" stroke-linecap="round" stroke-linejoin="round"/>
<path d="M125.65 124.33C123.76 121.7 122.33 119.43 121.39 117.87C121.53 127.09 122.11 134.68 122.65 140.1C123.36 147.26 124.56 155.4 126.97 171.69C127.47 175.09 127.9 177.91 128.19 179.85C125.545 179.419 122.856 179.338 120.19 179.61C116.53 179.99 113.86 180.99 111.37 179.52C110.573 179.044 109.89 178.399 109.37 177.63C108.733 178.56 107.93 179.363 107 180C104.7 181.5 102.29 181.51 97.9099 181.26C94.7799 181.08 91.2499 180.8 87.3799 180.36C89.3654 171.327 90.8642 162.194 91.8699 153C93.0144 142.601 93.5254 132.141 93.3999 121.68C89.3999 115.8 88.5099 109.12 91.2099 104.94C92.4652 103.126 94.1038 101.61 96.0099 100.5C97.8856 99.3904 99.9682 98.6758 102.13 98.3999L115.27 97.2899C116.565 97.2745 117.855 97.4669 119.09 97.8599C125.87 100.01 128.21 107.6 132.73 115.92C133.04 116.49 133.37 117.08 133.73 117.7C132.058 119.318 130.303 120.847 128.47 122.28C127.51 123 126.57 123.69 125.65 124.33Z" fill="#BAE8E0"/>
<path d="M122.55 139C122.04 133.67 121.55 126.48 121.39 117.84C121.266 117.879 121.145 117.929 121.03 117.99C118.62 119.22 119.03 124.05 118.96 128.46C118.872 132.162 118.42 135.847 117.61 139.46C118.833 139.531 120.06 139.471 121.27 139.28C121.72 139.22 122.14 139.13 122.55 139Z" fill="#9DDFD3"/>
<path d="M122.65 140.1C122.59 139.49 122.53 138.84 122.46 138.18C119.115 137.846 115.854 136.936 112.82 135.49C110.36 134.26 109.82 132.3 107.47 131.49C105.013 130.807 102.388 131.075 100.12 132.24C98.26 129.56 96.73 127.24 95.53 125.37C94.2259 123.455 93.0597 121.45 92.04 119.37C91.4495 118.136 90.9254 116.87 90.47 115.58C90.7982 116.607 91.1992 117.61 91.67 118.58C92.1721 119.621 92.7504 120.624 93.4 121.58C93.44 124.8 93.4133 128.157 93.32 131.65C95.0198 135.382 97.5633 138.669 100.75 141.25C108.68 147.54 115.81 144.98 119.83 150.85C121.27 152.96 120.9 154.09 121.99 164.77C122.63 171.08 123.32 176.17 123.79 179.38C125.264 179.406 126.734 179.536 128.19 179.77C127.9 177.83 127.47 175.01 126.97 171.61C124.56 155.4 123.36 147.26 122.65 140.1Z" fill="#9DDFD3"/>
<path d="M7.38989 239.37H249.31" stroke="#472F40" stroke-width="0.75" stroke-linecap="round" stroke-linejoin="round"/>
<path d="M71.59 33.0901H14.35C11.6991 33.0901 9.55005 35.2391 9.55005 37.8901V153.21C9.55005 155.861 11.6991 158.01 14.35 158.01H71.59C74.241 158.01 76.39 155.861 76.39 153.21V37.8901C76.39 35.2391 74.241 33.0901 71.59 33.0901Z" fill="#FFBF8A"/>
<path d="M71.95 37.6499H13.99V153.44H71.95V37.6499Z" fill="#FDF3E8"/>
<path d="M71.59 33.0901H14.35C11.6991 33.0901 9.55005 35.2391 9.55005 37.8901V153.21C9.55005 155.861 11.6991 158.01 14.35 158.01H71.59C74.241 158.01 76.39 155.861 76.39 153.21V37.8901C76.39 35.2391 74.241 33.0901 71.59 33.0901Z" stroke="#472F40" stroke-width="0.75" stroke-linecap="round" stroke-linejoin="round"/>
<path d="M71.95 37.6499H13.99V153.44H71.95V37.6499Z" stroke="#472F40" stroke-width="0.75" stroke-linecap="round" stroke-linejoin="round"/>
<path d="M55.9999 145.23C55.9999 143.44 56.7111 141.723 57.9769 140.457C59.2428 139.191 60.9597 138.48 62.7499 138.48H62.8399V136.48H49.3899V149.89H57.8499C56.656 148.633 55.9933 146.964 55.9999 145.23V145.23Z" fill="#FFE8E8"/>
<path d="M46.2401 136.5H34.8101V141.9H46.2401V136.5Z" fill="#8ABAF1"/>
<path d="M46.2401 144.51H34.8101V149.91H46.2401V144.51Z" fill="#F1D4DF"/>
<path d="M30.67 136.5H19.24V141.9H30.67V136.5Z" fill="#6D4558"/>
<path d="M30.67 144.51H19.24V149.91H30.67V144.51Z" fill="#DAF6E8"/>
<path d="M62.71 149.91C65.2947 149.91 67.39 147.815 67.39 145.23C67.39 142.645 65.2947 140.55 62.71 140.55C60.1253 140.55 58.03 142.645 58.03 145.23C58.03 147.815 60.1253 149.91 62.71 149.91Z" fill="#FFBF8A"/>
<path d="M43.0001 96.6599V101.09C40.0827 101.09 37.2848 102.249 35.2219 104.312C33.159 106.375 32.0001 109.173 32.0001 112.09H27.5501C27.5487 110.062 27.9476 108.053 28.7238 106.179C29.5 104.305 30.6383 102.603 32.0735 101.169C33.5087 99.7359 35.2126 98.5998 37.0876 97.826C38.9625 97.0523 40.9717 96.656 43.0001 96.6599V96.6599Z" fill="#6D4558"/>
<path d="M58.39 112.08C58.39 116.17 56.7654 120.092 53.8736 122.983C50.9818 125.875 47.0597 127.5 42.9701 127.5C38.8804 127.5 34.9583 125.875 32.0665 122.983C29.1747 120.092 27.55 116.17 27.55 112.08H32C32 114.256 32.6452 116.382 33.8539 118.191C35.0626 120 36.7805 121.41 38.7905 122.243C40.8005 123.075 43.0123 123.293 45.146 122.869C47.2798 122.444 49.2398 121.396 50.7782 119.858C52.3166 118.32 53.3643 116.36 53.7887 114.226C54.2131 112.092 53.9953 109.88 53.1627 107.87C52.3302 105.86 50.9203 104.142 49.1113 102.934C47.3024 101.725 45.1756 101.08 43 101.08V96.6599C47.0845 96.6679 50.9989 98.296 53.8842 101.187C56.7696 104.078 58.3901 107.995 58.39 112.08V112.08Z" fill="#8ABAF1"/>
<path d="M43.0001 96.6599V101.09C40.0827 101.09 37.2848 102.249 35.2219 104.312C33.159 106.375 32.0001 109.173 32.0001 112.09H27.5501C27.5487 110.062 27.9476 108.053 28.7238 106.179C29.5 104.305 30.6383 102.603 32.0735 101.169C33.5087 99.7359 35.2126 98.5998 37.0876 97.826C38.9625 97.0523 40.9717 96.656 43.0001 96.6599V96.6599Z" stroke="#472F40" stroke-width="0.75" stroke-linecap="round" stroke-linejoin="round"/>
<path d="M58.39 112.08C58.39 116.17 56.7654 120.092 53.8736 122.983C50.9818 125.875 47.0597 127.5 42.9701 127.5C38.8804 127.5 34.9583 125.875 32.0665 122.983C29.1747 120.092 27.55 116.17 27.55 112.08H32C32 114.256 32.6452 116.382 33.8539 118.191C35.0626 120 36.7805 121.41 38.7905 122.243C40.8005 123.075 43.0123 123.293 45.146 122.869C47.2798 122.444 49.2398 121.396 50.7782 119.858C52.3166 118.32 53.3643 116.36 53.7887 114.226C54.2131 112.092 53.9953 109.88 53.1627 107.87C52.3302 105.86 50.9203 104.142 49.1113 102.934C47.3024 101.725 45.1756 101.08 43 101.08V96.6599C47.0845 96.6679 50.9989 98.296 53.8842 101.187C56.7696 104.078 58.3901 107.995 58.39 112.08V112.08Z" stroke="#472F40" stroke-width="0.75" stroke-linecap="round" stroke-linejoin="round"/>
<path d="M18.4299 97.1699H22.1499" stroke="#472F40" stroke-width="0.75" stroke-linecap="round" stroke-linejoin="round"/>
<path d="M18.4299 100.41H27.5499" stroke="#472F40" stroke-width="0.75" stroke-linecap="round" stroke-linejoin="round"/>
<path d="M18.4299 103.65H24.6699" stroke="#472F40" stroke-width="0.75" stroke-linecap="round" stroke-linejoin="round"/>
<path d="M18.4299 74.49H22.1499" stroke="#472F40" stroke-width="0.75" stroke-linecap="round" stroke-linejoin="round"/>
<path d="M18.4299 77.73H40.1499" stroke="#472F40" stroke-width="0.75" stroke-linecap="round" stroke-linejoin="round"/>
<path d="M18.4299 80.97H29.8299" stroke="#472F40" stroke-width="0.75" stroke-linecap="round" stroke-linejoin="round"/>
<path d="M57.3101 123.06H64.7501" stroke="#472F40" stroke-width="0.75" stroke-linecap="round" stroke-linejoin="round"/>
<path d="M57.3101 126.3H61.5101" stroke="#472F40" stroke-width="0.75" stroke-linecap="round" stroke-linejoin="round"/>
<path d="M57.3101 129.54H67.3901" stroke="#472F40" stroke-width="0.75" stroke-linecap="round" stroke-linejoin="round"/>
<path d="M18.4299 86.1299H51.4299" stroke="#472F40" stroke-width="0.75" stroke-linecap="round" stroke-linejoin="round"/>
<path d="M18.4299 65.4899H24.1299V49.4099H36.9099V65.4899H46.1499V49.4099H58.3899V65.4899H67.3899" stroke="#472F40" stroke-width="0.75" stroke-linecap="round" stroke-linejoin="round"/>
<path d="M62.71 149.91C65.2947 149.91 67.39 147.815 67.39 145.23C67.39 142.645 65.2947 140.55 62.71 140.55C60.1253 140.55 58.03 142.645 58.03 145.23C58.03 147.815 60.1253 149.91 62.71 149.91Z" stroke="#472F40" stroke-width="0.75" stroke-linecap="round" stroke-linejoin="round"/>
<path d="M55.9999 145.23C55.9999 143.44 56.7111 141.723 57.9769 140.457C59.2428 139.191 60.9597 138.48 62.7499 138.48H62.8399V136.48H49.3899V149.89H57.8499C56.656 148.633 55.9933 146.964 55.9999 145.23V145.23Z" stroke="#472F40" stroke-width="0.75" stroke-linecap="round" stroke-linejoin="round"/>
<path d="M46.2401 136.5H34.8101V141.9H46.2401V136.5Z" stroke="#472F40" stroke-width="0.75" stroke-linecap="round" stroke-linejoin="round"/>
<path d="M46.2401 144.51H34.8101V149.91H46.2401V144.51Z" stroke="#472F40" stroke-width="0.75" stroke-linecap="round" stroke-linejoin="round"/>
<path d="M30.67 136.5H19.24V141.9H30.67V136.5Z" stroke="#472F40" stroke-width="0.75" stroke-linecap="round" stroke-linejoin="round"/>
<path d="M30.67 144.51H19.24V149.91H30.67V144.51Z" stroke="#472F40" stroke-width="0.75" stroke-linecap="round" stroke-linejoin="round"/>
<path d="M125.65 124.33C123.76 121.7 122.33 119.43 121.39 117.87C121.53 127.09 122.11 134.68 122.65 140.1C123.36 147.26 124.56 155.4 126.97 171.69C127.47 175.09 127.9 177.91 128.19 179.85C125.545 179.419 122.856 179.338 120.19 179.61C116.53 179.99 113.86 180.99 111.37 179.52C110.573 179.044 109.89 178.399 109.37 177.63C108.733 178.56 107.93 179.363 107 180C104.7 181.5 102.29 181.51 97.9099 181.26C94.7799 181.08 91.2499 180.8 87.3799 180.36C89.3654 171.327 90.8642 162.194 91.8699 153C93.0144 142.601 93.5254 132.141 93.3999 121.68C89.3999 115.8 88.5099 109.12 91.2099 104.94C92.4652 103.126 94.1038 101.61 96.0099 100.5C97.8856 99.3904 99.9682 98.6758 102.13 98.3999L115.27 97.2899C116.565 97.2745 117.855 97.4669 119.09 97.8599C125.87 100.01 128.21 107.6 132.73 115.92C133.04 116.49 133.37 117.08 133.73 117.7C132.058 119.318 130.303 120.847 128.47 122.28C127.51 123 126.57 123.69 125.65 124.33Z" stroke="#472F40" stroke-width="0.75" stroke-linecap="round" stroke-linejoin="round"/>
<path d="M107.71 125.86C104.529 121.343 101.777 116.539 99.49 111.51" stroke="#472F40" stroke-width="0.75" stroke-linecap="round" stroke-linejoin="round"/>
<path d="M93.3999 121.65C93.9399 122.65 94.7499 124.16 95.8299 125.85C97.0499 127.76 98.4699 129.99 100.12 132.24" stroke="#472F40" stroke-width="0.75" stroke-linecap="round" stroke-linejoin="round"/>
<path d="M112.2 112.65H119.49V117.12C119.49 118.085 119.106 119.011 118.424 119.694C117.741 120.376 116.815 120.76 115.85 120.76V120.76C114.885 120.76 113.959 120.376 113.276 119.694C112.593 119.011 112.21 118.085 112.21 117.12V112.65H112.2Z" stroke="#472F40" stroke-width="0.75" stroke-linecap="round" stroke-linejoin="round"/>
<path d="M109.21 103.35C109.44 106.28 109.78 110.98 110.05 116.79C110.27 121.59 110.34 124.86 110.4 126.86C110.92 145.86 112.78 150.23 112.03 161.43C111.652 166.898 110.779 172.32 109.42 177.63" stroke="#472F40" stroke-width="0.75" stroke-linecap="round" stroke-linejoin="round"/>
<path d="M36.79 200.58C36.4197 197.21 36.7308 193.801 37.7048 190.554C38.6789 187.307 40.296 184.289 42.46 181.68C46.8027 186.82 49.0517 193.407 48.76 200.13C49.12 204.58 45.49 207.9 42.19 207.6C39.33 207.34 36.64 204.35 36.79 200.58Z" fill="#BAE8E0"/>
<path d="M47.4999 190.77C46.4391 187.444 44.7408 184.357 42.4999 181.68C42.1499 182.1 41.7599 182.61 41.3399 183.2C44.3822 187.89 45.8757 193.416 45.6099 199C45.9599 203.28 42.6099 206.51 39.4099 206.48C40.2078 207.122 41.172 207.525 42.1899 207.64C45.4899 207.94 49.1199 204.64 48.7599 200.17C48.8978 196.987 48.4712 193.804 47.4999 190.77Z" fill="#9DDFD3"/>
<path d="M36.79 200.58C36.4197 197.21 36.7308 193.801 37.7048 190.554C38.6789 187.307 40.296 184.289 42.46 181.68C46.8027 186.82 49.0517 193.407 48.76 200.13C49.12 204.58 45.49 207.9 42.19 207.6C39.33 207.34 36.64 204.35 36.79 200.58Z" stroke="#472F40" stroke-width="0.75" stroke-linecap="round" stroke-linejoin="round"/>
<path d="M41.38 210.85C40.71 210.62 31.65 207.39 29.27 198.01C28.691 195.545 28.6158 192.988 29.0488 190.493C29.4818 187.998 30.4142 185.616 31.79 183.49C35.7437 185.677 38.928 189.029 40.91 193.09C42.1723 195.868 42.8644 198.872 42.9451 201.922C43.0259 204.973 42.4936 208.009 41.38 210.85V210.85Z" fill="#BAE8E0"/>
<path d="M41.38 210.85C40.71 210.62 31.65 207.39 29.27 198.01C28.691 195.545 28.6158 192.988 29.0488 190.493C29.4818 187.998 30.4142 185.616 31.79 183.49C35.7437 185.677 38.928 189.029 40.91 193.09C42.1723 195.868 42.8644 198.872 42.9451 201.922C43.0259 204.973 42.4936 208.009 41.38 210.85V210.85Z" stroke="#472F40" stroke-width="0.75" stroke-linecap="round" stroke-linejoin="round"/>
<path d="M43.44 210.35C44.12 210.12 53.17 206.88 55.56 197.5C56.1269 195.035 56.1924 192.481 55.7526 189.99C55.3128 187.499 54.3767 185.122 53 183C49.0462 185.188 45.862 188.539 43.88 192.6C42.6237 195.379 41.9376 198.382 41.862 201.43C41.7864 204.479 42.323 207.512 43.44 210.35V210.35Z" fill="#BAE8E0"/>
<path d="M53 183C52.53 183.26 51.88 183.65 51.13 184.17C52.9215 187.969 53.359 192.267 52.3699 196.35C51.6707 198.876 50.4485 201.228 48.7828 203.252C47.117 205.276 45.0446 206.928 42.7 208.1C42.9049 208.863 43.152 209.614 43.4399 210.35C44.1199 210.12 53.17 206.88 55.56 197.5C56.1269 195.035 56.1924 192.481 55.7526 189.99C55.3128 187.499 54.3767 185.122 53 183V183Z" fill="#9DDFD3"/>
<path d="M42.3801 213.21C43.3801 211.43 37.7401 206.84 37.2401 206.43C30.7401 201.16 21.4701 198.93 20.3201 200.94C19.3201 202.61 23.9801 207.27 27.9701 209.85C33.7501 213.59 41.4101 215 42.3801 213.21Z" fill="#BAE8E0"/>
<path d="M42.3801 213.21C43.3801 211.43 37.7401 206.84 37.2401 206.43C30.7401 201.16 21.4701 198.93 20.3201 200.94C19.3201 202.61 23.9801 207.27 27.9701 209.85C33.7501 213.59 41.4101 215 42.3801 213.21Z" stroke="#472F40" stroke-width="0.75" stroke-linecap="round" stroke-linejoin="round"/>
<path d="M42.3801 213.21C43.3801 211.43 37.7401 206.84 37.2401 206.43C30.7401 201.16 21.4701 198.93 20.3201 200.94C19.3201 202.61 23.9801 207.27 27.9701 209.85C33.7501 213.59 41.4101 215 42.3801 213.21Z" stroke="#472F40" stroke-width="0.75" stroke-linecap="round" stroke-linejoin="round"/>
<path d="M41.81 213.7C40.81 212.12 44.35 207.36 48.67 204.81C54.11 201.59 61.5 201.43 62.26 203.37C63.02 205.31 56.94 209.66 52.18 211.83C49.07 213.24 42.9 215.38 41.81 213.7Z" fill="#BAE8E0"/>
<path d="M62.2599 203.37C61.9899 202.68 60.8699 202.26 59.3099 202.15C58.9399 204.35 53.9699 208.41 49.8899 210.69C47.397 212.132 44.6996 213.187 41.8899 213.82C43.2199 215.25 49.1099 213.2 52.1299 211.82C56.9399 209.66 62.9999 205.34 62.2599 203.37Z" fill="#9DDFD3"/>
<path d="M41.81 213.7C40.81 212.12 44.35 207.36 48.67 204.81C54.11 201.59 61.5 201.43 62.26 203.37C63.02 205.31 56.94 209.66 52.18 211.83C49.07 213.24 42.9 215.38 41.81 213.7Z" stroke="#472F40" stroke-width="0.75" stroke-linecap="round" stroke-linejoin="round"/>
<path d="M41.81 213.7C40.81 212.12 44.35 207.36 48.67 204.81C54.11 201.59 61.5 201.43 62.26 203.37C63.02 205.31 56.94 209.66 52.18 211.83C49.07 213.24 42.9 215.38 41.81 213.7Z" stroke="#472F40" stroke-width="0.75" stroke-linecap="round" stroke-linejoin="round"/>
<path d="M43.44 210.35C44.12 210.12 53.17 206.88 55.56 197.5C56.1269 195.035 56.1924 192.481 55.7526 189.99C55.3128 187.499 54.3767 185.122 53 183C49.0462 185.188 45.862 188.539 43.88 192.6C42.6237 195.379 41.9376 198.382 41.862 201.43C41.7864 204.479 42.323 207.512 43.44 210.35V210.35Z" stroke="#472F40" stroke-width="0.75" stroke-linecap="round" stroke-linejoin="round"/>
<path d="M42.3801 213.21C33.7501 213.13 30.0301 210.51 28.2301 208.21C24.8001 203.76 26.7501 198.3 22.2301 192.73C20.5099 190.659 18.3329 189.016 15.8701 187.93C19.9208 186.581 24.2995 186.581 28.3501 187.93C37.0001 191 42.8701 201.19 42.3801 213.21Z" fill="#BAE8E0"/>
<path d="M42.3801 213.21C33.7501 213.13 30.0301 210.51 28.2301 208.21C24.8001 203.76 26.7501 198.3 22.2301 192.73C20.5099 190.659 18.3329 189.016 15.8701 187.93C19.9208 186.581 24.2995 186.581 28.3501 187.93C37.0001 191 42.8701 201.19 42.3801 213.21Z" stroke="#472F40" stroke-width="0.75" stroke-linecap="round" stroke-linejoin="round"/>
<path d="M42 213.21C50.63 213.13 54.35 210.51 56.16 208.21C59.58 203.76 57.64 198.3 62.16 192.73C63.8761 190.655 66.0543 189.011 68.52 187.93C64.4694 186.581 60.0907 186.581 56.04 187.93C47.32 191 41.46 201.19 42 213.21Z" fill="#BAE8E0"/>
<path d="M64.64 187C62.4577 188.085 60.5343 189.626 59 191.52C54.48 197.09 56.42 202.52 53 207C51.43 209 48.41 211.27 42 211.88C42 212.32 42 212.76 42 213.21C50.63 213.13 54.35 210.51 56.16 208.21C59.58 203.76 57.64 198.3 62.16 192.73C63.8761 190.655 66.0543 189.011 68.52 187.93C67.2553 187.511 65.9573 187.2 64.64 187V187Z" fill="#9DDFD3"/>
<path d="M42 213.21C50.63 213.13 54.35 210.51 56.16 208.21C59.58 203.76 57.64 198.3 62.16 192.73C63.8761 190.655 66.0543 189.011 68.52 187.93C64.4694 186.581 60.0907 186.581 56.04 187.93C47.32 191 41.46 201.19 42 213.21Z" stroke="#472F40" stroke-width="0.75" stroke-linecap="round" stroke-linejoin="round"/>
<path d="M59.74 211.29H25.09C23.4 211.29 22.03 212.66 22.03 214.35C22.03 216.04 23.4 217.41 25.09 217.41H59.74C61.43 217.41 62.8 216.04 62.8 214.35C62.8 212.66 61.43 211.29 59.74 211.29Z" fill="#FFBF8A"/>
<path d="M54.85 239.37H29.97L26.97 217.41H57.85L54.85 239.37Z" fill="#FFBF8A"/>
<path d="M27.39 220.47H57.43L57.85 217.41H26.97L27.39 220.47Z" fill="#FF847C"/>
<path d="M59.74 211.29H25.09C23.4 211.29 22.03 212.66 22.03 214.35C22.03 216.04 23.4 217.41 25.09 217.41H59.74C61.43 217.41 62.8 216.04 62.8 214.35C62.8 212.66 61.43 211.29 59.74 211.29Z" stroke="#472F40" stroke-width="0.75" stroke-linecap="round" stroke-linejoin="round"/>
<path d="M54.85 239.37H29.97L26.97 217.41H57.85L54.85 239.37Z" stroke="#472F40" stroke-width="0.75" stroke-linecap="round" stroke-linejoin="round"/>
<path d="M112.75 97.0001C111.976 96.003 111.618 94.7453 111.75 93.4901C112.479 93.5028 113.203 93.3625 113.875 93.0783C114.547 92.7941 115.151 92.3723 115.65 91.8401C116.412 90.9327 116.826 89.7846 116.82 88.6001C116.82 86.9701 115.94 86.3401 115.05 84.0401C114.611 82.9183 114.299 81.7511 114.12 80.5601C113.197 80.633 112.308 80.943 111.54 81.4601C109.65 82.7401 108.71 85.2601 108.95 88.0301C108.963 88.1528 108.95 88.277 108.912 88.3945C108.874 88.5119 108.812 88.6201 108.73 88.7119C108.647 88.8038 108.546 88.8772 108.433 88.9275C108.321 88.9778 108.199 89.0037 108.075 89.0037C107.952 89.0037 107.829 88.9778 107.717 88.9275C107.604 88.8772 107.503 88.8038 107.421 88.7119C107.338 88.6201 107.276 88.5119 107.238 88.3945C107.2 88.277 107.187 88.1528 107.2 88.0301C107.231 87.5283 107.138 87.0265 106.929 86.5694C106.72 86.1123 106.401 85.714 106 85.4101C105.693 85.202 105.341 85.0683 104.973 85.0197C104.605 84.9711 104.231 85.0089 103.88 85.1301C103.554 85.3157 103.273 85.5718 103.059 85.8798C102.844 86.1878 102.701 86.5398 102.64 86.9101C102.15 89.0901 104.38 90.2801 105.04 93.0301C105.401 94.7756 105.169 96.5916 104.38 98.1901C104.38 101.41 107.05 103.58 109.21 103.35C111.37 103.12 113.62 100.23 112.75 97.0001Z" fill="#DEB097"/>
<path d="M112.75 97.0001C111.976 96.003 111.618 94.7453 111.75 93.4901C112.479 93.5028 113.203 93.3625 113.875 93.0783C114.547 92.7941 115.151 92.3723 115.65 91.8401C116.412 90.9327 116.826 89.7846 116.82 88.6001C116.82 86.9701 115.94 86.3401 115.05 84.0401C114.611 82.9183 114.299 81.7511 114.12 80.5601C113.197 80.633 112.308 80.943 111.54 81.4601C109.65 82.7401 108.71 85.2601 108.95 88.0301C108.963 88.1528 108.95 88.277 108.912 88.3945C108.874 88.5119 108.812 88.6201 108.73 88.7119C108.647 88.8038 108.546 88.8772 108.433 88.9275C108.321 88.9778 108.199 89.0037 108.075 89.0037C107.952 89.0037 107.829 88.9778 107.717 88.9275C107.604 88.8772 107.503 88.8038 107.421 88.7119C107.338 88.6201 107.276 88.5119 107.238 88.3945C107.2 88.277 107.187 88.1528 107.2 88.0301C107.231 87.5283 107.138 87.0265 106.929 86.5694C106.72 86.1123 106.401 85.714 106 85.4101C105.693 85.202 105.341 85.0683 104.973 85.0197C104.605 84.9711 104.231 85.0089 103.88 85.1301C103.554 85.3157 103.273 85.5718 103.059 85.8798C102.844 86.1878 102.701 86.5398 102.64 86.9101C102.15 89.0901 104.38 90.2801 105.04 93.0301C105.401 94.7756 105.169 96.5916 104.38 98.1901C104.38 101.41 107.05 103.58 109.21 103.35C111.37 103.12 113.62 100.23 112.75 97.0001Z" stroke="#472F40" stroke-width="0.75" stroke-linecap="round" stroke-linejoin="round"/>
<path d="M105.19 86.9099C105.033 86.9298 104.883 86.9829 104.748 87.0657C104.614 87.1485 104.498 87.259 104.41 87.3899C104.293 87.607 104.25 87.8565 104.288 88.1002C104.326 88.344 104.442 88.5687 104.62 88.7399" stroke="#472F40" stroke-width="0.5" stroke-linecap="round" stroke-linejoin="round"/>
<path d="M105.13 95.6799C104.326 95.8403 103.564 96.1636 102.89 96.6299C102.25 97.0799 101.4 97.6299 101.23 98.4999C101.01 99.5799 102.13 100.31 104.42 102.79C106.99 105.57 107.85 107.11 108.52 106.79C109.19 106.47 109.15 104.68 109.15 104.54C109.142 104.122 109.072 103.707 108.94 103.31C107.765 102.07 106.698 100.732 105.75 99.3099C105.34 98.6899 104.97 98.0799 104.64 97.4899C104.73 97.2599 104.81 96.9999 104.89 96.7299C104.97 96.4599 105.07 95.9999 105.13 95.6799Z" fill="#BAE8E0"/>
<path d="M111.86 95.1899C112.604 95.3294 113.327 95.5647 114.01 95.8899C115.28 96.4799 116.01 96.8899 116.35 97.5099C116.86 98.7099 115.22 99.6699 112.63 103.92C111.7 105.46 110.96 106.92 110.43 106.75C110.2 106.69 110.09 106.34 109.89 105.65C109.663 104.886 109.532 104.096 109.5 103.3C110.628 101.845 111.475 100.194 112 98.4299C112.19 97.7746 112.33 97.1061 112.42 96.4299L112.22 96.0499C112.075 95.7742 111.955 95.4864 111.86 95.1899V95.1899Z" fill="#BAE8E0"/>
<path d="M105.13 95.6799C104.326 95.8403 103.564 96.1636 102.89 96.6299C102.25 97.0799 101.4 97.6299 101.23 98.4999C101.01 99.5799 102.13 100.31 104.42 102.79C106.99 105.57 107.85 107.11 108.52 106.79C109.19 106.47 109.15 104.68 109.15 104.54C109.142 104.122 109.072 103.707 108.94 103.31C107.765 102.07 106.698 100.732 105.75 99.3099C105.34 98.6899 104.97 98.0799 104.64 97.4899C104.73 97.2599 104.81 96.9999 104.89 96.7299C104.97 96.4599 105.07 95.9999 105.13 95.6799Z" stroke="#472F40" stroke-width="0.75" stroke-linecap="round" stroke-linejoin="round"/>
<path d="M111.86 95.1899C112.604 95.3294 113.327 95.5647 114.01 95.8899C115.28 96.4799 116.01 96.8899 116.35 97.5099C116.86 98.7099 115.22 99.6699 112.63 103.92C111.7 105.46 110.96 106.92 110.43 106.75C110.2 106.69 110.09 106.34 109.89 105.65C109.663 104.886 109.532 104.096 109.5 103.3C110.628 101.845 111.475 100.194 112 98.4299C112.19 97.7746 112.33 97.1061 112.42 96.4299L112.22 96.0499C112.075 95.7742 111.955 95.4864 111.86 95.1899V95.1899Z" stroke="#472F40" stroke-width="0.75" stroke-linecap="round" stroke-linejoin="round"/>
<path d="M111.46 86.6301C111.753 86.6301 111.99 86.3928 111.99 86.1001C111.99 85.8074 111.753 85.5701 111.46 85.5701C111.167 85.5701 110.93 85.8074 110.93 86.1001C110.93 86.3928 111.167 86.6301 111.46 86.6301Z" fill="#472F40"/>
<path d="M114.32 85.58C114.613 85.58 114.85 85.3427 114.85 85.05C114.85 84.7573 114.613 84.52 114.32 84.52C114.027 84.52 113.79 84.7573 113.79 85.05C113.79 85.3427 114.027 85.58 114.32 85.58Z" fill="#472F40"/>
<path d="M113 85.6299C113.067 85.8467 113.172 86.0499 113.31 86.2299C113.67 86.7099 114.09 86.7999 114.11 87.0999C114.102 87.1932 114.074 87.2837 114.027 87.3649C113.981 87.4461 113.917 87.5161 113.84 87.5699" stroke="#472F40" stroke-width="0.5" stroke-linecap="round" stroke-linejoin="round"/>
<path d="M112.52 89.3201C112.729 89.5345 113.011 89.6629 113.31 89.6801C113.55 89.6851 113.786 89.6114 113.98 89.4701" stroke="#472F40" stroke-width="0.5" stroke-linecap="round" stroke-linejoin="round"/>
<path d="M148.91 139.44C148.89 139.802 148.79 140.154 148.617 140.472C148.444 140.791 148.202 141.066 147.91 141.28C146.28 142.48 143.35 141.09 142.66 140.79C135.82 137.85 125.84 146.79 115.36 144.33C108.97 142.85 103.93 137.5 100.09 132.24C101.077 131.5 102.077 130.71 103.09 129.87C104.737 128.537 106.257 127.203 107.65 125.87C113.08 133.3 117.65 135.44 121.27 135.58C122.68 135.63 126.11 135.47 128.65 135.28C137.3 134.64 140.34 133.41 144.46 135.23C145.17 135.51 149 137.18 148.91 139.44Z" fill="#DEB097"/>
<path d="M147.07 140.37C145.07 141.17 142.79 139.51 141.91 138.99C135.55 135.21 127.31 144.72 116.47 141.93C113.476 141.089 110.701 139.605 108.34 137.58C105.953 135.571 104.002 133.093 102.61 130.3L101.97 130.81L101.52 131.16L101.45 131.22L100.12 132.22C103.96 137.48 109 142.83 115.39 144.31C125.87 146.75 135.85 137.83 142.69 140.77C143.38 141.07 146.31 142.46 147.94 141.26C148.232 141.046 148.474 140.77 148.647 140.452C148.82 140.134 148.92 139.782 148.94 139.42C148.941 139.175 148.9 138.932 148.82 138.7C148.442 139.438 147.825 140.026 147.07 140.37V140.37Z" fill="#D2A186"/>
<path d="M148.91 139.44C148.89 139.802 148.79 140.154 148.617 140.472C148.444 140.791 148.202 141.066 147.91 141.28C146.28 142.48 143.35 141.09 142.66 140.79C135.82 137.85 125.84 146.79 115.36 144.33C108.97 142.85 103.93 137.5 100.09 132.24C101.077 131.5 102.077 130.71 103.09 129.87C104.737 128.537 106.257 127.203 107.65 125.87C113.08 133.3 117.65 135.44 121.27 135.58C122.68 135.63 126.11 135.47 128.65 135.28C137.3 134.64 140.34 133.41 144.46 135.23C145.17 135.51 149 137.18 148.91 139.44Z" stroke="#472F40" stroke-width="0.75" stroke-linecap="round" stroke-linejoin="round"/>
</svg>
