<svg width="70" height="70" viewBox="0 0 70 70" fill="none" xmlns="http://www.w3.org/2000/svg">
<g clip-path="url(#clip0)">
<path fill-rule="evenodd" clip-rule="evenodd" d="M40.0002 22.2101L49.0602 13.1401C49.2697 12.9327 49.436 12.6859 49.5495 12.4138C49.6631 12.1418 49.7215 11.8499 49.7215 11.5551C49.7215 11.2603 49.6631 10.9685 49.5495 10.6964C49.436 10.4243 49.2697 10.1775 49.0602 9.97011L40.0002 0.900112C39.5787 0.481808 39.009 0.24707 38.4152 0.24707C37.8214 0.24707 37.2516 0.481808 36.8302 0.900112V5.71011H24.2902C23.9921 5.71139 23.6973 5.77186 23.4229 5.88802C23.1484 6.00418 22.8998 6.17371 22.6914 6.38676C22.483 6.59981 22.319 6.85214 22.2089 7.1291C22.0988 7.40606 22.0449 7.70213 22.0502 8.00011V15.2101C22.0528 15.8034 22.2896 16.3716 22.7091 16.7911C23.1287 17.2106 23.6969 17.4475 24.2902 17.4501H36.8302V22.2601C37.2582 22.6718 37.8316 22.8976 38.4255 22.8883C39.0193 22.8789 39.5853 22.6351 40.0002 22.2101Z" fill="#FDF3E8"/>
<path d="M49.06 13.1401C49.2696 12.9327 49.4359 12.6859 49.5494 12.4138C49.6629 12.1418 49.7214 11.8499 49.7214 11.5551C49.7214 11.2603 49.6629 10.9685 49.5494 10.6964C49.4359 10.4243 49.2696 10.1775 49.06 9.97011L40 0.900112C39.5786 0.481808 39.0088 0.24707 38.415 0.24707C37.8212 0.24707 37.2515 0.481808 36.83 0.900112V5.71011H24.29" stroke="black" stroke-width="0.5" stroke-miterlimit="10"/>
<path fill-rule="evenodd" clip-rule="evenodd" d="M12.4799 10.0002L3.40988 19.0602C2.99157 19.4817 2.75684 20.0514 2.75684 20.6452C2.75684 21.239 2.99157 21.8088 3.40988 22.2302L12.4799 31.3002C12.9013 31.7185 13.4711 31.9533 14.0649 31.9533C14.6587 31.9533 15.2284 31.7185 15.6499 31.3002V26.4902H28.1899C28.7832 26.4876 29.3514 26.2507 29.7709 25.8312C30.1904 25.4117 30.4272 24.8435 30.4299 24.2502V17.0002C30.4272 16.4069 30.1904 15.8387 29.7709 15.4192C29.3514 14.9997 28.7832 14.7628 28.1899 14.7602H15.6499V10.0002C15.4425 9.79069 15.1957 9.62435 14.9236 9.51083C14.6515 9.39732 14.3597 9.33887 14.0649 9.33887C13.7701 9.33887 13.4782 9.39732 13.2062 9.51083C12.9341 9.62435 12.6872 9.79069 12.4799 10.0002Z" fill="#F7C5A8"/>
<path d="M3.40988 19.0601C2.99157 19.4815 2.75684 20.0513 2.75684 20.6451C2.75684 21.2389 2.99157 21.8086 3.40988 22.2301L12.4799 31.3001C12.9013 31.7184 13.4711 31.9531 14.0649 31.9531C14.6587 31.9531 15.2284 31.7184 15.6499 31.3001V26.4901H28.1899" stroke="black" stroke-width="0.5" stroke-miterlimit="10"/>
<path fill-rule="evenodd" clip-rule="evenodd" d="M0.250002 69.4402C0.248387 66.0042 1.08194 62.6193 2.67888 59.577C4.27583 56.5347 6.5883 53.9262 9.41718 51.9759C12.2461 50.0257 15.5066 48.7923 18.9179 48.382C22.3293 47.9716 25.7893 48.3965 29 49.6202C30.0983 45.0621 32.6772 40.997 36.333 38.0614C39.9887 35.1258 44.5149 33.4856 49.2026 33.3975C53.8903 33.3095 58.4748 34.7786 62.2382 37.5749C66.0016 40.3711 68.7314 44.3365 70 48.8502V69.8502" fill="#FDF3E8"/>
<path d="M49.55 33.3901C44.8015 33.4016 40.1944 35.0078 36.4679 37.9509C32.7414 40.894 30.1115 45.0035 29 49.6201C25.7893 48.3965 22.3293 47.9715 18.9179 48.3819C15.5066 48.7923 12.2461 50.0257 9.41718 51.9759C6.5883 53.9261 4.27583 56.5347 2.67888 59.577C1.08194 62.6193 0.248387 66.0042 0.250002 69.4401H29.25" stroke="black" stroke-width="0.5" stroke-miterlimit="10"/>
<path d="M36.55 28.65V53.65C36.5118 53.9876 36.5501 54.3295 36.6623 54.6502C36.7744 54.9709 36.9573 55.2622 37.1976 55.5024C37.4378 55.7427 37.7291 55.9256 38.0498 56.0378C38.3706 56.1499 38.7124 56.1882 39.05 56.15H57.36C57.6976 56.1882 58.0395 56.1499 58.3602 56.0378C58.6809 55.9256 58.9722 55.7427 59.2124 55.5024C59.4527 55.2622 59.6356 54.9709 59.7478 54.6502C59.8599 54.3295 59.8982 53.9876 59.86 53.65V24.05C59.8982 23.7124 59.8599 23.3706 59.7478 23.0498C59.6356 22.7291 59.4527 22.4378 59.2124 22.1976C58.9722 21.9573 58.6809 21.7744 58.3602 21.6622C58.0395 21.5501 57.6976 21.5118 57.36 21.55H43.64L36.55 28.65Z" fill="#F7C5A8"/>
<path d="M59.8598 24.05V53.62C59.898 53.9576 59.8597 54.2995 59.7476 54.6202C59.6354 54.9409 59.4525 55.2322 59.2122 55.4725C58.972 55.7127 58.6807 55.8957 58.36 56.0078C58.0393 56.1199 57.6974 56.1583 57.3598 56.12H39.0498" stroke="black" stroke-width="0.5" stroke-linecap="round" stroke-linejoin="round"/>
<path d="M36.5498 28.64L43.6398 21.55V28.64H36.5498Z" fill="black"/>
<path fill-rule="evenodd" clip-rule="evenodd" d="M61.0001 46.2402C48.1901 46.2402 48.1901 53.5602 48.1901 53.5602C48.1901 53.5602 48.1901 46.2402 35.3901 46.2402V59.5002H61.0001V46.2402Z" fill="#FDF3E8"/>
<path d="M35.3999 46.2402C48.1999 46.2402 48.1999 53.5602 48.1999 53.5602C48.1999 53.5602 48.1999 46.2402 61.0099 46.2402" stroke="black" stroke-width="0.5" stroke-miterlimit="10"/>
</g>
<defs>
<clipPath id="clip0">
<rect width="69.95" height="69.87" fill="white"/>
</clipPath>
</defs>
</svg>
