<svg width="765" height="419" viewBox="0 0 765 419" fill="none" xmlns="http://www.w3.org/2000/svg">
<g clip-path="url(#clip0)">
<path d="M49.458 418.646C43.01 418.646 36.6252 417.378 30.6682 414.915C24.7112 412.452 19.2986 408.842 14.7395 404.291C10.1805 399.74 6.56427 394.337 4.09741 388.391C1.63055 382.445 0.361354 376.073 0.362305 369.637C0.362305 356.641 5.53487 344.178 14.7421 334.988C23.9493 325.799 36.437 320.636 49.458 320.636H102.994V418.646H49.458Z" fill="#8CA6AD" stroke="black" stroke-miterlimit="10"/>
<path d="M797.535 418.646H102.995V320.636H797.535C810.557 320.636 823.045 325.799 832.253 334.988C841.462 344.177 846.636 356.641 846.638 369.637C846.638 376.073 845.368 382.446 842.9 388.392C840.432 394.338 836.816 399.741 832.256 404.291C827.696 408.842 822.283 412.452 816.326 414.915C810.368 417.378 803.983 418.646 797.535 418.646Z" fill="#FDF3E8" stroke="black" stroke-linecap="round" stroke-linejoin="round"/>
<path d="M57.8687 359.254C56.4941 359.256 55.1758 359.8 54.2004 360.766C53.225 361.733 52.6714 363.045 52.66 364.417V367.533H51.624C51.0719 367.533 50.5423 367.752 50.1512 368.141C49.7602 368.53 49.5395 369.057 49.5376 369.608V377.916C49.5376 378.469 49.7574 378.998 50.1487 379.389C50.54 379.779 51.0707 379.999 51.624 379.999H64.1062C64.6595 379.999 65.1902 379.779 65.5815 379.389C65.9728 378.998 66.1926 378.469 66.1926 377.916V369.637C66.1907 369.086 65.97 368.559 65.5789 368.17C65.1879 367.781 64.6583 367.562 64.1062 367.562H63.0702V364.417C63.0607 363.046 62.5087 361.734 61.5344 360.767C60.5602 359.8 59.2427 359.256 57.8687 359.254ZM54.7464 367.562V364.417C54.7464 363.59 55.0753 362.798 55.6609 362.213C56.2464 361.629 57.0406 361.301 57.8687 361.301C58.6968 361.301 59.491 361.629 60.0766 362.213C60.6621 362.798 60.9911 363.59 60.9911 364.417V367.533L54.7464 367.562Z" fill="#FDF3E8"/>
<path d="M167.84 74.8862H241.009C249.352 74.892 257.352 78.202 263.252 84.0896C269.153 89.9772 272.471 97.961 272.479 106.288C272.479 110.416 271.664 114.503 270.081 118.316C268.499 122.13 266.179 125.595 263.255 128.513C260.331 131.432 256.859 133.747 253.038 135.327C249.218 136.906 245.123 137.719 240.987 137.719H193.71L183.879 147.531L174.048 137.719H167.84C159.488 137.719 151.478 134.408 145.572 128.513C139.666 122.619 136.348 114.624 136.348 106.288C136.356 97.9573 139.677 89.9701 145.582 84.0819C151.487 78.1937 159.493 74.8862 167.84 74.8862Z" fill="#384A51" stroke="black" stroke-linecap="round" stroke-linejoin="round"/>
<path d="M182.068 111.92C184.744 111.92 186.914 109.755 186.914 107.083C186.914 104.412 184.744 102.246 182.068 102.246C179.391 102.246 177.221 104.412 177.221 107.083C177.221 109.755 179.391 111.92 182.068 111.92Z" fill="#F7C5A8"/>
<path opacity="0.7" d="M204.41 111.92C207.086 111.92 209.256 109.755 209.256 107.083C209.256 104.412 207.086 102.246 204.41 102.246C201.733 102.246 199.563 104.412 199.563 107.083C199.563 109.755 201.733 111.92 204.41 111.92Z" fill="#F7C5A8"/>
<path opacity="0.4" d="M226.759 111.92C229.435 111.92 231.605 109.755 231.605 107.083C231.605 104.412 229.435 102.246 226.759 102.246C224.082 102.246 221.912 104.412 221.912 107.083C221.912 109.755 224.082 111.92 226.759 111.92Z" fill="#F7C5A8"/>
<path d="M299.703 0.42627H178.888C170.536 0.42627 162.526 3.73774 156.62 9.63219C150.714 15.5266 147.396 23.5212 147.396 31.8572C147.398 40.192 150.717 48.1847 156.622 54.0776C162.528 59.9705 170.537 63.281 178.888 63.281H265.821L275.652 73.0928L285.483 63.281H299.703C308.054 63.281 316.062 59.9703 321.966 54.0772C327.871 48.1841 331.188 40.1913 331.188 31.8572C331.188 23.5225 327.871 15.529 321.967 9.63474C316.062 3.7405 308.054 0.428187 299.703 0.42627Z" fill="#FFBF8A" stroke="black" stroke-linecap="round" stroke-linejoin="round"/>
<path d="M178.475 20.3535H301.297" stroke="black" stroke-linecap="round" stroke-linejoin="round"/>
<path d="M178.475 31.7705H301.297" stroke="black" stroke-linecap="round" stroke-linejoin="round"/>
<path d="M178.475 43.1802H301.297" stroke="black" stroke-linecap="round" stroke-linejoin="round"/>
<path d="M558.482 0.361328H390.875C382.517 0.361328 374.501 3.67508 368.591 9.5736C362.681 15.4721 359.361 23.4722 359.361 31.814C359.36 35.945 360.175 40.0358 361.758 43.8526C363.341 47.6695 365.662 51.1376 368.589 54.059C371.515 56.9805 374.99 59.2979 378.813 60.879C382.637 62.4601 386.736 63.2739 390.875 63.2739H408.747L418.585 73.0929L428.423 63.2739H558.482C566.842 63.2739 574.86 59.9594 580.771 54.0595C586.682 48.1596 590.003 40.1577 590.003 31.814C590.001 23.4716 586.679 15.4715 580.768 9.57316C574.857 3.67485 566.841 0.361328 558.482 0.361328Z" fill="#F9F9F9" stroke="black" stroke-linecap="round" stroke-linejoin="round"/>
<path d="M556.222 54.879H413.709V8.55322H556.222C562.37 8.55322 568.267 10.9909 572.614 15.3301C576.962 19.6692 579.404 25.5543 579.404 31.6908C579.411 34.7335 578.816 37.7477 577.654 40.5607C576.492 43.3737 574.785 45.9304 572.632 48.0843C570.479 50.2382 567.921 51.947 565.105 53.1129C562.289 54.2789 559.27 54.879 556.222 54.879Z" fill="#F0F0F0"/>
<path d="M425.554 22.6093H424.829L424.648 21.8212C424.386 22.1263 424.063 22.3727 423.699 22.5443C423.356 22.6893 422.985 22.7607 422.612 22.754C422.143 22.7614 421.678 22.6651 421.25 22.472C420.863 22.2928 420.517 22.0341 420.236 21.7128C419.951 21.3816 419.732 20.9987 419.591 20.5848C419.302 19.6967 419.302 18.7397 419.591 17.8517C419.732 17.4401 419.951 17.0595 420.236 16.731C420.515 16.4052 420.861 16.1437 421.25 15.9645C421.678 15.7714 422.143 15.6751 422.612 15.6825C422.965 15.6784 423.317 15.7271 423.656 15.8271C423.977 15.9153 424.279 16.0625 424.547 16.261C424.82 16.4652 425.047 16.7246 425.213 17.0224C425.379 17.3202 425.48 17.6496 425.51 17.9891H424.351C424.329 17.781 424.26 17.5806 424.148 17.4034C424.047 17.239 423.914 17.0964 423.757 16.984C423.597 16.8698 423.418 16.7841 423.228 16.731C423.028 16.6727 422.821 16.6435 422.612 16.6442C422.287 16.6354 421.966 16.7101 421.678 16.8611C421.42 17.0008 421.201 17.202 421.04 17.4468C420.868 17.697 420.743 17.9763 420.671 18.271C420.596 18.5813 420.557 18.8991 420.555 19.2182C420.557 19.535 420.596 19.8504 420.671 20.1582C420.745 20.4547 420.87 20.7361 421.04 20.9897C421.203 21.2307 421.422 21.4291 421.678 21.5682C421.966 21.7191 422.287 21.7938 422.612 21.7851C422.885 21.7973 423.158 21.7581 423.417 21.6694C423.639 21.5902 423.841 21.4645 424.011 21.3006C424.176 21.1342 424.301 20.9311 424.373 20.7077C424.455 20.4579 424.499 20.1971 424.503 19.9341H422.707V19.0592H425.604L425.554 22.6093Z" fill="black"/>
<path d="M429.727 15.7042C430.194 15.6966 430.656 15.793 431.081 15.9862C431.475 16.1626 431.824 16.4245 432.103 16.7526C432.386 17.0815 432.603 17.4621 432.74 17.8734C433.04 18.7599 433.04 19.7199 432.74 20.6065C432.603 21.0199 432.386 21.4029 432.103 21.7345C431.821 22.0576 431.472 22.3165 431.081 22.4937C430.653 22.6798 430.19 22.7758 429.723 22.7758C429.256 22.7758 428.793 22.6798 428.365 22.4937C427.977 22.3145 427.631 22.0558 427.35 21.7345C427.062 21.4039 426.841 21.0209 426.698 20.6065C426.408 19.7184 426.408 18.7614 426.698 17.8734C426.839 17.4618 427.058 17.0812 427.343 16.7526C427.622 16.4269 427.968 16.1654 428.357 15.9862C428.787 15.7913 429.255 15.695 429.727 15.7042ZM429.727 16.6659C429.402 16.6571 429.08 16.7318 428.792 16.8828C428.534 17.0225 428.315 17.2237 428.155 17.4685C427.983 17.7187 427.857 17.998 427.785 18.2927C427.706 18.6023 427.668 18.9206 427.669 19.2399C427.668 19.5569 427.706 19.8728 427.785 20.1799C427.859 20.4764 427.984 20.7578 428.155 21.0114C428.318 21.2524 428.536 21.4508 428.792 21.5898C429.08 21.7408 429.402 21.8155 429.727 21.8068C430.051 21.8139 430.373 21.7393 430.661 21.5898C430.916 21.4488 431.134 21.2508 431.299 21.0114C431.464 20.7558 431.586 20.4749 431.661 20.1799C431.742 19.8731 431.783 19.5572 431.784 19.2399C431.783 18.9203 431.742 18.602 431.661 18.2927C431.588 17.9995 431.465 17.7208 431.299 17.4685C431.136 17.2252 430.917 17.0244 430.661 16.8828C430.373 16.7333 430.051 16.6587 429.727 16.6659Z" fill="black"/>
<path d="M419.498 30.5124C419.628 30.1003 419.837 29.7173 420.113 29.3844C420.39 29.0533 420.736 28.7867 421.128 28.6035C421.567 28.3985 422.048 28.2971 422.533 28.3071C423.033 28.2922 423.529 28.3937 423.982 28.6035C424.373 28.7867 424.719 29.0533 424.996 29.3844C425.273 29.7159 425.48 30.0995 425.605 30.5124C425.884 31.3774 425.884 32.3082 425.605 33.1732C425.481 33.5868 425.274 33.9707 424.996 34.3012C424.719 34.6323 424.373 34.8989 423.982 35.0821C423.527 35.2857 423.032 35.3845 422.533 35.3713C422.049 35.38 421.569 35.2812 421.128 35.0821C420.736 34.8989 420.39 34.6323 420.113 34.3012C419.836 33.9693 419.626 33.586 419.498 33.1732C419.227 32.3068 419.227 31.3788 419.498 30.5124ZM420.331 32.8478C420.413 33.1691 420.553 33.4729 420.744 33.7444C420.932 34.0103 421.18 34.2283 421.468 34.3807C421.8 34.5377 422.162 34.6191 422.529 34.6191C422.897 34.6191 423.259 34.5377 423.591 34.3807C423.88 34.2292 424.128 34.011 424.315 33.7444C424.511 33.475 424.654 33.1707 424.735 32.8478C424.822 32.5199 424.866 32.182 424.866 31.8428C424.866 31.5036 424.822 31.1658 424.735 30.8378C424.654 30.5149 424.511 30.2106 424.315 29.9412C424.126 29.6764 423.878 29.4587 423.591 29.3049C423.259 29.1479 422.897 29.0665 422.529 29.0665C422.162 29.0665 421.8 29.1479 421.468 29.3049C421.182 29.4601 420.934 29.6776 420.744 29.9412C420.553 30.2127 420.413 30.5165 420.331 30.8378C420.236 31.1548 420.185 31.4831 420.179 31.8139C420.179 32.1641 420.23 32.5124 420.331 32.8478Z" fill="#767676"/>
<path d="M426.25 31.0402V30.3677H427.075V29.6447C427.065 29.4785 427.089 29.312 427.148 29.1561C427.207 29.0003 427.298 28.8587 427.416 28.7409C427.706 28.5199 428.066 28.412 428.43 28.4372H428.691L428.944 28.495V29.2181C428.872 29.1928 428.796 29.1758 428.72 29.1675H428.495C428.334 29.1542 428.174 29.195 428.039 29.2832C427.978 29.3365 427.932 29.4041 427.904 29.4799C427.876 29.5557 427.868 29.6372 427.879 29.717V30.3677H428.829V31.0908H427.879V35.27H427.075V31.0402H426.25Z" fill="#767676"/>
<path d="M428.872 31.0405V30.3681H429.697V29.645C429.686 29.4782 429.711 29.3109 429.771 29.1548C429.831 28.9987 429.925 28.8575 430.045 28.7412C430.331 28.5176 430.69 28.4093 431.052 28.4375H431.313C431.401 28.4502 431.488 28.4696 431.574 28.4954V29.2184C431.501 29.1939 431.426 29.1769 431.349 29.1678H431.117C430.957 29.1546 430.796 29.1953 430.661 29.2835C430.602 29.338 430.557 29.4057 430.529 29.4812C430.501 29.5566 430.492 29.6376 430.502 29.7173V30.3681H431.451V31.0911H430.502V35.2703H429.697V31.0405H428.872Z" fill="#767676"/>
<path d="M432.226 29.4497V28.4663H433.03V29.4497H432.226ZM433.03 30.3679V35.2557H432.226V30.3679H433.03Z" fill="#767676"/>
<path d="M437.21 31.1852C436.978 31.002 436.687 30.9094 436.392 30.9249C436.141 30.9186 435.892 30.9732 435.667 31.0839C435.478 31.1864 435.317 31.3327 435.196 31.5105C435.076 31.6986 434.99 31.9068 434.943 32.1251C434.892 32.3626 434.867 32.6052 434.87 32.8482C434.867 33.0725 434.894 33.2961 434.95 33.5134C434.997 33.7182 435.083 33.9121 435.204 34.0846C435.316 34.2533 435.468 34.3922 435.646 34.4895C435.9 34.6079 436.183 34.6549 436.462 34.6256C436.741 34.5964 437.008 34.4918 437.232 34.3232C437.47 34.0904 437.617 33.7799 437.645 33.4483H438.471C438.414 33.9785 438.173 34.4722 437.79 34.8438C437.386 35.1837 436.869 35.3592 436.341 35.3355C436.004 35.3432 435.668 35.2817 435.356 35.1547C435.078 35.0443 434.83 34.871 434.631 34.6486C434.438 34.4158 434.29 34.1484 434.197 33.8604C434.098 33.5321 434.05 33.1909 434.052 32.8482C434.051 32.5008 434.1 32.1551 434.197 31.8214C434.284 31.5195 434.43 31.2372 434.624 30.9899C434.823 30.7552 435.07 30.5654 435.349 30.4332C435.668 30.2946 436.014 30.2256 436.363 30.2307C436.627 30.2304 436.89 30.2645 437.145 30.332C437.377 30.3931 437.595 30.496 437.79 30.6356C437.977 30.7779 438.133 30.9577 438.246 31.1635C438.37 31.3871 438.449 31.6327 438.478 31.8865H437.645C437.587 31.6091 437.433 31.3608 437.21 31.1852Z" fill="#767676"/>
<path d="M439.413 29.4497V28.4663H440.224V29.4497H439.413ZM440.224 30.3679V35.2557H439.413V30.3679H440.224Z" fill="#767676"/>
<path d="M445.809 35.1978C445.631 35.2912 445.431 35.3337 445.23 35.3207C445.14 35.3255 445.051 35.3127 444.966 35.2829C444.882 35.2532 444.804 35.207 444.737 35.1471C444.667 35.071 444.613 34.9806 444.581 34.882C444.548 34.7834 444.537 34.6791 444.549 34.5759C444.345 34.8312 444.078 35.0282 443.774 35.1471C443.471 35.2649 443.149 35.3238 442.825 35.3207C442.612 35.3225 442.401 35.2982 442.194 35.2484C442.009 35.2034 441.834 35.1223 441.68 35.0098C441.532 34.8994 441.413 34.7556 441.332 34.5904C441.239 34.4015 441.189 34.1938 441.187 33.983C441.177 33.7487 441.225 33.5154 441.325 33.3034C441.414 33.1308 441.543 32.982 441.702 32.8695C441.862 32.7577 442.041 32.6745 442.231 32.6237C442.431 32.5645 442.634 32.5162 442.839 32.4791C443.064 32.4357 443.274 32.3996 443.469 32.3779C443.648 32.3615 443.825 32.3301 443.998 32.2839C444.13 32.2552 444.252 32.1929 444.353 32.1031C444.401 32.0609 444.438 32.0083 444.462 31.9493C444.486 31.8903 444.496 31.8267 444.491 31.7633C444.497 31.6145 444.462 31.4669 444.389 31.3367C444.327 31.2351 444.239 31.1506 444.136 31.0908C444.025 31.033 443.905 30.9939 443.781 30.9751C443.653 30.9677 443.525 30.9677 443.397 30.9751C443.102 30.9642 442.81 31.0315 442.549 31.1704C442.429 31.2478 442.332 31.3554 442.267 31.4824C442.202 31.6093 442.172 31.7511 442.18 31.8934H441.376C441.375 31.6265 441.44 31.3634 441.564 31.127C441.672 30.9231 441.829 30.7491 442.02 30.6209C442.218 30.4933 442.436 30.4003 442.665 30.3461C442.922 30.2871 443.184 30.258 443.448 30.2593C443.668 30.2582 443.889 30.2751 444.107 30.3099C444.314 30.3373 444.515 30.4009 444.701 30.4979C444.874 30.5966 445.019 30.7387 445.121 30.9101C445.245 31.13 445.303 31.3811 445.288 31.6331V34.1493C445.273 34.2863 445.273 34.4245 445.288 34.5615C445.288 34.6482 445.382 34.6916 445.512 34.6916C445.596 34.6895 445.679 34.6749 445.759 34.6482L445.809 35.1978ZM444.505 32.6815C444.388 32.7682 444.251 32.8253 444.107 32.8478C443.938 32.8816 443.764 32.9105 443.585 32.9346L443.042 33.0141C442.873 33.036 442.707 33.0797 442.549 33.1443C442.411 33.2065 442.289 33.3006 442.194 33.4191C442.093 33.5569 442.045 33.726 442.057 33.8963C442.054 34.0122 442.081 34.1268 442.136 34.2289C442.19 34.3177 442.261 34.3942 442.346 34.453C442.438 34.5099 442.538 34.5515 442.643 34.5759C442.764 34.5873 442.885 34.5873 443.006 34.5759C443.237 34.5817 443.468 34.545 443.687 34.4675C443.857 34.4057 444.014 34.3125 444.15 34.1927C444.265 34.093 444.356 33.9696 444.418 33.8312C444.474 33.7185 444.503 33.5951 444.505 33.4697V32.6815Z" fill="#767676"/>
<path d="M447.411 28.4663V35.2196H446.606V28.4663H447.411Z" fill="#767676"/>
<path d="M455.503 35.1402C455.124 35.2899 454.721 35.3683 454.314 35.3716C453.847 35.3799 453.385 35.2836 452.96 35.0896C452.575 34.9221 452.229 34.6758 451.946 34.3666C451.669 34.0418 451.46 33.6659 451.33 33.2603C451.185 32.8491 451.112 32.4163 451.112 31.9805C451.109 31.5054 451.178 31.0326 451.315 30.5778C451.437 30.1542 451.642 29.7586 451.917 29.4137C452.191 29.0778 452.535 28.8042 452.924 28.6111C453.363 28.4061 453.844 28.3047 454.329 28.3146C454.679 28.3124 455.027 28.3562 455.365 28.4448C455.679 28.5221 455.977 28.6569 456.242 28.8425C456.5 29.0387 456.717 29.2846 456.879 29.5655C457.065 29.8785 457.188 30.2249 457.241 30.585H456.336C456.303 30.3481 456.219 30.1212 456.089 29.9198C455.975 29.7372 455.825 29.5797 455.648 29.4571C455.463 29.3362 455.26 29.2459 455.046 29.1895C454.809 29.1303 454.566 29.1011 454.322 29.1028C453.975 29.0895 453.63 29.164 453.32 29.3195C453.009 29.475 452.743 29.7064 452.547 29.9921C452.355 30.2707 452.215 30.5818 452.134 30.9104C452.047 31.2556 452.003 31.6101 452.003 31.966C452.002 32.3092 452.053 32.6506 452.156 32.9783C452.248 33.29 452.398 33.5818 452.598 33.8387C452.794 34.0878 453.041 34.2923 453.322 34.4389C453.633 34.5895 453.976 34.6639 454.322 34.6558C454.644 34.664 454.964 34.6075 455.264 34.4895C455.522 34.3843 455.755 34.2239 455.945 34.0195C456.137 33.812 456.283 33.5654 456.372 33.2964C456.465 33.0196 456.507 32.7279 456.495 32.436H454.322V31.6624H457.292V35.2198H456.72L456.488 34.381C456.234 34.718 455.894 34.9803 455.503 35.1402Z" fill="#767676"/>
<path d="M458.371 31.7706C458.467 31.474 458.619 31.1989 458.821 30.9608C459.02 30.7301 459.267 30.5451 459.545 30.4185C460.202 30.1489 460.939 30.1489 461.595 30.4185C461.872 30.5465 462.119 30.7313 462.32 30.9608C462.521 31.1989 462.673 31.474 462.769 31.7706C462.873 32.0979 462.924 32.4396 462.921 32.7829C462.923 33.1214 462.872 33.4582 462.769 33.7807C462.673 34.0773 462.521 34.3524 462.32 34.5905C462.121 34.8203 461.873 35.003 461.595 35.1255C460.937 35.3861 460.204 35.3861 459.545 35.1255C459.266 35.0039 459.019 34.821 458.821 34.5905C458.619 34.3524 458.467 34.0773 458.371 33.7807C458.268 33.4582 458.217 33.1214 458.219 32.7829C458.216 32.4396 458.268 32.0979 458.371 31.7706ZM459.19 33.571C459.26 33.7809 459.371 33.975 459.516 34.1422C459.649 34.2951 459.815 34.4162 460.001 34.4965C460.189 34.5777 460.391 34.6196 460.595 34.6196C460.8 34.6196 461.002 34.5777 461.19 34.4965C461.376 34.4162 461.542 34.2951 461.675 34.1422C461.82 33.975 461.931 33.7809 462.001 33.571C462.165 33.0559 462.165 32.5026 462.001 31.9875C461.929 31.7762 461.819 31.5801 461.675 31.4091C461.54 31.2558 461.375 31.1326 461.19 31.0475C461.002 30.9663 460.8 30.9245 460.595 30.9245C460.391 30.9245 460.189 30.9663 460.001 31.0475C459.816 31.1326 459.651 31.2558 459.516 31.4091C459.372 31.5801 459.262 31.7762 459.19 31.9875C459.026 32.5026 459.026 33.0559 459.19 33.571Z" fill="#767676"/>
<path d="M465.268 35.2193L463.45 30.3677H464.37L465.739 34.4384L467.072 30.3677H467.92L466.13 35.2555L465.268 35.2193Z" fill="#767676"/>
<path d="M472.121 34.9089C471.719 35.1961 471.232 35.3411 470.738 35.321C470.39 35.3321 470.044 35.268 469.723 35.133C469.445 35.0148 469.197 34.8342 468.999 34.6052C468.794 34.3679 468.644 34.0892 468.557 33.7882C468.455 33.4551 468.399 33.1097 468.39 32.7614C468.385 32.4139 468.444 32.0683 468.564 31.7419C468.665 31.4438 468.828 31.1703 469.042 30.9394C469.244 30.7124 469.491 30.5302 469.767 30.4043C470.06 30.2783 470.375 30.2143 470.694 30.2163C471.074 30.2047 471.45 30.2972 471.781 30.4838C472.062 30.6698 472.297 30.917 472.469 31.2069C472.644 31.486 472.767 31.7948 472.831 32.1179C472.896 32.4244 472.923 32.7377 472.911 33.0507H469.245C469.236 33.2581 469.26 33.4657 469.318 33.6653C469.375 33.8507 469.468 34.0228 469.593 34.1714C469.726 34.3247 469.892 34.4458 470.078 34.5257C470.307 34.6217 470.555 34.6662 470.803 34.6558C471.101 34.6706 471.395 34.5895 471.643 34.4245C471.874 34.2461 472.029 33.9882 472.078 33.7014H472.867C472.781 34.1836 472.514 34.615 472.121 34.9089ZM471.926 31.7709C471.859 31.6061 471.761 31.4562 471.636 31.3298C471.434 31.1361 471.18 31.005 470.905 30.9524C470.63 30.8997 470.345 30.9279 470.086 31.0334C469.922 31.1022 469.775 31.203 469.651 31.3298C469.529 31.4571 469.433 31.6069 469.368 31.7709C469.298 31.9411 469.256 32.122 469.245 32.3059H472.056C472.043 32.1216 471.999 31.9407 471.926 31.7709Z" fill="#767676"/>
<path d="M474.512 30.368V31.3947C474.669 31.0425 474.919 30.74 475.236 30.5198C475.558 30.3184 475.936 30.2247 476.316 30.2523V31.091C476.035 31.0836 475.755 31.1277 475.49 31.2212C475.273 31.2975 475.083 31.4328 474.939 31.6116C474.795 31.7927 474.692 32.0022 474.635 32.2262C474.56 32.4923 474.518 32.7668 474.512 33.0432V35.2124H473.715V30.368H474.512Z" fill="#767676"/>
<path d="M477.823 30.368V31.091C477.976 30.8064 478.207 30.5715 478.489 30.4139C478.772 30.2563 479.094 30.1826 479.417 30.2017C479.691 30.1926 479.965 30.2394 480.221 30.339C480.419 30.4196 480.597 30.543 480.742 30.7006C480.876 30.8649 480.971 31.0579 481.018 31.2646C481.078 31.5008 481.107 31.7439 481.104 31.9876V35.2052H480.308V31.9081C480.316 31.7762 480.297 31.644 480.252 31.5196C480.207 31.3953 480.137 31.2814 480.047 31.185C479.951 31.0937 479.837 31.0228 479.712 30.9768C479.588 30.9308 479.455 30.9107 479.322 30.9175C479.104 30.9112 478.887 30.9506 478.685 31.0332C478.511 31.1006 478.357 31.2099 478.236 31.3513C478.113 31.4962 478.02 31.6631 477.96 31.843C477.901 32.0399 477.871 32.2447 477.873 32.4504V35.2124H477.069V30.368H477.823Z" fill="#767676"/>
<path d="M483.089 30.368V31.091C483.257 30.8265 483.491 30.6105 483.768 30.4646C484.045 30.3187 484.356 30.248 484.669 30.2595C484.955 30.2567 485.238 30.3211 485.495 30.4475C485.62 30.5148 485.731 30.6064 485.82 30.7169C485.91 30.8274 485.976 30.9546 486.016 31.091C486.177 30.8336 486.402 30.622 486.668 30.4764C486.94 30.3305 487.244 30.2559 487.552 30.2595C487.777 30.2579 488.001 30.2846 488.218 30.3391C488.405 30.3884 488.58 30.4744 488.733 30.5921C488.877 30.7097 488.989 30.8613 489.059 31.0332C489.145 31.2366 489.187 31.4559 489.182 31.6767V35.2919H488.378V32.0165C488.379 31.8732 488.364 31.7301 488.334 31.5899C488.314 31.4657 488.267 31.3473 488.197 31.2429C488.12 31.1435 488.021 31.0641 487.907 31.0115C487.756 30.9483 487.593 30.9187 487.429 30.9247C487.257 30.9162 487.085 30.9419 486.924 31.0002C486.762 31.0586 486.614 31.1484 486.487 31.2646C486.373 31.3863 486.283 31.5295 486.225 31.6859C486.167 31.8423 486.14 32.0088 486.147 32.1756V35.2196H485.379V32.0165C485.38 31.8684 485.365 31.7206 485.335 31.5755C485.312 31.453 485.263 31.337 485.19 31.2356C485.119 31.1366 485.025 31.057 484.915 31.0043C484.77 30.9477 484.614 30.9207 484.459 30.9247C484.249 30.9201 484.042 30.9699 483.857 31.0693C483.702 31.1568 483.565 31.272 483.452 31.4092C483.345 31.5277 483.261 31.665 483.205 31.8141C483.161 31.9272 483.137 32.047 483.133 32.1684V35.2124H482.336V30.368H483.089Z" fill="#767676"/>
<path d="M493.883 34.9089C493.48 35.1941 492.994 35.3389 492.5 35.321C492.15 35.3313 491.801 35.2672 491.478 35.133C491.2 35.013 490.953 34.8327 490.754 34.6052C490.552 34.366 490.401 34.0879 490.312 33.7882C490.212 33.4548 490.158 33.1093 490.152 32.7614C490.145 32.4143 490.202 32.0688 490.319 31.7419C490.426 31.4465 490.588 31.174 490.797 30.9394C490.999 30.7124 491.245 30.5302 491.522 30.4043C491.812 30.2782 492.125 30.2142 492.442 30.2163C492.822 30.2047 493.197 30.2972 493.528 30.4838C493.824 30.6638 494.072 30.9117 494.253 31.2069C494.428 31.486 494.551 31.7948 494.615 32.1179C494.68 32.4244 494.707 32.7377 494.695 33.0507H491.029C491.022 33.2585 491.049 33.4661 491.109 33.6653C491.159 33.8532 491.254 34.0267 491.384 34.1714C491.513 34.3261 491.677 34.4476 491.862 34.5257C492.091 34.6213 492.338 34.6657 492.587 34.6558C492.882 34.6706 493.174 34.5894 493.42 34.4245C493.65 34.2461 493.805 33.9882 493.854 33.7014H494.651C494.554 34.1848 494.28 34.6149 493.883 34.9089ZM493.688 31.7709C493.619 31.6057 493.518 31.4558 493.391 31.3298C493.266 31.2045 493.118 31.104 492.956 31.0334C492.782 30.9592 492.595 30.9223 492.405 30.9249C492.22 30.9204 492.035 30.9541 491.863 31.0237C491.691 31.0934 491.536 31.1976 491.406 31.3298C491.289 31.4608 491.193 31.6097 491.123 31.7709C491.056 31.9422 491.014 32.1225 491 32.3059H493.818C493.805 32.1216 493.761 31.9407 493.688 31.7709Z" fill="#767676"/>
<path d="M496.245 30.368V31.091C496.4 30.8076 496.631 30.5736 496.913 30.4162C497.196 30.2588 497.517 30.1844 497.839 30.2017C498.114 30.1912 498.388 30.238 498.643 30.339C498.844 30.4153 499.023 30.5394 499.165 30.7006C499.3 30.8655 499.396 31.0581 499.447 31.2645C499.501 31.5018 499.528 31.7443 499.527 31.9876V35.2052H498.723V31.9081C498.732 31.7755 498.713 31.6425 498.667 31.5178C498.62 31.3932 498.548 31.2798 498.455 31.185C498.359 31.0933 498.245 31.0223 498.121 30.9762C497.996 30.9302 497.863 30.9102 497.731 30.9175C497.512 30.9112 497.295 30.9506 497.093 31.0332C496.92 31.1024 496.766 31.2114 496.644 31.3513C496.523 31.4962 496.432 31.6632 496.376 31.843C496.314 32.0395 496.282 32.2443 496.282 32.4503V35.2124H495.521V30.368H496.245Z" fill="#767676"/>
<path d="M502.86 30.368V31.091H501.889V34.1278C501.88 34.2023 501.88 34.2775 501.889 34.352C501.9 34.4049 501.931 34.4516 501.976 34.4821C502.031 34.5221 502.096 34.5447 502.164 34.5472H502.468H502.838V35.2702H502.222C502.042 35.2724 501.863 35.2579 501.686 35.2269C501.555 35.2071 501.433 35.1521 501.331 35.0678C501.232 34.9853 501.161 34.8741 501.128 34.7497C501.073 34.572 501.048 34.3861 501.056 34.2001V31.091H500.223V30.368H501.056V28.9219H501.867V30.368H502.86Z" fill="#767676"/>
<path d="M507.416 28.4663V34.4604H510.995V35.2196H506.518V28.4663H507.416Z" fill="#767676"/>
<path d="M511.698 29.4497V28.4663H512.502V29.4497H511.698ZM512.502 30.3679V35.2557H511.698V30.3679H512.502Z" fill="#767676"/>
<path d="M514.509 30.368V31.091C514.662 30.8064 514.893 30.5715 515.175 30.4139C515.458 30.2563 515.779 30.1826 516.102 30.2017C516.377 30.1926 516.651 30.2394 516.907 30.339C517.105 30.4196 517.283 30.543 517.428 30.7006C517.562 30.8649 517.656 31.0579 517.703 31.2646C517.763 31.5008 517.793 31.7439 517.79 31.9876V35.2052H516.979V31.9081C516.987 31.7762 516.968 31.644 516.923 31.5196C516.879 31.3953 516.809 31.2814 516.718 31.185C516.622 31.0937 516.508 31.0228 516.384 30.9768C516.259 30.9308 516.126 30.9107 515.994 30.9175C515.775 30.9112 515.558 30.9506 515.356 31.0332C515.183 31.1006 515.028 31.2099 514.907 31.3513C514.785 31.4962 514.691 31.6631 514.632 31.843C514.572 32.0399 514.543 32.2447 514.545 32.4504V35.2124H513.741V30.368H514.509Z" fill="#767676"/>
<path d="M519.877 28.4663V32.4648L522.108 30.3679H523.188L521.246 32.1466L523.332 35.2557H522.325L520.645 32.7034L519.92 33.4264V35.2774H519.065V28.4663H519.877Z" fill="#767676"/>
<path d="M530.091 29.3919C529.752 29.1646 529.348 29.0506 528.94 29.0665C528.752 29.0651 528.566 29.082 528.382 29.1171C528.207 29.1523 528.04 29.2184 527.889 29.3123C527.748 29.4003 527.631 29.5221 527.549 29.6666C527.459 29.8354 527.416 30.0252 527.426 30.2161C527.419 30.4018 527.483 30.583 527.607 30.7223C527.745 30.8631 527.914 30.9718 528.099 31.0404C528.334 31.1306 528.576 31.1984 528.824 31.2429L529.613 31.4164C529.881 31.4815 530.149 31.5538 530.41 31.6405C530.667 31.7214 530.911 31.8382 531.135 31.9876C531.337 32.1301 531.505 32.3153 531.627 32.5299C531.756 32.8069 531.818 33.1101 531.808 33.4153C531.798 33.7204 531.716 34.019 531.569 34.2869C531.411 34.5384 531.198 34.751 530.946 34.9087C530.687 35.0762 530.4 35.1962 530.099 35.263C529.792 35.3347 529.479 35.3711 529.164 35.3715C528.802 35.3721 528.441 35.3234 528.092 35.2269C527.771 35.141 527.469 34.9964 527.201 34.8003C526.947 34.6068 526.74 34.3599 526.592 34.0772C526.441 33.7436 526.367 33.3804 526.375 33.0143H527.223C527.218 33.2653 527.275 33.5136 527.389 33.7374C527.493 33.9376 527.642 34.1109 527.824 34.2435C528.013 34.3799 528.227 34.4781 528.454 34.5327C528.691 34.5955 528.934 34.6272 529.179 34.6267C529.385 34.6274 529.591 34.6105 529.794 34.5761C529.986 34.5361 530.171 34.4704 530.345 34.3809C530.508 34.2911 530.645 34.1618 530.744 34.0049C530.852 33.8239 530.904 33.6153 530.896 33.4048C530.905 33.1978 530.838 32.9945 530.707 32.8336C530.572 32.6796 530.404 32.5584 530.215 32.4793C529.982 32.3779 529.739 32.3027 529.49 32.2551L528.701 32.0816C528.433 32.0238 528.172 31.9514 527.911 31.8719C527.656 31.8032 527.412 31.6985 527.187 31.561C526.986 31.4347 526.818 31.264 526.694 31.0621C526.56 30.8269 526.495 30.5588 526.506 30.2884C526.497 29.9946 526.562 29.7032 526.697 29.4415C526.831 29.1798 527.029 28.9563 527.273 28.7917C527.511 28.6269 527.776 28.5046 528.056 28.4302C528.351 28.3517 528.656 28.3128 528.961 28.3145C529.287 28.313 529.611 28.3543 529.925 28.4374C530.21 28.5111 530.477 28.6442 530.707 28.8279C530.935 29.0035 531.116 29.2318 531.236 29.4931C531.375 29.795 531.449 30.1226 531.453 30.4547H530.599C530.596 30.2515 530.55 30.0511 530.462 29.8676C530.375 29.6841 530.248 29.5218 530.091 29.3919Z" fill="#767676"/>
<path d="M533.511 28.4663V31.0476C533.572 30.9024 533.663 30.7718 533.779 30.6644C533.893 30.5601 534.022 30.4747 534.163 30.4113C534.304 30.3449 534.452 30.2963 534.605 30.2667C534.752 30.2324 534.903 30.2154 535.054 30.2161C535.329 30.2056 535.603 30.2524 535.858 30.3535C536.059 30.4298 536.238 30.5539 536.38 30.715C536.514 30.88 536.611 31.0725 536.662 31.279C536.716 31.5162 536.743 31.7588 536.742 32.002V35.2196H535.938V31.908C535.947 31.7754 535.927 31.6424 535.879 31.5182C535.832 31.3939 535.758 31.2813 535.663 31.188C535.569 31.0947 535.455 31.0229 535.33 30.9774C535.204 30.932 535.071 30.914 534.938 30.9247C534.72 30.9184 534.503 30.9578 534.301 31.0404C534.128 31.1096 533.974 31.2186 533.851 31.3585C533.729 31.5019 533.637 31.6694 533.583 31.8502C533.518 32.0458 533.486 32.2512 533.489 32.4575V35.2196H532.685V28.4663H533.511Z" fill="#767676"/>
<path d="M537.857 31.7706C537.952 31.4723 538.108 31.1967 538.314 30.9608C538.513 30.7301 538.76 30.5451 539.038 30.4185C539.695 30.1489 540.432 30.1489 541.088 30.4185C541.366 30.5453 541.613 30.7303 541.813 30.9608C542.019 31.1967 542.174 31.4723 542.269 31.7706C542.373 32.0979 542.424 32.4396 542.421 32.7829C542.424 33.1214 542.372 33.4582 542.269 33.7807C542.174 34.079 542.019 34.3546 541.813 34.5905C541.615 34.821 541.367 35.0039 541.088 35.1255C540.43 35.3861 539.697 35.3861 539.038 35.1255C538.759 35.0039 538.512 34.821 538.314 34.5905C538.108 34.3546 537.952 34.079 537.857 33.7807C537.76 33.457 537.711 33.1208 537.712 32.7829C537.711 32.4402 537.76 32.0991 537.857 31.7706ZM538.683 33.571C538.747 33.7838 538.858 33.9793 539.009 34.1422C539.141 34.2966 539.307 34.418 539.495 34.4965C539.681 34.5808 539.884 34.6228 540.089 34.6194C540.291 34.6227 540.491 34.5807 540.675 34.4965C540.865 34.4183 541.034 34.2969 541.168 34.1422C541.313 33.975 541.424 33.7809 541.494 33.571C541.648 33.0544 541.648 32.5041 541.494 31.9875C541.422 31.7762 541.312 31.5801 541.168 31.4091C541.031 31.255 540.864 31.1317 540.675 31.0475C540.491 30.9662 540.291 30.9243 540.089 30.9246C539.884 30.925 539.682 30.9668 539.495 31.0475C539.308 31.1312 539.143 31.2546 539.009 31.4091C538.86 31.5763 538.749 31.7736 538.683 31.9875C538.519 32.5026 538.519 33.0559 538.683 33.571Z" fill="#767676"/>
<path d="M544.138 30.3679V31.3946C544.298 31.044 544.548 30.742 544.863 30.5197C545.186 30.3202 545.563 30.2266 545.942 30.2522V31.0909C545.664 31.084 545.386 31.1282 545.124 31.2211C544.907 31.2975 544.717 31.4327 544.573 31.6115C544.429 31.7926 544.326 32.0021 544.269 32.2261C544.202 32.5005 544.17 32.7824 544.175 33.0648V35.234H543.371V30.3679H544.138Z" fill="#767676"/>
<path d="M548.659 30.368V31.091H547.681V34.1278C547.668 34.202 547.668 34.2778 547.681 34.352C547.692 34.4049 547.723 34.4516 547.768 34.4821C547.823 34.5221 547.888 34.5447 547.956 34.5472H548.26H548.63V35.2702H548.014C547.834 35.2724 547.655 35.2579 547.478 35.2269C547.347 35.2071 547.225 35.1521 547.123 35.0678C547.033 34.9666 546.975 34.8407 546.956 34.7063C546.907 34.5274 546.885 34.3421 546.891 34.1568V31.0476H546.058V30.368H546.891V28.9219H547.681V30.368H548.659Z" fill="#767676"/>
<path d="M553.02 34.9089C552.617 35.1941 552.131 35.3389 551.636 35.321C551.287 35.3313 550.938 35.2672 550.615 35.133C550.336 35.0148 550.088 34.8342 549.891 34.6052C549.689 34.366 549.538 34.0879 549.449 33.7882C549.35 33.4543 549.294 33.1093 549.282 32.7614C549.277 32.4139 549.336 32.0683 549.456 31.7419C549.563 31.4465 549.725 31.174 549.934 30.9394C550.135 30.7124 550.382 30.5302 550.658 30.4043C550.948 30.2776 551.262 30.2136 551.579 30.2163C551.958 30.2047 552.334 30.2972 552.665 30.4838C552.96 30.6655 553.208 30.913 553.39 31.2069C553.565 31.486 553.688 31.7948 553.752 32.1179C553.817 32.4244 553.843 32.7377 553.832 33.0507H550.166C550.159 33.2585 550.186 33.4661 550.246 33.6653C550.297 33.8516 550.388 34.0244 550.514 34.1714C550.646 34.3247 550.812 34.4458 550.999 34.5257C551.228 34.6213 551.475 34.6657 551.723 34.6558C552.019 34.6706 552.311 34.5894 552.557 34.4245C552.787 34.2461 552.942 33.9882 552.991 33.7014H553.788C553.69 34.1848 553.417 34.6149 553.02 34.9089ZM552.825 31.7709C552.756 31.6057 552.655 31.4558 552.528 31.3298C552.403 31.2045 552.255 31.104 552.093 31.0334C551.919 30.96 551.731 30.9231 551.542 30.9249C551.357 30.9204 551.172 30.9541 551 31.0237C550.828 31.0934 550.673 31.1976 550.543 31.3298C550.298 31.5986 550.155 31.9435 550.137 32.3059H552.948C552.94 32.1215 552.899 31.94 552.825 31.7709Z" fill="#767676"/>
<path d="M555.396 30.368V31.091C555.551 30.8076 555.782 30.5736 556.064 30.4162C556.346 30.2588 556.667 30.1844 556.99 30.2017C557.277 30.1978 557.56 30.2545 557.823 30.368C558.024 30.4443 558.203 30.5684 558.345 30.7295C558.48 30.8945 558.576 31.087 558.627 31.2935C558.681 31.5307 558.708 31.7733 558.707 32.0165V35.2341H557.903V31.9081C557.912 31.7754 557.892 31.6424 557.844 31.5182C557.797 31.394 557.724 31.2813 557.629 31.188C557.534 31.0947 557.42 31.0229 557.295 30.9775C557.17 30.932 557.036 30.914 556.903 30.9247C556.685 30.9185 556.468 30.9579 556.266 31.0404C556.092 31.1079 555.938 31.2171 555.817 31.3585C555.694 31.502 555.603 31.6695 555.549 31.8502C555.483 32.0459 555.451 32.2513 555.454 32.4576V35.2196H554.636V30.368H555.396Z" fill="#767676"/>
<path d="M563.372 34.9089C562.969 35.1941 562.482 35.3389 561.988 35.321C561.638 35.3313 561.29 35.2672 560.967 35.133C560.689 35.013 560.442 34.8327 560.243 34.6052C560.041 34.366 559.89 34.0879 559.801 33.7882C559.701 33.4548 559.647 33.1093 559.641 32.7614C559.634 32.4143 559.691 32.0688 559.808 31.7419C559.915 31.4465 560.077 31.174 560.286 30.9394C560.487 30.7124 560.734 30.5302 561.01 30.4043C561.301 30.2782 561.614 30.2142 561.93 30.2163C562.31 30.2047 562.686 30.2972 563.017 30.4838C563.313 30.6638 563.561 30.9117 563.742 31.2069C563.917 31.486 564.04 31.7948 564.104 32.1179C564.169 32.4244 564.195 32.7377 564.184 33.0507H560.518C560.511 33.2585 560.538 33.4661 560.598 33.6653C560.648 33.8532 560.742 34.0267 560.873 34.1714C561.001 34.3261 561.165 34.4476 561.351 34.5257C561.58 34.6213 561.827 34.6657 562.075 34.6558C562.371 34.6706 562.663 34.5894 562.909 34.4245C563.139 34.2461 563.294 33.9882 563.343 33.7014H564.14C564.042 34.1848 563.769 34.6149 563.372 34.9089ZM563.177 31.7709C563.108 31.6057 563.007 31.4558 562.879 31.3298C562.755 31.2045 562.607 31.104 562.445 31.0334C562.271 30.9592 562.083 30.9223 561.894 30.9249C561.709 30.9204 561.524 30.9541 561.352 31.0237C561.18 31.0934 561.024 31.1976 560.895 31.3298C560.777 31.4608 560.682 31.6097 560.612 31.7709C560.545 31.9422 560.503 32.1225 560.489 32.3059H563.307C563.294 32.1216 563.25 31.9407 563.177 31.7709Z" fill="#767676"/>
<path d="M565.719 30.3677V31.3944C565.879 31.0437 566.129 30.7418 566.444 30.5195C566.767 30.3191 567.144 30.2254 567.523 30.252V31.0907C567.243 31.0846 566.963 31.1286 566.697 31.2209C566.483 31.3011 566.293 31.4356 566.147 31.6113C566.003 31.7912 565.901 32.0013 565.85 32.2259C565.797 32.4948 565.777 32.7692 565.792 33.0429V35.2121H564.988V30.3677H565.719Z" fill="#767676"/>
<path d="M422.982 49.1674C422.763 49.3662 422.505 49.5181 422.225 49.6139C421.945 49.7096 421.648 49.7472 421.352 49.7242C421.13 49.7248 420.909 49.7005 420.693 49.6519C420.478 49.611 420.272 49.5327 420.084 49.4205C419.904 49.3182 419.75 49.1745 419.635 49.0011C419.508 48.8157 419.44 48.5966 419.44 48.3721H420.164C420.161 48.5003 420.207 48.6249 420.295 48.7191C420.374 48.8153 420.473 48.894 420.584 48.9505C420.706 49.01 420.835 49.0537 420.968 49.0807C421.099 49.0907 421.229 49.0907 421.359 49.0807C421.579 49.0877 421.798 49.0431 421.997 48.9505C422.167 48.8698 422.314 48.748 422.424 48.5962C422.544 48.4323 422.628 48.2451 422.671 48.0467C422.723 47.8094 422.748 47.5667 422.743 47.3237V47.02C422.621 47.2901 422.412 47.5116 422.149 47.649C421.885 47.7782 421.595 47.845 421.302 47.8442C420.989 47.8536 420.679 47.7892 420.396 47.6563C420.149 47.5399 419.931 47.3694 419.758 47.1574C419.584 46.9427 419.451 46.6975 419.367 46.4343C419.279 46.1437 419.235 45.8414 419.237 45.5377C419.238 45.2524 419.275 44.9682 419.346 44.6918C419.413 44.4112 419.533 44.1461 419.701 43.9109C419.874 43.6669 420.102 43.4664 420.367 43.3252C420.678 43.1651 421.025 43.0879 421.374 43.101C421.653 43.0997 421.929 43.1641 422.178 43.289C422.423 43.4202 422.622 43.6217 422.75 43.8675V43.2095H423.475V47.4321C423.535 48.0518 423.36 48.6715 422.982 49.1674ZM422.012 47.0851C422.183 46.9871 422.328 46.8479 422.432 46.6801C422.543 46.5021 422.624 46.3065 422.671 46.1017C422.772 45.6933 422.772 45.2664 422.671 44.8581C422.625 44.6699 422.547 44.4913 422.439 44.3302C422.332 44.1604 422.182 44.0224 422.004 43.9308C421.825 43.8392 421.625 43.7973 421.425 43.8096C421.221 43.8001 421.019 43.8414 420.835 43.9298C420.652 44.0182 420.493 44.1509 420.374 44.3158C420.279 44.4741 420.213 44.6479 420.179 44.8291C420.126 45.0371 420.099 45.2509 420.099 45.4654C420.099 45.6744 420.121 45.8828 420.164 46.0872C420.199 46.2888 420.27 46.4823 420.374 46.6584C420.475 46.8239 420.614 46.9628 420.78 47.0634C420.968 47.1759 421.184 47.2312 421.403 47.2224C421.618 47.2192 421.828 47.1593 422.012 47.0489V47.0851Z" fill="#767676"/>
<path d="M424.525 44.5685C424.616 44.2861 424.764 44.0252 424.96 43.8021C425.16 43.5791 425.407 43.4037 425.684 43.2888C426.307 43.0379 427.003 43.0379 427.626 43.2888C427.901 43.4058 428.148 43.5809 428.35 43.8021C428.543 44.0259 428.689 44.2867 428.777 44.5685C428.861 44.8893 428.892 45.2212 428.872 45.5519C428.873 45.8732 428.824 46.1928 428.727 46.4991C428.633 46.7656 428.488 47.0112 428.299 47.2221C428.098 47.4434 427.851 47.6185 427.575 47.7355C426.95 47.9763 426.258 47.9763 425.633 47.7355C425.357 47.6206 425.109 47.4451 424.909 47.2221C424.718 47.0118 424.57 46.7662 424.474 46.4991C424.379 46.1924 424.333 45.8728 424.337 45.5519C424.346 45.2162 424.41 44.8842 424.525 44.5685ZM425.307 46.2749C425.375 46.474 425.481 46.6581 425.619 46.8172C425.746 46.9624 425.904 47.0763 426.083 47.1498C426.259 47.2263 426.448 47.2657 426.64 47.2657C426.832 47.2657 427.022 47.2263 427.198 47.1498C427.374 47.0725 427.532 46.9592 427.662 46.8172C427.8 46.6595 427.903 46.4748 427.966 46.2749C428.042 46.0414 428.081 45.7975 428.082 45.5519C428.08 45.3064 428.041 45.0626 427.966 44.8288C427.903 44.629 427.8 44.4443 427.662 44.2866C427.535 44.1402 427.376 44.0241 427.198 43.9467C427.022 43.8703 426.832 43.8309 426.64 43.8309C426.448 43.8309 426.259 43.8703 426.083 43.9467C425.902 44.0204 425.743 44.1371 425.619 44.2866C425.481 44.4457 425.375 44.6298 425.307 44.8288C425.235 45.063 425.198 45.3068 425.199 45.5519C425.197 45.7971 425.234 46.041 425.307 46.2749Z" fill="#767676"/>
<path d="M430.944 46.8315V47.8221H429.951V46.8315H430.944Z" fill="#767676"/>
<path d="M435.74 49.1672C435.52 49.366 435.263 49.518 434.982 49.6137C434.702 49.7094 434.405 49.747 434.11 49.724C433.888 49.7246 433.667 49.7003 433.45 49.6517C433.235 49.6108 433.029 49.5325 432.842 49.4203C432.661 49.318 432.507 49.1743 432.393 49.0009C432.266 48.8155 432.198 48.5964 432.197 48.3719H432.922C432.919 48.4987 432.963 48.6221 433.045 48.7189C433.129 48.8137 433.229 48.8921 433.342 48.9503C433.464 49.0098 433.593 49.0535 433.726 49.0805C433.856 49.0905 433.987 49.0905 434.117 49.0805C434.337 49.0875 434.555 49.0429 434.754 48.9503C434.924 48.8696 435.071 48.7478 435.182 48.596C435.302 48.4321 435.386 48.2449 435.428 48.0465C435.481 47.8092 435.505 47.5665 435.501 47.3235V47.0198C435.379 47.2899 435.17 47.5114 434.907 47.6488C434.643 47.778 434.353 47.8448 434.059 47.8441C433.746 47.8534 433.436 47.789 433.153 47.6561C432.905 47.538 432.685 47.3678 432.509 47.1572C432.339 46.9405 432.209 46.6957 432.125 46.4341C432.036 46.1435 431.992 45.8412 431.994 45.5375C431.996 45.2522 432.032 44.968 432.103 44.6916C432.17 44.411 432.291 44.1459 432.458 43.9107C432.631 43.6685 432.856 43.4684 433.117 43.325C433.431 43.1658 433.78 43.0887 434.131 43.1008C434.41 43.0995 434.686 43.1639 434.935 43.2888C435.18 43.42 435.379 43.6215 435.508 43.8673V43.2093H436.232V47.4319C436.293 48.0516 436.117 48.6713 435.74 49.1672ZM434.769 47.0849C434.939 46.9848 435.083 46.8461 435.189 46.6799C435.301 46.5019 435.381 46.3063 435.428 46.1015C435.52 45.692 435.52 45.2673 435.428 44.8579C435.379 44.6708 435.301 44.4926 435.196 44.33C435.09 44.1602 434.939 44.0222 434.761 43.9306C434.582 43.839 434.382 43.7971 434.182 43.8094C433.964 43.8018 433.747 43.8491 433.552 43.9468C433.386 44.0376 433.243 44.1634 433.132 44.3156C433.017 44.477 432.933 44.6585 432.885 44.8506C432.835 45.0589 432.811 45.2726 432.813 45.4869C432.813 45.6959 432.835 45.9043 432.878 46.1087C432.913 46.3102 432.984 46.5038 433.088 46.6799C433.189 46.8454 433.328 46.9843 433.494 47.0849C433.682 47.1974 433.898 47.2527 434.117 47.2439C434.348 47.2421 434.575 47.1743 434.769 47.0487V47.0849Z" fill="#767676"/>
<path d="M437.29 44.5685C437.381 44.2861 437.528 44.0252 437.724 43.8021C437.923 43.5774 438.171 43.4017 438.449 43.2888C439.072 43.0379 439.768 43.0379 440.39 43.2888C440.668 43.4028 440.915 43.5784 441.115 43.8021C441.314 44.0232 441.462 44.2847 441.549 44.5685C441.647 44.8773 441.696 45.1993 441.694 45.523C441.696 45.8443 441.647 46.1639 441.549 46.4702C441.455 46.7382 441.308 46.9843 441.115 47.1932C440.915 47.417 440.668 47.5925 440.39 47.7066C439.766 47.9473 439.073 47.9473 438.449 47.7066C438.171 47.5937 437.923 47.4179 437.724 47.1932C437.533 46.9829 437.386 46.7372 437.29 46.4702C437.195 46.1635 437.148 45.8439 437.152 45.523C437.148 45.1997 437.195 44.8777 437.29 44.5685ZM438.065 46.2749C438.133 46.474 438.239 46.6581 438.376 46.8172C438.502 46.9606 438.658 47.0742 438.833 47.1498C439.011 47.2282 439.203 47.2677 439.398 47.2655C439.59 47.2678 439.78 47.2283 439.956 47.1498C440.131 47.0742 440.287 46.9606 440.412 46.8172C440.552 46.6599 440.658 46.4752 440.724 46.2749C440.797 46.041 440.834 45.7971 440.832 45.5519C440.833 45.3068 440.796 45.063 440.724 44.8288C440.658 44.6286 440.552 44.4439 440.412 44.2866C440.289 44.1389 440.133 44.0224 439.956 43.9467C439.78 43.8683 439.59 43.8288 439.398 43.831C439.203 43.8289 439.011 43.8683 438.833 43.9467C438.656 44.0224 438.499 44.1389 438.376 44.2866C438.239 44.4457 438.133 44.6298 438.065 44.8288C437.992 45.063 437.956 45.3068 437.956 45.5519C437.955 45.7971 437.991 46.041 438.065 46.2749Z" fill="#767676"/>
<path d="M443.802 47.8225L442.085 43.2095H442.94L444.237 47.0561L445.534 43.2095H446.331L444.643 47.8225H443.802Z" fill="#767676"/>
<path d="M447.512 46.8315V47.8221H446.52V46.8315H447.512Z" fill="#767676"/>
<path d="M449.417 46.7954C449.488 46.9078 449.585 47.0018 449.7 47.0702C449.821 47.1387 449.953 47.1875 450.091 47.2148C450.239 47.2439 450.389 47.2584 450.54 47.2582H450.917C451.041 47.2408 451.163 47.2068 451.279 47.157C451.388 47.1131 451.483 47.0407 451.554 46.9473C451.63 46.845 451.668 46.72 451.663 46.593C451.666 46.5064 451.647 46.4204 451.608 46.3432C451.569 46.266 451.51 46.2001 451.438 46.1519C451.267 46.0403 451.078 45.9573 450.88 45.9061C450.656 45.841 450.409 45.7832 450.156 45.7326C449.909 45.6837 449.666 45.6136 449.431 45.5229C449.219 45.4356 449.028 45.3022 448.874 45.1324C448.707 44.9302 448.626 44.6705 448.649 44.4094C448.642 44.2003 448.698 43.994 448.808 43.8165C448.908 43.6528 449.045 43.5143 449.207 43.4116C449.378 43.3016 449.567 43.221 449.765 43.173C449.967 43.1275 450.173 43.1033 450.381 43.1007C450.624 43.0992 450.866 43.1209 451.105 43.1657C451.311 43.2054 451.508 43.2839 451.684 43.3971C451.858 43.5096 452 43.6638 452.097 43.8454C452.21 44.07 452.27 44.3173 452.271 44.5684H451.547C451.542 44.4373 451.502 44.3098 451.431 44.1997C451.369 44.1016 451.285 44.0198 451.185 43.9611C451.078 43.9016 450.963 43.8578 450.844 43.8309C450.723 43.8042 450.599 43.7921 450.475 43.7948H450.134C450.024 43.8131 449.917 43.8446 449.815 43.8888C449.725 43.9304 449.646 43.9923 449.584 44.0695C449.517 44.1508 449.483 44.254 449.489 44.3588C449.489 44.4202 449.501 44.4811 449.526 44.5373C449.551 44.5934 449.588 44.6435 449.634 44.6841C449.735 44.7777 449.854 44.8513 449.982 44.901C450.14 44.9608 450.302 45.0091 450.467 45.0457L451.004 45.1613C451.192 45.2047 451.38 45.2553 451.561 45.3132C451.735 45.3662 451.899 45.4467 452.047 45.5518C452.184 45.651 452.299 45.7763 452.387 45.9205C452.479 46.0913 452.524 46.2834 452.518 46.4773C452.532 46.7301 452.472 46.9817 452.344 47.2003C452.23 47.384 452.073 47.5378 451.887 47.6486C451.689 47.7611 451.474 47.8416 451.25 47.8872C451.011 47.9314 450.768 47.9532 450.525 47.9523C450.282 47.9515 450.039 47.9249 449.801 47.8728C449.581 47.8224 449.372 47.7317 449.185 47.6053C449.004 47.4829 448.855 47.3193 448.751 47.128C448.641 46.9025 448.581 46.6557 448.577 46.405H449.337C449.33 46.5398 449.358 46.6741 449.417 46.7954Z" fill="#767676"/>
<path d="M456.777 49.1672C456.558 49.366 456.3 49.518 456.02 49.6137C455.74 49.7094 455.443 49.747 455.147 49.724C454.926 49.7242 454.704 49.6999 454.488 49.6517C454.274 49.6083 454.068 49.5301 453.88 49.4203C453.7 49.3159 453.547 49.1726 453.43 49.0009C453.31 48.8126 453.242 48.5953 453.235 48.3719H453.959C453.962 48.4989 454.008 48.6212 454.09 48.719C454.172 48.8153 454.273 48.894 454.387 48.9503C454.506 49.0098 454.633 49.0535 454.763 49.0805C454.894 49.0905 455.024 49.0905 455.155 49.0805C455.374 49.0875 455.593 49.0429 455.792 48.9503C455.963 48.8718 456.111 48.7496 456.219 48.596C456.339 48.4321 456.423 48.2449 456.466 48.0465C456.521 47.8095 456.548 47.5668 456.545 47.3235V47.0198C456.426 47.2916 456.216 47.5138 455.951 47.6488C455.69 47.7787 455.403 47.8456 455.111 47.8441C454.798 47.8543 454.488 47.7898 454.205 47.6561C453.956 47.54 453.736 47.3695 453.561 47.1572C453.386 46.9425 453.254 46.6973 453.17 46.4341C453.081 46.1435 453.037 45.8412 453.039 45.5375C453.041 45.2522 453.077 44.9681 453.148 44.6916C453.215 44.411 453.336 44.1459 453.503 43.9107C453.679 43.6684 453.906 43.4683 454.169 43.325C454.48 43.1658 454.827 43.0887 455.176 43.1009C455.458 43.0987 455.736 43.1631 455.988 43.2888C456.23 43.4231 456.428 43.6238 456.56 43.8673V43.2093H457.284V47.4319C457.344 48.0539 457.163 48.6751 456.777 49.1672ZM455.807 47.0849C455.979 46.9851 456.125 46.8464 456.234 46.68C456.34 46.5 456.418 46.3049 456.466 46.1015C456.517 45.8908 456.544 45.6749 456.545 45.458C456.547 45.2557 456.522 45.0541 456.473 44.8579C456.427 44.6712 456.351 44.493 456.248 44.33C456.14 44.1739 455.999 44.0432 455.835 43.9468C455.648 43.849 455.438 43.8017 455.227 43.8094C455.011 43.8027 454.797 43.85 454.604 43.9468C454.435 44.0355 454.289 44.1616 454.177 44.3156C454.064 44.4774 453.983 44.6589 453.937 44.8506C453.885 45.0586 453.858 45.2724 453.858 45.4869C453.858 45.6959 453.88 45.9043 453.923 46.1087C453.964 46.3097 454.037 46.5027 454.14 46.68C454.238 46.8451 454.375 46.9841 454.539 47.0849C454.729 47.1984 454.948 47.2537 455.169 47.2439C455.396 47.2409 455.617 47.1732 455.807 47.0487V47.0849Z" fill="#767676"/>
<path d="M392.381 28.4593L398.996 30.2163C399.116 30.2488 399.226 30.3119 399.315 30.3993C399.404 30.4867 399.468 30.5955 399.503 30.7152L401.321 36.9334V40.903C401.321 41.5415 401.067 42.154 400.614 42.6055C400.162 43.057 399.548 43.3107 398.909 43.3107H384.42C383.142 43.305 381.918 42.7943 381.017 41.8905C380.115 40.9867 379.609 39.7633 379.609 38.488V20.5202C379.611 19.2424 380.121 18.0175 381.027 17.1147C381.933 16.2118 383.161 15.7047 384.441 15.7047H396.489C397.125 15.7009 397.756 15.8226 398.344 16.0629C398.933 16.3032 399.468 16.6573 399.919 17.1048C400.37 17.5524 400.728 18.0845 400.973 18.6707C401.217 19.2568 401.343 19.8854 401.343 20.5202V22.082H388.404C387.764 22.082 387.149 22.3354 386.696 22.7867C386.242 23.2381 385.986 23.8505 385.984 24.4897V36.2754C385.984 36.4672 386.061 36.6511 386.197 36.7867C386.333 36.9223 386.517 36.9985 386.709 36.9985H391.657C391.849 36.9985 392.033 36.9223 392.169 36.7867C392.305 36.6511 392.381 36.4672 392.381 36.2754V28.4593Z" fill="#384A51"/>
<path d="M390.817 49.63C389.553 49.6281 388.342 49.1262 387.448 48.2344C386.555 47.3426 386.052 46.1336 386.05 44.8723V43.3828H398.909C399.565 43.3828 400.194 43.1233 400.658 42.6611C401.122 42.1989 401.384 41.5718 401.386 40.9172V29.1822C401.386 28.9775 401.306 28.7811 401.162 28.635C401.019 28.489 400.823 28.405 400.618 28.4013H392.316V36.2753C392.316 36.4504 392.247 36.6186 392.124 36.7431C392 36.8676 391.833 36.9386 391.657 36.9405H386.709C386.534 36.9386 386.366 36.8676 386.242 36.7431C386.119 36.6186 386.05 36.4504 386.05 36.2753V24.4896C386.052 23.8669 386.3 23.2703 386.741 22.83C387.183 22.3897 387.78 22.1416 388.404 22.1396H403.364C404.63 22.1416 405.843 22.6442 406.738 23.5374C407.633 24.4305 408.136 25.6414 408.138 26.9045V44.8723C408.136 46.1348 407.632 47.3449 406.737 48.2369C405.842 49.129 404.629 49.63 403.364 49.63H390.817Z" fill="#8CA6AD"/>
<path d="M403.364 22.2045C404.613 22.2045 405.811 22.6996 406.694 23.581C407.577 24.4624 408.073 25.6578 408.073 26.9043V44.8721C408.071 46.1173 407.574 47.3109 406.691 48.1907C405.809 49.0705 404.612 49.5647 403.364 49.5647H390.817C389.569 49.5647 388.373 49.0705 387.49 48.1907C386.607 47.3109 386.11 46.1173 386.108 44.8721V43.426H398.909C399.581 43.426 400.226 43.1593 400.702 42.6848C401.177 42.2102 401.445 41.5665 401.445 40.8953V29.1819C401.445 28.9612 401.358 28.7493 401.204 28.5912C401.05 28.4332 400.84 28.3416 400.619 28.3359H392.259V36.2895C392.259 36.4486 392.195 36.6013 392.082 36.7138C391.97 36.8264 391.817 36.8896 391.657 36.8896H386.709C386.55 36.8896 386.397 36.8264 386.284 36.7138C386.171 36.6013 386.108 36.4486 386.108 36.2895V24.4893C386.11 23.8827 386.353 23.3015 386.783 22.8732C387.214 22.445 387.797 22.2045 388.405 22.2045H403.364ZM403.364 22.0815H388.405C387.764 22.0815 387.15 22.335 386.696 22.7863C386.243 23.2377 385.987 23.8501 385.985 24.4893V36.275C385.985 36.4668 386.061 36.6507 386.197 36.7863C386.333 36.9219 386.517 36.9981 386.709 36.9981H391.657C391.849 36.9981 392.034 36.9219 392.17 36.7863C392.305 36.6507 392.382 36.4668 392.382 36.275V28.4588H400.619C400.811 28.4588 400.995 28.535 401.131 28.6706C401.267 28.8062 401.343 28.9901 401.343 29.1819V40.9025C401.343 41.2187 401.281 41.5318 401.159 41.8239C401.038 42.1161 400.861 42.3815 400.637 42.6051C400.413 42.8287 400.147 43.006 399.854 43.127C399.561 43.248 399.247 43.3103 398.931 43.3103H385.985V44.8721C385.987 46.1499 386.497 47.3747 387.403 48.2776C388.309 49.1805 389.537 49.6876 390.817 49.6876H403.364C403.999 49.6885 404.627 49.5647 405.213 49.3231C405.799 49.0815 406.332 48.727 406.781 48.2797C407.229 47.8325 407.585 47.3013 407.828 46.7166C408.071 46.1318 408.196 45.5051 408.196 44.8721V26.9043C408.197 26.2707 408.073 25.6431 407.83 25.0576C407.588 24.472 407.232 23.94 406.783 23.492C406.334 23.044 405.801 22.6887 405.215 22.4467C404.628 22.2047 403.999 22.0806 403.364 22.0815Z" fill="#7F9DA5"/>
<path d="M583.128 74.8862H451.844C443.497 74.8862 435.491 78.1937 429.586 84.0819C423.681 89.9701 420.36 97.9573 420.352 106.288C420.352 110.416 421.167 114.503 422.749 118.316C424.332 122.13 426.651 125.595 429.576 128.513C435.482 134.408 443.492 137.719 451.844 137.719H459.813L469.643 147.531L479.474 137.719H583.07C587.21 137.727 591.312 136.919 595.139 135.343C598.966 133.767 602.445 131.453 605.375 128.534C608.306 125.614 610.631 122.147 612.217 118.33C613.803 114.513 614.619 110.421 614.619 106.288C614.612 97.9573 611.291 89.9701 605.386 84.0819C599.481 78.1937 591.475 74.8862 583.128 74.8862Z" fill="#384A51" stroke="black" stroke-linecap="round" stroke-linejoin="round"/>
<path d="M451.902 94.8203H584.722" stroke="#F7C5A8" stroke-linecap="round" stroke-linejoin="round"/>
<path d="M451.902 106.23H584.722" stroke="#F7C5A8" stroke-linecap="round" stroke-linejoin="round"/>
<path d="M451.902 117.647H584.722" stroke="#F7C5A8" stroke-linecap="round" stroke-linejoin="round"/>
<path d="M220.768 148.746L225.998 143.923L255.164 170.914L251.499 175.831L220.768 148.746Z" fill="#8CA6AD"/>
<path fill-rule="evenodd" clip-rule="evenodd" d="M237.568 192.613C238.379 199.518 239.147 218.397 239.248 240.074C239.306 252.727 237.285 278.352 233.192 310.723L221.354 310.636C216.841 269.827 213.907 236.574 212.545 217.11C210.43 223.444 207.981 230.508 205.301 237.883C198.882 255.757 180.018 296.971 174.15 307.296C170.477 313.767 161.986 308.106 163.616 302.372C165.246 296.638 188.247 199.778 196.586 181.868C199.368 175.889 213.588 175.954 218.609 183.38C225.846 180.487 236.293 181.76 237.568 192.613Z" fill="#B28B67"/>
<path fill-rule="evenodd" clip-rule="evenodd" d="M213.748 290.579C214.255 284.664 208.293 210.154 210.003 190.306C210.727 181.565 240.48 176.518 242.494 193.133L239.024 292.791L213.748 290.579Z" fill="#8CA6AD"/>
<path fill-rule="evenodd" clip-rule="evenodd" d="M235.256 307.932C235.074 307.539 234.743 307.234 234.335 307.084C233.928 306.934 233.478 306.95 233.083 307.13C231.509 307.959 229.785 308.466 228.012 308.619C226.505 308.619 224.544 308.062 222.129 306.949L220.731 303.587C220.687 303.488 220.623 303.399 220.544 303.325C220.465 303.25 220.372 303.192 220.27 303.154C220.168 303.116 220.06 303.098 219.952 303.102C219.843 303.105 219.736 303.13 219.637 303.175L198.027 312.842C196.303 313.102 194.144 313.399 191.507 313.724C188.87 314.049 188.211 316.204 189.428 320.188L235.966 320.087C236.38 317.94 236.622 315.764 236.691 313.579C236.533 311.663 236.063 309.785 235.3 308.019L235.256 307.932Z" fill="#384A51"/>
<path fill-rule="evenodd" clip-rule="evenodd" d="M178.359 303.84C178.361 303.346 178.167 302.872 177.819 302.521C177.471 302.17 176.999 301.971 176.504 301.967C173.809 301.967 171.839 301.649 170.578 301.063C169.028 300.34 167.289 298.829 165.348 296.53L165.536 292.408C165.538 292.286 165.516 292.164 165.47 292.05C165.425 291.936 165.358 291.832 165.273 291.744C165.187 291.656 165.085 291.586 164.973 291.538C164.86 291.489 164.739 291.463 164.616 291.461L137.812 291.02C135.913 290.456 133.559 289.719 130.726 288.8C127.894 287.882 126.148 289.762 125.481 294.44L173.295 316.652C174.755 314.653 176.051 312.54 177.171 310.333C177.757 309.082 178.17 306.97 178.395 304.006C178.389 303.949 178.376 303.894 178.359 303.84Z" fill="#384A51"/>
<path fill-rule="evenodd" clip-rule="evenodd" d="M209.952 174.125C231.526 179.656 265.886 227.153 291.177 239.778C324.863 256.596 338.939 288.678 338.939 288.678C334.991 319.986 304.818 330.463 282.853 313.102C222.332 265.265 219.217 209.706 217.399 209.778C216.182 209.829 206.351 238.932 187.892 287.253L164.898 276.537C167.202 271.592 180.974 209.294 191.457 186.879C194.347 180.654 200.722 171.76 209.952 174.125Z" fill="#8CA6AD"/>
<path d="M263.22 201.319C257.729 208.144 275.536 217.161 275.536 217.161C275.536 217.161 314.83 189.685 316.351 186.236C320.053 177.819 323.791 154.913 307.404 155.492C302.819 155.651 278.615 182.208 263.22 201.319Z" fill="#FDF3E8"/>
<path d="M305.673 160.922L335.853 149.021C335.853 149.021 359.941 156.511 358.999 186.033C357.152 243.48 345.669 291.649 345.669 291.649C345.669 291.649 324.573 283.385 307.759 269.235C290.945 255.085 285.823 242.655 285.823 242.655L305.673 160.922Z" fill="#FDF3E8"/>
<g style="mix-blend-mode:multiply">
<path d="M195.601 262.207C195.601 262.207 214.154 213.762 217.377 209.778C217.377 209.778 223.347 264.267 281.657 312.545C281.657 312.545 262.358 295.98 239.9 263.342C223.571 239.604 217.566 210.284 217.566 210.284L195.601 262.207Z" fill="#8CA6AD"/>
</g>
<path d="M251.339 173.604C250.984 173.257 223.042 148.63 222.55 148.203C222.057 147.777 221.202 148.203 220.768 148.745C220.564 148.989 220.455 149.299 220.462 149.616C220.468 149.934 220.59 150.238 220.804 150.474C221.224 150.85 249.057 175.86 249.369 176.142C249.919 176.684 251.086 176.366 251.499 175.831C251.717 175.493 251.82 175.093 251.791 174.691C251.763 174.289 251.604 173.908 251.339 173.604Z" fill="#384A51"/>
<path d="M240.813 173.734C240.813 173.734 238.285 159.042 237.372 156.721C236.459 154.4 234.923 150.38 234.329 150.293C233.735 150.206 231.562 150.517 234.329 157.429C237.097 164.342 231.265 159.866 231.265 159.866L225.607 154.805C225.334 154.977 225.138 155.247 225.06 155.559C224.982 155.872 225.027 156.202 225.187 156.482C224.868 156.721 224.641 157.062 224.545 157.448C224.449 157.834 224.489 158.241 224.658 158.601C224.301 158.942 224.049 159.377 223.929 159.856C223.81 160.334 223.829 160.837 223.984 161.305C222.731 162.621 223.753 165.043 225.187 166.265C234.192 173.908 234.605 179.28 234.605 179.28L240.813 173.734Z" fill="#B28B67"/>
<path d="M234.59 179.244C234.59 179.244 249.601 228.773 280.383 238.534C285.823 240.262 331.731 205.997 331.731 205.997L322.422 192.476L282.266 222.265C272.66 207.761 247.782 190.017 240.813 173.734C237.082 165.021 234.59 179.244 234.59 179.244Z" fill="#B28B67"/>
<path d="M334.556 173.336L300.79 204.623L310.968 221.708C306.021 224.109 349.27 196.864 350.009 191.029C351.124 182.165 353.631 173.177 343.337 170.958C341.788 170.663 340.193 170.724 338.672 171.136C337.15 171.548 335.743 172.3 334.556 173.336Z" fill="#FDF3E8"/>
<g style="mix-blend-mode:multiply">
<g style="mix-blend-mode:multiply">
<path d="M346.358 195.086C346.208 195.328 346.036 195.556 345.843 195.766C345.445 196.243 321.937 214.883 311.15 221.983L310.86 222.179L310.686 221.875C307.882 217.146 310.932 222.215 307.788 216.922C304.84 211.926 303.63 208.737 300.978 204.247L300.833 204.001L301.058 203.82C311.2 195.527 318.314 186.706 324.61 181.558L331.97 175.614L333.962 174.045C334.188 173.852 334.43 173.68 334.687 173.532C334.495 173.753 334.282 173.954 334.049 174.132L332.13 175.788C330.398 177.234 327.949 179.316 324.885 181.883C318.633 187.082 311.555 195.968 301.485 204.334L301.565 203.907C304.224 208.39 305.441 211.579 308.389 216.568C311.519 221.868 308.469 216.799 311.287 221.535L310.824 221.427C321.582 214.384 345.365 196.12 345.785 195.693C345.956 195.473 346.148 195.269 346.358 195.086Z" fill="#FDF3E8"/>
</g>
</g>
<path fill-rule="evenodd" clip-rule="evenodd" d="M313.909 77.8071H316.191C329.753 77.8071 340.75 93.9528 340.75 107.496V126.295C340.75 132.324 338.524 138.141 334.497 142.635C330.471 147.129 324.926 149.984 318.923 150.654C318.923 150.719 318.923 150.777 318.923 150.835H285.786C280.549 145.723 283.867 112.333 286.554 100.128C289.952 84.6616 301.587 77.8071 313.909 77.8071Z" fill="black"/>
<path fill-rule="evenodd" clip-rule="evenodd" d="M335.744 150.249C335.744 150.249 333.245 161.963 320.393 163.756C310.613 165.115 305.984 155.998 305.984 155.998L306.209 139.707C306.209 139.707 301.094 140.944 298.327 139.23C286.084 131.667 287.134 105.095 293.748 92.7814C300.362 80.4679 334.404 75.0956 336.121 99.4986C336.715 107.965 333.151 115.529 327.884 121.689L335.744 150.249Z" fill="#B28B67"/>
<path fill-rule="evenodd" clip-rule="evenodd" d="M316.8 106.433C307.635 100.764 297.319 99.4119 294.661 90.3087C298.21 85.0883 302.391 78.9424 315.619 78.9424C322.523 78.9424 336.186 78.9424 340.75 113.649C342.054 123.511 351.356 130.149 349.617 150.25H323.479C318.147 140.416 320.422 134.69 320.69 123.128C320.929 112.224 317.307 106.05 316.8 106.433Z" fill="black"/>
<path fill-rule="evenodd" clip-rule="evenodd" d="M293.125 94.0468C293.125 94.0468 291.162 102.723 291.162 104.827L297.646 104.929L296.769 96.5991L299.24 104.762L316.8 106.433L294.661 90.3086L293.125 94.0468Z" fill="black"/>
<g style="mix-blend-mode:multiply">
<path fill-rule="evenodd" clip-rule="evenodd" d="M306.208 139.707C306.208 139.707 312.997 139.02 317.169 136.222C317.169 136.222 315.489 140.777 306.208 142.245V139.707Z" fill="#B28B67"/>
</g>
<path fill-rule="evenodd" clip-rule="evenodd" d="M298.921 130.828C298.921 130.828 304.34 133.619 307.252 128.291C304.81 129.986 301.896 130.874 298.921 130.828Z" fill="black"/>
<path fill-rule="evenodd" clip-rule="evenodd" d="M295.885 111.913C295.719 111.711 292.915 110.836 291.285 112.557C291.104 112.745 291.285 113.027 291.408 112.918C291.943 112.462 292.612 112.191 293.314 112.145C295.19 111.834 296.233 112.347 295.885 111.913Z" fill="black"/>
<path fill-rule="evenodd" clip-rule="evenodd" d="M311.707 111.913C311.541 111.711 308.744 110.836 307.107 112.557C306.926 112.745 307.107 113.027 307.238 112.918C307.771 112.46 308.44 112.188 309.143 112.145C311.012 111.834 312.062 112.347 311.707 111.913Z" fill="black"/>
<path fill-rule="evenodd" clip-rule="evenodd" d="M299.355 113.634C299.355 113.634 295.255 124.82 299.254 125.377C300.929 125.568 302.615 125.124 303.977 124.133C303.977 124.133 299.862 125.225 298.826 124.415C297.79 123.605 297.747 121.096 299.355 113.634Z" fill="black"/>
<path d="M292.995 116.085C293.727 116.085 294.32 115.493 294.32 114.762C294.32 114.031 293.727 113.439 292.995 113.439C292.263 113.439 291.669 114.031 291.669 114.762C291.669 115.493 292.263 116.085 292.995 116.085Z" fill="black"/>
<path d="M308.802 115.774C309.535 115.774 310.128 115.182 310.128 114.451C310.128 113.72 309.535 113.128 308.802 113.128C308.07 113.128 307.477 113.72 307.477 114.451C307.477 115.182 308.07 115.774 308.802 115.774Z" fill="black"/>
<g style="mix-blend-mode:multiply">
<path d="M300.745 125.128C302.141 125.098 303.265 124.727 303.256 124.3C303.247 123.873 302.107 123.551 300.711 123.581C299.315 123.611 298.191 123.982 298.2 124.409C298.21 124.836 299.349 125.158 300.745 125.128Z" fill="#B28B67"/>
</g>
<path d="M545.016 126.522C547.098 125.877 548.193 123.444 547.461 121.087C546.728 118.73 544.446 117.341 542.363 117.986C540.281 118.631 539.186 121.064 539.918 123.421C540.651 125.778 542.933 127.167 545.016 126.522Z" fill="#E5B5A1"/>
<path d="M465.898 262.3C465.898 262.3 492.768 248.389 555.809 269.979C555.809 269.979 638.824 245.142 660.513 259.415L565.437 317.787L465.898 262.3Z" fill="#8CA6AD"/>
<path d="M515.081 179.388L492.043 229.438C488.704 235.222 489.088 245.099 491.493 248.28C494.659 252.46 501.476 252.915 509.242 252.698L547.442 254.99L548.536 239.944L505.351 235.714L536.633 190.422L515.081 179.388Z" fill="#E5B5A1"/>
<path d="M602.565 261.534L577.608 269.748C577.608 269.748 569.523 262.517 576.782 258.338C611.613 238.194 620.662 239.597 620.662 239.597C612.446 232.272 586.258 190.429 586.258 190.429L603.739 180.039L630.739 226.951C630.739 226.951 644.815 252.344 622.082 257.658L602.565 261.534Z" fill="#E5B5A1"/>
<path d="M526.563 209.511L504.888 198.115C504.888 198.115 509.307 185.932 513.82 175.209C517.174 167.256 518.848 162.455 546.471 155.34L576.448 155.687C580.723 156.15 582.244 157.025 587.134 158.145C602.123 161.573 615.387 198.636 615.387 198.636L597.696 209.482L593.712 208.6C593.14 211.405 597.899 271.801 597.899 271.801L520.934 273.392L526.563 209.511Z" fill="#FDF3E8"/>
<path d="M601.855 282.749L603.739 226.922H514.907L518.66 283.378L601.855 282.749Z" fill="black"/>
<path d="M553.354 254.239C553.354 255.417 553.704 256.569 554.36 257.549C555.015 258.529 555.948 259.292 557.039 259.743C558.129 260.194 559.33 260.312 560.488 260.082C561.646 259.852 562.709 259.285 563.544 258.452C564.379 257.618 564.947 256.557 565.178 255.401C565.408 254.245 565.29 253.047 564.838 251.959C564.386 250.87 563.621 249.94 562.639 249.285C561.658 248.63 560.504 248.281 559.323 248.281C557.74 248.281 556.221 248.908 555.102 250.026C553.982 251.143 553.354 252.659 553.354 254.239Z" fill="#FAFAFA"/>
<path d="M615.235 312.74C615.235 312.74 626.29 312.104 631.535 313.333C636.78 314.562 638.896 320.354 638.403 324.179C637.911 328.004 634.527 335.336 615.315 333.015L615.235 312.74Z" fill="#8CA6AD"/>
<path d="M505.554 307.592C503.621 307.438 501.678 307.748 499.889 308.495C498.099 309.242 496.515 310.405 495.267 311.887C491.029 316.949 494.427 323.629 498.65 325.748C502.874 327.867 505.475 328.257 513.139 327.527L505.554 307.592Z" fill="#8CA6AD"/>
<path d="M527.925 308.164C527.925 308.164 519.065 315.156 531.932 324.512C531.932 324.512 554.911 318.915 556.679 318.265L548.992 303.384L527.925 308.164Z" fill="#E5B5A1"/>
<path d="M577.956 323.926L593.661 328.821C593.661 328.821 610.94 323.811 595.364 310.608L579.861 308.438L577.956 323.926Z" fill="#E5B5A1"/>
<path d="M522.818 305.647C522.818 305.647 508.329 306.92 503.512 307.968C498.694 309.017 491.377 317.99 499.245 324.447C507.112 330.904 528.041 325.466 531.932 324.512L527.925 308.164L522.818 305.647Z" fill="#384A51"/>
<path d="M595.364 310.6C595.364 310.6 624.436 313.492 630.022 314.83C635.607 316.168 640.707 325.198 631.847 330.26C622.987 335.321 600.602 332.718 593.662 328.814L595.364 310.6Z" fill="#384A51"/>
<path d="M582.491 306.342C582.491 306.342 557.367 291.288 546.189 283.594C535.01 275.901 504.497 259.929 479.619 260.066C454.742 260.204 454.227 272.474 454.437 276.075C454.735 280.413 456.611 296.32 474.273 301.692C487.632 305.756 571.052 325.372 577.383 326.196L582.491 306.342Z" fill="#8CA6AD"/>
<path d="M547.123 321.128L539.712 303.558C539.712 303.558 560.388 293.63 567.494 288.374C574.601 283.117 611.823 255.576 647.799 256.415C683.775 257.253 668.808 280.434 666.946 283.023C665.084 285.611 655.978 297.961 641.033 300.976C626.088 303.991 553.266 321.8 547.123 321.128Z" fill="#8CA6AD"/>
<path d="M461.407 263.797C461.407 263.797 495.253 241.245 576.289 302.596C576.289 302.596 506.953 242.778 461.407 263.797Z" fill="black"/>
<path d="M562.286 291.75C562.286 291.75 575.326 282.43 582.781 278.048C590.235 273.667 628.182 249.003 663.02 258.96C663.02 258.96 648.98 252.351 622.77 259.054C596.907 265.663 564.959 288.07 561.873 291.28L562.286 291.75Z" fill="black"/>
<path d="M581.853 308.8L577.369 326.196L550.644 320.354L576.804 325.481L581.853 308.8Z" fill="black"/>
<path fill-rule="evenodd" clip-rule="evenodd" d="M543.907 108.566C545.848 80.938 580.47 86.3392 586.54 100.959C588.714 106.136 590.409 121.617 585.751 135.796C582.389 146.049 572.435 147.603 572.435 147.603L572.682 155.557C572.682 155.557 569.06 165.889 558.012 164.342C543.523 162.324 544.327 156.142 544.327 156.142C544.327 156.142 543.233 118.153 543.907 108.566Z" fill="#E5B5A1"/>
<g style="mix-blend-mode:multiply">
<path fill-rule="evenodd" clip-rule="evenodd" d="M572.435 147.603C572.435 147.603 564.742 146.829 560.025 143.655C560.025 143.655 561.916 148.818 572.435 150.481V147.603Z" fill="#B28B67"/>
</g>
<path fill-rule="evenodd" clip-rule="evenodd" d="M574.116 132.173C574.116 132.173 571.341 134.408 569.168 131.566C570.705 132.307 572.445 132.521 574.116 132.173Z" fill="black"/>
<path fill-rule="evenodd" clip-rule="evenodd" d="M577.34 113.613C577.485 113.345 580.542 111.747 582.875 113.273C583.128 113.446 583.019 113.786 582.809 113.699C582.067 113.318 581.224 113.174 580.397 113.287C578.108 113.367 577.035 114.169 577.34 113.613Z" fill="black"/>
<path fill-rule="evenodd" clip-rule="evenodd" d="M561.351 113.649C561.525 113.374 565.097 111.704 567.719 113.201C568.016 113.367 567.871 113.714 567.632 113.627C566.765 113.258 565.813 113.13 564.879 113.258C562.271 113.389 560.982 114.242 561.351 113.649Z" fill="black"/>
<path fill-rule="evenodd" clip-rule="evenodd" d="M572.761 113.446C573.667 119.954 575.956 125.89 574.659 126.396C573.921 126.738 573.089 126.82 572.299 126.626C571.509 126.433 570.808 125.977 570.312 125.333C570.312 125.333 574.319 127.126 574.195 125.232C574.087 123.692 572.761 113.446 572.761 113.446Z" fill="black"/>
<path d="M579.622 117.77C580.45 117.77 581.121 117.1 581.121 116.274C581.121 115.447 580.45 114.777 579.622 114.777C578.793 114.777 578.122 115.447 578.122 116.274C578.122 117.1 578.793 117.77 579.622 117.77Z" fill="black"/>
<path d="M564.068 117.625C564.896 117.625 565.568 116.955 565.568 116.129C565.568 115.302 564.896 114.632 564.068 114.632C563.24 114.632 562.568 115.302 562.568 116.129C562.568 116.955 563.24 117.625 564.068 117.625Z" fill="black"/>
<g style="mix-blend-mode:multiply">
<path fill-rule="evenodd" clip-rule="evenodd" d="M574.282 126.23C576.086 124.697 572.783 125.622 571.203 125.586C569.624 125.55 573.913 126.533 574.282 126.23Z" fill="#B28B67"/>
</g>
<path d="M577.289 86.4478C577.289 86.4478 584.222 85.1247 588.706 93.635C590.727 97.4671 590.524 104.314 587.388 106.136C584.794 107.633 576.318 101.35 576.318 101.35C564.589 109.788 565.024 101.35 558.207 106.455C548.405 113.844 544.537 120.532 544.537 120.532C544.537 120.532 539.466 121.472 537.589 114.625C535.887 108.465 535.626 104.206 538.901 97.3442C548.536 77.2073 572.834 82.8326 577.289 86.4478Z" fill="black"/>
<g style="mix-blend-mode:multiply">
<path d="M223.977 161.283C225.394 163.509 227.124 165.52 229.113 167.256L223.977 161.283Z" fill="#B28B67"/>
</g>
<g style="mix-blend-mode:multiply">
<path d="M224.65 158.579C224.65 158.579 226.983 162.498 229.359 164.27C229.359 164.27 225.114 159.309 224.65 158.579Z" fill="#B28B67"/>
</g>
<g style="mix-blend-mode:multiply">
<path d="M225.179 156.46C226.298 157.905 227.508 159.277 228.801 160.567C228.801 160.567 225.802 156.721 225.179 156.46Z" fill="#B28B67"/>
</g>
</g>
<defs>
<clipPath id="clip0">
<rect width="847" height="419" fill="white"/>
</clipPath>
</defs>
</svg>
