<svg width="764" height="418" viewBox="0 0 764 418" fill="none" xmlns="http://www.w3.org/2000/svg">
<g clip-path="url(#clip0)">
<path d="M49.2242 417.647C42.8067 417.647 36.452 416.382 30.5231 413.925C24.5942 411.468 19.2072 407.866 14.6697 403.326C10.1322 398.786 6.53303 393.396 4.07782 387.465C1.62261 381.533 0.359405 375.175 0.360352 368.755C0.360352 355.79 5.50849 343.356 14.6722 334.189C23.836 325.021 36.2647 319.871 49.2242 319.871H102.508V417.647H49.2242Z" fill="#8CA6AD" stroke="black" stroke-miterlimit="10"/>
<path d="M793.768 417.647H102.508V319.871H793.768C806.728 319.871 819.158 325.021 828.323 334.188C837.488 343.356 842.637 355.79 842.639 368.755C842.639 375.176 841.375 381.533 838.919 387.465C836.463 393.397 832.863 398.787 828.325 403.327C823.787 407.867 818.4 411.468 812.47 413.925C806.541 416.382 800.186 417.647 793.768 417.647Z" fill="#FDF3E8" stroke="black" stroke-linecap="round" stroke-linejoin="round"/>
<path d="M57.5955 358.397C56.2274 358.399 54.9153 358.941 53.9445 359.905C52.9737 360.87 52.4227 362.179 52.4113 363.547V366.656H51.3803C50.8308 366.656 50.3037 366.874 49.9145 367.262C49.5252 367.65 49.3056 368.177 49.3037 368.726V377.014C49.3037 377.565 49.5225 378.094 49.9119 378.483C50.3014 378.873 50.8295 379.092 51.3803 379.092H63.8035C64.3543 379.092 64.8824 378.873 65.2719 378.483C65.6613 378.094 65.8801 377.565 65.8801 377.014V368.755C65.8782 368.205 65.6585 367.679 65.2693 367.291C64.8801 366.903 64.353 366.685 63.8035 366.685H62.7725V363.547C62.7629 362.179 62.2136 360.87 61.2439 359.906C60.2743 358.941 58.9629 358.399 57.5955 358.397ZM54.4879 366.685V363.547C54.4879 362.723 54.8153 361.932 55.3981 361.349C55.9809 360.766 56.7713 360.438 57.5955 360.438C58.4197 360.438 59.2101 360.766 59.7929 361.349C60.3757 361.932 60.7031 362.723 60.7031 363.547V366.656L54.4879 366.685Z" fill="#FDF3E8"/>
<path d="M133.735 377.375H135.459C135.891 378.659 137.29 379.583 139.194 379.583C141.645 379.583 143.174 378.14 143.174 375.976V373.343C142.794 374.215 142.165 374.954 141.365 375.468C140.566 375.981 139.632 376.246 138.682 376.228C135.372 376.228 133.151 373.567 133.151 369.506C133.151 365.445 135.372 362.776 138.725 362.776C139.692 362.764 140.642 363.041 141.45 363.574C142.258 364.106 142.889 364.868 143.26 365.762H143.296V362.992H144.882V375.954C144.882 379.006 142.654 381.004 139.15 381.004C136.273 381.018 134.11 379.417 133.735 377.375ZM143.174 369.571C143.174 366.433 141.472 364.312 138.948 364.312C136.425 364.312 134.831 366.433 134.831 369.585C134.831 372.737 136.483 374.815 138.948 374.815C141.414 374.815 143.174 372.708 143.174 369.571Z" fill="#384A51"/>
<path d="M147.089 369.606C147.089 365.437 149.512 362.84 153.059 362.84C156.606 362.84 159.036 365.437 159.036 369.606C159.036 373.776 156.628 376.38 153.059 376.38C149.49 376.38 147.089 373.768 147.089 369.606ZM157.349 369.606C157.349 366.281 155.633 364.312 153.059 364.312C150.485 364.312 148.79 366.281 148.79 369.606C148.79 372.932 150.492 374.908 153.059 374.908C155.626 374.908 157.327 372.924 157.327 369.606H157.349Z" fill="#384A51"/>
<path d="M160.918 375.089C160.917 374.854 160.985 374.625 161.114 374.429C161.243 374.234 161.427 374.081 161.643 373.991C161.859 373.9 162.097 373.875 162.327 373.92C162.557 373.965 162.768 374.077 162.934 374.242C163.1 374.408 163.213 374.618 163.26 374.848C163.306 375.078 163.283 375.316 163.194 375.532C163.104 375.749 162.953 375.934 162.758 376.065C162.564 376.195 162.335 376.264 162.1 376.264C161.946 376.265 161.792 376.236 161.649 376.177C161.505 376.118 161.375 376.032 161.265 375.923C161.155 375.813 161.068 375.683 161.008 375.54C160.949 375.397 160.918 375.244 160.918 375.089Z" fill="#384A51"/>
<path d="M165.836 377.375H167.566C167.991 378.659 169.39 379.582 171.294 379.582C173.752 379.582 175.281 378.14 175.281 375.976V373.343H175.238C174.86 374.214 174.232 374.953 173.433 375.467C172.635 375.98 171.702 376.245 170.753 376.228C167.436 376.228 165.223 373.566 165.223 369.505C165.223 365.444 167.436 362.775 170.789 362.775C171.758 362.762 172.708 363.039 173.518 363.571C174.328 364.104 174.96 364.867 175.331 365.762V362.992H176.918V375.954C176.918 379.005 174.69 381.003 171.149 381.003C168.388 381.018 166.232 379.416 165.836 377.375ZM175.281 369.57C175.281 366.432 173.579 364.312 171.056 364.312C168.532 364.312 166.939 366.396 166.939 369.585C166.939 372.773 168.59 374.814 171.056 374.814C173.522 374.814 175.31 372.708 175.31 369.57H175.281Z" fill="#384A51"/>
<path d="M179.203 369.606C179.203 365.437 181.619 362.84 185.173 362.84C188.728 362.84 191.15 365.437 191.15 369.606C191.15 373.776 188.742 376.38 185.173 376.38C181.604 376.38 179.203 373.768 179.203 369.606ZM189.456 369.606C189.456 366.281 187.747 364.312 185.173 364.312C182.599 364.312 180.898 366.281 180.898 369.606C180.898 372.932 182.599 374.908 185.173 374.908C187.747 374.908 189.456 372.924 189.456 369.606Z" fill="#384A51"/>
<path d="M198.519 376.163H196.746L191.864 363.057H193.631L197.611 374.41H197.647L201.641 363.057H203.386L198.519 376.163Z" fill="#384A51"/>
<path d="M203.408 375.089C203.395 374.926 203.416 374.763 203.47 374.609C203.523 374.454 203.608 374.313 203.719 374.193C203.829 374.073 203.964 373.978 204.113 373.913C204.262 373.847 204.424 373.813 204.587 373.813C204.75 373.813 204.911 373.847 205.061 373.913C205.21 373.978 205.344 374.073 205.455 374.193C205.566 374.313 205.65 374.454 205.704 374.609C205.757 374.763 205.778 374.926 205.766 375.089C205.742 375.386 205.608 375.663 205.39 375.865C205.171 376.067 204.884 376.179 204.587 376.179C204.289 376.179 204.002 376.067 203.784 375.865C203.565 375.663 203.431 375.386 203.408 375.089Z" fill="#384A51"/>
<path d="M213.481 362.826C216.271 362.826 218.139 364.449 218.29 366.837H216.689C216.473 365.192 215.291 364.197 213.481 364.197C211.671 364.197 210.467 365.142 210.467 366.454C210.467 367.529 211.188 368.2 212.947 368.618L214.93 369.087C217.547 369.715 218.535 370.725 218.535 372.579C218.535 374.8 216.459 376.373 213.596 376.373C210.734 376.373 208.672 374.8 208.441 372.398H210.106C210.359 374.05 211.635 375.002 213.596 375.002C215.557 375.002 216.862 374.079 216.862 372.701C216.862 371.569 216.221 370.941 214.454 370.537L212.486 370.075C209.991 369.491 208.823 368.395 208.823 366.584C208.816 364.391 210.741 362.826 213.481 362.826Z" fill="#384A51"/>
<path d="M220.72 377.375H222.45C222.876 378.659 224.274 379.583 226.178 379.583C228.637 379.583 230.165 378.14 230.165 375.976V373.343H230.122C229.744 374.214 229.116 374.953 228.317 375.467C227.519 375.981 226.586 376.246 225.637 376.228C222.328 376.228 220.107 373.567 220.107 369.506C220.107 365.445 222.328 362.826 225.68 362.826C226.649 362.813 227.6 363.09 228.41 363.622C229.219 364.154 229.851 364.917 230.223 365.812V363.043H231.809V375.954C231.809 379.005 229.581 381.004 226.041 381.004C223.243 381.018 221.088 379.417 220.72 377.375ZM230.165 369.571C230.165 366.433 228.464 364.312 225.94 364.312C223.416 364.312 221.823 366.397 221.823 369.585C221.823 372.773 223.467 374.815 225.94 374.815C228.413 374.815 230.165 372.708 230.165 369.571Z" fill="#384A51"/>
<path d="M233.273 380.001L239.705 357.972H241.147L234.722 380.001H233.273Z" fill="#384A51"/>
<path d="M255.242 376.163H253.476L250.195 365.286H250.152L246.907 376.163H245.148L241.413 363.057H243.108L246.042 374.302L249.308 363.057H250.996L254.262 374.302H254.298L257.232 363.057H258.912L255.242 376.163Z" fill="#384A51"/>
<path d="M260.729 357.972H262.409V365.473H262.453C262.819 364.645 263.43 363.949 264.203 363.479C264.977 363.008 265.875 362.785 266.779 362.841C269.663 362.841 271.465 364.759 271.465 367.695V376.163H269.786V367.969C269.786 365.704 268.517 364.327 266.296 364.327C263.938 364.327 262.417 365.978 262.417 368.453V376.163H260.737L260.729 357.972Z" fill="#384A51"/>
<path d="M273.787 372.535C273.787 370.292 275.467 368.928 278.488 368.726L282.569 368.474V367.341C282.569 365.452 281.372 364.312 279.332 364.312C277.407 364.312 276.174 365.257 275.878 366.851H274.27C274.458 364.507 276.383 362.84 279.368 362.84C282.353 362.84 284.235 364.514 284.235 367.168V376.142H282.641V373.646C282.229 374.476 281.589 375.172 280.796 375.652C280.003 376.132 279.09 376.377 278.164 376.358C275.554 376.38 273.787 374.829 273.787 372.535ZM282.569 371.237V369.794L278.69 370.061C276.621 370.198 275.474 371.092 275.474 372.542C275.474 373.992 276.7 374.951 278.474 374.951C280.767 374.944 282.569 373.314 282.569 371.237Z" fill="#384A51"/>
<path d="M289.412 359.775V363.057H292.015V364.442H289.426V372.86C289.426 374.209 289.96 374.793 291.171 374.793C291.344 374.793 291.972 374.793 292.073 374.742V376.185C291.664 376.239 291.252 376.266 290.84 376.264C288.676 376.264 287.768 375.327 287.768 372.961V364.442H285.814V363.057H287.768V359.775H289.412Z" fill="#384A51"/>
<path d="M298.764 362.826C301.561 362.826 303.429 364.449 303.58 366.837H301.979C301.763 365.192 300.581 364.197 298.764 364.197C296.947 364.197 295.75 365.142 295.75 366.454C295.75 367.529 296.471 368.2 298.237 368.618L300.213 369.087C302.837 369.715 303.818 370.725 303.818 372.579C303.818 374.8 301.741 376.373 298.879 376.373C296.016 376.373 293.947 374.8 293.724 372.398H295.389C295.642 374.05 296.911 375.002 298.879 375.002C300.847 375.002 302.145 374.079 302.145 372.701C302.145 371.569 301.496 370.941 299.737 370.537L297.783 370.039C295.288 369.455 294.113 368.359 294.113 366.548C294.099 364.391 296.031 362.826 298.764 362.826Z" fill="#384A51"/>
<path d="M305.584 372.535C305.584 370.292 307.257 368.928 310.286 368.726L314.367 368.474V367.341C314.367 365.452 313.17 364.312 311.129 364.312C309.089 364.312 307.964 365.257 307.675 366.851H306.06C306.248 364.507 308.18 362.84 311.165 362.84C314.15 362.84 316.032 364.514 316.032 367.168V376.142H314.439V373.646H314.403C313.993 374.477 313.354 375.173 312.562 375.653C311.771 376.134 310.858 376.378 309.932 376.358C307.344 376.38 305.584 374.829 305.584 372.535ZM314.367 371.237V369.794L310.487 370.061C308.418 370.198 307.272 371.092 307.272 372.542C307.272 373.992 308.49 374.951 310.271 374.951C312.564 374.944 314.367 373.314 314.367 371.237Z" fill="#384A51"/>
<path d="M330.546 369.607C330.546 373.697 328.289 376.38 325.002 376.38C324.054 376.405 323.12 376.144 322.323 375.629C321.527 375.114 320.905 374.37 320.538 373.495H320.488V380.535H318.83V363.057H320.401V365.827H320.452C320.814 364.93 321.439 364.163 322.244 363.627C323.05 363.092 323.998 362.813 324.966 362.826C328.275 362.826 330.546 365.538 330.546 369.607ZM328.845 369.607C328.845 366.418 327.208 364.312 324.677 364.312C322.146 364.312 320.488 366.476 320.488 369.607C320.488 372.737 322.19 374.908 324.677 374.908C327.165 374.908 328.845 372.809 328.845 369.607Z" fill="#384A51"/>
<path d="M344.498 369.606C344.498 373.696 342.241 376.38 338.954 376.38C338.006 376.405 337.072 376.143 336.275 375.628C335.479 375.113 334.857 374.369 334.49 373.494H334.44V380.534H332.774V363.057H334.353V365.827H334.404C334.762 364.934 335.381 364.17 336.18 363.635C336.978 363.099 337.92 362.818 338.881 362.826C342.227 362.826 344.498 365.538 344.498 369.606ZM342.797 369.606C342.797 366.418 341.16 364.312 338.622 364.312C336.084 364.312 334.44 366.476 334.44 369.606C334.44 372.737 336.142 374.908 338.622 374.908C341.102 374.908 342.797 372.809 342.797 369.606Z" fill="#384A51"/>
<path d="M167.047 74.7075H239.87C248.174 74.7132 256.137 78.0154 262.009 83.8889C267.882 89.7624 271.184 97.7273 271.192 106.035C271.192 110.152 270.381 114.23 268.806 118.034C267.231 121.838 264.922 125.295 262.012 128.207C259.101 131.118 255.646 133.428 251.843 135.004C248.041 136.58 243.965 137.391 239.849 137.391H192.795L183.01 147.179L173.226 137.391H167.047C158.734 137.391 150.762 134.087 144.884 128.207C139.006 122.326 135.704 114.351 135.704 106.035C135.712 97.7235 139.017 89.7554 144.894 83.8813C150.772 78.0071 158.739 74.7075 167.047 74.7075Z" fill="#384A51" stroke="black" stroke-linecap="round" stroke-linejoin="round"/>
<path d="M181.208 111.654C183.872 111.654 186.032 109.493 186.032 106.828C186.032 104.163 183.872 102.002 181.208 102.002C178.544 102.002 176.384 104.163 176.384 106.828C176.384 109.493 178.544 111.654 181.208 111.654Z" fill="#F7C5A8"/>
<path opacity="0.7" d="M203.444 111.654C206.108 111.654 208.267 109.493 208.267 106.828C208.267 104.163 206.108 102.002 203.444 102.002C200.78 102.002 198.62 104.163 198.62 106.828C198.62 109.493 200.78 111.654 203.444 111.654Z" fill="#F7C5A8"/>
<path opacity="0.4" d="M225.688 111.654C228.352 111.654 230.512 109.493 230.512 106.828C230.512 104.163 228.352 102.002 225.688 102.002C223.024 102.002 220.864 104.163 220.864 106.828C220.864 109.493 223.024 111.654 225.688 111.654Z" fill="#F7C5A8"/>
<path d="M298.287 0.425781H178.042C169.729 0.425781 161.757 3.72934 155.879 9.60973C150.001 15.4901 146.699 23.4656 146.699 31.7817C146.701 40.0966 150.004 48.0703 155.882 53.9491C161.76 59.8279 169.731 63.1305 178.042 63.1305H264.565L274.349 72.9188L284.134 63.1305H298.287C306.598 63.1305 314.568 59.8277 320.445 53.9486C326.322 48.0696 329.623 40.0959 329.623 31.7817C329.623 23.4669 326.322 15.4924 320.445 9.61228C314.569 3.7321 306.599 0.427694 298.287 0.425781Z" fill="#FFBF8A" stroke="black" stroke-linecap="round" stroke-linejoin="round"/>
<path d="M177.631 20.3057H299.874" stroke="black" stroke-linecap="round" stroke-linejoin="round"/>
<path d="M177.631 31.6953H299.874" stroke="black" stroke-linecap="round" stroke-linejoin="round"/>
<path d="M177.631 43.0776H299.874" stroke="black" stroke-linecap="round" stroke-linejoin="round"/>
<path d="M555.845 0.36084H389.029C380.71 0.36084 372.733 3.66668 366.851 9.55112C360.969 15.4356 357.664 23.4166 357.664 31.7384C357.663 35.8596 358.474 39.9406 360.049 43.7483C361.625 47.5561 363.935 51.016 366.848 53.9304C369.761 56.8448 373.218 59.1567 377.024 60.7341C380.83 62.3114 384.909 63.1232 389.029 63.1232H406.816L416.608 72.9188L426.399 63.1232H555.845C564.165 63.1232 572.145 59.8166 578.028 53.9308C583.911 48.045 587.217 40.0622 587.217 31.7384C587.215 23.4159 583.909 15.4349 578.025 9.55069C572.142 3.66645 564.164 0.36084 555.845 0.36084Z" fill="#F9F9F9" stroke="black" stroke-linecap="round" stroke-linejoin="round"/>
<path d="M553.595 54.7484H411.755V8.5332H553.595C559.714 8.5332 565.583 10.9651 569.91 15.2939C574.237 19.6227 576.668 25.4937 576.668 31.6156C576.675 34.651 576.083 37.658 574.926 40.4643C573.77 43.2706 572.071 45.8212 569.928 47.9699C567.785 50.1187 565.239 51.8234 562.436 52.9866C559.634 54.1497 556.629 54.7484 553.595 54.7484Z" fill="#F0F0F0"/>
<path d="M423.544 22.5562H422.823L422.643 21.7699C422.382 22.0743 422.06 22.3201 421.698 22.4913C421.356 22.6359 420.988 22.7072 420.617 22.7005C420.15 22.7079 419.687 22.6118 419.261 22.4191C418.875 22.2404 418.531 21.9823 418.252 21.6618C417.967 21.3314 417.75 20.9494 417.61 20.5365C417.321 19.6505 417.321 18.6958 417.61 17.8099C417.75 17.3993 417.968 17.0196 418.252 16.6918C418.529 16.3669 418.873 16.106 419.261 15.9272C419.687 15.7345 420.15 15.6385 420.617 15.6459C420.968 15.6418 421.318 15.6904 421.655 15.7902C421.975 15.8782 422.276 16.0249 422.542 16.223C422.814 16.4267 423.04 16.6855 423.205 16.9826C423.37 17.2796 423.471 17.6083 423.501 17.9469H422.347C422.325 17.7393 422.256 17.5395 422.145 17.3627C422.045 17.1986 421.912 17.0564 421.756 16.9443C421.596 16.8303 421.418 16.7449 421.23 16.6918C421.03 16.6337 420.824 16.6046 420.617 16.6053C420.293 16.5965 419.973 16.671 419.687 16.8217C419.43 16.961 419.212 17.1617 419.052 17.4059C418.881 17.6556 418.756 17.9342 418.684 18.2282C418.61 18.5377 418.571 18.8548 418.569 19.1732C418.571 19.4892 418.61 19.8039 418.684 20.1109C418.758 20.4067 418.882 20.6874 419.052 20.9404C419.214 21.1809 419.432 21.3788 419.687 21.5175C419.973 21.6681 420.293 21.7426 420.617 21.7339C420.888 21.7461 421.16 21.7069 421.417 21.6185C421.638 21.5395 421.84 21.414 422.008 21.2506C422.173 21.0846 422.297 20.8819 422.369 20.6591C422.451 20.4099 422.495 20.1497 422.499 19.8873H420.71V19.0145H423.595L423.544 22.5562Z" fill="black"/>
<path d="M427.697 15.6676C428.162 15.66 428.622 15.7561 429.045 15.9489C429.437 16.1249 429.784 16.3861 430.062 16.7135C430.344 17.0416 430.56 17.4213 430.697 17.8316C430.994 18.716 430.994 19.6737 430.697 20.5582C430.56 20.9706 430.344 21.3527 430.062 21.6834C429.781 22.0058 429.435 22.2641 429.045 22.4408C428.619 22.6265 428.159 22.7223 427.694 22.7223C427.228 22.7223 426.768 22.6265 426.342 22.4408C425.956 22.2621 425.612 22.004 425.332 21.6834C425.045 21.3537 424.825 20.9716 424.683 20.5582C424.395 19.6722 424.395 18.7175 424.683 17.8316C424.823 17.421 425.041 17.0413 425.325 16.7135C425.602 16.3885 425.947 16.1277 426.334 15.9489C426.762 15.7545 427.228 15.6584 427.697 15.6676ZM427.697 16.627C427.374 16.6182 427.053 16.6927 426.767 16.8434C426.511 16.9827 426.293 17.1834 426.133 17.4276C425.961 17.6773 425.837 17.9559 425.765 18.2499C425.687 18.5588 425.648 18.8763 425.649 19.1949C425.648 19.5111 425.687 19.8262 425.765 20.1326C425.838 20.4284 425.963 20.7091 426.133 20.9621C426.295 21.2025 426.512 21.4005 426.767 21.5392C427.053 21.6898 427.374 21.7643 427.697 21.7556C428.02 21.7627 428.34 21.6883 428.627 21.5392C428.88 21.3985 429.098 21.2009 429.262 20.9621C429.426 20.7071 429.548 20.4269 429.622 20.1326C429.703 19.8265 429.744 19.5114 429.745 19.1949C429.744 18.876 429.703 18.5585 429.622 18.2499C429.55 17.9574 429.428 17.6793 429.262 17.4276C429.1 17.1849 428.882 16.9846 428.627 16.8434C428.34 16.6942 428.02 16.6198 427.697 16.627Z" fill="black"/>
<path d="M417.516 30.4402C417.646 30.0292 417.854 29.6471 418.129 29.315C418.405 28.9846 418.749 28.7187 419.138 28.5359C419.576 28.3314 420.055 28.2302 420.537 28.2402C421.034 28.2254 421.528 28.3266 421.979 28.5359C422.369 28.7187 422.713 28.9846 422.989 29.315C423.264 29.6456 423.47 30.0283 423.594 30.4402C423.872 31.3032 423.872 32.2317 423.594 33.0947C423.472 33.5073 423.266 33.8903 422.989 34.22C422.713 34.5503 422.369 34.8163 421.979 34.999C421.526 35.2022 421.034 35.3008 420.537 35.2875C420.055 35.2962 419.578 35.1977 419.138 34.999C418.749 34.8163 418.405 34.5503 418.129 34.22C417.853 33.8889 417.644 33.5065 417.516 33.0947C417.247 32.2303 417.247 31.3046 417.516 30.4402ZM418.345 32.7701C418.427 33.0906 418.567 33.3937 418.756 33.6645C418.944 33.9298 419.191 34.1472 419.477 34.2993C419.808 34.4559 420.168 34.5371 420.534 34.5371C420.899 34.5371 421.26 34.4559 421.59 34.2993C421.877 34.1481 422.125 33.9305 422.311 33.6645C422.506 33.3957 422.648 33.0921 422.729 32.7701C422.816 32.4429 422.859 32.1059 422.859 31.7675C422.859 31.4291 422.815 31.0921 422.729 30.7648C422.648 30.4428 422.506 30.1392 422.311 29.8704C422.123 29.6062 421.876 29.389 421.59 29.2356C421.26 29.079 420.899 28.9978 420.534 28.9978C420.168 28.9978 419.808 29.079 419.477 29.2356C419.193 29.3905 418.946 29.6074 418.756 29.8704C418.567 30.1413 418.427 30.4443 418.345 30.7648C418.251 31.0811 418.2 31.4087 418.194 31.7386C418.194 32.088 418.245 32.4354 418.345 32.7701Z" fill="#767676"/>
<path d="M424.236 30.9666V30.2957H425.058V29.5744C425.047 29.4087 425.072 29.2425 425.13 29.087C425.189 28.9316 425.28 28.7903 425.397 28.6728C425.686 28.4523 426.044 28.3446 426.407 28.3698H426.666L426.918 28.4275V29.1488C426.846 29.1236 426.771 29.1067 426.695 29.0983H426.471C426.311 29.0851 426.152 29.1258 426.017 29.2138C425.957 29.267 425.911 29.3344 425.883 29.41C425.855 29.4856 425.847 29.5669 425.859 29.6465V30.2957H426.803V31.0171H425.859V35.1863H425.058V30.9666H424.236Z" fill="#767676"/>
<path d="M426.846 30.9664V30.2956H427.668V29.5742C427.657 29.4078 427.682 29.2409 427.742 29.0852C427.802 28.9295 427.895 28.7887 428.014 28.6726C428.299 28.4496 428.656 28.3414 429.017 28.3696H429.276C429.364 28.3823 429.451 28.4016 429.536 28.4273V29.1487C429.463 29.1242 429.388 29.1073 429.312 29.0982H429.081C428.921 29.085 428.762 29.1256 428.627 29.2136C428.568 29.2679 428.523 29.3356 428.496 29.4108C428.468 29.4861 428.459 29.5668 428.469 29.6464V30.2956H429.413V31.0169H428.469V35.1861H427.668V30.9664H426.846Z" fill="#767676"/>
<path d="M430.185 29.3799V28.3989H430.985V29.3799H430.185ZM430.985 30.296V35.1722H430.185V30.296H430.985Z" fill="#767676"/>
<path d="M435.145 31.1111C434.914 30.9283 434.625 30.836 434.33 30.8514C434.081 30.8452 433.833 30.8996 433.609 31.0101C433.421 31.1123 433.261 31.2583 433.141 31.4357C433.021 31.6233 432.935 31.831 432.888 32.0488C432.837 32.2858 432.813 32.5278 432.816 32.7701C432.813 32.9939 432.84 33.217 432.896 33.4338C432.942 33.6381 433.028 33.8316 433.148 34.0036C433.26 34.1719 433.411 34.3105 433.588 34.4075C433.841 34.5256 434.122 34.5726 434.4 34.5434C434.678 34.5141 434.943 34.4099 435.167 34.2416C435.404 34.0094 435.55 33.6997 435.578 33.3688H436.4C436.343 33.8978 436.103 34.3903 435.722 34.761C435.32 35.1001 434.805 35.2752 434.28 35.2515C433.944 35.2592 433.61 35.1978 433.299 35.0712C433.023 34.961 432.776 34.7882 432.578 34.5662C432.385 34.3341 432.239 34.0672 432.146 33.78C432.048 33.4524 431.999 33.1121 432.002 32.7701C432.001 32.4236 432.049 32.0788 432.146 31.7459C432.233 31.4446 432.377 31.163 432.571 30.9163C432.769 30.6822 433.015 30.4928 433.292 30.3609C433.61 30.2227 433.955 30.1538 434.302 30.159C434.564 30.1587 434.826 30.1926 435.08 30.2599C435.311 30.3209 435.528 30.4236 435.722 30.5629C435.908 30.7048 436.063 30.8842 436.176 31.0895C436.299 31.3126 436.378 31.5576 436.407 31.8108H435.578C435.52 31.534 435.367 31.2863 435.145 31.1111Z" fill="#767676"/>
<path d="M437.337 29.3799V28.3989H438.145V29.3799H437.337ZM438.145 30.296V35.1722H437.337V30.296H438.145Z" fill="#767676"/>
<path d="M443.704 35.1142C443.527 35.2074 443.327 35.2498 443.127 35.2368C443.038 35.2417 442.949 35.2289 442.865 35.1992C442.781 35.1695 442.703 35.1234 442.637 35.0637C442.567 34.9877 442.513 34.8975 442.481 34.7992C442.449 34.7009 442.438 34.5967 442.449 34.4939C442.247 34.7485 441.981 34.9451 441.678 35.0637C441.377 35.1812 441.056 35.2399 440.733 35.2368C440.522 35.2386 440.311 35.2144 440.106 35.1647C439.921 35.1199 439.747 35.039 439.594 34.9267C439.447 34.8165 439.329 34.6731 439.248 34.5083C439.155 34.3198 439.106 34.1126 439.104 33.9024C439.094 33.6686 439.141 33.4359 439.241 33.2243C439.329 33.0522 439.458 32.9038 439.616 32.7915C439.776 32.68 439.954 32.597 440.142 32.5463C440.341 32.4872 440.543 32.439 440.748 32.402C440.971 32.3587 441.18 32.3227 441.375 32.301C441.553 32.2847 441.729 32.2534 441.901 32.2073C442.033 32.1787 442.154 32.1165 442.255 32.0269C442.302 31.9848 442.339 31.9323 442.363 31.8735C442.387 31.8147 442.397 31.7512 442.392 31.6879C442.398 31.5395 442.363 31.3922 442.291 31.2623C442.228 31.161 442.141 31.0767 442.038 31.0171C441.928 30.9594 441.808 30.9204 441.685 30.9017C441.558 30.8942 441.43 30.8942 441.303 30.9017C441.009 30.8907 440.718 30.9579 440.459 31.0964C440.34 31.1737 440.243 31.281 440.179 31.4077C440.114 31.5343 440.084 31.6758 440.092 31.8177H439.291C439.291 31.5514 439.355 31.289 439.479 31.0531C439.586 30.8497 439.742 30.6762 439.933 30.5482C440.13 30.4209 440.347 30.3282 440.575 30.2741C440.83 30.2152 441.091 30.1862 441.353 30.1876C441.573 30.1864 441.793 30.2033 442.01 30.238C442.216 30.2653 442.416 30.3288 442.601 30.4256C442.773 30.5241 442.918 30.6657 443.019 30.8367C443.143 31.0561 443.2 31.3067 443.185 31.5581V34.0683C443.17 34.2049 443.17 34.3428 443.185 34.4794C443.185 34.566 443.279 34.6093 443.408 34.6093C443.492 34.6072 443.574 34.5926 443.653 34.566L443.704 35.1142ZM442.406 32.604C442.289 32.6905 442.153 32.7474 442.01 32.7699C441.841 32.8036 441.668 32.8324 441.49 32.8565L440.95 32.9358C440.781 32.9576 440.616 33.0012 440.459 33.0656C440.322 33.1276 440.2 33.2216 440.106 33.3397C440.006 33.4773 439.957 33.6459 439.969 33.8158C439.966 33.9314 439.993 34.0458 440.048 34.1476C440.101 34.2363 440.173 34.3125 440.257 34.3712C440.349 34.428 440.449 34.4695 440.553 34.4939C440.673 34.5052 440.794 34.5052 440.914 34.4939C441.144 34.4997 441.374 34.463 441.591 34.3857C441.761 34.324 441.918 34.231 442.053 34.1116C442.167 34.0121 442.258 33.889 442.32 33.7509C442.375 33.6385 442.404 33.5154 442.406 33.3902V32.604Z" fill="#767676"/>
<path d="M445.297 28.3989V35.1361H444.497V28.3989H445.297Z" fill="#767676"/>
<path d="M453.351 35.0565C452.974 35.2059 452.574 35.2841 452.169 35.2874C451.704 35.2957 451.243 35.1995 450.82 35.0061C450.437 34.839 450.093 34.5932 449.811 34.2847C449.536 33.9607 449.328 33.5857 449.198 33.1811C449.054 32.7709 448.981 32.3391 448.982 31.9044C448.978 31.4304 449.046 30.9587 449.183 30.505C449.305 30.0824 449.508 29.6878 449.782 29.3437C450.055 29.0086 450.397 28.7356 450.784 28.543C451.222 28.3385 451.7 28.2373 452.183 28.2473C452.531 28.245 452.878 28.2887 453.214 28.3771C453.527 28.4542 453.823 28.5887 454.086 28.7738C454.344 28.9696 454.56 29.2149 454.721 29.4951C454.906 29.8074 455.029 30.1529 455.081 30.5122H454.18C454.147 30.2759 454.064 30.0495 453.935 29.8486C453.821 29.6664 453.672 29.5093 453.495 29.3869C453.311 29.2664 453.109 29.1763 452.897 29.1201C452.661 29.0609 452.419 29.0318 452.176 29.0335C451.83 29.0202 451.487 29.0946 451.178 29.2498C450.869 29.4049 450.605 29.6357 450.409 29.9207C450.218 30.1986 450.079 30.509 449.998 30.8368C449.912 31.1812 449.868 31.5349 449.868 31.8899C449.867 32.2323 449.918 32.5729 450.02 32.8998C450.112 33.2108 450.261 33.5018 450.46 33.7582C450.655 34.0066 450.901 34.2107 451.181 34.3569C451.49 34.5072 451.832 34.5814 452.176 34.5733C452.496 34.5815 452.815 34.5251 453.113 34.4074C453.37 34.3025 453.602 34.1424 453.791 33.9385C453.983 33.7315 454.128 33.4854 454.216 33.2172C454.309 32.941 454.351 32.65 454.339 32.3588H452.176V31.587H455.132V35.1359H454.562L454.332 34.2992C454.079 34.6353 453.74 34.897 453.351 35.0565Z" fill="#767676"/>
<path d="M456.206 31.6951C456.301 31.3992 456.453 31.1247 456.653 30.8872C456.852 30.6571 457.098 30.4726 457.374 30.3462C458.028 30.0773 458.761 30.0773 459.415 30.3462C459.69 30.4739 459.936 30.6582 460.136 30.8872C460.336 31.1247 460.488 31.3992 460.583 31.6951C460.686 32.0216 460.737 32.3625 460.734 32.705C460.737 33.0427 460.686 33.3787 460.583 33.7004C460.488 33.9963 460.336 34.2707 460.136 34.5083C459.938 34.7375 459.692 34.9198 459.415 35.042C458.759 35.3019 458.03 35.3019 457.374 35.042C457.097 34.9207 456.85 34.7382 456.653 34.5083C456.453 34.2707 456.301 33.9963 456.206 33.7004C456.103 33.3787 456.052 33.0427 456.055 32.705C456.052 32.3625 456.103 32.0216 456.206 31.6951ZM457.021 33.4912C457.091 33.7006 457.201 33.8943 457.345 34.061C457.478 34.2136 457.643 34.3344 457.828 34.4145C458.015 34.4955 458.216 34.5373 458.42 34.5373C458.623 34.5373 458.824 34.4955 459.011 34.4145C459.196 34.3344 459.362 34.2136 459.494 34.061C459.639 33.8943 459.749 33.7006 459.819 33.4912C459.982 32.9773 459.982 32.4254 459.819 31.9115C459.747 31.7007 459.637 31.505 459.494 31.3344C459.36 31.1815 459.196 31.0586 459.011 30.9738C458.824 30.8928 458.623 30.851 458.42 30.851C458.216 30.851 458.015 30.8928 457.828 30.9738C457.644 31.0586 457.479 31.1815 457.345 31.3344C457.202 31.505 457.092 31.7007 457.021 31.9115C456.857 32.4254 456.857 32.9773 457.021 33.4912Z" fill="#767676"/>
<path d="M463.071 35.136L461.261 30.2959H462.176L463.539 34.3569L464.866 30.2959H465.71L463.929 35.172L463.071 35.136Z" fill="#767676"/>
<path d="M469.891 34.8259C469.491 35.1124 469.006 35.2571 468.514 35.2371C468.168 35.2481 467.824 35.1841 467.505 35.0495C467.227 34.9316 466.981 34.7514 466.784 34.523C466.58 34.2862 466.43 34.0081 466.344 33.7079C466.242 33.3756 466.186 33.031 466.178 32.6836C466.173 32.3368 466.232 31.9921 466.351 31.6665C466.452 31.3691 466.614 31.0962 466.827 30.8659C467.027 30.6395 467.273 30.4576 467.548 30.3321C467.839 30.2063 468.154 30.1425 468.471 30.1445C468.849 30.1329 469.223 30.2252 469.552 30.4114C469.832 30.597 470.067 30.8436 470.237 31.1327C470.412 31.4112 470.534 31.7192 470.598 32.0416C470.662 32.3473 470.689 32.6599 470.677 32.9721H467.029C467.019 33.179 467.044 33.3861 467.101 33.5852C467.158 33.7702 467.251 33.9419 467.375 34.0902C467.507 34.2431 467.672 34.3639 467.858 34.4436C468.086 34.5394 468.332 34.5838 468.579 34.5735C468.875 34.5882 469.169 34.5072 469.415 34.3426C469.645 34.1647 469.799 33.9074 469.848 33.6213H470.634C470.548 34.1023 470.282 34.5327 469.891 34.8259ZM469.697 31.6954C469.631 31.531 469.533 31.3814 469.408 31.2554C469.207 31.0621 468.954 30.9313 468.681 30.8788C468.407 30.8263 468.123 30.8544 467.865 30.9596C467.703 31.0283 467.556 31.1288 467.433 31.2554C467.311 31.3823 467.216 31.5318 467.151 31.6954C467.081 31.8652 467.04 32.0456 467.029 32.2292H469.826C469.813 32.0452 469.769 31.8648 469.697 31.6954Z" fill="#767676"/>
<path d="M472.271 30.2959V31.3202C472.427 30.9688 472.676 30.667 472.992 30.4474C473.312 30.2465 473.689 30.153 474.066 30.1805V31.0172C473.786 31.0098 473.508 31.0538 473.244 31.1471C473.029 31.2233 472.839 31.3582 472.696 31.5366C472.553 31.7172 472.45 31.9262 472.393 32.1497C472.318 32.4152 472.277 32.689 472.271 32.9648V35.1288H471.478V30.2959H472.271Z" fill="#767676"/>
<path d="M475.566 30.2958V31.0171C475.718 30.7332 475.948 30.4988 476.229 30.3416C476.51 30.1844 476.831 30.1109 477.152 30.1299C477.425 30.1209 477.698 30.1675 477.952 30.2669C478.15 30.3473 478.327 30.4705 478.472 30.6276C478.605 30.7915 478.699 30.9841 478.746 31.1902C478.805 31.426 478.834 31.6684 478.832 31.9116V35.1214H478.039V31.8322C478.047 31.7006 478.028 31.5687 477.984 31.4447C477.939 31.3207 477.87 31.2071 477.779 31.1109C477.684 31.0198 477.57 30.9491 477.446 30.9032C477.322 30.8573 477.19 30.8372 477.058 30.844C476.841 30.8378 476.625 30.8771 476.424 30.9594C476.251 31.0267 476.097 31.1357 475.977 31.2768C475.855 31.4214 475.762 31.5878 475.703 31.7673C475.643 31.9637 475.614 32.168 475.616 32.3732V35.1287H474.816V30.2958H475.566Z" fill="#767676"/>
<path d="M480.808 30.2959V31.0173C480.974 30.7534 481.207 30.5379 481.483 30.3923C481.758 30.2468 482.068 30.1762 482.379 30.1877C482.664 30.1849 482.946 30.2492 483.201 30.3753C483.326 30.4424 483.436 30.5338 483.525 30.644C483.615 30.7542 483.681 30.8811 483.72 31.0173C483.88 30.7605 484.104 30.5493 484.369 30.4041C484.64 30.2586 484.942 30.1841 485.249 30.1877C485.473 30.1861 485.695 30.2128 485.912 30.2671C486.098 30.3163 486.272 30.4021 486.424 30.5196C486.567 30.6369 486.679 30.7881 486.749 30.9596C486.834 31.1625 486.876 31.3813 486.871 31.6015V35.2082H486.071V31.9406C486.072 31.7975 486.057 31.6549 486.028 31.515C486.007 31.391 485.961 31.2729 485.891 31.1687C485.815 31.0696 485.716 30.9904 485.602 30.9379C485.452 30.8749 485.289 30.8453 485.126 30.8514C484.956 30.8429 484.785 30.8685 484.624 30.9267C484.463 30.9849 484.315 31.0745 484.189 31.1904C484.075 31.3118 483.987 31.4547 483.928 31.6107C483.87 31.7668 483.844 31.9328 483.85 32.0992V35.136H483.086V31.9406C483.087 31.7928 483.072 31.6453 483.043 31.5005C483.02 31.3784 482.971 31.2626 482.898 31.1615C482.828 31.0628 482.734 30.9834 482.624 30.9307C482.48 30.8743 482.325 30.8473 482.17 30.8514C481.962 30.8468 481.755 30.8965 481.572 30.9956C481.418 31.0829 481.281 31.1978 481.168 31.3346C481.062 31.4529 480.979 31.5899 480.923 31.7386C480.879 31.8514 480.854 31.971 480.851 32.092V35.1288H480.058V30.2959H480.808Z" fill="#767676"/>
<path d="M491.551 34.8259C491.149 35.1104 490.665 35.2549 490.174 35.2371C489.825 35.2473 489.479 35.1834 489.157 35.0495C488.88 34.9298 488.634 34.7499 488.436 34.523C488.235 34.2844 488.085 34.0069 487.996 33.7079C487.897 33.3753 487.843 33.0306 487.838 32.6836C487.83 32.3373 487.887 31.9926 488.003 31.6665C488.11 31.3717 488.271 31.1 488.479 30.8659C488.68 30.6395 488.925 30.4576 489.2 30.3321C489.489 30.2063 489.801 30.1424 490.116 30.1445C490.494 30.1329 490.868 30.2252 491.197 30.4114C491.492 30.5909 491.739 30.8383 491.918 31.1327C492.093 31.4112 492.215 31.7192 492.279 32.0416C492.343 32.3473 492.37 32.6599 492.358 32.9721H488.71C488.703 33.1794 488.73 33.3865 488.789 33.5852C488.84 33.7728 488.933 33.9458 489.063 34.0902C489.191 34.2445 489.354 34.3658 489.539 34.4436C489.767 34.539 490.013 34.5833 490.26 34.5735C490.554 34.5881 490.845 34.5072 491.089 34.3426C491.319 34.1647 491.473 33.9074 491.522 33.6213H492.315C492.218 34.1035 491.946 34.5326 491.551 34.8259ZM491.356 31.6954C491.288 31.5306 491.187 31.381 491.06 31.2554C490.936 31.1304 490.789 31.0301 490.628 30.9596C490.455 30.8857 490.268 30.8488 490.08 30.8514C489.895 30.847 489.712 30.8805 489.54 30.95C489.369 31.0195 489.214 31.1234 489.085 31.2554C488.968 31.386 488.873 31.5346 488.804 31.6954C488.737 31.8663 488.695 32.0462 488.681 32.2292H491.486C491.473 32.0452 491.429 31.8648 491.356 31.6954Z" fill="#767676"/>
<path d="M493.902 30.2958V31.0171C494.055 30.7344 494.286 30.5009 494.567 30.3439C494.847 30.1869 495.167 30.1127 495.488 30.1299C495.761 30.1194 496.034 30.1661 496.288 30.2669C496.488 30.343 496.666 30.4669 496.807 30.6276C496.941 30.7922 497.037 30.9843 497.089 31.1902C497.142 31.4269 497.169 31.6689 497.168 31.9115V35.1214H496.368V31.8322C496.377 31.6999 496.357 31.5673 496.311 31.4429C496.265 31.3186 496.194 31.2054 496.101 31.1109C496.005 31.0194 495.892 30.9485 495.768 30.9026C495.644 30.8567 495.512 30.8367 495.38 30.844C495.163 30.8378 494.946 30.8771 494.745 30.9594C494.573 31.0285 494.42 31.1372 494.298 31.2768C494.178 31.4213 494.088 31.588 494.031 31.7673C493.969 31.9633 493.938 32.1676 493.938 32.3732V35.1286H493.181V30.2958H493.902Z" fill="#767676"/>
<path d="M500.484 30.2957V31.017H499.518V34.0466C499.509 34.1208 499.509 34.1959 499.518 34.2702C499.529 34.323 499.56 34.3695 499.605 34.4C499.659 34.4399 499.725 34.4625 499.792 34.4649H500.095H500.463V35.1863H499.85C499.671 35.1884 499.492 35.1739 499.316 35.143C499.186 35.1233 499.064 35.0684 498.963 34.9843C498.865 34.9019 498.794 34.791 498.761 34.6669C498.706 34.4896 498.682 34.3042 498.689 34.1187V31.017H497.86V30.2957H498.689V28.853H499.497V30.2957H500.484Z" fill="#767676"/>
<path d="M505.02 28.3989V34.3787H508.581V35.1361H504.125V28.3989H505.02Z" fill="#767676"/>
<path d="M509.281 29.3799V28.3989H510.081V29.3799H509.281ZM510.081 30.296V35.1722H509.281V30.296H510.081Z" fill="#767676"/>
<path d="M512.079 30.2958V31.0171C512.231 30.7332 512.461 30.4988 512.742 30.3416C513.023 30.1844 513.343 30.1109 513.665 30.1299C513.938 30.1209 514.211 30.1675 514.465 30.2669C514.663 30.3473 514.84 30.4705 514.984 30.6276C515.118 30.7915 515.212 30.9841 515.258 31.1902C515.318 31.426 515.347 31.6684 515.345 31.9116V35.1214H514.537V31.8322C514.546 31.7006 514.527 31.5687 514.482 31.4447C514.438 31.3207 514.368 31.2071 514.278 31.1109C514.182 31.0198 514.069 30.9491 513.945 30.9032C513.821 30.8573 513.689 30.8372 513.557 30.844C513.34 30.8378 513.123 30.8771 512.922 30.9594C512.749 31.0267 512.596 31.1357 512.475 31.2768C512.354 31.4214 512.261 31.5878 512.201 31.7673C512.142 31.9637 512.113 32.168 512.115 32.3732V35.1287H511.314V30.2958H512.079Z" fill="#767676"/>
<path d="M517.421 28.3989V32.3879L519.642 30.296H520.716L518.784 32.0705L520.861 35.1722H519.858L518.186 32.6259L517.465 33.3472V35.1938H516.614V28.3989H517.421Z" fill="#767676"/>
<path d="M527.588 29.3219C527.249 29.0951 526.848 28.9815 526.441 28.9973C526.255 28.9959 526.069 29.0128 525.886 29.0478C525.712 29.0829 525.546 29.1489 525.396 29.2425C525.255 29.3303 525.139 29.4518 525.057 29.596C524.967 29.7644 524.925 29.9538 524.934 30.1442C524.927 30.3294 524.992 30.5102 525.115 30.6491C525.253 30.7897 525.42 30.898 525.605 30.9665C525.838 31.0565 526.08 31.1241 526.326 31.1685L527.112 31.3416C527.379 31.4065 527.645 31.4786 527.905 31.5652C528.16 31.6458 528.403 31.7624 528.626 31.9114C528.827 32.0536 528.994 32.2383 529.116 32.4524C529.244 32.7288 529.306 33.0313 529.296 33.3357C529.286 33.6401 529.205 33.9379 529.059 34.2053C528.901 34.4562 528.689 34.6683 528.438 34.8256C528.181 34.9927 527.895 35.1124 527.595 35.179C527.29 35.2506 526.978 35.2869 526.665 35.2872C526.304 35.2878 525.945 35.2393 525.598 35.143C525.278 35.0573 524.977 34.913 524.711 34.7174C524.458 34.5244 524.252 34.2781 524.105 33.9961C523.955 33.6633 523.881 33.3009 523.889 32.9357H524.732C524.728 33.1861 524.785 33.4338 524.898 33.657C525.001 33.8568 525.149 34.0297 525.331 34.162C525.519 34.298 525.732 34.396 525.958 34.4505C526.193 34.5132 526.436 34.5447 526.679 34.5443C526.885 34.5449 527.09 34.528 527.292 34.4938C527.483 34.4538 527.667 34.3883 527.84 34.299C528.002 34.2094 528.138 34.0804 528.237 33.9239C528.344 33.7433 528.397 33.5353 528.388 33.3252C528.397 33.1187 528.331 32.916 528.201 32.7554C528.066 32.6018 527.898 32.4809 527.71 32.4019C527.479 32.3008 527.237 32.2258 526.989 32.1783L526.203 32.0052C525.936 31.9475 525.677 31.8754 525.417 31.796C525.163 31.7275 524.921 31.6231 524.696 31.4859C524.497 31.3598 524.329 31.1895 524.206 30.9881C524.073 30.7535 524.008 30.4861 524.019 30.2163C524.01 29.9232 524.075 29.6325 524.209 29.3714C524.342 29.1104 524.54 28.8874 524.783 28.7232C525.02 28.5588 525.283 28.4367 525.562 28.3625C525.856 28.2843 526.159 28.2455 526.463 28.2471C526.786 28.2456 527.109 28.2868 527.422 28.3697C527.706 28.4433 527.971 28.576 528.201 28.7593C528.427 28.9345 528.608 29.1623 528.727 29.4229C528.865 29.7241 528.939 30.0509 528.943 30.3822H528.092C528.09 30.1795 528.044 29.9796 527.957 29.7965C527.869 29.6134 527.744 29.4515 527.588 29.3219Z" fill="#767676"/>
<path d="M530.991 28.3989V30.9741C531.052 30.8292 531.143 30.6989 531.258 30.5918C531.371 30.4878 531.5 30.4025 531.64 30.3393C531.78 30.273 531.928 30.2245 532.08 30.195C532.226 30.1608 532.376 30.1439 532.527 30.1445C532.8 30.1341 533.073 30.1807 533.327 30.2816C533.527 30.3577 533.705 30.4815 533.846 30.6422C533.98 30.8068 534.076 30.9989 534.127 31.2049C534.181 31.4415 534.208 31.6835 534.207 31.9262V35.1361H533.406V31.8324C533.415 31.7001 533.395 31.5674 533.348 31.4435C533.301 31.3195 533.228 31.2072 533.133 31.1141C533.039 31.021 532.926 30.9494 532.801 30.9041C532.676 30.8587 532.543 30.8408 532.411 30.8514C532.194 30.8452 531.978 30.8845 531.777 30.9668C531.605 31.0359 531.452 31.1447 531.33 31.2842C531.208 31.4273 531.117 31.5944 531.063 31.7747C530.998 31.9699 530.966 32.1748 530.969 32.3806V35.1361H530.169V28.3989H530.991Z" fill="#767676"/>
<path d="M535.317 31.6951C535.412 31.3975 535.566 31.1226 535.771 30.8872C535.97 30.6571 536.216 30.4726 536.492 30.3462C537.146 30.0773 537.879 30.0773 538.533 30.3462C538.809 30.4728 539.055 30.6573 539.254 30.8872C539.459 31.1226 539.614 31.3975 539.708 31.6951C539.811 32.0216 539.863 32.3625 539.86 32.705C539.862 33.0427 539.811 33.3787 539.708 33.7004C539.614 33.998 539.459 34.2729 539.254 34.5083C539.057 34.7382 538.81 34.9207 538.533 35.042C537.878 35.3019 537.148 35.3019 536.492 35.042C536.215 34.9207 535.968 34.7382 535.771 34.5083C535.566 34.2729 535.412 33.998 535.317 33.7004C535.22 33.3775 535.172 33.0421 535.173 32.705C535.171 32.3631 535.22 32.0228 535.317 31.6951ZM536.139 33.4912C536.202 33.7035 536.313 33.8985 536.464 34.061C536.595 34.2151 536.76 34.3362 536.947 34.4145C537.132 34.4986 537.334 34.5405 537.538 34.5371C537.739 34.5404 537.939 34.4985 538.122 34.4145C538.311 34.3364 538.478 34.2154 538.612 34.061C538.757 33.8943 538.867 33.7006 538.937 33.4912C539.09 32.9759 539.09 32.4268 538.937 31.9115C538.865 31.7007 538.755 31.505 538.612 31.3344C538.476 31.1807 538.309 31.0577 538.122 30.9738C537.938 30.8926 537.739 30.8508 537.538 30.8512C537.335 30.8515 537.133 30.8932 536.947 30.9738C536.761 31.0572 536.596 31.1804 536.464 31.3344C536.315 31.5013 536.205 31.6981 536.139 31.9115C535.976 32.4254 535.976 32.9773 536.139 33.4912Z" fill="#767676"/>
<path d="M541.568 30.2958V31.3201C541.727 30.9703 541.976 30.669 542.289 30.4473C542.611 30.2482 542.987 30.1549 543.364 30.1804V31.0171C543.087 31.0103 542.81 31.0543 542.549 31.147C542.334 31.2232 542.144 31.3581 542.001 31.5365C541.858 31.7171 541.755 31.9261 541.698 32.1496C541.631 32.4234 541.6 32.7046 541.605 32.9863V35.1503H540.804V30.2958H541.568Z" fill="#767676"/>
<path d="M546.068 30.2957V31.017H545.095V34.0466C545.082 34.1205 545.082 34.1962 545.095 34.2702C545.106 34.323 545.137 34.3695 545.181 34.4C545.236 34.4399 545.301 34.4625 545.369 34.4649H545.671H546.039V35.1863H545.426C545.247 35.1884 545.069 35.1739 544.893 35.143C544.763 35.1233 544.64 35.0684 544.539 34.9843C544.449 34.8833 544.392 34.7577 544.374 34.6236C544.325 34.4451 544.303 34.2604 544.309 34.0754V30.9737H543.479V30.2957H544.309V28.853H545.095V30.2957H546.068Z" fill="#767676"/>
<path d="M550.408 34.8259C550.007 35.1104 549.523 35.2549 549.031 35.2371C548.683 35.2473 548.336 35.1834 548.014 35.0495C547.737 34.9316 547.49 34.7514 547.293 34.523C547.092 34.2844 546.943 34.0069 546.854 33.7079C546.755 33.3748 546.7 33.0306 546.688 32.6836C546.683 32.3368 546.741 31.9921 546.861 31.6665C546.967 31.3717 547.129 31.1 547.337 30.8659C547.537 30.6395 547.783 30.4576 548.058 30.3321C548.346 30.2057 548.658 30.1418 548.973 30.1445C549.352 30.1329 549.726 30.2252 550.055 30.4114C550.348 30.5927 550.595 30.8396 550.776 31.1327C550.95 31.4112 551.073 31.7192 551.136 32.0416C551.201 32.3473 551.228 32.6599 551.216 32.9721H547.567C547.56 33.1794 547.587 33.3865 547.647 33.5852C547.698 33.7711 547.789 33.9435 547.913 34.0902C548.046 34.2431 548.211 34.3639 548.397 34.4436C548.625 34.539 548.871 34.5833 549.118 34.5735C549.412 34.5881 549.703 34.5072 549.947 34.3426C550.176 34.1647 550.33 33.9074 550.379 33.6213H551.173C551.075 34.1035 550.803 34.5326 550.408 34.8259ZM550.214 31.6954C550.145 31.5306 550.045 31.381 549.918 31.2554C549.794 31.1304 549.647 31.0301 549.485 30.9596C549.312 30.8865 549.126 30.8497 548.937 30.8514C548.753 30.847 548.569 30.8805 548.398 30.95C548.227 31.0195 548.072 31.1234 547.942 31.2554C547.699 31.5235 547.557 31.8676 547.539 32.2292H550.336C550.329 32.0451 550.287 31.8641 550.214 31.6954Z" fill="#767676"/>
<path d="M552.773 30.2958V31.0171C552.927 30.7344 553.157 30.5009 553.438 30.3439C553.719 30.1869 554.038 30.1127 554.359 30.1299C554.644 30.126 554.927 30.1825 555.189 30.2958C555.389 30.3719 555.567 30.4957 555.708 30.6564C555.842 30.821 555.938 31.0131 555.989 31.2191C556.043 31.4557 556.069 31.6977 556.068 31.9404V35.1503H555.268V31.8322C555.277 31.6999 555.257 31.5672 555.21 31.4433C555.163 31.3193 555.089 31.207 554.995 31.1139C554.901 31.0208 554.787 30.9492 554.663 30.9038C554.538 30.8585 554.405 30.8406 554.273 30.8512C554.056 30.845 553.84 30.8843 553.638 30.9666C553.466 31.0339 553.312 31.1429 553.191 31.284C553.069 31.4271 552.978 31.5942 552.925 31.7745C552.859 31.9697 552.827 32.1746 552.831 32.3804V35.1359H552.016V30.2958H552.773Z" fill="#767676"/>
<path d="M560.711 34.8259C560.31 35.1104 559.826 35.2549 559.334 35.2371C558.986 35.2473 558.639 35.1834 558.318 35.0495C558.041 34.9298 557.795 34.7499 557.597 34.523C557.396 34.2844 557.246 34.0069 557.157 33.7079C557.057 33.3753 557.004 33.0306 556.998 32.6836C556.991 32.3373 557.047 31.9926 557.164 31.6665C557.27 31.3717 557.432 31.1 557.64 30.8659C557.84 30.6395 558.086 30.4576 558.361 30.3321C558.65 30.2063 558.962 30.1424 559.277 30.1445C559.655 30.1329 560.029 30.2252 560.358 30.4114C560.652 30.5909 560.9 30.8383 561.079 31.1327C561.254 31.4112 561.376 31.7192 561.44 32.0416C561.504 32.3473 561.531 32.6599 561.519 32.9721H557.871C557.864 33.1794 557.89 33.3865 557.95 33.5852C558 33.7728 558.094 33.9458 558.224 34.0902C558.352 34.2445 558.515 34.3658 558.7 34.4436C558.928 34.539 559.174 34.5833 559.421 34.5735C559.715 34.5881 560.006 34.5072 560.25 34.3426C560.479 34.1647 560.634 33.9074 560.683 33.6213H561.476C561.378 34.1035 561.106 34.5326 560.711 34.8259ZM560.517 31.6954C560.448 31.5306 560.348 31.381 560.221 31.2554C560.097 31.1304 559.95 31.0301 559.789 30.9596C559.615 30.8857 559.429 30.8488 559.241 30.8514C559.056 30.847 558.872 30.8805 558.701 30.95C558.53 31.0195 558.375 31.1234 558.246 31.2554C558.129 31.386 558.034 31.5346 557.964 31.6954C557.897 31.8663 557.856 32.0462 557.842 32.2292H560.647C560.633 32.0452 560.59 31.8648 560.517 31.6954Z" fill="#767676"/>
<path d="M563.048 30.2956V31.3199C563.206 30.9701 563.455 30.6688 563.769 30.4471C564.09 30.2471 564.466 30.1537 564.843 30.1802V31.0169C564.563 31.0108 564.285 31.0548 564.021 31.1468C563.808 31.2268 563.619 31.361 563.473 31.5363C563.329 31.7157 563.228 31.9253 563.177 32.1494C563.124 32.4176 563.105 32.6914 563.12 32.9645V35.1285H562.319V30.2956H563.048Z" fill="#767676"/>
<path d="M420.984 49.0504C420.766 49.2487 420.509 49.4003 420.23 49.4958C419.951 49.5913 419.656 49.6288 419.362 49.6058C419.141 49.6064 418.921 49.5822 418.706 49.5337C418.492 49.493 418.287 49.4148 418.1 49.3029C417.92 49.2009 417.767 49.0574 417.653 48.8845C417.527 48.6996 417.459 48.4809 417.458 48.257H418.179C418.176 48.3849 418.222 48.5091 418.309 48.6032C418.388 48.6991 418.487 48.7776 418.598 48.834C418.719 48.8933 418.847 48.937 418.98 48.9639C419.109 48.9739 419.239 48.9739 419.369 48.9639C419.588 48.9708 419.805 48.9264 420.004 48.834C420.173 48.7535 420.319 48.632 420.429 48.4806C420.548 48.3171 420.632 48.1303 420.674 47.9324C420.727 47.6956 420.751 47.4535 420.746 47.211V46.9081C420.625 47.1776 420.417 47.3986 420.155 47.5356C419.892 47.6645 419.604 47.7312 419.311 47.7304C419 47.7397 418.692 47.6755 418.41 47.5429C418.164 47.4268 417.947 47.2567 417.776 47.0451C417.602 46.831 417.47 46.5864 417.386 46.3238C417.298 46.0339 417.255 45.7323 417.256 45.4294C417.258 45.1447 417.294 44.8612 417.365 44.5854C417.431 44.3055 417.551 44.0411 417.718 43.8064C417.891 43.563 418.118 43.363 418.381 43.2221C418.69 43.0624 419.036 42.9854 419.383 42.9985C419.661 42.9972 419.935 43.0614 420.184 43.186C420.427 43.3169 420.626 43.5179 420.753 43.7631V43.1067H421.474V47.3192C421.535 47.9375 421.36 48.5557 420.984 49.0504ZM420.018 46.973C420.189 46.8753 420.332 46.7364 420.436 46.5691C420.547 46.3914 420.628 46.1963 420.674 45.992C420.775 45.5846 420.775 45.1587 420.674 44.7513C420.629 44.5637 420.55 44.3854 420.443 44.2248C420.337 44.0554 420.188 43.9177 420.01 43.8263C419.832 43.7349 419.633 43.6931 419.434 43.7054C419.231 43.6959 419.03 43.7371 418.847 43.8253C418.665 43.9135 418.507 44.0458 418.388 44.2103C418.294 44.3683 418.228 44.5416 418.194 44.7225C418.141 44.93 418.115 45.1432 418.114 45.3572C418.115 45.5657 418.136 45.7736 418.179 45.9776C418.214 46.1786 418.285 46.3717 418.388 46.5474C418.489 46.7125 418.627 46.851 418.792 46.9514C418.979 47.0636 419.195 47.1188 419.412 47.1101C419.626 47.1068 419.835 47.0471 420.018 46.9369V46.973Z" fill="#767676"/>
<path d="M422.52 44.4625C422.611 44.1807 422.758 43.9205 422.953 43.6979C423.152 43.4754 423.398 43.3004 423.674 43.1858C424.294 42.9355 424.986 42.9355 425.606 43.1858C425.881 43.3025 426.127 43.4772 426.327 43.6979C426.52 43.9211 426.664 44.1813 426.753 44.4625C426.835 44.7825 426.867 45.1136 426.846 45.4435C426.848 45.7641 426.799 46.0829 426.702 46.3884C426.609 46.6543 426.464 46.8993 426.277 47.1098C426.076 47.3305 425.83 47.5052 425.556 47.6219C424.934 47.8621 424.245 47.8621 423.623 47.6219C423.348 47.5072 423.101 47.3322 422.902 47.1098C422.712 46.9 422.565 46.6549 422.47 46.3884C422.375 46.0825 422.329 45.7637 422.333 45.4435C422.342 45.1086 422.406 44.7774 422.52 44.4625ZM423.299 46.1648C423.367 46.3634 423.472 46.547 423.609 46.7058C423.735 46.8507 423.893 46.9643 424.07 47.0376C424.246 47.1139 424.435 47.1532 424.626 47.1532C424.817 47.1532 425.006 47.1139 425.181 47.0376C425.356 46.9605 425.513 46.8475 425.642 46.7058C425.78 46.5484 425.883 46.3642 425.945 46.1648C426.021 45.9318 426.06 45.6885 426.06 45.4435C426.059 45.1986 426.02 44.9554 425.945 44.7222C425.883 44.5228 425.78 44.3386 425.642 44.1812C425.516 44.0352 425.358 43.9194 425.181 43.8422C425.006 43.7659 424.817 43.7266 424.626 43.7266C424.435 43.7266 424.246 43.7659 424.07 43.8422C423.891 43.9157 423.733 44.0321 423.609 44.1812C423.472 44.34 423.367 44.5237 423.299 44.7222C423.227 44.9558 423.19 45.199 423.191 45.4435C423.189 45.6881 423.226 45.9314 423.299 46.1648Z" fill="#767676"/>
<path d="M428.908 46.7202V47.7084H427.92V46.7202H428.908Z" fill="#767676"/>
<path d="M433.681 49.0502C433.463 49.2485 433.207 49.4001 432.928 49.4956C432.649 49.5911 432.353 49.6286 432.059 49.6056C431.838 49.6062 431.618 49.582 431.403 49.5335C431.189 49.4927 430.984 49.4146 430.797 49.3027C430.617 49.2006 430.464 49.0572 430.35 48.8843C430.224 48.6993 430.156 48.4807 430.156 48.2568H430.877C430.874 48.3833 430.918 48.5064 430.999 48.603C431.083 48.6975 431.183 48.7757 431.295 48.8338C431.416 48.8931 431.545 48.9367 431.677 48.9637C431.807 48.9737 431.937 48.9737 432.066 48.9637C432.285 48.9706 432.502 48.9262 432.701 48.8338C432.87 48.7532 433.016 48.6318 433.126 48.4804C433.245 48.3169 433.329 48.1301 433.371 47.9322C433.424 47.6954 433.448 47.4533 433.443 47.2108V46.9079C433.322 47.1774 433.114 47.3984 432.852 47.5354C432.59 47.6643 432.301 47.731 432.009 47.7302C431.698 47.7395 431.389 47.6753 431.107 47.5426C430.86 47.4248 430.641 47.2551 430.466 47.0449C430.297 46.8288 430.168 46.5846 430.083 46.3236C429.996 46.0337 429.952 45.7321 429.954 45.4292C429.955 45.1445 429.991 44.861 430.062 44.5852C430.129 44.3053 430.249 44.0409 430.415 43.8062C430.587 43.5646 430.811 43.3649 431.071 43.2219C431.383 43.0631 431.731 42.9862 432.081 42.9983C432.359 42.997 432.633 43.0612 432.881 43.1859C433.125 43.3167 433.323 43.5177 433.451 43.7629V43.1065H434.172V47.319C434.232 47.9373 434.057 48.5555 433.681 49.0502ZM432.715 46.9728C432.884 46.873 433.028 46.7346 433.133 46.5689C433.245 46.3912 433.325 46.1961 433.371 45.9918C433.463 45.5833 433.463 45.1596 433.371 44.7511C433.323 44.5645 433.245 44.3868 433.141 44.2246C433.035 44.0552 432.885 43.9175 432.707 43.8261C432.53 43.7347 432.331 43.6929 432.131 43.7052C431.914 43.6976 431.698 43.7447 431.504 43.8423C431.339 43.9328 431.197 44.0584 431.086 44.2101C430.971 44.3712 430.888 44.5522 430.841 44.7439C430.79 44.9517 430.766 45.1649 430.768 45.3787C430.769 45.5871 430.79 45.795 430.833 45.999C430.868 46.2 430.939 46.3931 431.042 46.5689C431.143 46.7339 431.281 46.8725 431.446 46.9728C431.633 47.085 431.849 47.1402 432.066 47.1315C432.297 47.1296 432.522 47.0621 432.715 46.9367V46.9728Z" fill="#767676"/>
<path d="M435.225 44.4625C435.315 44.1807 435.462 43.9205 435.657 43.6979C435.855 43.4737 436.102 43.2984 436.378 43.1858C436.998 42.9355 437.691 42.9355 438.311 43.1858C438.587 43.2996 438.833 43.4747 439.032 43.6979C439.229 43.9185 439.377 44.1793 439.464 44.4625C439.561 44.7706 439.61 45.0917 439.608 45.4147C439.61 45.7352 439.561 46.054 439.464 46.3596C439.371 46.627 439.223 46.8725 439.032 47.0809C438.833 47.3041 438.587 47.4793 438.311 47.5931C437.689 47.8332 437 47.8332 436.378 47.5931C436.102 47.4804 435.855 47.3051 435.657 47.0809C435.467 46.8711 435.32 46.626 435.225 46.3596C435.13 46.0536 435.084 45.7348 435.088 45.4147C435.084 45.0921 435.13 44.7709 435.225 44.4625ZM435.996 46.1648C436.064 46.3634 436.169 46.547 436.306 46.7058C436.431 46.8489 436.586 46.9622 436.76 47.0376C436.937 47.1158 437.129 47.1552 437.323 47.1531C437.514 47.1553 437.703 47.1159 437.878 47.0376C438.052 46.9622 438.207 46.8489 438.332 46.7058C438.472 46.5488 438.577 46.3646 438.642 46.1648C438.715 45.9314 438.752 45.6881 438.75 45.4435C438.751 45.199 438.715 44.9558 438.642 44.7222C438.577 44.5224 438.472 44.3382 438.332 44.1812C438.21 44.0338 438.054 43.9177 437.878 43.8422C437.703 43.7639 437.514 43.7245 437.323 43.7268C437.129 43.7246 436.937 43.764 436.76 43.8422C436.584 43.9177 436.429 44.0338 436.306 44.1812C436.169 44.34 436.064 44.5237 435.996 44.7222C435.924 44.9558 435.887 45.199 435.888 45.4435C435.886 45.6881 435.923 45.9314 435.996 46.1648Z" fill="#767676"/>
<path d="M441.706 47.7085L439.998 43.1064H440.848L442.139 46.9439L443.43 43.1064H444.223L442.543 47.7085H441.706Z" fill="#767676"/>
<path d="M445.398 46.7202V47.7084H444.411V46.7202H445.398Z" fill="#767676"/>
<path d="M447.294 46.6841C447.365 46.7961 447.462 46.89 447.576 46.9582C447.697 47.0265 447.828 47.0752 447.965 47.1025C448.112 47.1315 448.262 47.146 448.412 47.1457H448.787C448.911 47.1284 449.032 47.0944 449.147 47.0448C449.256 47.001 449.351 46.9287 449.421 46.8356C449.497 46.7336 449.535 46.6088 449.53 46.4821C449.533 46.3958 449.514 46.31 449.475 46.2329C449.436 46.1559 449.378 46.0902 449.306 46.0421C449.136 45.9307 448.948 45.8479 448.751 45.7969C448.527 45.7319 448.282 45.6742 448.03 45.6237C447.784 45.575 447.543 45.5051 447.309 45.4146C447.097 45.3275 446.908 45.1945 446.754 45.025C446.587 44.8233 446.507 44.5642 446.53 44.3037C446.523 44.0952 446.578 43.8893 446.689 43.7122C446.788 43.549 446.924 43.4108 447.085 43.3083C447.256 43.1986 447.443 43.1182 447.64 43.0703C447.842 43.0249 448.047 43.0008 448.253 42.9981C448.495 42.9966 448.737 43.0184 448.974 43.063C449.18 43.1026 449.375 43.1809 449.551 43.2939C449.724 43.4061 449.865 43.5599 449.962 43.7411C450.074 43.9651 450.133 44.2119 450.135 44.4624H449.414C449.41 44.3316 449.37 44.2044 449.299 44.0945C449.237 43.9967 449.153 43.915 449.054 43.8565C448.948 43.7972 448.833 43.7535 448.715 43.7267C448.594 43.7 448.471 43.6879 448.347 43.6906H448.008C447.899 43.7088 447.792 43.7403 447.691 43.7844C447.601 43.8259 447.522 43.8876 447.46 43.9647C447.394 44.0458 447.361 44.1487 447.367 44.2532C447.366 44.3145 447.378 44.3753 447.403 44.4313C447.428 44.4873 447.465 44.5373 447.511 44.5778C447.611 44.6711 447.729 44.7446 447.857 44.7942C448.014 44.8538 448.176 44.902 448.34 44.9385L448.873 45.0539C449.061 45.0972 449.248 45.1477 449.429 45.2054C449.601 45.2582 449.765 45.3386 449.912 45.4434C450.048 45.5423 450.163 45.6674 450.251 45.8113C450.342 45.9816 450.387 46.1733 450.38 46.3667C450.395 46.6189 450.335 46.8699 450.207 47.088C450.094 47.2713 449.938 47.4246 449.753 47.5353C449.555 47.6475 449.341 47.7278 449.119 47.7733C448.881 47.8173 448.639 47.8391 448.398 47.8382C448.155 47.8374 447.913 47.8108 447.677 47.7589C447.458 47.7086 447.25 47.6181 447.064 47.492C446.884 47.3699 446.735 47.2067 446.631 47.0159C446.522 46.7909 446.463 46.5447 446.458 46.2946H447.215C447.208 46.429 447.235 46.5631 447.294 46.6841Z" fill="#767676"/>
<path d="M454.62 49.0502C454.402 49.2485 454.145 49.4001 453.866 49.4956C453.587 49.5911 453.292 49.6286 452.998 49.6056C452.777 49.6058 452.557 49.5816 452.342 49.5335C452.128 49.4902 451.924 49.4122 451.736 49.3027C451.557 49.1985 451.405 49.0556 451.289 48.8843C451.169 48.6964 451.102 48.4797 451.094 48.2568H451.815C451.818 48.3835 451.864 48.5055 451.945 48.603C452.027 48.6991 452.128 48.7776 452.241 48.8338C452.359 48.8931 452.485 48.9368 452.616 48.9637C452.745 48.9737 452.875 48.9737 453.005 48.9637C453.224 48.9706 453.441 48.9262 453.639 48.8338C453.81 48.7555 453.957 48.6335 454.065 48.4804C454.184 48.3169 454.268 48.1301 454.31 47.9322C454.365 47.6957 454.392 47.4536 454.389 47.2108V46.9079C454.27 47.179 454.062 47.4007 453.798 47.5354C453.538 47.665 453.252 47.7317 452.962 47.7302C452.651 47.7404 452.342 47.6761 452.06 47.5427C451.812 47.4269 451.593 47.2568 451.419 47.0449C451.245 46.8308 451.113 46.5862 451.029 46.3236C450.941 46.0337 450.898 45.7322 450.899 45.4292C450.901 45.1445 450.937 44.8611 451.008 44.5852C451.075 44.3053 451.194 44.0409 451.361 43.8062C451.536 43.5645 451.762 43.3649 452.024 43.2219C452.334 43.0631 452.679 42.9862 453.027 42.9983C453.307 42.9961 453.584 43.0604 453.834 43.1859C454.075 43.3198 454.273 43.52 454.404 43.7629V43.1065H455.125V47.319C455.185 47.9395 455.004 48.5592 454.62 49.0502ZM453.654 46.9728C453.825 46.8732 453.971 46.7349 454.079 46.5689C454.185 46.3893 454.263 46.1947 454.31 45.9918C454.361 45.7816 454.388 45.5662 454.389 45.3498C454.391 45.148 454.366 44.9468 454.317 44.7511C454.271 44.5649 454.196 44.3871 454.094 44.2246C453.986 44.0688 453.846 43.9384 453.683 43.8423C453.496 43.7447 453.287 43.6975 453.077 43.7052C452.862 43.6985 452.649 43.7456 452.457 43.8423C452.289 43.9307 452.143 44.0565 452.032 44.2101C451.919 44.3715 451.839 44.5526 451.794 44.7439C451.741 44.9514 451.714 45.1646 451.714 45.3787C451.714 45.5871 451.736 45.795 451.779 45.999C451.82 46.1995 451.893 46.392 451.995 46.5689C452.093 46.7336 452.229 46.8723 452.392 46.9728C452.581 47.086 452.799 47.1412 453.019 47.1315C453.245 47.1285 453.465 47.0609 453.654 46.9367V46.9728Z" fill="#767676"/>
<path d="M390.528 28.3917L397.111 30.1445C397.231 30.177 397.34 30.2399 397.429 30.3271C397.517 30.4143 397.582 30.5228 397.616 30.6423L399.425 36.8456V40.8057C399.425 41.4428 399.173 42.0537 398.722 42.5042C398.272 42.9546 397.661 43.2077 397.024 43.2077H382.604C381.332 43.202 380.115 42.6926 379.217 41.7909C378.32 40.8892 377.816 39.6688 377.816 38.3965V20.4716C377.818 19.1968 378.326 17.9749 379.228 17.0742C380.129 16.1735 381.351 15.6676 382.626 15.6676H394.616C395.249 15.6638 395.877 15.7852 396.463 16.0249C397.049 16.2647 397.581 16.6179 398.03 17.0644C398.479 17.5109 398.836 18.0417 399.079 18.6265C399.322 19.2112 399.447 19.8383 399.447 20.4716V22.0296H386.57C385.932 22.0296 385.321 22.2825 384.869 22.7327C384.418 23.183 384.163 23.7939 384.161 24.4317V36.1892C384.161 36.3805 384.237 36.564 384.373 36.6993C384.508 36.8346 384.691 36.9106 384.882 36.9106H389.807C389.998 36.9106 390.182 36.8346 390.317 36.6993C390.452 36.564 390.528 36.3805 390.528 36.1892V28.3917Z" fill="#384A51"/>
<path d="M388.971 49.5116C387.713 49.5097 386.508 49.0091 385.618 48.1194C384.729 47.2297 384.228 46.0236 384.227 44.7653V43.2794H397.025C397.677 43.2794 398.304 43.0205 398.766 42.5594C399.228 42.0983 399.489 41.4727 399.491 40.8197V29.1126C399.491 28.9085 399.411 28.7125 399.268 28.5668C399.125 28.4211 398.93 28.3374 398.726 28.3336H390.463V36.1888C390.463 36.3636 390.395 36.5313 390.272 36.6555C390.149 36.7798 389.982 36.8505 389.807 36.8524H384.883C384.708 36.8505 384.541 36.7798 384.418 36.6555C384.295 36.5313 384.227 36.3636 384.227 36.1888V24.4312C384.228 23.8101 384.476 23.2149 384.915 22.7756C385.354 22.3364 385.949 22.0888 386.57 22.0869H401.459C402.719 22.0888 403.926 22.5903 404.817 23.4813C405.707 24.3723 406.209 25.5803 406.211 26.8404V44.7653C406.209 46.0248 405.707 47.232 404.816 48.1219C403.925 49.0118 402.718 49.5116 401.459 49.5116H388.971Z" fill="#8CA6AD"/>
<path d="M401.459 22.1519C402.702 22.1519 403.894 22.6459 404.773 23.5252C405.652 24.4045 406.146 25.597 406.146 26.8405V44.7654C406.144 46.0077 405.649 47.1984 404.77 48.0761C403.892 48.9538 402.701 49.4468 401.459 49.4468H388.971C387.729 49.4468 386.538 48.9538 385.659 48.0761C384.781 47.1984 384.286 46.0077 384.284 44.7654V43.3228H397.025C397.694 43.3228 398.336 43.0568 398.809 42.5833C399.282 42.1099 399.548 41.4677 399.548 40.7982V29.1127C399.548 28.8926 399.462 28.6811 399.309 28.5235C399.155 28.3658 398.946 28.2744 398.726 28.2688H390.406V36.2033C390.406 36.3621 390.343 36.5144 390.23 36.6267C390.118 36.7389 389.966 36.802 389.807 36.802H384.883C384.724 36.802 384.572 36.7389 384.459 36.6267C384.347 36.5144 384.284 36.3621 384.284 36.2033V24.4313C384.286 23.8261 384.528 23.2464 384.956 22.8191C385.385 22.3918 385.965 22.1519 386.57 22.1519H401.459ZM401.459 22.0293H386.57C385.932 22.0293 385.321 22.2821 384.87 22.7324C384.418 23.1827 384.164 23.7936 384.162 24.4313V36.1889C384.162 36.3802 384.238 36.5637 384.373 36.6989C384.508 36.8342 384.691 36.9102 384.883 36.9102H389.807C389.998 36.9102 390.182 36.8342 390.317 36.6989C390.452 36.5637 390.528 36.3802 390.528 36.1889V28.3914H398.726C398.918 28.3914 399.101 28.4674 399.236 28.6026C399.371 28.7379 399.447 28.9214 399.447 29.1127V40.8054C399.447 41.1208 399.385 41.4331 399.265 41.7246C399.144 42.016 398.967 42.2808 398.744 42.5038C398.521 42.7269 398.257 42.9038 397.965 43.0245C397.674 43.1452 397.362 43.2074 397.046 43.2074H384.162V44.7654C384.164 46.0402 384.671 47.2621 385.573 48.1628C386.474 49.0635 387.697 49.5695 388.971 49.5695H401.459C402.09 49.5704 402.715 49.4468 403.299 49.2058C403.882 48.9648 404.413 48.6111 404.859 48.1649C405.306 47.7188 405.66 47.1888 405.902 46.6055C406.144 46.0222 406.268 45.3969 406.268 44.7654V26.8405C406.269 26.2084 406.145 25.5824 405.904 24.9982C405.663 24.4141 405.309 23.8833 404.862 23.4364C404.415 22.9894 403.884 22.6351 403.301 22.3936C402.717 22.1522 402.091 22.0284 401.459 22.0293Z" fill="#7F9DA5"/>
<path d="M580.374 74.7075H449.71C441.402 74.7075 433.435 78.0071 427.558 83.8813C421.68 89.7554 418.375 97.7235 418.367 106.035C418.367 110.152 419.178 114.23 420.753 118.034C422.328 121.838 424.637 125.295 427.547 128.207C433.425 134.087 441.397 137.391 449.71 137.391H457.641L467.426 147.179L477.21 137.391H580.316C584.437 137.398 588.519 136.593 592.329 135.02C596.138 133.448 599.6 131.139 602.516 128.227C605.433 125.315 607.747 121.855 609.326 118.047C610.904 114.239 611.717 110.157 611.717 106.035C611.709 97.7235 608.404 89.7554 602.527 83.8813C596.65 78.0071 588.682 74.7075 580.374 74.7075Z" fill="#384A51" stroke="black" stroke-linecap="round" stroke-linejoin="round"/>
<path d="M449.768 94.5947H581.96" stroke="#F7C5A8" stroke-linecap="round" stroke-linejoin="round"/>
<path d="M449.768 105.977H581.96" stroke="#F7C5A8" stroke-linecap="round" stroke-linejoin="round"/>
<path d="M449.768 117.367H581.96" stroke="#F7C5A8" stroke-linecap="round" stroke-linejoin="round"/>
<path d="M219.725 148.391L224.93 143.58L253.959 170.507L250.31 175.412L219.725 148.391Z" fill="#8CA6AD"/>
<path fill-rule="evenodd" clip-rule="evenodd" d="M236.445 192.154C237.253 199.042 238.017 217.876 238.118 239.501C238.176 252.125 236.164 277.688 232.09 309.982L220.309 309.895C215.817 269.184 212.897 236.01 211.541 216.592C209.436 222.911 206.999 229.958 204.331 237.316C197.943 255.147 179.167 296.262 173.327 306.563C169.671 313.019 161.221 307.371 162.843 301.651C164.465 295.931 187.358 199.302 195.657 181.435C198.426 175.469 212.579 175.534 217.576 182.942C224.779 180.057 235.176 181.327 236.445 192.154Z" fill="#B28B67"/>
<path fill-rule="evenodd" clip-rule="evenodd" d="M212.738 289.886C213.243 283.986 207.309 209.653 209.01 189.853C209.731 181.132 239.344 176.097 241.348 192.673L237.895 292.093L212.738 289.886Z" fill="#8CA6AD"/>
<path fill-rule="evenodd" clip-rule="evenodd" d="M234.145 307.198C233.963 306.806 233.634 306.501 233.229 306.351C232.823 306.201 232.375 306.218 231.982 306.397C230.416 307.224 228.7 307.73 226.935 307.883C225.435 307.883 223.484 307.327 221.08 306.217L219.689 302.862C219.644 302.764 219.581 302.675 219.502 302.601C219.423 302.527 219.331 302.469 219.229 302.431C219.128 302.393 219.021 302.375 218.913 302.378C218.805 302.382 218.698 302.407 218.6 302.451L197.092 312.095C195.376 312.355 193.227 312.651 190.602 312.975C187.978 313.3 187.322 315.449 188.533 319.424L234.852 319.323C235.263 317.181 235.504 315.011 235.573 312.831C235.416 310.919 234.948 309.045 234.188 307.284L234.145 307.198Z" fill="#384A51"/>
<path fill-rule="evenodd" clip-rule="evenodd" d="M177.516 303.115C177.518 302.622 177.325 302.149 176.979 301.799C176.633 301.449 176.163 301.25 175.67 301.247C172.988 301.247 171.027 300.929 169.772 300.345C168.229 299.624 166.499 298.116 164.567 295.822L164.754 291.711C164.756 291.588 164.734 291.467 164.689 291.353C164.644 291.24 164.577 291.136 164.492 291.048C164.407 290.961 164.305 290.891 164.193 290.842C164.081 290.793 163.961 290.768 163.838 290.766L137.16 290.326C135.271 289.763 132.928 289.027 130.109 288.111C127.29 287.195 125.552 289.071 124.889 293.738L172.476 315.897C173.93 313.903 175.22 311.794 176.334 309.592C176.918 308.344 177.329 306.238 177.552 303.281C177.546 303.224 177.534 303.169 177.516 303.115Z" fill="#384A51"/>
<path fill-rule="evenodd" clip-rule="evenodd" d="M208.96 173.709C230.432 179.227 264.63 226.611 289.801 239.205C323.329 255.983 337.338 287.989 337.338 287.989C333.408 319.222 303.378 329.674 281.516 312.355C221.282 264.632 218.182 209.206 216.372 209.278C215.16 209.328 205.376 238.361 187.004 286.568L164.119 275.878C166.412 270.944 180.119 208.794 190.552 186.433C193.429 180.223 199.774 171.351 208.96 173.709Z" fill="#8CA6AD"/>
<path d="M261.977 200.839C256.511 207.648 274.234 216.643 274.234 216.643C274.234 216.643 313.342 189.233 314.857 185.792C318.541 177.396 322.261 154.544 305.952 155.121C301.388 155.28 277.298 181.774 261.977 200.839Z" fill="#FDF3E8"/>
<path d="M304.229 160.538L334.267 148.665C334.267 148.665 358.241 156.138 357.303 185.59C355.465 242.899 344.036 290.953 344.036 290.953C344.036 290.953 323.04 282.709 306.305 268.592C289.57 254.476 284.473 242.076 284.473 242.076L304.229 160.538Z" fill="#FDF3E8"/>
<g style="mix-blend-mode:multiply">
<path d="M194.676 261.581C194.676 261.581 213.142 213.252 216.35 209.278C216.35 209.278 222.292 263.637 280.327 311.8C280.327 311.8 261.119 295.274 238.767 262.714C222.515 239.032 216.538 209.783 216.538 209.783L194.676 261.581Z" fill="#8CA6AD"/>
</g>
<path d="M250.152 173.19C249.799 172.844 221.989 148.275 221.499 147.85C221.008 147.424 220.157 147.85 219.725 148.391C219.522 148.634 219.414 148.943 219.42 149.259C219.427 149.576 219.548 149.88 219.761 150.115C220.179 150.49 247.881 175.44 248.191 175.722C248.739 176.263 249.9 175.945 250.311 175.412C250.528 175.074 250.631 174.675 250.602 174.274C250.573 173.874 250.415 173.493 250.152 173.19Z" fill="#384A51"/>
<path d="M239.675 173.32C239.675 173.32 237.159 158.663 236.251 156.347C235.342 154.032 233.814 150.021 233.222 149.935C232.631 149.848 230.468 150.158 233.222 157.054C235.977 163.95 230.172 159.485 230.172 159.485L224.541 154.436C224.269 154.607 224.074 154.877 223.996 155.188C223.919 155.5 223.964 155.83 224.123 156.109C223.805 156.347 223.58 156.687 223.484 157.072C223.388 157.457 223.428 157.863 223.597 158.223C223.241 158.563 222.99 158.997 222.871 159.474C222.753 159.952 222.772 160.453 222.926 160.92C221.679 162.233 222.695 164.65 224.123 165.869C233.085 173.493 233.496 178.852 233.496 178.852L239.675 173.32Z" fill="#B28B67"/>
<path d="M233.482 178.817C233.482 178.817 248.422 228.227 279.058 237.965C284.473 239.689 330.164 205.506 330.164 205.506L320.899 192.017L280.933 221.735C271.372 207.266 246.612 189.564 239.676 173.32C235.962 164.628 233.482 178.817 233.482 178.817Z" fill="#B28B67"/>
<path d="M332.976 172.923L299.369 204.135L309.5 221.18C304.575 223.574 347.62 196.395 348.356 190.574C349.466 181.73 351.961 172.764 341.715 170.55C340.174 170.256 338.586 170.317 337.072 170.728C335.558 171.139 334.157 171.89 332.976 172.923Z" fill="#FDF3E8"/>
<g style="mix-blend-mode:multiply">
<g style="mix-blend-mode:multiply">
<path d="M344.722 194.621C344.573 194.863 344.402 195.09 344.21 195.299C343.813 195.775 320.416 214.371 309.68 221.454L309.392 221.649L309.219 221.346C306.428 216.628 309.464 221.685 306.334 216.405C303.4 211.42 302.196 208.239 299.557 203.76L299.413 203.515L299.636 203.334C309.73 195.061 316.811 186.261 323.077 181.125L330.402 175.196L332.385 173.63C332.609 173.438 332.851 173.267 333.106 173.118C332.915 173.339 332.703 173.539 332.472 173.717L330.561 175.369C328.838 176.811 326.401 178.889 323.351 181.449C317.128 186.636 310.084 195.501 300.062 203.847L300.141 203.421C302.787 207.893 303.998 211.074 306.933 216.051C310.048 221.339 307.012 216.282 309.817 221.007L309.356 220.899C320.063 213.873 343.734 195.652 344.152 195.227C344.322 195.007 344.513 194.804 344.722 194.621Z" fill="#FDF3E8"/>
</g>
</g>
<path fill-rule="evenodd" clip-rule="evenodd" d="M312.427 77.6221H314.698C328.196 77.6221 339.141 93.7292 339.141 107.24V125.994C339.141 132.009 336.925 137.812 332.918 142.295C328.91 146.778 323.391 149.627 317.417 150.295C317.417 150.36 317.417 150.418 317.417 150.476H284.437C279.224 145.376 282.526 112.065 285.201 99.8893C288.583 84.4602 300.162 77.6221 312.427 77.6221Z" fill="black"/>
<path fill-rule="evenodd" clip-rule="evenodd" d="M334.158 149.892C334.158 149.892 331.671 161.577 318.88 163.366C309.146 164.722 304.539 155.626 304.539 155.626L304.762 139.375C304.762 139.375 299.672 140.608 296.918 138.899C284.732 131.354 285.778 104.845 292.361 92.5608C298.944 80.2766 332.825 74.9172 334.533 99.2619C335.125 107.709 331.577 115.254 326.335 121.399L334.158 149.892Z" fill="#B28B67"/>
<path fill-rule="evenodd" clip-rule="evenodd" d="M315.304 106.179C306.183 100.524 295.916 99.1751 293.27 90.0936C296.803 84.8856 300.963 78.7544 314.129 78.7544C321 78.7544 334.599 78.7544 339.141 113.378C340.439 123.217 349.697 129.839 347.967 149.891H321.952C316.645 140.081 318.909 134.368 319.176 122.834C319.414 111.957 315.809 105.797 315.304 106.179Z" fill="black"/>
<path fill-rule="evenodd" clip-rule="evenodd" d="M291.741 93.823C291.741 93.823 289.787 102.479 289.787 104.578L296.24 104.679L295.367 96.3693L297.826 104.513L315.304 106.179L293.269 90.0938L291.741 93.823Z" fill="black"/>
<g style="mix-blend-mode:multiply">
<path fill-rule="evenodd" clip-rule="evenodd" d="M304.762 139.374C304.762 139.374 311.518 138.689 315.671 135.897C315.671 135.897 313.999 140.442 304.762 141.906V139.374Z" fill="#B28B67"/>
</g>
<path fill-rule="evenodd" clip-rule="evenodd" d="M297.509 130.517C297.509 130.517 302.902 133.301 305.801 127.985C303.37 129.677 300.47 130.562 297.509 130.517Z" fill="black"/>
<path fill-rule="evenodd" clip-rule="evenodd" d="M294.488 111.647C294.322 111.445 291.531 110.572 289.909 112.289C289.729 112.476 289.909 112.757 290.032 112.649C290.564 112.194 291.229 111.924 291.928 111.877C293.796 111.567 294.834 112.079 294.488 111.647Z" fill="black"/>
<path fill-rule="evenodd" clip-rule="evenodd" d="M310.235 111.647C310.069 111.445 307.286 110.572 305.657 112.289C305.476 112.476 305.657 112.757 305.786 112.649C306.317 112.192 306.983 111.921 307.683 111.877C309.543 111.567 310.588 112.079 310.235 111.647Z" fill="black"/>
<path fill-rule="evenodd" clip-rule="evenodd" d="M297.941 113.363C297.941 113.363 293.86 124.522 297.84 125.078C299.507 125.268 301.185 124.826 302.541 123.837C302.541 123.837 298.446 124.926 297.415 124.118C296.384 123.31 296.341 120.807 297.941 113.363Z" fill="black"/>
<path d="M291.611 115.808C292.34 115.808 292.93 115.218 292.93 114.488C292.93 113.759 292.34 113.168 291.611 113.168C290.882 113.168 290.292 113.759 290.292 114.488C290.292 115.218 290.882 115.808 291.611 115.808Z" fill="black"/>
<path d="M307.343 115.498C308.072 115.498 308.663 114.907 308.663 114.178C308.663 113.449 308.072 112.858 307.343 112.858C306.615 112.858 306.024 113.449 306.024 114.178C306.024 114.907 306.615 115.498 307.343 115.498Z" fill="black"/>
<g style="mix-blend-mode:multiply">
<path d="M299.325 124.83C300.714 124.8 301.833 124.43 301.824 124.004C301.814 123.577 300.681 123.256 299.291 123.286C297.902 123.316 296.783 123.686 296.792 124.112C296.801 124.539 297.935 124.86 299.325 124.83Z" fill="#B28B67"/>
</g>
<path d="M542.442 126.221C544.515 125.577 545.604 123.15 544.875 120.798C544.146 118.447 541.875 117.062 539.802 117.705C537.729 118.348 536.64 120.776 537.369 123.127C538.098 125.479 540.369 126.864 542.442 126.221Z" fill="#E5B5A1"/>
<path d="M463.698 261.675C463.698 261.675 490.441 247.797 553.184 269.335C553.184 269.335 635.806 244.558 657.394 258.797L562.766 317.029L463.698 261.675Z" fill="#8CA6AD"/>
<path d="M512.648 178.961L489.719 228.891C486.395 234.662 486.778 244.515 489.171 247.689C492.322 251.858 499.107 252.312 506.836 252.096L544.856 254.383L545.945 239.372L502.965 235.152L534.098 189.968L512.648 178.961Z" fill="#E5B5A1"/>
<path d="M599.719 260.91L574.88 269.105C574.88 269.105 566.833 261.891 574.058 257.722C608.725 237.626 617.73 239.025 617.73 239.025C609.554 231.718 583.489 189.975 583.489 189.975L600.887 179.61L627.76 226.409C627.76 226.409 641.769 251.742 619.143 257.044L599.719 260.91Z" fill="#E5B5A1"/>
<path d="M524.076 209.011L502.503 197.643C502.503 197.643 506.902 185.488 511.394 174.791C514.732 166.857 516.398 162.067 543.89 154.969L573.726 155.315C577.98 155.777 579.494 156.65 584.361 157.768C599.279 161.187 612.481 198.162 612.481 198.162L594.874 208.982L590.908 208.102C590.339 210.901 595.076 271.153 595.076 271.153L518.474 272.74L524.076 209.011Z" fill="#FDF3E8"/>
<path d="M599.012 282.074L600.887 226.38H512.475L516.21 282.701L599.012 282.074Z" fill="black"/>
<path d="M550.74 253.632C550.74 254.808 551.088 255.957 551.741 256.934C552.394 257.912 553.322 258.674 554.407 259.123C555.493 259.573 556.688 259.691 557.84 259.462C558.992 259.232 560.051 258.666 560.882 257.835C561.713 257.004 562.279 255.945 562.508 254.792C562.737 253.639 562.62 252.444 562.17 251.358C561.72 250.272 560.959 249.343 559.982 248.69C559.005 248.037 557.856 247.688 556.681 247.688C555.105 247.688 553.594 248.315 552.48 249.429C551.366 250.544 550.74 252.056 550.74 253.632Z" fill="#FAFAFA"/>
<path d="M612.33 311.994C612.33 311.994 623.332 311.36 628.553 312.586C633.773 313.812 635.878 319.59 635.388 323.406C634.898 327.221 631.53 334.536 612.409 332.22L612.33 311.994Z" fill="#8CA6AD"/>
<path d="M503.167 306.859C501.242 306.705 499.309 307.014 497.528 307.759C495.747 308.504 494.17 309.665 492.928 311.143C488.71 316.193 492.092 322.858 496.296 324.971C500.499 327.085 503.088 327.474 510.716 326.746L503.167 306.859Z" fill="#8CA6AD"/>
<path d="M525.432 307.429C525.432 307.429 516.614 314.404 529.419 323.738C529.419 323.738 552.29 318.155 554.049 317.506L546.399 302.661L525.432 307.429Z" fill="#E5B5A1"/>
<path d="M575.226 323.153L590.857 328.037C590.857 328.037 608.054 323.038 592.552 309.867L577.122 307.703L575.226 323.153Z" fill="#E5B5A1"/>
<path d="M520.349 304.918C520.349 304.918 505.928 306.187 501.133 307.233C496.338 308.279 489.056 317.231 496.886 323.672C504.717 330.114 525.547 324.689 529.419 323.737L525.432 307.428L520.349 304.918Z" fill="#384A51"/>
<path d="M592.552 309.859C592.552 309.859 621.487 312.745 627.046 314.079C632.605 315.414 637.681 324.423 628.863 329.472C620.045 334.521 597.765 331.925 590.858 328.03L592.552 309.859Z" fill="#384A51"/>
<path d="M579.74 305.61C579.74 305.61 554.734 290.592 543.609 282.918C532.484 275.243 502.114 259.309 477.354 259.446C452.594 259.583 452.082 271.824 452.291 275.416C452.587 279.744 454.454 295.613 472.033 300.972C485.329 305.026 568.355 324.596 574.656 325.418L579.74 305.61Z" fill="#8CA6AD"/>
<path d="M544.539 320.362L537.163 302.834C537.163 302.834 557.741 292.93 564.814 287.686C571.888 282.442 608.934 254.967 644.74 255.803C680.546 256.64 665.65 279.766 663.797 282.348C661.944 284.93 652.88 297.251 638.006 300.259C623.131 303.267 550.653 321.033 544.539 320.362Z" fill="#8CA6AD"/>
<path d="M459.228 263.168C459.228 263.168 492.914 240.67 573.567 301.874C573.567 301.874 504.558 242.199 459.228 263.168Z" fill="black"/>
<path d="M559.63 291.055C559.63 291.055 572.609 281.757 580.028 277.385C587.447 273.014 625.215 248.41 659.889 258.343C659.889 258.343 645.915 251.75 619.828 258.436C594.088 265.029 562.291 287.383 559.219 290.586L559.63 291.055Z" fill="black"/>
<path d="M579.105 308.063L574.642 325.418L548.043 319.59L574.08 324.704L579.105 308.063Z" fill="black"/>
<path fill-rule="evenodd" clip-rule="evenodd" d="M541.338 108.307C543.27 80.7451 577.728 86.1334 583.77 100.719C585.933 105.883 587.62 121.327 582.984 135.472C579.639 145.7 569.732 147.251 569.732 147.251L569.977 155.186C569.977 155.186 566.372 165.493 555.376 163.95C540.956 161.937 541.756 155.77 541.756 155.77C541.756 155.77 540.667 117.872 541.338 108.307Z" fill="#E5B5A1"/>
<g style="mix-blend-mode:multiply">
<path fill-rule="evenodd" clip-rule="evenodd" d="M569.732 147.251C569.732 147.251 562.074 146.48 557.38 143.313C557.38 143.313 559.262 148.463 569.732 150.122V147.251Z" fill="#B28B67"/>
</g>
<path fill-rule="evenodd" clip-rule="evenodd" d="M571.404 131.858C571.404 131.858 568.643 134.087 566.479 131.252C568.009 131.992 569.741 132.205 571.404 131.858Z" fill="black"/>
<path fill-rule="evenodd" clip-rule="evenodd" d="M574.613 113.342C574.757 113.075 577.8 111.481 580.121 113.003C580.374 113.176 580.266 113.515 580.057 113.428C579.317 113.048 578.479 112.904 577.656 113.017C575.377 113.096 574.31 113.897 574.613 113.342Z" fill="black"/>
<path fill-rule="evenodd" clip-rule="evenodd" d="M558.7 113.378C558.873 113.104 562.428 111.437 565.038 112.931C565.334 113.096 565.189 113.443 564.951 113.356C564.088 112.988 563.141 112.861 562.211 112.988C559.616 113.118 558.332 113.969 558.7 113.378Z" fill="black"/>
<path fill-rule="evenodd" clip-rule="evenodd" d="M570.056 113.176C570.957 119.668 573.236 125.59 571.945 126.095C571.211 126.436 570.382 126.517 569.596 126.324C568.81 126.132 568.112 125.677 567.619 125.034C567.619 125.034 571.606 126.823 571.484 124.933C571.376 123.397 570.056 113.176 570.056 113.176Z" fill="black"/>
<path d="M576.884 117.489C577.709 117.489 578.377 116.821 578.377 115.996C578.377 115.171 577.709 114.503 576.884 114.503C576.06 114.503 575.392 115.171 575.392 115.996C575.392 116.821 576.06 117.489 576.884 117.489Z" fill="black"/>
<path d="M561.404 117.345C562.228 117.345 562.896 116.677 562.896 115.852C562.896 115.027 562.228 114.359 561.404 114.359C560.579 114.359 559.911 115.027 559.911 115.852C559.911 116.677 560.579 117.345 561.404 117.345Z" fill="black"/>
<g style="mix-blend-mode:multiply">
<path fill-rule="evenodd" clip-rule="evenodd" d="M571.57 125.929C573.366 124.4 570.078 125.323 568.506 125.287C566.934 125.251 571.203 126.232 571.57 125.929Z" fill="#B28B67"/>
</g>
<path d="M574.562 86.2416C574.562 86.2416 581.463 84.9215 585.926 93.4115C587.937 97.2345 587.735 104.065 584.613 105.883C582.032 107.376 573.596 101.108 573.596 101.108C561.923 109.526 562.355 101.108 555.571 106.201C545.815 113.573 541.965 120.245 541.965 120.245C541.965 120.245 536.918 121.183 535.05 114.352C533.356 108.206 533.096 103.957 536.355 97.1119C545.945 77.023 570.128 82.6349 574.562 86.2416Z" fill="black"/>
<g style="mix-blend-mode:multiply">
<path d="M222.919 160.898C224.329 163.119 226.051 165.125 228.031 166.857L222.919 160.898Z" fill="#B28B67"/>
</g>
<g style="mix-blend-mode:multiply">
<path d="M223.589 158.201C223.589 158.201 225.911 162.111 228.276 163.878C228.276 163.878 224.051 158.93 223.589 158.201Z" fill="#B28B67"/>
</g>
<g style="mix-blend-mode:multiply">
<path d="M224.116 156.087C225.229 157.528 226.433 158.897 227.721 160.185C227.721 160.185 224.736 156.347 224.116 156.087Z" fill="#B28B67"/>
</g>
</g>
<defs>
<clipPath id="clip0">
<rect width="843" height="418" fill="white"/>
</clipPath>
</defs>
</svg>
