<svg width="668" height="372" viewBox="0 0 668 372" fill="none" xmlns="http://www.w3.org/2000/svg">
<g clip-path="url(#clip0)">
<path d="M149.628 69.2008C160.809 41.3518 158.339 45.8033 177.586 44.2666C177.705 43.4536 179.104 34.2037 179.739 30.3867C180.453 26.1038 173.191 18.0039 176.028 8.91261C178.866 -0.178696 186.535 1.5662 189.918 2.60719C194.997 4.18355 200.989 11.5795 200.037 17.5677C199.085 23.5559 202.507 29.8514 199.045 33.361C197.646 34.8982 196.02 36.2122 194.223 37.2573L194.809 46.5072C201.198 48.7478 205.057 46.7848 207.319 49.5508C217.746 62.2906 237.3 94.5018 244.185 98.745C251.071 102.988 280.447 110.573 288.125 111.832C292.98 112.666 297.741 113.971 302.342 115.728C308.999 120.685 304.247 122.767 302.342 122.777L298.562 121.399C294.782 120.031 290.139 121.746 290.139 121.746C290.139 121.746 296.152 125.355 294.782 126.554C293.413 127.754 281.369 122.777 278.611 121.746C275.853 120.715 256.606 119.168 240.782 114.013C224.959 108.857 208.44 89.1382 208.44 89.1382C205.692 96.3557 198.291 118.603 198.291 119.634C198.291 120.665 143.725 115.163 143.725 115.163C143.725 115.163 139.479 94.4621 149.628 69.2008Z" fill="#AF897B"/>
<path d="M411.592 130.213C416.553 124.532 457.08 83.9731 455.929 73.5235C454.709 62.4494 444.024 73.5235 439.49 77.3305C438.696 78.9565 437.307 82.0299 436.464 83.6657C430.383 95.4239 411.096 120.051 408.556 121.716C406.017 123.382 384.677 116.145 380.172 116.085C380.172 116.085 377.424 115.421 371.095 114.37C369.989 114.37 368.924 114.792 368.118 115.55C368.019 115.55 363.872 119.515 363.525 121.221C363.029 123.6 363.198 124.77 363.753 124.572C363.753 124.572 368.714 120.021 370.787 119.615C371.345 119.702 371.893 119.841 372.424 120.031C372.424 120.031 372.315 120.685 370.628 121.25C366.779 122.529 367.414 123.531 367.652 123.749C367.89 123.967 370.103 123.194 371.392 122.757C372.682 122.321 379.776 121.161 379.776 121.161C387.058 121.687 409.985 132.047 411.592 130.213Z" fill="#EAC3B7"/>
<path d="M334 372C518.463 372 668 348.435 668 319.365C668 290.296 518.463 266.731 334 266.731C149.537 266.731 0 290.296 0 319.365C0 348.435 149.537 372 334 372Z" fill="#F9F9F9"/>
<path d="M325.994 344.389C345.07 346.483 364.199 340.933 379.187 328.955C394.174 316.977 403.798 299.549 405.947 280.492L412.346 222.99L383.575 219.787L377.176 277.29C375.667 288.532 369.814 298.737 360.87 305.721C351.925 312.704 340.601 315.912 329.32 314.656C318.039 313.4 307.698 307.782 300.511 299.003C293.323 290.223 289.86 278.981 290.864 267.683L297.282 210.18L268.512 206.978L262.093 264.48C259.991 283.54 265.537 302.654 277.516 317.633C289.494 332.612 306.928 342.234 325.994 344.389ZM425.204 107.955C426.576 89.2824 420.653 70.8048 408.679 56.404C396.705 42.0031 379.613 32.7998 360.992 30.7272C342.371 28.6547 323.671 33.8742 308.82 45.2893C293.969 56.7045 284.122 73.4269 281.349 91.9439L274.96 149.446L303.731 152.648L310.13 95.1462C310.641 89.3869 312.299 83.7878 315.006 78.6776C317.712 73.5673 321.413 69.049 325.891 65.3879C330.37 61.7268 335.534 58.9966 341.083 57.3578C346.632 55.7189 352.452 55.2044 358.202 55.8444C363.952 56.4844 369.517 58.2661 374.569 61.0848C379.62 63.9035 384.058 67.7024 387.62 72.2584C391.182 76.8145 393.798 82.0359 395.313 87.616C396.828 93.1961 397.212 99.0225 396.443 104.753L390.024 162.255L418.795 165.448L425.204 107.955Z" fill="#FDF3E8"/>
<path d="M338.324 100.437L319.321 271.347L347.009 274.421L366.012 103.512L338.324 100.437Z" fill="#F7C5A8"/>
<path d="M339.715 99.4392L366.501 102.413L347.513 273.017L320.726 270.042L339.715 99.4392ZM338.842 98.3486L319.615 270.905L348.386 274.107L367.622 101.6L338.852 98.3982L338.842 98.3486Z" fill="#F7C5A8"/>
<path d="M325.994 344.389C306.924 342.241 289.485 332.624 277.5 317.646C265.516 302.669 259.964 283.553 262.063 264.491L268.482 206.988L297.253 210.191" stroke="black" stroke-width="0.5" stroke-miterlimit="10"/>
<path d="M418.755 165.468L425.174 107.965C427.267 88.9017 421.712 69.7861 409.727 54.8077C397.741 39.8293 380.303 30.2098 361.233 28.0571" stroke="black" stroke-width="0.5" stroke-miterlimit="10"/>
<path d="M348.386 274.107L319.615 270.905L338.842 98.3979" stroke="black" stroke-width="0.5" stroke-miterlimit="10"/>
<path d="M464.975 37.9896C465.811 29.3458 458.703 21.5867 449.099 20.6592C439.494 19.7317 431.031 25.9869 430.195 34.6307C429.359 43.2745 436.467 51.0336 446.071 51.9612C455.676 52.8887 464.139 46.6334 464.975 37.9896Z" fill="black"/>
<path d="M452.397 95.3246C447.537 95.2718 442.68 95.6033 437.873 96.316C437.347 93.3418 437.714 90.4369 437.873 87.3933C437.972 85.6781 439.728 83.5962 441.077 81.6629C442.486 79.583 444.6 78.0828 447.03 77.4394C448.409 77.0924 449.202 76.6562 449.689 74.6436C450.631 70.678 441.603 52.6639 441.603 52.6639L458.181 48.3413C458.181 48.3413 466.475 69.9741 468.042 73.0772C469.61 76.1803 473.559 78.8473 479.809 81.6629C476.207 86.3325 475.146 93.1931 475.731 99.1416C468.846 93.9862 459.937 95.4634 452.397 95.3246Z" fill="#EAC3B7"/>
<g style="mix-blend-mode:multiply">
<path d="M453.607 61.7353C452.337 62.7267 448.349 64.6402 446.95 64.7095C444.788 58.3248 442.982 52.1681 442.982 52.1681L455.641 46.3584C458.121 52.7035 457.357 58.9494 453.607 61.7353Z" fill="#F5CFBF"/>
</g>
<path d="M458.952 49.5071C462.024 48.4511 463.658 45.106 462.602 42.0356C461.545 38.9651 458.197 37.3322 455.125 38.3882C452.052 39.4442 450.418 42.7894 451.475 45.8598C452.532 48.9302 455.879 50.5632 458.952 49.5071Z" fill="#EAC3B7"/>
<path d="M435.412 48.3415C437.089 56.5108 441.603 62.4593 448.617 60.9524C454.57 59.723 458.439 52.1089 457.169 43.9198C455.899 35.7307 451.455 29.7425 443.171 31.4279C431.265 33.8569 433.736 40.2317 435.412 48.3415Z" fill="#EAC3B7"/>
<path d="M450.532 39.1511C449.96 38.9897 449.37 38.8965 448.776 38.8735C448.179 38.8521 447.581 38.8853 446.99 38.9726C446.403 39.0643 445.826 39.2069 445.264 39.3989C444.696 39.5826 444.153 39.8357 443.647 40.1524C443.626 40.172 443.613 40.1977 443.609 40.2256C443.605 40.2535 443.61 40.282 443.623 40.3067C443.637 40.3315 443.658 40.3511 443.684 40.3627C443.709 40.3742 443.738 40.3769 443.766 40.3705C444.292 40.1722 444.847 39.9938 445.403 39.8451C445.951 39.6985 446.507 39.586 447.069 39.508C447.631 39.4159 448.197 39.3629 448.766 39.3494C449.338 39.3196 449.911 39.3196 450.482 39.3494C450.499 39.3507 450.515 39.3487 450.531 39.3433C450.546 39.338 450.561 39.3294 450.573 39.3182C450.585 39.307 450.595 39.2935 450.601 39.2783C450.608 39.2632 450.611 39.2469 450.611 39.2304C450.606 39.2117 450.595 39.1946 450.582 39.1808C450.568 39.167 450.551 39.1568 450.532 39.1511Z" fill="black"/>
<path d="M434.123 41.8772C434.496 41.7323 434.877 41.6066 435.263 41.5005C436.414 41.1874 437.617 41.1198 438.795 41.3022C438.824 41.3082 438.849 41.3229 438.869 41.3442C438.889 41.3655 438.901 41.3924 438.904 41.4211C438.906 41.4376 438.904 41.4541 438.898 41.4697C438.893 41.4853 438.885 41.4996 438.873 41.5118C438.862 41.5239 438.849 41.5335 438.833 41.5401C438.818 41.5467 438.802 41.5501 438.785 41.55C438.211 41.5663 437.638 41.6126 437.069 41.6888C436.502 41.7572 435.942 41.8699 435.392 42.0259C434.995 42.1207 434.604 42.2399 434.222 42.3828C434.218 42.2099 434.184 42.0389 434.123 41.8772Z" fill="black"/>
<path d="M446.742 43.0372C446.785 43.2418 446.907 43.4212 447.082 43.5363C447.256 43.6514 447.469 43.693 447.674 43.6519C447.782 43.6299 447.883 43.5864 447.973 43.5239C448.062 43.4614 448.138 43.3813 448.196 43.2885C448.253 43.1957 448.291 43.0922 448.307 42.9842C448.324 42.8762 448.317 42.7661 448.29 42.6605C448.276 42.5517 448.24 42.4469 448.183 42.3528C448.127 42.2586 448.052 42.1772 447.962 42.1136C447.873 42.0501 447.771 42.0057 447.664 41.9834C447.556 41.9611 447.445 41.9613 447.338 41.984C447.231 42.0067 447.129 42.0514 447.04 42.1153C446.951 42.1792 446.876 42.2609 446.82 42.3552C446.764 42.4495 446.728 42.5544 446.714 42.6633C446.701 42.7722 446.71 42.8826 446.742 42.9877V43.0372Z" fill="black"/>
<path d="M435.631 45.278C435.661 45.4321 435.737 45.5736 435.849 45.6844C435.96 45.7953 436.102 45.8706 436.257 45.9007C436.411 45.9308 436.571 45.9144 436.716 45.8535C436.861 45.7927 436.985 45.6901 437.071 45.5589C437.158 45.4277 437.204 45.2738 437.202 45.1166C437.201 44.9594 437.154 44.8061 437.065 44.6761C436.977 44.5462 436.851 44.4454 436.706 44.3866C436.56 44.3279 436.4 44.3137 436.246 44.346C436.144 44.3661 436.047 44.4063 435.96 44.4642C435.874 44.522 435.8 44.5965 435.743 44.6833C435.686 44.77 435.646 44.8672 435.627 44.9693C435.608 45.0714 435.609 45.1764 435.631 45.278Z" fill="black"/>
<path d="M441.534 52.3366C441.623 52.7629 442.288 52.991 443.032 52.8323C443.776 52.6737 444.302 52.2077 444.212 51.7814C444.123 51.3551 443.577 51.7814 442.833 51.95C442.089 52.1185 441.484 51.9004 441.534 52.3366Z" fill="black"/>
<path d="M430.065 36.9499C430.333 32.4985 433.339 25.3305 440.978 24.7753C442.919 24.6516 444.864 24.9149 446.702 25.5498C448.54 26.1846 450.233 27.1784 451.683 28.4733L463.588 41.9863C453.498 45.5753 448.806 33.0041 445.561 32.1416C444.258 31.8555 442.928 31.7026 441.593 31.6855C441.335 38.8336 435.541 37.2474 434.47 39.4979C433.041 42.4721 436.216 49.4121 435.64 49.5013C435.065 49.5905 429.638 43.761 430.065 36.9499Z" fill="black"/>
<path d="M516.01 322.211C518.342 318.076 519.463 316.054 522.459 314.19C519.84 301.867 513.351 267.008 511.417 248.132C509.036 224.962 508.073 196.489 503.48 175.104L482.864 178.207C484.75 186.757 486.18 195.401 487.15 204.103C489.134 220.501 490.126 235.184 497.577 263.658C503.936 287.957 512.826 313.605 512.796 316.074C512.717 321.864 513.649 326.375 516.01 322.211Z" fill="#EAC3B7"/>
<path d="M433.25 322.875C433.922 323.331 434.695 323.617 435.502 323.708C437.287 323.986 440.462 323.708 444.252 320.684C448.042 317.66 449.093 316.907 452.566 316.263C454.619 303.82 451.236 272.045 456.127 240.617C459.927 216.159 469.292 198.829 471.634 176.701L450.175 172.279C450.175 172.279 449.411 190.333 448.191 208.366C446.99 226.648 446.534 230.782 443.994 256.539C441.524 281.533 443.081 311.801 442.139 314.042C439.976 319.485 433.706 321.408 433.25 322.875Z" fill="#EAC3B7"/>
<path d="M440.968 301.877C436.137 263.886 429.261 246.199 432.585 210.359C435.075 183.402 444.589 160.263 444.897 149.813C445.601 125.444 451.792 128.309 452 120.735L490.811 111.723C492.468 117.354 495.921 120.764 500.851 137.549C507.796 161.343 508.689 189.886 513.907 219.272C520.167 254.467 530.356 284.299 533.263 299.577C534.682 307.072 510.574 312.644 509.225 308.083C507.875 303.522 479.184 229.345 473.807 181.489C473.807 181.489 465.533 205.779 462.229 230.703C457.834 263.826 475.821 300.3 467.189 302.7C460.016 304.682 441.484 305.495 440.968 301.877Z" fill="#FFBF8A"/>
<path d="M533.263 299.607C534.682 307.102 510.574 312.673 509.225 308.113C507.875 303.552 479.184 229.345 473.807 181.489C473.807 181.489 466.019 150.953 466.574 133.673" stroke="black" stroke-width="0.5" stroke-miterlimit="10"/>
<path d="M467.17 302.7C460.016 304.682 441.434 305.495 440.968 301.877C436.137 263.886 429.261 246.199 432.585 210.359C435.075 183.402 444.589 160.262 444.897 149.813C445.601 125.444 451.792 128.309 452 120.735L490.811 111.723" stroke="black" stroke-width="0.5" stroke-miterlimit="10"/>
<g style="mix-blend-mode:multiply" opacity="0.3">
<path d="M473.806 181.489C473.806 181.489 465.532 205.779 462.229 230.703C457.834 263.826 475.82 300.3 467.189 302.7C460.036 304.683 441.454 305.495 440.988 301.877C436.156 263.886 429.281 246.199 432.604 210.359C435.095 183.402 444.609 160.263 444.916 149.813C445.621 125.444 451.812 128.309 452.02 120.735L466.564 117.354C466.564 117.354 464.441 149.446 473.806 181.489Z" fill="#FFBF8A"/>
</g>
<path d="M442.813 70.0137C442.317 70.6779 450.75 72.4823 450.75 76.1505C450.849 84.4686 444.034 97.7436 444.034 97.7436L432.882 88.0872C435.08 83.893 437.067 79.5914 438.835 75.1988C439.517 73.0606 440.924 71.227 442.813 70.0137Z" fill="#456682"/>
<path d="M443.161 86.6499C443.051 83.7947 440.918 72.9287 441.613 71.858C442.516 70.4502 442.198 70.1329 444.649 68.7945C445.516 68.3425 446.351 67.8324 447.149 67.2677C447.149 67.2677 451.742 70.7476 456.316 69.8355C463.955 68.2988 464.302 62.5089 464.302 62.5089C467.056 62.4273 469.811 62.6736 472.507 63.2426L473.33 78.322C476.604 77.8759 478.559 77.7371 478.559 77.7371L484.6 86.2732C488.022 94.2426 490.486 102.589 491.942 111.138C492.081 112.07 492.517 112.734 490.216 114.36C485.156 117.939 467.665 124.393 452.645 122.678C450.413 122.42 450.284 121.905 449.669 119.704C446.98 109.373 443.26 89.5151 443.161 86.6499Z" fill="#456682"/>
<path d="M484.601 86.3125C488.022 94.2819 490.486 102.628 491.942 111.177C492.081 112.109 492.518 112.773 490.216 114.399C485.156 117.978 467.666 124.433 452.645 122.717C450.413 122.46 450.284 121.944 449.669 119.743" stroke="black" stroke-width="0.5" stroke-miterlimit="10"/>
<path fill-rule="evenodd" clip-rule="evenodd" d="M454.163 312.485C454.937 313.677 455.514 314.986 455.869 316.362C456.091 317.964 456.184 319.582 456.147 321.2L422.257 327.079C420.868 324.323 421.086 322.667 422.962 322.122C424.837 321.576 426.384 321.071 427.605 320.674L442.129 310.919C442.196 310.877 442.27 310.847 442.347 310.829C442.426 310.815 442.507 310.815 442.585 310.829C442.663 310.844 442.737 310.875 442.803 310.919C442.874 310.962 442.935 311.019 442.982 311.087L444.411 313.367C445.86 313.834 447.389 313.999 448.905 313.853C450.174 313.506 451.361 312.909 452.397 312.098C452.663 311.919 452.99 311.851 453.306 311.911C453.621 311.97 453.901 312.152 454.084 312.416L454.163 312.485Z" fill="#2F4B62"/>
<path fill-rule="evenodd" clip-rule="evenodd" d="M421.642 325.482C421.814 326.029 422.033 326.56 422.297 327.069L456.157 321.219C456.157 320.793 456.157 319.812 456.157 319.385C452.655 320.079 440.661 322.588 438.607 322.845C436.196 323.153 423.845 325.502 422.515 325.552C422.223 325.555 421.93 325.532 421.642 325.482Z" fill="#8CA6AD"/>
<path fill-rule="evenodd" clip-rule="evenodd" d="M523.481 314.379C524.346 315.516 525.016 316.789 525.465 318.146C525.792 319.73 525.991 321.338 526.06 322.954L492.607 330.965C491.049 328.298 491.158 326.632 492.994 325.948C494.829 325.264 496.337 324.679 497.537 324.204L511.427 313.566C511.489 313.514 511.559 313.474 511.635 313.447C511.714 313.437 511.794 313.437 511.873 313.447C511.954 313.455 512.033 313.482 512.101 313.526C512.174 313.562 512.236 313.617 512.28 313.685L513.857 315.866C515.337 316.236 516.875 316.303 518.381 316.064C519.632 315.632 520.785 314.958 521.774 314.081C521.899 313.983 522.043 313.91 522.196 313.868C522.349 313.825 522.509 313.813 522.667 313.833C522.825 313.851 522.978 313.9 523.116 313.979C523.254 314.057 523.375 314.163 523.471 314.289L523.481 314.379Z" fill="#2F4B62"/>
<path fill-rule="evenodd" clip-rule="evenodd" d="M491.645 328.873C491.853 329.607 492.164 330.308 492.567 330.955L526.021 322.954C526.021 322.161 525.922 321.358 525.822 320.565C522.489 321.656 513.084 324.709 510.316 325.215C506.963 325.839 493.708 329.389 491.645 328.873Z" fill="#8CA6AD"/>
<path fill-rule="evenodd" clip-rule="evenodd" d="M441.424 43.9692C441.633 46.1999 441.166 48.4207 441.801 48.4108C442.176 48.421 442.547 48.3393 442.883 48.1729C443.202 48.0245 443.47 47.7869 443.657 47.4888C443.657 47.4888 442.02 48.5992 441.901 47.9746C441.781 47.35 441.424 43.9692 441.424 43.9692Z" fill="black"/>
<path fill-rule="evenodd" clip-rule="evenodd" d="M452.447 25.7765C452.447 25.7765 451.98 20.7302 454.312 18.5689C457.288 15.8325 466.217 14.048 473.162 23.526C478.886 31.378 474.094 37.1381 476.416 41.7086C478.737 46.279 482.825 44.1276 489.779 52.168C504.661 69.3394 482.666 80.9687 479.075 67.4854C478.509 65.3836 476.396 64.0651 474.293 63.4206C471.376 62.5284 465.265 61.8839 463.38 58.1364C461.666 54.7252 461.183 50.8279 462.011 47.1019C462.765 43.4931 464.491 37.8916 463.449 34.3622C462.527 31.1995 461.336 27.8089 460.235 26.5101C457.953 23.8333 456.703 26.2623 456.703 26.2623L452.447 25.7765Z" fill="black"/>
<path d="M448.845 86.144C447.524 90.1187 445.923 93.995 444.054 97.7436L432.902 88.0872" stroke="black" stroke-width="0.5" stroke-miterlimit="10"/>
<path d="M461.892 122.153C458.112 125.127 435.333 133.058 432.714 132.315C430.095 131.571 423.468 133.425 420.551 135.428C417.634 137.43 418.725 138.005 419.757 138.461C419.757 138.461 409.757 148.733 422.733 142.764C425.978 141.277 429.678 138.63 433.647 138.64C437.615 138.65 467.804 132.483 471.912 125.008C478.856 112.457 490.226 81.4946 485.89 71.9175C481.307 61.7653 474.64 75.6353 471.445 80.6221C471.197 82.4067 470.82 85.7676 470.523 87.562C468.37 100.639 464.759 119.902 461.892 122.153Z" fill="#EAC3B7"/>
<path d="M472.507 63.2422C480.593 64.0452 486.139 67.0691 487.299 74.3956C488.035 78.5778 487.815 82.872 486.654 86.9569C484.456 85.0167 481.771 83.711 478.886 83.1796C476.099 82.8077 473.265 82.9999 470.553 83.7447C470.612 83.0408 472.507 63.2422 472.507 63.2422Z" fill="#456682"/>
<path d="M486.654 86.957C484.456 85.0168 481.771 83.711 478.886 83.1797C476.099 82.8077 473.265 82.9999 470.553 83.7448C470.553 83.3978 471.049 78.4506 471.545 73.5034" stroke="black" stroke-width="0.5" stroke-miterlimit="10"/>
<path d="M134.29 309.878L135.779 293.38L152.287 294.927L149.628 310.086C152.975 313.883 156.923 317.105 161.315 319.623C166.186 322.32 169.5 326.157 168.052 327.693C167.189 328.625 158.815 329.071 151.662 325.71C144.509 322.35 142.416 320.139 138.894 319.237C137.065 318.725 135.304 318 133.646 317.075C133.249 316.855 132.941 316.505 132.771 316.085C132.601 315.664 132.581 315.199 132.713 314.765L134.29 309.878Z" fill="#AF897B"/>
<path d="M182.913 299.557L183.588 282.386L200.791 283.07L198.122 299.646C201.495 303.502 205.485 306.772 209.928 309.323C214.8 312.019 217.438 316.173 216.159 317.849C214.879 319.524 206.347 318.007 199.194 314.686C192.041 311.365 190.682 309.015 187.199 308.093C185.666 307.673 184.167 307.136 182.715 306.487C182.205 306.26 181.799 305.85 181.576 305.337C181.354 304.825 181.332 304.249 181.515 303.721L182.913 299.557Z" fill="#AF897B"/>
<path d="M142.316 114.221L198.291 119.307C205.434 154.483 213.172 210.19 208.212 248.519C203.251 286.847 202.705 282.98 202.705 282.98C197.745 284.765 185.582 283.714 181.613 282.118C181.613 282.118 181.613 244.652 180.691 222.256" fill="#2F4B62"/>
<path d="M138.894 319.237C137.065 318.725 135.304 318 133.646 317.075C133.249 316.855 132.941 316.505 132.771 316.085C132.601 315.665 132.581 315.199 132.713 314.765L134.231 309.967C136.9 311.008 137.386 314.398 140.094 315.915C141.721 316.917 143.665 317.271 145.541 316.907C147.694 316.55 149.4 313.625 152.099 312.733C154.839 315.44 157.924 317.773 161.276 319.673C166.147 322.369 169.46 326.206 168.012 327.743C167.149 328.675 158.775 329.121 151.622 325.76C144.469 322.399 142.416 320.139 138.894 319.237Z" fill="#FFBF8A"/>
<path d="M199.194 314.676C192.041 311.365 190.682 309.005 187.199 308.083C185.666 307.663 184.167 307.126 182.715 306.477C182.205 306.25 181.799 305.839 181.576 305.327C181.354 304.815 181.332 304.238 181.515 303.711L182.874 299.676C187.001 301.044 187.269 304.256 189.094 305.624C191.217 307.171 194.709 306.943 194.709 306.943C196.625 305.051 199.078 303.798 201.734 303.354C204.222 305.657 206.973 307.66 209.928 309.322C214.8 312.019 217.438 316.173 216.159 317.848C214.879 319.524 206.357 317.997 199.194 314.676Z" fill="#FFBF8A"/>
<path d="M187.199 308.083C185.665 307.663 184.166 307.126 182.715 306.477C182.275 306.282 181.91 305.949 181.676 305.529C181.441 305.108 181.35 304.624 181.415 304.147C182.547 305.164 183.846 305.979 185.254 306.556C187.462 307.1 189.583 307.951 191.554 309.084C195.367 311.367 199.316 313.413 203.38 315.211C206.446 316.441 212.487 317.918 216.456 317.144C216.414 317.395 216.316 317.632 216.168 317.838C214.888 319.514 206.356 317.997 199.203 314.676C192.05 311.355 190.681 309.005 187.199 308.083Z" fill="#242638"/>
<path d="M145.352 321.22C148.602 323.162 152.039 324.773 155.611 326.028C158.785 327.138 163.686 327.327 168.379 326.92C168.381 327.227 168.264 327.522 168.052 327.743C167.188 328.675 158.815 329.121 151.662 325.76C144.509 322.399 142.416 320.139 138.894 319.237C137.065 318.726 135.304 318 133.646 317.075C133.249 316.855 132.941 316.505 132.771 316.085C132.601 315.665 132.581 315.199 132.713 314.765L132.832 314.389C134.629 315.687 136.591 316.741 138.666 317.522C141.513 318.364 142.862 319.564 145.352 321.22Z" fill="#242638"/>
<path d="M179.768 117.77C179.768 117.77 179.768 159.698 166.216 230.435C161.553 254.814 153.835 296.979 153.835 296.979C148.874 297.971 135.511 296.771 132.058 294.174C132.058 294.174 136.642 253.902 138.011 220.313C139.38 186.724 135.481 173.369 138.923 147.741C140.997 132.265 142.306 114.221 142.306 114.221L179.768 117.77Z" fill="#456682"/>
<path d="M193.241 19.0947C193.619 19.0947 193.926 18.7884 193.926 18.4106C193.926 18.0328 193.619 17.7266 193.241 17.7266C192.863 17.7266 192.557 18.0328 192.557 18.4106C192.557 18.7884 192.863 19.0947 193.241 19.0947Z" fill="black"/>
<path d="M199.57 19.0947C199.762 19.0947 199.918 18.7884 199.918 18.4106C199.918 18.0328 199.762 17.7266 199.57 17.7266C199.379 17.7266 199.223 18.0328 199.223 18.4106C199.223 18.7884 199.379 19.0947 199.57 19.0947Z" fill="black"/>
<path d="M196.436 15.6543C196.061 15.2211 195.591 14.8803 195.063 14.6585C194.534 14.4366 193.962 14.3397 193.39 14.3754C192.821 14.3901 192.26 14.5077 191.733 14.7224C191.2 14.9268 190.731 15.2689 190.374 15.7138C191.525 15.7138 192.457 15.7138 193.42 15.6444C194.382 15.575 195.235 15.6741 196.436 15.6543Z" fill="black"/>
<path d="M198.42 15.6145C198.778 15.1707 199.247 14.8288 199.779 14.6231L200.027 14.5537C200.109 14.9003 200.172 15.2511 200.216 15.6046C199.63 15.6046 199.055 15.6244 198.42 15.6145Z" fill="black"/>
<path d="M198.519 26.8672C198.519 26.2624 199.194 26.7184 200.057 26.6689C200.199 26.6788 200.341 26.6788 200.483 26.6689C200.583 27.0753 200.483 27.4323 200.583 27.7991C200.441 27.8417 200.294 27.8684 200.146 27.8784C199.283 27.9181 198.559 27.4719 198.519 26.8672Z" fill="black"/>
<path d="M196.862 7.75271C197.259 6.91992 198.846 3.96549 196.406 1.8042C192.943 -1.23946 187.288 -0.0894107 180.75 2.31974C175.969 4.07455 170.204 9.25966 170.085 14.5142C169.917 22.2472 175.363 26.7185 179.104 30.1389C179.391 30.3967 180.096 30.8032 180.373 30.5157C181.237 29.5243 182.447 25.162 182.903 23.1891L185.969 23.5063C185.199 20.7849 184.717 17.9904 184.53 15.1685C184.53 11.9662 186.237 8.53593 189.382 7.88159C191.858 7.50735 194.374 7.46401 196.862 7.75271Z" fill="black"/>
<g style="mix-blend-mode:multiply">
<path d="M198.519 23.2388L200.265 25.073L200.027 22.9414L198.519 23.2388Z" fill="#AF897B"/>
</g>
<path d="M149.628 69.2007C160.541 41.9268 159.966 44.9903 175.75 44.4648C177.457 48.4305 192.616 48.8469 194.798 46.5468C200.374 47.5382 202.735 44.5144 207.309 49.5905C217.23 60.6646 235.663 90.3279 242.032 97.0992C239.9 98.2969 238.173 100.102 237.072 102.284C235.487 105.06 234.649 108.2 234.641 111.395C220.96 104.099 208.44 89.1382 208.44 89.1382C205.692 96.3557 198.291 118.603 198.291 119.634C198.291 120.15 184.203 122.608 170.581 121.32C156.96 120.031 141.116 114.905 141.116 114.905C141.116 114.905 139.479 94.4621 149.628 69.2007Z" fill="#8CA6AD"/>
<path d="M208.44 89.1382C205.692 96.3557 198.291 118.603 198.291 119.634C198.291 120.15 186.465 123.253 170.582 121.32C156.99 119.664 141.116 114.905 141.116 114.905" stroke="black" stroke-width="0.5" stroke-miterlimit="10"/>
<path d="M242.072 97.0994C239.94 98.297 238.213 100.102 237.112 102.285C235.527 105.06 234.689 108.2 234.681 111.396C220.96 104.099 208.44 89.1383 208.44 89.1383C208.44 89.1383 204.521 84.1812 200.791 79.2241" stroke="black" stroke-width="0.5" stroke-miterlimit="10"/>
<path d="M162.972 45.4863C154.45 49.7494 139.687 83.5171 135.56 104.228C134.122 111.396 150.283 129.598 163.815 137.401C176.901 144.945 184.451 145.967 189.61 147.017C194.769 148.068 203.172 147.503 204.223 146.552L205.275 145.61C205.275 145.61 207.061 144.45 206.853 143.815C206.728 143.447 206.561 143.095 206.357 142.764C206.357 142.764 207.567 142.507 207.349 142.189C206.731 141.839 206.061 141.591 205.364 141.456C205.364 141.456 207.21 141.456 206.942 140.772C206.674 140.087 201.842 140.405 199.64 140.137C200.625 139.985 201.582 139.684 202.477 139.245C203.37 138.67 203.102 137.877 202.954 137.777C201.722 138.013 200.466 138.1 199.213 138.035C197.428 137.777 195.007 138.243 193.172 138.303C191.336 138.362 155.303 116.432 151.94 107.569C151.652 99.479 162.248 82.9719 166.871 76.0319C171.494 69.092 174.024 61.5275 171.504 55.4303C168.984 49.333 162.972 45.4863 162.972 45.4863Z" fill="#AF897B"/>
<path d="M135.313 102.195C137.842 81.227 156.246 47.2511 162.972 45.4863C162.972 45.4863 168.984 49.3231 171.514 55.4005C174.044 61.4779 171.514 69.0623 166.881 76.0022C162.248 82.9421 151.692 99.4096 151.95 107.5C146.474 107.5 140.898 109.572 137.872 112.258C136.166 108.065 134.648 107.728 135.313 102.195Z" fill="#8CA6AD"/>
<path d="M171.514 55.4199C174.034 61.5171 171.514 69.0817 166.881 76.0216C162.248 82.9615 151.692 99.429 151.95 107.519C146.474 107.519 140.898 109.591 137.872 112.278" stroke="black" stroke-width="0.5" stroke-miterlimit="10"/>
</g>
<defs>
<clipPath id="clip0">
<rect width="668" height="372" fill="white"/>
</clipPath>
</defs>
</svg>
