<svg width="740" height="150" viewBox="0 0 740 150" fill="none" xmlns="http://www.w3.org/2000/svg">
<g clip-path="url(#clip0)">
<path d="M32.4 149.14C14.78 149.14 0.5 134.86 0.5 117.24C0.5 99.6198 14.78 85.3398 32.4 85.3398H67.18V149.15H32.4V149.14Z" fill="#8CA6AD" stroke="black" stroke-miterlimit="10"/>
<path d="M707.45 149.14H67.1802V85.3301H707.45C725.07 85.3301 739.35 99.6101 739.35 117.23C739.35 134.86 725.07 149.14 707.45 149.14Z" fill="#FDF3E8" stroke="black" stroke-miterlimit="10" stroke-linecap="round" stroke-linejoin="round"/>
<path d="M37.8602 110.48C36.0002 110.48 34.4802 112 34.4802 113.86V115.89H33.8002C33.0502 115.89 32.4502 116.5 32.4502 117.24V122.65C32.4502 123.4 33.0602 124 33.8002 124H41.9102C42.6602 124 43.2602 123.39 43.2602 122.65V117.24C43.2602 116.49 42.6502 115.89 41.9102 115.89H41.2302V113.86C41.2402 112 39.7302 110.48 37.8602 110.48ZM35.8402 115.89V113.86C35.8402 112.74 36.7502 111.83 37.8702 111.83C38.9902 111.83 39.9002 112.74 39.9002 113.86V115.89H35.8402Z" fill="#FDF3E8"/>
<path d="M87.8828 122.372L707.803 122.372L707.803 112.102L87.8828 112.102L87.8828 122.372Z" fill="white"/>
<path d="M113.05 99.95C112.31 99.08 112.23 98.35 113.91 98.2C117.6 97.87 120.32 96.26 120.75 95.32C121.18 94.39 120.01 93.47 119.01 94.04C118.2 94.49 116.62 94.84 115.41 95.06C114.42 95.24 113.41 95.26 112.41 95.1C111.55 94.97 110.8 94.82 110.12 94.68C110.12 94.68 106.21 93.84 104.53 92.52L96.27 101.35L100.15 105.73C100.15 105.73 102 108.5 105.33 108.17C108.66 107.84 113.13 105.46 113.13 105.46C113.73 104.53 119.09 107.83 120.81 109.07C122.51 110.29 123.81 110 123.74 108.81C123.7 108 118.51 104.08 116.78 102.9C115.82 102.24 113.95 101 113.05 99.95Z" fill="#D1A595"/>
<path d="M108.2 107.62C108.21 107.67 107.96 107.78 107.53 107.76C107.11 107.75 106.51 107.58 105.99 107.19C105.47 106.79 105.14 106.27 105.02 105.86C104.89 105.45 104.93 105.19 104.98 105.18C105.1 105.15 105.3 106.15 106.25 106.85C107.17 107.58 108.19 107.5 108.2 107.62Z" fill="#FF9A6C"/>
<path d="M111.47 106.33C111.48 106.38 111.23 106.47 110.83 106.44C110.43 106.42 109.87 106.24 109.37 105.86C108.88 105.47 108.57 104.97 108.45 104.59C108.32 104.2 108.35 103.95 108.4 103.94C108.52 103.91 108.74 104.85 109.63 105.53C110.5 106.23 111.47 106.21 111.47 106.33Z" fill="#FF9A6C"/>
<path d="M120.38 14.4697C120.73 21.7197 129.57 31.6597 136.15 33.2597C139.61 34.0997 143.59 33.7097 146.33 36.0297C151.03 40.0197 148.28 48.2797 151.45 53.6197C153.4 56.9097 157.27 58.5197 159.46 61.6397C163.1 66.8297 160.66 74.6597 155.69 78.5297C150.72 82.3897 144.1 83.1297 137.87 82.9697C124.17 82.6197 110.13 78.2597 100.23 68.5497C95.58 63.9897 77.37 49.8997 83.72 16.5097" fill="#1A2E35"/>
<path d="M169.84 66.3599L117.74 50.8899C113.42 49.0599 110.15 48.6099 110.15 48.6099L92.56 48.7299C90.17 48.7299 87.92 49.2399 85.81 50.1399L38.39 65.8899C34.88 66.9999 32.46 70.5999 32.46 74.6999C32.46 79.7499 36.1 83.8499 40.6 83.8499H62.5C62.44 84.0599 62.4 84.1699 62.4 84.1699L138.57 84.4599C138.57 84.4499 138.57 84.4399 138.57 84.4299L167.64 84.4999C172.13 84.4999 175.78 80.3599 175.78 75.2599C175.78 71.1099 173.35 67.4799 169.84 66.3599Z" fill="#FFBF8A"/>
<path d="M159.4 71.9897C159.4 71.9997 159.24 71.9997 158.93 71.9697C158.58 71.9297 158.13 71.8797 157.59 71.8197C156.43 71.6697 154.74 71.4797 152.66 71.2797C148.49 70.8697 142.71 70.5097 136.32 70.5897C129.93 70.6797 124.16 71.1897 120 71.6997C117.92 71.9597 116.24 72.1897 115.08 72.3697C114.54 72.4497 114.09 72.5097 113.74 72.5597C113.43 72.5997 113.27 72.6097 113.27 72.5997C113.27 72.5897 113.42 72.5397 113.73 72.4797C114.08 72.4097 114.52 72.3197 115.06 72.2097C116.21 71.9797 117.89 71.6997 119.97 71.4097C124.13 70.8197 129.91 70.2597 136.33 70.1697C142.74 70.0897 148.54 70.4997 152.71 70.9797C154.8 71.2197 156.48 71.4497 157.64 71.6497C158.18 71.7397 158.62 71.8197 158.97 71.8797C159.24 71.9397 159.4 71.9697 159.4 71.9897Z" fill="#1A2E35"/>
<g opacity="0.6">
<g opacity="0.6">
<path opacity="0.6" d="M147.17 59.3297C147.18 59.3397 147.13 59.3897 147.02 59.5097C146.9 59.6397 146.75 59.7997 146.56 59.9897C146.15 60.4097 145.54 61.0197 144.72 61.7797C143.9 62.5297 142.86 63.4297 141.55 64.3297C140.24 65.2197 138.64 66.1397 136.69 66.6497C134.75 67.1897 132.46 67.1397 130.18 66.5197C127.89 65.9097 125.63 64.7497 123.33 63.4897C121.01 62.2597 118.62 60.8297 115.91 60.0097C113.23 59.1197 110.15 59.1497 107.42 60.4497C104.68 61.6897 102.35 63.5697 99.7999 64.9297C99.1699 65.2797 98.4999 65.5497 97.8499 65.8497C97.1799 66.0897 96.5299 66.3497 95.8499 66.5197C94.5099 66.9097 93.1599 67.1097 91.8399 67.2097C86.5099 67.5897 81.7499 65.8597 78.5099 63.5397C76.8699 62.3697 75.6299 61.0497 74.4799 59.9597C73.3499 58.8597 72.2999 57.9897 71.3599 57.4097C69.4599 56.2397 68.1399 56.2897 68.1699 56.2097C68.1699 56.2097 68.4799 56.1997 69.0599 56.3197C69.6399 56.4197 70.4799 56.6997 71.4499 57.2697C72.4199 57.8397 73.4899 58.6997 74.6499 59.7897C75.8099 60.8597 77.0699 62.1597 78.6899 63.2897C81.8999 65.5397 86.5899 67.2097 91.8199 66.8097C93.1199 66.7097 94.4399 66.5097 95.7499 66.1197C96.4099 65.9597 97.0499 65.6997 97.7099 65.4597C98.3399 65.1697 98.9899 64.9097 99.6099 64.5597C102.11 63.2197 104.45 61.3297 107.26 60.0597C110.06 58.7197 113.31 58.6897 116.04 59.6097C118.82 60.4597 121.22 61.9097 123.53 63.1397C125.83 64.4097 128.05 65.5597 130.29 66.1697C132.51 66.7897 134.73 66.8597 136.63 66.3497C138.54 65.8697 140.13 64.9797 141.44 64.1297C142.75 63.2497 143.79 62.3797 144.63 61.6497C145.47 60.9197 146.09 60.3197 146.52 59.9297C146.72 59.7397 146.88 59.5997 147.01 59.4797C147.11 59.3697 147.17 59.3197 147.17 59.3297Z" fill="#456682"/>
</g>
</g>
<g opacity="0.2">
<path opacity="0.2" d="M66.21 71.8799L99.15 78.0899L95.34 84.2899L94.34 84.2999L66.21 71.8799Z" fill="black"/>
</g>
<g opacity="0.6">
<g opacity="0.6">
<path opacity="0.6" d="M165.9 65.3795C165.91 65.3795 165.92 65.5495 165.92 65.8795C165.91 66.2095 165.88 66.6995 165.78 67.3195C165.57 68.5495 165.07 70.3595 163.8 72.2495C162.55 74.1195 160.44 76.0295 157.58 77.0195C156.16 77.5195 154.58 77.7995 152.95 77.7395C151.31 77.6795 149.65 77.3095 148.01 76.8395C146.36 76.3795 144.78 75.8595 143.21 75.5495C141.65 75.2095 140.11 75.1495 138.66 75.3095C135.75 75.6595 133.3 76.8695 131.56 78.2195C129.78 79.5495 128.69 81.0295 128.03 82.0795C127.87 82.3395 127.73 82.5795 127.6 82.7895C127.5 82.9895 127.41 83.1695 127.33 83.3295C127.18 83.6195 127.09 83.7695 127.08 83.7695C127.07 83.7595 127.13 83.5995 127.25 83.2995C127.32 83.1295 127.4 82.9495 127.49 82.7395C127.61 82.5195 127.74 82.2695 127.89 81.9995C128.52 80.9195 129.58 79.3795 131.38 77.9895C133.13 76.5795 135.63 75.3095 138.62 74.9295C140.11 74.7395 141.71 74.8095 143.3 75.1495C144.9 75.4695 146.49 75.9795 148.13 76.4395C149.76 76.9095 151.39 77.2695 152.97 77.3395C154.55 77.3995 156.08 77.1395 157.46 76.6595C160.24 75.7195 162.31 73.8995 163.56 72.0895C164.83 70.2695 165.37 68.5095 165.63 67.2995C165.86 66.0695 165.86 65.3695 165.9 65.3795Z" fill="#456682"/>
</g>
</g>
<path d="M38.4302 82.7898C38.4302 82.7898 97.9702 109.06 97.6602 108.47C97.3502 107.87 107.11 90.6398 107.11 90.6398L58.8802 66.7998L38.4302 82.7898Z" fill="#FFBF8A"/>
<path d="M65.7599 70.1999C65.7699 70.1699 66.2099 70.3599 66.9899 70.7099C67.8299 71.1099 68.9299 71.6299 70.2699 72.2499C73.0299 73.5699 76.8299 75.4199 81.0099 77.4899C85.1899 79.5599 88.9699 81.4499 91.6999 82.8399C93.0099 83.5199 94.0899 84.0799 94.9199 84.5099C95.6799 84.9099 96.0899 85.1499 96.0799 85.1699C96.0699 85.1999 95.6299 85.0099 94.8499 84.6599C94.0099 84.2599 92.9099 83.7399 91.5699 83.1199C88.8099 81.7999 85.0099 79.9499 80.8299 77.8799C76.6499 75.8099 72.8699 73.9199 70.1399 72.5299C68.8299 71.8499 67.7499 71.2899 66.9199 70.8599C66.1599 70.4599 65.7499 70.2299 65.7599 70.1999Z" fill="#1A2E35"/>
<g opacity="0.6">
<g opacity="0.6">
<path opacity="0.6" d="M78.84 78.1696C78.84 78.1696 78.81 78.8496 78.29 79.9396C77.79 81.0196 76.63 82.4396 74.74 83.4896C73.8 84.0096 72.68 84.4396 71.43 84.6696C70.18 84.8996 68.81 84.9096 67.4 84.7196C64.57 84.3596 61.65 83.1796 58.72 81.8096C55.79 80.4396 52.99 79.1096 50.28 78.4796C48.93 78.1496 47.61 77.9996 46.38 78.0296C45.15 78.0596 44.01 78.2796 43.01 78.5996C41.01 79.2396 39.61 80.3096 38.85 81.1996C38.08 82.0896 37.82 82.7096 37.77 82.6796C37.77 82.6796 37.97 82.0296 38.72 81.0896C39.46 80.1496 40.86 78.9996 42.91 78.3096C43.93 77.9696 45.09 77.7196 46.36 77.6696C47.63 77.6196 48.98 77.7696 50.36 78.0896C53.14 78.7196 55.97 80.0496 58.89 81.4196C61.81 82.7896 64.69 83.9596 67.45 84.3296C68.82 84.5296 70.15 84.5296 71.36 84.3196C72.57 84.1196 73.66 83.7096 74.58 83.2296C76.44 82.2496 77.59 80.8996 78.13 79.8696C78.69 78.8196 78.79 78.1496 78.84 78.1696Z" fill="#456682"/>
</g>
</g>
<g opacity="0.6">
<g opacity="0.6">
<path opacity="0.6" d="M104.12 96.1796C104.11 96.2596 102.8 96.0396 100.67 96.0096C99.6098 95.9896 98.3398 96.0496 96.9498 96.1996C95.5598 96.3696 94.0398 96.6496 92.4798 97.0896C90.9198 97.5396 89.4798 98.0996 88.2098 98.6796C86.9398 99.2796 85.8298 99.8896 84.9398 100.47C83.1498 101.61 82.1498 102.49 82.0998 102.43C82.0798 102.41 82.3198 102.18 82.7698 101.78C83.2098 101.37 83.8998 100.84 84.7798 100.23C85.6598 99.6096 86.7698 98.9696 88.0498 98.3396C89.3398 97.7296 90.7998 97.1496 92.3798 96.6896C93.9598 96.2496 95.5098 95.9796 96.9298 95.8196C98.3498 95.6896 99.6298 95.6596 100.71 95.7196C101.78 95.7796 102.65 95.8696 103.24 95.9896C103.8 96.0796 104.12 96.1496 104.12 96.1796Z" fill="#456682"/>
</g>
</g>
<g opacity="0.2">
<path opacity="0.2" d="M111.46 48.4897C110.48 51.2397 111.95 54.2097 113.39 56.7597C114.39 58.5297 115.4 60.3297 116.84 61.7697C118.28 63.2097 120.22 64.2697 122.25 64.1997C124.92 64.1097 127.32 62.1397 129.99 62.2897C131.81 62.3897 133.4 63.4697 134.91 64.4897C137.52 66.2597 140.2 67.9797 143.16 69.0597C146.12 70.1397 149.42 70.5497 152.44 69.6397C155.46 68.7297 158.13 66.3497 158.86 63.2797" fill="black"/>
</g>
<path d="M111.68 47.7299C111.82 44.5299 111.99 41.6199 111.99 41.6199C111.99 41.6199 119.15 40.7199 119.46 33.3999C119.77 26.0899 119.04 9.24992 119.04 9.24992L105.85 2.91992L91.6699 14.3599L93.8899 47.9399C94.2099 52.7799 98.3399 56.4699 103.19 56.2499C107.8 56.0399 111.48 52.3399 111.68 47.7299Z" fill="#D1A595"/>
<path d="M117.81 22.4801C117.82 23.0001 117.42 23.4201 116.91 23.4301C116.41 23.4401 115.99 23.0301 115.98 22.5101C115.97 21.9901 116.37 21.5701 116.87 21.5601C117.38 21.5601 117.8 21.9701 117.81 22.4801Z" fill="#1A2E35"/>
<path d="M118.69 20.53C118.57 20.65 117.89 20.08 116.91 20.04C115.93 19.99 115.2 20.5 115.1 20.37C115.05 20.31 115.17 20.09 115.49 19.85C115.8 19.62 116.33 19.4 116.94 19.43C117.55 19.46 118.06 19.72 118.35 19.98C118.65 20.24 118.75 20.48 118.69 20.53Z" fill="#1A2E35"/>
<path d="M106.94 22.4801C106.95 23.0001 106.55 23.4201 106.04 23.4301C105.54 23.4401 105.12 23.0301 105.11 22.5101C105.1 21.9901 105.5 21.5701 106 21.5601C106.51 21.5601 106.93 21.9701 106.94 22.4801Z" fill="#1A2E35"/>
<path d="M107.82 20.7199C107.7 20.8399 107.02 20.2699 106.04 20.2299C105.06 20.1799 104.33 20.6899 104.23 20.5599C104.18 20.4999 104.3 20.2799 104.62 20.0399C104.93 19.8099 105.46 19.5899 106.07 19.6199C106.68 19.6499 107.19 19.9099 107.48 20.1699C107.78 20.4299 107.88 20.6699 107.82 20.7199Z" fill="#1A2E35"/>
<path d="M111.51 29.1599C111.51 29.0999 112.12 29.0099 113.11 28.9199C113.36 28.8999 113.6 28.8599 113.64 28.6799C113.7 28.4899 113.6 28.1899 113.49 27.8799C113.26 27.2199 113.03 26.5299 112.78 25.8099C111.8 22.8599 111.09 20.4399 111.2 20.3999C111.31 20.3599 112.2 22.7199 113.18 25.6699C113.42 26.3999 113.64 27.0899 113.86 27.7499C113.95 28.0599 114.11 28.4099 113.97 28.8099C113.9 29.0099 113.71 29.1499 113.55 29.1899C113.39 29.2399 113.25 29.2299 113.12 29.2399C112.13 29.2399 111.51 29.2199 111.51 29.1599Z" fill="#1A2E35"/>
<path d="M108.28 30.1698C107.28 29.5098 111.05 31.7998 113.05 31.7598C113.05 31.7598 111.85 33.5998 109.82 32.7598C107.71 31.8898 108.28 30.1698 108.28 30.1698Z" fill="white"/>
<path d="M111.99 41.63C111.99 41.63 107.2 41.77 102.5 38.52C102.5 38.52 104.73 43.85 111.86 43.42L111.99 41.63Z" fill="#D1A595"/>
<path d="M83.98 21.5699C83.96 27.8999 82.3 44.6299 93.83 46.9499L93.41 23.8999C93.41 23.8999 104.58 18.6299 106.47 7.65991L106.54 7.71991C107.26 9.37991 108.53 12.9299 107.76 15.8299L118.22 18.4099L119.42 19.5099C119.42 19.5099 123.14 11.3499 115.96 3.93991C108.77 -3.46009 102.63 1.89991 98.78 1.43991C96.21 1.13991 87.33 1.19991 83.71 16.4999L83.98 21.5699Z" fill="#1A2E35"/>
<path d="M93.7001 24.1601C92.7201 23.5601 91.3902 24.0501 90.6202 24.9001C89.4002 26.2301 89.1902 28.3801 90.1202 29.9201C91.0502 31.4601 93.0602 32.2701 94.8002 31.8001" fill="#D1A595"/>
<path d="M93.4803 29.6098C93.4803 29.6598 93.1503 29.7198 92.6403 29.5798C92.1503 29.4498 91.4003 29.0598 91.1103 28.2198C90.9703 27.8098 91.0003 27.3698 91.1503 27.0298C91.3003 26.6898 91.5503 26.4498 91.7703 26.2998C92.2303 25.9998 92.5803 26.0198 92.5803 26.0698C92.6003 26.1298 92.2903 26.2298 91.9503 26.5398C91.6003 26.8298 91.2703 27.4398 91.5003 28.0898C91.7203 28.7398 92.3003 29.1098 92.7303 29.2998C93.1703 29.4898 93.4803 29.5398 93.4803 29.6098Z" fill="#D1A595"/>
<path d="M92.52 31.05C91.99 31.18 91.72 31.91 92.04 32.35C92.36 32.79 93.14 32.76 93.42 32.29C93.7 31.82 93.37 31.12 92.84 31.04" fill="#F7C5A8"/>
<path d="M113.72 84.4897V72.4697C113.72 72.4697 95.8698 76.1697 95.5498 84.3497L113.72 84.4897Z" fill="#D1A595"/>
<path d="M111.86 46.47C112.15 50.13 113.85 53.66 116.53 56.18C119.21 58.69 122.84 60.17 126.51 60.23C129.14 60.28 131.92 59.65 134.33 60.73C136.42 61.67 137.77 63.69 139.42 65.29C143.29 69.03 149.29 70.38 154.38 68.67C156.54 67.94 159.98 66.39 160.38 64.15C160.69 62.44 158.6 60.74 157.37 59.52C156.14 58.3 154.55 57.51 152.98 56.77C140.27 50.8 126.62 46.46 112.59 45.71" fill="#1A2E35"/>
</g>
<defs>
<clipPath id="clip0">
<rect width="739.85" height="149.64" fill="white"/>
</clipPath>
</defs>
</svg>
