<svg width="280" height="280" viewBox="0 0 88 88" fill="none" 
  xmlns="http://www.w3.org/2000/svg">
  <circle cx="43.8557" cy="43.8557" r="43.6643" fill="white"/>
  <mask id="mask0" mask-type="alpha" maskUnits="userSpaceOnUse" x="29" y="15" width="23" height="30">
    <path fill-rule="evenodd" clip-rule="evenodd" d="M29.2466 15.6025H51.7925V44.8421H29.2466V15.6025Z" fill="white"/>
  </mask>
  <g mask="url(#mask0)">
    <path fill-rule="evenodd" clip-rule="evenodd" d="M42.5131 29.1153L49.3812 30.975C49.6339 31.0447 49.8332 31.2416 49.9045 31.499L51.7925 38.0867V42.2908C51.7925 43.6992 50.6686 44.8411 49.2861 44.8411H34.2594C31.4914 44.8411 29.2466 42.5573 29.2466 39.7375V20.7072C29.2466 17.8874 31.4914 15.6006 34.2594 15.6006H46.7826C49.5477 15.6006 51.7925 17.8874 51.7925 20.7072V22.361H38.3833C37.0007 22.361 35.8798 23.4998 35.8798 24.9113V37.3901C35.8798 37.8142 36.2158 38.1564 36.6291 38.1564H41.7609C42.1771 38.1564 42.5131 37.8142 42.5131 37.3901V29.1153Z" fill="#384A51"/>
  </g>
  <path fill-rule="evenodd" clip-rule="evenodd" d="M40.89 51.3469C38.2647 51.3469 36.127 49.1691 36.127 46.4947V45.0984H49.2864C50.8057 45.0984 52.0426 43.8384 52.0426 42.2906V29.8814C52.0426 29.3211 51.5936 28.8607 51.0406 28.8607H42.2637V37.393C42.2637 37.6716 42.0377 37.9049 41.7612 37.9049H36.6294C36.3559 37.9049 36.127 37.6716 36.127 37.393V24.9111C36.127 23.645 37.1408 22.6152 38.3836 22.6152H53.9157C56.5411 22.6152 58.6758 24.7899 58.6758 27.4644V46.4947C58.6758 49.1691 56.5411 51.3469 53.9157 51.3469H40.89Z" fill="#8CA6AD"/>
  <path fill-rule="evenodd" clip-rule="evenodd" d="M53.9154 22.3604H38.3833C37.0037 22.3604 35.8828 23.5022 35.8828 24.9137V37.3925C35.8828 37.8166 36.2188 38.1588 36.6321 38.1588H41.7609C42.1771 38.1588 42.5131 37.8166 42.5131 37.3925V29.1147H51.0403C51.4565 29.1147 51.7925 29.46 51.7925 29.881V42.2902C51.7925 43.7016 50.6716 44.8465 49.2861 44.8465H35.8828V46.4972C35.8828 49.3141 38.1216 51.6008 40.8927 51.6008H53.9154C56.6835 51.6008 58.9282 49.3171 58.9282 46.4972V27.467C58.9282 24.6441 56.6835 22.3604 53.9154 22.3604ZM53.9154 22.8692C56.404 22.8692 58.4258 24.9318 58.4258 27.467V46.4972C58.4258 49.0323 56.404 51.092 53.9154 51.092H40.8927C38.4041 51.092 36.3824 49.0293 36.3824 46.4972V45.3553H49.2861C50.9452 45.3553 52.2921 43.9833 52.2921 42.2901V29.8809C52.2921 29.1783 51.7331 28.6088 51.0403 28.6088H42.5131H42.0136V29.1147V37.3925C42.0136 37.5348 41.8977 37.6499 41.7609 37.6499H36.6321C36.4953 37.6499 36.3824 37.5348 36.3824 37.3925V24.9136C36.3824 23.7869 37.2803 22.8692 38.3833 22.8692H53.9154Z" fill="#7F9DA5"/>
  <mask id="mask1" mask-type="alpha" maskUnits="userSpaceOnUse" x="17" y="54" width="10" height="18">
    <path fill-rule="evenodd" clip-rule="evenodd" d="M17.3145 54.6318H26.163V71.0664H17.3145V54.6318Z" fill="white"/>
  </mask>
  <g mask="url(#mask1)">
    <path fill-rule="evenodd" clip-rule="evenodd" d="M21.8298 54.6318C20.477 54.6318 19.374 55.0226 18.5504 55.7919C17.7298 56.5612 17.3105 57.7122 17.3105 59.2115V66.514C17.3105 67.9981 17.706 69.14 18.482 69.9063C19.261 70.6756 20.3313 71.0664 21.6663 71.0664C22.9924 71.0664 24.0806 70.6726 24.9131 69.8942C25.7396 69.1188 26.1618 67.98 26.1618 66.514V62.4281H21.8328V64.515H23.5127V66.3232C23.5127 67.0622 23.37 67.6377 23.0816 68.0375C22.7872 68.4464 22.3442 68.6524 21.7615 68.6524C20.5662 68.6524 19.9597 67.8194 19.9597 66.1839V59.6779C19.9597 58.8177 20.0994 58.1604 20.3789 57.7243C20.6643 57.273 21.1311 57.0458 21.7615 57.0458C22.2758 57.0458 22.704 57.2245 23.028 57.5819C23.3521 57.9363 23.5127 58.4452 23.5127 59.0933V59.4901H26.1618V59.0933C26.1618 57.6213 25.7604 56.5006 24.9696 55.7555C24.1757 55.0104 23.1232 54.6318 21.8298 54.6318Z" fill="#384A51"/>
  </g>
  <path fill-rule="evenodd" clip-rule="evenodd" d="M32.0892 68.651C30.8969 68.651 30.2904 67.8211 30.2904 66.1855V59.6765C30.2904 58.8163 30.4301 58.1591 30.7066 57.7229C30.995 57.2716 31.4589 57.0445 32.0892 57.0445C32.6749 57.0445 33.1209 57.2777 33.4123 57.735C33.7007 58.1803 33.8464 58.8345 33.8464 59.6765V66.1855C33.8464 66.9488 33.6947 67.5576 33.4004 67.9877C33.1001 68.4299 32.6571 68.651 32.0892 68.651ZM32.1574 54.6299C30.8046 54.6299 29.7015 55.0206 28.8809 55.7899C28.0603 56.5593 27.644 57.7102 27.644 59.2095V66.5121C27.644 67.9962 28.0365 69.1381 28.8125 69.9044C29.5885 70.6737 30.6619 71.0644 31.9968 71.0644C33.3199 71.0644 34.4111 70.6707 35.2436 69.8922C36.0701 69.1169 36.4894 67.978 36.4894 66.5121V59.2095C36.4894 57.7072 36.0939 56.5593 35.309 55.7899C34.5241 55.0206 33.4656 54.6299 32.1574 54.6299Z" fill="#384A51"/>
  <path fill-rule="evenodd" clip-rule="evenodd" d="M43.3208 67.463V65.364C43.3208 63.995 42.854 63.3135 41.9144 63.3135C41.5011 63.3135 41.1741 63.471 40.9422 63.7799C40.7073 64.0919 40.5913 64.6159 40.5913 65.3459V67.463C40.5913 68.193 40.7014 68.717 40.9243 69.0289C41.1503 69.3379 41.4803 69.4954 41.9144 69.4954C42.3723 69.4954 42.7231 69.3227 42.961 68.9774C43.2018 68.6352 43.3208 68.1294 43.3208 67.463ZM39.5742 71.561H40.6386C40.6594 71.9275 40.7843 72.2183 41.0162 72.4364C41.2451 72.6514 41.5544 72.7605 41.9468 72.7605C42.4255 72.7605 42.7734 72.603 42.9934 72.294C43.2134 71.9821 43.3204 71.5096 43.3204 70.8765V69.6105C42.9607 70.2102 42.4196 70.51 41.7 70.51C41.034 70.51 40.5018 70.2708 40.0915 69.7861C39.6812 69.3015 39.4761 68.5716 39.4761 67.5963V65.2126C39.4761 64.2373 39.6812 63.5043 40.0915 63.0227C40.5018 62.5381 41.037 62.2988 41.703 62.2988C42.4196 62.2988 42.9607 62.6199 43.3204 63.262V62.4321H44.4324V70.7766C44.4324 71.6883 44.2303 72.4091 43.8199 72.9452C43.4096 73.4753 42.7853 73.7418 41.9468 73.7418C41.2065 73.7418 40.6327 73.548 40.2224 73.1603C39.812 72.7696 39.598 72.2365 39.5742 71.561Z" fill="#384A51"/>
  <path fill-rule="evenodd" clip-rule="evenodd" d="M49.8306 68.1095V65.3624C49.8306 64.6294 49.7087 64.1054 49.4708 63.7874C49.23 63.4724 48.8821 63.3118 48.4213 63.3118C47.9664 63.3118 47.6125 63.4693 47.3687 63.7783C47.122 64.0902 47.0001 64.6173 47.0001 65.3624V68.1095C47.0001 68.8546 47.122 69.3816 47.3687 69.6906C47.6125 70.0026 47.9664 70.1601 48.4213 70.1601C48.8821 70.1601 49.23 70.0026 49.4708 69.6876C49.7087 69.3665 49.8306 68.8425 49.8306 68.1095ZM45.8877 68.2425V65.2288C45.8877 64.2172 46.1107 63.4781 46.5567 63.0026C47.0056 62.5301 47.633 62.2969 48.4387 62.2969C49.2236 62.2969 49.8361 62.5331 50.2762 63.0117C50.7221 63.4902 50.9422 64.2293 50.9422 65.2288V68.2425C50.9422 69.242 50.7221 69.9811 50.2762 70.4566C49.8361 70.9382 49.2236 71.1775 48.4387 71.1775C47.633 71.1775 47.0056 70.9412 46.5567 70.4657C46.1107 69.9962 45.8877 69.2541 45.8877 68.2425Z" fill="#384A51"/>
  <path fill-rule="evenodd" clip-rule="evenodd" d="M53.1168 62.4307L54.7016 69.2425L56.2744 62.4307H57.4845L55.2427 71.0447H54.1307L51.9067 62.4307H53.1168Z" fill="#384A51"/>
  <path fill-rule="evenodd" clip-rule="evenodd" d="M59.4927 68.7291V68.6291H60.5244V68.7291C60.5244 69.1925 60.6552 69.5499 60.9168 69.8013C61.1755 70.0527 61.5353 70.1799 61.9961 70.1799C62.4183 70.1799 62.7632 70.0618 63.0189 69.8346C63.2716 69.6074 63.3995 69.2621 63.3995 68.7927C63.3995 68.4262 63.3133 68.1415 63.1408 67.9264C62.9654 67.7174 62.671 67.5236 62.2578 67.3449L61.1934 66.8966C60.1141 66.4393 59.573 65.6911 59.573 64.6462C59.573 63.9374 59.7959 63.365 60.236 62.9409C60.679 62.5108 61.2707 62.2988 62.014 62.2988C62.7543 62.2988 63.34 62.5139 63.7682 62.947C64.1993 63.3801 64.4134 63.9647 64.4134 64.6977V64.9127H63.3876V64.8128C63.3876 64.3251 63.2657 63.9465 63.0249 63.68C62.784 63.4134 62.4421 63.2802 61.9961 63.2802C61.5918 63.2802 61.2736 63.3953 61.0387 63.6224C60.8039 63.8496 60.6849 64.1616 60.6849 64.5644C60.6849 64.8643 60.7652 65.1247 60.9168 65.3458C61.0685 65.567 61.3361 65.7638 61.7166 65.9304L62.7781 66.3817C63.3579 66.624 63.792 66.9178 64.0804 67.2631C64.3688 67.6054 64.5115 68.09 64.5115 68.7109C64.5115 69.4893 64.2855 70.0951 63.8336 70.5282C63.3846 70.9583 62.7602 71.1794 61.9634 71.1794C61.1993 71.1794 60.5957 70.9583 60.1557 70.5191C59.7127 70.0799 59.4927 69.4833 59.4927 68.7291Z" fill="#384A51"/>
  <path fill-rule="evenodd" clip-rule="evenodd" d="M69.7456 67.463V65.364C69.7456 63.995 69.2788 63.3135 68.3392 63.3135C67.926 63.3135 67.6019 63.471 67.367 63.7799C67.1321 64.0919 67.0162 64.6159 67.0162 65.3459V67.463C67.0162 68.193 67.1262 68.717 67.3492 69.0289C67.5751 69.3379 67.9052 69.4954 68.3392 69.4954C68.8001 69.4954 69.148 69.3227 69.3888 68.9774C69.6266 68.6352 69.7456 68.1294 69.7456 67.463ZM66.0024 71.561H67.0668C67.0847 71.9275 67.2125 72.2183 67.4415 72.4364C67.6704 72.6514 67.9796 72.7605 68.3721 72.7605C68.8537 72.7605 69.2016 72.603 69.4216 72.294C69.6387 71.9821 69.7457 71.5096 69.7457 70.8765V69.6105C69.3889 70.2102 68.8478 70.51 68.1283 70.51C67.4623 70.51 66.9271 70.2708 66.5168 69.7861C66.1065 69.3015 65.9043 68.5716 65.9043 67.5963V65.2126C65.9043 64.2373 66.1065 63.5043 66.5168 63.0227C66.9271 62.5381 67.4623 62.2988 68.1283 62.2988C68.8478 62.2988 69.3889 62.6199 69.7457 63.262L69.7487 62.4321H70.8577V70.7766C70.8577 71.6883 70.6555 72.4091 70.2452 72.9452C69.8349 73.4753 69.2105 73.7418 68.3721 73.7418C67.6317 73.7418 67.0579 73.548 66.6476 73.1603C66.2373 72.7696 66.0232 72.2365 66.0024 71.561Z" fill="#384A51"/>
  <path fill-rule="evenodd" clip-rule="evenodd" d="M37.8646 71.0743H37.716C37.4246 71.0743 37.1838 70.8289 37.1838 70.5291V70.3806C37.1838 70.0808 37.4246 69.8355 37.716 69.8355H37.8646C38.159 69.8355 38.3998 70.0808 38.3998 70.3806V70.5291C38.3998 70.8289 38.159 71.0743 37.8646 71.0743Z" fill="#384A51"/>
  <path fill-rule="evenodd" clip-rule="evenodd" d="M57.8671 71.0743H57.7184C57.427 71.0743 57.1862 70.8289 57.1862 70.5291V70.3806C57.1862 70.0808 57.427 69.8355 57.7184 69.8355H57.8671C58.1614 69.8355 58.4023 70.0808 58.4023 70.3806V70.5291C58.4023 70.8289 58.1614 71.0743 57.8671 71.0743Z" fill="#384A51"/>
</svg>
