<svg width="25" height="25" viewBox="0 0 25 25" fill="none" xmlns="http://www.w3.org/2000/svg">
<path d="M3.6439 6.5959C5.2551 6.5959 6.56123 5.28976 6.56123 3.67856C6.56123 2.06736 5.2551 0.76123 3.6439 0.76123C2.0327 0.76123 0.726562 2.06736 0.726562 3.67856C0.726562 5.28976 2.0327 6.5959 3.6439 6.5959Z" fill="white"/>
<path d="M9.3158 8.80674V24.9921H14.3411V16.9881C14.3411 14.8761 14.7385 12.8307 17.3571 12.8307C19.9398 12.8307 19.9718 15.2454 19.9718 17.1214V24.9934H24.9998V16.1174C24.9998 11.7574 24.0611 8.40674 18.9651 8.40674C16.5185 8.40674 14.8785 9.7494 14.2078 11.0201H14.1398V8.80674H9.3158ZM1.12646 8.80674H6.1598V24.9921H1.12646V8.80674Z" fill="white"/>
</svg>
