<svg width="202" height="178" viewBox="0 0 202 178" fill="none" xmlns="http://www.w3.org/2000/svg">
<path d="M144.56 170.38C150.486 170.414 156.386 169.578 162.07 167.9C170.7 165.402 178.517 160.669 184.73 154.18C202.32 135.49 202.63 104.85 190.49 87.94C178.63 71.42 162.23 78.23 146.21 58.06C135.09 44.06 140.55 37.69 129.47 25.66C116.87 12 95.9999 5.23996 76.5499 8.37996C72.6599 8.99996 53.3299 12.13 41.8099 27.46C34.3799 37.36 38.1199 41.79 29.9299 57.7C20.9999 75.1 14.1399 74.38 7.99986 87.94C-1.62014 109.11 5.99986 130.89 6.55986 132.58C8.65154 138.331 11.6679 143.701 15.4899 148.48C21.0862 155.377 28.1625 160.926 36.1945 164.717C44.2265 168.508 53.0084 170.443 61.8899 170.38H144.56Z" fill="#FDF3E8"/>
<path d="M6.16992 170.38H193.01" stroke="#472F40" stroke-width="0.75" stroke-linecap="round" stroke-linejoin="round"/>
<path d="M94.79 149.59V140.32C94.79 137.472 95.9216 134.74 97.9357 132.726C99.9499 130.712 102.682 129.58 105.53 129.58C106.098 129.579 106.66 129.69 107.185 129.906C107.71 130.123 108.186 130.441 108.588 130.842C108.989 131.244 109.307 131.721 109.524 132.245C109.741 132.77 109.851 133.332 109.85 133.9C109.851 134.468 109.741 135.03 109.524 135.555C109.307 136.08 108.989 136.556 108.588 136.958C108.186 137.359 107.71 137.677 107.185 137.894C106.66 138.111 106.098 138.221 105.53 138.22H102C101.148 138.22 100.304 138.388 99.5161 138.714C98.7285 139.04 98.0129 139.517 97.41 140.12V140.12C95.7458 141.786 94.8107 144.045 94.81 146.4V149.59H94.79Z" fill="#BAE8E0"/>
<path d="M84.6701 149.59V141.72C84.6701 139.299 83.7082 136.976 81.996 135.264C80.2838 133.552 77.9615 132.59 75.5401 132.59C74.5668 132.59 73.6333 132.977 72.945 133.665C72.2568 134.353 71.8701 135.287 71.8701 136.26C71.8701 137.233 72.2568 138.167 72.945 138.855C73.6333 139.543 74.5668 139.93 75.5401 139.93H78.5401C80.0016 139.931 81.4034 140.51 82.4401 141.54V141.54C83.8521 142.959 84.6465 144.878 84.6501 146.88V149.59H84.6701Z" fill="#BAE8E0"/>
<path d="M90.23 149.59V122.73C90.2313 121.055 90.5628 119.397 91.2055 117.851C91.8482 116.304 92.7895 114.9 93.9756 113.717C95.1616 112.535 96.5692 111.598 98.1177 110.96C99.6662 110.322 101.325 109.996 103 110C104.539 110.003 106.014 110.616 107.102 111.705C108.189 112.795 108.8 114.271 108.8 115.81V115.81C108.8 117.348 108.189 118.824 107.101 119.911C106.013 120.999 104.538 121.61 103 121.61V121.61C101.179 121.609 99.3946 122.12 97.8507 123.086C96.3068 124.052 95.0659 125.432 94.27 127.07V127.07C91.9235 131.893 90.6283 137.159 90.47 142.52L90.23 149.59Z" fill="#BAE8E0"/>
<path d="M105.53 129.58C104.784 129.58 104.04 129.657 103.31 129.81C104.287 130.127 105.118 130.781 105.655 131.656C106.192 132.531 106.398 133.569 106.238 134.583C106.078 135.597 105.561 136.521 104.78 137.187C104 137.854 103.007 138.22 101.98 138.22H105.53C106.676 138.22 107.775 137.765 108.585 136.955C109.395 136.145 109.85 135.046 109.85 133.9C109.85 132.754 109.395 131.656 108.585 130.845C107.775 130.035 106.676 129.58 105.53 129.58V129.58Z" fill="#9DDFD3"/>
<path d="M103 110C102.293 110.002 101.587 110.066 100.89 110.19C101.699 110.391 102.454 110.764 103.107 111.282C103.759 111.801 104.293 112.453 104.672 113.195C105.051 113.937 105.267 114.751 105.304 115.584C105.342 116.416 105.201 117.247 104.89 118.02C104.459 119.095 103.712 120.013 102.748 120.654C101.784 121.295 100.648 121.628 99.4901 121.61C97.6696 121.611 95.8861 122.124 94.3427 123.089C92.7993 124.054 91.5579 125.434 90.7601 127.07V127.07C90.4612 127.694 90.3074 128.378 90.3101 129.07V149.56L90.5201 142.48C90.6808 137.074 91.9969 131.765 94.3801 126.91C95.1795 125.31 96.4101 123.965 97.9332 123.026C99.4563 122.088 101.211 121.594 103 121.6C103.931 121.597 104.848 121.371 105.673 120.942C106.499 120.512 107.21 119.891 107.747 119.13C108.283 118.369 108.63 117.491 108.757 116.569C108.885 115.647 108.79 114.708 108.48 113.83C108.082 112.698 107.34 111.72 106.357 111.033C105.373 110.346 104.199 109.984 103 110V110Z" fill="#9DDFD3"/>
<path d="M88.1601 149.59V128.49C88.1601 125.662 87.0373 122.95 85.0385 120.949C83.0396 118.948 80.3282 117.823 77.5001 117.82V117.82C76.0069 117.82 74.5749 118.413 73.5191 119.469C72.4633 120.525 71.8701 121.957 71.8701 123.45V123.45C71.8728 124.942 72.4671 126.371 73.5226 127.425C74.5782 128.478 76.0087 129.07 77.5001 129.07H78.6501C80.0108 129.069 81.3527 129.387 82.5683 129.999C83.7839 130.61 84.8394 131.497 85.6501 132.59V132.59C86.6487 133.935 87.2389 135.539 87.3501 137.21L88.1601 149.59Z" fill="#BAE8E0"/>
<path d="M75.5399 132.59C75.1441 132.593 74.7517 132.664 74.3799 132.8C76.2649 133.205 77.9727 134.198 79.2576 135.636C80.5424 137.073 81.338 138.882 81.5299 140.8C81.8637 141.011 82.1753 141.256 82.4599 141.53C83.8719 142.949 84.6662 144.868 84.6699 146.87V141.71C84.6672 139.29 83.7042 136.971 81.9922 135.261C80.2803 133.551 77.9596 132.59 75.5399 132.59V132.59Z" fill="#9DDFD3"/>
<path d="M77.4999 117.82C77.0585 117.821 76.6188 117.875 76.1899 117.98C78.6749 118.398 80.9314 119.684 82.5588 121.608C84.1863 123.532 85.0795 125.97 85.0799 128.49V131.91C85.2699 132.13 85.4699 132.35 85.6399 132.59C86.6386 133.935 87.2288 135.539 87.3399 137.21L88.1599 149.59V128.49C88.1599 125.662 87.0372 122.95 85.0383 120.949C83.0395 118.948 80.3281 117.823 77.4999 117.82V117.82Z" fill="#9DDFD3"/>
<path d="M94.79 149.59V140.32C94.79 137.472 95.9216 134.74 97.9357 132.726C99.9499 130.712 102.682 129.58 105.53 129.58C106.098 129.579 106.66 129.69 107.185 129.906C107.71 130.123 108.186 130.441 108.588 130.842C108.989 131.244 109.307 131.721 109.524 132.245C109.741 132.77 109.851 133.332 109.85 133.9C109.851 134.468 109.741 135.03 109.524 135.555C109.307 136.08 108.989 136.556 108.588 136.958C108.186 137.359 107.71 137.677 107.185 137.894C106.66 138.111 106.098 138.221 105.53 138.22H102C101.148 138.22 100.304 138.388 99.5161 138.714C98.7285 139.04 98.0129 139.517 97.41 140.12V140.12C95.7458 141.786 94.8107 144.045 94.81 146.4V149.59H94.79Z" stroke="#472F40" stroke-width="0.75" stroke-miterlimit="10"/>
<path d="M84.6701 149.59V141.72C84.6701 139.299 83.7082 136.976 81.996 135.264C80.2838 133.552 77.9615 132.59 75.5401 132.59C74.5668 132.59 73.6333 132.977 72.945 133.665C72.2568 134.353 71.8701 135.287 71.8701 136.26C71.8701 137.233 72.2568 138.167 72.945 138.855C73.6333 139.543 74.5668 139.93 75.5401 139.93H78.5401C80.0016 139.931 81.4034 140.51 82.4401 141.54V141.54C83.8521 142.959 84.6465 144.878 84.6501 146.88V149.59H84.6701Z" stroke="#472F40" stroke-width="0.75" stroke-miterlimit="10"/>
<path d="M90.23 149.59V122.73C90.2313 121.055 90.5628 119.397 91.2055 117.851C91.8482 116.304 92.7895 114.9 93.9756 113.717C95.1616 112.535 96.5692 111.598 98.1177 110.96C99.6662 110.322 101.325 109.996 103 110C104.539 110.003 106.014 110.616 107.102 111.705C108.189 112.795 108.8 114.271 108.8 115.81V115.81C108.8 117.348 108.189 118.824 107.101 119.911C106.013 120.999 104.538 121.61 103 121.61V121.61C101.179 121.609 99.3946 122.12 97.8507 123.086C96.3068 124.052 95.0659 125.432 94.27 127.07V127.07C91.9235 131.893 90.6283 137.159 90.47 142.52L90.23 149.59Z" stroke="#472F40" stroke-width="0.75" stroke-miterlimit="10"/>
<path d="M88.1601 149.59V128.49C88.1601 125.662 87.0373 122.95 85.0385 120.949C83.0396 118.948 80.3282 117.823 77.5001 117.82V117.82C76.0069 117.82 74.5749 118.413 73.5191 119.469C72.4633 120.525 71.8701 121.957 71.8701 123.45V123.45C71.8728 124.942 72.4671 126.371 73.5226 127.425C74.5782 128.478 76.0087 129.07 77.5001 129.07H78.6501C80.0108 129.069 81.3527 129.387 82.5683 129.999C83.7839 130.61 84.8394 131.497 85.6501 132.59V132.59C86.6487 133.935 87.2389 135.539 87.3501 137.21L88.1601 149.59Z" stroke="#472F40" stroke-width="0.75" stroke-miterlimit="10"/>
<path d="M86.3602 130.06C86.0255 128.125 85.0415 126.361 83.5702 125.06C81.8664 123.62 79.6779 122.883 77.4502 123" stroke="#472F40" stroke-width="0.75" stroke-linecap="round" stroke-linejoin="round"/>
<path d="M92.2998 125.29C92.3149 123.778 92.6707 122.289 93.3407 120.933C94.0107 119.577 94.9777 118.39 96.1698 117.46C97.2908 116.661 98.566 116.104 99.9142 115.825C101.262 115.546 102.654 115.551 104 115.84" stroke="#472F40" stroke-width="0.75" stroke-linecap="round" stroke-linejoin="round"/>
<path d="M82.9998 140C82.4214 139.004 81.6206 138.155 80.6598 137.52C79.296 136.642 77.6892 136.219 76.0698 136.31" stroke="#472F40" stroke-width="0.75" stroke-linecap="round" stroke-linejoin="round"/>
<path d="M96.4399 138.75C97.2384 137.367 98.3692 136.206 99.7299 135.37C101.707 134.2 104.03 133.754 106.3 134.11" stroke="#472F40" stroke-width="0.75" stroke-linecap="round" stroke-linejoin="round"/>
<path d="M101.43 170.38H79.9302L76.9302 151.66H104.43L101.43 170.38Z" fill="#FFBF8A"/>
<path d="M77.3502 154.27H104.01L104.43 151.66H76.9302L77.3502 154.27Z" fill="#FF847C"/>
<path d="M106.34 147.52H75.0202C73.877 147.52 72.9502 148.447 72.9502 149.59C72.9502 150.733 73.877 151.66 75.0202 151.66H106.34C107.483 151.66 108.41 150.733 108.41 149.59C108.41 148.447 107.483 147.52 106.34 147.52Z" fill="#FFBF8A"/>
<path d="M106.34 147.52H75.0202C73.877 147.52 72.9502 148.447 72.9502 149.59C72.9502 150.733 73.877 151.66 75.0202 151.66H106.34C107.483 151.66 108.41 150.733 108.41 149.59C108.41 148.447 107.483 147.52 106.34 147.52Z" stroke="#472F40" stroke-width="0.75" stroke-linecap="round" stroke-linejoin="round"/>
<path d="M101.43 170.38H79.9302L76.9302 151.66H104.43L101.43 170.38Z" stroke="#472F40" stroke-width="0.75" stroke-linecap="round" stroke-linejoin="round"/>
<path d="M186.83 117.82H117.83C116.67 117.82 115.73 118.76 115.73 119.92C115.73 121.08 116.67 122.02 117.83 122.02H186.83C187.99 122.02 188.93 121.08 188.93 119.92C188.93 118.76 187.99 117.82 186.83 117.82Z" fill="#FFBF8A"/>
<path d="M123.05 122.02H119.93V170.38H123.05V122.02Z" fill="#FFBF8A"/>
<path d="M123.05 122.02H119.93V125.29H123.05V122.02Z" fill="#FF847C"/>
<path d="M184.73 122.02H181.61V170.38H184.73V122.02Z" fill="#FFBF8A"/>
<path d="M184.73 122.02H181.61V125.29H184.73V122.02Z" fill="#FF847C"/>
<path d="M186.83 117.82H117.83C116.67 117.82 115.73 118.76 115.73 119.92C115.73 121.08 116.67 122.02 117.83 122.02H186.83C187.99 122.02 188.93 121.08 188.93 119.92C188.93 118.76 187.99 117.82 186.83 117.82Z" stroke="#472F40" stroke-width="0.75" stroke-linecap="round" stroke-linejoin="round"/>
<path d="M123.05 122.02H119.93V170.38H123.05V122.02Z" stroke="#472F40" stroke-width="0.75" stroke-linecap="round" stroke-linejoin="round"/>
<path d="M184.73 122.02H181.61V170.38H184.73V122.02Z" stroke="#472F40" stroke-width="0.75" stroke-linecap="round" stroke-linejoin="round"/>
<path d="M177.83 95.6201H124.67C123.311 95.6201 122.21 96.7215 122.21 98.0801V115.36C122.21 116.719 123.311 117.82 124.67 117.82H177.83C179.189 117.82 180.29 116.719 180.29 115.36V98.0801C180.29 96.7215 179.189 95.6201 177.83 95.6201Z" fill="#8ABAF1"/>
<path d="M177.83 95.6201H173V117.82H177.8C178.452 117.82 179.078 117.561 179.539 117.1C180.001 116.638 180.26 116.013 180.26 115.36V98.0801C180.26 97.4328 180.005 96.8116 179.55 96.3512C179.095 95.8907 178.477 95.628 177.83 95.6201Z" fill="#6986C5"/>
<path d="M177.83 95.6201H124.67C123.311 95.6201 122.21 96.7215 122.21 98.0801V115.36C122.21 116.719 123.311 117.82 124.67 117.82H177.83C179.189 117.82 180.29 116.719 180.29 115.36V98.0801C180.29 96.7215 179.189 95.6201 177.83 95.6201Z" stroke="#472F40" stroke-width="0.75" stroke-linecap="round" stroke-linejoin="round"/>
<path d="M166.82 100.06H161.15V105.73H166.82V100.06Z" fill="#FF847C"/>
<path d="M166.82 100.06H164.84V105.73H166.82V100.06Z" fill="#ED6663"/>
<path d="M155.93 100.06H126.65V113.38H155.93V100.06Z" fill="#DAF6E8"/>
<path d="M155.93 100.06H126.65V113.38H155.93V100.06Z" stroke="#472F40" stroke-width="0.75" stroke-linecap="round" stroke-linejoin="round"/>
<path d="M131.39 105.73H129.59V111.88H131.39V105.73Z" fill="#AB7F95"/>
<path d="M134.99 102.9H133.19V111.89H134.99V102.9Z" fill="#AB7F95"/>
<path d="M138.59 108.82H136.79V111.88H138.59V108.82Z" fill="#AB7F95"/>
<path d="M142.19 104.32H140.39V111.88H142.19V104.32Z" fill="#AB7F95"/>
<path d="M145.79 107.71H143.99V111.88H145.79V107.71Z" fill="#AB7F95"/>
<path d="M149.39 103.24H147.59V111.88H149.39V103.24Z" fill="#AB7F95"/>
<path d="M152.99 104.74H151.19V111.88H152.99V104.74Z" fill="#AB7F95"/>
<path d="M166.82 107.71H161.15V113.38H166.82V107.71Z" fill="#FFE8E8"/>
<path d="M175.01 100.06H169.34V105.73H175.01V100.06Z" fill="#FFBF8A"/>
<path d="M175.01 107.71H169.34V113.38H175.01V107.71Z" fill="#AB7F95"/>
<path d="M166.82 100.06H161.15V105.73H166.82V100.06Z" stroke="#472F40" stroke-width="0.75" stroke-linecap="round" stroke-linejoin="round"/>
<path d="M166.82 107.71H164.84V113.38H166.82V107.71Z" fill="#F8C5A8"/>
<path d="M175.01 100.06H173.03V105.73H175.01V100.06Z" fill="#FF847C"/>
<path d="M175.01 107.71H173.03V113.38H175.01V107.71Z" fill="#6D4558"/>
<path d="M166.82 107.71H161.15V113.38H166.82V107.71Z" stroke="#472F40" stroke-width="0.75" stroke-linecap="round" stroke-linejoin="round"/>
<path d="M175.01 100.06H169.34V105.73H175.01V100.06Z" stroke="#472F40" stroke-width="0.75" stroke-linecap="round" stroke-linejoin="round"/>
<path d="M175.01 107.71H169.34V113.38H175.01V107.71Z" stroke="#472F40" stroke-width="0.75" stroke-linecap="round" stroke-linejoin="round"/>
<path d="M131.39 105.73H129.59V111.88H131.39V105.73Z" stroke="#472F40" stroke-width="0.75" stroke-linecap="round" stroke-linejoin="round"/>
<path d="M134.99 102.9H133.19V111.89H134.99V102.9Z" stroke="#472F40" stroke-width="0.75" stroke-linecap="round" stroke-linejoin="round"/>
<path d="M138.59 108.82H136.79V111.88H138.59V108.82Z" stroke="#472F40" stroke-width="0.75" stroke-linecap="round" stroke-linejoin="round"/>
<path d="M142.19 104.32H140.39V111.88H142.19V104.32Z" stroke="#472F40" stroke-width="0.75" stroke-linecap="round" stroke-linejoin="round"/>
<path d="M145.79 107.71H143.99V111.88H145.79V107.71Z" stroke="#472F40" stroke-width="0.75" stroke-linecap="round" stroke-linejoin="round"/>
<path d="M149.39 103.24H147.59V111.88H149.39V103.24Z" stroke="#472F40" stroke-width="0.75" stroke-linecap="round" stroke-linejoin="round"/>
<path d="M152.99 104.74H151.19V111.88H152.99V104.74Z" stroke="#472F40" stroke-width="0.75" stroke-linecap="round" stroke-linejoin="round"/>
<path d="M75.3398 24.1699H145.66C146.259 24.1699 146.852 24.2879 147.405 24.517C147.958 24.7462 148.461 25.0821 148.884 25.5055C149.308 25.9289 149.644 26.4316 149.873 26.9849C150.102 27.5381 150.22 28.1311 150.22 28.7299V82.7299C150.22 83.3288 150.102 83.9217 149.873 84.475C149.644 85.0282 149.308 85.5309 148.884 85.9543C148.461 86.3778 147.958 86.7137 147.405 86.9428C146.852 87.172 146.259 87.2899 145.66 87.2899H143.77C143.365 87.2948 142.967 87.3867 142.601 87.5592C142.235 87.7318 141.911 87.981 141.65 88.2899L138.65 91.6199C138.481 91.8082 138.274 91.9587 138.044 92.0618C137.813 92.1648 137.563 92.2181 137.31 92.2181C137.057 92.2181 136.807 92.1648 136.576 92.0618C136.345 91.9587 136.139 91.8082 135.97 91.6199L133.03 88.2899C132.768 87.9815 132.444 87.7326 132.078 87.5601C131.712 87.3876 131.314 87.2955 130.91 87.2899H75.3398C74.1304 87.2899 72.9705 86.8095 72.1154 85.9543C71.2602 85.0992 70.7798 83.9393 70.7798 82.7299V28.7299C70.7798 27.5205 71.2602 26.3607 72.1154 25.5055C72.9705 24.6503 74.1304 24.1699 75.3398 24.1699Z" fill="#D2E3F9"/>
<path d="M75.3398 24.1699H145.66C146.259 24.1699 146.852 24.2879 147.405 24.517C147.958 24.7462 148.461 25.0821 148.884 25.5055C149.308 25.9289 149.644 26.4316 149.873 26.9849C150.102 27.5381 150.22 28.1311 150.22 28.7299V82.7299C150.22 83.3288 150.102 83.9217 149.873 84.475C149.644 85.0282 149.308 85.5309 148.884 85.9543C148.461 86.3778 147.958 86.7137 147.405 86.9428C146.852 87.172 146.259 87.2899 145.66 87.2899H143.77C143.365 87.2948 142.967 87.3867 142.601 87.5592C142.235 87.7318 141.911 87.981 141.65 88.2899L138.65 91.6199C138.481 91.8082 138.274 91.9587 138.044 92.0618C137.813 92.1648 137.563 92.2181 137.31 92.2181C137.057 92.2181 136.807 92.1648 136.576 92.0618C136.345 91.9587 136.139 91.8082 135.97 91.6199L133.03 88.2899C132.768 87.9815 132.444 87.7326 132.078 87.5601C131.712 87.3876 131.314 87.2955 130.91 87.2899H75.3398C74.1304 87.2899 72.9705 86.8095 72.1154 85.9543C71.2602 85.0992 70.7798 83.9393 70.7798 82.7299V28.7299C70.7798 27.5205 71.2602 26.3607 72.1154 25.5055C72.9705 24.6503 74.1304 24.1699 75.3398 24.1699Z" stroke="#472F40" stroke-width="0.75" stroke-linecap="round" stroke-linejoin="round"/>
<path d="M81.2202 74.6899L86.1002 80.3599C86.4448 80.7469 86.9261 80.9851 87.4428 81.0243C87.9595 81.0634 88.4712 80.9005 88.8702 80.5699C89.2601 80.225 89.5002 79.7416 89.5394 79.2225C89.5786 78.7034 89.4139 78.1895 89.0802 77.7899L84.2002 72.1299L81.2202 74.6899Z" fill="#8ABAF1"/>
<path d="M81.2202 74.6899L86.1002 80.3599C86.4448 80.7469 86.9261 80.9851 87.4428 81.0243C87.9595 81.0634 88.4712 80.9005 88.8702 80.5699C89.2601 80.225 89.5002 79.7416 89.5394 79.2225C89.5786 78.7034 89.4139 78.1895 89.0802 77.7899L84.2002 72.1299L81.2202 74.6899Z" stroke="#472F40" stroke-width="0.75" stroke-linecap="round" stroke-linejoin="round"/>
<path d="M83.9102 65.6701L78.4802 68.2701C77.4766 68.7309 76.6785 69.5463 76.2393 70.5595C75.8 71.5728 75.7505 72.7126 76.1002 73.7601C76.307 74.3351 76.6324 74.8603 77.0552 75.3015C77.4781 75.7426 77.989 76.09 78.5547 76.321C79.1204 76.552 79.7284 76.6615 80.3392 76.6424C80.95 76.6233 81.55 76.476 82.1002 76.2101L87.7002 73.5301C89.8285 72.5185 92.2028 72.1402 94.5402 72.4401L100.54 73.2301L96.3802 64.5401L92.2302 55.8601L89.0502 61.0001C87.8286 63.0244 86.042 64.6476 83.9102 65.6701V65.6701Z" fill="#8ABAF1"/>
<path d="M78.3098 68.3457L80.7726 67.1678L84.5392 75.0434L82.0764 76.2213C81.0332 76.7202 79.8346 76.7843 78.7441 76.3994C77.6537 76.0146 76.7608 75.2123 76.2619 74.1691C75.763 73.126 75.6989 71.9273 76.0838 70.8369C76.4686 69.7465 77.2709 68.8536 78.3141 68.3547L78.3098 68.3457Z" fill="#FF847C"/>
<path d="M78.3098 68.3457L80.7726 67.1678L84.5392 75.0434L82.0764 76.2213C81.0332 76.7202 79.8346 76.7843 78.7441 76.3994C77.6537 76.0146 76.7608 75.2123 76.2619 74.1691C75.763 73.126 75.6989 71.9273 76.0838 70.8369C76.4686 69.7465 77.2709 68.8536 78.3141 68.3547L78.3098 68.3457Z" stroke="#472F40" stroke-width="0.75" stroke-linecap="round" stroke-linejoin="round"/>
<path d="M83.9102 65.6701L78.4802 68.2701C77.4766 68.7309 76.6785 69.5463 76.2393 70.5595C75.8 71.5728 75.7505 72.7126 76.1002 73.7601C76.307 74.3351 76.6324 74.8603 77.0552 75.3015C77.4781 75.7426 77.989 76.09 78.5547 76.321C79.1204 76.552 79.7284 76.6615 80.3392 76.6424C80.95 76.6233 81.55 76.476 82.1002 76.2101L87.7002 73.5301C89.8285 72.5185 92.2028 72.1402 94.5402 72.4401L100.54 73.2301L96.3802 64.5401L92.2302 55.8601L89.0502 61.0001C87.8286 63.0244 86.042 64.6476 83.9102 65.6701V65.6701Z" stroke="#472F40" stroke-width="0.75" stroke-linecap="round" stroke-linejoin="round"/>
<path d="M100.511 73.2362C101.577 72.7263 100.581 68.4233 98.2866 63.6253C95.9919 58.8273 93.2673 55.3512 92.2011 55.8611C91.1349 56.371 92.1307 60.674 94.4254 65.472C96.7201 70.27 99.4447 73.7461 100.511 73.2362Z" fill="#6986C5"/>
<path d="M100.511 73.2362C101.577 72.7263 100.581 68.4233 98.2866 63.6253C95.9919 58.8273 93.2673 55.3512 92.2011 55.8611C91.1349 56.371 92.1307 60.674 94.4254 65.472C96.7201 70.27 99.4447 73.7461 100.511 73.2362Z" stroke="#472F40" stroke-width="0.75" stroke-linecap="round" stroke-linejoin="round"/>
<path d="M94.4299 65.4699C94.8199 66.2799 95.2299 67.0499 95.6299 67.7799L97.5499 66.0799L95.9099 62.6599L93.3799 63.0899C93.6999 63.8599 93.9999 64.6499 94.4299 65.4699Z" fill="#FDF3E8"/>
<path d="M94.4299 65.4699C94.8199 66.2799 95.2299 67.0499 95.6299 67.7799L97.5499 66.0799L95.9099 62.6599L93.3799 63.0899C93.6999 63.8599 93.9999 64.6499 94.4299 65.4699Z" stroke="#472F40" stroke-width="0.75" stroke-linecap="round" stroke-linejoin="round"/>
<path d="M99.0498 55.7L100.19 56.23L103.46 52.58L100.3 51.03L99.0498 55.7Z" fill="#FFBF8A"/>
<path d="M99.0498 55.7L100.19 56.23L103.46 52.58L100.3 51.03L99.0498 55.7Z" stroke="#472F40" stroke-width="0.75" stroke-linecap="round" stroke-linejoin="round"/>
<path d="M105.42 66.3999L105.27 67.9699L109.78 69.1599L110.05 66.4799L105.42 66.3999Z" fill="#FFBF8A"/>
<path d="M105.42 66.3999L105.27 67.9699L109.78 69.1599L110.05 66.4799L105.42 66.3999Z" stroke="#472F40" stroke-width="0.75" stroke-linecap="round" stroke-linejoin="round"/>
<path d="M105.39 58.63L106.1 60.03L110.55 58.63L109.35 56.23L105.39 58.63Z" fill="#FFBF8A"/>
<path d="M105.39 58.63L106.1 60.03L110.55 58.63L109.35 56.23L105.39 58.63Z" stroke="#472F40" stroke-width="0.75" stroke-linecap="round" stroke-linejoin="round"/>
<path d="M80.48 33.76H89.2" stroke="#472F40" stroke-width="0.75" stroke-linecap="round" stroke-linejoin="round"/>
<path d="M80.48 38.2H107.01" stroke="#472F40" stroke-width="0.75" stroke-linecap="round" stroke-linejoin="round"/>
<path d="M80.48 42.6399H97.38" stroke="#472F40" stroke-width="0.75" stroke-linecap="round" stroke-linejoin="round"/>
<path d="M123.77 45.4099V70.9999H134.37C135.866 71.0004 137.346 70.6823 138.709 70.0668C140.073 69.4512 141.291 68.5524 142.28 67.4299V67.4299C143.961 65.5086 144.888 63.0428 144.89 60.4899V45.4099H123.77Z" fill="#FFE8E8"/>
<path d="M144.89 59.6499C144.955 60.7181 144.706 61.7819 144.173 62.7098C143.64 63.6376 142.846 64.3887 141.89 64.8699C140.941 65.2689 139.889 65.3496 138.89 65.0999C139.012 65.8092 138.98 66.5362 138.798 67.2324C138.616 67.9285 138.287 68.5777 137.833 69.1364C137.38 69.695 136.812 70.1503 136.168 70.4717C135.524 70.7931 134.819 70.9732 134.1 70.9999H134.37C135.751 71.0025 137.12 70.7326 138.397 70.2054C139.674 69.6783 140.834 68.9044 141.811 67.9281C142.788 66.9517 143.563 65.7922 144.092 64.5158C144.62 63.2394 144.891 61.8713 144.89 60.4899V59.6499Z" fill="#FF847C"/>
<path d="M123.77 45.4099V70.9999H134.37C135.866 71.0004 137.346 70.6823 138.709 70.0668C140.073 69.4512 141.291 68.5524 142.28 67.4299V67.4299C143.961 65.5086 144.888 63.0428 144.89 60.4899V45.4099H123.77Z" stroke="#472F40" stroke-width="0.75" stroke-linecap="round" stroke-linejoin="round"/>
<path d="M144.89 59.6499C144.955 60.7181 144.706 61.7819 144.173 62.7098C143.64 63.6376 142.846 64.3887 141.89 64.8699C140.941 65.2689 139.889 65.3496 138.89 65.0999C139.012 65.8092 138.98 66.5362 138.798 67.2324C138.616 67.9285 138.287 68.5777 137.833 69.1364C137.38 69.695 136.812 70.1503 136.168 70.4717C135.524 70.7931 134.819 70.9732 134.1 70.9999H134.37C135.751 71.0025 137.12 70.7326 138.397 70.2054C139.674 69.6783 140.834 68.9044 141.811 67.9281C142.788 66.9517 143.563 65.7922 144.092 64.5158C144.62 63.2394 144.891 61.8713 144.89 60.4899V59.6499Z" stroke="#472F40" stroke-width="0.75" stroke-linecap="round" stroke-linejoin="round"/>
<path d="M127.28 50.0801H133.64" stroke="#472F40" stroke-width="0.75" stroke-linecap="round" stroke-linejoin="round"/>
<path d="M127.28 53.3201H139.88" stroke="#472F40" stroke-width="0.75" stroke-linecap="round" stroke-linejoin="round"/>
<path d="M127.28 56.5601H137.18" stroke="#472F40" stroke-width="0.75" stroke-linecap="round" stroke-linejoin="round"/>
<path d="M127.28 59.8H129.74" stroke="#472F40" stroke-width="0.75" stroke-linecap="round" stroke-linejoin="round"/>
<path d="M127.28 64.96H131.48" stroke="#472F40" stroke-width="0.75" stroke-linecap="round" stroke-linejoin="round"/>
<path d="M122.25 29.9099H114.93V37.2299H122.25V29.9099Z" fill="#FFBF8A"/>
<path d="M122.25 29.9099H114.93V37.2299H122.25V29.9099Z" stroke="#472F40" stroke-width="0.75" stroke-linecap="round" stroke-linejoin="round"/>
<path d="M116.61 32.4299H118.77" stroke="#472F40" stroke-width="0.75" stroke-linecap="round" stroke-linejoin="round"/>
<path d="M116.61 34.71H120.15" stroke="#472F40" stroke-width="0.75" stroke-linecap="round" stroke-linejoin="round"/>
<path d="M124.95 75.49H117.63V82.81H124.95V75.49Z" fill="#FFBF8A"/>
<path d="M124.95 75.49H117.63V82.81H124.95V75.49Z" stroke="#472F40" stroke-width="0.75" stroke-linecap="round" stroke-linejoin="round"/>
<path d="M119.52 78.01H121.68" stroke="#472F40" stroke-width="0.75" stroke-linecap="round" stroke-linejoin="round"/>
<path d="M119.52 80.29H123.06" stroke="#472F40" stroke-width="0.75" stroke-linecap="round" stroke-linejoin="round"/>
<path d="M140.84 33.5701H133.52V40.8901H140.84V33.5701Z" fill="#FFBF8A"/>
<path d="M140.84 33.5701H133.52V40.8901H140.84V33.5701Z" stroke="#472F40" stroke-width="0.75" stroke-linecap="round" stroke-linejoin="round"/>
<path d="M135.41 36.0901H137.57" stroke="#472F40" stroke-width="0.75" stroke-linecap="round" stroke-linejoin="round"/>
<path d="M135.41 38.3701H138.95" stroke="#472F40" stroke-width="0.75" stroke-linecap="round" stroke-linejoin="round"/>
<path d="M19.7802 163.45C19.6999 164.363 19.4381 165.25 19.0102 166.06C18.4702 167.06 17.8902 167.47 17.3002 168.72C17.0458 169.25 16.8513 169.807 16.7202 170.38H31.1602C31.0719 169.853 30.82 169.366 30.4402 168.99C28.9902 167.59 26.4402 168.99 24.3602 167.53C23.974 167.289 23.6651 166.942 23.4702 166.53C23.2048 165.865 23.2048 165.124 23.4702 164.46L19.7802 163.45Z" fill="#AB7F95"/>
<path d="M53.1401 163.24C53.2201 164.41 53.2901 165.63 53.3201 166.9C53.3501 168.17 53.3201 169.27 53.3201 170.38H67.5401C67.226 169.592 66.7084 168.902 66.0401 168.38C64.5101 167.23 62.9601 167.71 61.4201 167.24C60.1701 166.86 58.5301 165.72 57.1601 162.24L53.1401 163.24Z" fill="#AB7F95"/>
<path d="M19.7802 163.45C19.6999 164.363 19.4381 165.25 19.0102 166.06C18.4702 167.06 17.8902 167.47 17.3002 168.72C17.0458 169.25 16.8513 169.807 16.7202 170.38H31.1602C31.0719 169.853 30.82 169.366 30.4402 168.99C28.9902 167.59 26.4402 168.99 24.3602 167.53C23.974 167.289 23.6651 166.942 23.4702 166.53C23.2048 165.865 23.2048 165.124 23.4702 164.46L19.7802 163.45Z" stroke="#472F40" stroke-width="0.75" stroke-linecap="round" stroke-linejoin="round"/>
<path d="M53.1401 163.24C53.2201 164.41 53.2901 165.63 53.3201 166.9C53.3501 168.17 53.3201 169.27 53.3201 170.38H67.5401C67.226 169.592 66.7084 168.902 66.0401 168.38C64.5101 167.23 62.9601 167.71 61.4201 167.24C60.1701 166.86 58.5301 165.72 57.1601 162.24L53.1401 163.24Z" stroke="#472F40" stroke-width="0.75" stroke-linecap="round" stroke-linejoin="round"/>
<path d="M39.9999 58.7799C41.3374 58.8908 42.6765 58.5876 43.8358 57.9114C44.995 57.2352 45.9181 56.2187 46.4799 54.9999C47.8499 51.4199 44.7299 46.9199 41.0199 46.6899C37.7799 46.4899 35.6099 49.6899 35.4999 49.8099C34.7612 49.1947 33.8522 48.8197 32.8945 48.7352C31.9369 48.6507 30.9762 48.8606 30.1411 49.3368C29.306 49.8131 28.6363 50.533 28.2215 51.4003C27.8066 52.2676 27.6665 53.2408 27.8199 54.1899C27.1099 53.8899 26.4199 53.8499 26.1999 54.1299C25.9799 54.4099 26.1999 55.3599 27.1999 56.1299C26.4662 57.1126 26.1112 58.3268 26.1999 59.5499C26.2867 60.4645 26.6237 61.3376 27.1741 62.0732C27.7245 62.8088 28.4669 63.3786 29.3199 63.7199C30.4094 64.1099 31.6004 64.1099 32.6899 63.7199C33.9704 63.3705 35.1209 62.6545 35.9999 61.6599C37.2599 60.1299 37.3199 58.4199 38.3999 58.1799C38.6944 58.1555 38.9906 58.1967 39.2672 58.3004C39.5439 58.4042 39.7941 58.5679 39.9999 58.7799Z" fill="#6D4558"/>
<path d="M40.3301 58.7699C41.6139 58.8245 42.8848 58.4949 43.9803 57.8233C45.0758 57.1518 45.9462 56.1687 46.4801 54.9999C47.8501 51.4199 44.7301 46.9199 41.0201 46.6899C40.1951 46.6794 39.3767 46.8391 38.6162 47.1592C37.8557 47.4792 37.1694 47.9527 36.6001 48.5499C37.4534 48.2197 38.3733 48.0982 39.283 48.1956C40.1928 48.293 41.0661 48.6065 41.8301 49.1099C42.6132 49.6851 43.2277 50.4598 43.6094 51.3534C43.991 52.2469 44.126 53.2265 44.0001 54.1899C43.8709 55.2178 43.4596 56.1897 42.8118 56.9981C42.164 57.8065 41.3051 58.4198 40.3301 58.7699Z" fill="#472F40"/>
<path d="M26.1699 72.64C28.6464 70.5251 31.7238 69.24 34.9689 68.9656C38.2139 68.6911 41.4634 69.4411 44.2599 71.11C43.185 81.5289 43.861 92.0542 46.2599 102.25L33.2599 103.78C33.8962 95.1413 32.4775 86.4748 29.1199 78.49C28.2578 76.4812 27.2726 74.5274 26.1699 72.64V72.64Z" fill="#AB7F95"/>
<path d="M24.1599 146.86C28.332 148.047 32.7087 148.333 36.9999 147.7C41.9999 146.92 44.4099 145.16 50.6099 144.24C53.6112 143.793 56.6516 143.665 59.6799 143.86C58.1299 142.24 55.8599 139.77 53.3199 136.54C52.3199 135.27 51.8099 134.63 51.3999 134.02C48.1099 129.2 48.6499 124.1 48.0399 118.18C47.586 113.919 46.619 109.729 45.1599 105.7L36.7599 105.46C38.9199 112.96 37.8399 117.82 36.5199 120.82C33.0299 128.73 24.9299 130.49 23.3199 138.46C22.806 141.283 23.0971 144.194 24.1599 146.86V146.86Z" fill="#9DDFD3"/>
<path d="M24.1599 146.86C28.332 148.047 32.7087 148.333 36.9999 147.7C41.9999 146.92 44.4099 145.16 50.6099 144.24C53.6112 143.793 56.6516 143.665 59.6799 143.86C58.1299 142.24 55.8599 139.77 53.3199 136.54C52.3199 135.27 51.8099 134.63 51.3999 134.02C48.1099 129.2 48.6499 124.1 48.0399 118.18C47.586 113.919 46.619 109.729 45.1599 105.7L36.7599 105.46C38.9199 112.96 37.8399 117.82 36.5199 120.82C33.0299 128.73 24.9299 130.49 23.3199 138.46C22.806 141.283 23.0971 144.194 24.1599 146.86V146.86Z" stroke="#472F40" stroke-width="0.75" stroke-linecap="round" stroke-linejoin="round"/>
<path d="M59.6502 150.85C59.5469 146.437 59.0652 142.041 58.2102 137.71L46.2102 98.3799C43.7973 98.4659 41.3923 98.7063 39.0102 99.0999C34.686 99.8126 30.4582 101.021 26.4102 102.7C27.1735 106.142 27.7146 109.629 28.0302 113.14C28.84 122.544 28.0179 132.016 25.6002 141.14L24.9102 143.81L24.1302 146.87C23.7902 148.35 23.4202 149.87 22.9902 151.43C21.7698 155.83 20.2461 160.14 18.4302 164.33C19.3502 164.51 20.3302 164.67 21.3702 164.81C22.4102 164.95 23.3702 165.05 24.2502 165.11C26.6552 161.445 28.8005 157.615 30.6702 153.65C32.9332 148.837 34.78 143.838 36.1902 138.71C36.8102 135.71 37.3702 132.51 37.8402 129.17C38.6462 123.412 39.127 117.612 39.2802 111.8C42.9476 119.104 45.869 126.759 48.0002 134.65C50.5864 144.252 51.9769 154.137 52.1402 164.08C53.3833 164.005 54.6178 163.824 55.8302 163.54C56.9044 163.288 57.9575 162.954 58.9802 162.54C59.5005 158.666 59.7245 154.758 59.6502 150.85V150.85Z" fill="#FF847C"/>
<path d="M57.8099 136.42C57.1899 136.06 56.5899 135.74 56.0499 135.42C53.5999 134.15 50.2299 132.42 48.0499 133.89L47.8799 134.02C47.9299 134.22 47.9899 134.41 48.0499 134.61C48.9499 137.95 49.6499 141.17 50.2099 144.27C51.0695 144.552 51.9111 144.886 52.7299 145.27C55.305 146.451 57.6432 148.091 59.6299 150.11C59.4973 145.945 59.0258 141.798 58.2199 137.71L57.8099 136.42Z" fill="#ED6663"/>
<path d="M35.62 139C34.5 137.69 32.41 137.91 29.86 138.19C28.58 138.33 27.35 138.47 26.23 138.71C26.03 139.56 25.83 140.38 25.63 141.16L24.94 143.83L24.16 146.89C23.89 148.07 23.59 149.27 23.27 150.5C25.9067 149.127 28.6175 147.902 31.39 146.83C32.25 146.5 33.09 146.2 33.93 145.91C34.74 143.67 35.41 141.55 35.93 139.56C35.847 139.363 35.743 139.175 35.62 139V139Z" fill="#ED6663"/>
<path d="M59.6502 150.85C59.5469 146.437 59.0652 142.041 58.2102 137.71L46.2102 98.3799C43.7973 98.4659 41.3923 98.7063 39.0102 99.0999C34.686 99.8126 30.4582 101.021 26.4102 102.7C27.1735 106.142 27.7146 109.629 28.0302 113.14C28.84 122.544 28.0179 132.016 25.6002 141.14L24.9102 143.81L24.1302 146.87C23.7902 148.35 23.4202 149.87 22.9902 151.43C21.7698 155.83 20.2461 160.14 18.4302 164.33C19.3502 164.51 20.3302 164.67 21.3702 164.81C22.4102 164.95 23.3702 165.05 24.2502 165.11C26.6552 161.445 28.8005 157.615 30.6702 153.65C32.9332 148.837 34.78 143.838 36.1902 138.71C36.8102 135.71 37.3702 132.51 37.8402 129.17C38.6462 123.412 39.127 117.612 39.2802 111.8C42.9476 119.104 45.869 126.759 48.0002 134.65C50.5864 144.252 51.9769 154.137 52.1402 164.08C53.3833 164.005 54.6178 163.824 55.8302 163.54C56.9044 163.288 57.9575 162.954 58.9802 162.54C59.5005 158.666 59.7245 154.758 59.6502 150.85V150.85Z" stroke="#472F40" stroke-width="0.75" stroke-linecap="round" stroke-linejoin="round"/>
<path d="M24.2401 100.39C26.0701 114.52 24.3801 123.93 22.3601 130.06C21.3001 133.27 18.3601 141.06 21.8801 145.18C22.5089 145.899 23.287 146.472 24.1601 146.86C24.0298 146.276 24.0166 145.673 24.1213 145.084C24.226 144.495 24.4465 143.933 24.7701 143.43C27.5401 139.62 37.1201 143.77 39.7701 139.69C40.0271 139.228 40.2094 138.729 40.3101 138.21C41.4002 133.951 41.8086 129.547 41.5201 125.16C40.8101 117.46 41.14 109.7 40.85 101.98C40.69 97.7801 40.6001 94.8001 40.3101 90.1001C39.6901 80.1001 39.0301 76.2201 36.4401 72.6401C35.1102 70.8271 33.4514 69.2802 31.5501 68.0801C30.3109 68.3229 29.1032 68.7054 27.9501 69.2201C23.7147 71.2604 20.3512 74.7516 18.4701 79.0601C15.1901 86.2901 15.7701 97.5301 20.8701 99.9401C21.9292 100.416 23.1079 100.559 24.2501 100.35L24.2401 100.39Z" fill="#BAE8E0"/>
<path d="M31.9302 95.2301C29.5044 97.1466 26.9333 98.8718 24.2402 100.39C25.1655 106.888 25.273 113.476 24.5602 120C26.3802 109.39 29.9602 104.32 33.1002 101.65C34.3402 100.59 37.7802 97.9801 38.6802 93.6501C38.9876 92.149 38.9876 90.6012 38.6802 89.1001C36.5872 91.3098 34.3308 93.3589 31.9302 95.2301V95.2301Z" fill="#9DDFD3"/>
<path d="M34.8101 88.1699L34.8701 81.6399L24.6401 82.3199V96.3999L34.8701 90.0999L34.8101 88.1699Z" fill="#FFBF8A"/>
<path d="M34.8101 88.1699L34.8701 81.6399L24.6401 82.3199V96.3999L34.8701 90.0999L34.8101 88.1699Z" stroke="#472F40" stroke-width="0.75" stroke-linecap="round" stroke-linejoin="round"/>
<path d="M24.2402 100.35C28.7702 99.75 33.4802 95.46 33.8802 95.08C33.7302 94.22 33.5602 93.32 33.3402 92.38C33.0802 91.2733 32.8002 90.2333 32.5002 89.26C31.2702 90.05 30.1802 90.69 29.3202 91.18C26.6802 92.67 25.7102 92.96 24.7602 92.68C24.3605 92.5617 23.9918 92.3568 23.6802 92.08" fill="#BAE8E0"/>
<path d="M24.2401 100.39C26.0701 114.52 24.3801 123.93 22.3601 130.06C21.3001 133.27 18.3601 141.06 21.8801 145.18C22.5089 145.899 23.287 146.472 24.1601 146.86C24.0298 146.276 24.0166 145.673 24.1213 145.084C24.226 144.495 24.4465 143.933 24.7701 143.43C27.5401 139.62 37.1201 143.77 39.7701 139.69C40.0271 139.228 40.2094 138.729 40.3101 138.21C41.4002 133.951 41.8086 129.547 41.5201 125.16C40.8101 117.46 41.14 109.7 40.85 101.98C40.69 97.7801 40.6001 94.8001 40.3101 90.1001C39.6901 80.1001 39.0301 76.2201 36.4401 72.6401C35.1102 70.8271 33.4514 69.2802 31.5501 68.0801C30.3109 68.3229 29.1032 68.7054 27.9501 69.2201C23.7147 71.2604 20.3512 74.7516 18.4701 79.0601C15.1901 86.2901 15.7701 97.5301 20.8701 99.9401C21.9292 100.416 23.1079 100.559 24.2501 100.35L24.2401 100.39Z" stroke="#472F40" stroke-width="0.75" stroke-linecap="round" stroke-linejoin="round"/>
<path d="M39.7302 83.0701C39.5602 81.7901 39.3802 80.4201 39.1102 79.0001C38.6968 76.7084 37.7816 74.5365 36.4302 72.6401C35.1004 70.8271 33.4416 69.2802 31.5402 68.0801V68.0801C30.8186 68.2205 30.1691 68.6097 29.7049 69.1799C29.2408 69.75 28.9914 70.4649 29.0002 71.2001C29.0113 71.626 29.1208 72.0436 29.3202 72.4201C29.7802 73.2101 30.3202 73.0901 33.2402 74.5801C34.9402 75.4601 35.8002 75.9001 36.0702 76.3801C37.1302 78.2301 34.9202 80.3001 36.0702 81.9601C36.6202 82.7801 37.3102 82.5001 38.4502 83.5801C39.2628 84.3663 39.8469 85.3582 40.1402 86.4501C40.0002 85.2201 39.8402 84.1001 39.7302 83.0701Z" fill="#9DDFD3"/>
<path d="M46.24 87.4C46.0299 86.4288 45.8697 85.4475 45.76 84.46C45.5139 82.3147 45.4938 80.1495 45.7 78" stroke="#472F40" stroke-width="0.75" stroke-linecap="round" stroke-linejoin="round"/>
<path d="M32.6401 89.72L34.8101 88.17V83.49C34.9901 83.56 38.5001 85.07 38.7301 87.81C38.9301 90.26 36.3901 92.35 35.0801 93.43C34.6478 93.791 34.1936 94.125 33.7201 94.43C33.6001 93.77 33.4601 93.1 33.3001 92.43C33.1201 91.44 32.8801 90.55 32.6401 89.72Z" fill="#D2A186"/>
<path d="M32.6401 89.72L34.8101 88.17V83.49C34.9901 83.56 38.5001 85.07 38.7301 87.81C38.9301 90.26 36.3901 92.35 35.0801 93.43C34.6478 93.791 34.1936 94.125 33.7201 94.43C33.6001 93.77 33.4601 93.1 33.3001 92.43C33.1201 91.44 32.8801 90.55 32.6401 89.72Z" stroke="#472F40" stroke-width="0.75" stroke-linecap="round" stroke-linejoin="round"/>
<path d="M24.2402 100.35C28.7702 99.75 33.4802 95.46 33.8802 95.08C33.7302 94.22 33.5602 93.32 33.3402 92.38C33.0802 91.2733 32.8002 90.2333 32.5002 89.26C31.2702 90.05 30.1802 90.69 29.3202 91.18C26.6802 92.67 25.7102 92.96 24.7602 92.68C24.3605 92.5617 23.9918 92.3568 23.6802 92.08" stroke="#472F40" stroke-width="0.75" stroke-linecap="round" stroke-linejoin="round"/>
<path d="M39.7302 83.0701C39.5602 81.7901 39.3802 80.4201 39.1102 79.0001C38.6968 76.7084 37.7816 74.5365 36.4302 72.6401C35.1004 70.8271 33.4416 69.2802 31.5402 68.0801V68.0801C30.8186 68.2205 30.1691 68.6097 29.7049 69.1799C29.2408 69.75 28.9914 70.4649 29.0002 71.2001C29.0113 71.626 29.1208 72.0436 29.3202 72.4201C29.7802 73.2101 30.3202 73.0901 33.2402 74.5801C34.9402 75.4601 35.8002 75.9001 36.0702 76.3801C37.1302 78.2301 34.9202 80.3001 36.0702 81.9601C36.6202 82.7801 37.3102 82.5001 38.4502 83.5801C39.2628 84.3663 39.8469 85.3582 40.1402 86.4501C40.0002 85.2201 39.8402 84.1001 39.7302 83.0701Z" stroke="#472F40" stroke-width="0.75" stroke-linecap="round" stroke-linejoin="round"/>
<path d="M39.9999 58.7799C41.3374 58.8908 42.6765 58.5876 43.8358 57.9114C44.995 57.2352 45.9181 56.2187 46.4799 54.9999C47.8499 51.4199 44.7299 46.9199 41.0199 46.6899C37.7799 46.4899 35.6099 49.6899 35.4999 49.8099C34.7612 49.1947 33.8522 48.8197 32.8945 48.7352C31.9369 48.6507 30.9762 48.8606 30.1411 49.3368C29.306 49.8131 28.6363 50.533 28.2215 51.4003C27.8066 52.2676 27.6665 53.2408 27.8199 54.1899C27.1099 53.8899 26.4199 53.8499 26.1999 54.1299C25.9799 54.4099 26.1999 55.3599 27.1999 56.1299C26.4662 57.1126 26.1112 58.3268 26.1999 59.5499C26.2867 60.4645 26.6237 61.3376 27.1741 62.0732C27.7245 62.8088 28.4669 63.3786 29.3199 63.7199C30.4094 64.1099 31.6004 64.1099 32.6899 63.7199C33.9704 63.3705 35.1209 62.6545 35.9999 61.6599C37.2599 60.1299 37.3199 58.4199 38.3999 58.1799C38.6944 58.1555 38.9906 58.1967 39.2672 58.3004C39.5439 58.4042 39.7941 58.5679 39.9999 58.7799Z" stroke="#472F40" stroke-width="0.75" stroke-linecap="round" stroke-linejoin="round"/>
<path d="M38.6801 68.14C38.3372 67.865 38.0517 67.5252 37.8401 67.14C37.5453 66.5562 37.4206 65.9013 37.4801 65.25C38.4496 65.1731 39.3521 64.7254 40.0001 64C40.3314 63.581 40.5741 63.099 40.7133 62.5832C40.8526 62.0675 40.8855 61.5289 40.8101 61C40.7001 59.84 40.1901 59.58 39.8101 58.15C39.6201 57.3549 39.5593 56.5344 39.6301 55.72C39.248 55.6052 38.8564 55.5249 38.4601 55.48C37.5786 55.3921 36.6886 55.4944 35.8501 55.78C36.1201 56.16 36.2701 56.59 36.1201 56.78C35.9701 56.97 35.1201 57.15 34.3201 56.63C34.5346 57.1341 34.6565 57.6727 34.6801 58.22C34.6801 59.22 34.4001 60.5 33.9901 60.53C33.5801 60.56 33.4701 58.95 32.4901 58.64C32.0575 58.5442 31.6048 58.6104 31.2178 58.826C30.8307 59.0417 30.5362 59.3918 30.3901 59.81C30.3107 60.1924 30.3517 60.59 30.5075 60.9482C30.6633 61.3063 30.9262 61.6074 31.2601 61.81C31.6506 62.0649 32.1155 62.1811 32.5801 62.14C32.681 62.967 32.681 63.8031 32.5801 64.63C32.4268 65.8062 32.0608 66.9448 31.5001 67.99C32.5747 69.4697 34.13 70.5302 35.9001 70.99C36.7101 71.17 37.9001 71.43 38.5201 70.75C38.7829 70.3712 38.9369 69.9276 38.9651 69.4674C38.9933 69.0072 38.8947 68.5481 38.6801 68.14V68.14Z" fill="#D2A186"/>
<path d="M38.6801 68.14C38.3372 67.865 38.0517 67.5252 37.8401 67.14C37.5453 66.5562 37.4206 65.9013 37.4801 65.25C38.4496 65.1731 39.3521 64.7254 40.0001 64C40.3314 63.581 40.5741 63.099 40.7133 62.5832C40.8526 62.0675 40.8855 61.5289 40.8101 61C40.7001 59.84 40.1901 59.58 39.8101 58.15C39.6201 57.3549 39.5593 56.5344 39.6301 55.72C39.248 55.6052 38.8564 55.5249 38.4601 55.48C37.5786 55.3921 36.6886 55.4944 35.8501 55.78C36.1201 56.16 36.2701 56.59 36.1201 56.78C35.9701 56.97 35.1201 57.15 34.3201 56.63C34.5346 57.1341 34.6565 57.6727 34.6801 58.22C34.6801 59.22 34.4001 60.5 33.9901 60.53C33.5801 60.56 33.4701 58.95 32.4901 58.64C32.0575 58.5442 31.6048 58.6104 31.2178 58.826C30.8307 59.0417 30.5362 59.3918 30.3901 59.81C30.3107 60.1924 30.3517 60.59 30.5075 60.9482C30.6633 61.3063 30.9262 61.6074 31.2601 61.81C31.6506 62.0649 32.1155 62.1811 32.5801 62.14C32.681 62.967 32.681 63.8031 32.5801 64.63C32.4268 65.8062 32.0608 66.9448 31.5001 67.99C32.5747 69.4697 34.13 70.5302 35.9001 70.99C36.7101 71.17 37.9001 71.43 38.5201 70.75C38.7829 70.3712 38.9369 69.9276 38.9651 69.4674C38.9933 69.0072 38.8947 68.5481 38.6801 68.14V68.14Z" stroke="#472F40" stroke-width="0.75" stroke-linecap="round" stroke-linejoin="round"/>
<path d="M39.6699 55.75C39.9549 55.8157 40.2354 55.8992 40.5099 56C40.7755 56.0886 41.0359 56.1921 41.2899 56.31" stroke="#472F40" stroke-width="0.75" stroke-linecap="round" stroke-linejoin="round"/>
<path d="M37.6899 59C37.7041 59.246 37.7652 59.487 37.8699 59.71C38.0499 60.1 38.2799 60.25 38.2399 60.46C38.1999 60.67 38.1099 60.73 37.7299 60.87" stroke="#472F40" stroke-width="0.5" stroke-linecap="round" stroke-linejoin="round"/>
<path d="M37.2298 62.0001C36.6398 61.7601 36.4798 61.5101 36.3898 61.5801C36.2998 61.6501 36.3898 62.8201 37.0298 62.9201C37.4598 62.9801 37.9598 62.5101 37.8998 62.2901C37.8398 62.0701 37.6698 62.2001 37.2298 62.0001Z" fill="#472F40"/>
<path d="M32.18 59.8401C32.0948 59.8484 32.0126 59.8762 31.9398 59.9213C31.867 59.9663 31.8055 60.0275 31.76 60.1001C31.6993 60.1939 31.667 60.3033 31.667 60.4151C31.667 60.5269 31.6993 60.6362 31.76 60.7301" stroke="#472F40" stroke-width="0.5" stroke-linecap="round" stroke-linejoin="round"/>
<path d="M58.3101 142.73L58.6901 143.01L58.8601 143.15L59.1801 143.41L59.3101 143.53L59.6801 143.86C59.8101 141.71 59.8301 139.7 59.7801 137.81C59.7801 136.96 59.7001 136.14 59.6501 135.35L59.5901 134.64C59.5901 134.07 59.4901 133.51 59.4301 132.96C59.4301 132.75 59.4301 132.53 59.3601 132.32C59.1801 130.83 58.9601 129.46 58.7201 128.21C58.7201 128.21 58.7201 128.14 58.7201 128.1C58.6001 127.48 58.4701 126.9 58.3401 126.34C58.3449 126.284 58.3449 126.227 58.3401 126.17C58.2101 125.6 58.0701 125.05 57.9401 124.54C55.9401 117.02 53.4101 113.77 50.4401 104.98C50.4123 104.912 50.3889 104.842 50.3701 104.77C49.1853 101.206 48.4332 97.5133 48.1301 93.7701C48.1301 93.2301 48.0501 92.6801 48.0301 92.1301L47.8601 88.4601C47.8401 88.0637 47.8401 87.6665 47.8601 87.2701C47.8601 87.1201 47.8601 86.9701 47.8601 86.8201L47.9201 86.1101C47.9201 85.9201 47.9201 85.7201 48.0001 85.5301C48.0801 85.3401 48.0601 85.1801 48.0901 85.0101C48.1201 84.8401 48.1801 84.5501 48.2301 84.3201C48.2801 84.0901 48.2801 84.1301 48.3001 84.0301C48.6371 82.7352 49.1449 81.491 49.8101 80.3301V80.3301C48.8995 81.7544 48.1388 83.2691 47.5401 84.8501C43.5401 95.3301 48.5401 104.67 51.4501 117.07C53.2557 124.826 54.0821 132.778 53.9101 140.74L54.6401 140.92H54.7501C55.0201 141 55.2901 141.08 55.5801 141.19C55.8701 141.3 56.2201 141.46 56.5201 141.6L56.7401 141.71C57.2397 141.963 57.7209 142.25 58.1801 142.57L58.3101 142.73Z" fill="#9DDFD3"/>
<path d="M51.53 39.8801C51.28 39.3801 51.27 38.7501 50.91 38.3001C50.55 37.8501 50.85 37.3001 50.05 37.0401C49.63 36.9001 48.05 37.4201 47.25 36.4601C46.6962 35.7941 46.3872 34.9585 46.3744 34.0925C46.3617 33.2264 46.646 32.3821 47.18 31.7001C47.7197 30.9723 48.4942 30.4533 49.3726 30.231C50.2509 30.0087 51.1791 30.0967 52 30.4801C53.23 31.0601 53.5 32.1001 54.19 33.4801C54.8379 34.9783 55.3142 36.5449 55.61 38.1501C54.25 38.7901 52.86 39.3101 51.53 39.8801Z" fill="#D2A186"/>
<path d="M51.53 39.8801C51.28 39.3801 51.27 38.7501 50.91 38.3001C50.55 37.8501 50.85 37.3001 50.05 37.0401C49.63 36.9001 48.05 37.4201 47.25 36.4601C46.6962 35.7941 46.3872 34.9585 46.3744 34.0925C46.3617 33.2264 46.646 32.3821 47.18 31.7001C47.7197 30.9723 48.4942 30.4533 49.3726 30.231C50.2509 30.0087 51.1791 30.0967 52 30.4801C53.23 31.0601 53.5 32.1001 54.19 33.4801C54.8379 34.9783 55.3142 36.5449 55.61 38.1501C54.25 38.7901 52.86 39.3101 51.53 39.8801Z" stroke="#472F40" stroke-width="0.75" stroke-linecap="round" stroke-linejoin="round"/>
<path d="M50.21 36.9999C50.7014 36.9063 51.1659 36.7048 51.57 36.4099C52.0084 36.0852 52.3533 35.6506 52.57 35.1499" stroke="#472F40" stroke-width="0.75" stroke-linecap="round" stroke-linejoin="round"/>
<path d="M50.26 105C48.8641 100.863 48.0234 96.5584 47.76 92.1999C47.76 91.3399 47.53 89.6299 47.6 88.5699C47.87 84.5699 48.08 82.4399 50.79 78.7999C55.99 71.7999 59.05 64.5399 59.36 55.2599C59.5498 49.1527 58.4385 43.0749 56.1 37.4299C55.04 37.5799 54.2 37.7499 53.1 37.9799C52 38.2099 50.68 38.5499 49.58 38.8799C52.58 46.0999 52.77 53.1699 51 60.7999C50.281 63.3022 49.0059 65.6097 47.27 67.5499C46.84 67.99 46.3047 68.3128 45.7149 68.4878C45.1251 68.6628 44.5004 68.6842 43.9 68.5499C43.25 68.4599 42 67.9699 41.65 68.2399C41.3 68.5099 41.58 68.2399 41.58 68.2399C40.58 68.9199 39.74 68.1499 38.73 68.0299C39.17 69.1999 39.68 71.1099 40.03 72.3099C41.83 78.3099 41.85 89.3999 41.97 94.3099C42.22 104.76 44.79 111.78 45.05 120.78C45.22 126.78 43.05 136.45 47.85 140.07C50.36 141.94 52.85 139.76 55.54 141.13C57.0129 141.794 58.3888 142.655 59.63 143.69C59.9535 137.351 59.3778 130.998 57.92 124.82C55.69 116.68 52.84 112.41 50.26 105Z" fill="#BAE8E0"/>
<path d="M50.26 105C48.8641 100.863 48.0234 96.5584 47.76 92.1999C47.76 91.3399 47.53 89.6299 47.6 88.5699C47.87 84.5699 48.08 82.4399 50.79 78.7999C55.99 71.7999 59.05 64.5399 59.36 55.2599C59.5498 49.1527 58.4385 43.0749 56.1 37.4299C55.04 37.5799 54.2 37.7499 53.1 37.9799C52 38.2099 50.68 38.5499 49.58 38.8799C49.94 38.7699 51.47 44.8799 51.58 45.4299C52.0012 47.6442 52.1889 49.8965 52.14 52.1499C52.1326 55.0578 51.7289 57.9511 50.94 60.7499C50.2 63.2099 48.82 66.7499 46.54 68.1999C45.29 68.9799 43.9 68.5999 42.54 68.4499H42.46C41.82 68.3699 41.18 68.3099 40.54 68.2499L39.6 68.1499C39.3102 68.1665 39.0197 68.1665 38.73 68.1499C39.17 69.3199 39.68 71.2299 40.03 72.4299C41.83 78.4299 41.85 89.5199 41.97 94.4299C42.22 104.88 44.79 111.9 45.05 120.9C45.22 126.9 43.05 136.57 47.85 140.19C50.36 142.06 52.85 139.88 55.54 141.25C57.0129 141.914 58.3888 142.775 59.63 143.81C59.9535 137.471 59.3778 131.118 57.92 124.94C55.69 116.68 52.84 112.41 50.26 105Z" stroke="#472F40" stroke-width="0.75" stroke-linecap="round" stroke-linejoin="round"/>
<path d="M42.1602 87.5799C42.3387 86.2126 42.6742 84.8704 43.1602 83.5799C43.9102 81.5199 44.4202 81.2599 44.4202 80.1599C44.4202 78.0199 42.5402 77.6899 42.3102 75.4399C42.0802 73.1899 43.6802 72.4399 43.2502 70.9799C43.0002 69.9999 42.0002 68.8999 38.6802 68.1399C39.0302 69.1399 39.5402 70.6199 40.0602 72.4599C41.4273 77.3845 42.1335 82.4691 42.1602 87.5799V87.5799Z" fill="#9DDFD3"/>
<path d="M41.8302 87.9299C42.1225 86.4252 42.5578 84.9518 43.1302 83.5299C43.9502 81.5299 44.3902 81.1599 44.3902 80.1099C44.3902 77.9699 42.5102 77.6399 42.2802 75.3899C42.0502 73.1399 43.6502 72.3899 43.2202 70.9299C43.0002 69.9999 42.0002 68.8999 38.6802 68.1399C39.2136 69.5554 39.6742 70.9973 40.0602 72.4599C40.5799 74.5231 40.9673 76.6173 41.2202 78.7299C41.6062 81.7817 41.8099 84.8538 41.8302 87.9299V87.9299Z" stroke="#472F40" stroke-width="0.75" stroke-linecap="round" stroke-linejoin="round"/>
<path d="M35.6899 59.4101C35.8182 59.2817 35.9819 59.1947 36.1599 59.1601C36.3623 59.1235 36.571 59.1588 36.7499 59.2601" stroke="#472F40" stroke-width="0.5" stroke-linecap="round" stroke-linejoin="round"/>
<path d="M38.6099 59.1299C38.7381 59.0016 38.9018 58.9145 39.0799 58.8799C39.2834 58.8454 39.4925 58.8844 39.6699 58.9899" stroke="#472F40" stroke-width="0.5" stroke-linecap="round" stroke-linejoin="round"/>
</svg>
