<svg width="490" height="153" viewBox="0 0 490 153" fill="none" xmlns="http://www.w3.org/2000/svg">
<g clip-path="url(#clip0_10423_10017)">
<g filter="url(#filter0_d_10423_10017)">
<path d="M455 72H35C32.2386 72 30 74.2386 30 77V119C30 121.761 32.2386 124 35 124H455C457.761 124 460 121.761 460 119V77C460 74.2386 457.761 72 455 72Z" fill="#E8E8E8"/>
<path d="M146 94C146 86.268 152.268 80 160 80H460V116H160C152.268 116 146 109.732 146 102V94Z" fill="#F9F9F9"/>
<path d="M177.333 98.0007C177.333 97.2653 176.735 96.6673 176 96.6673H175.333V94.6673C175.333 92.8293 173.838 91.334 172 91.334C170.162 91.334 168.667 92.8293 168.667 94.6673V96.6673H168C167.265 96.6673 166.667 97.2653 166.667 98.0007V103.334C166.667 104.069 167.265 104.667 168 104.667H176C176.735 104.667 177.333 104.069 177.333 103.334V98.0007ZM170 94.6673C170 93.5647 170.897 92.6673 172 92.6673C173.103 92.6673 174 93.5647 174 94.6673V96.6673H170V94.6673Z" fill="#472F40"/>
<path d="M52.6617 104.774L47.1674 99.2796H59.4358V96.7199H47.1674L52.6617 91.2257L50.852 89.416L42.2683 97.9997L50.852 106.583L52.6617 104.774Z" fill="#D8D8D8"/>
<path d="M85.4071 104.774L87.2168 106.583L95.8005 97.9997L87.2168 89.416L85.4071 91.2257L90.9014 96.7199H78.6331V99.2796H90.9014L85.4071 104.774Z" fill="#D8D8D8"/>
<path d="M118.307 96.7196H114.597C114.597 96.7158 114.597 96.7119 114.598 96.7081C114.682 96.2998 114.807 95.8967 114.971 95.5089C115.132 95.1288 115.331 94.7628 115.561 94.421C115.789 94.0832 116.052 93.7645 116.342 93.474C116.632 93.1847 116.951 92.9211 117.291 92.692C117.632 92.4616 117.996 92.2646 118.376 92.1033C118.763 91.9395 119.166 91.8141 119.577 91.7309C120.419 91.5581 121.314 91.5581 122.16 91.7309C122.567 91.8141 122.971 91.9395 123.359 92.1033C123.738 92.2633 124.102 92.4629 124.447 92.6933C124.787 92.9224 125.104 93.1847 125.391 93.4727L127.203 91.6656C126.802 91.2612 126.354 90.8926 125.877 90.5714C125.4 90.2488 124.888 89.9698 124.357 89.7446C123.813 89.5142 123.246 89.3389 122.674 89.2224C121.493 88.9805 120.244 88.9805 119.066 89.2224C118.492 89.3402 117.925 89.5155 117.382 89.7459C116.846 89.9711 116.334 90.2488 115.858 90.5714C115.384 90.89 114.939 91.2586 114.532 91.6643C114.125 92.07 113.758 92.5167 113.44 92.9889C113.118 93.4663 112.839 93.9782 112.613 94.5119C112.383 95.0546 112.208 95.6215 112.091 96.1949C112.055 96.3676 112.036 96.5443 112.011 96.7196H108.069L113.188 101.839L118.307 96.7196ZM123.427 99.2792H127.137C127.136 99.2831 127.137 99.2869 127.136 99.2895C127.051 99.7041 126.926 100.107 126.762 100.49C126.604 100.865 126.406 101.231 126.174 101.575C125.945 101.913 125.682 102.233 125.39 102.525C125.102 102.813 124.785 103.075 124.444 103.306C124.101 103.536 123.736 103.734 123.358 103.896C122.97 104.059 122.567 104.185 122.157 104.268C121.316 104.441 120.42 104.441 119.576 104.268C119.167 104.185 118.764 104.059 118.376 103.896C117.996 103.734 117.63 103.536 117.289 103.306C116.951 103.078 116.632 102.814 116.342 102.525L114.532 104.335C114.938 104.74 115.384 105.109 115.857 105.427C116.334 105.75 116.846 106.029 117.38 106.254C117.922 106.485 118.489 106.66 119.062 106.776C119.652 106.897 120.259 106.958 120.867 106.958C121.475 106.958 122.082 106.897 122.669 106.776C123.244 106.66 123.812 106.483 124.355 106.253C124.886 106.028 125.398 105.75 125.875 105.427C126.351 105.106 126.799 104.736 127.2 104.335C127.605 103.929 127.974 103.482 128.294 103.007C128.619 102.525 128.898 102.013 129.119 101.488C129.347 100.951 129.522 100.384 129.641 99.804C129.676 99.6312 129.696 99.4546 129.722 99.2792H133.665L128.546 94.16L123.427 99.2792Z" fill="#D8D8D8"/>
</g>
<path d="M142.39 32.2999C141.5 35.5199 140.17 40.4799 138.74 46.6199C136.74 55.2099 135.06 60.3099 133.64 68.1999C133.35 69.7999 133.13 71.13 132.99 72.01H113.83C114.15 70.62 114.6 68.7399 115.23 66.5299C115.23 66.5299 115.69 64.9399 116.23 63.2599C118.881 54.7331 121.996 46.3573 125.56 38.1699L129.56 28.95L130.29 29.0599C134.415 29.7641 138.465 30.8488 142.39 32.2999V32.2999Z" fill="#FF847C"/>
<path d="M141.09 31.8199H141C140.541 32.0431 140.093 32.2901 139.66 32.5599C139.19 32.8599 139.07 32.8799 139.01 32.9999C138.66 33.6199 139.94 34.9999 140.59 35.5999C139.07 37.3899 137 39.9599 134.72 43.1899C130.22 49.5599 126.17 55.3099 124.03 62.7699C123.179 65.7786 122.683 68.8762 122.55 71.9999H133C133.14 71.1199 133.36 69.7899 133.65 68.1899C135.07 60.2999 136.76 55.1899 138.75 46.6099C139.589 41.7482 140.809 36.9601 142.4 32.2899L141.09 31.8199Z" fill="#ED6663"/>
<path d="M142.39 32.2999C141.5 35.5199 140.17 40.4799 138.74 46.6199C136.74 55.2099 135.06 60.3099 133.64 68.1999C133.35 69.7999 133.13 71.13 132.99 72.01H113.83C114.15 70.62 114.6 68.7399 115.23 66.5299C115.23 66.5299 115.69 64.9399 116.23 63.2599C118.881 54.7331 121.996 46.3573 125.56 38.1699L129.56 28.95L130.29 29.0599C134.415 29.7641 138.465 30.8488 142.39 32.2999V32.2999Z" stroke="#472F40" stroke-linecap="round" stroke-linejoin="round"/>
<path d="M129.53 29C123.18 28 119.86 27.51 115.84 27.65C106.62 27.94 100.1 30.55 94.09 32.99C80.37 38.5 78.39 43.38 77.86 45C77.6904 45.5514 77.5535 46.1124 77.45 46.68C76.08 54.03 80.15 59.41 87.3 72.34C88.49 74.48 90.25 77.73 92.3 81.77C93.1 81.54 94 81.23 94.95 80.86C98.4688 79.4753 101.695 77.4398 104.46 74.86C104.3 74.36 104.12 73.86 103.89 73.29C103.66 72.72 103.49 72.37 103.29 71.97H118.03C118.338 69.9457 118.769 67.942 119.32 65.97C122.66 54.23 128.91 48.87 129.77 36.72C129.948 34.1451 129.867 31.5588 129.53 29V29ZM104.13 56C102.98 59.65 101.78 63.21 100.56 66.68L99.99 65.8C97.36 61.8 92.63 54.61 94.79 50.59C95.39 49.47 97.19 48.59 100.79 46.89C102.996 45.8359 105.271 44.9338 107.6 44.19C106.533 48.0633 105.377 52 104.13 56Z" fill="#BAE8E0"/>
<path d="M107.24 53.73C107.802 50.5887 107.919 47.384 107.59 44.21C107.303 45.29 107.003 46.37 106.69 47.45L106.32 48.75C106.24 49 106.17 49.24 106.1 49.49C106.03 49.74 105.91 50.15 105.81 50.49C105.783 50.605 105.749 50.7185 105.71 50.83C105.58 51.29 105.44 51.76 105.3 52.22L104.64 54.39C104.51 54.8 104.39 55.21 104.26 55.62C104.26 55.76 104.17 55.9 104.13 56.04L103.2 58.93V59.03L103.09 59.36L102.67 60.62C102.51 61.1 102.36 61.57 102.2 62.04L102.05 62.48C101.96 62.75 101.87 63.03 101.77 63.3C101.38 64.45 100.99 65.59 100.59 66.72C101.637 68.3708 102.556 70.0991 103.34 71.89L103.39 72.03H108.39C106.78 68.73 105.11 67.58 104.8 64.2C104.44 60.5 106.2 59.52 107.24 53.73Z" fill="#9DDFD3"/>
<path d="M132.89 27.61C131.591 27.4672 130.277 27.5348 129 27.81" stroke="#472F40" stroke-width="1.5" stroke-linecap="round" stroke-linejoin="round"/>
<path d="M140.74 29.4C141.857 30.0075 142.85 30.8181 143.67 31.79" stroke="#472F40" stroke-width="1.5" stroke-linecap="round" stroke-linejoin="round"/>
<path d="M153.57 14.71C155.115 14.8194 156.651 14.4035 157.93 13.53C159.156 12.6484 160.052 11.3817 160.474 9.93171C160.896 8.48176 160.821 6.93215 160.26 5.53004C159.845 4.66997 159.25 3.90941 158.515 3.30022C157.78 2.69104 156.922 2.24757 156 2.00004C155.075 1.77711 154.114 1.75093 153.179 1.92319C152.243 2.09546 151.355 2.46233 150.57 3.00004C150.32 2.54013 149.98 2.13539 149.57 1.81004C147.65 0.310036 144.76 1.28004 144 1.53004C142.416 2.09764 141.028 3.10754 140 4.44004C140.083 4.28012 140.116 4.09843 140.092 3.91957C140.069 3.7407 139.991 3.57331 139.87 3.44004C139.54 3.20004 139.05 3.44004 138.92 3.56004C138.708 3.70104 138.528 3.88527 138.391 4.10068C138.255 4.31609 138.166 4.55781 138.13 4.81004C137.54 4.12004 136.86 3.81004 136.45 4.03004C136.37 4.06999 136.299 4.12623 136.243 4.19512C136.186 4.26401 136.144 4.34403 136.12 4.43004C136.098 4.63183 136.138 4.83558 136.234 5.0142C136.331 5.19283 136.479 5.33786 136.66 5.43004C135.507 5.83266 134.475 6.52072 133.66 7.43004C132.649 8.6452 132.015 10.1297 131.838 11.7005C131.66 13.2713 131.946 14.8597 132.66 16.27C133.502 17.9312 134.87 19.2672 136.55 20.07C138.901 21.304 141.577 21.7791 144.21 21.43C150.14 20.48 153.18 15.4 153.57 14.71Z" fill="#6D4558"/>
<path d="M153.57 14.71C155.115 14.8194 156.651 14.4035 157.93 13.53C159.156 12.6484 160.052 11.3817 160.474 9.93171C160.896 8.48176 160.821 6.93215 160.26 5.53004C159.845 4.66997 159.25 3.90941 158.515 3.30022C157.78 2.69104 156.922 2.24757 156 2.00004C155.075 1.77711 154.114 1.75093 153.179 1.92319C152.243 2.09546 151.355 2.46233 150.57 3.00004C150.32 2.54013 149.98 2.13539 149.57 1.81004C147.65 0.310036 144.76 1.28004 144 1.53004C142.416 2.09764 141.028 3.10754 140 4.44004C140.083 4.28012 140.116 4.09843 140.092 3.91957C140.069 3.7407 139.991 3.57331 139.87 3.44004C139.54 3.20004 139.05 3.44004 138.92 3.56004C138.708 3.70104 138.528 3.88527 138.391 4.10068C138.255 4.31609 138.166 4.55781 138.13 4.81004C137.54 4.12004 136.86 3.81004 136.45 4.03004C136.37 4.06999 136.299 4.12623 136.243 4.19512C136.186 4.26401 136.144 4.34403 136.12 4.43004C136.098 4.63183 136.138 4.83558 136.234 5.0142C136.331 5.19283 136.479 5.33786 136.66 5.43004C135.507 5.83266 134.475 6.52072 133.66 7.43004C132.649 8.6452 132.015 10.1297 131.838 11.7005C131.66 13.2713 131.946 14.8597 132.66 16.27C133.502 17.9312 134.87 19.2672 136.55 20.07C138.901 21.304 141.577 21.7791 144.21 21.43C150.14 20.48 153.18 15.4 153.57 14.71Z" stroke="#472F40" stroke-linecap="round" stroke-linejoin="round"/>
<path d="M187.81 78.51C187.315 80.2714 186.542 81.9424 185.52 83.46H154.52C152.339 83.285 150.255 82.4827 148.52 81.15C146.955 79.8945 145.742 78.2544 145 76.39C144.015 74.1194 143.649 71.6281 143.94 69.17L143.22 72H126.22C126.318 69.9597 126.575 67.9302 126.99 65.93C127.587 63.1609 128.447 60.4552 129.56 57.85C130.37 55.85 131.3 53.92 133.14 50.12C134.38 47.58 135.37 45.64 135.8 44.79C137.36 41.72 139.56 37.49 142.41 32.29C145.12 33.2117 147.602 34.7016 149.69 36.66C149.91 36.9 150.12 37.15 150.12 37.15C150.45 37.54 150.72 37.89 151 38.28C159.84 50.19 154.21 63.58 161.14 68.72C162.14 69.48 162.22 69.14 177.08 70.57C181.8 71.02 185.68 71.44 188.27 71.71C188.574 73.9846 188.418 76.2972 187.81 78.51V78.51Z" fill="#BAE8E0"/>
<path d="M187.19 80.32C186.42 80.42 185.24 80.55 183.8 80.68C179.699 81.0151 175.579 81.0718 171.47 80.85C157.27 80.33 153.99 82.95 149.05 79.75C147.123 78.4758 145.526 76.7621 144.39 74.75C144.558 75.3189 144.762 75.8766 145 76.42C145.742 78.2844 146.955 79.9245 148.52 81.18C150.255 82.5127 152.339 83.315 154.52 83.49H185.52C186.182 82.4924 186.742 81.4303 187.19 80.32Z" fill="#9DDFD3"/>
<path d="M129.53 29C123.18 28 119.86 27.51 115.84 27.65C106.62 27.94 100.1 30.55 94.09 32.99C80.37 38.5 78.39 43.38 77.86 45C77.6904 45.5514 77.5535 46.1124 77.45 46.68C76.08 54.03 80.15 59.41 87.3 72.34C88.49 74.48 90.25 77.73 92.3 81.77C93.1 81.54 94 81.23 94.95 80.86C98.4688 79.4753 101.695 77.4398 104.46 74.86C104.3 74.36 104.12 73.86 103.89 73.29C103.66 72.72 103.49 72.37 103.29 71.97H118.03C118.338 69.9457 118.769 67.942 119.32 65.97C122.66 54.23 128.91 48.87 129.77 36.72C129.948 34.1451 129.867 31.5588 129.53 29V29ZM104.13 56C102.98 59.65 101.78 63.21 100.56 66.68L99.99 65.8C97.36 61.8 92.63 54.61 94.79 50.59C95.39 49.47 97.19 48.59 100.79 46.89C102.996 45.8359 105.271 44.9338 107.6 44.19C106.533 48.0633 105.377 52 104.13 56Z" stroke="#472F40" stroke-linecap="round" stroke-linejoin="round"/>
<path d="M187.81 78.51C187.315 80.2714 186.542 81.9424 185.52 83.46H154.52C152.339 83.285 150.255 82.4827 148.52 81.15C146.955 79.8945 145.742 78.2544 145 76.39C144.015 74.1194 143.649 71.6281 143.94 69.17L143.22 72H126.22C126.318 69.9597 126.575 67.9302 126.99 65.93C127.587 63.1609 128.447 60.4552 129.56 57.85C130.37 55.85 131.3 53.92 133.14 50.12C134.38 47.58 135.37 45.64 135.8 44.79C137.36 41.72 139.56 37.49 142.41 32.29C145.12 33.2117 147.602 34.7016 149.69 36.66C149.91 36.9 150.12 37.15 150.12 37.15C150.45 37.54 150.72 37.89 151 38.28C159.84 50.19 154.21 63.58 161.14 68.72C162.14 69.48 162.22 69.14 177.08 70.57C181.8 71.02 185.68 71.44 188.27 71.71C188.574 73.9846 188.418 76.2972 187.81 78.51V78.51Z" stroke="#472F40" stroke-linecap="round" stroke-linejoin="round"/>
<path d="M185.52 83.46C187.44 83.466 189.345 83.8043 191.15 84.46C196.07 86.21 197.93 89.62 200.05 88.86C201.49 88.35 202.11 86.25 202.16 84.86C202.31 80.86 197.67 78.08 195.69 76.86C193.459 75.521 190.979 74.65 188.4 74.3C188.382 76.2483 188.02 78.178 187.33 80C186.864 81.2202 186.257 82.3815 185.52 83.46V83.46Z" fill="#F0BFA4"/>
<path d="M199.55 87.5301C196.95 87.6401 195.83 84.0001 191.92 81.8001C190.463 80.9907 188.858 80.4839 187.2 80.3101V80.3101C186.755 81.4154 186.195 82.4711 185.53 83.4601C187.45 83.466 189.355 83.8044 191.16 84.4601C196.08 86.2101 197.94 89.6201 200.06 88.8601C200.535 88.6241 200.95 88.2824 201.272 87.8612C201.595 87.4399 201.816 86.9503 201.92 86.4301C201.294 87.0782 200.449 87.4703 199.55 87.5301V87.5301Z" fill="#EAB292"/>
<path d="M185.52 83.46C187.44 83.466 189.345 83.8043 191.15 84.46C196.07 86.21 197.93 89.62 200.05 88.86C201.49 88.35 202.11 86.25 202.16 84.86C202.31 80.86 197.67 78.08 195.69 76.86C193.459 75.521 190.979 74.65 188.4 74.3C188.382 76.2483 188.02 78.178 187.33 80C186.864 81.2202 186.257 82.3815 185.52 83.46V83.46Z" stroke="#472F40" stroke-linecap="round" stroke-linejoin="round"/>
<path d="M142.39 32.3C141.997 31.3686 141.787 30.3706 141.77 29.36C141.754 28.5232 141.872 27.6893 142.12 26.89C142.56 27.12 146.43 29.1 149.93 27.18C151.174 26.4842 152.188 25.4419 152.85 24.18C154.16 21.55 152.93 19.79 153.57 16.06C153.866 14.3893 154.441 12.7803 155.27 11.3C153.5 11.3 151.64 11.24 149.7 11.3L147.82 11.37C147.354 11.3951 146.909 11.578 146.561 11.8887C146.212 12.1994 145.979 12.6195 145.9 13.08C145.714 14.7495 144.886 16.2811 143.59 17.35C143.52 17.4 142.27 18.29 141.83 17.94C141.39 17.59 142.58 16.04 142.18 14.18C142.068 13.6033 141.818 13.0625 141.45 12.6043C141.082 12.1461 140.609 11.7843 140.07 11.55C139.14 11.2804 138.143 11.3767 137.282 11.8193C136.421 12.2618 135.762 13.017 135.44 13.93C135.165 14.812 135.216 15.7632 135.583 16.6109C135.95 17.4586 136.609 18.1466 137.44 18.55C137.098 19.7626 136.628 20.9357 136.04 22.05C134.515 24.8958 132.27 27.2922 129.53 29C131.38 34.29 135.74 36.9 138.79 36C140.88 35.35 142 33.2 142.39 32.3Z" fill="#F0BFA4"/>
<path d="M142.39 32.3C141.997 31.3686 141.787 30.3706 141.77 29.36C141.754 28.5232 141.872 27.6893 142.12 26.89C142.56 27.12 146.43 29.1 149.93 27.18C151.174 26.4842 152.188 25.4419 152.85 24.18C154.16 21.55 152.93 19.79 153.57 16.06C153.866 14.3893 154.441 12.7803 155.27 11.3C153.5 11.3 151.64 11.24 149.7 11.3L148.02 11.36C147.499 11.3884 147.002 11.5927 146.612 11.9396C146.221 12.2865 145.96 12.7554 145.87 13.27C145.653 14.8691 144.838 16.3267 143.59 17.35C143.52 17.4 142.27 18.29 141.83 17.94C141.39 17.59 142.58 16.04 142.18 14.18C142.068 13.6033 141.818 13.0625 141.45 12.6043C141.082 12.1461 140.609 11.7843 140.07 11.55C139.14 11.2804 138.143 11.3767 137.282 11.8193C136.421 12.2618 135.762 13.017 135.44 13.93C135.165 14.812 135.216 15.7632 135.583 16.6109C135.95 17.4586 136.609 18.1466 137.44 18.55C137.098 19.7626 136.628 20.9357 136.04 22.05C134.515 24.8958 132.27 27.2922 129.53 29C131.38 34.29 135.74 36.9 138.79 36C140.88 35.35 142 33.2 142.39 32.3Z" stroke="#472F40" stroke-linecap="round" stroke-linejoin="round"/>
<path d="M129.53 29C121.31 33.22 119.4 36.47 119.53 38.83C119.71 41.83 123.16 43.33 122.53 45.7C121.79 48.48 116.77 47.7 114.86 51.08C113.61 53.31 114.74 55.53 115.92 60.32C116.857 64.1534 117.456 68.0618 117.71 72H118.05C118.13 71.51 118.21 71.05 118.29 70.6C118.29 70.46 118.34 70.32 118.37 70.18C118.45 69.78 118.53 69.38 118.61 69L118.76 68.36C118.82 68.07 118.89 67.77 118.96 67.5C119.08 67 119.21 66.5 119.34 66.07C122.68 54.33 128.93 48.97 129.79 36.82C129.968 34.2112 129.881 31.5912 129.53 29V29Z" fill="#9DDFD3"/>
<path d="M129.53 29C121.31 33.22 119.4 36.47 119.53 38.83C119.71 41.83 123.16 43.33 122.53 45.7C121.79 48.48 116.77 47.7 114.86 51.08C113.61 53.31 114.74 55.53 115.92 60.32C116.857 64.1534 117.456 68.0618 117.71 72H118.05C118.13 71.51 118.21 71.05 118.29 70.6C118.29 70.46 118.34 70.32 118.37 70.18C118.45 69.78 118.53 69.38 118.61 69L118.76 68.36C118.82 68.07 118.89 67.77 118.96 67.5C119.08 67 119.21 66.5 119.34 66.07C122.68 54.33 128.93 48.97 129.79 36.82C129.968 34.2112 129.881 31.5912 129.53 29V29Z" stroke="#472F40" stroke-linecap="round" stroke-linejoin="round"/>
<path d="M135.77 44.81C134.77 46.81 133.9 48.56 133.09 50.2L131.93 52.59C130.99 54.59 130.18 56.32 129.51 57.94C128.41 60.5196 127.56 63.1985 126.97 65.94V65.94C126.59 67.8646 126.336 69.8121 126.21 71.77C126.215 71.8466 126.215 71.9234 126.21 72H126.9C127.684 69.7204 128.866 67.5977 130.39 65.73C134.87 60.28 140.39 59.73 140.96 55.51C141.41 52.39 138.68 50.79 139.81 48.28C140.94 45.77 143.99 46.33 145.45 44.28C146.64 42.57 146.66 39.28 142.4 32.34C139.55 37.54 137.4 41.77 135.79 44.84L135.77 44.81Z" fill="#9DDFD3"/>
<path d="M135.77 44.81C134.77 46.81 133.9 48.56 133.09 50.2L131.93 52.59C130.99 54.59 130.18 56.32 129.51 57.94C128.41 60.5196 127.56 63.1985 126.97 65.94V65.94C126.59 67.8646 126.336 69.8121 126.21 71.77C126.215 71.8466 126.215 71.9234 126.21 72H126.9C127.684 69.7204 128.866 67.5977 130.39 65.73C134.87 60.28 140.39 59.73 140.96 55.51C141.41 52.39 138.68 50.79 139.81 48.28C140.94 45.77 143.99 46.33 145.45 44.28C146.64 42.57 146.66 39.28 142.4 32.34C139.55 37.54 137.4 41.77 135.79 44.84L135.77 44.81Z" stroke="#472F40" stroke-linecap="round" stroke-linejoin="round"/>
<path d="M147.46 17.5C147.819 17.5 148.11 17.2089 148.11 16.85C148.11 16.491 147.819 16.2 147.46 16.2C147.101 16.2 146.81 16.491 146.81 16.85C146.81 17.2089 147.101 17.5 147.46 17.5Z" fill="#402A38"/>
<path d="M151.84 17.5C152.199 17.5 152.49 17.2089 152.49 16.85C152.49 16.491 152.199 16.2 151.84 16.2C151.481 16.2 151.19 16.491 151.19 16.85C151.19 17.2089 151.481 17.5 151.84 17.5Z" fill="#402A38"/>
<path d="M149.46 16.91C149.448 17.2657 149.478 17.6215 149.55 17.97C149.7 18.7 149.93 18.97 149.84 19.32C149.75 19.67 149.55 19.91 148.73 20.2" stroke="#402A38" stroke-linecap="round" stroke-linejoin="round"/>
<path d="M148 22C147.68 21.81 147.45 21.61 147.2 21.69C147.116 21.717 147.041 21.7654 146.981 21.8302C146.922 21.895 146.88 21.9742 146.86 22.06C146.78 22.51 147.54 23.19 148.33 23.19C148.91 23.19 149.49 22.81 149.46 22.57C149.43 22.33 148.81 22.52 148 22Z" stroke="#402A38" stroke-linecap="round" stroke-linejoin="round"/>
<path d="M146 15.26C146.357 14.9805 146.781 14.801 147.23 14.74C147.537 14.6804 147.853 14.6804 148.16 14.74" stroke="#402A38" stroke-linecap="round" stroke-linejoin="round"/>
<path d="M153.12 15.22C152.882 15.0906 152.63 14.9867 152.37 14.91C152.084 14.8222 151.789 14.7652 151.49 14.74" stroke="#402A38" stroke-linecap="round" stroke-linejoin="round"/>
<path d="M139.67 14.16C139.429 14.1014 139.179 14.0953 138.936 14.1418C138.692 14.1884 138.462 14.2867 138.26 14.43C137.974 14.6662 137.772 14.989 137.686 15.3498C137.599 15.7105 137.632 16.0897 137.78 16.43" stroke="#402A38" stroke-linecap="round" stroke-linejoin="round"/>
<path d="M93.77 81.3099C94.394 82.58 94.8543 83.924 95.14 85.3099C96.21 90.3099 94.31 92.9899 95.83 94.4699C97.21 95.7999 100.44 95.2499 102.31 93.7099C104.03 92.2899 104.31 90.2599 104.66 88.1299C105.12 85.0499 104.5 82.4299 103.83 79.6099C103.51 78.2299 103.16 77.0899 102.9 76.3199C100.165 78.4968 97.0771 80.188 93.77 81.3199V81.3099Z" fill="#F0BFA4"/>
<path d="M103.83 79.56C103.51 78.18 103.16 77.04 102.9 76.27C100.165 78.4469 97.0771 80.1381 93.77 81.27C93.92 81.59 94.09 81.96 94.27 82.38C95.8078 82.5572 97.3599 82.2044 98.67 81.38C99.19 81.01 100.15 80.17 101.18 80.38C101.39 80.4272 101.59 80.5119 101.77 80.63C102.26 80.95 103.27 82.09 102.67 88.71C102.37 92.11 101.98 93.24 101.05 94.09C100.588 94.4992 100.047 94.8089 99.46 95C100.5 94.7727 101.475 94.3109 102.31 93.65C104.03 92.23 104.31 90.2 104.66 88.07C105.12 85 104.5 82.38 103.83 79.56Z" fill="#EAB292"/>
<path d="M93.77 81.3099C94.394 82.58 94.8543 83.924 95.14 85.3099C96.21 90.3099 94.31 92.9899 95.83 94.4699C97.21 95.7999 100.44 95.2499 102.31 93.7099C104.03 92.2899 104.31 90.2599 104.66 88.1299C105.12 85.0499 104.5 82.4299 103.83 79.6099C103.51 78.2299 103.16 77.0899 102.9 76.3199C100.165 78.4968 97.0771 80.188 93.77 81.3199V81.3099Z" stroke="#472F40" stroke-linecap="round" stroke-linejoin="round"/>
<path d="M143.94 69.17C144.25 67.54 144.55 65.88 144.82 64.17C145.58 59.48 146.11 54.96 146.47 50.66" stroke="#472F40" stroke-linecap="round" stroke-linejoin="round"/>
<path d="M129 27.8101C127.687 28.0849 126.471 28.7064 125.48 29.6101C124.01 30.9801 123.48 32.7601 122.99 35.9001C122.46 39.5413 122.312 43.2281 122.55 46.9001" stroke="#472F40" stroke-width="1.5" stroke-linecap="round" stroke-linejoin="round"/>
<path d="M118.74 60.24C118.312 58.5917 118.11 56.8928 118.14 55.19C118.19 52.94 118.29 48.55 120.92 47.3C121.417 47.0586 121.962 46.9331 122.515 46.9331C123.068 46.9331 123.613 47.0586 124.11 47.3C126.06 48.37 126.19 51.48 126.34 55.01C126.402 56.5485 126.349 58.0895 126.18 59.62" stroke="#472F40" stroke-width="1.5" stroke-linecap="round" stroke-linejoin="round"/>
<path d="M126.16 62.3C127.447 62.3 128.49 61.2568 128.49 59.97C128.49 58.6832 127.447 57.64 126.16 57.64C124.873 57.64 123.83 58.6832 123.83 59.97C123.83 61.2568 124.873 62.3 126.16 62.3Z" fill="#6D4558"/>
<path d="M143.67 31.79C144.159 32.3884 144.544 33.0644 144.81 33.79C146.03 37.17 144.13 40.69 143.61 41.79C142.12 44.79 140.56 50.23 140.38 61.22" stroke="#472F40" stroke-width="1.5" stroke-linecap="round" stroke-linejoin="round"/>
<path d="M140.38 64.91C142.495 64.91 144.21 63.1953 144.21 61.08C144.21 58.9648 142.495 57.25 140.38 57.25C138.265 57.25 136.55 58.9648 136.55 61.08C136.55 63.1953 138.265 64.91 140.38 64.91Z" fill="#6D4558"/>
<path d="M140.38 63.0899C141.49 63.0899 142.39 62.19 142.39 61.0799C142.39 59.9699 141.49 59.0699 140.38 59.0699C139.27 59.0699 138.37 59.9699 138.37 61.0799C138.37 62.19 139.27 63.0899 140.38 63.0899Z" fill="#472F40"/>
<path d="M126.16 62.3C127.447 62.3 128.49 61.2568 128.49 59.97C128.49 58.6832 127.447 57.64 126.16 57.64C124.873 57.64 123.83 58.6832 123.83 59.97C123.83 61.2568 124.873 62.3 126.16 62.3Z" stroke="#472F40" stroke-linecap="round" stroke-linejoin="round"/>
<path d="M118.84 63.08C120.127 63.08 121.17 62.0369 121.17 60.75C121.17 59.4632 120.127 58.42 118.84 58.42C117.553 58.42 116.51 59.4632 116.51 60.75C116.51 62.0369 117.553 63.08 118.84 63.08Z" fill="#6D4558"/>
<path d="M118.84 63.08C120.127 63.08 121.17 62.0369 121.17 60.75C121.17 59.4632 120.127 58.42 118.84 58.42C117.553 58.42 116.51 59.4632 116.51 60.75C116.51 62.0369 117.553 63.08 118.84 63.08Z" stroke="#472F40" stroke-linecap="round" stroke-linejoin="round"/>
<path d="M140.38 64.91C142.495 64.91 144.21 63.1953 144.21 61.08C144.21 58.9648 142.495 57.25 140.38 57.25C138.265 57.25 136.55 58.9648 136.55 61.08C136.55 63.1953 138.265 64.91 140.38 64.91Z" stroke="#472F40" stroke-linecap="round" stroke-linejoin="round"/>
<path d="M100.56 66.7C101.326 67.9065 102.024 69.1552 102.65 70.44C103.356 71.8853 103.968 73.3751 104.48 74.9C103.442 75.8645 102.335 76.7534 101.17 77.56C99.2973 78.8552 97.2846 79.9353 95.17 80.78" stroke="#402A38" stroke-linecap="round" stroke-linejoin="round"/>
</g>
<defs>
<filter id="filter0_d_10423_10017" x="0" y="42" width="490" height="112" filterUnits="userSpaceOnUse" color-interpolation-filters="sRGB">
<feFlood flood-opacity="0" result="BackgroundImageFix"/>
<feColorMatrix in="SourceAlpha" type="matrix" values="0 0 0 0 0 0 0 0 0 0 0 0 0 0 0 0 0 0 127 0" result="hardAlpha"/>
<feOffset/>
<feGaussianBlur stdDeviation="15"/>
<feColorMatrix type="matrix" values="0 0 0 0 0 0 0 0 0 0 0 0 0 0 0 0 0 0 0.3 0"/>
<feBlend mode="normal" in2="BackgroundImageFix" result="effect1_dropShadow_10423_10017"/>
<feBlend mode="normal" in="SourceGraphic" in2="effect1_dropShadow_10423_10017" result="shape"/>
</filter>
<clipPath id="clip0_10423_10017">
<rect width="490" height="153" fill="white"/>
</clipPath>
</defs>
</svg>
