<svg width="765" height="285" viewBox="0 0 765 285" fill="none" xmlns="http://www.w3.org/2000/svg">
<path d="M359.94 59.7101C357.069 59.3914 354.165 59.5366 351.34 60.1401" stroke="#472F40" stroke-width="3" stroke-linecap="round" stroke-linejoin="round"/>
<path d="M377.31 63.6699C379.775 65.0141 381.969 66.8045 383.78 68.9499" stroke="#472F40" stroke-width="3" stroke-linecap="round" stroke-linejoin="round"/>
<path d="M757.2 183.21H7.8C3.49218 183.21 0 186.702 0 191.01V276.62C0 280.928 3.49218 284.42 7.8 284.42H757.2C761.508 284.42 765 280.928 765 276.62V191.01C765 186.702 761.508 183.21 757.2 183.21Z" fill="#E4E4E5"/>
<path d="M233.87 199.34H738.37V267.26H233.87C224.853 267.26 216.205 263.678 209.828 257.302C203.452 250.925 199.87 242.277 199.87 233.26C199.891 224.257 203.483 215.629 209.857 209.27C216.231 202.911 224.867 199.34 233.87 199.34Z" fill="#F8F8F8"/>
<path d="M260.06 230.3H258.58V226.67C258.58 224.864 257.862 223.132 256.585 221.854C255.308 220.577 253.576 219.86 251.77 219.86C249.964 219.86 248.232 220.577 246.955 221.854C245.677 223.132 244.96 224.864 244.96 226.67V230.3H243.48C243.241 230.3 243.005 230.347 242.785 230.439C242.565 230.53 242.365 230.664 242.197 230.834C242.028 231.003 241.895 231.203 241.805 231.424C241.714 231.645 241.669 231.881 241.67 232.12V244.36C241.67 244.84 241.861 245.3 242.2 245.64C242.54 245.979 243 246.17 243.48 246.17H260.06C260.54 246.17 261 245.979 261.34 245.64C261.679 245.3 261.87 244.84 261.87 244.36V232.12C261.871 231.881 261.825 231.645 261.735 231.424C261.645 231.203 261.512 231.003 261.343 230.834C261.175 230.664 260.975 230.53 260.755 230.439C260.535 230.347 260.298 230.3 260.06 230.3ZM247.43 226.67C247.43 225.519 247.887 224.415 248.701 223.601C249.515 222.787 250.619 222.33 251.77 222.33C252.921 222.33 254.025 222.787 254.839 223.601C255.653 224.415 256.11 225.519 256.11 226.67V230.3H247.43V226.67Z" fill="#472F40"/>
<path d="M112.13 233.82C112.13 233.7 112.13 233.58 112.13 233.46C112.13 233.34 112.07 233.22 112.04 233.1C112.01 232.98 112.04 232.95 111.98 232.87C111.92 232.79 111.98 232.81 111.92 232.77C111.866 232.661 111.802 232.557 111.73 232.46C111.665 232.357 111.592 232.26 111.51 232.17L111.45 232.07L98.5198 219.16C98.2906 218.929 98.0182 218.745 97.718 218.619C97.4179 218.493 97.0959 218.428 96.7704 218.427C96.4449 218.425 96.1224 218.488 95.8211 218.611C95.5199 218.734 95.2459 218.916 95.0148 219.145C94.7837 219.374 94.5999 219.647 94.4741 219.947C94.3483 220.247 94.2828 220.569 94.2814 220.894C94.28 221.22 94.3427 221.542 94.466 221.844C94.5892 222.145 94.7706 222.419 94.9998 222.65L103.7 231.35H83.1598C82.8229 231.328 82.4851 231.376 82.1674 231.49C81.8497 231.605 81.5588 231.783 81.3126 232.014C81.0664 232.245 80.8702 232.524 80.7361 232.834C80.6019 233.143 80.5327 233.477 80.5327 233.815C80.5327 234.153 80.6019 234.487 80.7361 234.796C80.8702 235.106 81.0664 235.385 81.3126 235.616C81.5588 235.847 81.8497 236.025 82.1674 236.139C82.4851 236.254 82.8229 236.301 83.1598 236.28H103.73L94.9998 245C94.657 245.345 94.4238 245.784 94.3296 246.262C94.2354 246.739 94.2843 247.234 94.4701 247.683C94.656 248.133 94.9706 248.518 95.3744 248.79C95.7782 249.061 96.2532 249.207 96.7398 249.21C97.3951 249.21 98.0239 248.951 98.4898 248.49L111.4 235.58L111.46 235.49C111.544 235.398 111.618 235.298 111.68 235.19C111.752 235.093 111.816 234.989 111.87 234.88C111.87 234.88 111.87 234.82 111.93 234.78C111.99 234.74 111.93 234.63 111.99 234.55C112.05 234.47 112.06 234.32 112.08 234.19C112.1 234.06 112.13 233.94 112.13 233.82Z" fill="#D2D2D2"/>
<path d="M55.75 231.35H35.18L43.88 222.65C44.1252 222.425 44.3224 222.152 44.4596 221.848C44.5967 221.545 44.671 221.216 44.6781 220.883C44.6851 220.55 44.6247 220.219 44.5004 219.91C44.3762 219.601 44.1907 219.32 43.9552 219.085C43.7196 218.849 43.4388 218.664 43.1297 218.539C42.8206 218.415 42.4896 218.355 42.1565 218.362C41.8235 218.369 41.4953 218.443 41.1917 218.58C40.8881 218.718 40.6154 218.915 40.39 219.16L27.48 232.07C27.48 232.07 27.48 232.14 27.41 232.17C27.3311 232.262 27.2576 232.359 27.19 232.46C27.1204 232.557 27.0602 232.661 27.01 232.77C27.01 232.77 26.96 232.84 26.95 232.87C26.9219 232.944 26.9017 233.021 26.89 233.1C26.8506 233.217 26.8205 233.338 26.8 233.46C26.79 233.58 26.79 233.7 26.8 233.82C26.79 233.936 26.79 234.054 26.8 234.17C26.8193 234.292 26.8494 234.413 26.89 234.53C26.8992 234.609 26.9194 234.686 26.95 234.76C26.95 234.76 26.95 234.82 27.01 234.86C27.0602 234.969 27.1204 235.072 27.19 235.17C27.2551 235.276 27.3287 235.376 27.41 235.47L27.48 235.56L40.39 248.47C40.6095 248.733 40.8812 248.947 41.1879 249.099C41.4946 249.251 41.8296 249.338 42.1716 249.354C42.5136 249.37 42.8552 249.314 43.1746 249.191C43.494 249.068 43.7843 248.879 44.0271 248.638C44.2699 248.397 44.4599 248.107 44.5849 247.789C44.71 247.47 44.7674 247.129 44.7536 246.787C44.7397 246.445 44.6549 246.109 44.5045 245.801C44.3542 245.494 44.1415 245.221 43.88 245L35.18 236.3H55.75C56.3766 236.26 56.9645 235.983 57.3941 235.525C57.8238 235.067 58.0629 234.463 58.0629 233.835C58.0629 233.207 57.8238 232.603 57.3941 232.145C56.9645 231.687 56.3766 231.41 55.75 231.37V231.35Z" fill="#D2D2D2"/>
<path d="M181.13 234.69L174.57 226.27C174.384 226.016 174.141 225.809 173.861 225.667C173.58 225.524 173.27 225.45 172.955 225.45C172.64 225.45 172.33 225.524 172.049 225.667C171.769 225.809 171.526 226.016 171.34 226.27L164.79 234.69C164.686 234.826 164.622 234.987 164.605 235.157C164.587 235.327 164.618 235.499 164.693 235.652C164.767 235.806 164.884 235.936 165.028 236.027C165.172 236.119 165.339 236.168 165.51 236.17H170.61C170.194 238.505 169.165 240.688 167.628 242.495C166.091 244.302 164.101 245.667 161.862 246.452C159.624 247.236 157.217 247.412 154.888 246.96C152.559 246.508 150.393 245.445 148.61 243.88C148.24 243.57 147.763 243.418 147.281 243.455C146.8 243.492 146.352 243.716 146.033 244.079C145.715 244.442 145.551 244.915 145.576 245.397C145.602 245.88 145.815 246.333 146.17 246.66C148.488 248.695 151.313 250.065 154.346 250.624C157.379 251.183 160.508 250.91 163.398 249.835C166.289 248.759 168.835 246.921 170.765 244.515C172.695 242.109 173.937 239.225 174.36 236.17H180.41C180.581 236.168 180.748 236.119 180.892 236.027C181.037 235.936 181.153 235.806 181.228 235.652C181.302 235.499 181.333 235.327 181.316 235.157C181.298 234.987 181.234 234.826 181.13 234.69V234.69Z" fill="#D2D2D2"/>
<path d="M168.16 220.5C165.957 218.73 163.35 217.533 160.572 217.018C157.794 216.502 154.931 216.683 152.24 217.545C149.549 218.407 147.114 219.923 145.152 221.957C143.191 223.991 141.764 226.48 141 229.2H134.75C134.579 229.202 134.412 229.251 134.268 229.343C134.123 229.434 134.007 229.564 133.933 229.718C133.858 229.871 133.827 230.043 133.845 230.213C133.862 230.383 133.926 230.545 134.03 230.68L140.58 239.1C140.766 239.354 141.009 239.561 141.289 239.704C141.57 239.846 141.88 239.92 142.195 239.92C142.51 239.92 142.82 239.846 143.101 239.704C143.381 239.561 143.624 239.354 143.81 239.1L150.37 230.68C150.474 230.545 150.538 230.383 150.555 230.213C150.573 230.043 150.542 229.871 150.467 229.718C150.393 229.564 150.277 229.434 150.132 229.343C149.988 229.251 149.821 229.202 149.65 229.2H144.89C145.621 227.198 146.819 225.399 148.384 223.953C149.95 222.507 151.839 221.456 153.892 220.887C155.946 220.317 158.106 220.247 160.193 220.68C162.28 221.114 164.233 222.04 165.89 223.38C166.273 223.67 166.755 223.799 167.232 223.74C167.709 223.681 168.144 223.439 168.446 223.065C168.747 222.69 168.891 222.213 168.847 221.735C168.803 221.256 168.575 220.813 168.21 220.5H168.16Z" fill="#D2D2D2"/>
<path d="M405.68 31.18C409.097 31.4201 412.495 30.4967 415.32 28.56C420.54 24.83 423.27 17.24 420.48 10.92C417.85 4.92003 411.71 3.30003 411 3.12003C408.952 2.63705 406.825 2.59044 404.758 2.98325C402.69 3.37606 400.729 4.19949 399 5.40003C398.466 4.38343 397.731 3.48543 396.84 2.76003C392.58 -0.659966 386.19 1.47003 384.48 2.04003C380.94 3.26643 377.834 5.49725 375.54 8.46003C375.752 8.09839 375.839 7.67671 375.787 7.26068C375.734 6.84466 375.546 6.45767 375.25 6.16004C374.53 5.62004 373.43 6.25003 373.14 6.42003C372.673 6.73197 372.276 7.13899 371.976 7.61456C371.676 8.09012 371.48 8.62354 371.4 9.18003C370.1 7.66003 368.58 6.98003 367.68 7.44003C367.504 7.53189 367.35 7.65933 367.226 7.81428C367.102 7.96922 367.011 8.14827 366.96 8.34003C366.903 8.79056 366.987 9.24773 367.2 9.64879C367.413 10.0498 367.745 10.3751 368.15 10.58C365.587 11.4245 363.278 12.9037 361.44 14.88C356.66 20.13 356.16 28.33 359.16 34.44C361.033 38.1074 364.058 41.0585 367.77 42.84C372.99 45.5753 378.93 46.6235 384.77 45.84C398.1 43.94 404.81 32.7 405.68 31.18Z" fill="#6D4558"/>
<path d="M405.68 31.18C409.097 31.4201 412.495 30.4967 415.32 28.56C420.54 24.83 423.27 17.24 420.48 10.92C417.85 4.92003 411.71 3.30003 411 3.12003C408.952 2.63705 406.825 2.59044 404.758 2.98325C402.69 3.37606 400.729 4.19949 399 5.40003C398.466 4.38343 397.731 3.48543 396.84 2.76003C392.58 -0.659966 386.19 1.47003 384.48 2.04003C380.94 3.26643 377.834 5.49725 375.54 8.46003C375.752 8.09839 375.839 7.67671 375.787 7.26068C375.734 6.84466 375.546 6.45767 375.25 6.16004C374.53 5.62004 373.43 6.25003 373.14 6.42003C372.673 6.73197 372.276 7.13899 371.976 7.61456C371.676 8.09012 371.48 8.62354 371.4 9.18003C370.1 7.66003 368.58 6.98003 367.68 7.44003C367.504 7.53189 367.35 7.65933 367.226 7.81428C367.102 7.96922 367.011 8.14827 366.96 8.34003C366.903 8.79056 366.987 9.24773 367.2 9.64879C367.413 10.0498 367.745 10.3751 368.15 10.58C365.587 11.4245 363.278 12.9037 361.44 14.88C356.66 20.13 356.16 28.33 359.16 34.44C361.033 38.1074 364.058 41.0585 367.77 42.84C372.99 45.5753 378.93 46.6235 384.77 45.84C398.1 43.94 404.81 32.7 405.68 31.18Z" stroke="#472F40" stroke-linecap="round" stroke-linejoin="round"/>
<path d="M381 70.0899C379 77.1899 376.1 88.1699 372.94 101.75C367.33 125.87 366.51 134.65 361.64 149.47C357.789 161.169 352.822 172.471 346.81 183.22H326C320.33 166.9 320.19 154.04 320.92 145.77C321.87 135.13 324.71 127.03 343.71 83.0499C347.3 74.7399 350.34 67.7599 352.56 62.6699L354.17 62.9199C363.318 64.464 372.301 66.8645 381 70.0899V70.0899Z" fill="#FF847C"/>
<path d="M361.59 149.47C366.46 134.65 367.28 125.87 372.89 101.75C376.05 88.17 378.98 77.19 380.95 70.09C379.95 69.69 378.95 69.32 377.89 68.95C376.863 69.4444 375.861 69.9918 374.89 70.59C373.89 71.24 373.6 71.31 373.45 71.59C372.69 72.96 375.51 75.94 376.96 77.35C373.6 81.35 368.96 86.9899 363.96 94.1199C354.01 108.22 345.05 120.92 340.32 137.43C337.82 146.15 334.75 162.06 339.15 183.25H346.72C352.748 172.493 357.728 161.181 361.59 149.47V149.47Z" fill="#ED6663"/>
<path d="M381 70.0899C379 77.1899 376.1 88.1699 372.94 101.75C367.33 125.87 366.51 134.65 361.64 149.47C357.789 161.169 352.822 172.471 346.81 183.22H326C320.33 166.9 320.19 154.04 320.92 145.77C321.87 135.13 324.71 127.03 343.71 83.0499C347.3 74.7399 350.34 67.7599 352.56 62.6699L354.17 62.9199C363.318 64.464 372.301 66.8645 381 70.0899V70.0899Z" stroke="#472F40" stroke-linecap="round" stroke-linejoin="round"/>
<path d="M352.52 62.67C338.52 60.48 331.13 59.38 322.25 59.67C301.86 60.33 287.42 66.09 274.13 71.48C243.79 83.79 239.43 94.58 238.26 98.16C237.866 99.3727 237.562 100.613 237.35 101.87C234.35 118.11 243.35 130.02 259.13 158.62C261.75 163.36 265.66 170.53 270.24 179.46C272.14 178.91 274.24 178.19 276.58 177.27C275.77 179.27 274.96 181.27 274.13 183.21H326C325.155 170.246 326.507 157.233 330 144.72C337.39 118.77 351.22 106.91 353.12 80.05C353.508 74.2513 353.307 68.4282 352.52 62.67V62.67ZM296.34 122.53C293.8 130.61 291.167 138.483 288.44 146.15C287.9 145.3 287.44 144.65 287.18 144.21C281.37 135.37 270.92 119.47 275.69 110.58C277.02 108.1 280.99 106.2 288.94 102.4C293.815 100.054 298.847 98.049 304 96.4C301.673 104.94 299.12 113.65 296.34 122.53V122.53Z" fill="#BAE8E0"/>
<path d="M481.39 172.26C480.312 176.179 478.599 179.895 476.32 183.26H407.76C402.942 182.873 398.34 181.098 394.51 178.15C391.05 175.374 388.366 171.75 386.72 167.63C384.546 162.596 383.739 157.076 384.38 151.63C383.46 155.63 382.553 159.653 381.66 163.7C380.187 170.24 378.757 176.75 377.37 183.23H346.76C344.333 170.425 344.363 157.274 346.85 144.48C349.42 131.67 355.09 120.18 366.33 97.7301C371.97 86.4801 377.07 77.0701 380.95 70.1001C387.36 72.6001 393.38 75.7901 397.03 79.7501C397.52 80.2801 398.03 80.8301 398.03 80.8301C398.76 81.7001 399.35 82.4801 399.98 83.3301C419.51 109.67 407.07 139.33 422.39 150.65C424.66 152.34 424.79 151.57 457.64 154.74C468.09 155.74 476.64 156.66 482.38 157.28C483.074 162.289 482.737 167.386 481.39 172.26V172.26Z" fill="#BAE8E0"/>
<path d="M480 176.26C478.31 176.47 475.7 176.78 472.5 177.05C463.429 177.787 454.318 177.917 445.23 177.44C413.84 176.29 406.58 182.07 395.66 175C391.395 172.165 387.864 168.357 385.36 163.89C385.726 165.154 386.173 166.394 386.7 167.6C388.346 171.72 391.03 175.343 394.49 178.12C398.32 181.068 402.922 182.843 407.74 183.23H476.3C477.774 181.043 479.014 178.707 480 176.26V176.26Z" fill="#9DDFD3"/>
<path d="M481.39 172.26C480.312 176.179 478.599 179.895 476.32 183.26H407.76C402.942 182.873 398.34 181.098 394.51 178.15C391.05 175.374 388.366 171.75 386.72 167.63C384.546 162.596 383.739 157.076 384.38 151.63C383.46 155.63 382.553 159.653 381.66 163.7C380.187 170.24 378.757 176.75 377.37 183.23H346.76C344.333 170.425 344.363 157.274 346.85 144.48C349.42 131.67 355.09 120.18 366.33 97.7301C371.97 86.4801 377.07 77.0701 380.95 70.1001C387.36 72.6001 393.38 75.7901 397.03 79.7501C397.52 80.2801 398.03 80.8301 398.03 80.8301C398.76 81.7001 399.35 82.4801 399.98 83.3301C419.51 109.67 407.07 139.33 422.39 150.65C424.66 152.34 424.79 151.57 457.64 154.74C468.09 155.74 476.64 156.66 482.38 157.28C483.074 162.289 482.737 167.386 481.39 172.26V172.26Z" stroke="#472F40" stroke-linecap="round" stroke-linejoin="round"/>
<path d="M476.32 183.21C480.566 183.193 484.783 183.903 488.79 185.31C499.66 189.2 503.79 196.73 508.46 195.05C511.65 193.91 513.03 189.27 513.14 186.29C513.46 177.51 503.19 171.29 498.82 168.66C493.891 165.696 488.409 163.769 482.71 163C482.607 170.214 480.385 177.239 476.32 183.2V183.21Z" fill="#F0BFA4"/>
<path d="M507.36 192.22C501.61 192.47 499.13 184.41 490.48 179.54C487.257 177.751 483.706 176.628 480.04 176.24V176.24C479.057 178.697 477.817 181.044 476.34 183.24C480.586 183.223 484.803 183.933 488.81 185.34C499.68 189.23 503.81 196.76 508.48 195.08C510.6 194.33 511.91 192.03 512.59 189.7C511.224 191.165 509.357 192.064 507.36 192.22V192.22Z" fill="#EAB292"/>
<path d="M476.32 183.21C480.566 183.193 484.783 183.903 488.79 185.31C499.66 189.2 503.79 196.73 508.46 195.05C511.65 193.91 513.03 189.27 513.14 186.29C513.46 177.51 503.19 171.29 498.82 168.66C493.891 165.696 488.409 163.769 482.71 163C482.607 170.214 480.385 177.239 476.32 183.2V183.21Z" stroke="#472F40" stroke-linecap="round" stroke-linejoin="round"/>
<path d="M381 70.0901C380.133 68.0236 379.668 65.8107 379.63 63.5701C379.597 61.7234 379.86 59.8834 380.41 58.1201C381.41 58.6301 389.95 63.0101 397.68 58.7701C400.442 57.2112 402.685 54.8742 404.13 52.0501C407.04 46.2501 404.31 42.3401 405.73 34.0501C406.38 30.358 407.655 26.8038 409.5 23.5401C405.57 23.4201 401.45 23.4101 397.16 23.5401C395.76 23.5401 394.38 23.6301 393.02 23.7001C391.988 23.7454 391.003 24.1435 390.229 24.8279C389.456 25.5123 388.941 26.4414 388.77 27.4601C388.25 30.5701 386.94 34.5201 383.65 36.9101C383.51 37.0201 380.74 39.0001 379.76 38.2101C378.78 37.4201 381.43 34.0201 380.54 29.9001C380.29 28.6243 379.734 27.4285 378.919 26.4161C378.103 25.4038 377.053 24.6054 375.86 24.0901C372.23 22.7701 367.11 24.9501 365.64 29.3501C365.037 31.3077 365.157 33.4169 365.98 35.293C366.802 37.169 368.272 38.687 370.12 39.5701C369.365 42.2482 368.329 44.8393 367.03 47.3001C363.635 53.5879 358.649 58.8742 352.57 62.6301C356.65 74.3301 366.29 80.1101 373.04 78.1401C377.62 76.8301 380.07 72.0701 381 70.0901Z" fill="#F0BFA4"/>
<path d="M381 70.0901C380.133 68.0236 379.668 65.8107 379.63 63.5701C379.597 61.7234 379.86 59.8834 380.41 58.1201C381.41 58.6301 389.95 63.0101 397.68 58.7701C400.442 57.2112 402.686 54.8742 404.13 52.0501C407.04 46.2501 404.31 42.3401 405.73 34.0501C406.38 30.358 407.655 26.8038 409.5 23.5401C405.57 23.4201 401.45 23.4101 397.16 23.5401C395.9 23.5401 394.67 23.6201 393.44 23.6801C392.289 23.7435 391.194 24.1939 390.332 24.9582C389.47 25.7224 388.891 26.7556 388.69 27.8901C388.13 30.8901 386.8 34.6301 383.69 36.8901C383.55 37.0001 380.78 38.9801 379.8 38.1901C378.82 37.4001 381.47 34.0001 380.58 29.8801C380.331 28.6043 379.774 27.4085 378.959 26.3961C378.143 25.3838 377.093 24.5854 375.9 24.0701C372.27 22.7501 367.15 24.9301 365.68 29.3301C365.077 31.2877 365.197 33.3969 366.02 35.273C366.842 37.149 368.312 38.667 370.16 39.5501C369.405 42.2282 368.369 44.8193 367.07 47.2801C363.675 53.5679 358.689 58.8542 352.61 62.6101C356.69 74.3101 366.33 80.0901 373.08 78.1201C377.62 76.8301 380.07 72.0701 381 70.0901Z" stroke="#472F40" stroke-linecap="round" stroke-linejoin="round"/>
<path d="M330.43 84.4099C330.83 90.9799 338.43 94.3499 337.05 99.6099C335.43 105.74 324.31 103.95 320.1 111.49C317.34 116.44 319.84 121.34 322.44 131.94C324.817 141.712 326.204 151.7 326.58 161.75C327.262 156.003 328.395 150.319 329.97 144.75C337.36 118.8 351.19 106.94 353.09 80.0799C353.488 74.2789 353.297 68.4524 352.52 62.6899C334.34 71.9999 330.11 79.1899 330.43 84.4099Z" fill="#9DDFD3"/>
<path d="M346.85 144.47C345.59 150.846 344.97 157.331 345 163.83C346.529 156.574 349.746 149.781 354.39 144C364.3 131.95 376.39 130.7 377.76 121.4C378.76 114.5 372.76 110.97 375.23 105.4C377.7 99.83 384.48 101.09 387.69 96.4C390.32 92.6 390.37 85.25 380.95 70C377.07 77 371.95 86.38 366.33 97.63C355.09 120.17 349.42 131.66 346.85 144.47Z" fill="#9DDFD3"/>
<path d="M392.17 37.34C392.96 37.34 393.6 36.6997 393.6 35.91C393.6 35.1202 392.96 34.48 392.17 34.48C391.38 34.48 390.74 35.1202 390.74 35.91C390.74 36.6997 391.38 37.34 392.17 37.34Z" fill="#402A38"/>
<path d="M401.85 37.34C402.64 37.34 403.28 36.6997 403.28 35.91C403.28 35.1202 402.64 34.48 401.85 34.48C401.06 34.48 400.42 35.1202 400.42 35.91C400.42 36.6997 401.06 37.34 401.85 37.34Z" fill="#402A38"/>
<path d="M396.59 36C396.566 36.7847 396.629 37.5696 396.78 38.34C397.11 39.97 397.63 40.53 397.43 41.34C397.3 41.9 396.79 42.65 394.97 43.28" stroke="#402A38" stroke-linecap="round" stroke-linejoin="round"/>
<path d="M393.28 47.37C392.56 46.96 392.06 46.51 391.49 46.69C391.307 46.7484 391.142 46.854 391.012 46.9961C390.882 47.1383 390.792 47.312 390.75 47.5C390.58 48.5 392.26 50.01 393.99 50C395.28 50 396.56 49.16 396.49 48.64C396.42 48.12 395.16 48.45 393.28 47.37Z" stroke="#402A38" stroke-linecap="round" stroke-linejoin="round"/>
<path d="M388.84 32.41C389.503 31.8829 390.276 31.512 391.101 31.325C391.927 31.138 392.785 31.1397 393.61 31.33" stroke="#402A38" stroke-linecap="round" stroke-linejoin="round"/>
<path d="M404.69 32.31C404.16 32.0296 403.604 31.8019 403.03 31.63C402.399 31.4317 401.748 31.301 401.09 31.24" stroke="#402A38" stroke-linecap="round" stroke-linejoin="round"/>
<path d="M374.94 30C374.276 29.81 373.572 29.8164 372.912 30.0186C372.252 30.2208 371.664 30.61 371.221 31.1391C370.778 31.6682 370.497 32.3145 370.413 32.9998C370.33 33.685 370.447 34.3798 370.75 35" stroke="#402A38" stroke-linecap="round" stroke-linejoin="round"/>
<path d="M346.85 144.47C345.59 150.846 344.97 157.331 345 163.83C346.529 156.574 349.746 149.781 354.39 144C364.3 131.95 376.39 130.7 377.76 121.4C378.76 114.5 372.76 110.97 375.23 105.4C377.7 99.83 384.48 101.09 387.69 96.4C390.32 92.6 390.37 85.25 380.95 70C377.07 77 371.95 86.38 366.33 97.63C355.09 120.17 349.42 131.66 346.85 144.47Z" stroke="#472F40" stroke-linecap="round" stroke-linejoin="round"/>
<path d="M330.43 84.4099C330.83 90.9799 338.43 94.3499 337.05 99.6099C335.43 105.74 324.31 103.95 320.1 111.49C317.34 116.44 319.84 121.34 322.44 131.94C324.817 141.712 326.204 151.7 326.58 161.75C327.262 156.003 328.395 150.319 329.97 144.75C337.36 118.8 351.19 106.94 353.09 80.0799C353.488 74.2789 353.297 68.4524 352.52 62.6899C334.34 71.9999 330.11 79.1899 330.43 84.4099Z" stroke="#472F40" stroke-linecap="round" stroke-linejoin="round"/>
<path d="M275.44 177.73C274.8 177.97 274.17 178.2 273.56 178.41C274.17 178.2 274.8 178 275.44 177.73Z" fill="#9DDFD3"/>
<path d="M308.16 164C304.05 151.57 298.61 149.86 297.77 140.63C297.02 132.5 300.92 130.32 303.22 117.51C304.456 110.58 304.719 103.512 304 96.51C303.334 98.8833 302.667 101.27 302 103.67C301.73 104.62 301.45 105.58 301.18 106.54C300.74 108.05 300.3 109.54 299.85 111.09C299.54 112.09 299.24 113.15 298.93 114.18L297.47 118.96C297.19 119.87 296.91 120.77 296.62 121.68C296.53 121.99 296.44 122.3 296.34 122.61C295.674 124.75 295.007 126.88 294.34 129C294.34 129.07 294.34 129.14 294.27 129.22L294.03 129.95C293.27 132.27 292.51 134.56 291.73 136.85C291.53 137.46 291.32 138.07 291.11 138.68C290.237 141.22 289.364 143.737 288.49 146.23C290.811 149.881 292.847 153.706 294.58 157.67C295.58 159.99 296.45 162.23 297.17 164.36C293.179 168.064 288.75 171.264 283.98 173.89C281.482 175.264 278.896 176.473 276.24 177.51L276.63 177.36C275.82 179.36 275.01 181.36 274.18 183.3H311C311.146 176.753 310.185 170.228 308.16 164Z" fill="#9DDFD3"/>
<path d="M352.52 62.67C338.52 60.48 331.13 59.38 322.25 59.67C301.86 60.33 287.42 66.09 274.13 71.48C243.79 83.79 239.43 94.58 238.26 98.16C237.866 99.3727 237.562 100.613 237.35 101.87C234.35 118.11 243.35 130.02 259.13 158.62C261.75 163.36 265.66 170.53 270.24 179.46C272.14 178.91 274.24 178.19 276.58 177.27C275.77 179.27 274.96 181.27 274.13 183.21H326C325.155 170.246 326.507 157.233 330 144.72C337.39 118.77 351.22 106.91 353.12 80.05C353.508 74.2513 353.307 68.4282 352.52 62.67V62.67ZM296.34 122.53C293.8 130.61 291.167 138.483 288.44 146.15C287.9 145.3 287.44 144.65 287.18 144.21C281.37 135.37 270.92 119.47 275.69 110.58C277.02 108.1 280.99 106.2 288.94 102.4C293.815 100.054 298.847 98.049 304 96.4C301.673 104.94 299.12 113.65 296.34 122.53V122.53Z" stroke="#472F40" stroke-linecap="round" stroke-linejoin="round"/>
<path d="M288.44 146.15C290.143 148.818 291.689 151.582 293.07 154.43C294.623 157.626 295.976 160.916 297.12 164.28C291.134 169.843 284.17 174.25 276.58 177.28" stroke="#402A38" stroke-miterlimit="10"/>
<path d="M273.42 178.46C274.798 181.234 275.823 184.171 276.47 187.2C278.83 198.3 274.63 204.2 278 207.45C281.05 210.4 288.18 209.17 292.31 205.77C296.13 202.63 296.8 198.14 297.51 193.43C298.51 186.63 297.16 180.83 295.69 174.6C294.97 171.53 294.19 169.03 293.62 167.31C287.587 172.175 280.751 175.948 273.42 178.46V178.46Z" fill="#F0BFA4"/>
<path d="M295.69 174.6C294.97 171.53 294.19 169.03 293.62 167.31C287.587 172.175 280.751 175.948 273.42 178.46C273.77 179.16 274.15 179.99 274.53 180.91C279.53 181.12 282.47 179.91 284.26 178.59C285.42 177.77 287.54 175.92 289.83 176.42C290.287 176.536 290.723 176.725 291.12 176.98C292.21 177.68 294.43 180.2 293.12 194.86C292.45 202.37 291.59 204.86 289.52 206.74C288.501 207.642 287.306 208.323 286.01 208.74C288.311 208.234 290.466 207.207 292.31 205.74C296.13 202.6 296.8 198.11 297.51 193.4C298.53 186.63 297.16 180.83 295.69 174.6Z" fill="#EAB292"/>
<path d="M273.42 178.46C274.798 181.234 275.823 184.171 276.47 187.2C278.83 198.3 274.63 204.2 278 207.45C281.05 210.4 288.18 209.17 292.31 205.77C296.13 202.63 296.8 198.14 297.51 193.43C298.51 186.63 297.16 180.83 295.69 174.6C294.97 171.53 294.19 169.03 293.62 167.31C287.587 172.175 280.751 175.948 273.42 178.46V178.46Z" stroke="#472F40" stroke-linecap="round" stroke-linejoin="round"/>
<path d="M384.38 151.62C385.047 148.007 385.697 144.34 386.33 140.62C388.01 130.24 389.18 120.26 389.97 110.75" stroke="#472F40" stroke-linecap="round" stroke-linejoin="round"/>
<path d="M351.34 60.1399C348.437 60.7569 345.751 62.1377 343.56 64.1399C340.3 67.1399 339.06 71.1399 338.04 78.0599C336.861 86.1465 336.525 94.3339 337.04 102.49" stroke="#472F40" stroke-width="3" stroke-linecap="round" stroke-linejoin="round"/>
<path d="M328.65 131.87C327.699 128.228 327.255 124.473 327.33 120.71C327.45 115.71 327.66 106.02 333.48 103.25C334.575 102.729 335.774 102.463 336.987 102.474C338.2 102.484 339.394 102.77 340.48 103.31C344.79 105.67 345.08 112.54 345.4 120.31C345.545 123.714 345.424 127.124 345.04 130.51" stroke="#472F40" stroke-width="3" stroke-linecap="round" stroke-linejoin="round"/>
<path d="M345.07 136.43C347.92 136.43 350.23 134.12 350.23 131.27C350.23 128.42 347.92 126.11 345.07 126.11C342.22 126.11 339.91 128.42 339.91 131.27C339.91 134.12 342.22 136.43 345.07 136.43Z" fill="#6D4558"/>
<path d="M383.78 69C384.864 70.3291 385.719 71.8297 386.31 73.44C389.01 80.92 384.8 88.71 383.64 91.05C380.37 97.62 376.91 109.72 376.5 134.05" stroke="#472F40" stroke-width="3" stroke-linecap="round" stroke-linejoin="round"/>
<path d="M376.5 142.18C381.172 142.18 384.96 138.392 384.96 133.72C384.96 129.048 381.172 125.26 376.5 125.26C371.828 125.26 368.04 129.048 368.04 133.72C368.04 138.392 371.828 142.18 376.5 142.18Z" fill="#6D4558"/>
<path d="M376.5 138.16C378.952 138.16 380.94 136.172 380.94 133.72C380.94 131.268 378.952 129.28 376.5 129.28C374.048 129.28 372.06 131.268 372.06 133.72C372.06 136.172 374.048 138.16 376.5 138.16Z" fill="#472F40"/>
<path d="M345.07 136.43C347.92 136.43 350.23 134.12 350.23 131.27C350.23 128.42 347.92 126.11 345.07 126.11C342.22 126.11 339.91 128.42 339.91 131.27C339.91 134.12 342.22 136.43 345.07 136.43Z" stroke="#472F40" stroke-linecap="round" stroke-linejoin="round"/>
<path d="M328.87 138.16C331.72 138.16 334.03 135.85 334.03 133C334.03 130.15 331.72 127.84 328.87 127.84C326.02 127.84 323.71 130.15 323.71 133C323.71 135.85 326.02 138.16 328.87 138.16Z" fill="#6D4558"/>
<path d="M328.87 138.16C331.72 138.16 334.03 135.85 334.03 133C334.03 130.15 331.72 127.84 328.87 127.84C326.02 127.84 323.71 130.15 323.71 133C323.71 135.85 326.02 138.16 328.87 138.16Z" stroke="#472F40" stroke-linecap="round" stroke-linejoin="round"/>
<path d="M376.5 142.18C381.172 142.18 384.96 138.392 384.96 133.72C384.96 129.048 381.172 125.26 376.5 125.26C371.828 125.26 368.04 129.048 368.04 133.72C368.04 138.392 371.828 142.18 376.5 142.18Z" stroke="#472F40" stroke-linecap="round" stroke-linejoin="round"/>
</svg>
