<svg id="illustration" xmlns="http://www.w3.org/2000/svg" viewBox="0 0 393 123"><defs><style>.cls-1{fill:#e4e4e5;}.cls-2{fill:#f8f8f8;}.cls-3{fill:#472f40;}.cls-4{fill:#d2d2d2;}.cls-5{fill:#ff847c;}.cls-6{fill:#ed6663;}.cls-10,.cls-15,.cls-7{fill:none;stroke-linecap:round;stroke-linejoin:round;}.cls-10,.cls-7{stroke:#472f40;}.cls-8{fill:#bae8e0;}.cls-9{fill:#9ddfd3;}.cls-10{stroke-width:1.5px;}.cls-11{fill:#6d4558;}.cls-12{fill:#f0bfa4;}.cls-13{fill:#eab292;}.cls-14{fill:#402a38;}.cls-15{stroke:#402a38;}</style></defs><title>redirecting-illustration</title><rect class="cls-1" y="71.01" width="393" height="51.99" rx="3.87"/><path class="cls-2" d="M120.14,79.29H379.32a0,0,0,0,1,0,0v34.89a0,0,0,0,1,0,0H120.14A17.45,17.45,0,0,1,102.7,96.74v0a17.45,17.45,0,0,1,17.45-17.45Z"/><path class="cls-3" d="M133.6,95.2h-.76V93.33a3.5,3.5,0,0,0-7,0V95.2h-.76a.93.93,0,0,0-.93.93v6.29a.93.93,0,0,0,.93.93h8.52a.93.93,0,0,0,.93-.93V96.13A.93.93,0,0,0,133.6,95.2Zm-6.49-1.87a2.23,2.23,0,1,1,4.46,0V95.2h-4.46Z"/><path class="cls-4" d="M57.6,97a1.09,1.09,0,0,0,0-.18c0-.06,0-.12,0-.19a.35.35,0,0,1,0-.11s0,0,0,0-.07-.11-.1-.16l-.11-.16s0,0,0,0l-6.63-6.64a1.27,1.27,0,0,0-1.79,1.8l4.47,4.47H42.72a1.27,1.27,0,1,0,0,2.53H53.29l-4.47,4.47a1.27,1.27,0,0,0,1.79,1.79l6.63-6.63,0-.05.11-.15s.07-.1.1-.16,0,0,0-.05a.53.53,0,0,1,0-.12c0-.06,0-.12,0-.19A1.09,1.09,0,0,0,57.6,97Z"/><path class="cls-4" d="M28.64,95.74H18.07l4.47-4.47a1.27,1.27,0,0,0-1.79-1.8l-6.63,6.64s0,0,0,0l-.11.16a.86.86,0,0,0-.1.16l0,0a.35.35,0,0,1,0,.11,1.62,1.62,0,0,0,0,.19,1.62,1.62,0,0,0,0,.36,1.06,1.06,0,0,0,0,.19.53.53,0,0,1,0,.12l0,.05a.86.86,0,0,0,.1.16l.11.15,0,.05,6.63,6.63a1.27,1.27,0,0,0,1.79-1.79l-4.47-4.47H28.64a1.27,1.27,0,1,0,0-2.53Z"/><path class="cls-4" d="M93.05,97.45l-3.37-4.32a1.05,1.05,0,0,0-1.66,0l-3.36,4.32a.47.47,0,0,0,.37.76h2.62a6.88,6.88,0,0,1-11.31,4,.95.95,0,0,0-1.25,1.43,8.77,8.77,0,0,0,14.48-5.39h3.11A.47.47,0,0,0,93.05,97.45Z"/><path class="cls-4" d="M86.39,90.16a8.77,8.77,0,0,0-14,4.47H69.23a.47.47,0,0,0-.38.76l3.37,4.32a1.05,1.05,0,0,0,1.66,0l3.37-4.32a.47.47,0,0,0-.37-.76H74.43a6.88,6.88,0,0,1,6.45-4.51,6.81,6.81,0,0,1,4.31,1.52,1,1,0,1,0,1.2-1.48Z"/><path class="cls-5" d="M192.39,31.3c-.89,3.22-2.22,8.18-3.65,14.32-2,8.59-3.68,13.69-5.1,21.58-.29,1.6-.51,2.93-.65,3.81H163.83c.32-1.39.77-3.27,1.4-5.48,0,0,.46-1.59,1-3.27a245.34,245.34,0,0,1,9.33-25.09l4-9.22.73.11A67.78,67.78,0,0,1,192.39,31.3Z"/><path class="cls-6" d="M191.09,30.82l-.09,0a14.63,14.63,0,0,0-1.34.74c-.47.3-.59.32-.65.44-.35.62.93,2,1.58,2.6-1.52,1.79-3.59,4.36-5.87,7.59-4.5,6.37-8.55,12.12-10.69,19.58A40.18,40.18,0,0,0,172.55,71H183c.14-.88.36-2.21.65-3.81,1.42-7.89,3.11-13,5.1-21.58a94,94,0,0,1,3.65-14.32Z"/><path class="cls-7" d="M192.39,31.3c-.89,3.22-2.22,8.18-3.65,14.32-2,8.59-3.68,13.69-5.1,21.58-.29,1.6-.51,2.93-.65,3.81H163.83c.32-1.39.77-3.27,1.4-5.48,0,0,.46-1.59,1-3.27a245.34,245.34,0,0,1,9.33-25.09l4-9.22.73.11A67.78,67.78,0,0,1,192.39,31.3Z"/><path class="cls-8" d="M179.53,28c-6.35-1-9.67-1.49-13.69-1.35-9.22.29-15.74,2.9-21.75,5.34C130.37,37.5,128.39,42.38,127.86,44a14.68,14.68,0,0,0-.41,1.68c-1.37,7.35,2.7,12.73,9.85,25.66,1.19,2.14,2.95,5.39,5,9.43.8-.23,1.7-.54,2.65-.91a30.09,30.09,0,0,0,9.51-6c-.16-.5-.34-1-.57-1.57s-.4-.92-.6-1.32h14.74a50.59,50.59,0,0,1,1.29-6c3.34-11.74,9.59-17.1,10.45-29.25A38.67,38.67,0,0,0,179.53,28ZM154.13,55c-1.15,3.65-2.35,7.21-3.57,10.68l-.57-.88c-2.63-4-7.36-11.19-5.2-15.21.6-1.12,2.4-2,6-3.7a53.67,53.67,0,0,1,6.81-2.7Q156,49,154.13,55Z"/><path class="cls-9" d="M157.24,52.73a34.09,34.09,0,0,0,.35-9.52q-.43,1.62-.9,3.24l-.37,1.3c-.08.25-.15.49-.22.74s-.19.66-.29,1a3.37,3.37,0,0,1-.1.34c-.13.46-.27.93-.41,1.39l-.66,2.17c-.13.41-.25.82-.38,1.23,0,.14-.09.28-.13.42l-.93,2.89,0,.1-.11.33-.42,1.26c-.16.48-.31.95-.47,1.42l-.15.44c-.09.27-.18.55-.28.82-.39,1.15-.78,2.29-1.18,3.42a38.4,38.4,0,0,1,2.75,5.17l.05.14h5c-1.61-3.3-3.28-4.45-3.59-7.83C154.44,59.5,156.2,58.52,157.24,52.73Z"/><path class="cls-10" d="M182.89,26.61a12.16,12.16,0,0,0-3.89.2"/><path class="cls-10" d="M190.74,28.4a10.22,10.22,0,0,1,2.93,2.39"/><path class="cls-11" d="M203.57,13.71a6.87,6.87,0,0,0,4.36-1.18,6.76,6.76,0,0,0,2.33-8A6.64,6.64,0,0,0,206,1a6.79,6.79,0,0,0-5.43,1,3.89,3.89,0,0,0-1-1.19C197.65-.69,194.76.28,194,.53a8.8,8.8,0,0,0-4,2.91.88.88,0,0,0-.13-1c-.33-.24-.82,0-.95.12a1.81,1.81,0,0,0-.79,1.25c-.59-.69-1.27-1-1.68-.78a.64.64,0,0,0-.33.4,1,1,0,0,0,.54,1,7.23,7.23,0,0,0-3,2,8.1,8.1,0,0,0-1,8.84,8.44,8.44,0,0,0,3.89,3.8,12.85,12.85,0,0,0,7.66,1.36C200.14,19.48,203.18,14.4,203.57,13.71Z"/><path class="cls-7" d="M203.57,13.71a6.87,6.87,0,0,0,4.36-1.18,6.76,6.76,0,0,0,2.33-8A6.64,6.64,0,0,0,206,1a6.79,6.79,0,0,0-5.43,1,3.89,3.89,0,0,0-1-1.19C197.65-.69,194.76.28,194,.53a8.8,8.8,0,0,0-4,2.91.88.88,0,0,0-.13-1c-.33-.24-.82,0-.95.12a1.81,1.81,0,0,0-.79,1.25c-.59-.69-1.27-1-1.68-.78a.64.64,0,0,0-.33.4,1,1,0,0,0,.54,1,7.23,7.23,0,0,0-3,2,8.1,8.1,0,0,0-1,8.84,8.44,8.44,0,0,0,3.89,3.8,12.85,12.85,0,0,0,7.66,1.36C200.14,19.48,203.18,14.4,203.57,13.71Z"/><path class="cls-8" d="M237.81,77.51a17.19,17.19,0,0,1-2.29,4.95h-31a11.34,11.34,0,0,1-6-2.31A11.6,11.6,0,0,1,195,75.39a14,14,0,0,1-1.06-7.22L193.22,71h-17a39.13,39.13,0,0,1,.77-6.07,44.39,44.39,0,0,1,2.57-8.08c.81-2,1.74-3.93,3.58-7.73,1.24-2.54,2.23-4.48,2.66-5.33,1.56-3.07,3.76-7.3,6.61-12.5h0a20.1,20.1,0,0,1,7.28,4.37c.22.24.43.49.43.49.33.39.6.74.88,1.13,8.84,11.91,3.21,25.3,10.14,30.44,1,.76,1.08.42,15.94,1.85,4.72.45,8.6.87,11.19,1.14A17.11,17.11,0,0,1,237.81,77.51Z"/><path class="cls-9" d="M237.19,79.32h0c-.77.1-1.95.23-3.39.36a91.11,91.11,0,0,1-12.33.17c-14.2-.52-17.48,2.1-22.42-1.1a14.59,14.59,0,0,1-4.66-5,14.2,14.2,0,0,0,.61,1.67,11.6,11.6,0,0,0,3.52,4.76,11.34,11.34,0,0,0,6,2.31h31A17.73,17.73,0,0,0,237.19,79.32Z"/><path class="cls-7" d="M179.53,28c-6.35-1-9.67-1.49-13.69-1.35-9.22.29-15.74,2.9-21.75,5.34C130.37,37.5,128.39,42.38,127.86,44a14.68,14.68,0,0,0-.41,1.68c-1.37,7.35,2.7,12.73,9.85,25.66,1.19,2.14,2.95,5.39,5,9.43.8-.23,1.7-.54,2.65-.91a30.09,30.09,0,0,0,9.51-6c-.16-.5-.34-1-.57-1.57s-.4-.92-.6-1.32h14.74a50.59,50.59,0,0,1,1.29-6c3.34-11.74,9.59-17.1,10.45-29.25A38.67,38.67,0,0,0,179.53,28ZM154.13,55c-1.15,3.65-2.35,7.21-3.57,10.68l-.57-.88c-2.63-4-7.36-11.19-5.2-15.21.6-1.12,2.4-2,6-3.7a53.67,53.67,0,0,1,6.81-2.7Q156,49,154.13,55Z"/><path class="cls-7" d="M237.81,77.51a17.19,17.19,0,0,1-2.29,4.95h-31a11.34,11.34,0,0,1-6-2.31A11.6,11.6,0,0,1,195,75.39a14,14,0,0,1-1.06-7.22L193.22,71h-17a39.13,39.13,0,0,1,.77-6.07,44.39,44.39,0,0,1,2.57-8.08c.81-2,1.74-3.93,3.58-7.73,1.24-2.54,2.23-4.48,2.66-5.33,1.56-3.07,3.76-7.3,6.61-12.5h0a20.1,20.1,0,0,1,7.28,4.37c.22.24.43.49.43.49.33.39.6.74.88,1.13,8.84,11.91,3.21,25.3,10.14,30.44,1,.76,1.08.42,15.94,1.85,4.72.45,8.6.87,11.19,1.14A17.11,17.11,0,0,1,237.81,77.51Z"/><path class="cls-12" d="M235.52,82.46a16.64,16.64,0,0,1,5.63,1c4.92,1.75,6.78,5.16,8.9,4.4,1.44-.51,2.06-2.61,2.11-4,.15-4-4.49-6.78-6.47-8a19.18,19.18,0,0,0-7.29-2.56A16.52,16.52,0,0,1,237.33,79,16.7,16.7,0,0,1,235.52,82.46Z"/><path class="cls-13" d="M249.55,86.53c-2.6.11-3.72-3.53-7.63-5.73a12.38,12.38,0,0,0-4.72-1.49h0a17.1,17.1,0,0,1-1.67,3.15,16.64,16.64,0,0,1,5.63,1c4.92,1.75,6.78,5.16,8.9,4.4a3.47,3.47,0,0,0,1.86-2.43A3.63,3.63,0,0,1,249.55,86.53Z"/><path class="cls-7" d="M235.52,82.46a16.64,16.64,0,0,1,5.63,1c4.92,1.75,6.78,5.16,8.9,4.4,1.44-.51,2.06-2.61,2.11-4,.15-4-4.49-6.78-6.47-8a19.18,19.18,0,0,0-7.29-2.56A16.52,16.52,0,0,1,237.33,79,16.7,16.7,0,0,1,235.52,82.46Z"/><path class="cls-12" d="M192.39,31.3a7.91,7.91,0,0,1-.62-2.94,7.82,7.82,0,0,1,.35-2.47c.44.23,4.31,2.21,7.81.29a7.35,7.35,0,0,0,2.92-3c1.31-2.63.08-4.39.72-8.12a15.15,15.15,0,0,1,1.7-4.76c-1.77,0-3.63-.06-5.57,0l-1.88.07a2.06,2.06,0,0,0-1.92,1.71,6.46,6.46,0,0,1-2.31,4.27c-.07.05-1.32.94-1.76.59s.75-1.9.35-3.76a3.62,3.62,0,0,0-2.11-2.63,3.79,3.79,0,0,0-4.63,2.38,3.86,3.86,0,0,0,2,4.62,17.94,17.94,0,0,1-1.4,3.5A18.47,18.47,0,0,1,179.53,28c1.85,5.29,6.21,7.9,9.26,7C190.88,34.35,192,32.2,192.39,31.3Z"/><path class="cls-7" d="M192.39,31.3a7.91,7.91,0,0,1-.62-2.94,7.82,7.82,0,0,1,.35-2.47c.44.23,4.31,2.21,7.81.29a7.35,7.35,0,0,0,2.92-3c1.31-2.63.08-4.39.72-8.12a15.15,15.15,0,0,1,1.7-4.76c-1.77,0-3.63-.06-5.57,0l-1.68.06a2.31,2.31,0,0,0-2.15,1.91,6.39,6.39,0,0,1-2.28,4.08c-.07.05-1.32.94-1.76.59s.75-1.9.35-3.76a3.62,3.62,0,0,0-2.11-2.63,3.79,3.79,0,0,0-4.63,2.38,3.86,3.86,0,0,0,2,4.62,17.94,17.94,0,0,1-1.4,3.5A18.47,18.47,0,0,1,179.53,28c1.85,5.29,6.21,7.9,9.26,7C190.88,34.35,192,32.2,192.39,31.3Z"/><path class="cls-9" d="M179.53,28c-8.22,4.22-10.13,7.47-10,9.83.18,3,3.63,4.5,3,6.87-.74,2.78-5.76,2-7.67,5.38-1.25,2.23-.12,4.45,1.06,9.24A67.42,67.42,0,0,1,167.71,71h.34v0c.08-.49.16-.95.24-1.4,0-.14.05-.28.08-.42.08-.4.16-.8.24-1.18l.15-.64c.06-.29.13-.59.2-.86.12-.5.25-1,.38-1.43,3.34-11.74,9.59-17.1,10.45-29.25A38.67,38.67,0,0,0,179.53,28Z"/><path class="cls-7" d="M179.53,28c-8.22,4.22-10.13,7.47-10,9.83.18,3,3.63,4.5,3,6.87-.74,2.78-5.76,2-7.67,5.38-1.25,2.23-.12,4.45,1.06,9.24A67.42,67.42,0,0,1,167.71,71h.34v0c.08-.49.16-.95.24-1.4,0-.14.05-.28.08-.42.08-.4.16-.8.24-1.18l.15-.64c.06-.29.13-.59.2-.86.12-.5.25-1,.38-1.43,3.34-11.74,9.59-17.1,10.45-29.25A38.67,38.67,0,0,0,179.53,28Z"/><path class="cls-9" d="M185.77,43.81c-1,2-1.87,3.75-2.68,5.39l-1.16,2.39c-.94,2-1.75,3.73-2.42,5.35a44,44,0,0,0-2.54,8h0a44.9,44.9,0,0,0-.76,5.83,1.85,1.85,0,0,1,0,.23h.69a20.43,20.43,0,0,1,3.49-6.27c4.48-5.45,10-6,10.57-10.22.45-3.12-2.28-4.72-1.15-7.23s4.18-1.95,5.64-4c1.19-1.71,1.21-5-3.05-11.94-2.85,5.2-5,9.43-6.61,12.5Z"/><path class="cls-7" d="M185.77,43.81c-1,2-1.87,3.75-2.68,5.39l-1.16,2.39c-.94,2-1.75,3.73-2.42,5.35a44,44,0,0,0-2.54,8h0a44.9,44.9,0,0,0-.76,5.83,1.85,1.85,0,0,1,0,.23h.69a20.43,20.43,0,0,1,3.49-6.27c4.48-5.45,10-6,10.57-10.22.45-3.12-2.28-4.72-1.15-7.23s4.18-1.95,5.64-4c1.19-1.71,1.21-5-3.05-11.94-2.85,5.2-5,9.43-6.61,12.5Z"/><circle class="cls-14" cx="197.46" cy="15.85" r="0.65"/><circle class="cls-14" cx="201.84" cy="15.85" r="0.65"/><path class="cls-15" d="M199.46,15.91a4.51,4.51,0,0,0,.09,1.06c.15.73.38,1,.29,1.35s-.29.59-1.11.88"/><path class="cls-15" d="M198,21c-.32-.19-.55-.39-.8-.31a.51.51,0,0,0-.34.37c-.08.45.68,1.13,1.47,1.13.58,0,1.16-.38,1.13-.62S198.81,21.52,198,21Z"/><path class="cls-15" d="M196,14.26a2.55,2.55,0,0,1,1.23-.52,2.44,2.44,0,0,1,.93,0"/><path class="cls-15" d="M203.12,14.22a3.86,3.86,0,0,0-.75-.31,4.21,4.21,0,0,0-.88-.17"/><path class="cls-15" d="M189.67,13.16a1.73,1.73,0,0,0-1.41.27,1.71,1.71,0,0,0-.48,2"/><path class="cls-12" d="M143.77,80.31a16.73,16.73,0,0,1,1.37,4c1.07,5-.83,7.68.69,9.16,1.38,1.33,4.61.78,6.48-.76,1.72-1.42,2-3.45,2.35-5.58.46-3.08-.16-5.7-.83-8.52-.32-1.38-.67-2.52-.93-3.29a30.54,30.54,0,0,1-9.13,5Z"/><path class="cls-13" d="M153.83,78.56c-.32-1.38-.67-2.52-.93-3.29a30.54,30.54,0,0,1-9.13,5c.15.32.32.69.5,1.11h0a6.8,6.8,0,0,0,4.4-1c.52-.37,1.48-1.21,2.51-1a1.79,1.79,0,0,1,.59.25c.49.32,1.5,1.46.9,8.08-.3,3.4-.69,4.53-1.62,5.38a4.5,4.5,0,0,1-1.59.91,7,7,0,0,0,2.85-1.35c1.72-1.42,2-3.45,2.35-5.58C155.12,84,154.5,81.38,153.83,78.56Z"/><path class="cls-7" d="M143.77,80.31a16.73,16.73,0,0,1,1.37,4c1.07,5-.83,7.68.69,9.16,1.38,1.33,4.61.78,6.48-.76,1.72-1.42,2-3.45,2.35-5.58.46-3.08-.16-5.7-.83-8.52-.32-1.38-.67-2.52-.93-3.29a30.54,30.54,0,0,1-9.13,5Z"/><path class="cls-7" d="M193.94,68.17c.31-1.63.61-3.29.88-5,.76-4.69,1.29-9.21,1.65-13.51"/><path class="cls-10" d="M179,26.81a7.51,7.51,0,0,0-3.52,1.8c-1.47,1.37-2,3.15-2.49,6.29a52.72,52.72,0,0,0-.44,11"/><path class="cls-10" d="M168.74,59.24a18.8,18.8,0,0,1-.6-5.05c.05-2.25.15-6.64,2.78-7.89a3.65,3.65,0,0,1,3.19,0c1.95,1.07,2.08,4.18,2.23,7.71a30.8,30.8,0,0,1-.16,4.61"/><circle class="cls-11" cx="176.16" cy="58.97" r="2.33"/><path class="cls-10" d="M193.67,30.79a6.92,6.92,0,0,1,1.14,2c1.22,3.38-.68,6.9-1.2,8-1.49,3-3.05,8.44-3.23,19.43"/><circle class="cls-11" cx="190.38" cy="60.08" r="3.83"/><circle class="cls-3" cx="190.38" cy="60.08" r="2.01"/><circle class="cls-7" cx="176.16" cy="58.97" r="2.33"/><circle class="cls-11" cx="168.84" cy="59.75" r="2.33"/><circle class="cls-7" cx="168.84" cy="59.75" r="2.33"/><circle class="cls-7" cx="190.38" cy="60.08" r="3.83"/><path class="cls-15" d="M150.56,65.7a38.2,38.2,0,0,1,2.09,3.74,37.05,37.05,0,0,1,1.83,4.46,29.69,29.69,0,0,1-3.31,2.66,30.32,30.32,0,0,1-6,3.22"/></svg>