<svg width="453" height="154" viewBox="0 0 453 154" fill="none" xmlns="http://www.w3.org/2000/svg">
<g clip-path="url(#clip0_2_2)">
<path d="M389.13 71.01H3.87C1.73266 71.01 0 72.7427 0 74.88V119.13C0 121.267 1.73266 123 3.87 123H389.13C391.267 123 393 121.267 393 119.13V74.88C393 72.7427 391.267 71.01 389.13 71.01Z" fill="#E4E4E5"/>
<path d="M120.14 79.29H379.32V114.18H120.14C115.515 114.177 111.081 112.339 107.811 109.069C104.541 105.799 102.703 101.365 102.7 96.74V96.74C102.7 94.4484 103.151 92.1793 104.028 90.0622C104.905 87.945 106.191 86.0214 107.811 84.401C109.431 82.7806 111.355 81.4953 113.472 80.6183C115.589 79.7414 117.858 79.29 120.15 79.29H120.14Z" fill="#F8F8F8"/>
<path d="M133.6 95.2H132.84V93.33C132.84 92.4018 132.471 91.5115 131.815 90.8551C131.158 90.1988 130.268 89.83 129.34 89.83C128.412 89.83 127.521 90.1988 126.865 90.8551C126.209 91.5115 125.84 92.4018 125.84 93.33V95.2H125.08C124.833 95.2 124.597 95.298 124.422 95.4724C124.248 95.6468 124.15 95.8834 124.15 96.13V102.42C124.15 102.667 124.248 102.903 124.422 103.078C124.597 103.252 124.833 103.35 125.08 103.35H133.6C133.847 103.35 134.083 103.252 134.258 103.078C134.432 102.903 134.53 102.667 134.53 102.42V96.13C134.53 95.8834 134.432 95.6468 134.258 95.4724C134.083 95.298 133.847 95.2 133.6 95.2ZM127.11 93.33C127.11 92.7386 127.345 92.1714 127.763 91.7532C128.181 91.335 128.749 91.1 129.34 91.1C129.931 91.1 130.499 91.335 130.917 91.7532C131.335 92.1714 131.57 92.7386 131.57 93.33V95.2H127.11V93.33Z" fill="#472F40"/>
<path d="M57.6 97C57.6049 96.9401 57.6049 96.8799 57.6 96.82C57.6 96.76 57.6 96.7 57.6 96.63C57.5942 96.5936 57.5942 96.5564 57.6 96.52C57.6 96.52 57.6 96.52 57.6 96.52C57.6 96.52 57.53 96.41 57.5 96.36L57.39 96.2L50.76 89.56C50.5187 89.3359 50.1998 89.2142 49.8705 89.2208C49.5412 89.2273 49.2274 89.3615 48.9952 89.595C48.7629 89.8285 48.6305 90.1431 48.6258 90.4724C48.6211 90.8017 48.7445 91.1199 48.97 91.36L53.44 95.83H42.72C42.5444 95.8144 42.3675 95.8355 42.2005 95.8919C42.0335 95.9484 41.8802 96.039 41.7501 96.158C41.6201 96.277 41.5162 96.4218 41.4451 96.5831C41.3741 96.7444 41.3374 96.9187 41.3374 97.095C41.3374 97.2713 41.3741 97.4456 41.4451 97.6069C41.5162 97.7682 41.6201 97.913 41.7501 98.032C41.8802 98.151 42.0335 98.2416 42.2005 98.298C42.3675 98.3545 42.5444 98.3756 42.72 98.36H53.29L48.82 102.83C48.6138 103.073 48.5066 103.385 48.5197 103.703C48.5328 104.022 48.6652 104.324 48.8906 104.549C49.116 104.775 49.418 104.907 49.7365 104.92C50.055 104.933 50.3668 104.826 50.61 104.62L57.24 97.99V97.94L57.35 97.79C57.35 97.79 57.42 97.69 57.45 97.63C57.48 97.57 57.45 97.63 57.45 97.58C57.4454 97.5401 57.4454 97.4999 57.45 97.46C57.45 97.4 57.45 97.34 57.45 97.27C57.5125 97.1876 57.5631 97.0967 57.6 97Z" fill="#D2D2D2"/>
<path d="M28.64 95.74H18.07L22.54 91.27C22.7655 91.0299 22.8889 90.7117 22.8842 90.3824C22.8795 90.0531 22.747 89.7385 22.5148 89.505C22.2826 89.2715 21.9687 89.1373 21.6395 89.1308C21.3102 89.1242 20.9913 89.2459 20.75 89.47L14.12 96.11L14.01 96.27C13.9709 96.3195 13.9374 96.3732 13.91 96.43V96.43C13.9158 96.4664 13.9158 96.5036 13.91 96.54C13.9063 96.6033 13.9063 96.6667 13.91 96.73C13.8966 96.8496 13.8966 96.9704 13.91 97.09C13.9043 97.1532 13.9043 97.2168 13.91 97.28C13.9145 97.3199 13.9145 97.3601 13.91 97.4V97.45C13.9374 97.5068 13.9709 97.5605 14.01 97.61L14.12 97.76V97.81L20.75 104.44C20.9931 104.646 21.3049 104.753 21.6235 104.74C21.942 104.727 22.2439 104.595 22.4694 104.369C22.6948 104.144 22.8272 103.842 22.8403 103.523C22.8534 103.205 22.7462 102.893 22.54 102.65L18.07 98.18H28.64C28.8156 98.1956 28.9925 98.1745 29.1595 98.118C29.3264 98.0616 29.4798 97.971 29.6099 97.852C29.7399 97.733 29.8438 97.5882 29.9148 97.4269C29.9859 97.2656 30.0226 97.0913 30.0226 96.915C30.0226 96.7387 29.9859 96.5644 29.9148 96.4031C29.8438 96.2418 29.7399 96.097 29.6099 95.978C29.4798 95.859 29.3264 95.7684 29.1595 95.7119C28.9925 95.6555 28.8156 95.6344 28.64 95.65V95.74Z" fill="#D2D2D2"/>
<path d="M93.05 97.45L89.68 93.13C89.5819 93.0033 89.456 92.9008 89.3122 92.8303C89.1683 92.7598 89.0102 92.7231 88.85 92.7231C88.6898 92.7231 88.5317 92.7598 88.3878 92.8303C88.2439 92.9008 88.1181 93.0033 88.02 93.13L84.66 97.45C84.6056 97.5194 84.5718 97.6026 84.5625 97.6903C84.5532 97.778 84.5687 97.8665 84.6073 97.9457C84.6459 98.025 84.706 98.0918 84.7807 98.1385C84.8555 98.1853 84.9418 98.21 85.03 98.21H87.65C87.441 99.4134 86.9155 100.539 86.1274 101.473C85.3392 102.406 84.3169 103.112 83.1654 103.519C82.0139 103.927 80.7747 104.02 79.5752 103.79C78.3757 103.56 77.259 103.014 76.34 102.21C76.1493 102.052 75.9045 101.975 75.6578 101.995C75.4111 102.015 75.1818 102.13 75.0189 102.317C74.856 102.503 74.7723 102.746 74.7855 102.993C74.7988 103.24 74.908 103.472 75.09 103.64C76.2801 104.687 77.7315 105.391 79.2901 105.679C80.8486 105.967 82.456 105.827 83.9413 105.274C85.4266 104.721 86.7343 103.776 87.7254 102.539C88.7165 101.302 89.354 99.8201 89.57 98.25H92.68C92.7757 98.2575 92.8714 98.2355 92.9542 98.187C93.037 98.1385 93.103 98.0659 93.1433 97.9787C93.1836 97.8916 93.1963 97.7943 93.1796 97.6997C93.1629 97.6052 93.1177 97.5181 93.05 97.45V97.45Z" fill="#D2D2D2"/>
<path d="M86.39 90.16C85.2591 89.2374 83.9159 88.6116 82.482 88.3394C81.0481 88.0671 79.569 88.157 78.1786 88.6009C76.7883 89.0449 75.5307 89.8287 74.5199 90.8815C73.5091 91.9343 72.777 93.2227 72.39 94.63H69.23C69.141 94.6281 69.0533 94.6514 68.977 94.6974C68.9008 94.7434 68.8392 94.8101 68.7994 94.8897C68.7596 94.9693 68.7432 95.0586 68.7522 95.1472C68.7611 95.2358 68.7951 95.32 68.85 95.39L72.22 99.71C72.3181 99.8366 72.444 99.9392 72.5878 100.01C72.7317 100.08 72.8898 100.117 73.05 100.117C73.2102 100.117 73.3683 100.08 73.5122 100.01C73.6561 99.9392 73.7819 99.8366 73.88 99.71L77.25 95.39C77.3044 95.3206 77.3382 95.2374 77.3475 95.1497C77.3568 95.062 77.3413 94.9735 77.3027 94.8943C77.2641 94.815 77.204 94.7482 77.1293 94.7015C77.0545 94.6547 76.9682 94.63 76.88 94.63H74.43C74.9148 93.3088 75.7931 92.1681 76.9464 91.3616C78.0998 90.5552 79.4727 90.1218 80.88 90.12C82.4489 90.1151 83.9713 90.652 85.19 91.64C85.2763 91.7716 85.3925 91.8809 85.529 91.9591C85.6656 92.0374 85.8186 92.0823 85.9758 92.0902C86.133 92.0981 86.2898 92.0688 86.4335 92.0047C86.5772 91.9406 86.7038 91.8435 86.8029 91.7212C86.902 91.599 86.9708 91.4551 87.0039 91.3013C87.0369 91.1474 87.0331 90.9879 86.9929 90.8358C86.9527 90.6836 86.8771 90.5432 86.7723 90.4257C86.6676 90.3083 86.5366 90.2173 86.39 90.16V90.16Z" fill="#D2D2D2"/>
<path d="M192.39 31.3C191.5 34.52 190.17 39.48 188.74 45.62C186.74 54.21 185.06 59.31 183.64 67.2C183.35 68.8 183.13 70.13 182.99 71.01H163.83C164.15 69.62 164.6 67.74 165.23 65.53C165.23 65.53 165.69 63.94 166.23 62.26C168.881 53.7331 171.996 45.3573 175.56 37.17L179.56 27.95L180.29 28.06C184.415 28.7642 188.465 29.8488 192.39 31.3V31.3Z" fill="#FF847C"/>
<path d="M191.09 30.82H191C190.541 31.0431 190.093 31.2901 189.66 31.56C189.19 31.86 189.07 31.88 189.01 32C188.66 32.62 189.94 34 190.59 34.6C189.07 36.39 187 38.96 184.72 42.19C180.22 48.56 176.17 54.31 174.03 61.77C173.179 64.7786 172.683 67.8762 172.55 71H183C183.14 70.12 183.36 68.79 183.65 67.19C185.07 59.3 186.76 54.19 188.75 45.61C189.589 40.7483 190.809 35.9602 192.4 31.29L191.09 30.82Z" fill="#ED6663"/>
<path d="M192.39 31.3C191.5 34.52 190.17 39.48 188.74 45.62C186.74 54.21 185.06 59.31 183.64 67.2C183.35 68.8 183.13 70.13 182.99 71.01H163.83C164.15 69.62 164.6 67.74 165.23 65.53C165.23 65.53 165.69 63.94 166.23 62.26C168.881 53.7331 171.996 45.3573 175.56 37.17L179.56 27.95L180.29 28.06C184.415 28.7642 188.465 29.8488 192.39 31.3V31.3Z" stroke="#472F40" stroke-linecap="round" stroke-linejoin="round"/>
<path d="M179.53 28C173.18 27 169.86 26.51 165.84 26.65C156.62 26.94 150.1 29.55 144.09 31.99C130.37 37.5 128.39 42.38 127.86 44C127.69 44.5515 127.554 45.1124 127.45 45.68C126.08 53.03 130.15 58.41 137.3 71.34C138.49 73.48 140.25 76.73 142.3 80.77C143.1 80.54 144 80.23 144.95 79.86C148.469 78.4753 151.695 76.4398 154.46 73.86C154.3 73.36 154.12 72.86 153.89 72.29C153.66 71.72 153.49 71.37 153.29 70.97H168.03C168.338 68.9457 168.769 66.942 169.32 64.97C172.66 53.23 178.91 47.87 179.77 35.72C179.948 33.1451 179.867 30.5589 179.53 28V28ZM154.13 55C152.98 58.65 151.78 62.21 150.56 65.68L149.99 64.8C147.36 60.8 142.63 53.61 144.79 49.59C145.39 48.47 147.19 47.59 150.79 45.89C152.996 44.8359 155.271 43.9338 157.6 43.19C156.533 47.0633 155.377 51 154.13 55Z" fill="#BAE8E0"/>
<path d="M157.24 52.73C157.802 49.5887 157.919 46.3841 157.59 43.21C157.303 44.29 157.003 45.37 156.69 46.45L156.32 47.75C156.24 48 156.17 48.24 156.1 48.49C156.03 48.74 155.91 49.15 155.81 49.49C155.783 49.605 155.749 49.7185 155.71 49.83C155.58 50.29 155.44 50.76 155.3 51.22L154.64 53.39C154.51 53.8 154.39 54.21 154.26 54.62C154.26 54.76 154.17 54.9 154.13 55.04L153.2 57.93V58.03L153.09 58.36L152.67 59.62C152.51 60.1 152.36 60.57 152.2 61.04L152.05 61.48C151.96 61.75 151.87 62.03 151.77 62.3C151.38 63.45 150.99 64.59 150.59 65.72C151.637 67.3708 152.556 69.0992 153.34 70.89L153.39 71.03H158.39C156.78 67.73 155.11 66.58 154.8 63.2C154.44 59.5 156.2 58.52 157.24 52.73Z" fill="#9DDFD3"/>
<path d="M182.89 26.61C181.591 26.4672 180.277 26.5347 179 26.81" stroke="#472F40" stroke-width="1.5" stroke-linecap="round" stroke-linejoin="round"/>
<path d="M190.74 28.4C191.857 29.0075 192.85 29.818 193.67 30.79" stroke="#472F40" stroke-width="1.5" stroke-linecap="round" stroke-linejoin="round"/>
<path d="M203.57 13.71C205.115 13.8193 206.651 13.4035 207.93 12.53C209.156 11.6484 210.052 10.3816 210.474 8.93168C210.896 7.48172 210.821 5.93212 210.26 4.53001C209.845 3.66993 209.25 2.90938 208.515 2.30019C207.78 1.69101 206.922 1.24754 206 1.00001C205.075 0.777075 204.114 0.750895 203.179 0.923162C202.243 1.09543 201.355 1.4623 200.57 2.00001C200.32 1.5401 199.98 1.13536 199.57 0.810005C197.65 -0.689995 194.76 0.280005 194 0.530005C192.416 1.09761 191.028 2.10751 190 3.44001C190.083 3.28009 190.116 3.0984 190.092 2.91954C190.069 2.74067 189.992 2.57328 189.87 2.44001C189.54 2.20001 189.05 2.44001 188.92 2.56001C188.708 2.70101 188.528 2.88524 188.392 3.10065C188.255 3.31606 188.166 3.55778 188.13 3.81001C187.54 3.12001 186.86 2.81001 186.45 3.03001C186.37 3.06996 186.3 3.1262 186.243 3.19509C186.186 3.26398 186.144 3.344 186.12 3.43001C186.098 3.6318 186.138 3.83555 186.234 4.01417C186.331 4.1928 186.479 4.33783 186.66 4.43001C185.507 4.83263 184.475 5.52069 183.66 6.43001C182.649 7.64516 182.015 9.12964 181.838 10.7004C181.66 12.2712 181.946 13.8597 182.66 15.27C183.502 16.9312 184.87 18.2672 186.55 19.07C188.901 20.304 191.577 20.7791 194.21 20.43C200.14 19.48 203.18 14.4 203.57 13.71Z" fill="#6D4558"/>
<path d="M203.57 13.71C205.115 13.8193 206.651 13.4035 207.93 12.53C209.156 11.6484 210.052 10.3816 210.474 8.93168C210.896 7.48172 210.821 5.93212 210.26 4.53001C209.845 3.66993 209.25 2.90938 208.515 2.30019C207.78 1.69101 206.922 1.24754 206 1.00001C205.075 0.777075 204.114 0.750895 203.179 0.923162C202.243 1.09543 201.355 1.4623 200.57 2.00001C200.32 1.5401 199.98 1.13536 199.57 0.810005C197.65 -0.689995 194.76 0.280005 194 0.530005C192.416 1.09761 191.028 2.10751 190 3.44001C190.083 3.28009 190.116 3.0984 190.092 2.91954C190.069 2.74067 189.992 2.57328 189.87 2.44001C189.54 2.20001 189.05 2.44001 188.92 2.56001C188.708 2.70101 188.528 2.88524 188.392 3.10065C188.255 3.31606 188.166 3.55778 188.13 3.81001C187.54 3.12001 186.86 2.81001 186.45 3.03001C186.37 3.06996 186.3 3.1262 186.243 3.19509C186.186 3.26398 186.144 3.344 186.12 3.43001C186.098 3.6318 186.138 3.83555 186.234 4.01417C186.331 4.1928 186.479 4.33783 186.66 4.43001C185.507 4.83263 184.475 5.52069 183.66 6.43001C182.649 7.64516 182.015 9.12964 181.838 10.7004C181.66 12.2712 181.946 13.8597 182.66 15.27C183.502 16.9312 184.87 18.2672 186.55 19.07C188.901 20.304 191.577 20.7791 194.21 20.43C200.14 19.48 203.18 14.4 203.57 13.71Z" stroke="#472F40" stroke-linecap="round" stroke-linejoin="round"/>
<path d="M237.81 77.51C237.315 79.2714 236.542 80.9424 235.52 82.46H204.52C202.339 82.285 200.255 81.4827 198.52 80.15C196.955 78.8945 195.742 77.2544 195 75.39C194.015 73.1194 193.649 70.6281 193.94 68.17L193.22 71H176.22C176.318 68.9597 176.575 66.9301 176.99 64.93C177.587 62.1608 178.447 59.4552 179.56 56.85C180.37 54.85 181.3 52.92 183.14 49.12C184.38 46.58 185.37 44.64 185.8 43.79C187.36 40.72 189.56 36.49 192.41 31.29C195.12 32.2117 197.602 33.7016 199.69 35.66C199.91 35.9 200.12 36.15 200.12 36.15C200.45 36.54 200.72 36.89 201 37.28C209.84 49.19 204.21 62.58 211.14 67.72C212.14 68.48 212.22 68.14 227.08 69.57C231.8 70.02 235.68 70.44 238.27 70.71C238.574 72.9846 238.418 75.2971 237.81 77.51V77.51Z" fill="#BAE8E0"/>
<path d="M237.19 79.32C236.42 79.42 235.24 79.55 233.8 79.68C229.699 80.0151 225.579 80.0718 221.47 79.85C207.27 79.33 203.99 81.95 199.05 78.75C197.123 77.4758 195.526 75.7621 194.39 73.75C194.558 74.3189 194.762 74.8766 195 75.42C195.742 77.2844 196.955 78.9245 198.52 80.18C200.255 81.5127 202.339 82.315 204.52 82.49H235.52C236.182 81.4924 236.742 80.4303 237.19 79.32Z" fill="#9DDFD3"/>
<path d="M179.53 28C173.18 27 169.86 26.51 165.84 26.65C156.62 26.94 150.1 29.55 144.09 31.99C130.37 37.5 128.39 42.38 127.86 44C127.69 44.5515 127.554 45.1124 127.45 45.68C126.08 53.03 130.15 58.41 137.3 71.34C138.49 73.48 140.25 76.73 142.3 80.77C143.1 80.54 144 80.23 144.95 79.86C148.469 78.4753 151.695 76.4398 154.46 73.86C154.3 73.36 154.12 72.86 153.89 72.29C153.66 71.72 153.49 71.37 153.29 70.97H168.03C168.338 68.9457 168.769 66.942 169.32 64.97C172.66 53.23 178.91 47.87 179.77 35.72C179.948 33.1451 179.867 30.5589 179.53 28V28ZM154.13 55C152.98 58.65 151.78 62.21 150.56 65.68L149.99 64.8C147.36 60.8 142.63 53.61 144.79 49.59C145.39 48.47 147.19 47.59 150.79 45.89C152.996 44.8359 155.271 43.9338 157.6 43.19C156.533 47.0633 155.377 51 154.13 55Z" stroke="#472F40" stroke-linecap="round" stroke-linejoin="round"/>
<path d="M237.81 77.51C237.315 79.2714 236.542 80.9424 235.52 82.46H204.52C202.339 82.285 200.255 81.4827 198.52 80.15C196.955 78.8945 195.742 77.2544 195 75.39C194.015 73.1194 193.649 70.6281 193.94 68.17L193.22 71H176.22C176.318 68.9597 176.575 66.9301 176.99 64.93C177.587 62.1608 178.447 59.4552 179.56 56.85C180.37 54.85 181.3 52.92 183.14 49.12C184.38 46.58 185.37 44.64 185.8 43.79C187.36 40.72 189.56 36.49 192.41 31.29C195.12 32.2117 197.602 33.7016 199.69 35.66C199.91 35.9 200.12 36.15 200.12 36.15C200.45 36.54 200.72 36.89 201 37.28C209.84 49.19 204.21 62.58 211.14 67.72C212.14 68.48 212.22 68.14 227.08 69.57C231.8 70.02 235.68 70.44 238.27 70.71C238.574 72.9846 238.418 75.2971 237.81 77.51V77.51Z" stroke="#472F40" stroke-linecap="round" stroke-linejoin="round"/>
<path d="M235.52 82.46C237.44 82.466 239.345 82.8043 241.15 83.46C246.07 85.21 247.93 88.62 250.05 87.86C251.49 87.35 252.11 85.25 252.16 83.86C252.31 79.86 247.67 77.08 245.69 75.86C243.459 74.521 240.978 73.65 238.4 73.3C238.382 75.2482 238.02 77.1779 237.33 79C236.864 80.2201 236.257 81.3814 235.52 82.46V82.46Z" fill="#F0BFA4"/>
<path d="M249.55 86.53C246.95 86.64 245.83 83 241.92 80.8C240.463 79.9907 238.858 79.4839 237.2 79.31V79.31C236.755 80.4153 236.195 81.4711 235.53 82.46C237.45 82.466 239.355 82.8043 241.16 83.46C246.08 85.21 247.94 88.62 250.06 87.86C250.535 87.6241 250.95 87.2824 251.272 86.8611C251.595 86.4398 251.816 85.9503 251.92 85.43C251.294 86.0781 250.449 86.4702 249.55 86.53V86.53Z" fill="#EAB292"/>
<path d="M235.52 82.46C237.44 82.466 239.345 82.8043 241.15 83.46C246.07 85.21 247.93 88.62 250.05 87.86C251.49 87.35 252.11 85.25 252.16 83.86C252.31 79.86 247.67 77.08 245.69 75.86C243.459 74.521 240.978 73.65 238.4 73.3C238.382 75.2482 238.02 77.1779 237.33 79C236.864 80.2201 236.257 81.3814 235.52 82.46V82.46Z" stroke="#472F40" stroke-linecap="round" stroke-linejoin="round"/>
<path d="M192.39 31.3C191.997 30.3686 191.787 29.3706 191.77 28.36C191.754 27.5232 191.872 26.6893 192.12 25.89C192.56 26.12 196.43 28.1 199.93 26.18C201.174 25.4842 202.188 24.4419 202.85 23.18C204.16 20.55 202.93 18.79 203.57 15.06C203.866 13.3893 204.441 11.7803 205.27 10.3C203.5 10.3 201.64 10.24 199.7 10.3L197.82 10.37C197.353 10.3951 196.909 10.578 196.56 10.8887C196.212 11.1994 195.979 11.6195 195.9 12.08C195.714 13.7495 194.886 15.2811 193.59 16.35C193.52 16.4 192.27 17.29 191.83 16.94C191.39 16.59 192.58 15.04 192.18 13.18C192.068 12.6033 191.818 12.0625 191.45 11.6043C191.082 11.1461 190.609 10.7843 190.07 10.55C189.14 10.2804 188.143 10.3767 187.282 10.8193C186.421 11.2618 185.762 12.017 185.44 12.93C185.165 13.812 185.216 14.7632 185.583 15.6109C185.95 16.4586 186.609 17.1466 187.44 17.55C187.098 18.7626 186.628 19.9357 186.04 21.05C184.515 23.8959 182.27 26.2922 179.53 28C181.38 33.29 185.74 35.9 188.79 35C190.88 34.35 192 32.2 192.39 31.3Z" fill="#F0BFA4"/>
<path d="M192.39 31.3C191.997 30.3686 191.787 29.3706 191.77 28.36C191.754 27.5232 191.872 26.6893 192.12 25.89C192.56 26.12 196.43 28.1 199.93 26.18C201.174 25.4842 202.188 24.4419 202.85 23.18C204.16 20.55 202.93 18.79 203.57 15.06C203.866 13.3893 204.441 11.7803 205.27 10.3C203.5 10.3 201.64 10.24 199.7 10.3L198.02 10.36C197.498 10.3884 197.002 10.5927 196.612 10.9396C196.221 11.2865 195.96 11.7555 195.87 12.27C195.652 13.8691 194.838 15.3267 193.59 16.35C193.52 16.4 192.27 17.29 191.83 16.94C191.39 16.59 192.58 15.04 192.18 13.18C192.068 12.6033 191.818 12.0625 191.45 11.6043C191.082 11.1461 190.609 10.7843 190.07 10.55C189.14 10.2804 188.143 10.3767 187.282 10.8193C186.421 11.2618 185.762 12.017 185.44 12.93C185.165 13.812 185.216 14.7632 185.583 15.6109C185.95 16.4586 186.609 17.1466 187.44 17.55C187.098 18.7626 186.628 19.9357 186.04 21.05C184.515 23.8959 182.27 26.2922 179.53 28C181.38 33.29 185.74 35.9 188.79 35C190.88 34.35 192 32.2 192.39 31.3Z" stroke="#472F40" stroke-linecap="round" stroke-linejoin="round"/>
<path d="M179.53 28C171.31 32.22 169.4 35.47 169.53 37.83C169.71 40.83 173.16 42.33 172.53 44.7C171.79 47.48 166.77 46.7 164.86 50.08C163.61 52.31 164.74 54.53 165.92 59.32C166.857 63.1534 167.456 67.0618 167.71 71H168.05C168.13 70.51 168.21 70.05 168.29 69.6C168.29 69.46 168.34 69.32 168.37 69.18C168.45 68.78 168.53 68.38 168.61 68L168.76 67.36C168.82 67.07 168.89 66.77 168.96 66.5C169.08 66 169.21 65.5 169.34 65.07C172.68 53.33 178.93 47.97 179.79 35.82C179.968 33.2112 179.881 30.5912 179.53 28V28Z" fill="#9DDFD3"/>
<path d="M179.53 28C171.31 32.22 169.4 35.47 169.53 37.83C169.71 40.83 173.16 42.33 172.53 44.7C171.79 47.48 166.77 46.7 164.86 50.08C163.61 52.31 164.74 54.53 165.92 59.32C166.857 63.1534 167.456 67.0618 167.71 71H168.05C168.13 70.51 168.21 70.05 168.29 69.6C168.29 69.46 168.34 69.32 168.37 69.18C168.45 68.78 168.53 68.38 168.61 68L168.76 67.36C168.82 67.07 168.89 66.77 168.96 66.5C169.08 66 169.21 65.5 169.34 65.07C172.68 53.33 178.93 47.97 179.79 35.82C179.968 33.2112 179.881 30.5912 179.53 28V28Z" stroke="#472F40" stroke-linecap="round" stroke-linejoin="round"/>
<path d="M185.77 43.81C184.77 45.81 183.9 47.56 183.09 49.2L181.93 51.59C180.99 53.59 180.18 55.32 179.51 56.94C178.41 59.5196 177.56 62.1985 176.97 64.94V64.94C176.59 66.8646 176.336 68.8121 176.21 70.77C176.215 70.8466 176.215 70.9234 176.21 71H176.9C177.684 68.7205 178.866 66.5977 180.39 64.73C184.87 59.28 190.39 58.73 190.96 54.51C191.41 51.39 188.68 49.79 189.81 47.28C190.94 44.77 193.99 45.33 195.45 43.28C196.64 41.57 196.66 38.28 192.4 31.34C189.55 36.54 187.4 40.77 185.79 43.84L185.77 43.81Z" fill="#9DDFD3"/>
<path d="M185.77 43.81C184.77 45.81 183.9 47.56 183.09 49.2L181.93 51.59C180.99 53.59 180.18 55.32 179.51 56.94C178.41 59.5196 177.56 62.1985 176.97 64.94V64.94C176.59 66.8646 176.336 68.8121 176.21 70.77C176.215 70.8466 176.215 70.9234 176.21 71H176.9C177.684 68.7205 178.866 66.5977 180.39 64.73C184.87 59.28 190.39 58.73 190.96 54.51C191.41 51.39 188.68 49.79 189.81 47.28C190.94 44.77 193.99 45.33 195.45 43.28C196.64 41.57 196.66 38.28 192.4 31.34C189.55 36.54 187.4 40.77 185.79 43.84L185.77 43.81Z" stroke="#472F40" stroke-linecap="round" stroke-linejoin="round"/>
<path d="M197.46 16.5C197.819 16.5 198.11 16.209 198.11 15.85C198.11 15.491 197.819 15.2 197.46 15.2C197.101 15.2 196.81 15.491 196.81 15.85C196.81 16.209 197.101 16.5 197.46 16.5Z" fill="#402A38"/>
<path d="M201.84 16.5C202.199 16.5 202.49 16.209 202.49 15.85C202.49 15.491 202.199 15.2 201.84 15.2C201.481 15.2 201.19 15.491 201.19 15.85C201.19 16.209 201.481 16.5 201.84 16.5Z" fill="#402A38"/>
<path d="M199.46 15.91C199.448 16.2657 199.478 16.6215 199.55 16.97C199.7 17.7 199.93 17.97 199.84 18.32C199.75 18.67 199.55 18.91 198.73 19.2" stroke="#402A38" stroke-linecap="round" stroke-linejoin="round"/>
<path d="M198 21C197.68 20.81 197.45 20.61 197.2 20.69C197.116 20.7171 197.041 20.7654 196.981 20.8302C196.922 20.8951 196.88 20.9742 196.86 21.06C196.78 21.51 197.54 22.19 198.33 22.19C198.91 22.19 199.49 21.81 199.46 21.57C199.43 21.33 198.81 21.52 198 21Z" stroke="#402A38" stroke-linecap="round" stroke-linejoin="round"/>
<path d="M196 14.26C196.357 13.9805 196.781 13.801 197.23 13.74C197.537 13.6804 197.853 13.6804 198.16 13.74" stroke="#402A38" stroke-linecap="round" stroke-linejoin="round"/>
<path d="M203.12 14.22C202.882 14.0906 202.63 13.9867 202.37 13.91C202.084 13.8222 201.789 13.7652 201.49 13.74" stroke="#402A38" stroke-linecap="round" stroke-linejoin="round"/>
<path d="M189.67 13.16C189.429 13.1014 189.179 13.0953 188.936 13.1418C188.692 13.1884 188.462 13.2867 188.26 13.43C187.974 13.6662 187.772 13.989 187.686 14.3498C187.599 14.7105 187.632 15.0897 187.78 15.43" stroke="#402A38" stroke-linecap="round" stroke-linejoin="round"/>
<path d="M143.77 80.31C144.394 81.58 144.854 82.9241 145.14 84.31C146.21 89.31 144.31 91.99 145.83 93.47C147.21 94.8 150.44 94.25 152.31 92.71C154.03 91.29 154.31 89.26 154.66 87.13C155.12 84.05 154.5 81.43 153.83 78.61C153.51 77.23 153.16 76.09 152.9 75.32C150.165 77.4969 147.077 79.1881 143.77 80.32V80.31Z" fill="#F0BFA4"/>
<path d="M153.83 78.56C153.51 77.18 153.16 76.04 152.9 75.27C150.165 77.4469 147.077 79.1381 143.77 80.27C143.92 80.59 144.09 80.96 144.27 81.38C145.808 81.5572 147.36 81.2044 148.67 80.38C149.19 80.01 150.15 79.17 151.18 79.38C151.39 79.4272 151.59 79.5118 151.77 79.63C152.26 79.95 153.27 81.09 152.67 87.71C152.37 91.11 151.98 92.24 151.05 93.09C150.588 93.4991 150.047 93.8089 149.46 94C150.5 93.7726 151.475 93.3109 152.31 92.65C154.03 91.23 154.31 89.2 154.66 87.07C155.12 84 154.5 81.38 153.83 78.56Z" fill="#EAB292"/>
<path d="M143.77 80.31C144.394 81.58 144.854 82.9241 145.14 84.31C146.21 89.31 144.31 91.99 145.83 93.47C147.21 94.8 150.44 94.25 152.31 92.71C154.03 91.29 154.31 89.26 154.66 87.13C155.12 84.05 154.5 81.43 153.83 78.61C153.51 77.23 153.16 76.09 152.9 75.32C150.165 77.4969 147.077 79.1881 143.77 80.32V80.31Z" stroke="#472F40" stroke-linecap="round" stroke-linejoin="round"/>
<path d="M193.94 68.17C194.25 66.54 194.55 64.88 194.82 63.17C195.58 58.48 196.11 53.96 196.47 49.66" stroke="#472F40" stroke-linecap="round" stroke-linejoin="round"/>
<path d="M179 26.81C177.687 27.0848 176.472 27.7064 175.48 28.61C174.01 29.98 173.48 31.76 172.99 34.9C172.46 38.5413 172.312 42.228 172.55 45.9" stroke="#472F40" stroke-width="1.5" stroke-linecap="round" stroke-linejoin="round"/>
<path d="M168.74 59.24C168.312 57.5916 168.11 55.8927 168.14 54.19C168.19 51.94 168.29 47.55 170.92 46.3C171.417 46.0585 171.962 45.933 172.515 45.933C173.068 45.933 173.613 46.0585 174.11 46.3C176.06 47.37 176.19 50.48 176.34 54.01C176.402 55.5485 176.348 57.0895 176.18 58.62" stroke="#472F40" stroke-width="1.5" stroke-linecap="round" stroke-linejoin="round"/>
<path d="M176.16 61.3C177.447 61.3 178.49 60.2568 178.49 58.97C178.49 57.6832 177.447 56.64 176.16 56.64C174.873 56.64 173.83 57.6832 173.83 58.97C173.83 60.2568 174.873 61.3 176.16 61.3Z" fill="#6D4558"/>
<path d="M193.67 30.79C194.159 31.3883 194.544 32.0644 194.81 32.79C196.03 36.17 194.13 39.69 193.61 40.79C192.12 43.79 190.56 49.23 190.38 60.22" stroke="#472F40" stroke-width="1.5" stroke-linecap="round" stroke-linejoin="round"/>
<path d="M190.38 63.91C192.495 63.91 194.21 62.1953 194.21 60.08C194.21 57.9648 192.495 56.25 190.38 56.25C188.265 56.25 186.55 57.9648 186.55 60.08C186.55 62.1953 188.265 63.91 190.38 63.91Z" fill="#6D4558"/>
<path d="M190.38 62.09C191.49 62.09 192.39 61.1901 192.39 60.08C192.39 58.9699 191.49 58.07 190.38 58.07C189.27 58.07 188.37 58.9699 188.37 60.08C188.37 61.1901 189.27 62.09 190.38 62.09Z" fill="#472F40"/>
<path d="M176.16 61.3C177.447 61.3 178.49 60.2568 178.49 58.97C178.49 57.6832 177.447 56.64 176.16 56.64C174.873 56.64 173.83 57.6832 173.83 58.97C173.83 60.2568 174.873 61.3 176.16 61.3Z" stroke="#472F40" stroke-linecap="round" stroke-linejoin="round"/>
<path d="M168.84 62.08C170.127 62.08 171.17 61.0368 171.17 59.75C171.17 58.4632 170.127 57.42 168.84 57.42C167.553 57.42 166.51 58.4632 166.51 59.75C166.51 61.0368 167.553 62.08 168.84 62.08Z" fill="#6D4558"/>
<path d="M168.84 62.08C170.127 62.08 171.17 61.0368 171.17 59.75C171.17 58.4632 170.127 57.42 168.84 57.42C167.553 57.42 166.51 58.4632 166.51 59.75C166.51 61.0368 167.553 62.08 168.84 62.08Z" stroke="#472F40" stroke-linecap="round" stroke-linejoin="round"/>
<path d="M190.38 63.91C192.495 63.91 194.21 62.1953 194.21 60.08C194.21 57.9648 192.495 56.25 190.38 56.25C188.265 56.25 186.55 57.9648 186.55 60.08C186.55 62.1953 188.265 63.91 190.38 63.91Z" stroke="#472F40" stroke-linecap="round" stroke-linejoin="round"/>
<path d="M150.56 65.7C151.326 66.9066 152.024 68.1552 152.65 69.44C153.356 70.8854 153.967 72.3752 154.48 73.9C153.442 74.8645 152.335 75.7535 151.17 76.56C149.297 77.8552 147.285 78.9354 145.17 79.78" stroke="#402A38" stroke-linecap="round" stroke-linejoin="round"/>
</g>
<defs>
<clipPath id="clip0_2_2">
<rect width="393" height="123" fill="white"/>
</clipPath>
</defs>
</svg>
