<svg xmlns="http://www.w3.org/2000/svg" width="20" height="20" fill="none" viewBox="0 0 20 20">
    <path fill="#384A51" d="M3.518 16.482c.812.812 1.88 1.218 2.946 1.218 1.067 0 2.135-.406 2.946-1.218l2.357-2.358-1.178-1.178-2.357 2.357c-.974.973-2.56.975-3.536 0-.974-.975-.974-2.56 0-3.535L7.054 9.41 5.875 8.233l-2.357 2.356c-1.624 1.624-1.624 4.269 0 5.893zM16.48 9.41c1.624-1.624 1.624-4.268 0-5.893-1.625-1.625-4.269-1.623-5.892 0L8.232 5.876 9.41 7.054l2.357-2.357c.975-.973 2.56-.974 3.536 0 .974.975.974 2.56 0 3.536l-2.358 2.356 1.179 1.179L16.48 9.41z"/>
    <path fill="#384A51" d="M7.053 14.126l-1.179-1.179 7.072-7.072 1.178 1.179-7.071 7.072z"/>
</svg>
