<svg xmlns="http://www.w3.org/2000/svg" width="351" height="247" fill="none" viewBox="0 0 351 247">
    <g clip-path="url(#prefix__clip0)">
        <path stroke="#384A51" stroke-dasharray="5 5" stroke-miterlimit="10" d="M93.25 157.407v-53.08h37.269V20.543h152.706v36.322"/>
        <path stroke="#8CA6AD" stroke-miterlimit="10" d="M61.578 171.735l31.671-7.9 31.661-35.554 31.661 23.71 31.66-15.799 31.672 7.899 31.66-23.709 31.661 5.948 31.661-17.792"/>
        <path fill="#8CA6AD" d="M93.25 165.935c1.162 0 2.104-.94 2.104-2.1 0-1.16-.942-2.1-2.104-2.1-1.162 0-2.105.94-2.105 2.1 0 1.16.943 2.1 2.105 2.1zM61.578 173.835c1.163 0 2.105-.94 2.105-2.1 0-1.16-.942-2.1-2.105-2.1-1.162 0-2.104.94-2.104 2.1 0 1.16.942 2.1 2.104 2.1zM124.91 130.381c1.163 0 2.105-.94 2.105-2.1 0-1.16-.942-2.1-2.105-2.1-1.162 0-2.104.94-2.104 2.1 0 1.16.942 2.1 2.104 2.1zM156.721 153.675c1.162 0 2.104-.94 2.104-2.1 0-1.16-.942-2.1-2.104-2.1-1.163 0-2.105.94-2.105 2.1 0 1.16.942 2.1 2.105 2.1zM188.232 138.292c1.162 0 2.104-.941 2.104-2.101 0-1.159-.942-2.1-2.104-2.1-1.162 0-2.105.941-2.105 2.1 0 1.16.943 2.101 2.105 2.101zM219.903 146.192c1.162 0 2.104-.941 2.104-2.101 0-1.16-.942-2.1-2.104-2.1-1.162 0-2.104.94-2.104 2.1 0 1.16.942 2.101 2.104 2.101zM251.564 122.482c1.162 0 2.104-.94 2.104-2.1 0-1.16-.942-2.1-2.104-2.1-1.162 0-2.105.94-2.105 2.1 0 1.16.943 2.1 2.105 2.1zM283.224 128.431c1.163 0 2.105-.94 2.105-2.1 0-1.16-.942-2.101-2.105-2.101-1.162 0-2.104.941-2.104 2.101 0 1.16.942 2.1 2.104 2.1zM314.885 110.638c1.162 0 2.104-.94 2.104-2.1 0-1.16-.942-2.1-2.104-2.1-1.162 0-2.104.94-2.104 2.1 0 1.16.942 2.1 2.104 2.1z"/>
        <path fill="#FDF3E8" d="M101.72 73.39H69.365c-2.943 0-5.766 1.166-7.847 3.243-2.082 2.078-3.25 4.895-3.25 7.833 0 2.937 1.168 5.755 3.25 7.832 2.081 2.077 4.904 3.244 7.847 3.244h20.413l3.472 3.454 3.46-3.454h5.01c2.942-.002 5.762-1.17 7.841-3.248 2.079-2.077 3.247-4.892 3.247-7.828s-1.168-5.752-3.247-7.829c-2.079-2.077-4.899-3.245-7.841-3.248z"/>
        <path stroke="#000" stroke-linecap="round" stroke-linejoin="round" stroke-width=".5" d="M69.365 73.39c-2.943 0-5.766 1.166-7.847 3.243-2.082 2.078-3.25 4.895-3.25 7.833v0c0 2.937 1.168 5.755 3.25 7.832 2.081 2.077 4.904 3.244 7.847 3.244h20.413l3.472 3.454"/>
        <path stroke="#8CA6AD" stroke-linecap="round" stroke-linejoin="round" d="M82.75 80.49h16.973M82.75 84.508h16.973M82.75 88.527h16.973"/>
        <path fill="#384A51" d="M73.574 83.282l1.933.512c.034.007.065.024.09.049.025.024.041.055.049.09l.534 1.812v1.151c.001.093-.016.185-.05.271-.036.086-.087.164-.153.23-.066.065-.144.117-.23.152-.087.035-.179.052-.272.05h-4.22c-.183 0-.365-.035-.535-.106-.17-.07-.324-.173-.454-.302-.13-.13-.233-.284-.303-.453-.07-.17-.107-.352-.107-.535v-5.181c0-.371.148-.728.41-.991.262-.264.618-.413.99-.416h3.514c.37.005.724.156.983.42.26.263.406.617.406.987v.448H72.42c-.187 0-.366.074-.498.206-.133.132-.207.31-.207.497v3.433c0 .057.023.11.063.15.04.04.094.063.15.063h1.443c.055-.002.106-.026.144-.066.038-.04.059-.092.059-.147v-2.324z"/>
        <path fill="#8CA6AD" d="M73.126 89.37c-.35 0-.685-.138-.933-.384s-.39-.58-.392-.928v-.362h3.674c.211-.003.412-.089.56-.238.148-.15.231-.352.231-.562v-3.411c0-.08-.032-.155-.088-.211-.056-.056-.132-.088-.211-.088h-2.478v2.367c0 .031-.013.06-.035.083-.022.022-.052.034-.083.034h-1.484c-.017.002-.033 0-.049-.005-.015-.006-.03-.014-.042-.025-.012-.011-.021-.025-.028-.04-.006-.015-.01-.03-.01-.047v-3.465c.003-.162.07-.316.186-.43.115-.114.271-.178.434-.177h4.358c.172 0 .343.033.503.1.16.065.304.162.426.284.122.121.219.266.285.425.066.159.1.33.1.502v5.266c0 .172-.034.343-.1.502-.066.16-.163.304-.285.425-.122.122-.267.219-.426.285-.16.066-.33.1-.503.1h-3.61z"/>
        <path fill="#7F9DA5" d="M76.778 81.598c.325.003.636.133.866.362.23.23.36.54.363.864v5.234c-.003.325-.133.635-.363.864-.23.23-.54.36-.866.362h-3.653c-.162.002-.323-.029-.473-.09-.15-.06-.287-.15-.402-.265-.115-.114-.207-.25-.27-.399-.062-.15-.094-.31-.094-.472v-.277h3.579c.235 0 .46-.093.626-.259.167-.166.26-.39.26-.626v-3.411c-.003-.103-.045-.2-.12-.272-.073-.072-.172-.112-.275-.112h-2.564v2.484H71.93v-3.497c0-.138.055-.271.153-.369.098-.098.232-.153.37-.153h4.359l-.033.032zm.032-.213h-4.39c-.187 0-.366.074-.498.206s-.207.31-.207.497v3.433c0 .057.023.11.063.15.04.04.094.063.151.063h1.431c.057 0 .111-.022.151-.062.04-.04.063-.094.063-.15v-2.24h2.393c.027-.001.055.003.08.013.026.01.05.024.07.043.02.019.036.042.047.067.01.025.016.052.016.08v3.411c.002.093-.016.185-.05.271-.035.086-.087.165-.153.23-.066.066-.144.117-.23.152-.086.035-.179.052-.272.051h-3.76v.458c0 .374.149.732.413.995.265.264.623.413.997.413h3.653c.185 0 .368-.037.538-.108.17-.07.326-.174.456-.305s.233-.286.302-.457c.07-.17.105-.353.104-.538v-5.234c.001-.184-.034-.367-.104-.538-.07-.17-.172-.326-.302-.456-.13-.131-.285-.235-.456-.306-.17-.07-.353-.107-.538-.107l.032-.032z"/>
        <path fill="#FDF3E8" d="M291.695 54.914H259.34c-2.943 0-5.766 1.167-7.848 3.244-2.081 2.078-3.25 4.895-3.25 7.833 0 2.937 1.169 5.755 3.25 7.832 2.082 2.077 4.905 3.244 7.848 3.244h20.423l3.461 3.454 3.461-3.454h5.01c2.943 0 5.766-1.167 7.848-3.244 2.081-2.077 3.25-4.895 3.25-7.832 0-2.938-1.169-5.755-3.25-7.833-2.082-2.077-4.905-3.244-7.848-3.244z"/>
        <path stroke="#000" stroke-linecap="round" stroke-linejoin="round" stroke-width=".5" d="M259.34 54.914c-2.943 0-5.766 1.167-7.848 3.244-2.081 2.078-3.25 4.895-3.25 7.833 0 2.937 1.169 5.755 3.25 7.832 2.082 2.077 4.905 3.244 7.848 3.244h20.424l3.46 3.454"/>
        <path stroke="#8CA6AD" stroke-linecap="round" stroke-linejoin="round" d="M272.735 62.014h16.973M272.735 66.033h16.973M272.735 70.052h16.973"/>
        <path fill="#384A51" d="M263.559 64.807l1.923.512c.035.008.067.025.093.049.027.024.046.055.057.09l.534 1.812v1.151c0 .187-.075.366-.207.498s-.311.206-.498.206h-4.22c-.362-.014-.706-.167-.959-.427-.252-.26-.395-.608-.397-.97v-5.234c0-.374.148-.731.413-.995.264-.264.623-.413.997-.413h3.514c.374 0 .733.149.997.413s.413.621.413.995v.405h-3.771c-.186.002-.363.078-.495.209s-.207.309-.21.494v3.433c0 .057.023.11.063.15.04.04.094.063.151.063h1.442c.057 0 .111-.022.151-.062.04-.04.063-.094.063-.15l-.054-2.229z"/>
        <path fill="#8CA6AD" d="M263.089 70.894c-.348 0-.682-.138-.929-.384-.246-.246-.385-.58-.385-.927v-.363h3.675c.211-.002.412-.088.56-.238.147-.15.23-.351.23-.561v-3.39c-.002-.079-.035-.153-.09-.209-.056-.055-.13-.087-.209-.09h-2.489V67.1c0 .031-.012.06-.034.083-.022.022-.052.034-.083.034h-1.442c-.031 0-.061-.012-.083-.034-.022-.022-.035-.052-.035-.083v-3.454c.003-.16.068-.314.182-.427.113-.113.267-.178.427-.18h4.358c.349 0 .683.137.929.383.247.246.385.58.385.927v5.235c0 .348-.138.681-.385.927-.246.246-.58.384-.929.384h-3.653z"/>
        <path fill="#7F9DA5" d="M266.753 63.123c.326 0 .638.129.869.359.23.23.36.542.36.867v5.234c0 .325-.13.637-.36.867-.231.23-.543.36-.869.36h-3.664c-.325-.004-.635-.134-.865-.363-.23-.23-.36-.54-.363-.864v-.288h3.589c.233-.002.456-.097.62-.263.164-.165.256-.389.256-.621v-3.38c0-.102-.041-.2-.113-.271-.072-.072-.17-.113-.272-.113h-2.574v2.484h-1.474v-3.486c0-.068.014-.136.04-.2.026-.063.065-.12.113-.17.049-.048.107-.086.17-.112.064-.027.132-.04.2-.04h4.359-.022zm.022-.181h-4.359c-.186.002-.363.077-.495.209-.132.131-.207.308-.21.494v3.433c0 .056.023.11.063.15.04.04.094.063.151.063h1.442c.057 0 .111-.022.151-.062.04-.04.063-.094.063-.151v-2.27h2.392c.028-.002.056.002.081.011.026.01.05.025.07.044.02.019.036.041.047.067.011.025.016.052.016.08v3.411c0 .187-.074.366-.206.498-.133.132-.312.206-.499.206h-3.771v.458c0 .368.144.721.402.984s.608.415.976.424h3.654c.373 0 .732-.149.997-.413.264-.264.413-.621.413-.995V64.35c.005-.188-.027-.374-.094-.55-.068-.174-.17-.334-.3-.47-.131-.134-.287-.242-.459-.316-.173-.074-.359-.113-.547-.114l.022.043z"/>
        <path stroke="#384A51" stroke-dasharray="5 5" stroke-miterlimit="10" d="M283.225 121.022V82.995"/>
        <path fill="#FFBF8A" d="M196.862 75.095s3.6-12.58 7.648-15.992l-7.648 15.992z"/>
        <path fill="#F0F0F0" d="M268.43 247c1.851-.006 3.625-.742 4.934-2.048 1.309-1.307 2.047-3.077 2.052-4.924-.005-1.848-.743-3.618-2.052-4.924-1.309-1.306-3.083-2.043-4.934-2.048h-7.242c-1.851-.006-3.624-.742-4.933-2.049-1.309-1.306-2.047-3.076-2.053-4.923.006-1.847.744-3.616 2.053-4.92 1.31-1.305 3.083-2.039 4.933-2.042h21.129c1.851-.006 3.624-.742 4.933-2.048 1.309-1.307 2.047-3.077 2.053-4.924-.006-1.847-.744-3.618-2.053-4.924-1.309-1.306-3.082-2.043-4.933-2.048H101.795c-.92-.003-1.832.175-2.683.524-.851.349-1.625.862-2.278 1.509-.652.647-1.17 1.417-1.526 2.264-.354.848-.538 1.757-.541 2.675.003.918.187 1.827.541 2.675.355.847.874 1.616 1.526 2.264.653.647 1.427 1.16 2.278 1.509s1.763.527 2.683.524h8.738c1.849.006 3.621.741 4.93 2.045 1.308 1.304 2.047 3.071 2.056 4.917-.006 1.847-.744 3.617-2.052 4.923-1.309 1.307-3.083 2.043-4.934 2.049H94.19c-1.851.005-3.625.742-4.934 2.048-1.308 1.306-2.046 3.076-2.052 4.924.006 1.847.744 3.617 2.052 4.924 1.31 1.306 3.083 2.042 4.934 2.048h174.24z"/>
        <path fill="#AF897B" fill-rule="evenodd" d="M208.313 213.483c.951 3.251 1.977 6.684 3.077 10.255l6.772-1.236c-.246-3.934-.502-7.762-.748-11.44l-9.101 2.421z" clip-rule="evenodd"/>
        <path fill="#456682" fill-rule="evenodd" d="M209.905 222.395c-.26 1.089-.339 2.212-.235 3.326.255 1.246.612 2.469 1.068 3.657l26.704-4.584c.299-2.41-.299-3.582-1.837-3.508-1.538.075-2.82.128-3.824.15l-13.363-3.391c-.059-.016-.122-.016-.181 0-.066.006-.128.028-.182.064-.051.033-.098.073-.139.118-.04.049-.066.108-.075.17l-.47 2.068c-.947.734-2.039 1.261-3.204 1.546-1.032.086-2.07-.034-3.055-.352-.246-.065-.507-.03-.727.096-.214.134-.371.343-.437.587l-.043.053z" clip-rule="evenodd"/>
        <path fill="#AF897B" fill-rule="evenodd" d="M160.406 218.12c.352 3.369.747 6.919 1.185 10.661h6.89c.459-3.913.897-7.719 1.314-11.386l-9.389.725z" clip-rule="evenodd"/>
        <path fill="#456682" fill-rule="evenodd" d="M160.374 227.171c-.451 1.014-.732 2.094-.833 3.198.03 1.274.162 2.543.395 3.795l27.078.267c.726-2.313.352-3.571-1.175-3.774-1.528-.203-2.788-.384-3.792-.544l-12.53-5.725c-.06-.009-.121-.009-.181 0-.063-.015-.129-.015-.193 0-.057.018-.109.051-.149.096-.048.043-.088.093-.118.15l-.833 1.951c-1.066.546-2.233.869-3.429.948-1.031-.105-2.032-.409-2.948-.895-.232-.096-.494-.096-.726 0-.12.04-.23.104-.324.188-.093.085-.169.188-.221.302l-.021.043z" clip-rule="evenodd"/>
        <path fill="#8CA6AD" fill-rule="evenodd" d="M237.453 223.439c.009.453-.016.906-.075 1.354l-26.704 4.585c-.128-.32-.374-1.067-.481-1.365 2.788-.405 12.348-1.706 13.94-2.058 1.859-.415 11.654-1.929 12.647-2.249.233-.067.458-.156.673-.267zM187.367 232.704c-.041.599-.159 1.191-.353 1.759l-27.078-.266c-.118-.619-.214-1.248-.278-1.877 2.756.256 10.511.949 12.733.853 2.692-.117 13.469.299 14.976-.469z" clip-rule="evenodd"/>
        <path fill="#2F4B62" fill-rule="evenodd" d="M168.663 103.612l22.324 64.413 16.472 50.948 11.75-3.731s-7.617-45.202-9.55-52.814c-1.933-7.612-13.64-59.327-13.64-59.327l-27.356.511z" clip-rule="evenodd"/>
        <path fill="#456682" fill-rule="evenodd" d="M159.541 102.589s-2.136 16.204-1.335 26.097c1.356 15.672 3.781 37.388 3.653 41.034-.139 3.976-2.318 51.172-2.318 51.172l10.254.789s10.682-40.373 12.348-49.562c4.946-15.352 5.267-67.995 5.267-67.995l-27.869-1.535z" clip-rule="evenodd"/>
        <path stroke="#000" stroke-linecap="round" stroke-linejoin="round" stroke-width=".5" d="M159.541 102.589s-2.136 16.204-1.335 26.097c1.356 15.672 3.781 37.388 3.653 41.034-.139 3.976-2.318 51.172-2.318 51.172l10.254.789"/>
        <path fill="#FFBF8A" d="M196.863 38.944c-5.224-2.132-22.507 0-22.507 0-3.659.397-7.285 1.05-10.853 1.951-1.288.188-2.509.69-3.557 1.46l-.203.15c-.413.315-.793.672-1.132 1.066-4.272 5.33-8.994 24.52-8.994 24.52l9.614 5.224.31 29.274s12.38 2.719 19.782 2.719c5.633.088 11.248-.656 16.664-2.207l4.913-37.44 6.313 9.36 10.308-11.951s-14.014-21.418-20.658-24.126z"/>
        <path stroke="#000" stroke-linecap="round" stroke-linejoin="round" stroke-width=".5" d="M159.477 93.356l.096 9.233s12.38 2.718 19.782 2.718c5.633.088 11.249-.656 16.664-2.207"/>
        <path fill="#AF897B" d="M233.479 103.516s2.137 5.949 2.297 7.132c.16 1.184.545 3.199.812 3.295.267.095 1.314.159.684-3.337-.278-1.535.181-1.898.181-1.898.37.324.71.68 1.015 1.066.545 1.749-.865 7.463-.865 7.463.085.511 1.068.149 2.691-1.237 1.154-.981 2.447-5.821 2.436-5.917.25-.943.128-1.947-.342-2.803-1.651-2.187-3.434-4.269-5.341-6.237l-3.568 2.473z"/>
        <path fill="#AF897B" d="M237.795 102.109c-2.008-4.435-12.081-22.771-17.208-27.952l-4.497-9.467-8.396 9.595c1.606 1.855 3.396 3.544 5.341 5.042 3.963 7.399 21.299 25.149 21.299 25.149s4.86 1.375 3.461-2.367zM173.939 22.772c.544-.21.983-.626 1.223-1.156.24-.53.261-1.134.059-1.68-.165-.362-.431-.668-.766-.883-.335-.215-.725-.329-1.123-.328-.399 0-.788.116-1.123.332-.334.216-.599.524-.762.886-.164.362-.22.764-.161 1.157s.23.76.493 1.06c.263.298.607.514.99.623.383.108.789.104 1.17-.011z"/>
        <path fill="#AF897B" fill-rule="evenodd" d="M173.363 13.4c1.068-14.413 19.067-11.587 22.228-3.965 1.133 2.697 2.019 10.767-.406 18.123-.514 1.544-1.426 2.925-2.645 4.005s-2.701 1.82-4.298 2.147l.128 4.157s-1.89 5.33-7.648 4.574c-7.562-1.066-7.135-4.265-7.135-4.265s-.577-19.775-.224-24.775z" clip-rule="evenodd"/>
        <path fill="#000" fill-rule="evenodd" d="M189.108 26.236c-.107.63-2.521 1.546-2.575-.32-.032-1.055 2.852-.96 2.575.32zM190.796 15.991c.416-.293.907-.466 1.416-.498.509-.032 1.017.078 1.468.317.128.096.074.277 0 .224-.389-.198-.829-.272-1.261-.213-1.228.085-1.784.5-1.623.17zM182.464 16.055c.492-.307 1.052-.49 1.632-.53.579-.041 1.159.06 1.69.296.16.085.075.266 0 .213-.451-.191-.946-.258-1.432-.192-1.377.074-2.082.522-1.89.213z" clip-rule="evenodd"/>
        <path fill="#000" d="M191.981 18.198c.192-.022.37-.115.499-.26.128-.144.2-.33.2-.524 0-.193-.072-.38-.2-.524-.129-.145-.307-.237-.499-.26-.208.004-.406.088-.552.236-.146.147-.228.346-.228.554 0 .206.082.404.229.55.146.146.344.228.551.228zM183.874 18.124c.157.002.311-.043.443-.129.131-.086.234-.209.295-.353.062-.145.078-.305.048-.459-.03-.154-.106-.295-.217-.406-.111-.111-.253-.186-.407-.216-.155-.03-.314-.014-.459.047-.145.061-.268.164-.354.295-.086.132-.131.286-.129.442 0 .207.082.405.228.55.146.147.345.229.552.229z"/>
        <path fill="#B28B67" fill-rule="evenodd" d="M189.203 22.612c.94-.8-.79-.32-1.602-.342-.812-.02 1.4.502 1.602.342z" clip-rule="evenodd"/>
        <path fill="#000" d="M190.763 1.866s3.611-.693 5.95 3.742c1.068 1.993.951 5.565-.684 6.524-1.356.778-5.768-2.505-5.768-2.505-6.121 4.403-5.896 0-9.453 2.665-2.805 1.993-5.22 4.482-7.125 7.345 0 0-2.638.49-3.621-3.08-.522-1.468-.731-3.03-.614-4.582.118-1.554.56-3.065 1.298-4.438 5.031-10.49 17.699-7.537 20.017-5.671z"/>
        <path fill="#000" fill-rule="evenodd" d="M188.413 15.991c.47 3.39 1.667 6.482.983 6.748-.384.184-.819.229-1.232.128-.413-.101-.778-.342-1.033-.682 0 0 2.137.938 2.03-.053-.064-.81-.748-6.14-.748-6.14z" clip-rule="evenodd"/>
        <path fill="#B28B67" fill-rule="evenodd" d="M188.242 33.752c-2.276-.234-4.48-.935-6.473-2.057 0 0 .993 2.697 6.473 3.56v-1.503z" clip-rule="evenodd"/>
        <path stroke="#000" stroke-linecap="round" stroke-linejoin="round" stroke-width=".5" d="M193.925 60.65s7.648 2.857 13.288 14.37l10.308-11.95"/>
        <path fill="#456682" d="M208.004 68.997l-22.891 6.556-.684-3.497 22.047-6.897"/>
        <path fill="#2F4B62" d="M207.213 68.229c-.374.096-21.224 6.055-21.502 6.151-.217.092-.397.252-.513.457-.116.204-.161.44-.128.673.061.227.203.424.401.552.197.128.435.178.667.141"/>
        <path fill="#AF897B" d="M188.317 81.545c3.532-1.41 7.163-2.557 10.863-3.433 1.293-.341 2.692-1.578 2.286-2.804.248-.251.415-.57.481-.917.08-.355.054-.725-.075-1.066.215-.182.365-.429.427-.704.053-.279.012-.567-.117-.82.184-.136.313-.332.363-.555.045-.225-.001-.459-.128-.65l-5.17 1.525s-5.106 1.066-1.218-2.506c3.888-3.571 2.585-4.445 2.19-4.573-.395-.128-2.628 1.983-3.92 3.198-1.293 1.215-7.413 9.85-7.413 9.85l1.431 3.455z"/>
        <path fill="#AF897B" d="M189.107 76.63c-6.056.778-21.032 3.198-29.225 7.462l2.062-9.328-9.838-5.042s-5.565 21.503 1.56 23.752c8.043 2.537 36.029-12.633 36.029-12.633s4.401-4.52-.588-4.211z"/>
        <path stroke="#000" stroke-linecap="round" stroke-linejoin="round" stroke-width=".5" d="M174.314 38.944c-3.659.397-7.285 1.049-10.853 1.95-1.288.188-2.51.69-3.557 1.461l-.203.15c-.414.315-.793.672-1.132 1.066-4.273 5.33-8.994 24.52-8.994 24.52l12.369 6.694M159.882 84.114s3.141-15.991 5.341-19.424"/>
    </g>
    <defs>
        <clipPath id="prefix__clip0">
            <path fill="#fff" d="M58 0H317V247H58z"/>
        </clipPath>
    </defs>
</svg>
