<svg width="166" height="180" viewBox="0 0 166 180" fill="none" xmlns="http://www.w3.org/2000/svg">
<g opacity="0.2">
<path opacity="0.8" fill-rule="evenodd" clip-rule="evenodd" d="M57.7898 123.164H128.21C129.491 123.164 130.5 124.023 130.5 125.118V147.556C130.5 148.634 129.474 149.506 128.21 149.506H57.7898C56.5082 149.506 55.5 148.647 55.5 147.556V125.118C55.5 124.04 56.5253 123.164 57.7898 123.164Z" fill="#456682"/>
<path opacity="0.8" d="M130.5 147.555C130.5 148.633 129.474 149.505 128.21 149.505H57.7898C56.5082 149.505 55.5 148.646 55.5 147.555V125.117" stroke="black" stroke-width="0.3125" stroke-miterlimit="10"/>
<path opacity="0.8" d="M99.5921 130.168H79.4154C78.566 130.168 77.8774 130.86 77.8774 131.714C77.8774 132.568 78.566 133.26 79.4154 133.26H99.5921C100.442 133.26 101.13 132.568 101.13 131.714C101.13 130.86 100.442 130.168 99.5921 130.168Z" fill="#2F4B62"/>
<path opacity="0.8" d="M119.884 135.656H79.1334C78.4398 135.656 77.8774 136.222 77.8774 136.919V136.923C77.8774 137.62 78.4398 138.186 79.1334 138.186H119.884C120.578 138.186 121.14 137.62 121.14 136.923V136.919C121.14 136.222 120.578 135.656 119.884 135.656Z" fill="#2F4B62"/>
<path opacity="0.8" d="M119.884 139.77H79.1334C78.4398 139.77 77.8774 140.335 77.8774 141.032V141.036C77.8774 141.734 78.4398 142.299 79.1334 142.299H119.884C120.578 142.299 121.14 141.734 121.14 141.036V141.032C121.14 140.335 120.578 139.77 119.884 139.77Z" fill="#2F4B62"/>
<path opacity="0.8" d="M65.552 137.49C65.9951 137.935 66.5959 138.185 67.2224 138.185C67.8489 138.185 68.4497 137.935 68.8928 137.49L70.2299 136.146L69.5592 135.472L68.2221 136.816C68.0902 136.948 67.9337 137.053 67.7615 137.125C67.5892 137.197 67.4046 137.234 67.2181 137.234C67.0317 137.234 66.8471 137.197 66.6748 137.125C66.5026 137.053 66.346 136.948 66.2142 136.816C66.0824 136.683 65.9778 136.526 65.9064 136.353C65.8351 136.18 65.7984 135.994 65.7984 135.807C65.7984 135.619 65.8351 135.434 65.9064 135.26C65.9778 135.087 66.0824 134.93 66.2142 134.797L67.5513 133.453L66.8849 132.783L65.5478 134.128C65.3281 134.348 65.1539 134.611 65.0352 134.899C64.9165 135.188 64.8556 135.497 64.856 135.81C64.8564 136.122 64.918 136.431 65.0375 136.72C65.1569 137.008 65.3318 137.27 65.552 137.49ZM72.9085 133.458C73.3515 133.012 73.6001 132.407 73.5997 131.777C73.5993 131.147 73.3499 130.543 72.9063 130.097C72.4628 129.652 71.8614 129.402 71.2345 129.402C70.6076 129.403 70.0065 129.653 69.5635 130.099L68.2263 131.444L68.8928 132.113L70.2299 130.769C70.4962 130.502 70.8573 130.351 71.2338 130.351C71.6104 130.351 71.9715 130.502 72.2378 130.769C72.504 131.037 72.6536 131.4 72.6536 131.778C72.6536 132.157 72.504 132.52 72.2378 132.788L70.9006 134.132L71.5671 134.802L72.9085 133.458Z" fill="#F7C5A8"/>
<path opacity="0.8" d="M67.5561 136.146L66.8896 135.472L70.9011 131.439L71.5718 132.109L67.5561 136.146Z" fill="#FDF3E8"/>
<path opacity="0.8" d="M66.8893 132.787L65.5522 134.131C65.1092 134.577 64.8604 135.181 64.8604 135.81C64.8604 136.44 65.1092 137.044 65.5522 137.489" stroke="black" stroke-width="0.3125" stroke-miterlimit="10"/>
<path opacity="0.8" d="M71.5674 134.802L72.9088 133.458C73.3497 133.011 73.5971 132.408 73.5971 131.779C73.5971 131.15 73.3497 130.546 72.9088 130.1" stroke="black" stroke-width="0.3125" stroke-miterlimit="10"/>
<path opacity="0.8" d="M67.5561 136.146L66.8896 135.472L70.9011 131.439" stroke="black" stroke-width="0.3125" stroke-miterlimit="10"/>
</g>
<g opacity="0.1">
<path opacity="0.8" fill-rule="evenodd" clip-rule="evenodd" d="M57.7898 153.658H128.21C129.491 153.658 130.5 154.517 130.5 155.612V178.05C130.5 179.128 129.474 180 128.21 180H57.7898C56.5082 180 55.5 179.141 55.5 178.05V155.612C55.5 154.534 56.5253 153.658 57.7898 153.658Z" fill="#456682"/>
<path opacity="0.8" d="M130.5 178.05C130.5 179.128 129.474 179.999 128.21 179.999H57.7898C56.5082 179.999 55.5 179.14 55.5 178.05V155.611" stroke="black" stroke-width="0.3125" stroke-miterlimit="10"/>
<path opacity="0.8" d="M99.5921 160.662H79.4154C78.566 160.662 77.8774 161.354 77.8774 162.208C77.8774 163.062 78.566 163.754 79.4154 163.754H99.5921C100.442 163.754 101.13 163.062 101.13 162.208C101.13 161.354 100.442 160.662 99.5921 160.662Z" fill="#2F4B62"/>
<path opacity="0.8" d="M119.884 166.15H79.1334C78.4398 166.15 77.8774 166.716 77.8774 167.413V167.417C77.8774 168.115 78.4398 168.68 79.1334 168.68H119.884C120.578 168.68 121.14 168.115 121.14 167.417V167.413C121.14 166.716 120.578 166.15 119.884 166.15Z" fill="#2F4B62"/>
<path opacity="0.8" d="M119.884 170.262H79.1334C78.4398 170.262 77.8774 170.827 77.8774 171.524V171.529C77.8774 172.226 78.4398 172.791 79.1334 172.791H119.884C120.578 172.791 121.14 172.226 121.14 171.529V171.524C121.14 170.827 120.578 170.262 119.884 170.262Z" fill="#2F4B62"/>
<path opacity="0.8" d="M65.552 167.982C65.9951 168.428 66.5959 168.678 67.2224 168.678C67.8489 168.678 68.4497 168.428 68.8928 167.982L70.2299 166.638L69.5592 165.964L68.2221 167.308C68.0902 167.441 67.9337 167.546 67.7615 167.617C67.5892 167.689 67.4046 167.726 67.2181 167.726C67.0317 167.726 66.8471 167.689 66.6748 167.617C66.5026 167.546 66.346 167.441 66.2142 167.308C66.0824 167.176 65.9778 167.018 65.9064 166.845C65.8351 166.672 65.7984 166.486 65.7984 166.299C65.7984 166.111 65.8351 165.926 65.9064 165.753C65.9778 165.58 66.0824 165.422 66.2142 165.29L67.5513 163.945L66.8849 163.276L65.5478 164.62C65.3281 164.841 65.1539 165.103 65.0352 165.392C64.9165 165.68 64.8556 165.99 64.856 166.302C64.8564 166.614 64.918 166.923 65.0375 167.212C65.1569 167.5 65.3318 167.762 65.552 167.982ZM72.9085 163.95C73.3515 163.504 73.6001 162.899 73.5997 162.269C73.5993 161.639 73.3499 161.035 72.9063 160.589C72.4628 160.144 71.8614 159.894 71.2345 159.895C70.6076 159.895 70.0065 160.146 69.5635 160.592L68.2263 161.936L68.8928 162.606L70.2299 161.261C70.4962 160.994 70.8573 160.843 71.2338 160.843C71.6104 160.843 71.9715 160.994 72.2378 161.261C72.504 161.529 72.6536 161.892 72.6536 162.271C72.6536 162.649 72.504 163.012 72.2378 163.28L70.9006 164.624L71.5671 165.294L72.9085 163.95Z" fill="#F7C5A8"/>
<path opacity="0.8" d="M67.5561 166.64L66.8896 165.966L70.9011 161.934L71.5718 162.604L67.5561 166.64Z" fill="#FDF3E8"/>
<path opacity="0.8" d="M66.8893 163.281L65.5522 164.625C65.1092 165.071 64.8604 165.675 64.8604 166.305C64.8604 166.934 65.1092 167.538 65.5522 167.984" stroke="black" stroke-width="0.3125" stroke-miterlimit="10"/>
<path opacity="0.8" d="M71.5674 165.296L72.9088 163.952C73.3497 163.506 73.5971 162.902 73.5971 162.273C73.5971 161.644 73.3497 161.04 72.9088 160.594" stroke="black" stroke-width="0.3125" stroke-miterlimit="10"/>
<path opacity="0.8" d="M67.5561 166.64L66.8896 165.966L70.9011 161.934" stroke="black" stroke-width="0.3125" stroke-miterlimit="10"/>
</g>
<g opacity="0.4">
<path opacity="0.8" fill-rule="evenodd" clip-rule="evenodd" d="M57.7898 92.1953H128.21C129.491 92.1953 130.5 93.0542 130.5 94.1493V116.588C130.5 117.665 129.474 118.537 128.21 118.537H57.7898C56.5082 118.537 55.5 117.678 55.5 116.588V94.1493C55.5 93.0714 56.5253 92.1953 57.7898 92.1953Z" fill="#456682"/>
<path opacity="0.8" d="M130.5 116.587C130.5 117.665 129.474 118.536 128.21 118.536H57.7898C56.5082 118.536 55.5 117.678 55.5 116.587V94.1484" stroke="black" stroke-width="0.3125" stroke-miterlimit="10"/>
<path opacity="0.8" d="M99.5921 99.1992H79.4154C78.566 99.1992 77.8774 99.8914 77.8774 100.745C77.8774 101.599 78.566 102.291 79.4154 102.291H99.5921C100.442 102.291 101.13 101.599 101.13 100.745C101.13 99.8914 100.442 99.1992 99.5921 99.1992Z" fill="#2F4B62"/>
<path opacity="0.8" d="M119.884 104.688H79.1334C78.4398 104.688 77.8774 105.253 77.8774 105.95V105.954C77.8774 106.652 78.4398 107.217 79.1334 107.217H119.884C120.578 107.217 121.14 106.652 121.14 105.954V105.95C121.14 105.253 120.578 104.688 119.884 104.688Z" fill="#2F4B62"/>
<path opacity="0.8" d="M119.884 108.799H79.1334C78.4398 108.799 77.8774 109.364 77.8774 110.061V110.066C77.8774 110.763 78.4398 111.328 79.1334 111.328H119.884C120.578 111.328 121.14 110.763 121.14 110.066V110.061C121.14 109.364 120.578 108.799 119.884 108.799Z" fill="#2F4B62"/>
<path opacity="0.8" d="M65.552 106.519C65.9951 106.965 66.5959 107.215 67.2224 107.215C67.8489 107.215 68.4497 106.965 68.8928 106.519L70.2299 105.175L69.5592 104.501L68.2221 105.845C68.0902 105.978 67.9337 106.083 67.7615 106.155C67.5892 106.226 67.4046 106.263 67.2181 106.263C67.0317 106.263 66.8471 106.226 66.6748 106.155C66.5026 106.083 66.346 105.978 66.2142 105.845C66.0824 105.713 65.9778 105.555 65.9064 105.382C65.8351 105.209 65.7984 105.023 65.7984 104.836C65.7984 104.649 65.8351 104.463 65.9064 104.29C65.9778 104.117 66.0824 103.959 66.2142 103.827L67.5513 102.483L66.8849 101.813L65.5478 103.157C65.3281 103.378 65.1539 103.64 65.0352 103.929C64.9165 104.217 64.8556 104.527 64.856 104.839C64.8564 105.151 64.918 105.461 65.0375 105.749C65.1569 106.037 65.3318 106.299 65.552 106.519ZM72.9085 102.487C73.3515 102.041 73.6001 101.436 73.5997 100.806C73.5993 100.176 73.3499 99.5719 72.9063 99.1265C72.4628 98.6812 71.8614 98.4312 71.2345 98.4316C70.6076 98.432 70.0065 98.6828 69.5635 99.1287L68.2263 100.473L68.8928 101.143L70.2299 99.7986C70.4962 99.5309 70.8573 99.3806 71.2338 99.3806C71.6104 99.3806 71.9715 99.5309 72.2378 99.7986C72.504 100.066 72.6536 100.429 72.6536 100.808C72.6536 101.186 72.504 101.549 72.2378 101.817L70.9006 103.161L71.5671 103.831L72.9085 102.487Z" fill="#F7C5A8"/>
<path opacity="0.8" d="M67.5561 105.175L66.8896 104.501L70.9011 100.469L71.5718 101.139L67.5561 105.175Z" fill="#FDF3E8"/>
<path opacity="0.8" d="M66.8893 101.818L65.5522 103.163C65.1092 103.608 64.8604 104.212 64.8604 104.842C64.8604 105.471 65.1092 106.075 65.5522 106.521" stroke="black" stroke-width="0.3125" stroke-miterlimit="10"/>
<path opacity="0.8" d="M71.5674 103.833L72.9088 102.489C73.3497 102.043 73.5971 101.439 73.5971 100.81C73.5971 100.181 73.3497 99.5773 72.9088 99.1309" stroke="black" stroke-width="0.3125" stroke-miterlimit="10"/>
<path opacity="0.8" d="M67.5561 105.175L66.8896 104.501L70.9011 100.469" stroke="black" stroke-width="0.3125" stroke-miterlimit="10"/>
</g>
<path fill-rule="evenodd" clip-rule="evenodd" d="M57.7898 61.4629H128.21C129.491 61.4629 130.5 62.3218 130.5 63.4169V85.8552C130.5 86.9331 129.474 87.8048 128.21 87.8048H57.7898C56.5082 87.8048 55.5 86.9459 55.5 85.8552V63.4169C55.5 62.339 56.5253 61.4629 57.7898 61.4629Z" fill="#456682"/>
<path opacity="0.8" d="M130.5 85.8563C130.5 86.9342 129.474 87.8059 128.21 87.8059H57.7898C56.5082 87.8059 55.5 86.9471 55.5 85.8563V63.418" stroke="black" stroke-width="0.3125" stroke-miterlimit="10"/>
<path opacity="0.8" d="M99.5921 68.4688H79.4154C78.566 68.4688 77.8774 69.1609 77.8774 70.0147C77.8774 70.8686 78.566 71.5607 79.4154 71.5607H99.5921C100.442 71.5607 101.13 70.8686 101.13 70.0147C101.13 69.1609 100.442 68.4688 99.5921 68.4688Z" fill="#2F4B62"/>
<path opacity="0.8" d="M119.797 74.0059H80.4221C79.7518 74.0059 79.2085 74.5665 79.2085 75.2581V75.2623C79.2085 75.9539 79.7518 76.5146 80.4221 76.5146H119.797C120.467 76.5146 121.01 75.9539 121.01 75.2623V75.2581C121.01 74.5665 120.467 74.0059 119.797 74.0059Z" fill="#2F4B62"/>
<path opacity="0.8" d="M119.797 77.7695H80.4221C79.7518 77.7695 79.2085 78.3302 79.2085 79.0218V79.026C79.2085 79.7176 79.7518 80.2782 80.4221 80.2782H119.797C120.467 80.2782 121.01 79.7176 121.01 79.026V79.0218C121.01 78.3302 120.467 77.7695 119.797 77.7695Z" fill="#2F4B62"/>
<path opacity="0.8" d="M63.4558 80.4383C64.1515 81.1375 65.095 81.5303 66.0788 81.5303C67.0625 81.5303 68.006 81.1375 68.7017 80.4383L70.8014 78.3276L69.7482 77.2688L67.6485 79.3795C67.4415 79.5876 67.1957 79.7527 66.9252 79.8653C66.6547 79.978 66.3648 80.0359 66.0721 80.0359C65.7793 80.0359 65.4894 79.978 65.2189 79.8653C64.9484 79.7527 64.7027 79.5876 64.4956 79.3795C64.2886 79.1714 64.1244 78.9244 64.0123 78.6525C63.9003 78.3806 63.8426 78.0891 63.8426 77.7948C63.8426 77.5005 63.9003 77.2091 64.0123 76.9372C64.1244 76.6653 64.2886 76.4182 64.4956 76.2101L66.5953 74.0994L65.5488 73.0474L63.4491 75.1581C63.1041 75.505 62.8306 75.9168 62.6442 76.3701C62.4578 76.8234 62.3622 77.3091 62.3628 77.7996C62.3634 78.2901 62.4603 78.7756 62.6478 79.2284C62.8354 79.6812 63.11 80.0923 63.4558 80.4383ZM75.0075 74.1062C75.7031 73.406 76.0936 72.4567 76.0929 71.4671C76.0923 70.4775 75.7006 69.5287 75.0041 68.8294C74.3076 68.1301 73.3632 67.7376 72.3788 67.7383C71.3944 67.7389 70.4506 68.1326 69.7549 68.8328L67.6552 70.9435L68.7017 71.9955L70.8014 69.8848C71.2195 69.4645 71.7866 69.2284 72.3778 69.2284C72.9691 69.2284 73.5362 69.4645 73.9543 69.8848C74.3724 70.3051 74.6073 70.8751 74.6073 71.4695C74.6073 72.0639 74.3724 72.6339 73.9543 73.0542L71.8546 75.1649L72.9011 76.2169L75.0075 74.1062Z" fill="#F7C5A8"/>
<path opacity="0.8" d="M66.6022 78.3322L65.5557 77.2735L71.8547 70.9414L72.9079 71.9934L66.6022 78.3322Z" fill="#FDF3E8"/>
<path opacity="0.8" d="M65.5556 73.0566L63.456 75.1673C62.7604 75.8667 62.3696 76.8151 62.3696 77.804C62.3696 78.7929 62.7604 79.7414 63.456 80.4407" stroke="black" stroke-width="0.3125" stroke-miterlimit="10"/>
<path opacity="0.8" d="M72.9019 76.22L75.0082 74.1093C75.7005 73.4082 76.0891 72.4605 76.0891 71.4726C76.0891 70.4848 75.7005 69.537 75.0082 68.8359" stroke="black" stroke-width="0.3125" stroke-miterlimit="10"/>
<path opacity="0.8" d="M66.6022 78.3322L65.5557 77.2735L71.8547 70.9414" stroke="black" stroke-width="0.3125" stroke-miterlimit="10"/>
<g opacity="0.4">
<path opacity="0.8" fill-rule="evenodd" clip-rule="evenodd" d="M57.7898 30.7324H128.21C129.491 30.7324 130.5 31.5913 130.5 32.6864V55.1247C130.5 56.2026 129.474 57.0743 128.21 57.0743H57.7898C56.5082 57.0743 55.5 56.2155 55.5 55.1247V32.6864C55.5 31.6085 56.5253 30.7324 57.7898 30.7324Z" fill="#456682"/>
<path opacity="0.8" d="M130.5 55.1239C130.5 56.2017 129.474 57.0735 128.21 57.0735H57.7898C56.5082 57.0735 55.5 56.2146 55.5 55.1239V32.6855" stroke="black" stroke-width="0.3125" stroke-miterlimit="10"/>
<path opacity="0.8" d="M99.5921 37.7363H79.4154C78.566 37.7363 77.8774 38.4285 77.8774 39.2823C77.8774 40.1361 78.566 40.8283 79.4154 40.8283H99.5921C100.442 40.8283 101.13 40.1361 101.13 39.2823C101.13 38.4285 100.442 37.7363 99.5921 37.7363Z" fill="#2F4B62"/>
<path opacity="0.8" d="M119.884 43.2246H79.1334C78.4398 43.2246 77.8774 43.7899 77.8774 44.4872V44.4915C77.8774 45.1888 78.4398 45.754 79.1334 45.754H119.884C120.578 45.754 121.14 45.1888 121.14 44.4915V44.4872C121.14 43.7899 120.578 43.2246 119.884 43.2246Z" fill="#2F4B62"/>
<path opacity="0.8" d="M119.884 47.3359H79.1334C78.4398 47.3359 77.8774 47.9012 77.8774 48.5985V48.6028C77.8774 49.3001 78.4398 49.8653 79.1334 49.8653H119.884C120.578 49.8653 121.14 49.3001 121.14 48.6028V48.5985C121.14 47.9012 120.578 47.3359 119.884 47.3359Z" fill="#2F4B62"/>
<path opacity="0.8" d="M65.552 45.0565C65.9951 45.5018 66.5959 45.7519 67.2224 45.7519C67.8489 45.7519 68.4497 45.5018 68.8928 45.0565L70.2299 43.7123L69.5592 43.0381L68.2221 44.3822C68.0902 44.5148 67.9337 44.6199 67.7615 44.6916C67.5892 44.7634 67.4046 44.8003 67.2181 44.8003C67.0317 44.8003 66.8471 44.7634 66.6748 44.6916C66.5026 44.6199 66.346 44.5148 66.2142 44.3822C66.0824 44.2497 65.9778 44.0924 65.9064 43.9192C65.8351 43.7461 65.7984 43.5605 65.7984 43.3731C65.7984 43.1856 65.8351 43 65.9064 42.8269C65.9778 42.6537 66.0824 42.4964 66.2142 42.3639L67.5513 41.0197L66.8849 40.3498L65.5478 41.6939C65.3281 41.9148 65.1539 42.1771 65.0352 42.4658C64.9165 42.7544 64.8556 43.0638 64.856 43.3761C64.8564 43.6884 64.918 43.9976 65.0375 44.286C65.1569 44.5743 65.3318 44.8362 65.552 45.0565ZM72.9085 41.024C73.3515 40.5781 73.6001 39.9736 73.5997 39.3434C73.5993 38.7132 73.3499 38.109 72.9063 37.6636C72.4628 37.2183 71.8614 36.9683 71.2345 36.9688C70.6076 36.9692 70.0065 37.2199 69.5635 37.6658L68.2263 39.0099L68.8928 39.6799L70.2299 38.3357C70.4962 38.0681 70.8573 37.9177 71.2338 37.9177C71.6104 37.9177 71.9715 38.0681 72.2378 38.3357C72.504 38.6034 72.6536 38.9664 72.6536 39.3449C72.6536 39.7234 72.504 40.0864 72.2378 40.3541L70.9006 41.6982L71.5671 42.3682L72.9085 41.024Z" fill="#F7C5A8"/>
<path opacity="0.8" d="M67.5561 43.7125L66.8896 43.0383L70.9011 39.0059L71.5718 39.6758L67.5561 43.7125Z" fill="#FDF3E8"/>
<path opacity="0.8" d="M66.8893 40.3555L65.5522 41.6996C65.1092 42.145 64.8604 42.749 64.8604 43.3787C64.8604 44.0085 65.1092 44.6125 65.5522 45.0579" stroke="black" stroke-width="0.3125" stroke-miterlimit="10"/>
<path opacity="0.8" d="M71.5674 42.3704L72.9088 41.0262C73.3497 40.5797 73.5971 39.9762 73.5971 39.3471C73.5971 38.718 73.3497 38.1144 72.9088 37.668" stroke="black" stroke-width="0.3125" stroke-miterlimit="10"/>
<path opacity="0.8" d="M67.5561 43.7125L66.8896 43.0383L70.9011 39.0059" stroke="black" stroke-width="0.3125" stroke-miterlimit="10"/>
</g>
<g opacity="0.1">
<path opacity="0.8" fill-rule="evenodd" clip-rule="evenodd" d="M57.7903 0H128.21C129.492 0 130.5 0.85889 130.5 1.95397V24.3923C130.5 25.4702 129.475 26.3419 128.21 26.3419H57.7903C56.5087 26.3419 55.5005 25.483 55.5005 24.3923V1.95397C55.5005 0.876068 56.5258 0 57.7903 0Z" fill="#456682"/>
<path opacity="0.8" d="M130.5 24.3914C130.5 25.4693 129.474 26.3411 128.21 26.3411H57.7898C56.5082 26.3411 55.5 25.4822 55.5 24.3914V1.95312" stroke="black" stroke-width="0.3125" stroke-miterlimit="10"/>
<path opacity="0.8" d="M99.5921 7.00391H79.4154C78.566 7.00391 77.8774 7.69607 77.8774 8.5499C77.8774 9.40372 78.566 10.0959 79.4154 10.0959H99.5921C100.442 10.0959 101.13 9.40372 101.13 8.5499C101.13 7.69607 100.442 7.00391 99.5921 7.00391Z" fill="#2F4B62"/>
<path opacity="0.8" d="M119.884 12.4922H79.1334C78.4398 12.4922 77.8774 13.0575 77.8774 13.7547V13.759C77.8774 14.4563 78.4398 15.0216 79.1334 15.0216H119.884C120.578 15.0216 121.14 14.4563 121.14 13.759V13.7547C121.14 13.0575 120.578 12.4922 119.884 12.4922Z" fill="#2F4B62"/>
<path opacity="0.8" d="M119.884 16.6035H79.1334C78.4398 16.6035 77.8774 17.1688 77.8774 17.8661V17.8704C77.8774 18.5677 78.4398 19.1329 79.1334 19.1329H119.884C120.578 19.1329 121.14 18.5677 121.14 17.8704V17.8661C121.14 17.1688 120.578 16.6035 119.884 16.6035Z" fill="#2F4B62"/>
<path opacity="0.8" d="M65.552 14.3241C65.9951 14.7693 66.5959 15.0195 67.2224 15.0195C67.8489 15.0195 68.4497 14.7693 68.8928 14.3241L70.2299 12.9799L69.5592 12.3057L68.2221 13.6498C68.0902 13.7824 67.9337 13.8875 67.7615 13.9592C67.5892 14.0309 67.4046 14.0678 67.2181 14.0678C67.0317 14.0678 66.8471 14.0309 66.6748 13.9592C66.5026 13.8875 66.346 13.7824 66.2142 13.6498C66.0824 13.5173 65.9778 13.36 65.9064 13.1868C65.8351 13.0137 65.7984 12.8281 65.7984 12.6406C65.7984 12.4532 65.8351 12.2676 65.9064 12.0945C65.9778 11.9213 66.0824 11.764 66.2142 11.6314L67.5513 10.2873L66.8849 9.61737L65.5478 10.9615C65.3281 11.1824 65.1539 11.4447 65.0352 11.7333C64.9165 12.022 64.8556 12.3313 64.856 12.6437C64.8564 12.956 64.918 13.2652 65.0375 13.5536C65.1569 13.8419 65.3318 14.1037 65.552 14.3241ZM72.9085 10.2916C73.3515 9.84569 73.6001 9.24115 73.5997 8.61095C73.5993 7.98076 73.3499 7.37654 72.9063 6.93121C72.4628 6.48588 71.8614 6.23593 71.2345 6.23633C70.6076 6.23673 70.0065 6.48746 69.5635 6.93336L68.2263 8.27751L68.8928 8.94744L70.2299 7.60329C70.4962 7.33563 70.8573 7.18527 71.2338 7.18527C71.6104 7.18527 71.9715 7.33563 72.2378 7.60329C72.504 7.87094 72.6536 8.23396 72.6536 8.61247C72.6536 8.99099 72.504 9.35401 72.2378 9.62166L70.9006 10.9658L71.5671 11.6357L72.9085 10.2916Z" fill="#F7C5A8"/>
<path opacity="0.8" d="M67.5556 12.9821L66.8892 12.3079L70.9006 8.27539L71.5713 8.94533L67.5556 12.9821Z" fill="#FDF3E8"/>
<path opacity="0.8" d="M66.8893 9.62305L65.5522 10.9672C65.1092 11.4126 64.8604 12.0165 64.8604 12.6463C64.8604 13.2761 65.1092 13.8801 65.5522 14.3254" stroke="black" stroke-width="0.3125" stroke-miterlimit="10"/>
<path opacity="0.8" d="M71.5674 11.6379L72.9088 10.2938C73.3497 9.84732 73.5971 9.24375 73.5971 8.61466C73.5971 7.98558 73.3497 7.38201 72.9088 6.93555" stroke="black" stroke-width="0.3125" stroke-miterlimit="10"/>
<path opacity="0.8" d="M67.5556 12.9821L66.8892 12.3079L70.9006 8.27539" stroke="black" stroke-width="0.3125" stroke-miterlimit="10"/>
</g>
<path fill-rule="evenodd" clip-rule="evenodd" d="M51.9764 103.832C67.6503 113.586 88.3976 109.479 99.1141 94.1742C110.201 78.34 106.353 56.5159 90.519 45.4287C74.6848 34.3415 52.8607 38.1897 41.7735 54.0238C30.8715 69.5935 34.41 90.9545 49.585 102.205L27.9833 133.055L30.3523 134.714L51.9764 103.832Z" fill="#8CA6AD"/>
<mask id="path-62-inside-1" fill="white">
<path fill-rule="evenodd" clip-rule="evenodd" d="M64.5116 108.434C45.5488 105.157 32.8324 87.1291 36.1086 68.1664L35.8007 68.1132C33.3015 82.5784 40.0257 96.5047 51.7237 103.867L30.9961 134.287L31.2543 134.463L51.9891 104.033C55.6991 106.321 59.8999 107.954 64.4584 108.741C83.5912 112.047 101.781 99.2166 105.087 80.0838L104.779 80.0306C101.503 98.9933 83.4743 111.71 64.5116 108.434Z"/>
</mask>
<path d="M36.1086 68.1664L36.4165 68.2196L36.4697 67.9116L36.1618 67.8584L36.1086 68.1664ZM64.5116 108.434L64.5648 108.126L64.5116 108.434ZM35.8007 68.1132L35.8539 67.8052L35.5459 67.752L35.4927 68.06L35.8007 68.1132ZM51.7237 103.867L51.982 104.043L52.1644 103.775L51.8902 103.603L51.7237 103.867ZM30.9961 134.287L30.7378 134.111L30.5619 134.369L30.8201 134.545L30.9961 134.287ZM31.2543 134.463L31.0784 134.721L31.3366 134.897L31.5126 134.639L31.2543 134.463ZM51.9891 104.033L52.1532 103.767L51.8991 103.61L51.7309 103.857L51.9891 104.033ZM64.4584 108.741L64.4051 109.049L64.4584 108.741ZM105.087 80.0838L105.395 80.137L105.448 79.8291L105.14 79.7758L105.087 80.0838ZM104.779 80.0306L104.832 79.7226L104.524 79.6694L104.471 79.9774L104.779 80.0306ZM35.8007 68.1132C32.4951 87.246 45.3255 105.436 64.4584 108.741L64.5648 108.126C45.7721 104.879 33.1697 87.0122 36.4165 68.2196L35.8007 68.1132ZM35.7474 68.4211L36.0554 68.4743L36.1618 67.8584L35.8539 67.8052L35.7474 68.4211ZM51.8902 103.603C40.2956 96.3053 33.6317 82.5026 36.1086 68.1664L35.4927 68.06C32.9712 82.6543 39.7558 96.7041 51.5572 104.132L51.8902 103.603ZM31.2543 134.463L51.982 104.043L51.4655 103.691L30.7378 134.111L31.2543 134.463ZM31.4303 134.205L31.1721 134.029L30.8201 134.545L31.0784 134.721L31.4303 134.205ZM51.7309 103.857L30.9961 134.287L31.5126 134.639L52.2474 104.209L51.7309 103.857ZM64.5116 108.434C59.993 107.653 55.8298 106.035 52.1532 103.767L51.8251 104.299C55.5684 106.608 59.8067 108.255 64.4051 109.049L64.5116 108.434ZM104.779 80.0306C101.503 98.9933 83.4743 111.71 64.5116 108.434L64.4051 109.049C83.708 112.384 102.06 99.4399 105.395 80.137L104.779 80.0306ZM104.726 80.3385L105.033 80.3917L105.14 79.7758L104.832 79.7226L104.726 80.3385ZM64.4584 108.741C83.5912 112.047 101.781 99.2166 105.087 80.0838L104.471 79.9774C101.224 98.7701 83.3574 111.372 64.5648 108.126L64.4584 108.741Z" fill="black" mask="url(#path-62-inside-1)"/>
<rect x="41.5854" y="106.25" width="11.2705" height="32.4027" rx="5.63525" transform="rotate(35 41.5854 106.25)" fill="#F7C5A8"/>
<path d="M27.6164 136.025V136.025C30.1658 137.81 33.6797 137.19 35.4648 134.641L41.5118 126.005C41.5208 125.992 41.528 125.982 41.537 125.969C41.8164 125.573 46.979 118.244 48.0069 116.531C49.0635 114.77 48.7175 111.18 46.6039 109.772C46.2518 109.537 45.5473 109.066 44.843 108.714" stroke="black" stroke-width="0.3125"/>
<mask id="mask0" mask-type="alpha" maskUnits="userSpaceOnUse" x="39" y="42" width="63" height="64">
<circle cx="70.4949" cy="74.0638" r="31.2552" fill="#C4C4C4"/>
</mask>
<g mask="url(#mask0)">
<circle cx="70.4949" cy="74.0638" r="31.2552" fill="white"/>
<g opacity="0.4">
<path opacity="0.8" fill-rule="evenodd" clip-rule="evenodd" d="M49.4676 95.9219H135.596C137.163 95.9219 138.396 96.9669 138.396 98.2992V125.6C138.396 126.911 137.142 127.972 135.596 127.972H49.4676C47.9001 127.972 46.667 126.927 46.667 125.6V98.2992C46.667 96.9878 47.921 95.9219 49.4676 95.9219Z" fill="#456682"/>
<path opacity="0.8" d="M138.396 125.599C138.396 126.911 137.142 127.971 135.596 127.971H49.4676C47.9001 127.971 46.667 126.926 46.667 125.599V98.2988" stroke="black" stroke-width="0.3125" stroke-miterlimit="10"/>
<path opacity="0.8" d="M100.594 104.445H75.9166C74.8778 104.445 74.0356 105.287 74.0356 106.326C74.0356 107.365 74.8778 108.207 75.9166 108.207H100.594C101.633 108.207 102.475 107.365 102.475 106.326C102.475 105.287 101.633 104.445 100.594 104.445Z" fill="#2F4B62"/>
<path opacity="0.8" d="M58.9617 113.352C59.5036 113.894 60.2384 114.198 61.0047 114.198C61.7709 114.198 62.5058 113.894 63.0476 113.352L64.683 111.717L63.8627 110.896L62.2273 112.532C62.0661 112.693 61.8746 112.821 61.664 112.908C61.4533 112.995 61.2275 113.04 60.9994 113.04C60.7714 113.04 60.5456 112.995 60.3349 112.908C60.1243 112.821 59.9328 112.693 59.7716 112.532C59.6103 112.37 59.4824 112.179 59.3952 111.968C59.3079 111.758 59.263 111.532 59.263 111.304C59.263 111.076 59.3079 110.85 59.3952 110.639C59.4824 110.429 59.6103 110.237 59.7716 110.076L61.407 108.44L60.5919 107.625L58.9565 109.261C58.6878 109.53 58.4747 109.849 58.3295 110.2C58.1843 110.551 58.1099 110.927 58.1104 111.307C58.1108 111.687 58.1863 112.064 58.3324 112.414C58.4785 112.765 58.6923 113.084 58.9617 113.352ZM67.9591 108.446C68.5009 107.903 68.805 107.168 68.8045 106.401C68.804 105.634 68.499 104.899 67.9565 104.357C67.4139 103.815 66.6784 103.511 65.9117 103.512C65.1449 103.512 64.4098 103.817 63.8679 104.36L62.2325 105.995L63.0476 106.81L64.683 105.175C65.0087 104.849 65.4504 104.666 65.9109 104.666C66.3714 104.666 66.8131 104.849 67.1387 105.175C67.4644 105.501 67.6474 105.942 67.6474 106.403C67.6474 106.863 67.4644 107.305 67.1387 107.631L65.5034 109.266L66.3184 110.081L67.9591 108.446Z" fill="#F7C5A8"/>
<path opacity="0.8" d="M66.3184 110.081L67.959 108.445C68.4982 107.902 68.8008 107.168 68.8008 106.402C68.8008 105.637 68.4982 104.903 67.959 104.359" stroke="black" stroke-width="0.3125" stroke-miterlimit="10"/>
</g>
<path fill-rule="evenodd" clip-rule="evenodd" d="M49.4681 58.5312H135.596C137.164 58.5312 138.397 59.5762 138.397 60.9086V88.209C138.397 89.5204 137.143 90.5811 135.596 90.5811H49.4681C47.9006 90.5811 46.6675 89.5361 46.6675 88.209V60.9086C46.6675 59.5971 47.9215 58.5312 49.4681 58.5312Z" fill="#456682"/>
<path opacity="0.8" d="M138.396 88.2086C138.396 89.52 137.142 90.5807 135.596 90.5807H49.4676C47.9001 90.5807 46.667 89.5357 46.667 88.2086V60.9082" stroke="black" stroke-width="0.3125" stroke-miterlimit="10"/>
<path opacity="0.8" d="M100.594 67.0527H75.9166C74.8778 67.0527 74.0356 67.8949 74.0356 68.9337C74.0356 69.9726 74.8778 70.8147 75.9166 70.8147H100.594C101.633 70.8147 102.475 69.9726 102.475 68.9337C102.475 67.8949 101.633 67.0527 100.594 67.0527Z" fill="#2F4B62"/>
<path opacity="0.8" d="M125.306 73.793H77.1483C76.3286 73.793 75.6641 74.4751 75.6641 75.3165V75.3217C75.6641 76.1632 76.3286 76.8453 77.1483 76.8453H125.306C126.126 76.8453 126.79 76.1632 126.79 75.3217V75.3165C126.79 74.4751 126.126 73.793 125.306 73.793Z" fill="#2F4B62"/>
<path opacity="0.8" d="M125.306 78.3711H77.1483C76.3286 78.3711 75.6641 79.0532 75.6641 79.8947V79.8998C75.6641 80.7413 76.3286 81.4234 77.1483 81.4234H125.306C126.126 81.4234 126.79 80.7413 126.79 79.8998V79.8947C126.79 79.0532 126.126 78.3711 125.306 78.3711Z" fill="#2F4B62"/>
<path opacity="0.8" d="M56.3979 81.6198C57.2488 82.4706 58.4027 82.9485 59.6059 82.9485C60.8091 82.9485 61.9631 82.4706 62.8139 81.6198L65.382 79.0518L64.0938 77.7637L61.5258 80.3317C61.2726 80.5849 60.972 80.7858 60.6412 80.9228C60.3104 81.0598 59.9558 81.1303 59.5977 81.1303C59.2396 81.1303 58.8851 81.0598 58.5542 80.9228C58.2234 80.7858 57.9228 80.5849 57.6696 80.3317C57.4164 80.0785 57.2156 79.7779 57.0785 79.4471C56.9415 79.1163 56.871 78.7617 56.871 78.4036C56.871 78.0455 56.9415 77.691 57.0785 77.3601C57.2156 77.0293 57.4164 76.7287 57.6696 76.4755L60.2377 73.9075L58.9577 72.6276L56.3897 75.1956C55.9678 75.6176 55.6332 76.1187 55.4052 76.6702C55.1772 77.2217 55.0603 77.8127 55.061 78.4094C55.0618 79.0062 55.1803 79.5969 55.4097 80.1478C55.6391 80.6987 55.9749 81.1989 56.3979 81.6198ZM70.5263 73.9157C71.3771 73.0638 71.8546 71.9088 71.8538 70.7048C71.8531 69.5008 71.3741 68.3464 70.5222 67.4956C69.6702 66.6447 68.5153 66.1672 67.3113 66.168C66.1073 66.1687 64.9529 66.6478 64.102 67.4997L61.534 70.0677L62.8139 71.3476L65.382 68.7796C65.8933 68.2682 66.5869 67.981 67.3101 67.981C68.0332 67.981 68.7268 68.2682 69.2381 68.7796C69.7495 69.2909 70.0368 69.9845 70.0368 70.7077C70.0368 71.4309 69.7495 72.1244 69.2381 72.6358L66.6701 75.2038L67.95 76.4837L70.5263 73.9157Z" fill="#F7C5A8"/>
<path opacity="0.8" d="M60.2457 79.0528L58.9658 77.7647L66.67 70.0605L67.9581 71.3405L60.2457 79.0528Z" fill="#FDF3E8"/>
<path opacity="0.8" d="M58.966 72.6348L56.398 75.2028C55.5472 76.0537 55.0693 77.2076 55.0693 78.4108C55.0693 79.614 55.5472 80.768 56.398 81.6188" stroke="black" stroke-width="0.3125" stroke-miterlimit="10"/>
<path opacity="0.8" d="M67.9502 76.4841L70.5264 73.916C71.3732 73.063 71.8483 71.9099 71.8483 70.708C71.8483 69.5061 71.3732 68.353 70.5264 67.5" stroke="black" stroke-width="0.3125" stroke-miterlimit="10"/>
<path opacity="0.8" d="M60.2457 79.0528L58.9658 77.7647L66.67 70.0605" stroke="black" stroke-width="0.3125" stroke-miterlimit="10"/>
<g opacity="0.4">
<path opacity="0.8" fill-rule="evenodd" clip-rule="evenodd" d="M49.4681 21.1406H135.596C137.164 21.1406 138.397 22.1856 138.397 23.518V50.8184C138.397 52.1298 137.143 53.1905 135.596 53.1905H49.4681C47.9006 53.1905 46.6675 52.1455 46.6675 50.8184V23.518C46.6675 22.2065 47.9215 21.1406 49.4681 21.1406Z" fill="#456682"/>
<path opacity="0.8" d="M138.396 50.8179C138.396 52.1294 137.142 53.1901 135.596 53.1901H49.4676C47.9001 53.1901 46.667 52.1451 46.667 50.8179V23.5176" stroke="black" stroke-width="0.3125" stroke-miterlimit="10"/>
<path opacity="0.8" d="M125.413 41.3438H75.5718C74.7234 41.3438 74.0356 42.0315 74.0356 42.8799V42.8851C74.0356 43.7335 74.7234 44.4212 75.5718 44.4212H125.413C126.261 44.4212 126.949 43.7335 126.949 42.8851V42.8799C126.949 42.0315 126.261 41.3438 125.413 41.3438Z" fill="#2F4B62"/>
</g>
</g>
<g clip-path="url(#clip0)">
<path d="M137.497 165.267C147.744 165.267 156.051 156.866 156.051 146.504C156.051 136.141 147.744 127.74 137.497 127.74C127.25 127.74 118.943 136.141 118.943 146.504C118.943 156.866 127.25 165.267 137.497 165.267Z" fill="#F7C5A8"/>
<path d="M137.497 165.267C147.744 165.267 156.051 156.866 156.051 146.504C156.051 136.141 147.744 127.74 137.497 127.74C127.25 127.74 118.943 136.141 118.943 146.504C118.943 156.866 127.25 165.267 137.497 165.267Z" stroke="black" stroke-width="0.5" stroke-miterlimit="10"/>
<path d="M144.242 123H130.751V170H144.242V123Z" fill="#F7C5A8"/>
<path d="M120.742 128.846L113.997 140.66L154.246 164.16L160.991 152.346L120.742 128.846Z" fill="#F7C5A8"/>
<path d="M114.004 152.349L120.749 164.164L160.997 140.664L154.252 128.849L114.004 152.349Z" fill="#F7C5A8"/>
<path d="M137.497 151.196C140.059 151.196 142.137 149.095 142.137 146.503C142.137 143.911 140.059 141.811 137.497 141.811C134.934 141.811 132.856 143.911 132.856 146.503C132.856 149.095 134.934 151.196 137.497 151.196Z" fill="#FDF3E8"/>
<path d="M132.83 146.503C132.83 145.259 133.318 144.065 134.189 143.185C135.059 142.305 136.239 141.811 137.47 141.811" stroke="black" stroke-width="0.5" stroke-miterlimit="10"/>
</g>
<defs>
<clipPath id="clip0">
<rect width="47" height="47" fill="white" transform="translate(114 123)"/>
</clipPath>
</defs>
</svg>
