<svg width="107" height="51" viewBox="0 0 107 51" fill="none" 
  xmlns="http://www.w3.org/2000/svg">
  <path fill-rule="evenodd" clip-rule="evenodd" d="M46.1505 26.9639C46.1505 25.8682 45.3261 25.0229 44.2583 25.0229C43.1938 25.0229 42.3662 25.8682 42.3662 26.9639C42.3662 28.0595 43.1938 28.9046 44.2583 28.9046C45.3264 28.9046 46.1505 28.0595 46.1505 26.9639ZM41.2612 26.9639C41.2612 25.2615 42.5542 23.9766 44.2583 23.9766C45.9616 23.9766 47.2554 25.2618 47.2554 26.9639C47.2554 28.6663 45.9616 29.9509 44.2583 29.9509C42.5542 29.9509 41.2612 28.6663 41.2612 26.9639ZM52.336 25.91C52.336 25.3757 52.0033 25.0039 51.3675 25.0039H50.392C50.343 25.0039 50.296 25.0239 50.2613 25.0594C50.2267 25.095 50.2072 25.1432 50.2072 25.1934V26.6156C50.2072 26.72 50.2902 26.8046 50.392 26.8046H51.3675C52.0035 26.8046 52.336 26.4674 52.336 25.91ZM53.4041 25.9212C53.4041 26.9678 52.672 27.7599 51.5341 27.7599H50.392C50.343 27.7599 50.296 27.7799 50.2613 27.8154C50.2267 27.851 50.2072 27.8992 50.2072 27.9495V29.686C50.2072 29.7109 50.2025 29.7355 50.1933 29.7585C50.184 29.7814 50.1704 29.8023 50.1533 29.8199C50.1362 29.8374 50.1159 29.8514 50.0935 29.8609C50.0711 29.8704 50.0472 29.8753 50.0229 29.8753H49.2906C49.2663 29.8754 49.2423 29.8705 49.2199 29.861C49.1975 29.8515 49.1771 29.8376 49.1599 29.82C49.1428 29.8024 49.1292 29.7815 49.1199 29.7585C49.1106 29.7356 49.1058 29.7109 49.1058 29.686V24.2417C49.1058 24.1373 49.1885 24.0524 49.2906 24.0524H51.5341C52.6723 24.0524 53.4038 24.8902 53.4038 25.9214L53.4041 25.9212ZM56.2895 25.2466V26.2815C56.2895 26.386 56.3717 26.4711 56.4741 26.4711H58.1186C58.2207 26.4711 58.3034 26.5556 58.3034 26.6606V27.275C58.3034 27.3252 58.284 27.3735 58.2493 27.409C58.2147 27.4446 58.1677 27.4645 58.1186 27.4645H56.4741C56.4498 27.4645 56.4258 27.4693 56.4034 27.4788C56.381 27.4883 56.3607 27.5022 56.3435 27.5198C56.3264 27.5373 56.3127 27.5582 56.3034 27.5811C56.2941 27.6041 56.2893 27.6287 56.2893 27.6535V28.6811C56.2893 28.7858 56.3717 28.8707 56.4741 28.8707H58.3924C58.4942 28.8707 58.5769 28.9555 58.5769 29.0597V29.6858C58.5769 29.736 58.5575 29.7842 58.5229 29.8197C58.4883 29.8552 58.4414 29.8752 58.3924 29.8753H55.3724C55.3481 29.8753 55.3241 29.8704 55.3017 29.8609C55.2793 29.8514 55.259 29.8374 55.2418 29.8198C55.2247 29.8022 55.2111 29.7813 55.2018 29.7583C55.1926 29.7353 55.1878 29.7106 55.1879 29.6858V24.2417C55.1879 24.1373 55.2706 24.0527 55.3724 24.0527H58.3922C58.494 24.0527 58.5767 24.1373 58.5767 24.2417V24.8675C58.5767 24.9177 58.5572 24.9659 58.5226 25.0015C58.488 25.037 58.4411 25.057 58.3922 25.0571H56.4738C56.4248 25.0571 56.3778 25.0771 56.3431 25.1126C56.3085 25.1482 56.289 25.1964 56.289 25.2466H56.2895ZM65.9266 24.2417V29.6858C65.9266 29.736 65.9072 29.7843 65.8725 29.8198C65.8379 29.8554 65.7909 29.8753 65.7418 29.8753H64.9732C64.9454 29.8754 64.9179 29.8689 64.8928 29.8565C64.8678 29.8441 64.8458 29.826 64.8285 29.8036L61.9761 26.1289C61.8669 25.9889 61.6472 26.0676 61.6472 26.2471V29.6858C61.6472 29.736 61.6277 29.7843 61.5931 29.8198C61.5584 29.8554 61.5114 29.8753 61.4624 29.8753H60.7453C60.6964 29.8752 60.6494 29.8552 60.6148 29.8197C60.5802 29.7842 60.5608 29.736 60.5608 29.6858V24.2417C60.5608 24.1373 60.6432 24.0524 60.7453 24.0524H61.5066C61.5628 24.0524 61.6158 24.0788 61.6507 24.1236L64.504 27.7851C64.6129 27.9251 64.8329 27.8462 64.8329 27.6675V24.2414C64.8329 24.137 64.9151 24.0522 65.0171 24.0522H65.7418C65.8437 24.0522 65.9266 24.137 65.9266 24.2414V24.2417ZM47.2551 36.9924C47.2551 38.702 45.9657 39.987 44.2583 39.987C42.5542 39.987 41.2612 38.7018 41.2612 36.9999C41.2612 35.2975 42.5542 34.0129 44.2583 34.0129C45.2382 34.0129 46.0833 34.4402 46.6205 35.1231C46.6377 35.1447 46.6501 35.1699 46.6568 35.197C46.6635 35.224 46.6643 35.2523 46.6592 35.2797C46.6541 35.3071 46.6432 35.333 46.6273 35.3556C46.6113 35.3783 46.5908 35.397 46.567 35.4106L45.9337 35.7693C45.8973 35.7906 45.8549 35.7985 45.8136 35.7916C45.7722 35.7847 45.7344 35.7635 45.7064 35.7315C45.3624 35.3199 44.8474 35.059 44.2542 35.059C43.1938 35.059 42.3662 35.8892 42.3662 37.0262C42.3662 38.0919 43.1015 38.9409 44.2731 38.9409C45.1064 38.9409 45.7258 38.513 45.9971 37.8346C46.0459 37.7114 45.9534 37.5762 45.8237 37.5762H44.7865C44.7622 37.5762 44.7382 37.5713 44.7158 37.5617C44.6934 37.5522 44.6731 37.5382 44.6559 37.5206C44.6388 37.503 44.6252 37.4821 44.6159 37.4591C44.6067 37.4361 44.6019 37.4115 44.602 37.3866V36.833C44.602 36.7283 44.6847 36.6435 44.7865 36.6435H47.0643C47.1623 36.6435 47.2418 36.721 47.2489 36.821C47.253 36.8759 47.2551 36.933 47.2551 36.9924ZM53.537 36.9999C53.537 35.9043 52.7127 35.0592 51.6449 35.0592C50.5806 35.0592 49.7527 35.9043 49.7527 36.9999C49.7527 38.0956 50.5806 38.9406 51.6449 38.9406C52.7127 38.9406 53.537 38.0956 53.537 36.9999ZM48.6478 36.9999C48.6478 35.2975 49.9411 34.0126 51.6449 34.0126C53.3481 34.0126 54.642 35.2978 54.642 36.9999C54.642 38.7023 53.3481 39.9872 51.6449 39.9872C49.9411 39.9872 48.6478 38.702 48.6478 36.9999ZM60.9471 34.345L58.9362 39.789C58.9229 39.8249 58.8994 39.8558 58.8686 39.8777C58.8379 39.8995 58.8013 39.9113 58.7639 39.9114H57.8804C57.8429 39.9113 57.8063 39.8996 57.7755 39.8778C57.7447 39.8559 57.7211 39.825 57.7078 39.789L55.7002 34.345C55.6897 34.3163 55.6861 34.2854 55.6897 34.255C55.6933 34.2246 55.7041 34.1955 55.7211 34.1703C55.7381 34.1451 55.7608 34.1244 55.7872 34.1102C55.8137 34.096 55.8431 34.0885 55.873 34.0885H56.64C56.7178 34.0885 56.7874 34.1389 56.8136 34.2142L58.1484 38.051C58.2068 38.219 58.4377 38.219 58.4959 38.0513L59.8339 34.2142C59.8467 34.1774 59.8703 34.1456 59.9014 34.1231C59.9326 34.1005 59.9697 34.0885 60.0078 34.0885H60.7745C60.9037 34.0885 60.9932 34.2209 60.9471 34.345ZM63.8019 35.2824V36.3178C63.8019 36.4223 63.8846 36.5071 63.9865 36.5071H65.6313C65.7331 36.5071 65.8161 36.5917 65.8161 36.6964V37.311C65.816 37.3612 65.7965 37.4094 65.7619 37.4449C65.7272 37.4804 65.6803 37.5003 65.6313 37.5003H63.9865C63.9375 37.5004 63.8906 37.5204 63.856 37.5559C63.8214 37.5914 63.8019 37.6396 63.8019 37.6898V38.7174C63.8019 38.8219 63.8846 38.9064 63.9865 38.9064H65.9048C66.0069 38.9064 66.0893 38.9916 66.0893 39.096V39.7218C66.0894 39.7467 66.0846 39.7713 66.0754 39.7943C66.0661 39.8173 66.0525 39.8382 66.0354 39.8558C66.0182 39.8734 65.9979 39.8874 65.9755 39.8969C65.9531 39.9065 65.9291 39.9114 65.9048 39.9114H62.8848C62.8606 39.9113 62.8366 39.9064 62.8142 39.8968C62.7918 39.8873 62.7715 39.8733 62.7544 39.8557C62.7373 39.8381 62.7237 39.8172 62.7145 39.7943C62.7052 39.7713 62.7005 39.7467 62.7005 39.7218V34.278C62.7005 34.1733 62.783 34.0885 62.8848 34.0885H65.9048C66.0069 34.0885 66.0893 34.1733 66.0893 34.278V34.9038C66.0894 34.9287 66.0846 34.9533 66.0754 34.9763C66.0661 34.9993 66.0525 35.0202 66.0354 35.0378C66.0182 35.0554 65.9979 35.0693 65.9755 35.0788C65.9531 35.0883 65.929 35.0932 65.9048 35.0931H63.9865C63.9375 35.0932 63.8906 35.1132 63.8561 35.1486C63.8215 35.1841 63.802 35.2322 63.8019 35.2824ZM69.1743 36.3556C69.1743 36.4601 69.257 36.5452 69.3591 36.5452H70.2167C70.7452 36.5452 71.0299 36.268 71.0299 35.8021C71.0299 35.3434 70.7452 35.0438 70.2165 35.0438H69.3591C69.3101 35.0438 69.2631 35.0638 69.2284 35.0994C69.1938 35.1349 69.1743 35.1831 69.1743 35.2334V36.3556ZM69.9891 37.4507H69.3588C69.3098 37.4507 69.2628 37.4707 69.2282 37.5062C69.1935 37.5418 69.174 37.59 69.174 37.6403V39.7218C69.1741 39.7467 69.1693 39.7713 69.1601 39.7943C69.1508 39.8173 69.1372 39.8382 69.1201 39.8558C69.103 39.8734 69.0826 39.8874 69.0602 39.8969C69.0378 39.9065 69.0138 39.9114 68.9895 39.9114H68.2574C68.2332 39.9114 68.2092 39.9065 68.1868 39.8969C68.1644 39.8874 68.144 39.8734 68.1269 39.8558C68.1097 39.8382 68.0961 39.8173 68.0869 39.7943C68.0776 39.7713 68.0729 39.7467 68.0729 39.7218V34.278C68.0729 34.1733 68.1556 34.0885 68.2574 34.0885H70.2902C71.4579 34.0885 72.0972 34.8618 72.0972 35.8133C72.0972 36.4503 71.7783 36.9613 71.2876 37.2351C71.2659 37.2471 71.2467 37.2635 71.2314 37.2833C71.216 37.3031 71.2047 37.3258 71.1981 37.3502C71.1915 37.3746 71.1898 37.4001 71.1931 37.4251C71.1964 37.4502 71.2045 37.4743 71.2171 37.4961L72.4463 39.6255C72.4628 39.6542 72.4715 39.687 72.4717 39.7203C72.472 39.7537 72.4636 39.7865 72.4475 39.8155C72.4313 39.8444 72.4081 39.8685 72.38 39.8853C72.3519 39.9021 72.3199 39.911 72.2874 39.9111H71.5231C71.49 39.9112 71.4576 39.9021 71.4291 39.8849C71.4006 39.8676 71.3772 39.8428 71.3613 39.8131L70.1507 37.5493C70.1348 37.5195 70.1114 37.4946 70.0829 37.4773C70.0544 37.4599 70.0219 37.4508 69.9888 37.4507H69.9891ZM79.6357 34.278V39.7221C79.6357 39.7723 79.6162 39.8204 79.5816 39.8558C79.547 39.8913 79.5001 39.9113 79.4512 39.9114H78.6826C78.6548 39.9114 78.6273 39.905 78.6023 39.8927C78.5772 39.8803 78.5552 39.8623 78.5379 39.84L75.6855 36.165C75.5763 36.025 75.3566 36.1039 75.3566 36.2831V39.7221C75.3565 39.7723 75.337 39.8205 75.3023 39.8559C75.2677 39.8914 75.2207 39.9114 75.1718 39.9114H74.4544C74.4055 39.9113 74.3587 39.8913 74.3241 39.8558C74.2896 39.8203 74.2702 39.7722 74.2702 39.7221V34.278C74.2702 34.1733 74.3526 34.0885 74.4544 34.0885H75.216C75.272 34.0885 75.3252 34.1148 75.3601 34.1599L78.2134 37.8212C78.322 37.9612 78.5423 37.8822 78.5423 37.703V34.2783C78.5423 34.1736 78.6242 34.0888 78.7265 34.0888H79.4512C79.553 34.0888 79.636 34.1736 79.636 34.2783L79.6357 34.278ZM88.0792 34.278V39.7221C88.0792 39.7723 88.0598 39.8204 88.0252 39.8559C87.9905 39.8914 87.9436 39.9114 87.8947 39.9114H87.1626C87.1136 39.9114 87.0667 39.8914 87.032 39.8559C86.9974 39.8205 86.9779 39.7723 86.9778 39.7221V36.5642C86.9778 36.3568 86.6991 36.3005 86.6221 36.4926L85.3065 39.7938C85.2926 39.8285 85.2689 39.8582 85.2385 39.8791C85.2082 39.9 85.1725 39.9113 85.1359 39.9114H84.8111C84.7743 39.9113 84.7384 39.9001 84.7079 39.879C84.6775 39.858 84.6538 39.8281 84.6399 39.7932L83.3311 36.4909C83.2549 36.2985 82.9757 36.3542 82.9757 36.5623V39.7221C82.9756 39.7723 82.9561 39.8205 82.9215 39.8559C82.8868 39.8914 82.8398 39.9114 82.7909 39.9114H82.0591C82.0101 39.9114 81.9632 39.8914 81.9285 39.8559C81.8939 39.8205 81.8744 39.7723 81.8743 39.7221V34.278C81.8743 34.1733 81.9573 34.0885 82.0591 34.0885H83.2443C83.3188 34.0885 83.3862 34.1347 83.4146 34.2055L84.8012 37.6506C84.8151 37.6853 84.8387 37.715 84.869 37.7359C84.8994 37.7568 84.9351 37.768 84.9716 37.7681C85.0082 37.7681 85.0439 37.7571 85.0743 37.7363C85.1048 37.7154 85.1284 37.6858 85.1424 37.6512L86.5427 34.205C86.5567 34.1705 86.5804 34.141 86.6107 34.1203C86.641 34.0996 86.6766 34.0885 86.713 34.0885H87.8949C87.9965 34.0885 88.0792 34.1733 88.0792 34.278ZM91.4229 35.2824V36.3178C91.4229 36.4223 91.5056 36.5071 91.6077 36.5071H93.2526C93.3547 36.5071 93.4371 36.5917 93.4371 36.6964V37.311C93.4371 37.3612 93.4177 37.4093 93.3831 37.4448C93.3485 37.4803 93.3015 37.5003 93.2526 37.5003H91.6077C91.5587 37.5003 91.5117 37.5203 91.4771 37.5558C91.4424 37.5914 91.4229 37.6396 91.4229 37.6898V38.7174C91.4229 38.8219 91.5056 38.9064 91.6077 38.9064H93.5261C93.6279 38.9064 93.7103 38.9916 93.7103 39.096V39.7218C93.7104 39.7467 93.7056 39.7713 93.6964 39.7943C93.6872 39.8172 93.6736 39.8381 93.6565 39.8557C93.6394 39.8733 93.6191 39.8873 93.5967 39.8968C93.5743 39.9064 93.5503 39.9113 93.5261 39.9114H90.5061C90.4818 39.9114 90.4578 39.9065 90.4354 39.8969C90.413 39.8874 90.3926 39.8734 90.3755 39.8558C90.3584 39.8382 90.3448 39.8173 90.3355 39.7943C90.3263 39.7713 90.3215 39.7467 90.3216 39.7218V34.278C90.3216 34.1733 90.4045 34.0885 90.5061 34.0885H93.5261C93.6279 34.0885 93.7103 34.1733 93.7103 34.278V34.9038C93.7104 34.9287 93.7056 34.9533 93.6964 34.9763C93.6872 34.9992 93.6736 35.0201 93.6565 35.0377C93.6394 35.0552 93.619 35.0692 93.5967 35.0787C93.5743 35.0882 93.5503 35.0931 93.5261 35.0931H91.6077C91.5588 35.0931 91.5118 35.1131 91.4772 35.1485C91.4425 35.184 91.423 35.2322 91.4229 35.2824ZM101.06 34.278V39.7221C101.06 39.747 101.055 39.7716 101.046 39.7946C101.037 39.8176 101.023 39.8385 101.006 39.856C100.989 39.8736 100.968 39.8875 100.946 39.897C100.924 39.9065 100.9 39.9114 100.875 39.9114H100.107C100.079 39.9114 100.052 39.905 100.027 39.8926C100.002 39.8803 99.9797 39.8623 99.9625 39.84L97.1098 36.165C97.0009 36.025 96.7809 36.1039 96.7809 36.2831V39.7221C96.7808 39.7723 96.7613 39.8204 96.7267 39.8558C96.6921 39.8913 96.6453 39.9113 96.5963 39.9114H95.8785C95.8296 39.9113 95.7827 39.8913 95.7482 39.8558C95.7136 39.8203 95.6942 39.7722 95.6942 39.7221V34.278C95.6942 34.1733 95.7766 34.0885 95.8787 34.0885H96.64C96.6962 34.0885 96.7492 34.1148 96.7841 34.1599L99.6374 37.8212C99.746 37.9612 99.9663 37.8822 99.9663 37.703V34.2783C99.9663 34.1736 100.048 34.0888 100.151 34.0888H100.875C100.977 34.0888 101.06 34.1736 101.06 34.2783" fill="black"/>
  <mask id="mask0" mask-type="alpha" maskUnits="userSpaceOnUse" x="102" y="34" width="5" height="6">
    <path d="M102.767 34.0884H106.787V39.9113H102.767V34.0884Z" fill="white"/>
  </mask>
  <g mask="url(#mask0)">
    <path fill-rule="evenodd" clip-rule="evenodd" d="M106.603 35.093H105.512C105.488 35.093 105.464 35.0979 105.441 35.1075C105.419 35.117 105.399 35.1309 105.381 35.1486C105.364 35.1662 105.351 35.1871 105.341 35.2101C105.332 35.2331 105.327 35.2577 105.328 35.2826V39.722C105.327 39.7722 105.308 39.8203 105.273 39.8557C105.239 39.8912 105.192 39.9112 105.143 39.9113H104.414C104.366 39.9112 104.319 39.8912 104.284 39.8557C104.249 39.8203 104.23 39.7722 104.23 39.722V35.2826C104.23 35.2577 104.225 35.2331 104.216 35.2101C104.207 35.1871 104.193 35.1662 104.176 35.1486C104.159 35.1309 104.139 35.117 104.116 35.1075C104.094 35.0979 104.07 35.093 104.045 35.093H102.951C102.902 35.093 102.856 35.0731 102.821 35.0377C102.786 35.0023 102.767 34.9542 102.767 34.904V34.2779C102.767 34.1732 102.849 34.0884 102.951 34.0884H106.603C106.705 34.0884 106.788 34.1732 106.788 34.2779V34.9037C106.788 34.954 106.768 35.0021 106.733 35.0376C106.699 35.0731 106.652 35.093 106.603 35.093Z" fill="black"/>
  </g>
  <path fill-rule="evenodd" clip-rule="evenodd" d="M44.8825 45.9822C44.8825 45.448 44.55 45.0761 43.9143 45.0761H42.9388C42.8898 45.0761 42.8428 45.0961 42.8081 45.1317C42.7734 45.1672 42.754 45.2154 42.754 45.2657V46.6878C42.754 46.7923 42.8367 46.8768 42.9388 46.8768H43.9143C44.5503 46.8768 44.8828 46.5397 44.8828 45.9822H44.8825ZM45.9509 45.994C45.9509 47.0401 45.2193 47.8322 44.0806 47.8322H42.9388C42.8898 47.8322 42.8428 47.8522 42.8081 47.8877C42.7734 47.9233 42.754 47.9715 42.754 48.0217V49.7583C42.754 49.7832 42.7493 49.8078 42.74 49.8308C42.7307 49.8538 42.7172 49.8746 42.7 49.8922C42.6829 49.9098 42.6625 49.9238 42.6401 49.9333C42.6177 49.9428 42.5937 49.9476 42.5695 49.9476H41.8374C41.8131 49.9476 41.7891 49.9428 41.7667 49.9333C41.7443 49.9238 41.7239 49.9098 41.7067 49.8922C41.6896 49.8747 41.676 49.8538 41.6667 49.8308C41.6574 49.8078 41.6526 49.7832 41.6526 49.7583V44.314C41.6526 44.2095 41.735 44.1247 41.8374 44.1247H44.0806C45.2191 44.1247 45.9509 44.9627 45.9509 45.994ZM48.8361 46.3919C48.8361 46.4963 48.9188 46.5814 49.0208 46.5814H49.8779C50.4064 46.5814 50.6914 46.3042 50.6914 45.838C50.6914 45.3794 50.4064 45.0801 49.8779 45.0801H49.0208C48.9966 45.08 48.9726 45.0849 48.9502 45.0944C48.9277 45.1039 48.9074 45.1178 48.8902 45.1354C48.873 45.153 48.8594 45.1739 48.8501 45.1968C48.8408 45.2198 48.8361 45.2445 48.8361 45.2693V46.3921V46.3919ZM49.6506 47.4872H49.0208C48.9719 47.4872 48.9249 47.5072 48.8903 47.5426C48.8556 47.5781 48.8361 47.6263 48.8361 47.6765V49.758C48.8361 49.7829 48.8313 49.8076 48.8221 49.8306C48.8128 49.8536 48.7992 49.8745 48.782 49.8921C48.7648 49.9098 48.7445 49.9237 48.722 49.9332C48.6996 49.9427 48.6755 49.9476 48.6513 49.9476H47.9192C47.8949 49.9476 47.8709 49.9427 47.8485 49.9332C47.8261 49.9236 47.8057 49.9097 47.7886 49.892C47.7715 49.8744 47.7579 49.8535 47.7486 49.8305C47.7394 49.8075 47.7346 49.7829 47.7347 49.758V44.314C47.7347 44.2095 47.8171 44.125 47.9192 44.125H49.9519C51.1196 44.125 51.7592 44.8981 51.7592 45.8495C51.7592 46.4862 51.4404 46.9978 50.9493 47.2711C50.9277 47.2831 50.9086 47.2995 50.8933 47.3193C50.8779 47.3391 50.8666 47.3619 50.8601 47.3862C50.8535 47.4106 50.8518 47.436 50.855 47.4611C50.8582 47.4861 50.8664 47.5103 50.8789 47.532L52.1077 49.6617C52.1243 49.6904 52.1332 49.7231 52.1334 49.7565C52.1337 49.7899 52.1253 49.8227 52.1092 49.8517C52.0931 49.8807 52.0698 49.9048 52.0417 49.9216C52.0136 49.9384 51.9817 49.9473 51.9492 49.9473H51.1849C51.1518 49.9473 51.1193 49.9383 51.0909 49.921C51.0624 49.9038 51.0389 49.879 51.023 49.8493L49.8124 47.5855C49.7965 47.5558 49.7731 47.5309 49.7446 47.5137C49.7161 47.4964 49.6836 47.4872 49.6506 47.4872ZM58.2777 47.0361C58.2777 45.9405 57.4534 45.0955 56.3856 45.0955C55.3213 45.0955 54.4934 45.9405 54.4934 47.0361C54.4934 48.1318 55.3213 48.9771 56.3856 48.9771C57.4534 48.9771 58.2777 48.1318 58.2777 47.0361ZM53.3885 47.0361C53.3885 45.3337 54.6817 44.0491 56.3856 44.0491C58.0888 44.0491 59.3826 45.3337 59.3826 47.0361C59.3826 48.7385 58.0888 50.0235 56.3856 50.0235C54.6817 50.0235 53.3885 48.7383 53.3885 47.0361ZM63.1293 48.9429C64.3341 48.9429 64.9177 48.2681 64.9177 47.0361C64.9177 45.8041 64.3341 45.1296 63.1293 45.1296H62.5151C62.4662 45.1296 62.4193 45.1496 62.3847 45.1851C62.35 45.2206 62.3306 45.2687 62.3306 45.3189V48.7534C62.3306 48.8581 62.4133 48.9429 62.5154 48.9429H63.1293ZM61.2333 44.314C61.2333 44.2095 61.316 44.125 61.4178 44.125H63.1768C65.0621 44.125 66.0592 45.273 66.0592 47.0361C66.0592 48.799 65.0621 49.9476 63.1768 49.9476H61.4178C61.3936 49.9476 61.3696 49.9427 61.3472 49.9332C61.3247 49.9236 61.3044 49.9097 61.2873 49.892C61.2701 49.8744 61.2565 49.8535 61.2473 49.8305C61.238 49.8075 61.2333 49.7829 61.2333 49.758V44.314ZM67.8294 47.9307V44.3143C67.8294 44.2093 67.9118 44.1247 68.0136 44.1247H68.746C68.8478 44.1247 68.9308 44.2093 68.9308 44.3143V47.7563C68.9308 48.6851 69.4516 49.0227 70.1356 49.0227C70.8226 49.0227 71.3434 48.6851 71.3434 47.7563V44.3143C71.3434 44.2093 71.4264 44.1247 71.5282 44.1247H72.2644C72.3662 44.1247 72.4487 44.2093 72.4487 44.3143V47.9307C72.4487 49.3221 71.4507 50.0232 70.1356 50.0232C68.8273 50.0232 67.8291 49.3221 67.8291 47.9307H67.8294ZM74.1847 47.0361C74.1847 45.3337 75.4741 44.0491 77.1818 44.0491C77.9488 44.0491 78.68 44.3414 79.2063 44.8177C79.2259 44.8352 79.2417 44.8567 79.2527 44.8808C79.2638 44.905 79.2697 44.9312 79.2702 44.9579C79.2707 44.9845 79.2658 45.011 79.2557 45.0355C79.2457 45.0601 79.2307 45.0822 79.2118 45.1005L78.7046 45.5883C78.6712 45.6206 78.6271 45.6389 78.5811 45.6394C78.5351 45.64 78.4906 45.6227 78.4565 45.5911C78.1218 45.2783 77.6652 45.0955 77.1818 45.0955C76.1134 45.0955 75.2896 45.9369 75.2896 47.0361C75.2896 48.1354 76.1134 48.9771 77.1815 48.9771C77.6652 48.9771 78.1218 48.794 78.4565 48.4812C78.4906 48.4495 78.5352 48.4322 78.5812 48.4327C78.6273 48.4332 78.6714 48.4516 78.7049 48.484L79.2118 48.9721C79.2307 48.9903 79.2457 49.0125 79.2557 49.037C79.2658 49.0616 79.2707 49.0881 79.2702 49.1147C79.2697 49.1414 79.2638 49.1676 79.2527 49.1917C79.2417 49.2159 79.2259 49.2374 79.2063 49.2549C78.68 49.7309 77.9491 50.0235 77.1815 50.0235C75.4741 50.0235 74.1847 48.7383 74.1847 47.0361ZM84.3688 45.1293H83.2783C83.2541 45.1293 83.23 45.1343 83.2076 45.1438C83.1852 45.1533 83.1649 45.1673 83.1477 45.1849C83.1306 45.2025 83.117 45.2234 83.1078 45.2464C83.0985 45.2694 83.0938 45.294 83.0938 45.3189V49.7583C83.0937 49.8085 83.0742 49.8565 83.0396 49.892C83.005 49.9274 82.9582 49.9473 82.9093 49.9473H82.1807C82.1565 49.9473 82.1325 49.9425 82.1101 49.933C82.0877 49.9235 82.0673 49.9096 82.0502 49.8921C82.033 49.8745 82.0194 49.8537 82.0101 49.8307C82.0008 49.8078 81.996 49.7832 81.9959 49.7583V45.3189C81.996 45.294 81.9913 45.2694 81.9821 45.2464C81.9729 45.2234 81.9593 45.2025 81.9422 45.1849C81.9251 45.1673 81.9047 45.1533 81.8823 45.1438C81.8599 45.1343 81.8359 45.1293 81.8117 45.1293H80.7171C80.6682 45.1293 80.6214 45.1093 80.5868 45.0738C80.5523 45.0383 80.5329 44.9902 80.5329 44.9401V44.3143C80.5329 44.2093 80.6153 44.1247 80.7171 44.1247H84.3688C84.4709 44.1247 84.5536 44.2093 84.5536 44.3143V44.9401C84.5535 44.9903 84.534 45.0384 84.4994 45.0739C84.4647 45.1094 84.4177 45.1293 84.3688 45.1293ZM85.8883 48.9603L86.288 48.4485C86.3038 48.428 86.3237 48.4111 86.3463 48.399C86.3689 48.3869 86.3937 48.3797 86.4191 48.378C86.4446 48.3763 86.4701 48.38 86.494 48.389C86.518 48.3981 86.5398 48.4121 86.5582 48.4303C86.9395 48.808 87.4655 49.0642 87.9273 49.0642C88.3706 49.0642 88.6922 48.8295 88.6922 48.416C88.6922 47.8966 88.1858 47.7031 87.5389 47.4116C86.7965 47.0779 86.0131 46.6987 86.0131 45.6711C86.0131 44.6402 86.7965 44.0488 87.7644 44.0488C88.405 44.0488 89.008 44.2944 89.5029 44.7004C89.5787 44.7625 89.5897 44.8768 89.5321 44.9571L89.1745 45.455C89.1599 45.4755 89.1414 45.4928 89.1201 45.5058C89.0988 45.5188 89.0751 45.5272 89.0505 45.5305C89.026 45.5339 89.001 45.5321 88.9771 45.5253C88.9532 45.5184 88.931 45.5067 88.9116 45.4908C88.5303 45.1663 88.0996 45.0081 87.7387 45.0081C87.3801 45.0081 87.0959 45.194 87.0959 45.5577C87.0959 46.0315 87.5834 46.2171 88.2377 46.5055C88.9842 46.8429 89.7936 47.2599 89.7936 48.344C89.7936 49.4584 88.9362 50.0195 87.9235 50.0195C87.1931 50.0195 86.4441 49.7188 85.9118 49.2221C85.8761 49.1898 85.8537 49.1447 85.8494 49.096C85.845 49.0473 85.859 48.9988 85.8883 48.9603Z" fill="black"/>
  <mask id="mask1" mask-type="alpha" maskUnits="userSpaceOnUse" x="0" y="23" width="10" height="28">
    <path d="M0 23.1836H9.75447V50.8185H0V23.1836Z" fill="white"/>
  </mask>
  <g mask="url(#mask1)">
    <path fill-rule="evenodd" clip-rule="evenodd" d="M9.66085 48.0321C9.74994 47.8748 9.77698 47.6886 9.73642 47.5116C9.69586 47.3345 9.59078 47.1801 9.44275 47.0801C6.24176 44.9286 4.12605 41.2191 4.12605 37.0001C4.12605 32.7816 6.24176 29.0722 9.44275 26.9206C9.59073 26.8205 9.69577 26.6661 9.73632 26.4891C9.77687 26.3121 9.74987 26.1259 9.66085 25.9686L8.29441 23.541C8.24669 23.4567 8.18278 23.3832 8.10655 23.325C8.03031 23.2668 7.94335 23.2251 7.85093 23.2024C7.75851 23.1797 7.66255 23.1765 7.56889 23.193C7.47522 23.2095 7.38579 23.2453 7.30603 23.2983C2.91275 26.1929 0 31.2464 0 37.0004C0 42.7544 2.91247 47.8075 7.30603 50.7024C7.38579 50.7554 7.4752 50.7912 7.56885 50.8077C7.66249 50.8242 7.75843 50.821 7.85084 50.7983C7.94324 50.7756 8.03021 50.734 8.10645 50.6758C8.1827 50.6176 8.24664 50.5442 8.29441 50.46L9.66085 48.0321Z" fill="#276EF1"/>
  </g>
  <path fill-rule="evenodd" clip-rule="evenodd" d="M23.4448 23.5403L22.0787 25.9685C21.9897 26.1256 21.9627 26.3117 22.0032 26.4886C22.0437 26.6655 22.1487 26.8198 22.2965 26.9199C25.4975 29.0715 27.6129 32.7812 27.6129 36.9999C27.6129 41.2187 25.4975 44.9281 22.2965 47.0799C22.1487 47.18 22.0437 47.3343 22.0032 47.5112C21.9627 47.6881 21.9897 47.8742 22.0787 48.0314L23.4448 50.4593C23.4926 50.5435 23.5565 50.617 23.6328 50.6752C23.709 50.7334 23.7959 50.7751 23.8884 50.7978C23.9808 50.8205 24.0767 50.8237 24.1704 50.8072C24.264 50.7908 24.3535 50.755 24.4332 50.702C28.8271 47.8071 31.739 42.7539 31.739 36.9999C31.739 31.2459 28.8265 26.1928 24.4332 23.2976C24.3535 23.2446 24.264 23.2089 24.1704 23.1924C24.0767 23.176 23.9808 23.1792 23.8884 23.202C23.796 23.2247 23.7091 23.2664 23.6329 23.3246C23.5567 23.3828 23.4928 23.4563 23.4451 23.5406" fill="#276EF1"/>
  <path d="M0.837 2.718H3.42C3.942 2.718 4.35 2.865 4.644 3.159C4.944 3.453 5.094 3.846 5.094 4.338C5.094 4.572 5.061 4.77 4.995 4.932C4.929 5.094 4.845 5.229 4.743 5.337C4.641 5.439 4.53 5.517 4.41 5.571C4.29 5.619 4.179 5.652 4.077 5.67V5.724C4.191 5.73 4.317 5.76 4.455 5.814C4.599 5.868 4.734 5.955 4.86 6.075C4.986 6.189 5.091 6.339 5.175 6.525C5.265 6.705 5.31 6.924 5.31 7.182C5.31 7.44 5.268 7.68 5.184 7.902C5.106 8.124 4.995 8.316 4.851 8.478C4.707 8.64 4.536 8.769 4.338 8.865C4.14 8.955 3.924 9 3.69 9H0.837V2.718ZM1.593 8.334H3.456C3.78 8.334 4.035 8.253 4.221 8.091C4.407 7.923 4.5 7.68 4.5 7.362V7.056C4.5 6.738 4.407 6.498 4.221 6.336C4.035 6.168 3.78 6.084 3.456 6.084H1.593V8.334ZM1.593 5.436H3.33C3.63 5.436 3.864 5.361 4.032 5.211C4.2 5.061 4.284 4.845 4.284 4.563V4.257C4.284 3.975 4.2 3.759 4.032 3.609C3.864 3.459 3.63 3.384 3.33 3.384H1.593V5.436ZM9.50688 8.244H9.47088C9.42288 8.352 9.36288 8.46 9.29088 8.568C9.22488 8.67 9.14088 8.763 9.03888 8.847C8.93688 8.925 8.81388 8.988 8.66988 9.036C8.52588 9.084 8.35788 9.108 8.16588 9.108C7.68588 9.108 7.30488 8.955 7.02288 8.649C6.74088 8.337 6.59988 7.899 6.59988 7.335V4.356H7.31988V7.209C7.31988 8.043 7.67388 8.46 8.38188 8.46C8.52588 8.46 8.66388 8.442 8.79588 8.406C8.93388 8.37 9.05388 8.316 9.15588 8.244C9.26388 8.172 9.34788 8.082 9.40788 7.974C9.47388 7.86 9.50688 7.725 9.50688 7.569V4.356H10.2269V9H9.50688V8.244ZM12.1201 3.267C11.9641 3.267 11.8501 3.231 11.7781 3.159C11.7121 3.081 11.6791 2.982 11.6791 2.862V2.745C11.6791 2.625 11.7121 2.529 11.7781 2.457C11.8501 2.379 11.9641 2.34 12.1201 2.34C12.2761 2.34 12.3871 2.379 12.4531 2.457C12.5251 2.529 12.5611 2.625 12.5611 2.745V2.862C12.5611 2.982 12.5251 3.081 12.4531 3.159C12.3871 3.231 12.2761 3.267 12.1201 3.267ZM11.7601 4.356H12.4801V9H11.7601V4.356ZM14.7751 9C14.5231 9 14.3311 8.931 14.1991 8.793C14.0731 8.649 14.0101 8.469 14.0101 8.253V2.34H14.7301V8.37H15.4141V9H14.7751ZM17.4443 9C17.1923 9 17.0003 8.931 16.8683 8.793C16.7423 8.649 16.6793 8.463 16.6793 8.235V4.986H15.9143V4.356H16.3463C16.5023 4.356 16.6073 4.326 16.6613 4.266C16.7213 4.2 16.7513 4.089 16.7513 3.933V3.069H17.3993V4.356H18.4163V4.986H17.3993V8.37H18.3443V9H17.4443ZM21.7005 2.34H22.4205V5.112H22.4565C22.5765 4.818 22.7505 4.602 22.9785 4.464C23.2125 4.32 23.4915 4.248 23.8155 4.248C24.1035 4.248 24.3645 4.305 24.5985 4.419C24.8325 4.533 25.0305 4.695 25.1925 4.905C25.3605 5.115 25.4865 5.37 25.5705 5.67C25.6605 5.97 25.7055 6.306 25.7055 6.678C25.7055 7.05 25.6605 7.386 25.5705 7.686C25.4865 7.986 25.3605 8.241 25.1925 8.451C25.0305 8.661 24.8325 8.823 24.5985 8.937C24.3645 9.051 24.1035 9.108 23.8155 9.108C23.1855 9.108 22.7325 8.82 22.4565 8.244H22.4205V9H21.7005V2.34ZM23.6175 8.46C24.0255 8.46 24.3465 8.334 24.5805 8.082C24.8145 7.824 24.9315 7.488 24.9315 7.074V6.282C24.9315 5.868 24.8145 5.535 24.5805 5.283C24.3465 5.025 24.0255 4.896 23.6175 4.896C23.4555 4.896 23.2995 4.92 23.1495 4.968C23.0055 5.01 22.8795 5.07 22.7715 5.148C22.6635 5.226 22.5765 5.322 22.5105 5.436C22.4505 5.544 22.4205 5.661 22.4205 5.787V7.515C22.4205 7.665 22.4505 7.8 22.5105 7.92C22.5765 8.034 22.6635 8.133 22.7715 8.217C22.8795 8.295 23.0055 8.355 23.1495 8.397C23.2995 8.439 23.4555 8.46 23.6175 8.46ZM29.7393 4.356H30.4503L28.3713 10.08C28.3173 10.218 28.2633 10.332 28.2093 10.422C28.1553 10.518 28.0893 10.593 28.0113 10.647C27.9333 10.701 27.8343 10.74 27.7143 10.764C27.6003 10.788 27.4593 10.8 27.2913 10.8H26.9223V10.17H27.6513L28.0023 9.18L26.2653 4.356H26.9853L28.1013 7.515L28.3173 8.271H28.3623L28.6143 7.515L29.7393 4.356Z" fill="black"/>
</svg>