<svg width="352" height="238" viewBox="0 0 352 238" fill="none" xmlns="http://www.w3.org/2000/svg">
    <g clip-path="url(#clip0_2918_65683)">
        <rect x="44.8558" y="16.264" width="301.33" height="214.541" rx="10.4449" fill="#E9EAEE"/>
        <path d="M44.8563 89.7042V28.0091C44.7968 21.5836 49.9957 16.3261 56.4703 16.264H334.571C341.046 16.3261 346.244 21.5836 346.185 28.0091V219.06C346.244 225.485 341.046 230.743 334.571 230.805H56.4703C49.9957 230.743 44.7968 225.485 44.8563 219.06V141.288" stroke="black" stroke-width="1.27789"/>
        <path d="M334.571 16.264H56.4703C49.9957 16.3257 44.7968 21.5494 44.8563 27.9336V35.1941H346.185V27.9336C346.244 21.5494 341.046 16.3257 334.571 16.264V16.264Z" fill="#465173" stroke="black" stroke-width="1.27789"/>
        <path d="M99.5381 129.338L99.363 128.848L99.8073 128.577C109.214 122.845 115.744 111.659 115.744 98.9367V81.2255C115.744 62.4278 101.713 47.2119 84.6033 47.2119H31.7792C14.6691 47.2119 0.638931 62.4278 0.638931 81.2255V98.7827C0.638931 117.58 14.6691 132.796 31.7792 132.796H84.6033C85.7373 132.796 86.6846 132.795 87.7655 132.648L88.0298 132.612L88.2413 132.775L101.659 143.093L101.667 143.099L101.674 143.105C101.983 143.357 102.278 143.434 102.533 143.419C102.798 143.404 103.067 143.289 103.301 143.083C103.774 142.664 104.034 141.931 103.775 141.195C103.775 141.195 103.775 141.195 103.774 141.194L99.5381 129.338Z" fill="#BABECB" stroke="black" stroke-width="1.27789"/>
        <path d="M81.214 93.8558C79.5759 93.8558 78.2479 92.4078 78.2479 90.6216C78.2479 88.8354 79.5759 87.3874 81.214 87.3874C82.8521 87.3874 84.1801 88.8354 84.1801 90.6216C84.1801 92.4078 82.8521 93.8558 81.214 93.8558Z" fill="white"/>
        <path d="M58.1896 93.8558C56.5515 93.8558 55.2235 92.4078 55.2235 90.6216C55.2235 88.8354 56.5515 87.3874 58.1896 87.3874C59.8277 87.3874 61.1556 88.8354 61.1556 90.6216C61.1556 92.4078 59.8277 93.8558 58.1896 93.8558Z" fill="white"/>
        <path d="M35.1679 93.8558C33.5298 93.8558 32.2018 92.4078 32.2018 90.6216C32.2018 88.8354 33.5298 87.3874 35.1679 87.3874C36.806 87.3874 38.134 88.8354 38.134 90.6216C38.134 92.4078 36.806 93.8558 35.1679 93.8558Z" fill="white"/>
        <mask id="mask0_2918_65683" style="mask-type:alpha" maskUnits="userSpaceOnUse" x="58" y="0" width="294" height="259">
            <path d="M352 3.5756C352 1.60085 350.399 0 348.424 0H61.6612C59.6864 0 58.0856 1.60085 58.0856 3.5756V227.894C58.0856 229.869 59.6864 231.47 61.6612 231.47H77.8106C79.1513 231.47 80.3793 232.22 80.9916 233.412L92.7787 256.376C93.9262 258.611 96.9608 258.997 98.6311 257.12L120.386 232.668C121.064 231.906 122.036 231.47 123.057 231.47H348.424C350.399 231.47 352 229.869 352 227.894V201.92V3.5756Z" fill="#D9D9D9"/>
        </mask>
        <g mask="url(#mask0_2918_65683)">
            <path d="M231.181 236C231.061 235.921 230.924 235.871 230.781 235.857L178.097 230.568C177.615 230.52 177.184 230.871 177.136 231.354C175.047 252.069 176.556 281.361 178.578 305.427C179.59 317.471 180.732 328.223 181.621 335.964C182.066 339.835 182.447 342.954 182.717 345.105C182.852 346.181 182.96 347.015 183.033 347.58C183.07 347.863 183.098 348.078 183.118 348.223L183.139 348.387L183.145 348.429L183.145 348.431L183.146 348.439L183.153 348.501L183.178 348.744C183.201 348.959 183.234 349.279 183.278 349.696C183.365 350.53 183.493 351.753 183.654 353.313C183.976 356.431 184.432 360.893 184.97 366.264C186.046 377.005 187.447 391.381 188.746 405.921C190.045 420.463 191.243 435.162 191.914 446.552C192.249 452.25 192.452 457.107 192.471 460.699C192.481 462.496 192.444 463.961 192.357 465.048C192.313 465.592 192.259 466.026 192.195 466.351C192.164 466.513 192.132 466.639 192.102 466.731C192.087 466.777 192.075 466.811 192.064 466.835C192.059 466.847 192.055 466.855 192.053 466.86C192.05 466.866 192.048 466.868 192.049 466.868C191.874 467.154 191.877 467.515 192.057 467.798C192.238 468.081 192.564 468.236 192.898 468.198L206.598 466.63L212.445 468.175C212.504 468.19 212.564 468.2 212.624 468.203L246.177 469.956C246.44 469.97 246.695 469.865 246.872 469.67C247.05 469.475 247.13 469.211 247.091 468.951C234.752 385.659 238.458 342.007 241.113 310.735C241.792 302.734 242.402 295.543 242.658 288.706C251.572 258.806 238.905 241.157 231.181 236Z" fill="#BABECB" stroke="black" stroke-width="1.75613" stroke-linecap="round" stroke-linejoin="round"/>
            <mask id="mask1_2918_65683" style="mask-type:alpha" maskUnits="userSpaceOnUse" x="177" y="231" width="70" height="239">
                <path d="M242.246 288.562C251.12 258.944 238.549 241.667 231.155 236.731L178.471 231.442C174.312 272.695 183.555 348.326 183.555 348.326C183.555 348.326 195.57 462.037 192.336 467.326L207.124 465.739L192.153 303.191H193.077L198.16 343.9L213.132 467.326L246.685 469.079C231.155 364.254 241.014 322.058 242.246 288.562Z" fill="#ACC7FA"/>
            </mask>
            <g mask="url(#mask1_2918_65683)">
                <path d="M206.479 227.745C214.797 274.883 206.479 328.029 224.502 446.336" stroke="white" stroke-width="3.69711"/>
                <path d="M184.296 227.745C175.515 280.429 193.077 324.332 199.547 446.336" stroke="white" stroke-width="2.77283"/>
                <path d="M221.267 227.745C243.912 268.875 217.108 306.771 239.291 446.336" stroke="white" stroke-width="3.69711"/>
            </g>
            <path d="M204.503 119.591C174.926 122.364 164.143 114.816 155.978 111.735C153.39 123.565 145.349 136.998 141.652 142.236C153.113 146.303 177.853 144.855 188.79 143.622C169.565 175.787 163.526 214.33 162.91 234.664C177.237 229.58 203.116 232.353 212.821 236.974C220.585 240.671 238.855 237.899 247.02 236.05C238.146 231.244 235.466 199.695 235.466 180.593C241.012 177.358 254.876 175.048 264.119 172.737C258.203 150.924 236.39 124.521 226.223 114.045L204.503 119.591Z" fill="#465173"/>
            <path d="M235.466 180.593C241.012 177.358 254.876 175.048 264.119 172.737C258.203 150.924 236.39 124.521 226.223 114.045L204.503 119.591C174.926 122.364 164.143 114.816 155.978 111.735C153.39 123.565 145.349 136.998 141.652 142.236C153.113 146.303 177.853 144.855 188.79 143.622M235.466 180.593C235.466 199.695 238.146 231.244 247.02 236.05C238.855 237.899 220.585 240.671 212.821 236.974C203.116 232.353 177.237 229.58 162.91 234.664C163.526 214.33 169.565 175.787 188.79 143.622M235.466 180.593L226.223 185.215C226.223 168.129 226.223 152.878 224.375 139.463M188.79 143.622C190.278 141.034 193.697 137.32 195.388 135.317" stroke="black" stroke-width="1.27789" stroke-linecap="round" stroke-linejoin="round"/>
            <path d="M168.918 232.815C164.112 218.766 170.613 192.301 173.54 177.82C168.733 192.239 163.527 219.721 162.448 234.664L168.918 232.815Z" fill="black" stroke="black" stroke-width="1.75613" stroke-linecap="round" stroke-linejoin="round"/>
            <path d="M140.728 141.774C138.879 141.404 138.651 135.15 139.421 131.607C141.269 132.069 144.504 132.531 146.815 132.993C145.429 136.228 142.576 142.143 140.728 141.774Z" fill="black" stroke="black" stroke-width="1.75613" stroke-linecap="round" stroke-linejoin="round"/>
            <path d="M264.584 173.279C254.9 179.291 239.629 192.598 226.689 186.161C238.689 181.438 263.069 172.249 264.584 173.279Z" fill="black" stroke="black" stroke-width="1.75613" stroke-linecap="round" stroke-linejoin="round"/>
            <path d="M131.021 96.0217C132.131 102.307 147.197 108.808 155.515 111.734C155.515 121.717 149.045 129.142 145.81 132.069C140.264 132.069 115.772 120.977 113.461 108.037C112.161 100.758 113.768 56.5858 116.233 36.8679C113.919 35.068 110.354 18.858 121.907 22.093C121.907 12.3881 123.294 5.45597 125.604 7.30437C127.161 8.54919 128.159 17.0197 127.915 22.231C128.996 22.981 130.504 24.2826 132.537 26.2523C135.398 29.0251 132.537 29.9494 131.021 34.5571C128.377 38.2679 129.635 88.1654 131.021 96.0217Z" fill="#F5B896"/>
            <path d="M155.515 111.734C147.197 108.808 132.131 102.307 131.021 96.0217C129.635 88.1654 128.377 38.2679 131.021 34.5571C132.537 29.9494 135.398 29.0251 132.537 26.2523C124.428 18.3959 124.68 21.1687 126.991 27.1765C125.797 25.2999 124.218 19.7823 127.915 22.231C128.159 17.0197 127.161 8.54919 125.604 7.30437C123.294 5.45597 121.907 12.3881 121.907 22.093C110.354 18.858 113.919 35.068 116.233 36.8679C113.768 56.5858 112.161 100.758 113.461 108.037C115.772 120.977 140.264 132.069 145.81 132.069C149.045 129.142 155.515 121.717 155.515 111.734Z" stroke="black" stroke-width="1.27789" stroke-linejoin="round"/>
            <path d="M196.227 208.071C208.591 192.225 180.891 151.491 165.495 133.105C162.733 129.728 151.753 136.372 148.699 137.099C145.645 137.825 137.867 135.641 132.522 136.912C127.178 138.183 129.976 143.164 118.706 146.65C109.69 149.44 114.099 155.543 117.431 158.246C157.643 183.53 159.075 204.741 156.765 216.756L196.227 208.071Z" fill="#E74F4F" stroke="black" stroke-width="1.27789" stroke-linecap="round" stroke-linejoin="round"/>
            <path d="M135.716 157.125L160.546 149.607" stroke="black" stroke-width="1.27789" stroke-linecap="round" stroke-linejoin="round"/>
            <path d="M141.348 163.851L166.179 156.334" stroke="black" stroke-width="1.27789" stroke-linecap="round" stroke-linejoin="round"/>
            <path d="M157.574 216.951C145.068 218.634 142.938 209.677 143.436 204.987L187.715 194.458C187.336 201.001 193.419 206.007 196.509 207.692L157.574 216.951Z" fill="#E74F4F" stroke="black" stroke-width="1.27789" stroke-linecap="round" stroke-linejoin="round"/>
            <path d="M263.913 226.576C247.276 233.508 205.89 197.906 200.934 193.755C187.405 194.67 176.445 185.677 174.593 182.442C172.858 179.412 175.517 178.801 177.552 179.697C175.838 178.422 173.949 176.43 174.593 174.586C175.413 172.236 176.903 172.643 178.433 173.449C174.851 168.043 178.752 167.78 181.063 169.04C186.146 171.813 187.995 172.643 190.767 172.643C189.843 168.493 188.516 165.718 192.616 167.102C195.681 168.137 203.309 176.201 204.169 181.251C216.647 187.192 232.359 197.706 236.98 199.554C236.056 197.706 231.434 184.291 231.434 184.291C231.434 184.291 242.988 175.717 256.391 175.717C260.088 180.8 275.004 220.568 263.913 226.576Z" fill="#F5B896"/>
            <path d="M236.98 199.554C232.359 197.706 216.647 187.192 204.169 181.251C203.309 176.201 195.681 168.137 192.616 167.102C188.516 165.718 189.843 168.493 190.767 172.643C187.995 172.643 186.146 171.813 181.063 169.04C178.752 167.78 174.851 168.043 178.433 173.449M236.98 199.554C236.056 197.706 231.434 184.291 231.434 184.291C231.434 184.291 242.988 175.717 256.391 175.717C260.088 180.8 275.004 220.568 263.913 226.576C247.276 233.508 205.89 197.906 200.934 193.755C187.405 194.67 176.445 185.677 174.593 182.442C172.476 178.744 176.903 178.649 178.752 180.499M236.98 199.554L251.306 206.948M178.433 173.449C176.903 172.643 175.413 172.236 174.593 174.586C173.789 176.886 176.929 179.418 178.752 180.499M178.433 173.449C181.525 176.34 186.851 178.418 190.767 178.65M178.752 180.499C180.574 181.58 185.992 184.291 188.919 184.291" stroke="black" stroke-width="1.27789" stroke-linecap="round" stroke-linejoin="round"/>
            <path d="M123.014 27.4188C122.458 29.0727 118.734 28.2249 116.231 27.2355C113.729 26.2462 113.542 25.054 113.952 23.8361C114.362 22.6182 115.212 21.8358 117.714 22.8251C120.217 23.8145 123.571 25.7649 123.014 27.4188Z" fill="#F5B896" stroke="black" stroke-width="1.75613" stroke-linecap="round" stroke-linejoin="round"/>
            <path d="M122.272 31.4413C121.716 33.0952 117.992 32.2474 115.489 31.258C112.987 30.2687 112.8 29.0765 113.21 27.8586C113.62 26.6407 114.47 25.8583 116.973 26.8476C119.475 27.837 122.829 29.7874 122.272 31.4413Z" fill="#F5B896" stroke="black" stroke-width="1.75613" stroke-linecap="round" stroke-linejoin="round"/>
            <path d="M177.639 91.0793V55.4946C177.639 55.4946 181.336 36.9982 203.981 36.536C226.626 36.0739 228.936 54.5595 228.936 54.5595C228.936 63.4111 226.134 68.3818 222.664 71.076C226.487 68.7769 232.274 66.9583 233.558 73.0559C235.037 80.0804 227.396 82.7608 223.391 83.2229C220.433 99.1205 223.391 110.797 225.239 114.648C221.542 122.043 208.602 120.81 202.594 119.27V107.716C177.824 108.456 177.639 99.3978 177.639 91.0793Z" fill="#F5B896"/>
            <path d="M177.639 55.4946V91.0793C177.639 99.3978 177.824 108.456 202.594 107.716V119.27C208.602 120.81 221.542 122.043 225.239 114.648C223.391 110.797 220.433 99.1205 223.391 83.2229C227.396 82.7608 235.037 80.0804 233.558 73.0559C232.079 66.0313 224.623 69.5128 221.08 72.1316C225.239 69.7735 228.936 64.7265 228.936 54.5595C228.936 54.5595 226.626 36.0739 203.981 36.536C181.336 36.9982 177.639 55.4946 177.639 55.4946Z" stroke="black" stroke-width="1.27789" stroke-linejoin="round"/>
            <path d="M203.057 107.716C206.295 107.569 211.614 106.606 213.049 103.941C213.109 103.81 213.167 103.681 213.224 103.557C213.174 103.688 213.116 103.816 213.049 103.941C210.804 108.835 205.937 118.087 203.057 118.807V107.716Z" fill="black"/>
            <path d="M203.057 107.716C206.446 107.562 212.114 106.514 213.224 103.557C211.067 108.332 206.014 118.068 203.057 118.807V107.716Z" stroke="black" stroke-width="1.75613" stroke-linecap="round" stroke-linejoin="round"/>
            <path d="M220.188 73.0455V57.7949C217.383 47.6279 209.493 58.2571 198.435 58.2571C189.163 58.2571 180.874 49.0143 177.209 58.2571C171.169 53.1738 168.825 42.5445 173.017 38.8474C177.21 35.1502 181.336 38.3852 181.798 38.8474C181.644 36.5367 182.722 31.4533 188.268 29.6047C193.814 27.7562 195.816 31.7612 196.124 33.764C196.894 32.0695 202.132 27.294 207.216 28.2183C212.299 29.1426 212.299 33.4557 212.761 35.1502C213.983 34.2258 215.534 30.0666 218.769 30.9909C222.004 31.9152 221.707 36.9988 222.004 37.923C222.609 37.3068 225.398 34.7805 228.012 35.1502C231.28 35.6123 233.095 41.6202 233.095 44.8551C234.204 55.9464 231.115 65.4972 229.431 68.8863C226.104 68.1468 221.883 71.351 220.188 73.0455Z" fill="black" stroke="black" stroke-width="1.75613" stroke-linecap="round" stroke-linejoin="round"/>
            <path d="M203.981 52.2493L205.829 49.4764" stroke="white" stroke-width="1.38642" stroke-linecap="round" stroke-linejoin="round"/>
            <path d="M226.163 54.0054L228.66 51.7984" stroke="white" stroke-width="1.38642" stroke-linecap="round" stroke-linejoin="round"/>
            <path d="M199.125 48.6824L197.745 45.6489" stroke="white" stroke-width="1.38642" stroke-linecap="round" stroke-linejoin="round"/>
            <path d="M221.595 47.2167L221.038 43.931" stroke="white" stroke-width="1.38642" stroke-linecap="round" stroke-linejoin="round"/>
            <path d="M189.196 48.7907L190.671 45.8023" stroke="white" stroke-width="1.38642" stroke-linecap="round" stroke-linejoin="round"/>
            <path d="M211.058 41.5407L213.249 39.0297" stroke="white" stroke-width="1.38642" stroke-linecap="round" stroke-linejoin="round"/>
            <path d="M180.891 47.8272L179.35 44.8721" stroke="white" stroke-width="1.38642" stroke-linecap="round" stroke-linejoin="round"/>
            <path d="M203.056 37.4608L202.545 35.2316" stroke="white" stroke-width="1.38642" stroke-linecap="round" stroke-linejoin="round"/>
            <path d="M189.351 38.8636L188.619 35.6125" stroke="white" stroke-width="1.38642" stroke-linecap="round" stroke-linejoin="round"/>
            <path d="M189.842 69.9585C187.531 69.0343 183.372 70.5131 183.372 74.5799" stroke="black" stroke-width="1.38642" stroke-linecap="round" stroke-linejoin="round"/>
            <path d="M202.782 70.8828C204.168 70.4207 207.126 71.4374 207.865 73.6557" stroke="black" stroke-width="1.38642" stroke-linecap="round" stroke-linejoin="round"/>
            <path d="M209.252 85.8681C209.252 89.5652 206.941 92.8726 203.56 94.8047C198.384 97.7624 192.152 96.9594 188.771 94.3425" stroke="black" stroke-width="1.38642" stroke-linecap="round" stroke-linejoin="round"/>
            <circle cx="202.781" cy="75.8676" r="1.38642" fill="black"/>
            <circle cx="187.993" cy="74.9327" r="1.38642" fill="black"/>
            <path d="M198.891 80.4843C198.147 78.0428 195.564 76.6666 193.123 77.4105C190.681 78.1544 189.305 80.7367 190.049 83.1782C190.49 84.6245 191.576 85.697 192.895 86.1764" stroke="black" stroke-width="1.38642" stroke-linecap="round" stroke-linejoin="round"/>
            <path d="M208.749 120.891C218.732 121.631 224.924 117.349 225.386 113.035C223.538 111.187 226.773 110.263 227.697 113.036C229.391 118.119 238.326 120.429 227.697 126.899C217.068 133.369 217.068 133.985 210.136 135.68C206.069 135.31 212.447 125.512 208.749 120.891Z" fill="white" stroke="black" stroke-width="1.27789" stroke-linecap="round" stroke-linejoin="round"/>
            <path d="M200.893 131.983C202.742 126.899 205.823 122.894 208.288 120.429C202.003 120.429 203.512 118.273 203.666 115.346C200.893 115.346 198.398 118.673 197.658 120.892C196.919 123.11 194.423 125.513 192.113 125.513C193.222 126.992 197.042 129.364 200.893 131.983Z" fill="white" stroke="black" stroke-width="1.27789" stroke-linecap="round" stroke-linejoin="round"/>
            <path d="M208.288 121.816C204.128 127.67 198.583 145.2 196.734 151.855" stroke="black" stroke-width="1.27789" stroke-linecap="round" stroke-linejoin="round"/>
        </g>
    </g>
    <defs>
        <clipPath id="clip0_2918_65683">
            <rect width="352" height="238" fill="white"/>
        </clipPath>
    </defs>
</svg>
