<svg width="204" height="180" viewBox="0 0 204 180" fill="none" xmlns="http://www.w3.org/2000/svg">
<path d="M1 145.184C1 149.438 3.68536 152.879 6.99862 152.879H162.441C165.755 152.879 168.44 149.432 168.44 145.184V55.1487H1V145.184Z" fill="#D1E3F8"/>
<path opacity="0.74" d="M145.832 139.666C141.002 139.663 136.421 141.804 133.329 145.512C131.421 139.5 126.21 135.128 119.953 134.29C121.007 130.261 119.332 126.014 115.811 123.786C112.289 121.558 107.73 121.861 104.535 124.535C101.34 127.21 100.243 131.642 101.821 135.496C97.2686 133.088 91.6736 133.954 88.0629 137.625C87.8858 132.988 85.5569 128.699 81.7633 126.022C77.9698 123.346 73.1449 122.588 68.7125 123.973C68.7244 123.714 68.7323 123.456 68.7323 123.193C68.7471 115.625 63.0787 109.248 55.5547 108.37C48.0308 107.492 41.0437 112.391 39.3118 119.759C33.8868 116.487 27.1382 116.312 21.5509 119.299C15.9637 122.285 12.3639 127.992 12.0771 134.316C11.4184 134.202 10.7513 134.144 10.0828 134.143C6.54995 134.14 3.2076 135.743 1 138.499V145.184C1 149.438 3.68536 152.878 6.99862 152.878H161.831C160.359 145.211 153.646 139.668 145.832 139.666Z" fill="white"/>
<path fill-rule="evenodd" clip-rule="evenodd" d="M1 145.184C1 149.438 3.68536 152.879 6.99862 152.879H162.441C165.755 152.879 168.44 149.432 168.44 145.184V55.1487H1V145.184Z" stroke="#2B2E4A" stroke-width="0.75"/>
<path d="M162.441 38.7722H6.99862C3.68567 38.7722 1 41.4556 1 44.7657V55.1486H168.44V44.7657C168.44 41.4556 165.754 38.7722 162.441 38.7722V38.7722Z" fill="#8BBAF1" stroke="#2B2E4A" stroke-width="0.75"/>
<path d="M8.40244 50.394C9.57037 50.394 10.5172 49.448 10.5172 48.2811C10.5172 47.1142 9.57037 46.1682 8.40244 46.1682C7.23451 46.1682 6.28772 47.1142 6.28772 48.2811C6.28772 49.448 7.23451 50.394 8.40244 50.394Z" fill="#2B2E4A"/>
<path d="M15.4536 50.394C16.6215 50.394 17.5683 49.448 17.5683 48.2811C17.5683 47.1142 16.6215 46.1682 15.4536 46.1682C14.2857 46.1682 13.3389 47.1142 13.3389 48.2811C13.3389 49.448 14.2857 50.394 15.4536 50.394Z" fill="#2B2E4A"/>
<path d="M22.5027 50.394C23.6707 50.394 24.6174 49.448 24.6174 48.2811C24.6174 47.1142 23.6707 46.1682 22.5027 46.1682C21.3348 46.1682 20.388 47.1142 20.388 48.2811C20.388 49.448 21.3348 50.394 22.5027 50.394Z" fill="#2B2E4A"/>
<path d="M150.462 47.0482H160.684" stroke="#2B2E4A" stroke-width="0.75"/>
<path d="M59.6435 147.21C61.7154 147.21 63.3951 145.532 63.3951 143.462C63.3951 141.392 61.7154 139.714 59.6435 139.714V115.203" stroke="#2B2E4A" stroke-width="0.75" stroke-linecap="round"/>
<path d="M48.5861 115.203V134.251C47.066 134.291 45.8547 135.534 45.8547 137.053C45.8547 138.573 47.066 139.815 48.5861 139.856" stroke="#2B2E4A" stroke-width="0.75" stroke-linecap="round"/>
<path d="M52.3377 132.367V150.32" stroke="#2B2E4A" stroke-width="0.75" stroke-linecap="round"/>
<path d="M56.2868 128.816V144.993" stroke="#2B2E4A" stroke-width="0.75" stroke-linecap="round"/>
<path d="M66.3569 140.061C66.3569 136.465 69.2742 133.551 72.8728 133.551C76.4715 133.551 79.3888 136.465 79.3888 140.061" stroke="#2B2E4A" stroke-width="0.75" stroke-linecap="round"/>
<path d="M29.6307 137.694C29.6307 135.841 31.1336 134.34 32.9874 134.34C34.8413 134.34 36.3441 135.841 36.3441 137.694" stroke="#2B2E4A" stroke-width="0.75" stroke-linecap="round"/>
<path d="M94.5927 146.768C94.5927 144.916 96.0955 143.415 97.9494 143.415C99.8032 143.415 101.306 144.916 101.306 146.768" stroke="#2B2E4A" stroke-width="0.75" stroke-linecap="round"/>
<path d="M14.0318 146.769C14.0318 143.282 16.8607 140.456 20.3503 140.456C23.8399 140.456 26.6688 143.282 26.6688 146.769" stroke="#2B2E4A" stroke-width="0.75" stroke-linecap="round"/>
<path opacity="0.68" d="M8.30566 68.2499C9.72331 68.2499 10.8725 67.1017 10.8725 65.6853C10.8725 64.2688 9.72331 63.1206 8.30566 63.1206C6.888 63.1206 5.73877 64.2688 5.73877 65.6853C5.73877 67.1017 6.888 68.2499 8.30566 68.2499Z" fill="white"/>
<path d="M62.8774 72.4936V127.792C62.8763 128.062 63.0384 128.305 63.2878 128.409C63.5372 128.512 63.8244 128.455 64.0148 128.263C69.4309 122.834 91.2633 97.8819 64.0049 72.0201C63.8128 71.8374 63.5307 71.7857 63.2862 71.8884C63.0417 71.9911 62.8812 72.2287 62.8774 72.4936Z" fill="#FF847C"/>
<path d="M64.0148 128.255C68.9749 123.284 87.6815 101.948 69.8891 78.5264C68.495 79.7633 67.6894 81.3988 67.7171 83.0027C67.8553 89.6413 68.1515 93.2614 68.1515 93.2614C68.1515 93.2614 72.839 89.7833 73.2556 102.234C73.6723 114.684 62.8716 119.524 62.8716 119.524V127.792C62.8712 128.063 63.0355 128.307 63.2868 128.409C63.538 128.511 63.8261 128.45 64.0148 128.255Z" fill="#ED6663"/>
<path fill-rule="evenodd" clip-rule="evenodd" d="M62.8774 72.4936V127.792C62.8763 128.062 63.0384 128.305 63.2878 128.409C63.5372 128.512 63.8244 128.455 64.0148 128.263C69.4309 122.834 91.2633 97.8819 64.0049 72.0201C63.8128 71.8374 63.5307 71.7857 63.2862 71.8884C63.0417 71.9911 62.8812 72.2287 62.8774 72.4936Z" stroke="#2B2E4A" stroke-width="0.75"/>
<path d="M44.4629 72.4937V127.792C44.4641 128.062 44.3019 128.306 44.0525 128.409C43.8031 128.512 43.5159 128.455 43.3256 128.264C37.9095 122.834 16.0771 97.882 43.3256 72.0203C43.5169 71.8307 43.8035 71.7747 44.0522 71.8782C44.3009 71.9818 44.4629 72.2245 44.4629 72.4937Z" fill="#FF847C"/>
<path d="M44.463 77.244C42.7392 77.0132 40.2671 76.8495 38.3538 77.3742C37.3433 78.6203 36.3995 79.9189 35.5263 81.2646C35.5631 81.5581 35.6199 81.8488 35.6961 82.1347C35.6961 82.1347 42.2476 103.329 38.3716 112.601C35.7514 118.691 31.5358 109.346 31.5358 109.346C34.4976 118.717 40.7568 125.681 43.3257 128.255C43.516 128.447 43.8032 128.504 44.0526 128.401C44.302 128.297 44.4641 128.054 44.463 127.784V77.244Z" fill="#ED6663"/>
<path fill-rule="evenodd" clip-rule="evenodd" d="M44.4629 72.4937V127.792C44.4641 128.062 44.3019 128.306 44.0525 128.409C43.8031 128.512 43.5159 128.455 43.3256 128.264C37.9095 122.834 16.0771 97.882 43.3256 72.0203C43.5169 71.8307 43.8035 71.7747 44.0522 71.8782C44.3009 71.9818 44.4629 72.2245 44.4629 72.4937Z" stroke="#2B2E4A" stroke-width="0.75"/>
<path d="M59.7044 111.51H47.255C46.1887 111.51 45.3594 110.749 45.4779 109.877L46.5777 101.727C46.6784 100.983 47.4445 100.419 48.3548 100.419H58.4585C59.3608 100.419 60.121 100.972 60.2355 101.707L61.4716 109.857C61.6177 110.735 60.7805 111.51 59.7044 111.51Z" fill="#2B2E4A" stroke="#2B2E4A" stroke-width="0.75"/>
<path d="M53.7492 15.6368C53.7492 15.6368 13.9723 45.3772 44.5479 104.72H62.9525C93.5281 45.3772 53.7492 15.6368 53.7492 15.6368Z" fill="#FFE8E8"/>
<path d="M53.7492 15.6368C54.0908 15.9624 74.1599 35.3651 65.237 77.7414C61.9139 94.4788 53.7452 71.9314 53.7452 71.9314L54.5982 104.716H62.9584C93.528 45.3772 53.7492 15.6368 53.7492 15.6368Z" fill="#FF847C"/>
<path fill-rule="evenodd" clip-rule="evenodd" d="M53.7492 15.6368C53.7492 15.6368 13.9723 45.3772 44.5479 104.72H62.9525C93.5281 45.3772 53.7492 15.6368 53.7492 15.6368Z" stroke="#2B2E4A" stroke-width="0.75"/>
<path d="M53.1035 73.849C45.3732 98.1502 51.0757 121.455 53.1035 128.299C53.1876 128.582 53.4479 128.776 53.7433 128.776C54.0386 128.776 54.2989 128.582 54.383 128.299C56.4089 121.455 62.1093 98.1502 54.383 73.849C54.2989 73.5661 54.0386 73.3721 53.7433 73.3721C53.4479 73.3721 53.1876 73.5661 53.1035 73.849Z" fill="#FF847C"/>
<path d="M54.379 128.297C56.4049 121.455 62.1054 98.1502 54.379 73.847C54.3178 73.6555 54.1735 73.5019 53.9861 73.4288C53.7988 73.3556 53.5884 73.3708 53.4135 73.4702C53.4273 73.6023 53.4451 73.7365 53.4668 73.8647C53.4668 73.8647 57.7575 96.8264 52.6355 110.798C51.8102 113.053 51.1132 115.083 50.5485 116.914C51.1645 120.756 52.0178 124.557 53.1035 128.295C53.1893 128.575 53.4477 128.766 53.7405 128.766C54.0334 128.767 54.2923 128.576 54.379 128.297Z" fill="#ED6663"/>
<path fill-rule="evenodd" clip-rule="evenodd" d="M53.1035 73.849C45.3732 98.1502 51.0757 121.455 53.1035 128.299C53.1876 128.582 53.4479 128.776 53.7433 128.776C54.0386 128.776 54.2989 128.582 54.383 128.299C56.4089 121.455 62.1093 98.1502 54.383 73.849C54.2989 73.5661 54.0386 73.3721 53.7433 73.3721C53.4479 73.3721 53.1876 73.5661 53.1035 73.849Z" stroke="#2B2E4A" stroke-width="0.75"/>
<path d="M53.7392 60.1795C59.5505 60.1795 64.2615 55.4725 64.2615 49.6663C64.2615 43.86 59.5505 39.1531 53.7392 39.1531C47.928 39.1531 43.217 43.86 43.217 49.6663C43.217 55.4725 47.928 60.1795 53.7392 60.1795Z" fill="#FF847C"/>
<path d="M55.3998 62.2527C61.2111 62.2527 65.9221 57.5458 65.9221 51.7395C65.9221 45.9332 61.2111 41.2263 55.3998 41.2263C49.5885 41.2263 44.8776 45.9332 44.8776 51.7395C44.8776 57.5458 49.5885 62.2527 55.3998 62.2527Z" fill="#FF847C"/>
<path fill-rule="evenodd" clip-rule="evenodd" d="M53.7392 60.1795C59.5505 60.1795 64.2615 55.4725 64.2615 49.6663C64.2615 43.86 59.5505 39.1531 53.7392 39.1531C47.928 39.1531 43.217 43.86 43.217 49.6663C43.217 55.4725 47.928 60.1795 53.7392 60.1795Z" stroke="#2B2E4A" stroke-width="0.75"/>
<path opacity="0.63" d="M53.7393 58.1037C58.4034 58.1037 62.1844 54.326 62.1844 49.6659C62.1844 45.0059 58.4034 41.2281 53.7393 41.2281C49.0752 41.2281 45.2943 45.0059 45.2943 49.6659C45.2943 54.326 49.0752 58.1037 53.7393 58.1037Z" fill="white"/>
<path d="M52.1144 57.9541L61.3236 45.9573C60.8088 44.9145 60.085 43.9885 59.197 43.2368L48.9294 56.6106C49.8865 57.274 50.971 57.7315 52.1144 57.9541Z" fill="white"/>
<path d="M47.7189 55.5863L57.8957 42.327C57.36 42.0216 56.7917 41.7775 56.2015 41.599L46.5757 54.1383C46.9022 54.6616 47.2856 55.1472 47.7189 55.5863Z" fill="white"/>
<path fill-rule="evenodd" clip-rule="evenodd" d="M53.7393 58.1037C58.4034 58.1037 62.1844 54.326 62.1844 49.6659C62.1844 45.0059 58.4034 41.2281 53.7393 41.2281C49.0752 41.2281 45.2943 45.0059 45.2943 49.6659C45.2943 54.326 49.0752 58.1037 53.7393 58.1037Z" stroke="#2B2E4A" stroke-width="0.75"/>
<path d="M66.1452 30.4981C60.3796 20.5946 53.7491 15.6368 53.7491 15.6368C53.7491 15.6368 47.5886 20.2454 41.9789 29.4466C46.1886 27.7835 56.0889 24.3508 66.1452 30.4981Z" fill="#FF847C"/>
<path d="M61.9357 28.4445C63.4017 28.9923 64.8115 29.68 66.1454 30.4982C66.0624 30.3562 65.9795 30.2181 65.8985 30.078L65.8571 30.007L65.6122 29.6006L65.5826 29.5532C65.2272 28.9667 64.8705 28.3991 64.5124 27.8507V27.8389C64.4236 27.7047 64.3367 27.5706 64.2478 27.4443L64.2301 27.4167C61.7019 23.5775 58.7082 20.0655 55.317 16.9607C55.0682 16.7358 54.8432 16.5405 54.6477 16.3688L54.6279 16.3531L54.5095 16.2564L54.4917 16.2386L54.1363 15.9447L54.1145 15.9329L54.0593 15.8895L54.0316 15.8678L53.9823 15.8283L53.9605 15.8105L53.8401 15.7158L53.8223 15.702L53.8006 15.6863L53.7868 15.6744L53.773 15.6646H53.7611C53.8993 15.7888 58.186 19.9337 61.9357 28.4445Z" fill="#ED6663"/>
<path fill-rule="evenodd" clip-rule="evenodd" d="M66.1452 30.4981C60.3796 20.5946 53.7491 15.6368 53.7491 15.6368C53.7491 15.6368 47.5886 20.2454 41.9789 29.4466C46.1886 27.7835 56.0889 24.3508 66.1452 30.4981Z" stroke="#2B2E4A" stroke-width="0.75"/>
<path d="M125.993 80.0968C125.993 82.403 126.91 84.6147 128.543 86.2453C130.175 87.8758 132.389 88.7916 134.697 88.7911H194.296C196.604 88.7916 198.818 87.8758 200.45 86.2453C202.083 84.6147 203 82.403 203 80.0968V14.021H125.993V80.0968Z" fill="#D1E3F8" stroke="#2B2E4A" stroke-width="0.75"/>
<rect x="141" y="29.0146" width="52.5225" height="1.97283" rx="0.986413" fill="#2B2E4A" stroke="#2B2E4A" stroke-width="0.75"/>
<rect x="150.675" y="24.4772" width="17.7708" height="11.6397" rx="5.81983" fill="#ED6663"/>
<path d="M156.5 24.4772C153.283 24.4772 150.675 27.0828 150.675 30.297C150.673 31.6253 151.129 32.9138 151.964 33.9467H157.69C160.907 33.9467 163.515 31.3411 163.515 28.1269C163.517 26.7987 163.061 25.5103 162.226 24.4772L156.5 24.4772Z" fill="#FF847C"/>
<rect x="150.675" y="24.4772" width="17.7708" height="11.6397" rx="5.81983" stroke="#2B2E4A" stroke-width="0.75"/>
<rect x="141" y="44.4025" width="52.5225" height="1.97282" rx="0.986412" fill="#2B2E4A" stroke="#2B2E4A" stroke-width="0.75"/>
<rect x="167.458" y="39.8651" width="17.7708" height="11.6397" rx="5.81984" fill="#ED6663"/>
<path d="M173.283 39.8651C170.066 39.8651 167.458 42.4707 167.458 45.6849C167.457 47.0132 167.912 48.3017 168.748 49.3347H174.474C177.691 49.3347 180.299 46.729 180.299 43.5148C180.3 42.1866 179.845 40.8982 179.009 39.8651L173.283 39.8651Z" fill="#FF847C"/>
<rect x="167.458" y="39.8651" width="17.7708" height="11.6397" rx="5.81984" stroke="#2B2E4A" stroke-width="0.75"/>
<rect opacity="0.68" x="141" y="60.5797" width="54.1021" height="13.4152" rx="6.7076" fill="white"/>
<rect opacity="0.68" x="141" y="78.5326" width="54.1021" height="4.73478" rx="2.36739" fill="white"/>
<path d="M194.296 1H134.697C129.89 1 125.993 4.89343 125.993 9.69621V14.0206H203V9.69621C203 4.89343 199.103 1 194.296 1Z" fill="#8BBAF1" stroke="#2B2E4A" stroke-width="0.75"/>
<path d="M191.548 7.41798H198.008" stroke="#2B2E4A" stroke-width="0.75" stroke-linecap="round"/>
<path d="M140.407 9.33359C141.565 9.33359 142.504 8.39556 142.504 7.23845C142.504 6.08134 141.565 5.14331 140.407 5.14331C139.249 5.14331 138.31 6.08134 138.31 7.23845C138.31 8.39556 139.249 9.33359 140.407 9.33359Z" fill="#2B2E4A"/>
<path d="M147.393 9.33359C148.551 9.33359 149.49 8.39556 149.49 7.23845C149.49 6.08134 148.551 5.14331 147.393 5.14331C146.235 5.14331 145.296 6.08134 145.296 7.23845C145.296 8.39556 146.235 9.33359 147.393 9.33359Z" fill="#2B2E4A"/>
<path d="M133.421 9.33359C134.58 9.33359 135.518 8.39556 135.518 7.23845C135.518 6.08134 134.58 5.14331 133.421 5.14331C132.263 5.14331 131.324 6.08134 131.324 7.23845C131.324 8.39556 132.263 9.33359 133.421 9.33359Z" fill="#2B2E4A"/>
<path d="M117.522 37.3656L117.134 36.9881C116.879 36.7385 116.925 36.3529 117.22 36.2589L118.559 36.1488C118.818 36.1311 119.062 36.02 119.245 35.836L119.998 35.196C119.998 35.196 121.649 35.802 117.522 37.3656Z" fill="#2B2E4A" stroke="#2B2E4A" stroke-width="0.75" stroke-linecap="round"/>
<path d="M122.106 31.6318C122.106 31.6318 121.754 34.0233 119.025 36.0065C115.457 38.5989 116.43 46.2142 123.89 46.2142C131.349 46.2142 131.836 33.4141 126.809 31.6318C123.392 30.4215 122.106 31.6318 122.106 31.6318Z" fill="#F0BFA4"/>
<path d="M127.782 38.5988C126.16 35.1962 130.539 36.3304 127.457 33.0899C126.559 32.1453 125.328 31.4696 124.081 31.0953C122.682 31.0953 122.106 31.6316 122.106 31.6316C122.106 31.6316 121.838 33.4415 119.974 35.2173C120.225 35.5685 120.571 35.842 120.971 36.0064C122.268 36.4924 118.701 38.7608 121.295 40.3811C122.592 39.895 122.755 37.7886 123.079 38.7608C123.403 39.733 122.106 44.1077 124.701 44.4317C127.295 44.7558 129.403 42.0013 127.782 38.5988Z" fill="#EAB292"/>
<path fill-rule="evenodd" clip-rule="evenodd" d="M122.106 31.6318C122.106 31.6318 121.754 34.0233 119.025 36.0065C115.457 38.5989 116.43 46.2142 123.89 46.2142C131.349 46.2142 131.836 33.4141 126.809 31.6318C123.392 30.4215 122.106 31.6318 122.106 31.6318Z" stroke="#2B2E4A" stroke-width="0.75" stroke-linecap="round"/>
<path d="M130.863 35.6821C130.863 35.6821 133.944 37.9634 131.674 41.677C129.404 45.3907 124.863 45.2611 124.701 41.677C124.539 37.9504 123.079 38.9226 122.593 39.8947C122.106 40.8669 120.809 40.3808 121.457 38.4365C122.106 36.4922 124.214 32.6036 126.16 33.0896C128.106 33.5757 130.863 35.6821 130.863 35.6821Z" fill="#2B2E4A" stroke="#2B2E4A" stroke-width="0.75" stroke-linecap="round"/>
<path d="M150.485 30.9841C151.782 30.336 153.08 25.9613 150.485 26.6094C144.54 28.2037 146.994 49.0257 145.054 51.5112C146.099 53.6418 148.147 58.5836 147.461 63.4007C147.818 63.2516 148.177 63.0858 148.539 62.9033C159.404 57.3944 149.188 31.6322 150.485 30.9841Z" fill="#F0BFA4"/>
<path d="M150.396 31.1151C149.167 30.7392 148.747 32.5604 150.647 44.4304C151.867 52.0457 149.775 57.1139 147.326 58.3647C147.631 60.0257 147.677 61.7239 147.461 63.3989C147.817 63.2498 148.177 63.084 148.539 62.9014C159.067 57.5659 149.802 33.2215 150.396 31.1151Z" fill="#EAB292"/>
<path fill-rule="evenodd" clip-rule="evenodd" d="M150.485 30.9841C151.782 30.336 153.08 25.9613 150.485 26.6094C144.54 28.2037 146.994 49.0257 145.054 51.5112C146.099 53.6418 148.147 58.5836 147.461 63.4007C147.818 63.2516 148.177 63.0858 148.539 62.9033C159.404 57.3944 149.188 31.6322 150.485 30.9841Z" stroke="#2B2E4A" stroke-width="0.75" stroke-linecap="round"/>
<path d="M149.4 152.231C144.057 140.661 139.794 125.438 142.377 114.103C146.107 97.7383 144.323 82.8318 144.323 82.8318C139.944 79.9154 119.025 90.7711 122.268 113.779C124.561 130.04 135.924 146.704 143.938 156.453C145.782 155.7 148.053 154.396 149.4 152.231Z" fill="#48426D"/>
<path d="M149.4 152.231C144.057 140.661 139.794 125.438 142.377 114.103C146.107 97.7383 144.323 82.8318 144.323 82.8318C139.944 79.9154 119.025 90.7711 122.268 113.779C122.418 114.851 122.608 115.925 122.837 116.998C124.096 117.522 125.516 117.18 127.133 116.209C127.133 116.209 135.404 111.511 137.512 125.445C139.038 135.533 142.179 146.638 146.997 154.772C147.952 154.084 148.767 153.222 149.4 152.231Z" fill="#2B2E4A"/>
<path fill-rule="evenodd" clip-rule="evenodd" d="M149.4 152.231C144.057 140.661 139.794 125.438 142.377 114.103C146.107 97.7383 144.323 82.8318 144.323 82.8318C139.944 79.9154 119.025 90.7711 122.268 113.779C124.561 130.04 135.924 146.704 143.938 156.453C145.782 155.7 148.053 154.396 149.4 152.231Z" stroke="#2B2E4A" stroke-width="0.75" stroke-linecap="round"/>
<path d="M145.054 51.5112C144.825 51.8061 144.535 51.8433 144.161 51.5614C136.214 45.5664 127.457 45.4044 127.457 45.4044L128.43 57.8804C128.43 57.8804 137.069 67.7219 147.461 63.4007C148.147 58.5836 146.107 53.637 145.054 51.5112Z" fill="#48426D"/>
<path d="M143.188 56.2601C141.024 51.8173 135.744 47.9967 133.154 46.3181C132.032 46.0281 131.025 45.8321 130.18 45.6943C128.919 47.441 128.79 53.4068 130.727 60.011C133.97 62.6293 140.294 66.3786 147.461 63.4006C147.677 61.7257 147.631 60.0274 147.326 58.3664C145.865 59.1101 144.277 58.4977 143.188 56.2601Z" fill="#2B2E4A"/>
<path fill-rule="evenodd" clip-rule="evenodd" d="M145.054 51.5112C144.825 51.8061 144.535 51.8433 144.161 51.5614C136.214 45.5664 127.457 45.4044 127.457 45.4044L128.43 57.8804C128.43 57.8804 137.069 67.7219 147.461 63.4007C148.147 58.5836 146.107 53.637 145.054 51.5112Z" stroke="#2B2E4A" stroke-width="0.75" stroke-linecap="round"/>
<path d="M122.056 158.855C120.149 148.926 119.673 136.27 125.836 123.501C138.971 96.2801 134.542 89.1752 134.542 89.1752C134.815 79.3159 118.863 78.2952 115.781 79.4294C112.7 80.5635 106.862 94.0117 105.403 119.612C104.462 136.116 110.193 150.128 115.295 159.738C117.176 160.073 119.876 160.193 122.056 158.855Z" fill="#48426D"/>
<path d="M125.836 123.501C136.568 101.263 135.576 92.4516 134.852 89.971C128.17 87.2765 117.752 84.057 112.115 84.5075C111.185 86.6412 110.401 88.8358 109.769 91.076C111.739 94.2128 115.66 99.2859 121.133 100.817C129.241 103.085 110.106 139.379 118.863 158.822L119.315 159.832C120.284 159.691 121.215 159.361 122.056 158.86C120.149 148.926 119.674 136.27 125.836 123.501Z" fill="#2B2E4A"/>
<path fill-rule="evenodd" clip-rule="evenodd" d="M122.056 158.855C120.149 148.926 119.673 136.27 125.836 123.501C138.971 96.2801 134.542 89.1752 134.542 89.1752C134.815 79.3159 118.863 78.2952 115.781 79.4294C112.7 80.5635 106.862 94.0117 105.403 119.612C104.462 136.116 110.193 150.128 115.295 159.738C117.176 160.073 119.876 160.193 122.056 158.855Z" stroke="#2B2E4A" stroke-width="0.75" stroke-linecap="round"/>
<path d="M130.889 36.4928C130.889 36.4928 122.659 36.1542 118.052 29.6877C114.646 24.0168 135.827 36.1526 130.889 36.4928Z" fill="#8BBAF1" stroke="#2B2E4A" stroke-width="0.75" stroke-linecap="round"/>
<path d="M121.42 30.18C121.235 29.8961 121.276 29.5207 121.519 29.284C122.563 28.2616 125.643 25.7194 129.566 26.771C134.431 28.0672 132.253 36.0389 131.559 36.2657C130.892 36.4844 123.854 33.9601 121.42 30.18Z" fill="#8BBAF1"/>
<path d="M130.103 26.9537C130.597 28.2775 130.959 30.319 130.052 32.7656C128.68 35.5071 123.872 30.6593 123.433 32.3573C126.501 34.8882 131.03 36.4388 131.559 36.2654C132.227 36.0483 134.269 28.6842 130.103 26.9537Z" fill="#6886C5"/>
<path d="M121.519 29.284C122.563 28.2616 125.643 25.7194 129.566 26.771C134.431 28.0672 132.253 36.0389 131.559 36.2657C131.025 36.4391 126.485 34.8804 123.403 32.3382" stroke="#2B2E4A" stroke-width="0.75" stroke-linecap="round"/>
<path d="M110.307 91.1439C109.525 90.6806 109.151 89.7506 109.395 88.8755C110.336 85.5832 112.503 77.1076 112.376 69.2299C112.214 59.1842 112.376 48.0044 125.349 46.7082C138.123 45.4331 142.878 57.8216 146.269 88.2064C146.362 89.0749 145.881 89.9034 145.08 90.2544C140.212 92.3834 123.178 98.8126 110.307 91.1439Z" fill="#48426D"/>
<path d="M145.08 90.2549C145.884 89.903 146.365 89.0701 146.269 88.1988C145.925 85.1106 145.564 82.2076 145.185 79.4899C145.014 79.5628 144.834 79.6519 144.644 79.754C141.4 81.5363 113.612 88.3414 110.803 84.537C110.803 84.537 113.508 91.5819 132.319 90.2857C138.546 89.785 136.686 91.5819 135.524 93.4484C138.795 92.6586 141.992 91.5901 145.08 90.2549Z" fill="#2B2E4A"/>
<path fill-rule="evenodd" clip-rule="evenodd" d="M110.307 91.1439C109.525 90.6806 109.151 89.7506 109.395 88.8755C110.336 85.5832 112.503 77.1076 112.376 69.2299C112.214 59.1842 112.376 48.0044 125.349 46.7082C138.123 45.4331 142.878 57.8216 146.269 88.2064C146.362 89.0749 145.881 89.9034 145.08 90.2544C140.212 92.3834 123.178 98.8126 110.307 91.1439Z" stroke="#2B2E4A" stroke-width="0.75" stroke-linecap="round"/>
<path d="M119.511 47.5104C119.511 47.5104 120.395 44.5939 124.281 43.6218C128.166 42.6496 129.7 44.6231 129.374 45.8237C129.048 47.0243 119.511 47.5104 119.511 47.5104Z" fill="#48426D" stroke="#2B2E4A" stroke-width="0.75" stroke-linecap="round"/>
<path d="M146.431 81.3735C143.674 57.5556 138.501 43.8368 124.376 45.4036C111.418 46.8424 115.133 59.5615 112.376 69.2215C110.754 74.8924 110.621 77.5108 110.106 81.0494C107.025 92.0672 147.868 89.9657 146.431 81.3735Z" fill="#D5CDE0"/>
<path d="M124.376 45.4036C123.658 45.4817 122.945 45.6068 122.242 45.7779C121.756 45.9108 121.412 46.0128 121.269 46.0582L121.193 46.0825C121.472 46.0145 134.638 42.889 138.488 65.1708C142.361 83.0812 120.982 90.5782 110.077 83.1801C112.556 91.7399 147.767 89.3614 146.431 81.3735C143.674 57.5556 138.501 43.8368 124.376 45.4036Z" fill="#8F8AB0"/>
<path d="M143.543 64.4045C141.658 65.3767 125.885 73.0729 113.338 64.0967C113.154 65.8277 112.832 67.5414 112.376 69.2216C111.823 71.1545 111.444 72.7327 111.163 74.1131C113.977 75.3964 130.905 82.3976 145.056 72.3163C145.091 72.2855 145.122 72.2547 145.155 72.2239C144.682 69.4198 144.145 66.8133 143.543 64.4045Z" fill="white"/>
<path fill-rule="evenodd" clip-rule="evenodd" d="M146.431 81.3735C143.674 57.5556 138.501 43.8368 124.376 45.4036C111.418 46.8424 115.133 59.5615 112.376 69.2215C110.754 74.8924 110.621 77.5108 110.106 81.0494C107.025 92.0672 147.868 89.9657 146.431 81.3735Z" stroke="#2B2E4A" stroke-width="0.75" stroke-linecap="round"/>
<path d="M106.664 65.0224C103.977 68.6308 95.2934 45.1872 86.9159 49.2929C84.6456 50.9132 86.1051 53.5056 88.2132 53.1816C90.3214 52.8575 90.97 53.8297 92.916 58.8525C94.862 63.8753 98.634 83.4659 112.214 74.7311C112.569 74.4815 112.911 74.2174 113.244 73.942C109.03 71.6655 107.349 67.8158 106.664 65.0224Z" fill="#F0BFA4"/>
<path d="M112.214 74.731C112.569 74.4815 112.911 74.2174 113.244 73.9419C111.413 72.9596 109.855 71.5368 108.713 69.8022C98.9163 75.0551 92.7411 52.7748 89.8545 53.3468C90.8567 53.8701 91.5816 55.4094 92.9162 58.8557C94.8622 63.859 98.6342 83.4658 112.214 74.731Z" fill="#EAB292"/>
<path fill-rule="evenodd" clip-rule="evenodd" d="M106.664 65.0224C103.977 68.6308 95.2934 45.1872 86.9159 49.2929C84.6456 50.9132 86.1051 53.5056 88.2132 53.1816C90.3214 52.8575 90.97 53.8297 92.916 58.8525C94.862 63.8753 98.634 83.4659 112.214 74.7311C112.569 74.4815 112.911 74.2174 113.244 73.942C109.03 71.6655 107.349 67.8158 106.664 65.0224Z" stroke="#2B2E4A" stroke-width="0.75" stroke-linecap="round"/>
<path d="M117.403 48.3205C117.403 48.3205 114.16 49.2927 106.862 64.6852C106.808 64.8038 106.741 64.9167 106.664 65.0222C107.341 67.8155 109.03 71.6652 113.244 73.9417C123.58 65.3721 122.536 45.6714 117.403 48.3205Z" fill="#48426D"/>
<path d="M111.727 68.0873C110.736 69.0594 109.728 69.6006 108.713 69.8015C109.855 71.5362 111.412 72.959 113.244 73.9413C122.896 65.9404 122.623 48.2375 118.368 48.0819C118.376 48.1581 120.293 59.6911 111.727 68.0873Z" fill="#2B2E4A"/>
<path fill-rule="evenodd" clip-rule="evenodd" d="M117.403 48.3205C117.403 48.3205 114.16 49.2927 106.862 64.6851C106.808 64.8038 106.741 64.9167 106.664 65.0222C107.341 67.8155 109.03 71.6652 113.244 73.9417C123.58 65.3721 122.536 45.6714 117.403 48.3205Z" stroke="#2B2E4A" stroke-width="0.75" stroke-linecap="round"/>
<path d="M125.656 172.391C124.605 169.014 123.111 164.353 122.056 158.855C119.876 160.193 117.176 160.074 115.298 159.738C118.11 165.035 120.734 168.996 121.947 171.299C122.145 171.668 122.305 172.057 122.424 172.459C123.444 172.663 124.618 172.736 125.656 172.391Z" fill="#F0BFA4"/>
<path d="M119.315 159.832C122.185 166.265 123.663 170.179 124.323 172.624C124.776 172.608 125.224 172.529 125.656 172.391C124.605 169.014 123.111 164.353 122.056 158.855C121.215 159.358 120.284 159.69 119.315 159.832Z" fill="#EAB292"/>
<path fill-rule="evenodd" clip-rule="evenodd" d="M125.656 172.391C124.605 169.014 123.111 164.353 122.056 158.855C119.876 160.193 117.176 160.074 115.298 159.738C118.11 165.035 120.734 168.996 121.947 171.299C122.145 171.668 122.305 172.057 122.424 172.459C123.444 172.663 124.618 172.736 125.656 172.391Z" stroke="#48426D" stroke-width="0.75" stroke-linecap="round"/>
<path d="M113.836 178.266C113.836 179.4 123.241 179.076 126.485 178.266C127.365 178.047 126.752 175.918 125.656 172.391C124.618 172.736 123.444 172.663 122.421 172.459C123.919 177.704 113.836 177.205 113.836 178.266Z" fill="#48426D" stroke="#48426D" stroke-width="0.75" stroke-linecap="round"/>
<path d="M155.026 162.519C153.177 159.717 151.226 156.192 149.399 152.238C148.051 154.403 145.787 155.707 143.937 156.461C147.261 160.511 150.01 163.361 151.294 164.5C151.716 164.871 152.06 165.322 152.306 165.827C153.42 164.949 154.338 163.687 155.026 162.519Z" fill="#EAB292" stroke="#2B2E4A" stroke-width="0.75" stroke-linecap="round"/>
<path d="M149.35 177.78C149.836 178.752 159.566 169.354 156.647 164.818C156.12 164.121 155.579 163.346 155.026 162.512C154.337 163.687 153.419 164.954 152.306 165.821C154.353 170.032 148.914 176.908 149.35 177.78Z" fill="#48426D" stroke="#48426D" stroke-width="0.75" stroke-linecap="round"/>
<path d="M127.457 45.4044C127.457 45.4044 138.16 56.2602 137.025 83.9667" stroke="#2B2E4A" stroke-width="0.75" stroke-linecap="round"/>
<path d="M122.804 29.325C123.409 28.7925 123.659 28.0887 123.363 27.7531C123.067 27.4174 122.337 27.577 121.732 28.1095C121.127 28.6419 120.877 29.3457 121.173 29.6814C121.469 30.0171 122.199 29.8575 122.804 29.325Z" fill="white" stroke="#2B2E4A" stroke-width="0.75" stroke-linecap="round"/>
<path d="M120.872 36.7856C121.139 36.7856 121.355 36.5694 121.355 36.3028C121.355 36.0361 121.139 35.8199 120.872 35.8199C120.605 35.8199 120.389 36.0361 120.389 36.3028C120.389 36.5694 120.605 36.7856 120.872 36.7856Z" fill="#2B2E4A"/>
<path d="M118.863 41.8392C119.221 41.8392 119.511 41.549 119.511 41.1911C119.511 40.8331 119.221 40.543 118.863 40.543C118.504 40.543 118.214 40.8331 118.214 41.1911C118.214 41.549 118.504 41.8392 118.863 41.8392Z" fill="#2B2E4A" stroke="#2B2E4A" stroke-width="0.75" stroke-linecap="round"/>
</svg>
