<svg width="453" height="154" viewBox="0 0 453 154" fill="none" xmlns="http://www.w3.org/2000/svg">
<path d="M130.87 1C130.87 1 143.325 1.30376 144.844 8.29033C146.362 15.2769 141.502 18.9221 147.881 21.3522C154.261 23.7823 152.742 38.0592 146.666 39.8818C140.591 41.7043 128.136 21.9597 129.047 14.9731L130.87 1Z" fill="#D5CDE0"/>
<path d="M130 21.2315C131.369 14.046 133.421 6.77677 136.3 8.17379C136.3 8.17379 142.157 7.57549 142.465 13.2593C142.727 18.0755 140.307 22.5328 144.931 24.3277C149.554 26.1226 142.893 36.9457 151 35.5726C150.075 37.6875 148.639 39.3418 146.78 39.8833C141.947 41.2923 133.135 29.6435 130 21.2315Z" fill="#8F8AB0"/>
<path d="M157.502 61.6897C157.711 63.4695 158.779 64.9847 161.113 66.606C168.885 72.0037 206.417 74.3681 203.77 84.9228C200.581 92.4756 200.459 83.1655 195.228 82.1701C192.229 81.5994 150.63 93.868 140.231 68.0649C147.405 62.7328 154.274 61.7976 157.502 61.6897Z" fill="#F0BFA4"/>
<path d="M140.228 68.0677C147.281 62.8509 154.065 61.8857 157.358 61.7777C156.979 62.8472 155.704 64.7244 151.643 67.224C145.08 71.2634 158.538 81.4211 173.744 81.4906C188.951 81.5602 195.87 78.1649 199.715 85.8966C198.744 84.496 197.476 82.9133 195.497 82.5307C192.49 81.9347 150.807 94.0011 140.228 68.0677Z" fill="#EAB292"/>
<path fill-rule="evenodd" clip-rule="evenodd" d="M157.502 61.6897C157.711 63.4695 158.779 64.9847 161.113 66.606C168.885 72.0037 206.417 74.3681 203.77 84.9228C200.581 92.4756 200.459 83.1655 195.228 82.1701C192.229 81.5994 150.63 93.868 140.231 68.0649C147.405 62.7328 154.274 61.7976 157.502 61.6897Z" stroke="#2B2E4A" stroke-width="0.75" stroke-linecap="round"/>
<path d="M133.622 32.1654C133.622 32.1654 145.005 30.2328 152.215 46.3129C157.209 57.4507 157.867 64.2863 161 66.9744C158.702 69.1832 154.282 74.3956 152.588 83C151.873 82.8271 151.155 82.6359 150.425 82.4175C122.172 73.9223 123.443 28.9373 133.622 32.1654Z" fill="#FF847C"/>
<path d="M145.753 46C145.753 46 152.644 47.0054 154.275 61.9926C155.385 72.1878 158.47 67.188 160.326 66.3964C160.531 66.6501 160.757 66.8857 161 67.1007C158.767 69.2921 154.474 74.4634 152.828 83C152.133 82.8284 151.436 82.6388 150.726 82.4221C149.312 81.9892 147.932 81.4427 146.6 80.7876C141.574 69.0332 142.309 47.8964 145.753 46Z" fill="#ED6663"/>
<path fill-rule="evenodd" clip-rule="evenodd" d="M133.622 32.1654C133.622 32.1654 145.005 30.2328 152.215 46.3129C157.209 57.4507 157.867 64.2863 161 66.9744C158.702 69.1832 154.282 74.3956 152.588 83C151.873 82.8271 151.155 82.6359 150.425 82.4175C122.172 73.9223 123.443 28.9373 133.622 32.1654Z" stroke="#2B2E4A" stroke-width="0.75" stroke-linecap="round"/>
<path d="M128.22 32C128.22 32 112.283 35.3692 105.541 58.341C98.7981 81.3127 102.476 88.0511 98.7981 93.5643C95.1204 99.0775 103.395 113.167 139.56 110.717C167.143 109.798 157.029 100.303 151.819 79.475C149.98 66.3045 157.335 54.6655 145.689 45.7831C134.043 36.9006 143.237 32.3063 128.22 32Z" fill="#FF847C"/>
<path d="M122.091 45.326C122.091 45.326 128.83 45.019 126.379 50.5449C123.929 56.0708 119.947 68.9646 126.992 72.9555C134.038 76.9465 113.207 83.7003 109.225 81.2444C105.243 78.7884 108.612 88.9193 106.162 91.9892C103.711 95.0592 114.739 111.023 156.914 105.65C156.914 105.65 156.948 105.693 157 105.773C155.076 108.77 150.046 110.378 139.539 110.716C103.393 113.172 95.1218 99.0501 98.7977 93.5242C102.474 87.9983 98.7977 81.2444 105.537 58.2198C111.241 49.4274 117.45 43.5178 122.091 45.326Z" fill="#ED6663"/>
<path d="M129.565 32C129.565 32 112.199 35.9511 105.496 58.7461C98.7934 81.5411 102.449 88.2277 98.7934 93.6985C95.1374 99.1693 103.363 113.15 139.314 110.719C169.78 108.287 154.547 97.9535 151.501 77.59C149.673 64.5209 156.985 55.0989 145.407 46.2849" stroke="#2B2E4A" stroke-width="0.75" stroke-linecap="round"/>
<path d="M121.564 31C121.564 31 101.752 40.0167 98.4996 56.2467C96.273 67.3672 101.67 78.8906 111.082 84C112.173 75.5844 117.883 69.8949 120.997 67.3642C115.467 61.7859 126 48.1287 126 48.1287" fill="#FF847C"/>
<path d="M98.5138 55.7535C101.858 39.235 122.23 30.0581 122.23 30.0581C122.342 30.0336 122.452 30.0214 122.564 30C125.769 30.2111 128.037 30.9177 128.615 31.8935C130.743 35.5643 135 43.7929 135 43.7929C135 43.7929 132.568 45.353 128.311 41.0704C124.054 36.7879 123.75 44.4353 116.149 43.8235C108.547 43.2117 101.25 50.8591 103.075 63.095C104.744 74.2908 117.867 66.5363 121.014 66.31C121.199 66.5822 121.41 66.8362 121.643 67.0686C118.435 69.6443 112.57 75.4257 111.448 84C101.773 78.7998 96.2243 67.0625 98.5138 55.7535Z" fill="#ED6663"/>
<path d="M121.564 31C121.564 31 101.752 40.0167 98.4996 56.2467C96.273 67.3672 101.67 78.8906 111.082 84C112.173 75.5844 117.883 69.8949 120.997 67.3642C115.467 61.7859 126 48.1287 126 48.1287" stroke="#2B2E4A" stroke-width="0.75" stroke-linecap="round"/>
<path d="M128.371 18.6077C130.133 19.8967 130.172 23.2225 131.373 22.6071C131.574 22.5021 131.819 22.546 131.973 22.7148C131.973 24.4715 132.193 25.8529 131.373 25.9913C129.572 26.299 128.371 18.3 126.57 20.1459C126.324 20.4746 126.18 20.871 126.155 21.2842C125.669 22.9148 122.937 20.8074 124.453 18.9368C124.453 18.9368 126.27 17.0694 128.371 18.6077Z" fill="#2B2E4A"/>
<path d="M136.126 30.6354C136.126 30.6354 134.986 33.985 137.263 38.2481C139.539 42.5112 136.126 45.2518 132.71 43.4247C129.293 41.5977 123.607 33.6805 125.312 26.9813C127.017 20.2821 136.126 26.3723 136.126 30.6354Z" fill="#F0BFA4"/>
<path d="M132.273 28.7254C132.943 27.8911 134.152 27.8213 135.561 28.2876C135.965 28.9897 136.194 29.7972 136.226 30.6287C136.226 30.6287 135.146 34.118 137.303 38.559C138.185 40.3766 138.162 41.9278 137.612 43C137.502 42.7236 137.479 42.4141 137.546 42.1213C138.234 38.6954 135.137 38.2418 132.273 35.3869C129.409 32.5319 132.273 28.7254 132.273 28.7254Z" fill="#EAB292"/>
<path fill-rule="evenodd" clip-rule="evenodd" d="M136.126 30.6354C136.126 30.6354 134.986 33.985 137.263 38.2481C139.539 42.5112 136.126 45.2518 132.71 43.4247C129.293 41.5977 123.607 33.6805 125.312 26.9813C127.017 20.2821 136.126 26.3723 136.126 30.6354Z" stroke="#2B2E4A" stroke-width="0.75" stroke-linecap="round"/>
<path d="M139.557 10.0705C139.557 10.0705 138.662 13.707 141.347 17.9496C144.033 22.1922 144.033 30.6774 136.871 31.8896C129.709 33.1018 123.443 24.0105 124.039 20.374C124.636 16.7375 135.379 2.79748 139.557 10.0705Z" fill="#F0BFA4"/>
<path d="M124.038 20.857C124.087 19.9284 124.764 18.367 125.816 16.6514C128.168 13.79 132.116 10.214 135.367 8.04193C136.812 7.83102 138.124 8.39764 139.067 10.1542C139.067 10.1542 138.399 13.0723 140 16.7647C139.133 16.9033 134.416 17.9074 134.153 23.0605C133.864 28.7267 131.157 26.9104 130.633 25.9314C130.11 24.9524 128.373 20.2274 128.084 22.7457C127.795 25.2641 129.24 30.3007 127.217 29.9859C126.457 29.8694 125.535 28.9502 124.787 27.6187C124.174 25.8622 123.891 23.6586 124.038 20.857Z" fill="#EAB292"/>
<path d="M124 20.3777C124.598 16.7401 135.363 2.7959 139.55 10.0711C139.55 10.0711 138.653 13.7088 141.344 17.9526C144.035 22.1965 144.035 30.6843 136.858 31.8968C135.114 32.1694 133.329 31.8988 131.739 31.1208" stroke="#2B2E4A" stroke-width="0.75" stroke-linecap="round"/>
<path d="M139.885 6.8496C139.885 6.8496 141.098 13.6228 135.64 16.7016C130.183 19.7803 133.518 26.2456 131.699 26.5535C129.88 26.8614 128.667 18.8567 126.848 20.7039C125.029 22.5512 129.273 37.637 119.268 41.0236C109.263 44.4102 94.5064 38.8685 95.0127 26.2456C95.6191 11.1598 108.656 14.8543 110.779 16.3937C112.901 17.9331 117.146 20.7039 117.449 14.8543C117.752 9.00472 120.178 1 130.183 1C140.188 1 139.885 6.8496 139.885 6.8496Z" fill="#D5CDE0"/>
<path d="M131 1C131 1 143.378 1.30173 144.887 8.24154C146.397 15.1814 141.566 18.8021 147.906 21.216C153.763 23.4458 152.921 35.7142 148.003 39" stroke="#2B2E4A" stroke-width="0.75" stroke-linecap="round"/>
<path d="M110.133 32.762C120.415 37.6609 123.44 27.5569 123.742 22.2262C124.044 16.8956 127.976 20.5146 127.976 20.5146C127.976 20.6647 127.991 20.8208 128 20.9617C127.613 20.5085 127.208 20.3738 126.766 20.8208C124.952 22.6579 129.185 37.6609 119.206 41.0289C109.226 44.397 94.5076 38.8857 95.0127 26.3321C95.6175 11.3291 108.621 15.0033 110.738 16.5343C100.154 14.6972 99.8513 27.8631 110.133 32.762Z" fill="#8F8AB0"/>
<path d="M140 9.18059C139.876 11.4325 139.069 14.7981 135.655 16.7208C130.194 19.7972 133.532 26.2576 131.711 26.5653C129.891 26.8729 128.677 18.8743 126.857 20.7201C125.036 22.566 129.284 37.6403 119.272 41.0243C109.26 44.4084 95 38.8708 95 26.2576C95 13.6444 106.833 13.0292 110.777 16.4132C112.77 18.1237 117.148 20.7201 117.451 14.875C117.755 9.02984 120.485 0.415945 131.104 1.03122" stroke="#2B2E4A" stroke-width="0.75" stroke-linecap="round"/>
<path d="M136 20C135.448 20 135 19.5523 135 19C135 18.4477 135.448 18 136 18C136.552 18 137 18.4477 137 19C137 19.5523 136.552 20 136 20Z" fill="#2B2E4A"/>
<path d="M141 20C140.448 20 140 19.5523 140 19C140 18.4477 140.448 18 141 18C141.552 18 142 18.4477 142 19C142 19.5523 141.552 20 141 20Z" fill="#2B2E4A"/>
<path d="M139 19C139 19 139 20.5625 141.453 22.4375C143.535 24.0281 139 24 139 24" stroke="#2B2E4A" stroke-width="0.75" stroke-linecap="round"/>
<path d="M135 27C135 27 135.333 28.1736 138 27.978" stroke="#2B2E4A" stroke-width="0.75" stroke-linecap="round"/>
<g filter="url(#filter0_d)">
<rect x="30" y="72" width="393" height="52" rx="5" fill="#E8E8E8"/>
<path d="M133 94C133 86.268 139.268 80 147 80H410V116H147C139.268 116 133 109.732 133 102V94Z" fill="#F9F9F9"/>
<path d="M164.333 98.0002C164.333 97.2648 163.735 96.6668 163 96.6668H162.333V94.6668C162.333 92.8288 160.838 91.3335 159 91.3335C157.162 91.3335 155.667 92.8288 155.667 94.6668V96.6668H155C154.265 96.6668 153.667 97.2648 153.667 98.0002V103.333C153.667 104.069 154.265 104.667 155 104.667H163C163.735 104.667 164.333 104.069 164.333 103.333V98.0002ZM157 94.6668C157 93.5642 157.897 92.6668 159 92.6668C160.103 92.6668 161 93.5642 161 94.6668V96.6668H157V94.6668Z" fill="#2B2E4A"/>
<path d="M52.6617 104.774L47.1674 99.2796H59.4358V96.7199H47.1674L52.6617 91.2257L50.852 89.416L42.2683 97.9997L50.852 106.583L52.6617 104.774Z" fill="#D8D8D8"/>
<path d="M78.407 104.774L80.2167 106.583L88.8004 97.9997L80.2167 89.416L78.407 91.2257L83.9013 96.7199H71.6329V99.2796H83.9013L78.407 104.774Z" fill="#D8D8D8"/>
<path d="M108.307 96.7201H104.597C104.597 96.7162 104.597 96.7124 104.598 96.7086C104.682 96.3003 104.807 95.8972 104.971 95.5094C105.132 95.1293 105.331 94.7632 105.561 94.4215C105.789 94.0837 106.052 93.765 106.342 93.4745C106.632 93.1852 106.951 92.9216 107.291 92.6925C107.632 92.4621 107.996 92.265 108.376 92.1038C108.763 91.94 109.166 91.8145 109.577 91.7314C110.419 91.5586 111.314 91.5586 112.16 91.7314C112.567 91.8145 112.971 91.94 113.359 92.1038C113.738 92.2638 114.102 92.4634 114.447 92.6938C114.787 92.9229 115.104 93.1852 115.391 93.4732L117.203 91.6661C116.802 91.2617 116.354 90.8931 115.877 90.5718C115.4 90.2493 114.888 89.9703 114.357 89.7451C113.813 89.5147 113.246 89.3394 112.674 89.2229C111.493 88.981 110.244 88.981 109.066 89.2229C108.492 89.3407 107.925 89.516 107.382 89.7464C106.846 89.9716 106.334 90.2493 105.858 90.5718C105.384 90.8905 104.939 91.2591 104.532 91.6648C104.125 92.0705 103.758 92.5172 103.44 92.9894C103.118 93.4668 102.839 93.9787 102.613 94.5124C102.383 95.055 102.208 95.622 102.091 96.1954C102.055 96.3681 102.036 96.5447 102.011 96.7201H98.0688L103.188 101.839L108.307 96.7201ZM113.427 99.2797H117.137C117.136 99.2836 117.137 99.2874 117.136 99.29C117.051 99.7046 116.926 100.108 116.762 100.49C116.604 100.865 116.406 101.231 116.174 101.576C115.945 101.914 115.682 102.234 115.39 102.525C115.102 102.813 114.785 103.076 114.444 103.306C114.101 103.536 113.736 103.735 113.358 103.896C112.97 104.06 112.567 104.185 112.157 104.268C111.316 104.441 110.42 104.441 109.576 104.268C109.167 104.185 108.764 104.06 108.376 103.896C107.996 103.735 107.63 103.536 107.289 103.306C106.951 103.078 106.632 102.815 106.342 102.525L104.532 104.335C104.938 104.741 105.384 105.109 105.857 105.428C106.334 105.75 106.846 106.029 107.38 106.255C107.922 106.485 108.489 106.66 109.062 106.777C109.652 106.897 110.259 106.959 110.867 106.959C111.475 106.959 112.082 106.897 112.669 106.777C113.244 106.66 113.812 106.484 114.355 106.253C114.886 106.028 115.398 105.75 115.875 105.428C116.351 105.107 116.799 104.737 117.2 104.335C117.605 103.929 117.974 103.483 118.294 103.008C118.619 102.525 118.898 102.013 119.119 101.489C119.347 100.951 119.522 100.384 119.641 99.8044C119.676 99.6317 119.696 99.4551 119.722 99.2797H123.665L118.546 94.1605L113.427 99.2797Z" fill="#D8D8D8"/>
</g>
<path d="M121.468 68.1707C121.523 68.6703 121.639 69.1612 121.815 69.6322C125.101 78.5992 158.006 76.7843 166.723 79.579C175.44 82.3737 174.743 90.4461 172.347 92.4186C169.951 94.391 169.074 92.2328 167.825 88.3344C165.612 81.4216 130.066 95.6145 113.57 86.47C108.367 83.5858 104.867 79.4329 102.915 74.7643C109.177 68.8691 117.361 68.1256 121.468 68.1707Z" fill="#F0BFA4"/>
<path d="M113.568 86.4724C108.365 83.5882 102 80.5 98.5 66C104.595 60.26 116.935 68.1751 121.132 68.168C121.007 69.2836 120.439 70.5089 118.989 71.6504C114.582 75.1239 115.554 82.5949 130.03 84.5908C144.15 86.5404 164.917 83.0815 167.646 87.9526C164.2 81.9818 129.736 95.4359 113.568 86.4724Z" fill="#EAB292"/>
<path fill-rule="evenodd" clip-rule="evenodd" d="M121.468 68.1707C121.523 68.6703 121.639 69.1612 121.815 69.6322C125.101 78.5992 158.006 76.7843 166.723 79.579C175.44 82.3737 174.743 90.4461 172.347 92.4186C169.951 94.391 169.074 92.2328 167.825 88.3344C165.612 81.4216 130.066 95.6145 113.57 86.47C108.367 83.5858 102 81 98.5 66C104.761 60.1048 117.361 68.1256 121.468 68.1707Z" stroke="#2B2E4A" stroke-width="0.75" stroke-linecap="round"/>
<defs>
<filter id="filter0_d" x="0" y="42" width="453" height="112" filterUnits="userSpaceOnUse" color-interpolation-filters="sRGB">
<feFlood flood-opacity="0" result="BackgroundImageFix"/>
<feColorMatrix in="SourceAlpha" type="matrix" values="0 0 0 0 0 0 0 0 0 0 0 0 0 0 0 0 0 0 127 0"/>
<feOffset/>
<feGaussianBlur stdDeviation="15"/>
<feColorMatrix type="matrix" values="0 0 0 0 0 0 0 0 0 0 0 0 0 0 0 0 0 0 0.3 0"/>
<feBlend mode="normal" in2="BackgroundImageFix" result="effect1_dropShadow"/>
<feBlend mode="normal" in="SourceGraphic" in2="effect1_dropShadow" result="shape"/>
</filter>
</defs>
</svg>
