<svg width="348" height="314" viewBox="0 0 348 314" fill="none" xmlns="http://www.w3.org/2000/svg">
<g opacity="0.2">
<path opacity="0.8" fill-rule="evenodd" clip-rule="evenodd" d="M98.6701 196.379H211.54C213.594 196.379 215.21 197.748 215.21 199.494V235.271C215.21 236.99 213.566 238.38 211.54 238.38H98.6701C96.616 238.38 95 237.01 95 235.271V199.494C95 197.776 96.6433 196.379 98.6701 196.379Z" fill="#8CA6AD"/>
<path opacity="0.8" d="M215.21 235.271C215.21 236.99 213.566 238.38 211.54 238.38H98.6701C96.616 238.38 95 237.01 95 235.271V199.494" stroke="black" stroke-width="0.5" stroke-miterlimit="10"/>
<path opacity="0.8" d="M165.671 207.547H133.331C131.97 207.547 130.866 208.65 130.866 210.012C130.866 211.373 131.97 212.477 133.331 212.477H165.671C167.032 212.477 168.136 211.373 168.136 210.012C168.136 208.65 167.032 207.547 165.671 207.547Z" fill="#70888E"/>
<path opacity="0.8" d="M198.195 216.297H132.879C131.768 216.297 130.866 217.198 130.866 218.31V218.317C130.866 219.429 131.768 220.33 132.879 220.33H198.195C199.307 220.33 200.208 219.429 200.208 218.317V218.31C200.208 217.198 199.307 216.297 198.195 216.297Z" fill="#70888E"/>
<path opacity="0.8" d="M198.195 222.855H132.879C131.768 222.855 130.866 223.757 130.866 224.869V224.875C130.866 225.987 131.768 226.888 132.879 226.888H198.195C199.307 226.888 200.208 225.987 200.208 224.875V224.869C200.208 223.757 199.307 222.855 198.195 222.855Z" fill="#70888E"/>
<path opacity="0.8" d="M111.112 219.22C111.822 219.93 112.785 220.329 113.789 220.329C114.793 220.329 115.756 219.93 116.466 219.22L118.609 217.076L117.534 216.001L115.391 218.145C115.18 218.356 114.929 218.524 114.653 218.638C114.377 218.752 114.081 218.811 113.782 218.811C113.483 218.811 113.187 218.752 112.911 218.638C112.635 218.524 112.384 218.356 112.173 218.145C111.962 217.933 111.794 217.682 111.68 217.406C111.565 217.13 111.507 216.834 111.507 216.536C111.507 216.237 111.565 215.941 111.68 215.665C111.794 215.389 111.962 215.138 112.173 214.926L114.316 212.783L113.248 211.715L111.105 213.858C110.753 214.21 110.474 214.629 110.283 215.089C110.093 215.549 109.995 216.042 109.996 216.54C109.997 217.038 110.096 217.531 110.287 217.991C110.479 218.451 110.759 218.868 111.112 219.22ZM122.903 212.79C123.613 212.079 124.011 211.115 124.011 210.11C124.01 209.106 123.61 208.142 122.899 207.432C122.188 206.722 121.224 206.324 120.22 206.324C119.215 206.325 118.251 206.725 117.541 207.436L115.398 209.579L116.466 210.647L118.609 208.504C119.036 208.077 119.615 207.837 120.219 207.837C120.822 207.837 121.401 208.077 121.828 208.504C122.254 208.931 122.494 209.509 122.494 210.113C122.494 210.716 122.254 211.295 121.828 211.722L119.685 213.865L120.753 214.933L122.903 212.79Z" fill="#F7C5A8"/>
<path opacity="0.8" d="M114.323 217.079L113.255 216.004L119.684 209.574L120.759 210.642L114.323 217.079Z" fill="#FDF3E8"/>
<path opacity="0.8" d="M113.255 211.723L111.112 213.866C110.402 214.576 110.003 215.539 110.003 216.543C110.003 217.547 110.402 218.51 111.112 219.22" stroke="black" stroke-width="0.5" stroke-miterlimit="10"/>
<path opacity="0.8" d="M120.753 214.935L122.903 212.792C123.61 212.08 124.006 211.118 124.006 210.115C124.006 209.112 123.61 208.149 122.903 207.438" stroke="black" stroke-width="0.5" stroke-miterlimit="10"/>
<path opacity="0.8" d="M114.323 217.079L113.255 216.004L119.684 209.574" stroke="black" stroke-width="0.5" stroke-miterlimit="10"/>
</g>
<g opacity="0.1">
<path opacity="0.8" fill-rule="evenodd" clip-rule="evenodd" d="M98.6701 245H211.54C213.594 245 215.21 246.369 215.21 248.115V283.892C215.21 285.611 213.566 287.001 211.54 287.001H98.6701C96.616 287.001 95 285.631 95 283.892V248.115C95 246.397 96.6433 245 98.6701 245Z" fill="#8CA6AD"/>
<path opacity="0.8" d="M215.21 283.892C215.21 285.611 213.566 287.001 211.54 287.001H98.6701C96.616 287.001 95 285.631 95 283.892V248.115" stroke="black" stroke-width="0.5" stroke-miterlimit="10"/>
<path opacity="0.8" d="M165.671 256.168H133.331C131.97 256.168 130.866 257.272 130.866 258.633C130.866 259.994 131.97 261.098 133.331 261.098H165.671C167.032 261.098 168.136 259.994 168.136 258.633C168.136 257.272 167.032 256.168 165.671 256.168Z" fill="#70888E"/>
<path opacity="0.8" d="M198.195 264.918H132.879C131.768 264.918 130.866 265.819 130.866 266.931V266.938C130.866 268.05 131.768 268.951 132.879 268.951H198.195C199.307 268.951 200.208 268.05 200.208 266.938V266.931C200.208 265.819 199.307 264.918 198.195 264.918Z" fill="#70888E"/>
<path opacity="0.8" d="M198.195 271.477H132.879C131.768 271.477 130.866 272.378 130.866 273.49V273.496C130.866 274.608 131.768 275.51 132.879 275.51H198.195C199.307 275.51 200.208 274.608 200.208 273.496V273.49C200.208 272.378 199.307 271.477 198.195 271.477Z" fill="#70888E"/>
<path opacity="0.8" d="M111.112 267.841C111.822 268.551 112.785 268.95 113.789 268.95C114.793 268.95 115.756 268.551 116.466 267.841L118.609 265.698L117.534 264.623L115.391 266.766C115.18 266.977 114.929 267.145 114.653 267.259C114.377 267.373 114.081 267.432 113.782 267.432C113.483 267.432 113.187 267.373 112.911 267.259C112.635 267.145 112.384 266.977 112.173 266.766C111.962 266.554 111.794 266.304 111.68 266.028C111.565 265.751 111.507 265.455 111.507 265.157C111.507 264.858 111.565 264.562 111.68 264.286C111.794 264.01 111.962 263.759 112.173 263.548L114.316 261.404L113.248 260.336L111.105 262.479C110.753 262.832 110.474 263.25 110.283 263.71C110.093 264.17 109.995 264.663 109.996 265.162C109.997 265.66 110.096 266.153 110.287 266.612C110.479 267.072 110.759 267.489 111.112 267.841ZM122.903 261.411C123.613 260.7 124.011 259.736 124.011 258.732C124.01 257.727 123.61 256.763 122.899 256.053C122.188 255.343 121.224 254.945 120.22 254.945C119.215 254.946 118.251 255.346 117.541 256.057L115.398 258.2L116.466 259.268L118.609 257.125C119.036 256.698 119.615 256.458 120.219 256.458C120.822 256.458 121.401 256.698 121.828 257.125C122.254 257.552 122.494 258.13 122.494 258.734C122.494 259.337 122.254 259.916 121.828 260.343L119.685 262.486L120.753 263.554L122.903 261.411Z" fill="#F7C5A8"/>
<path opacity="0.8" d="M114.323 265.7L113.255 264.625L119.684 258.195L120.759 259.263L114.323 265.7Z" fill="#FDF3E8"/>
<path opacity="0.8" d="M113.255 260.344L111.112 262.487C110.402 263.197 110.003 264.16 110.003 265.164C110.003 266.168 110.402 267.131 111.112 267.841" stroke="black" stroke-width="0.5" stroke-miterlimit="10"/>
<path opacity="0.8" d="M120.753 263.556L122.903 261.413C123.61 260.701 124.006 259.739 124.006 258.736C124.006 257.733 123.61 256.77 122.903 256.059" stroke="black" stroke-width="0.5" stroke-miterlimit="10"/>
<path opacity="0.8" d="M114.323 265.7L113.255 264.625L119.684 258.195" stroke="black" stroke-width="0.5" stroke-miterlimit="10"/>
</g>
<g opacity="0.4">
<path opacity="0.8" fill-rule="evenodd" clip-rule="evenodd" d="M98.6701 147H211.54C213.594 147 215.21 148.369 215.21 150.115V185.892C215.21 187.611 213.566 189.001 211.54 189.001H98.6701C96.616 189.001 95 187.631 95 185.892V150.115C95 148.397 96.6433 147 98.6701 147Z" fill="#8CA6AD"/>
<path opacity="0.8" d="M215.21 185.892C215.21 187.611 213.566 189.001 211.54 189.001H98.6701C96.616 189.001 95 187.631 95 185.892V150.115" stroke="black" stroke-width="0.5" stroke-miterlimit="10"/>
<path opacity="0.8" d="M165.671 158.168H133.331C131.97 158.168 130.866 159.272 130.866 160.633C130.866 161.994 131.97 163.098 133.331 163.098H165.671C167.032 163.098 168.136 161.994 168.136 160.633C168.136 159.272 167.032 158.168 165.671 158.168Z" fill="#70888E"/>
<path opacity="0.8" d="M198.195 166.918H132.879C131.768 166.918 130.866 167.819 130.866 168.931V168.938C130.866 170.05 131.768 170.951 132.879 170.951H198.195C199.307 170.951 200.208 170.05 200.208 168.938V168.931C200.208 167.819 199.307 166.918 198.195 166.918Z" fill="#70888E"/>
<path opacity="0.8" d="M198.195 173.477H132.879C131.768 173.477 130.866 174.378 130.866 175.49V175.496C130.866 176.608 131.768 177.51 132.879 177.51H198.195C199.307 177.51 200.208 176.608 200.208 175.496V175.49C200.208 174.378 199.307 173.477 198.195 173.477Z" fill="#70888E"/>
<path opacity="0.8" d="M111.112 169.841C111.822 170.551 112.785 170.95 113.789 170.95C114.793 170.95 115.756 170.551 116.466 169.841L118.609 167.698L117.534 166.623L115.391 168.766C115.18 168.977 114.929 169.145 114.653 169.259C114.377 169.373 114.081 169.432 113.782 169.432C113.483 169.432 113.187 169.373 112.911 169.259C112.635 169.145 112.384 168.977 112.173 168.766C111.962 168.554 111.794 168.304 111.68 168.028C111.565 167.751 111.507 167.455 111.507 167.157C111.507 166.858 111.565 166.562 111.68 166.286C111.794 166.01 111.962 165.759 112.173 165.548L114.316 163.404L113.248 162.336L111.105 164.479C110.753 164.832 110.474 165.25 110.283 165.71C110.093 166.17 109.995 166.663 109.996 167.162C109.997 167.66 110.096 168.153 110.287 168.612C110.479 169.072 110.759 169.489 111.112 169.841ZM122.903 163.411C123.613 162.7 124.011 161.736 124.011 160.732C124.01 159.727 123.61 158.763 122.899 158.053C122.188 157.343 121.224 156.945 120.22 156.945C119.215 156.946 118.251 157.346 117.541 158.057L115.398 160.2L116.466 161.268L118.609 159.125C119.036 158.698 119.615 158.458 120.219 158.458C120.822 158.458 121.401 158.698 121.828 159.125C122.254 159.552 122.494 160.13 122.494 160.734C122.494 161.337 122.254 161.916 121.828 162.343L119.685 164.486L120.753 165.554L122.903 163.411Z" fill="#F7C5A8"/>
<path opacity="0.8" d="M114.323 167.7L113.255 166.625L119.684 160.195L120.759 161.263L114.323 167.7Z" fill="#FDF3E8"/>
<path opacity="0.8" d="M113.255 162.344L111.112 164.487C110.402 165.197 110.003 166.16 110.003 167.164C110.003 168.168 110.402 169.131 111.112 169.841" stroke="black" stroke-width="0.5" stroke-miterlimit="10"/>
<path opacity="0.8" d="M120.753 165.556L122.903 163.413C123.61 162.701 124.006 161.739 124.006 160.736C124.006 159.733 123.61 158.77 122.903 158.059" stroke="black" stroke-width="0.5" stroke-miterlimit="10"/>
<path opacity="0.8" d="M114.323 167.7L113.255 166.625L119.684 160.195" stroke="black" stroke-width="0.5" stroke-miterlimit="10"/>
</g>
<path fill-rule="evenodd" clip-rule="evenodd" d="M98.6701 98H211.54C213.594 98 215.21 99.3695 215.21 101.115V136.892C215.21 138.611 213.566 140.001 211.54 140.001H98.6701C96.616 140.001 95 138.631 95 136.892V101.115C95 99.3968 96.6433 98 98.6701 98Z" fill="#8CA6AD"/>
<path opacity="0.8" d="M215.21 136.892C215.21 138.611 213.566 140.001 211.54 140.001H98.6701C96.616 140.001 95 138.631 95 136.892V101.115" stroke="black" stroke-width="0.5" stroke-miterlimit="10"/>
<path opacity="0.8" d="M165.671 109.168H133.331C131.97 109.168 130.866 110.272 130.866 111.633C130.866 112.994 131.97 114.098 133.331 114.098H165.671C167.032 114.098 168.136 112.994 168.136 111.633C168.136 110.272 167.032 109.168 165.671 109.168Z" fill="#70888E"/>
<path opacity="0.8" d="M198.055 118H134.945C133.871 118 133 118.894 133 119.997V120.003C133 121.106 133.871 122 134.945 122H198.055C199.129 122 200 121.106 200 120.003V119.997C200 118.894 199.129 118 198.055 118Z" fill="#70888E"/>
<path opacity="0.8" d="M198.055 124H134.945C133.871 124 133 124.894 133 125.997V126.003C133 127.106 133.871 128 134.945 128H198.055C199.129 128 200 127.106 200 126.003V125.997C200 124.894 199.129 124 198.055 124Z" fill="#70888E"/>
<path opacity="0.8" d="M107.752 128.255C108.867 129.37 110.379 129.996 111.956 129.996C113.533 129.996 115.045 129.37 116.16 128.255L119.525 124.89L117.837 123.202L114.472 126.567C114.14 126.899 113.746 127.162 113.313 127.342C112.879 127.521 112.414 127.614 111.945 127.614C111.476 127.614 111.011 127.521 110.578 127.342C110.144 127.162 109.75 126.899 109.419 126.567C109.087 126.235 108.823 125.842 108.644 125.408C108.464 124.974 108.372 124.51 108.372 124.041C108.372 123.571 108.464 123.107 108.644 122.673C108.823 122.24 109.087 121.846 109.419 121.514L112.784 118.148L111.107 116.471L107.741 119.836C107.188 120.389 106.75 121.046 106.451 121.769C106.152 122.492 105.999 123.266 106 124.048C106.001 124.83 106.156 125.604 106.457 126.326C106.758 127.048 107.198 127.704 107.752 128.255ZM126.267 118.159C127.382 117.043 128.008 115.529 128.007 113.951C128.006 112.373 127.378 110.861 126.262 109.746C125.145 108.631 123.632 108.005 122.054 108.006C120.476 108.007 118.963 108.635 117.848 109.751L114.483 113.116L116.16 114.794L119.525 111.428C120.196 110.758 121.104 110.382 122.052 110.382C123 110.382 123.909 110.758 124.579 111.428C125.249 112.098 125.625 113.007 125.625 113.955C125.625 114.903 125.249 115.812 124.579 116.482L121.214 119.847L122.891 121.525L126.267 118.159Z" fill="#F7C5A8"/>
<path opacity="0.8" d="M112.795 124.894L111.117 123.206L121.213 113.109L122.901 114.787L112.795 124.894Z" fill="#FDF3E8"/>
<path opacity="0.8" d="M111.117 116.482L107.752 119.848C106.637 120.963 106.011 122.475 106.011 124.052C106.011 125.629 106.637 127.141 107.752 128.256" stroke="black" stroke-width="0.5" stroke-miterlimit="10"/>
<path opacity="0.8" d="M122.891 121.527L126.267 118.162C127.377 117.044 128 115.533 128 113.958C128 112.383 127.377 110.872 126.267 109.754" stroke="black" stroke-width="0.5" stroke-miterlimit="10"/>
<path opacity="0.8" d="M112.795 124.894L111.117 123.206L121.213 113.109" stroke="black" stroke-width="0.5" stroke-miterlimit="10"/>
<g opacity="0.4">
<path opacity="0.8" fill-rule="evenodd" clip-rule="evenodd" d="M98.6701 49H211.54C213.594 49 215.21 50.3695 215.21 52.1155V87.8922C215.21 89.6109 213.566 91.0009 211.54 91.0009H98.6701C96.616 91.0009 95 89.6314 95 87.8922V52.1155C95 50.3968 96.6433 49 98.6701 49Z" fill="#8CA6AD"/>
<path opacity="0.8" d="M215.21 87.892C215.21 89.6106 213.566 91.0006 211.54 91.0006H98.6701C96.616 91.0006 95 89.6312 95 87.892V52.1152" stroke="black" stroke-width="0.5" stroke-miterlimit="10"/>
<path opacity="0.8" d="M165.671 60.168H133.331C131.97 60.168 130.866 61.2716 130.866 62.633C130.866 63.9944 131.97 65.098 133.331 65.098H165.671C167.032 65.098 168.136 63.9944 168.136 62.633C168.136 61.2716 167.032 60.168 165.671 60.168Z" fill="#70888E"/>
<path opacity="0.8" d="M198.195 68.918H132.879C131.768 68.918 130.866 69.8193 130.866 70.9311V70.9379C130.866 72.0497 131.768 72.951 132.879 72.951H198.195C199.307 72.951 200.208 72.0497 200.208 70.9379V70.9311C200.208 69.8193 199.307 68.918 198.195 68.918Z" fill="#70888E"/>
<path opacity="0.8" d="M198.195 75.4766H132.879C131.768 75.4766 130.866 76.3779 130.866 77.4896V77.4965C130.866 78.6083 131.768 79.5096 132.879 79.5096H198.195C199.307 79.5096 200.208 78.6083 200.208 77.4965V77.4896C200.208 76.3779 199.307 75.4766 198.195 75.4766Z" fill="#70888E"/>
<path opacity="0.8" d="M111.112 71.8408C111.822 72.5508 112.785 72.9496 113.789 72.9496C114.793 72.9496 115.756 72.5508 116.466 71.8408L118.609 69.6976L117.534 68.6226L115.391 70.7658C115.18 70.9771 114.929 71.1447 114.653 71.2591C114.377 71.3734 114.081 71.4323 113.782 71.4323C113.483 71.4323 113.187 71.3734 112.911 71.2591C112.635 71.1447 112.384 70.9771 112.173 70.7658C111.962 70.5544 111.794 70.3036 111.68 70.0275C111.565 69.7514 111.507 69.4555 111.507 69.1567C111.507 68.8578 111.565 68.5619 111.68 68.2858C111.794 68.0097 111.962 67.7589 112.173 67.5476L114.316 65.4044L113.248 64.3362L111.105 66.4794C110.753 66.8316 110.474 67.2498 110.283 67.71C110.093 68.1702 109.995 68.6635 109.996 69.1615C109.997 69.6595 110.096 70.1525 110.287 70.6123C110.479 71.072 110.759 71.4895 111.112 71.8408ZM122.903 65.4112C123.613 64.7003 124.011 63.7363 124.011 62.7315C124.01 61.7267 123.61 60.7633 122.899 60.0533C122.188 59.3432 121.224 58.9447 120.22 58.9453C119.215 58.946 118.251 59.3457 117.541 60.0567L115.398 62.1999L116.466 63.268L118.609 61.1249C119.036 60.6981 119.615 60.4584 120.219 60.4584C120.822 60.4584 121.401 60.6981 121.828 61.1249C122.254 61.5516 122.494 62.1304 122.494 62.734C122.494 63.3375 122.254 63.9163 121.828 64.3431L119.685 66.4862L120.753 67.5544L122.903 65.4112Z" fill="#F7C5A8"/>
<path opacity="0.8" d="M114.323 69.6999L113.255 68.6249L119.684 62.1953L120.759 63.2635L114.323 69.6999Z" fill="#FDF3E8"/>
<path opacity="0.8" d="M113.255 64.3438L111.112 66.4869C110.402 67.197 110.003 68.1601 110.003 69.1642C110.003 70.1683 110.402 71.1314 111.112 71.8415" stroke="black" stroke-width="0.5" stroke-miterlimit="10"/>
<path opacity="0.8" d="M120.753 67.5563L122.903 65.4131C123.61 64.7013 124.006 63.7389 124.006 62.7359C124.006 61.7328 123.61 60.7705 122.903 60.0586" stroke="black" stroke-width="0.5" stroke-miterlimit="10"/>
<path opacity="0.8" d="M114.323 69.6999L113.255 68.6249L119.684 62.1953" stroke="black" stroke-width="0.5" stroke-miterlimit="10"/>
</g>
<g opacity="0.1">
<path opacity="0.8" fill-rule="evenodd" clip-rule="evenodd" d="M98.6701 0H211.54C213.594 0 215.21 1.36946 215.21 3.1155V38.8922C215.21 40.6109 213.566 42.0009 211.54 42.0009H98.6701C96.616 42.0009 95 40.6314 95 38.8922V3.1155C95 1.39685 96.6433 0 98.6701 0Z" fill="#8CA6AD"/>
<path opacity="0.8" d="M215.21 38.892C215.21 40.6106 213.566 42.0006 211.54 42.0006H98.6701C96.616 42.0006 95 40.6312 95 38.892V3.11523" stroke="black" stroke-width="0.5" stroke-miterlimit="10"/>
<path opacity="0.8" d="M165.671 11.168H133.331C131.97 11.168 130.866 12.2716 130.866 13.633C130.866 14.9944 131.97 16.098 133.331 16.098H165.671C167.032 16.098 168.136 14.9944 168.136 13.633C168.136 12.2716 167.032 11.168 165.671 11.168Z" fill="#70888E"/>
<path opacity="0.8" d="M198.195 19.918H132.879C131.768 19.918 130.866 20.8193 130.866 21.9311V21.9379C130.866 23.0497 131.768 23.951 132.879 23.951H198.195C199.307 23.951 200.208 23.0497 200.208 21.9379V21.9311C200.208 20.8193 199.307 19.918 198.195 19.918Z" fill="#70888E"/>
<path opacity="0.8" d="M198.195 26.4766H132.879C131.768 26.4766 130.866 27.3779 130.866 28.4896V28.4965C130.866 29.6083 131.768 30.5096 132.879 30.5096H198.195C199.307 30.5096 200.208 29.6083 200.208 28.4965V28.4896C200.208 27.3779 199.307 26.4766 198.195 26.4766Z" fill="#70888E"/>
<path opacity="0.8" d="M111.112 22.8408C111.822 23.5508 112.785 23.9496 113.789 23.9496C114.793 23.9496 115.756 23.5508 116.466 22.8408L118.609 20.6976L117.534 19.6226L115.391 21.7658C115.18 21.9771 114.929 22.1447 114.653 22.2591C114.377 22.3734 114.081 22.4323 113.782 22.4323C113.483 22.4323 113.187 22.3734 112.911 22.2591C112.635 22.1447 112.384 21.9771 112.173 21.7658C111.962 21.5544 111.794 21.3036 111.68 21.0275C111.565 20.7514 111.507 20.4555 111.507 20.1567C111.507 19.8578 111.565 19.5619 111.68 19.2858C111.794 19.0097 111.962 18.7589 112.173 18.5476L114.316 16.4044L113.248 15.3362L111.105 17.4794C110.753 17.8316 110.474 18.2498 110.283 18.71C110.093 19.1702 109.995 19.6635 109.996 20.1615C109.997 20.6595 110.096 21.1525 110.287 21.6123C110.479 22.072 110.759 22.4895 111.112 22.8408ZM122.903 16.4112C123.613 15.7003 124.011 14.7363 124.011 13.7315C124.01 12.7267 123.61 11.7633 122.899 11.0533C122.188 10.3432 121.224 9.94467 120.22 9.94531C119.215 9.94596 118.251 10.3457 117.541 11.0567L115.398 13.1999L116.466 14.268L118.609 12.1249C119.036 11.6981 119.615 11.4584 120.219 11.4584C120.822 11.4584 121.401 11.6981 121.828 12.1249C122.254 12.5516 122.494 13.1304 122.494 13.734C122.494 14.3375 122.254 14.9163 121.828 15.3431L119.685 17.4862L120.753 18.5544L122.903 16.4112Z" fill="#F7C5A8"/>
<path opacity="0.8" d="M114.323 20.6999L113.255 19.6249L119.684 13.1953L120.759 14.2635L114.323 20.6999Z" fill="#FDF3E8"/>
<path opacity="0.8" d="M113.255 15.3438L111.112 17.4869C110.402 18.197 110.003 19.1601 110.003 20.1642C110.003 21.1683 110.402 22.1314 111.112 22.8415" stroke="black" stroke-width="0.5" stroke-miterlimit="10"/>
<path opacity="0.8" d="M120.753 18.5563L122.903 16.4131C123.61 15.7013 124.006 14.7389 124.006 13.7359C124.006 12.7328 123.61 11.7705 122.903 11.0586" stroke="black" stroke-width="0.5" stroke-miterlimit="10"/>
<path opacity="0.8" d="M114.323 20.6999L113.255 19.6249L119.684 13.1953" stroke="black" stroke-width="0.5" stroke-miterlimit="10"/>
</g>
<g clip-path="url(#clip0)">
<rect x="81.0002" y="73" width="80" height="91" rx="21" fill="white"/>
<g opacity="0.4">
<path opacity="0.8" fill-rule="evenodd" clip-rule="evenodd" d="M85.5252 153.826H224.685C227.218 153.826 229.21 155.515 229.21 157.667V201.777C229.21 203.896 227.184 205.61 224.685 205.61H85.5252C82.9926 205.61 81.0002 203.922 81.0002 201.777V157.667C81.0002 155.548 83.0264 153.826 85.5252 153.826Z" fill="#8CA6AD"/>
<path opacity="0.8" d="M229.21 201.778C229.21 203.897 227.184 205.611 224.685 205.611H85.5252C82.9926 205.611 81.0002 203.922 81.0002 201.778V157.668" stroke="black" stroke-width="0.5" stroke-miterlimit="10"/>
</g>
<path fill-rule="evenodd" clip-rule="evenodd" d="M85.5252 93.4141H224.685C227.218 93.4141 229.21 95.1025 229.21 97.2552V141.365C229.21 143.484 227.184 145.198 224.685 145.198H85.5252C82.9926 145.198 81.0002 143.51 81.0002 141.365V97.2552C81.0002 95.1363 83.0264 93.4141 85.5252 93.4141Z" fill="#8CA6AD"/>
<path opacity="0.8" d="M229.21 141.364C229.21 143.483 227.184 145.197 224.685 145.197H85.5252C82.9926 145.197 81.0002 143.508 81.0002 141.364V97.2539" stroke="black" stroke-width="0.5" stroke-miterlimit="10"/>
<path opacity="0.8" d="M168.132 107.182H128.26C126.581 107.182 125.221 108.542 125.221 110.221C125.221 111.899 126.581 113.26 128.26 113.26H168.132C169.81 113.26 171.171 111.899 171.171 110.221C171.171 108.542 169.81 107.182 168.132 107.182Z" fill="#70888E"/>
<path opacity="0.8" d="M208.059 118.072H130.249C128.925 118.072 127.851 119.174 127.851 120.534V120.542C127.851 121.902 128.925 123.004 130.249 123.004H208.059C209.384 123.004 210.457 121.902 210.457 120.542V120.534C210.457 119.174 209.384 118.072 208.059 118.072Z" fill="#70888E"/>
<path opacity="0.8" d="M208.059 125.469H130.249C128.925 125.469 127.851 126.571 127.851 127.93V127.939C127.851 129.298 128.925 130.4 130.249 130.4H208.059C209.384 130.4 210.457 129.298 210.457 127.939V127.93C210.457 126.571 209.384 125.469 208.059 125.469Z" fill="#70888E"/>
<path opacity="0.8" d="M96.7225 130.716C98.0973 132.091 99.9617 132.863 101.906 132.863C103.85 132.863 105.714 132.091 107.089 130.716L111.238 126.567L109.157 124.486L105.008 128.635C104.599 129.044 104.113 129.368 103.579 129.59C103.044 129.811 102.471 129.925 101.893 129.925C101.314 129.925 100.741 129.811 100.207 129.59C99.6721 129.368 99.1864 129.044 98.7773 128.635C98.3682 128.226 98.0437 127.74 97.8223 127.206C97.6008 126.671 97.4869 126.098 97.4869 125.52C97.4869 124.941 97.6008 124.368 97.8223 123.834C98.0437 123.299 98.3682 122.813 98.7773 122.404L102.927 118.255L100.859 116.187L96.7092 120.336C96.0275 121.018 95.487 121.828 95.1186 122.719C94.7502 123.61 94.5613 124.565 94.5625 125.529C94.5637 126.493 94.7552 127.448 95.1258 128.338C95.4965 129.228 96.039 130.036 96.7225 130.716ZM119.55 118.268C120.925 116.892 121.696 115.026 121.695 113.08C121.694 111.135 120.92 109.27 119.544 107.895C118.167 106.52 116.301 105.749 114.356 105.75C112.41 105.751 110.545 106.525 109.17 107.902L105.021 112.051L107.089 114.119L111.238 109.97C112.065 109.143 113.185 108.679 114.354 108.679C115.522 108.679 116.643 109.143 117.469 109.97C118.295 110.796 118.759 111.917 118.759 113.085C118.759 114.253 118.295 115.374 117.469 116.2L113.32 120.35L115.388 122.418L119.55 118.268Z" fill="#F7C5A8"/>
<path opacity="0.8" d="M102.94 126.57L100.872 124.489L113.319 112.041L115.401 114.109L102.94 126.57Z" fill="#FDF3E8"/>
<path opacity="0.8" d="M100.872 116.201L96.7224 120.35C95.3479 121.725 94.5757 123.59 94.5757 125.534C94.5757 127.478 95.3479 129.342 96.7224 130.717" stroke="black" stroke-width="0.5" stroke-miterlimit="10"/>
<path opacity="0.8" d="M115.388 122.42L119.55 118.271C120.919 116.893 121.686 115.03 121.686 113.088C121.686 111.146 120.919 109.282 119.55 107.904" stroke="black" stroke-width="0.5" stroke-miterlimit="10"/>
<path opacity="0.8" d="M102.94 126.57L100.872 124.489L113.319 112.041" stroke="black" stroke-width="0.5" stroke-miterlimit="10"/>
<g opacity="0.4">
<path opacity="0.8" fill-rule="evenodd" clip-rule="evenodd" d="M85.5252 33H224.685C227.218 33 229.21 34.6884 229.21 36.8412V80.9512C229.21 83.0702 227.184 84.784 224.685 84.784H85.5252C82.9926 84.784 81.0002 83.0955 81.0002 80.9512V36.8412C81.0002 34.7222 83.0264 33 85.5252 33Z" fill="#8CA6AD"/>
<path opacity="0.8" d="M229.21 80.9499C229.21 83.0689 227.184 84.7826 224.685 84.7826H85.5252C82.9926 84.7826 81.0002 83.0942 81.0002 80.9499V36.8398" stroke="black" stroke-width="0.5" stroke-miterlimit="10"/>
</g>
</g>
<path d="M217.678 35H277.352C280.726 35.0023 284.066 35.666 287.182 36.953C290.298 38.2401 293.129 40.1254 295.512 42.5012C297.896 44.8769 299.785 47.6966 301.073 50.7992C302.361 53.9018 303.022 57.2264 303.018 60.5832C303.018 63.9389 302.354 67.2619 301.063 70.3622C299.772 73.4625 297.881 76.2795 295.496 78.6524C293.111 81.0253 290.279 82.9076 287.163 84.1918C284.047 85.476 280.707 86.137 277.335 86.137H238.782L230.765 94.0906L222.747 86.1134H217.678C210.871 86.1119 204.344 83.4222 199.529 78.6352C194.714 73.8481 192.006 67.3554 192 60.5832C191.996 57.2254 192.657 53.8998 193.946 50.7965C195.235 47.6932 197.125 44.8729 199.51 42.497C201.895 40.1211 204.727 38.236 207.844 36.9497C210.961 35.6633 214.303 35.0008 217.678 35Z" fill="#456682"/>
<path d="M230.765 94.0901L222.747 86.113H217.678C210.871 86.1114 204.344 83.4217 199.529 78.6347C194.714 73.8477 192.006 67.3549 192 60.5827C191.996 57.225 192.657 53.8994 193.946 50.796C195.235 47.6927 197.125 44.8725 199.51 42.4966C201.895 40.1206 204.727 38.2356 207.844 36.9492" stroke="black" stroke-width="0.5" stroke-linecap="round" stroke-linejoin="round"/>
<path d="M229.288 65.1096C231.471 65.1096 233.241 63.3488 233.241 61.1768C233.241 59.0049 231.471 57.2441 229.288 57.2441C227.105 57.2441 225.335 59.0049 225.335 61.1768C225.335 63.3488 227.105 65.1096 229.288 65.1096Z" fill="#F7C5A8"/>
<path opacity="0.7" d="M247.509 65.1096C249.692 65.1096 251.462 63.3488 251.462 61.1768C251.462 59.0049 249.692 57.2441 247.509 57.2441C245.326 57.2441 243.557 59.0049 243.557 61.1768C243.557 63.3488 245.326 65.1096 247.509 65.1096Z" fill="#F7C5A8"/>
<path opacity="0.4" d="M265.731 65.1096C267.914 65.1096 269.683 63.3488 269.683 61.1768C269.683 59.0049 267.914 57.2441 265.731 57.2441C263.548 57.2441 261.778 59.0049 261.778 61.1768C261.778 63.3488 263.548 65.1096 265.731 65.1096Z" fill="#F7C5A8"/>
<path d="M196.5 314C280.171 314 348 303.031 348 289.5C348 275.969 280.171 265 196.5 265C112.829 265 45 275.969 45 289.5C45 303.031 112.829 314 196.5 314Z" fill="#F9F9F9"/>
<path d="M186.492 151.587L190.758 147.666L214.545 169.61L211.555 173.608L186.492 151.587Z" fill="#8CA6AD"/>
<path fill-rule="evenodd" clip-rule="evenodd" d="M200.193 187.257C200.855 192.866 201.481 208.214 201.564 225.838C201.611 236.125 199.963 256.959 196.619 283.277L186.97 283.206C183.29 250.028 180.897 222.999 179.786 207.168C178.055 212.317 176.064 218.061 173.878 224.057C168.637 238.588 153.257 272.096 148.472 280.49C145.476 285.751 138.545 281.149 139.881 276.493C141.216 271.837 159.969 193.077 166.77 178.516C169.039 173.655 180.631 173.708 184.731 179.745C190.634 177.393 199.148 178.428 200.193 187.257Z" fill="#B28B67"/>
<path fill-rule="evenodd" clip-rule="evenodd" d="M180.767 266.899C181.18 262.09 176.318 201.512 177.706 185.376C178.297 178.269 202.569 174.165 204.205 187.674L201.381 268.697L180.767 266.899Z" fill="#8CA6AD"/>
<path fill-rule="evenodd" clip-rule="evenodd" d="M198.309 281.014C198.159 280.694 197.89 280.446 197.558 280.323C197.226 280.2 196.859 280.211 196.536 280.355C195.253 281.031 193.847 281.443 192.4 281.566C191.171 281.566 189.572 281.114 187.603 280.209L186.462 277.475C186.388 277.314 186.252 277.188 186.085 277.126C185.918 277.063 185.733 277.068 185.57 277.14L167.922 284.988C166.516 285.199 164.743 285.436 162.604 285.699C160.466 285.962 159.9 287.713 160.909 290.954L198.864 290.872C199.201 289.127 199.399 287.358 199.455 285.581C199.319 284.035 198.934 282.521 198.315 281.096C198.314 281.069 198.312 281.041 198.309 281.014Z" fill="#384A51"/>
<path fill-rule="evenodd" clip-rule="evenodd" d="M151.904 277.686C151.906 277.486 151.868 277.288 151.792 277.103C151.717 276.918 151.605 276.75 151.464 276.608C151.323 276.466 151.155 276.353 150.97 276.275C150.785 276.198 150.587 276.158 150.386 276.157C148.192 276.157 146.583 275.912 145.559 275.422C144.294 274.835 142.876 273.606 141.293 271.737L141.447 268.386C141.448 268.286 141.43 268.187 141.393 268.095C141.356 268.002 141.301 267.918 141.232 267.846C141.162 267.775 141.079 267.718 140.987 267.678C140.895 267.638 140.796 267.617 140.696 267.616L118.835 267.257C117.295 266.799 115.371 266.197 113.063 265.452C110.755 264.708 109.329 266.236 108.785 270.038L147.78 288.096C148.969 286.47 150.026 284.752 150.941 282.959C151.422 281.94 151.755 280.225 151.94 277.815C151.933 277.771 151.921 277.727 151.904 277.686Z" fill="#384A51"/>
<path fill-rule="evenodd" clip-rule="evenodd" d="M177.671 172.22C195.266 176.717 223.289 215.333 243.915 225.596C271.383 239.27 282.863 265.353 282.863 265.353C279.649 290.806 255.041 299.324 237.126 285.21C187.768 246.318 185.227 201.148 183.744 201.207C182.752 201.248 174.728 224.909 159.68 264.195L140.927 255.488C142.805 251.462 154.031 200.819 162.587 182.56C164.938 177.528 170.167 170.297 177.671 172.22Z" fill="#8CA6AD"/>
<path d="M237.127 285.211C187.768 246.319 185.227 201.148 183.744 201.207C182.752 201.248 174.728 224.909 159.68 264.195L140.927 255.489" stroke="black" stroke-width="0.5" stroke-linecap="round" stroke-linejoin="round"/>
<path d="M221.115 194.329C216.636 199.878 231.159 207.209 231.159 207.209C231.159 207.209 263.212 184.871 264.447 182.067C267.472 175.224 270.521 156.601 257.15 157.071C253.392 157.201 233.67 178.78 221.115 194.329Z" fill="#FDF3E8"/>
<path d="M255.732 161.492L280.352 151.805C280.352 151.805 299.998 157.895 299.224 181.897C297.723 228.607 288.334 267.77 288.334 267.77C288.334 267.77 271.129 261.05 257.416 249.546C243.703 238.042 239.52 227.937 239.52 227.937L255.732 161.492Z" fill="#FDF3E8"/>
<path d="M211.425 171.791C211.136 171.508 188.347 151.486 187.945 151.139C187.544 150.793 186.846 151.139 186.492 151.58C186.324 151.778 186.235 152.03 186.24 152.288C186.246 152.547 186.346 152.795 186.522 152.985C186.864 153.297 209.564 173.625 209.812 173.854C210.267 174.295 211.213 174.042 211.555 173.601C211.734 173.326 211.817 173.001 211.794 172.674C211.771 172.348 211.641 172.038 211.425 171.791Z" fill="#384A51"/>
<path d="M202.835 171.902C202.835 171.902 200.779 159.957 200.034 158.076C199.29 156.195 198.031 152.915 197.553 152.844C197.074 152.774 195.296 153.026 197.553 158.646C199.81 164.266 195.053 160.627 195.053 160.627L190.439 156.512C190.216 156.65 190.055 156.869 189.991 157.122C189.927 157.376 189.965 157.644 190.096 157.87C189.836 158.064 189.651 158.341 189.573 158.655C189.494 158.969 189.527 159.3 189.665 159.593C189.374 159.871 189.167 160.226 189.069 160.616C188.971 161.005 188.985 161.415 189.11 161.797C188.088 162.861 188.926 164.83 190.096 165.824C197.435 172.038 197.777 176.405 197.777 176.405L202.835 171.902Z" fill="#B28B67"/>
<path d="M197.759 176.382C197.759 176.382 210.007 216.649 235.112 224.585C239.543 225.984 276.984 198.132 276.984 198.132L269.427 187.139L236.677 211.359C228.843 199.566 208.554 185.141 202.864 171.902C199.792 164.819 197.759 176.382 197.759 176.382Z" fill="#B28B67"/>
<path d="M279.295 171.579L251.75 197.015L260.057 210.906C256.016 212.857 291.289 190.707 291.879 185.963C292.789 178.756 294.834 171.449 286.438 169.645C285.178 169.408 283.88 169.459 282.642 169.794C281.405 170.129 280.26 170.739 279.295 171.579Z" fill="#FDF3E8"/>
<path d="M279.295 171.578L251.75 197.014L260.057 210.905C256.016 212.857 291.289 190.707 291.879 185.963" stroke="black" stroke-width="0.5" stroke-linecap="round" stroke-linejoin="round"/>
<path fill-rule="evenodd" clip-rule="evenodd" d="M262.45 93.9121H264.317C275.377 93.9121 284.346 107.039 284.346 118.049V133.333C284.346 138.235 282.531 142.966 279.247 146.62C275.963 150.275 271.441 152.597 266.544 153.144C266.544 153.191 266.544 153.238 266.544 153.285H239.513C235.242 149.135 237.948 121.982 240.14 112.059C242.917 99.4849 252.406 93.9121 262.45 93.9121Z" fill="black"/>
<path fill-rule="evenodd" clip-rule="evenodd" d="M280.263 152.809C280.263 152.809 278.201 162.338 267.738 163.79C259.767 164.895 255.992 157.482 255.992 157.482L256.169 144.238C256.169 144.238 252.004 145.243 249.741 143.85C239.762 137.701 240.612 116.098 246.013 106.086C251.413 96.0754 279.17 91.7077 280.565 111.548C281.055 118.431 278.148 124.58 273.853 129.595L280.263 152.809Z" fill="#B28B67"/>
<path fill-rule="evenodd" clip-rule="evenodd" d="M264.813 117.186C257.333 112.577 248.92 111.478 246.751 104.077C249.652 99.8326 253.061 94.8418 263.85 94.8418C269.481 94.8418 280.618 94.8418 284.346 123.059C285.41 131.089 292.984 136.485 291.578 152.827H270.261C265.912 144.832 267.761 140.177 267.986 130.777C268.199 121.895 265.203 116.874 264.813 117.186Z" fill="black"/>
<path fill-rule="evenodd" clip-rule="evenodd" d="M245.505 107.127C245.505 107.127 243.898 114.181 243.898 115.892L249.215 115.974L248.5 109.202L250.521 115.827L264.843 117.185L246.781 104.076L245.505 107.127Z" fill="black"/>
<g style="mix-blend-mode:multiply">
<path fill-rule="evenodd" clip-rule="evenodd" d="M256.169 144.238C256.169 144.238 261.711 143.679 265.109 141.404C265.109 141.404 263.744 145.108 256.169 146.301V144.238Z" fill="#B28B67"/>
</g>
<path fill-rule="evenodd" clip-rule="evenodd" d="M250.231 137.02C250.231 137.02 254.651 139.295 257.02 134.957C255.031 136.336 252.656 137.058 250.231 137.02Z" fill="black"/>
<path fill-rule="evenodd" clip-rule="evenodd" d="M247.756 121.647C247.614 121.476 245.334 120.765 243.998 122.164C243.851 122.317 243.998 122.546 244.105 122.458C244.541 122.087 245.086 121.869 245.659 121.835C247.183 121.576 248.04 121.993 247.756 121.647Z" fill="black"/>
<path fill-rule="evenodd" clip-rule="evenodd" d="M260.66 121.647C260.524 121.476 258.237 120.765 256.908 122.164C256.76 122.317 256.908 122.546 257.014 122.458C257.448 122.088 257.992 121.869 258.562 121.835C260.092 121.576 260.949 121.993 260.66 121.647Z" fill="black"/>
<path fill-rule="evenodd" clip-rule="evenodd" d="M250.58 123.041C250.58 123.041 247.236 132.135 250.503 132.588C251.869 132.743 253.244 132.382 254.355 131.577C254.355 131.577 250.994 132.464 250.149 131.806C249.304 131.147 249.245 129.114 250.58 123.041Z" fill="black"/>
<path d="M245.398 125.032C245.996 125.032 246.48 124.551 246.48 123.957C246.48 123.362 245.996 122.881 245.398 122.881C244.801 122.881 244.317 123.362 244.317 123.957C244.317 124.551 244.801 125.032 245.398 125.032Z" fill="black"/>
<path d="M258.291 124.78C258.888 124.78 259.372 124.299 259.372 123.705C259.372 123.111 258.888 122.629 258.291 122.629C257.694 122.629 257.209 123.111 257.209 123.705C257.209 124.299 257.694 124.78 258.291 124.78Z" fill="black"/>
<g style="mix-blend-mode:multiply">
<path d="M251.717 132.385C252.855 132.361 253.772 132.059 253.765 131.712C253.757 131.365 252.828 131.103 251.689 131.127C250.551 131.152 249.634 131.453 249.642 131.801C249.649 132.148 250.578 132.41 251.717 132.385Z" fill="#B28B67"/>
</g>
<g style="mix-blend-mode:multiply">
<path d="M189.104 161.797C190.263 163.603 191.676 165.236 193.298 166.647L189.104 161.797Z" fill="#B28B67"/>
</g>
<g style="mix-blend-mode:multiply">
<path d="M189.665 159.582C189.665 159.582 191.567 162.768 193.505 164.208C193.499 164.208 190.037 160.176 189.665 159.582Z" fill="#B28B67"/>
</g>
<g style="mix-blend-mode:multiply">
<path d="M190.09 157.859C191.003 159.034 191.989 160.149 193.044 161.198C193.044 161.198 190.598 158.071 190.09 157.859Z" fill="#B28B67"/>
</g>
<path fill-rule="evenodd" clip-rule="evenodd" d="M88.3951 167.611C113.136 181.28 144.714 174.352 161.291 150.678C179.03 125.343 172.873 90.4243 147.539 72.6847C122.204 54.9452 87.2853 61.1023 69.5457 86.437C52.9688 110.111 57.2589 142.154 78.5653 160.728L41.1006 214.233L50.9304 221.116L88.3951 167.611ZM152.28 144.368C138.025 164.726 109.966 169.674 89.6073 155.419C69.2491 141.164 64.3014 113.105 78.5564 92.7463C92.8114 72.3881 120.871 67.4404 141.229 81.6954C161.587 95.9504 166.535 124.01 152.28 144.368Z" fill="#456682"/>
<mask id="path-112-inside-1" fill="white">
<path fill-rule="evenodd" clip-rule="evenodd" d="M105.926 173.493C75.5859 168.251 55.2396 139.406 60.4816 109.065L59.9889 108.98C55.8113 133.16 67.7409 156.398 88.0243 167.703L50.8688 220.767L41.2438 214.027L40.957 214.437L50.7868 221.32L50.9916 221.463L51.135 221.258L88.4646 167.946C93.7457 170.828 99.5827 172.904 105.841 173.986C136.454 179.275 165.558 158.746 170.846 128.133L170.354 128.048C165.112 158.389 136.267 178.735 105.926 173.493Z"/>
</mask>
<path d="M60.4816 109.065L60.9743 109.151L61.0594 108.658L60.5667 108.573L60.4816 109.065ZM105.926 173.493L105.841 173.986L105.926 173.493ZM59.9889 108.98L60.074 108.488L59.5813 108.402L59.4962 108.895L59.9889 108.98ZM88.0243 167.703L88.4338 167.99L88.7516 167.536L88.2677 167.267L88.0243 167.703ZM50.8688 220.767L50.582 221.176L50.9916 221.463L51.2784 221.054L50.8688 220.767ZM41.2438 214.027L41.5306 213.618L41.121 213.331L40.8342 213.741L41.2438 214.027ZM40.957 214.437L40.5474 214.15L40.2606 214.56L40.6702 214.846L40.957 214.437ZM50.9916 221.463L50.7048 221.873L51.1144 222.16L51.4012 221.75L50.9916 221.463ZM88.4646 167.946L88.7041 167.507L88.3115 167.293L88.055 167.659L88.4646 167.946ZM105.841 173.986L105.756 174.478L105.756 174.478L105.841 173.986ZM170.846 128.133L171.339 128.218L171.424 127.726L170.932 127.641L170.846 128.133ZM170.354 128.048L170.439 127.555L169.946 127.47L169.861 127.963L170.354 128.048ZM59.9889 108.98C54.6999 139.593 75.2287 168.697 105.841 173.986L106.011 173C75.9432 167.805 55.7793 139.219 60.9743 109.151L59.9889 108.98ZM59.9037 109.473L60.3964 109.558L60.5667 108.573L60.074 108.488L59.9037 109.473ZM88.2677 167.267C68.164 156.062 56.3413 133.029 60.4816 109.065L59.4962 108.895C55.2814 133.29 67.3178 156.735 87.7808 168.14L88.2677 167.267ZM51.2784 221.054L88.4338 167.99L87.6147 167.417L50.4592 220.48L51.2784 221.054ZM40.957 214.437L50.582 221.176L51.1556 220.357L41.5306 213.618L40.957 214.437ZM41.3666 214.724L41.6533 214.314L40.8342 213.741L40.5474 214.15L41.3666 214.724ZM51.0736 220.91L41.2438 214.027L40.6702 214.846L50.5 221.729L51.0736 220.91ZM51.2784 221.054L51.0736 220.91L50.5 221.729L50.7048 221.873L51.2784 221.054ZM50.7254 220.972L50.582 221.176L51.4012 221.75L51.5446 221.545L50.7254 220.972ZM88.055 167.659L50.7254 220.972L51.5446 221.545L88.8742 168.233L88.055 167.659ZM105.926 173.493C99.7226 172.421 93.9377 170.363 88.7041 167.507L88.2251 168.385C93.5537 171.293 99.4428 173.388 105.756 174.478L105.926 173.493ZM170.354 128.048C165.112 158.389 136.267 178.735 105.926 173.493L105.756 174.478C136.641 179.814 166.003 159.103 171.339 128.218L170.354 128.048ZM170.269 128.541L170.761 128.626L170.932 127.641L170.439 127.555L170.269 128.541ZM105.841 173.986C136.454 179.275 165.558 158.746 170.846 128.133L169.861 127.963C164.666 158.031 136.08 178.195 106.011 173L105.841 173.986Z" fill="black" mask="url(#path-112-inside-1)"/>
<rect x="65.8467" y="175.404" width="16" height="46" transform="rotate(35 65.8467 175.404)" fill="#F7C5A8"/>
<path d="M78.9529 184.582L52.5684 222.263L39.4619 213.085" stroke="black" stroke-width="0.5"/>
<defs>
<clipPath id="clip0">
<rect x="81.0002" y="73" width="80" height="91" rx="21" fill="white"/>
</clipPath>
</defs>
</svg>
