<svg width="260" height="249" viewBox="0 0 260 249" fill="none" xmlns="http://www.w3.org/2000/svg">
<path opacity="0.27" d="M230.791 200.45C230.791 200.45 205.983 258.243 159.889 243.121C113.794 227.999 112.57 193.141 69.4008 210.004C26.2313 226.866 0.728433 173.099 26.8744 93.962C53.0205 14.8246 120.883 -17.4708 143.146 21.1692C165.409 59.8091 124.325 122.388 158.238 116.066C192.151 109.744 277.268 107.191 230.791 200.45Z" fill="#FDF3E8"/>
<path d="M45.9415 205.659C45.9415 205.659 50.2942 198.5 54.1354 194.835C49.7827 195.883 45.9415 198.677 45.9415 198.677L50.6418 180.53C50.6418 180.53 44.7224 186.117 42.4479 193.276C42.4479 186.991 38.269 174.77 38.269 174.77C38.269 174.77 33.5811 187.502 33.7549 192.215C32.5358 181.914 28.3569 173.361 28.3569 173.361C28.3569 173.361 29.9237 193.779 28.3569 199.025C26.6188 187.502 18.0847 178.772 18.0847 178.772C18.0847 178.772 22.4374 189.947 22.2636 196.406C18.0847 193.089 10.5935 193.263 10.5935 193.263C10.5935 193.263 18.9513 198.151 20.3443 206.881C25.9211 207.404 45.9415 205.659 45.9415 205.659Z" fill="#48426D" stroke="#48426D" stroke-width="0.75"/>
<path d="M19.6093 208.801H47.9875V233.156C47.9882 236.93 46.4937 240.549 43.8329 243.218C41.1721 245.887 37.563 247.386 33.7997 247.386C25.9639 247.386 19.6118 241.016 19.6118 233.159V208.801H19.6093Z" fill="#6886C5"/>
<path d="M47.9875 233.159V208.801H19.6093V210.908C19.6093 210.908 43.1556 212.828 44.7224 226.445C46.2892 240.063 35.7265 248.333 22.2959 241.495C24.9631 245.199 29.2436 247.391 33.7997 247.386C41.6349 247.385 47.9862 241.016 47.9875 233.159Z" fill="#6886C5"/>
<path fill-rule="evenodd" clip-rule="evenodd" d="M19.6093 208.801H47.9875V233.156C47.9882 236.93 46.4937 240.549 43.8329 243.218C41.1721 245.887 37.563 247.386 33.7997 247.386V247.386C25.9639 247.386 19.6118 241.016 19.6118 233.159V208.801H19.6093Z" stroke="#48426D" stroke-width="0.75"/>
<path d="M44.3749 206.007C44.3749 206.007 49.4228 192.041 53.4279 184.185C50.2943 185.756 44.3749 195.009 44.3749 195.009L52.3826 157.124C52.3826 157.124 39.8484 176.678 36.5311 199.374C36.5311 190.47 34.4404 171.09 32.8736 169.17C31.4806 176.678 32.1784 196.406 32.1784 196.406C32.1784 196.406 26.0851 169.514 16.8582 165.853C21.7324 174.932 25.9113 192.215 25.9113 196.58C24.5183 193.094 16.5081 183.311 12.3317 183.485C16.8582 188.376 22.2637 202.16 21.5586 206.533C20.8534 210.905 41.2488 210.547 44.3749 206.007Z" fill="#8BBAF1"/>
<path d="M25.6058 195.903C23.7188 192.212 17.1463 184.361 13.094 183.552C13.094 183.552 21.3922 191.52 26.9616 202.342C26.964 201.057 26.0503 197.984 25.6058 195.903Z" fill="#6886C5"/>
<path d="M32.1484 195.106C32.1708 195.933 32.1882 196.406 32.1882 196.406C32.1882 196.406 26.0949 169.514 16.868 165.853C18.1095 168.171 18.2089 167.347 19.3039 170.393C26.0949 177.726 29.2508 191.107 31.1428 197.628C32.362 199.897 32.8064 196.963 32.1484 195.106Z" fill="#6886C5"/>
<path d="M32.3622 174.232C34.0009 178.854 34.4504 193.786 36.541 199.381C36.541 190.477 34.4504 171.097 32.8836 169.177C32.4093 171.725 32.4615 170.104 32.3622 174.232Z" fill="#6886C5"/>
<path d="M36.5311 199.374C36.6605 198.751 36.7801 198.054 36.8597 197.297C36.7485 197.988 36.639 198.68 36.5311 199.374Z" fill="#6886C5"/>
<path d="M52.3451 157.183C49.6908 163.51 42.9867 180.728 41.5888 196.057C41.415 201.119 42.8079 199.722 43.8533 196.057C44.0196 195.467 44.3151 194.6 44.7 193.467L52.3824 157.113L52.3451 157.183Z" fill="#6886C5"/>
<path d="M44.5436 205.546C45.4499 203.074 49.8547 191.196 53.4277 184.185C53.311 184.242 53.1794 184.314 53.0652 184.391C50.2892 188.497 44.6652 197.013 42.9867 201.293C41.703 203.226 25.0445 202.636 21.4839 203.895C21.5087 204.067 21.5311 204.232 21.551 204.393C30.5568 206.161 40.3175 209.117 44.5436 205.546Z" fill="#6886C5"/>
<path fill-rule="evenodd" clip-rule="evenodd" d="M44.3749 206.007C44.3749 206.007 49.4228 192.041 53.4279 184.185C50.2943 185.756 44.3749 195.009 44.3749 195.009L52.3826 157.124C52.3826 157.124 39.8484 176.678 36.5311 199.374C36.5311 190.47 34.4404 171.09 32.8736 169.17C31.4806 176.678 32.1784 196.406 32.1784 196.406C32.1784 196.406 26.0851 169.514 16.8582 165.853C21.7324 174.932 25.9113 192.215 25.9113 196.58C24.5183 193.094 16.5081 183.311 12.3317 183.485C16.8582 188.376 22.2637 202.16 21.5586 206.533C20.8534 210.905 41.2488 210.547 44.3749 206.007Z" stroke="#48426D" stroke-width="0.75"/>
<rect x="17.6078" y="204.262" width="32.3833" height="6.63338" rx="3.31669" fill="#6886C5"/>
<path d="M17.6078 207.578C17.608 207.997 17.6872 208.412 17.8413 208.801H39.6743C40.5523 208.802 41.3948 208.453 42.0162 207.831C42.6375 207.209 42.9866 206.365 42.9866 205.484C42.9862 205.066 42.907 204.651 42.7532 204.262H20.9152C19.0886 204.262 17.6078 205.747 17.6078 207.578Z" fill="#6886C5"/>
<rect x="17.6078" y="204.262" width="32.3833" height="6.63338" rx="3.31669" stroke="#48426D" stroke-width="0.75"/>
<path d="M41.7369 133.27C42.0499 131.372 43.8418 130.088 45.7393 130.403C47.6369 130.718 48.9214 132.511 48.6084 134.409L46.1059 149.585C45.7929 151.483 44.001 152.766 42.1035 152.451C40.206 152.137 38.9214 150.343 39.2344 148.445L41.7369 133.27Z" fill="#6886C5"/>
<path d="M45.4076 145.734L47.754 131.511C46.8605 130.511 45.473 130.114 44.1874 130.491C42.9019 130.869 41.9469 131.953 41.7327 133.279L39.3863 147.502C40.2798 148.503 41.6673 148.9 42.9529 148.522C44.2384 148.145 45.1934 147.06 45.4076 145.734Z" fill="#8BBAF1"/>
<path fill-rule="evenodd" clip-rule="evenodd" d="M41.7369 133.27C42.0499 131.372 43.8418 130.088 45.7393 130.403V130.403C47.6369 130.718 48.9214 132.511 48.6084 134.409L46.1059 149.585C45.7929 151.483 44.001 152.766 42.1035 152.451V152.451C40.206 152.137 38.9214 150.343 39.2344 148.445L41.7369 133.27Z" stroke="#48426D" stroke-width="0.75" stroke-linecap="round"/>
<path d="M43.2647 145.388L37.4421 180.701L43.2647 145.388Z" fill="#48426D"/>
<path d="M43.2647 145.388L37.4421 180.701" stroke="#48426D" stroke-width="0.75" stroke-linecap="round"/>
<path d="M20.7877 143.228C20.5294 141.322 21.8649 139.567 23.7706 139.307C25.6764 139.047 27.4307 140.382 27.689 142.287L29.7549 157.53C30.0132 159.436 28.6777 161.191 26.7719 161.451C24.8662 161.711 23.1118 160.376 22.8535 158.47L20.7877 143.228Z" fill="#6886C5"/>
<path d="M27.9523 154.058L26.0156 139.773C24.8681 139.081 23.4264 139.112 22.3092 139.852C21.192 140.592 20.5977 141.909 20.7814 143.239L22.7181 157.524C23.8657 158.216 25.3073 158.185 26.4245 157.446C27.5417 156.706 28.136 155.388 27.9523 154.058Z" fill="#8BBAF1"/>
<path fill-rule="evenodd" clip-rule="evenodd" d="M20.7877 143.228C20.5294 141.322 21.8649 139.567 23.7706 139.307V139.307C25.6764 139.047 27.4307 140.382 27.689 142.287L29.7549 157.53C30.0132 159.436 28.6777 161.191 26.7719 161.451V161.451C24.8662 161.711 23.1118 160.376 22.8535 158.47L20.7877 143.228Z" stroke="#48426D" stroke-width="0.75" stroke-linecap="round"/>
<path d="M25.8021 154.359L30.6092 189.825L25.8021 154.359Z" fill="#48426D"/>
<path d="M25.8021 154.359L30.6092 189.825" stroke="#48426D" stroke-width="0.75" stroke-linecap="round"/>
<path d="M12.3786 171.074C13.1943 172.29 12.8719 173.939 11.6586 174.758C10.4453 175.576 8.8004 175.255 7.9847 174.039L1.47695 164.342C0.661256 163.127 0.983611 161.478 2.19695 160.659C3.41029 159.84 5.05514 160.161 5.87083 161.377L12.3786 171.074Z" fill="#6886C5"/>
<path d="M7.25141 171.159L1.14819 162.063C1.45436 161.092 2.28763 160.383 3.2928 160.237C4.29796 160.091 5.29773 160.535 5.8659 161.379L11.9741 170.475C11.6679 171.446 10.8346 172.156 9.82948 172.302C8.82432 172.447 7.82455 172.004 7.25638 171.159H7.25141Z" fill="#8BBAF1"/>
<path fill-rule="evenodd" clip-rule="evenodd" d="M12.3786 171.074C13.1943 172.29 12.8719 173.939 11.6586 174.758V174.758C10.4453 175.576 8.8004 175.255 7.9847 174.039L1.47695 164.342C0.661256 163.127 0.983611 161.478 2.19695 160.659V160.659C3.41029 159.84 5.05514 160.161 5.87083 161.377L12.3786 171.074Z" stroke="#48426D" stroke-width="0.75" stroke-linecap="round"/>
<path d="M8.62445 170.241L23.7807 192.823L8.62445 170.241Z" fill="#48426D"/>
<path d="M8.62445 170.241L23.7807 192.823" stroke="#48426D" stroke-width="0.75" stroke-linecap="round"/>
<path d="M61.8408 155.227C62.4861 154.072 63.9442 153.662 65.0973 154.31C66.2505 154.958 66.6622 156.42 66.0168 157.574L60.8635 166.794C60.2181 167.949 58.7601 168.36 57.6069 167.712C56.4538 167.064 56.0421 165.602 56.6875 164.447L61.8408 155.227Z" fill="#6886C5"/>
<path d="M61.3164 164.145L66.1483 155.497C65.7983 154.651 64.9984 154.078 64.0866 154.021C63.1748 153.964 62.31 154.432 61.8577 155.229L57.0258 163.876C57.3713 164.731 58.1751 165.311 59.0929 165.368C60.0108 165.426 60.8801 164.95 61.3288 164.145H61.3164Z" fill="#8BBAF1"/>
<path fill-rule="evenodd" clip-rule="evenodd" d="M61.8408 155.227C62.4861 154.072 63.9442 153.662 65.0973 154.31V154.31C66.2505 154.958 66.6622 156.42 66.0168 157.574L60.8635 166.794C60.2181 167.949 58.7601 168.36 57.6069 167.712V167.712C56.4538 167.064 56.0421 165.602 56.6875 164.447L61.8408 155.227Z" stroke="#48426D" stroke-width="0.75" stroke-linecap="round"/>
<path d="M60.0127 163.418L48.0148 184.885L60.0127 163.418Z" fill="#48426D"/>
<path d="M60.0127 163.418L48.0148 184.885" stroke="#48426D" stroke-width="0.75" stroke-linecap="round"/>
<path d="M76.0108 169.2C78.8906 169.2 81.2251 166.859 81.2251 163.971C81.2251 161.083 78.8906 158.742 76.0108 158.742C73.131 158.742 70.7965 161.083 70.7965 163.971C70.7965 166.859 73.131 169.2 76.0108 169.2Z" fill="#2B2E4A" stroke="#2B2E4A" stroke-width="0.75" stroke-linecap="round"/>
<path d="M124.181 114.808C124.181 141.549 102.435 162.726 75.7622 162.726C49.0898 162.726 27.5919 141.561 27.5919 114.808C27.5919 88.0558 49.2139 43.4548 75.8863 43.4548C102.559 43.4548 124.181 88.0708 124.181 114.808Z" fill="#FDF3E8"/>
<path d="M124.181 114.808C124.181 141.549 102.435 162.726 75.7622 162.726C49.0898 162.726 27.5919 141.561 27.5919 114.808C27.5919 88.0558 49.2139 43.4548 75.8863 43.4548C102.559 43.4548 124.181 88.0708 124.181 114.808Z" fill="#FDF3E8"/>
<path opacity="0.78" d="M108.042 102.468C106.989 82.2016 87.9914 61.7562 87.9914 61.7562C25.2311 42.9591 47.2081 122.886 47.2081 122.886C47.2081 122.886 40.2557 134.091 61.3612 149.778C63.6578 151.479 66.3033 152.646 69.1057 153.194C69.0883 153.216 69.0726 153.24 69.0585 153.264C69.0585 153.264 77.2525 155.007 79.4872 158.742C81.7914 162.591 69.5204 162.332 69.5204 162.332C69.5204 162.332 90.4124 164.718 95.1301 156.999C97.2928 153.463 92.2746 151.817 86.077 151.332C101.586 145.891 116.514 132.358 118.47 126.87C121.542 118.259 109.283 126.372 108.042 102.468Z" fill="#F7C5A8"/>
<path fill-rule="evenodd" clip-rule="evenodd" d="M124.181 114.808C124.181 141.549 102.435 162.726 75.7622 162.726C49.0898 162.726 27.5919 141.561 27.5919 114.808C27.5919 88.0558 49.2139 43.4548 75.8863 43.4548C102.559 43.4548 124.181 88.0708 124.181 114.808Z" stroke="#2B2E4A" stroke-width="0.75"/>
<path d="M88.6741 237.426C90.8492 239.062 92.2297 238.442 92.8182 237.989C92.2074 235.461 91.5345 232.944 91.1571 231.201C89.9156 225.474 142.059 177.666 139.576 148.782C139.422 147.053 139.058 145.35 138.493 143.71C135.667 141.307 132.127 139.693 127.657 139.32C125.478 139.135 123.287 139.18 121.117 139.452C123.888 143.005 121.365 149.188 116.484 160.485C108.29 179.409 81.97 221.988 84.453 230.703C84.4828 230.81 84.5175 230.917 84.5498 231.024C85.9601 233.629 87.3407 236.425 88.6741 237.426Z" fill="#F0BFA4"/>
<path d="M138.493 143.71C135.667 141.307 132.127 139.693 127.657 139.32C125.478 139.135 123.286 139.18 121.117 139.452C123.888 143.005 121.365 149.188 116.484 160.485C113.278 167.89 110.51 181.152 104.565 192.357C107.793 191.416 111.381 185.883 114.746 180.156C129.147 155.702 134.898 151.197 139.327 153.762C140.005 150.682 139.824 151.566 139.576 148.782C139.422 147.053 139.058 145.35 138.493 143.71Z" fill="#EAB292"/>
<path fill-rule="evenodd" clip-rule="evenodd" d="M88.6741 237.426C90.8492 239.062 92.2297 238.442 92.8182 237.989C92.2074 235.461 91.5345 232.944 91.1571 231.201C89.9156 225.474 142.059 177.666 139.576 148.782C139.422 147.053 139.058 145.35 138.493 143.71C135.667 141.307 132.127 139.693 127.657 139.32C125.478 139.135 123.287 139.18 121.117 139.452C123.888 143.005 121.365 149.188 116.484 160.485C108.29 179.409 81.97 221.988 84.453 230.703C84.4828 230.81 84.5175 230.917 84.5498 231.024C85.9601 233.629 87.3407 236.425 88.6741 237.426Z" stroke="#2B2E4A" stroke-width="0.75" stroke-linecap="round"/>
<path d="M92.8181 237.989C92.2296 238.442 90.8491 239.062 88.6739 237.426C87.3406 236.43 85.96 233.629 84.5497 231.024C86.5187 237.498 92.4953 245.32 93.3917 247.884C95.0131 248.083 93.9603 242.715 92.8181 237.989Z" fill="#2B2E4A" stroke="#2B2E4A" stroke-width="0.75" stroke-linecap="round"/>
<path d="M83.9563 27.1973C83.9563 27.1973 92.6468 32.9965 83.9563 41.4625C75.7624 49.4305 78.2454 27.7675 83.4597 27.5185" fill="#48426D"/>
<path d="M127.16 42.9567C124.677 41.7117 123.188 45.4467 122.691 45.6957C122.194 45.9447 123.436 42.4587 121.698 43.9527C110.276 58.3948 116.235 74.8288 111.766 76.8208C110.149 77.5404 109.119 77.2466 108.061 76.0912C106.497 80.0753 103.84 88.6608 106.417 95.9739C108.348 96.341 110.329 96.3477 112.262 95.9939C128.898 93.0059 124.429 72.8368 122.691 60.6358C120.953 48.4347 132.623 45.6957 127.16 42.9567Z" fill="#F0BFA4"/>
<path d="M120.953 61.8806C122.194 74.0816 120.208 88.5236 113.504 89.5196C106.8 90.5156 108.041 76.3226 108.041 76.3226L107.994 76.2653C106.422 80.3265 103.882 88.7651 106.417 95.9737C108.348 96.3408 110.329 96.3475 112.262 95.9936C128.898 93.0056 124.429 72.8366 122.691 60.6355C121.392 51.5246 127.57 47.6875 128.509 45.1975C125.623 47.1148 120.012 52.6401 120.953 61.8806Z" fill="#EAB292"/>
<path fill-rule="evenodd" clip-rule="evenodd" d="M127.16 42.9567C124.677 41.7117 123.188 45.4467 122.691 45.6957C122.194 45.9447 123.436 42.4587 121.698 43.9527C110.276 58.3948 116.235 74.8288 111.766 76.8208C110.149 77.5404 109.119 77.2466 108.061 76.0912C106.497 80.0753 103.84 88.6608 106.417 95.9739C108.348 96.341 110.329 96.3477 112.262 95.9939C128.898 93.0059 124.429 72.8368 122.691 60.6358C120.953 48.4347 132.623 45.6957 127.16 42.9567Z" stroke="#2B2E4A" stroke-width="0.75" stroke-linecap="round"/>
<path d="M77.9971 74.3307C77.9971 74.3307 93.3793 93.5037 106.418 95.9738C103.848 88.6607 106.497 80.0826 108.061 76.0911C106.194 74.0493 104.245 69.3034 98.8543 62.6277C90.4121 52.1696 80.2318 53.1656 80.2318 53.1656" fill="#FF847C"/>
<path d="M106.418 95.9737C103.848 88.6606 106.497 80.0825 108.061 76.091C107.92 75.9391 107.781 75.7673 107.639 75.593C106.346 77.9386 103.306 77.087 97.1162 71.111C90.1638 64.388 85.4461 68.123 85.4461 68.123C82.5036 69.6719 80.1049 72.0877 78.5731 75.0452C81.4733 78.4864 94.8666 93.775 106.418 95.9737Z" fill="#ED6663"/>
<path d="M80.2317 53.1656C80.2317 53.1656 90.412 52.1696 98.8542 62.6277C104.245 69.3034 106.194 74.0493 108.061 76.0911C106.497 80.0751 103.84 88.6607 106.417 95.9738C93.3916 93.4938 85.9426 75.3267 85.9426 75.3267C85.9426 75.3267 67.5684 66.3627 80.2317 53.1656" stroke="#2B2E4A" stroke-width="0.75" stroke-linecap="round"/>
<path d="M127.657 139.32C132.126 139.686 135.667 141.312 138.493 143.709C132.355 125.702 103.82 115.167 103.82 115.167C103.82 115.167 64.5887 105.705 56.3948 108.942C48.2009 112.179 50.6839 138.134 66.3269 148.035C82.4664 158.244 96.6195 155.754 94.3848 162.726C94.3848 162.726 103.324 137.328 127.657 139.32Z" fill="#48426D"/>
<path d="M77.997 127.866C99.5991 124.878 103.82 115.167 103.82 115.167C103.82 115.167 64.5888 105.705 56.3948 108.942C48.2009 112.179 50.6839 138.134 66.3269 148.035C82.4664 158.244 96.6195 155.754 94.3848 162.726C94.3848 162.726 101.685 141.991 121.045 139.462C114.249 134.845 97.7716 151.264 86.1909 150.276C74.5208 149.28 56.3948 130.854 77.997 127.866Z" fill="#2B2E4A"/>
<path fill-rule="evenodd" clip-rule="evenodd" d="M127.657 139.32C132.126 139.686 135.667 141.312 138.493 143.71C132.355 125.702 103.82 115.167 103.82 115.167C103.82 115.167 64.5887 105.705 56.3948 108.942C48.2009 112.179 50.6839 138.134 66.3269 148.035C82.4664 158.244 96.6195 155.754 94.3848 162.726C94.3848 162.726 103.324 137.328 127.657 139.32Z" stroke="#2B2E4A" stroke-width="0.75" stroke-linecap="round"/>
<path d="M121.45 160.983C126.341 149.686 123.888 143.005 121.117 139.452C101.702 141.934 94.3849 162.726 94.3849 162.726C90.6604 175.674 79.9835 229.707 79.4869 230.952C78.9903 232.197 85.9427 241.908 91.6536 246.39C92.3762 246.958 92.8951 247.237 93.2626 247.282C92.3538 244.675 89.2898 237.755 87.4325 231.201C84.9495 222.486 113.256 179.907 121.45 160.983Z" fill="#F0BFA4"/>
<path d="M121.117 139.444C101.702 141.934 94.3849 162.726 94.3849 162.726C90.6604 175.674 79.9835 229.707 79.4869 230.952C79.0325 232.09 84.808 240.307 90.1638 245.145C90.7722 244.084 89.0986 240.77 85.4461 232.695C79.2386 219 95.1298 185.136 99.5992 166.71C104.069 148.284 123.627 154.011 123.684 154.011C125.174 147.537 122.443 141.14 121.117 139.444Z" fill="#EAB292"/>
<path fill-rule="evenodd" clip-rule="evenodd" d="M121.45 160.983C126.341 149.686 123.888 143.005 121.117 139.452C101.702 141.934 94.3849 162.726 94.3849 162.726C90.6604 175.674 79.9835 229.707 79.4869 230.952C78.9903 232.197 85.9427 241.908 91.6536 246.39C92.3762 246.958 92.8951 247.237 93.2626 247.282C92.3538 244.675 89.2898 237.755 87.4325 231.201C84.9495 222.486 113.256 179.907 121.45 160.983Z" stroke="#2B2E4A" stroke-width="0.75" stroke-linecap="round"/>
<path d="M56.4395 93.4615C56.2925 92.7189 56.3163 91.9525 56.509 91.2205C59.1261 80.5558 81.9697 76.3228 81.7214 69.1018C81.4731 61.8808 77.0037 50.1778 72.286 51.6718C72.286 51.6718 56.6431 53.6638 46.7111 74.8288C41.6259 85.6603 40.0567 94.8734 41.7699 101.347C46.1375 94.6767 53.0825 93.5761 56.4395 93.4615Z" fill="#FF847C"/>
<path d="M69.5546 79.2235C68.8097 75.4412 67.0518 72.1992 64.3403 70.8446C64.3403 70.8446 62.1056 67.3586 55.8981 72.0897C49.6906 76.8207 50.6838 88.5237 46.4627 91.7607C43.6991 93.8772 42.1348 97.3632 42.1746 100.75C46.5571 94.6118 53.1842 93.5734 56.4394 93.4614C56.2924 92.7188 56.3162 91.9524 56.5089 91.2204C57.7703 86.0785 63.7345 82.4232 69.5546 79.2235Z" fill="#ED6663"/>
<path fill-rule="evenodd" clip-rule="evenodd" d="M56.4395 93.4615C56.2925 92.7189 56.3163 91.9525 56.509 91.2205C59.1261 80.5558 81.9697 76.3228 81.7214 69.1018C81.4731 61.8808 77.0037 50.1778 72.286 51.6718C72.286 51.6718 56.6431 53.6638 46.7111 74.8288C41.6259 85.6603 40.0567 94.8734 41.7699 101.347C46.1375 94.6767 53.0825 93.5761 56.4395 93.4615Z" stroke="#2B2E4A" stroke-width="0.75" stroke-linecap="round"/>
<path d="M63.844 61.3825C63.767 62.0473 62.0786 71.9276 61.7906 73.0432C58.5304 72.6821 55.2205 75.329 54.1429 79.3329C53.1224 83.1152 54.4309 86.8577 57.1076 88.3866C53.9393 98.6952 50.8455 110.089 52.6705 114.171C55.8984 121.392 103.075 120.396 103.82 115.167C104.215 112.393 99.9965 99.1683 95.9467 87.3682C98.5961 85.8244 99.8873 82.0993 98.8717 78.3369C97.7221 74.069 94.0373 71.3425 90.581 72.1567C89.5629 69.343 86.4393 57.6475 86.4393 57.6475" fill="#FF847C"/>
<path d="M100.096 99.8532C99.5744 98.4936 103.82 115.167 87.9291 116.91C61.361 118.404 55.8984 97.9856 55.8984 97.9856C55.6501 97.1888 55.2479 96.6884 54.7538 96.4319C52.6705 104.086 51.3173 111.143 52.6705 114.171C55.8984 121.392 103.075 120.396 103.82 115.167C104.069 113.371 102.398 107.199 100.083 99.8606L100.096 99.8532Z" fill="#ED6663"/>
<path d="M71.0918 47.6876C71.0918 47.6876 69.9372 65.1177 79.1665 63.3747C84.2442 62.1297 77.0907 52.9167 83.3206 49.6796C89.5504 46.4426 73.8603 38.7236 71.0918 47.6876Z" fill="#F0BFA4"/>
<path d="M76.5073 51.1736C75.5141 52.9166 76.259 54.9087 77.2522 55.6557C78.2454 56.4027 80.9767 58.1457 80.7284 61.1337C80.6936 61.5644 80.7855 61.7562 80.9593 61.7562C81.7638 59.0894 79.2709 54.0147 81.6794 50.9944C80.4155 50.5985 77.2944 49.8041 76.5073 51.1736Z" fill="#EAB292"/>
<path d="M84.4528 35.7357C84.4528 35.7357 83.9562 38.2257 86.4392 41.2137C88.9222 44.2017 89.4188 53.9127 80.2317 53.1657C71.0446 52.4187 70.0514 42.7077 71.5412 39.9687C73.031 37.2297 80.7283 28.2657 84.4528 35.7357Z" fill="#F0BFA4"/>
<path d="M85.4462 39.9685C83.6385 37.3391 84.453 35.7355 84.453 35.7355C83.3306 33.4821 81.8458 32.7251 80.279 32.8421C79.0375 34.1469 77.5924 35.2898 75.4993 35.2799C73.6395 36.8959 72.1199 38.9028 71.5413 39.9685C70.6698 41.5696 69.8852 47.334 71.2161 52.0002C72.1258 52.278 73.088 52.336 74.0243 52.1696C76.7557 51.6716 72.5345 42.2095 77.004 42.9565C79.6409 43.3973 84.299 41.4974 85.4462 39.9685Z" fill="#EAB292"/>
<path d="M71.5412 39.9687C73.031 37.2297 80.7283 28.2657 84.4528 35.7357C84.4528 35.7357 83.9562 38.2257 86.4392 41.2137C88.9222 44.2017 89.4188 53.9127 80.2317 53.1657C78.9191 53.0748 77.6341 52.744 76.4402 52.1897" stroke="#2B2E4A" stroke-width="0.75" stroke-linecap="round"/>
<path d="M62.3543 32.2496C62.3543 32.2496 64.3407 28.5146 59.1264 28.2656C53.9121 28.0166 63.0992 9.59052 51.6774 8.09651C40.2556 6.60251 33.5515 14.3215 34.2964 21.7915C35.0413 29.2616 44.9733 20.5465 46.7114 23.7836C48.4495 27.0206 41.7454 35.5862 47.7046 38.9726C55.1536 43.2056 57.6366 30.0086 61.3611 34.4906C65.0856 38.9726 62.3543 32.2496 62.3543 32.2496Z" fill="#48426D"/>
<path d="M56.1465 31.2535C52.1737 35.2375 48.9458 33.7435 49.939 30.2575C50.9322 26.7714 52.6703 19.5504 45.4696 20.7954C39.1529 21.8885 34.7455 22.7874 35.1031 16.2661C34.3907 18.0149 34.1138 19.9113 34.2961 21.7914C35.041 29.2615 44.973 20.5464 46.7111 23.7834C48.4492 27.0204 41.7451 35.5861 47.7043 38.9725C55.1533 43.2055 57.6363 30.0085 61.3608 34.4905C65.0853 38.9725 62.354 32.2495 62.354 32.2495C62.354 32.2495 63.2007 30.6559 62.3342 29.4806C60.8841 28.9876 58.5625 28.8307 56.1465 31.2535Z" fill="#2B2E4A"/>
<path fill-rule="evenodd" clip-rule="evenodd" d="M62.3543 32.2496C62.3543 32.2496 64.3407 28.5146 59.1264 28.2656C53.9121 28.0166 63.0992 9.59052 51.6774 8.09651C40.2556 6.60251 33.5515 14.3215 34.2964 21.7915C35.0413 29.2616 44.9733 20.5465 46.7114 23.7836C48.4495 27.0206 41.7454 35.5862 47.7046 38.9726C55.1536 43.2056 57.6366 30.0086 61.3611 34.4906C65.0856 38.9726 62.3543 32.2496 62.3543 32.2496Z" stroke="#2B2E4A" stroke-width="0.75" stroke-linecap="round"/>
<path d="M71.0918 47.6877C71.0918 47.6877 69.9372 65.1178 79.1665 63.3748C82.9133 62.456 80.0008 57.1996 80.7184 53.2056" stroke="#2B2E4A" stroke-width="0.75" stroke-linecap="round"/>
<path d="M68.5617 30.5069C68.5617 30.5069 65.3338 27.7679 62.3542 30.5069C59.3746 33.2459 60.8644 39.4709 66.0787 37.9769C71.293 36.4829 68.5617 30.5069 68.5617 30.5069Z" fill="#2B2E4A" stroke="#2B2E4A" stroke-width="0.75" stroke-linecap="round"/>
<path d="M85.9427 30.5066C85.9427 30.5066 85.6944 41.9607 73.0311 41.4627C70.7964 42.4587 75.7624 51.6717 70.5481 51.4227C65.3338 51.1737 59.8712 36.4827 67.5685 29.5106C75.2658 22.5386 86.4393 26.0246 85.9427 30.5066Z" fill="#48426D"/>
<path d="M73.0311 41.4625C83.554 41.8758 85.5032 34.0398 85.8632 31.3755C85.8632 31.3755 78.3497 40.8375 73.9299 37.227C69.0583 33.243 69.3066 42.456 67.3202 42.456C65.3338 42.456 63.7844 36.9108 65.0557 33.2106C65.1219 33.0328 65.158 32.8451 65.1624 32.6554C61.3237 40.1428 66.029 51.2059 70.5481 51.4225C75.7624 51.6715 70.7964 42.4585 73.0311 41.4625Z" fill="#2B2E4A"/>
<path d="M85.4461 33.3328C84.4703 36.6894 81.5776 41.7989 73.0311 41.4627C70.7964 42.4587 75.7624 51.6717 70.5481 51.4227C65.3338 51.1737 59.8712 36.4827 67.5685 29.5107C74.0789 23.6143 83.0749 25.198 85.3965 28.5396" stroke="#2B2E4A" stroke-width="0.75" stroke-linecap="round"/>
<path d="M83.9561 27.1973C83.9561 27.1973 91.4051 32.7475 85.4459 39.8365" stroke="#2B2E4A" stroke-width="0.75" stroke-linecap="round"/>
<path d="M62.354 70.3466C62.2846 70.8767 62.1877 71.4028 62.0635 71.9228C61.9286 72.527 61.4175 72.9729 60.8022 73.0234C57.8846 73.2325 55.1111 75.735 54.1427 79.3331C53.2216 82.7419 54.1949 86.1208 56.3576 87.8738C56.7976 88.2385 56.9733 88.8342 56.802 89.3802C53.7455 99.4174 50.9049 110.222 52.6703 114.171C55.8982 121.392 103.075 120.396 103.82 115.167C104.205 112.47 100.23 99.908 96.2917 88.3718C96.1004 87.8187 96.2693 87.2045 96.7163 86.828C98.8368 85.0626 99.7828 81.716 98.8716 78.3371C97.8337 74.48 94.7249 71.883 91.5839 72.0199C90.9667 72.0442 90.4046 71.6658 90.1935 71.0837C89.4039 68.9099 88.9222 67.5977 88.9222 67.5977" stroke="#2B2E4A" stroke-width="0.75" stroke-linecap="round"/>
<path d="M55.6499 112.926C70.7963 113.424 88.4256 104.211 89.6671 107.697C90.9086 111.183 93.3916 110.187 94.6331 107.946C95.8746 105.705 92.3984 101.721 87.6807 101.472C83.323 101.243 57.388 101.83 55.6499 93.5037C52.2929 93.6182 46.1376 94.6765 41.77 101.342C43.4013 107.507 48.2605 112.682 55.6499 112.926Z" fill="#F0BFA4"/>
<path d="M41.7451 112.926C41.7451 112.926 58.6295 111.432 61.413 119.338C65.1375 129.928 57.388 141.063 52.1737 141.063L44.2281 142.557" fill="#FDF3E8"/>
<path d="M41.7451 112.926C41.7451 112.926 58.6295 111.432 61.413 119.338C65.1375 129.928 57.388 141.063 52.1737 141.063" stroke="#2B2E4A" stroke-width="0.75" stroke-linecap="round"/>
<path d="M94.6182 107.971C93.8907 107.637 92.8354 109.104 90.412 106.452C86.1909 102.219 54.905 114.918 49.4424 106.452C44.4268 98.6779 54.0608 94.2656 55.6723 93.5933C55.6723 93.5634 55.6574 93.5335 55.6499 93.5037C52.2929 93.6182 46.1376 94.6765 41.77 101.342C43.4013 107.507 48.2605 112.682 55.6499 112.926C70.7963 113.424 88.4256 104.211 89.6671 107.697C90.9086 111.183 93.3717 110.194 94.6182 107.971Z" fill="#EAB292"/>
<path fill-rule="evenodd" clip-rule="evenodd" d="M55.6499 112.926C70.7963 113.424 88.4256 104.211 89.6671 107.697C90.9086 111.183 93.3916 110.187 94.6331 107.946C95.8746 105.705 92.3984 101.721 87.6807 101.472C83.323 101.243 57.388 101.83 55.6499 93.5037C52.2929 93.6182 46.1376 94.6765 41.77 101.342C43.4013 107.507 48.2605 112.682 55.6499 112.926Z" stroke="#2B2E4A" stroke-width="0.75" stroke-linecap="round"/>
<path d="M8.72131 112.926H147.521H8.72131Z" fill="white"/>
<path d="M8.72131 112.926H147.521" stroke="#2B2E4A" stroke-width="0.75" stroke-linecap="round"/>
<path d="M158.344 247.386H235.916H158.344Z" fill="white"/>
<path d="M158.344 247.386H235.916" stroke="#2B2E4A" stroke-width="0.75" stroke-linecap="round"/>
<path d="M133.015 247.386H151.884H133.015Z" fill="white"/>
<path d="M133.015 247.386H151.884" stroke="#2B2E4A" stroke-width="0.75" stroke-linecap="round"/>
<path d="M15.4253 247.386H126.296H15.4253Z" fill="white"/>
<path d="M15.4253 247.386H126.296" stroke="#2B2E4A" stroke-width="0.75" stroke-linecap="round"/>
<path d="M106.778 89.3653C106.999 87.5899 105.536 86.0337 103.634 86.0337H54.1828C52.2113 86.0337 50.7066 87.7144 51.0666 89.5446L54.8532 109.44H104.295L106.778 89.3653Z" fill="#48426D" stroke="#2B2E4A" stroke-width="0.75" stroke-linecap="round"/>
<path d="M103.865 112.926L104.295 109.44H54.8505L55.5159 112.926H103.865Z" fill="#2B2E4A" stroke="#2B2E4A" stroke-width="0.75" stroke-linecap="round"/>
<path d="M79.8593 103.215C82.5334 103.215 84.7012 101.041 84.7012 98.3592C84.7012 95.6775 82.5334 93.5037 79.8593 93.5037C77.1853 93.5037 75.0175 95.6775 75.0175 98.3592C75.0175 101.041 77.1853 103.215 79.8593 103.215Z" fill="white"/>
<path d="M89.6671 237.675C89.6671 237.675 88.4728 240.454 86.9358 239.169C85.446 237.924 81.4732 227.466 79.2385 230.205C77.0038 232.944 76.5072 247.386 76.5072 247.386H77.997C77.997 247.386 79.7351 235.434 81.9698 238.173C84.2045 240.912 91.6262 249.064 93.3916 247.884C94.1365 247.386 89.6671 237.675 89.6671 237.675Z" fill="#2B2E4A" stroke="#2B2E4A" stroke-width="0.75" stroke-linecap="round"/>
<path d="M81.0187 42.8717C81.4068 42.8717 81.7214 42.5563 81.7214 42.1671C81.7214 41.7779 81.4068 41.4624 81.0187 41.4624C80.6306 41.4624 80.316 41.7779 80.316 42.1671C80.316 42.5563 80.6306 42.8717 81.0187 42.8717Z" fill="#2B2E4A"/>
<path d="M84.7433 41.3781C85.1314 41.3781 85.446 41.0626 85.446 40.6734C85.446 40.2842 85.1314 39.9688 84.7433 39.9688C84.3552 39.9688 84.0406 40.2842 84.0406 40.6734C84.0406 41.0626 84.3552 41.3781 84.7433 41.3781Z" fill="#2B2E4A"/>
<path d="M81.6049 46.9854C81.463 46.9573 81.3163 46.999 81.2103 47.0975C81.1042 47.196 81.0515 47.3394 81.0685 47.4834C81.1704 48.3377 81.8077 49.0298 82.6488 49.1996C83.4898 49.3694 84.3446 48.9785 84.7682 48.2304C84.8384 48.1044 84.8446 47.9523 84.7847 47.821C84.7249 47.6897 84.6063 47.5948 84.4653 47.5656L81.6049 46.9854Z" fill="#2B2E4A"/>
<path d="M82.8662 40.7007C82.8662 40.7007 83.1641 42.4188 84.7607 42.8969C86.3573 43.375 85.7539 44.239 85.0587 44.6125" stroke="#2B2E4A" stroke-width="0.75" stroke-linecap="round"/>
<path d="M75.7628 162.726V247.386V162.726Z" fill="#FDF3E8"/>
<path d="M75.7628 162.726V247.386" stroke="#2B2E4A" stroke-width="0.75"/>
<path d="M156.212 204.892C156.212 207.459 157.825 209.538 159.819 209.538H253.28C255.266 209.538 256.887 207.459 256.887 204.892V150.557H156.212V204.892Z" fill="#D1E3F8"/>
<path fill-rule="evenodd" clip-rule="evenodd" d="M156.212 204.892C156.212 207.459 157.825 209.538 159.819 209.538H253.28C255.266 209.538 256.887 207.459 256.887 204.892V150.557H156.212V204.892Z" stroke="#48426D" stroke-width="0.75"/>
<path d="M253.28 140.672H159.819C157.827 140.672 156.212 142.292 156.212 144.29V150.557H256.887V144.29C256.887 142.292 255.272 140.672 253.28 140.672Z" fill="#8BBAF1" stroke="#48426D" stroke-width="0.75"/>
<path d="M160.664 147.686C161.366 147.686 161.935 147.115 161.935 146.411C161.935 145.707 161.366 145.136 160.664 145.136C159.961 145.136 159.392 145.707 159.392 146.411C159.392 147.115 159.961 147.686 160.664 147.686Z" fill="#48426D"/>
<path d="M164.902 147.686C165.604 147.686 166.173 147.115 166.173 146.411C166.173 145.707 165.604 145.136 164.902 145.136C164.2 145.136 163.631 145.707 163.631 146.411C163.631 147.115 164.2 147.686 164.902 147.686Z" fill="#48426D"/>
<path d="M169.141 147.686C169.843 147.686 170.412 147.115 170.412 146.411C170.412 145.707 169.843 145.136 169.141 145.136C168.439 145.136 167.869 145.707 167.869 146.411C167.869 147.115 168.439 147.686 169.141 147.686Z" fill="#48426D"/>
<path d="M246.079 145.667H252.224" stroke="#48426D" stroke-width="0.75"/>
<rect x="169.118" y="176.575" width="6.74135" height="20.3209" rx="3.37067" fill="#8BBAF1" stroke="#48426D" stroke-width="0.75"/>
<rect x="181.196" y="169.172" width="6.74135" height="27.7237" rx="3.37067" fill="#8BBAF1" stroke="#48426D" stroke-width="0.75"/>
<rect x="193.27" y="180.213" width="6.74136" height="16.683" rx="3.37068" fill="#8BBAF1" stroke="#48426D" stroke-width="0.75"/>
<path d="M209.961 161.855H206.649C205.93 161.856 205.348 162.441 205.348 163.162V195.589C205.348 196.31 205.93 196.895 206.649 196.896H210.783C211.503 196.896 212.087 196.311 212.087 195.589V163.159C212.087 162.437 211.503 161.852 210.783 161.852L209.961 161.855Z" fill="#6886C5"/>
<path d="M209.961 161.854H206.649C205.93 161.856 205.348 162.441 205.348 163.162V194.324H209.283C210.002 194.324 210.586 193.74 210.587 193.019V161.854H209.961Z" fill="#6886C5"/>
<path fill-rule="evenodd" clip-rule="evenodd" d="M209.961 161.855H206.649C205.93 161.856 205.348 162.441 205.348 163.162V195.589C205.348 196.31 205.93 196.895 206.649 196.896H210.783C211.503 196.896 212.087 196.311 212.087 195.589V163.159C212.087 162.437 211.503 161.852 210.783 161.852L209.961 161.855Z" stroke="#48426D" stroke-width="0.75" stroke-linecap="round"/>
<path d="M214.902 157.569V197.641C214.903 198.292 214.645 198.917 214.186 199.378C213.727 199.838 213.103 200.097 212.454 200.096H167.554" stroke="#48426D" stroke-width="0.75" stroke-linecap="round"/>
<path d="M167.554 201.037C168.072 201.037 168.493 200.616 168.493 200.096C168.493 199.576 168.072 199.155 167.554 199.155C167.036 199.155 166.616 199.576 166.616 200.096C166.616 200.616 167.036 201.037 167.554 201.037Z" fill="#48426D" stroke="#48426D" stroke-width="0.75" stroke-linecap="round"/>
<rect opacity="0.63" x="231.03" y="158.846" width="21.1949" height="3.72006" fill="white"/>
<rect opacity="0.63" x="224.035" y="166.603" width="28.1895" height="3.72006" fill="white"/>
<rect opacity="0.63" x="224.035" y="174.362" width="28.1895" height="3.72006" fill="white"/>
<rect opacity="0.63" x="224.035" y="182.121" width="17.4853" height="3.72006" fill="white"/>
<path opacity="0.63" d="M227.057 199.389C228.636 199.389 229.917 198.104 229.917 196.52C229.917 194.936 228.636 193.652 227.057 193.652C225.477 193.652 224.196 194.936 224.196 196.52C224.196 198.104 225.477 199.389 227.057 199.389Z" fill="white"/>
<path d="M211.912 10.7683V57.9863H164.827C164.827 84.0666 185.908 105.207 211.912 105.207C237.917 105.207 259 84.0666 259 57.9863C259 31.906 237.919 10.7683 211.912 10.7683Z" fill="#8BBAF1"/>
<path d="M259 57.9862C259 57.4733 259 56.9628 258.975 56.4524L211.912 57.9862L220.578 104.407C242.443 100.329 259 81.096 259 57.9862Z" fill="#D1E3F8"/>
<path d="M211.912 10.7683V57.9863L258.28 66.2556C258.76 63.5254 259 60.7585 259 57.9863C259 31.9085 237.919 10.7683 211.912 10.7683Z" fill="#D1E3F8"/>
<path fill-rule="evenodd" clip-rule="evenodd" d="M211.912 10.7683V57.9863H164.827C164.827 84.0666 185.908 105.207 211.912 105.207C237.917 105.207 259 84.0666 259 57.9863C259 31.906 237.919 10.7683 211.912 10.7683Z" stroke="#48426D" stroke-width="0.75"/>
<path d="M211.912 1C180.537 1 155.086 26.5151 155.086 57.9863H211.912V1Z" fill="#48426D" stroke="#48426D" stroke-width="0.75"/>
<path fill-rule="evenodd" clip-rule="evenodd" d="M211.912 1C180.537 1 155.086 26.5151 155.086 57.9863H211.912V1Z" stroke="#48426D" stroke-width="0.75"/>
<rect x="124.173" y="5.60645" width="31.5341" height="12.699" rx="6.34952" fill="#D1E3F8" stroke="#48426D" stroke-width="0.75"/>
<path d="M155.707 11.956H184.262H155.707Z" fill="#D1E3F8"/>
<path d="M155.707 11.956H184.262" stroke="#48426D" stroke-width="0.75"/>
</svg>
