<svg width="490" height="153" viewBox="0 0 490 153" fill="none" xmlns="http://www.w3.org/2000/svg">
<path d="M162.517 44.1314L144.769 43.9231C144.769 43.9231 142.504 42.3084 135.973 43.3501C126.336 44.8607 129.496 66.7372 129.496 66.7372L133.92 98.406C133.92 98.406 132.55 102 149.666 102C166.783 102 167.889 98.406 167.889 98.406L175.63 66.1121C175.63 66.1121 177.737 43.7147 171.891 43.8189C168.573 43.8189 162.517 44.1314 162.517 44.1314Z" fill="#FFBF8A"/>
<path d="M169.123 12.7656C169.434 19.1798 174.2 23.7689 171.247 33.3641C168.295 42.9594 127.321 48.7999 136.904 14.5908" fill="#1A2E35"/>
<path d="M161.457 42.182C161.56 39.366 161.716 36.8107 161.716 36.8107C161.716 36.8107 167.984 36.0285 168.294 29.5621C168.553 23.0958 167.932 8.23356 167.932 8.23356L156.38 2.60156L143.948 12.7183L145.917 42.3906C146.176 46.6667 149.802 49.952 154.049 49.7434C158.09 49.4827 161.301 46.2495 161.457 42.182Z" fill="#D1A595"/>
<path d="M166.844 19.8559C166.844 20.3252 166.482 20.6902 166.067 20.6902C165.601 20.6902 165.239 20.3252 165.239 19.8559C165.239 19.3865 165.601 19.0215 166.016 19.0215C166.482 19.0215 166.844 19.3865 166.844 19.8559Z" fill="#1A2E35"/>
<path d="M167.621 18.1323C167.518 18.2366 166.896 17.7151 166.067 17.7151C165.187 17.663 164.565 18.1323 164.461 18.028C164.41 17.9759 164.513 17.7673 164.824 17.5587C165.083 17.3501 165.549 17.1415 166.119 17.1937C166.637 17.1937 167.103 17.4544 167.362 17.663C167.569 17.8716 167.673 18.0802 167.621 18.1323Z" fill="#1A2E35"/>
<path d="M157.313 19.8578C157.313 20.3271 156.95 20.6922 156.536 20.6922C156.07 20.6922 155.707 20.3271 155.707 19.8578C155.707 19.3885 156.07 19.0234 156.484 19.0234C156.95 19.0234 157.313 19.3885 157.313 19.8578Z" fill="#1A2E35"/>
<path d="M158.09 18.2905C157.986 18.3948 157.365 17.8733 156.536 17.8733C155.655 17.8212 155.034 18.2905 154.93 18.1862C154.878 18.1341 154.982 17.9255 155.293 17.7169C155.552 17.5083 156.018 17.2997 156.588 17.3519C157.106 17.3519 157.572 17.6126 157.831 17.8212C158.038 18.0298 158.142 18.2384 158.09 18.2905Z" fill="#1A2E35"/>
<path d="M161.301 25.7574C161.301 25.7052 161.819 25.6009 162.7 25.5488C162.907 25.5488 163.114 25.4966 163.166 25.3402C163.218 25.1837 163.114 24.923 163.011 24.6101C162.804 24.0365 162.596 23.4107 162.389 22.7849C161.509 20.1775 160.887 18.0394 160.991 17.9873C161.094 17.9351 161.871 20.0211 162.752 22.6285C162.959 23.2542 163.166 23.88 163.322 24.4536C163.425 24.7144 163.529 25.0273 163.425 25.3923C163.373 25.5488 163.218 25.7052 163.063 25.7052C162.907 25.7573 162.804 25.7574 162.7 25.7574C161.871 25.8095 161.301 25.8095 161.301 25.7574Z" fill="#1A2E35"/>
<path d="M158.504 26.6411C157.624 26.0675 160.939 28.1013 162.7 28.0491C162.7 28.0491 161.664 29.6657 159.851 28.9356C157.986 28.1534 158.504 26.6411 158.504 26.6411Z" fill="#1A2E35"/>
<path d="M153.428 34.043C153.428 34.043 155.396 38.7363 161.664 38.3713L161.768 36.8068" fill="#B78C7E"/>
<path d="M137.163 19.0257C137.163 24.6056 128.253 38.3727 145.606 38.3727L145.451 21.1116C145.451 21.1116 155.241 16.4705 156.899 6.77092L156.95 6.82307C157.572 8.28322 158.711 11.4121 158.038 13.9674L167.207 16.2619L168.243 17.2527C168.243 17.2527 171.506 10.0563 165.186 3.48559C158.867 -3.03292 153.48 1.66041 150.113 1.29537C147.885 0.982485 140.115 1.03463 136.904 14.5931L137.163 19.0257Z" fill="#1A2E35"/>
<path d="M145.71 21.3213C144.829 20.7998 143.69 21.217 143.016 21.9992C141.928 23.1987 141.773 25.076 142.602 26.4318C143.431 27.7877 145.192 28.5178 146.694 28.1006" fill="#D1A595"/>
<path d="M144.474 47.7817C144.474 47.7817 146.795 48.8839 141.688 44.0552C136.322 39.0165 108 53.6602 108 53.6602L112.953 64L135.239 59.9061L140.914 58.3315L144.474 47.7817Z" fill="#FFBF8A"/>
<path d="M108 54L113.041 64C113.041 64 121.757 62.6802 130 61.0558" stroke="black" stroke-width="0.5" stroke-miterlimit="10"/>
<path d="M162 48.3408C162 48.3408 162.212 46.5589 168.192 43.5351C174.914 40.1333 200 54.0645 200 54.0645L194.972 64L171.526 60.8142L165.705 59.1943L162 48.3408Z" fill="#FFBF8A"/>
<path d="M168 43.5351C174.762 40.1333 200 54.0645 200 54.0645L194.942 64L171.354 60.8142" stroke="black" stroke-width="0.5" stroke-miterlimit="10"/>
<path d="M108.004 54C108.004 54 93.2241 58.7949 92.2353 62.6012C91.2465 66.4075 93.5363 68.4342 96.0864 68.9285C100.042 69.7194 113 63.6887 113 63.6887L108.004 54Z" fill="#B78C7E"/>
<path d="M199.886 54C199.886 54 213.413 60.3623 216.191 63.5956C219.431 67.4026 218.351 70.8445 212.693 73.6085C207.035 76.3725 195 63.5956 195 63.5956L199.886 54Z" fill="#B78C7E"/>
<g filter="url(#filter0_d)">
<rect x="30" y="71" width="430" height="52" rx="5" fill="#E8E8E8"/>
<path d="M146 93C146 85.268 152.268 79 160 79H460V115H160C152.268 115 146 108.732 146 101V93Z" fill="#F9F9F9"/>
<path d="M177.333 97.0007C177.333 96.2653 176.735 95.6673 176 95.6673H175.333V93.6673C175.333 91.8293 173.838 90.334 172 90.334C170.162 90.334 168.667 91.8293 168.667 93.6673V95.6673H168C167.265 95.6673 166.667 96.2653 166.667 97.0007V102.334C166.667 103.069 167.265 103.667 168 103.667H176C176.735 103.667 177.333 103.069 177.333 102.334V97.0007ZM170 93.6673C170 92.5647 170.897 91.6673 172 91.6673C173.103 91.6673 174 92.5647 174 93.6673V95.6673H170V93.6673Z" fill="#384A51"/>
<path d="M52.6617 103.774L47.1674 98.2796H59.4358V95.7199H47.1674L52.6617 90.2257L50.852 88.416L42.2683 96.9997L50.852 105.583L52.6617 103.774Z" fill="#D8D8D8"/>
<path d="M85.4071 103.774L87.2168 105.583L95.8005 96.9997L87.2168 88.416L85.4071 90.2257L90.9014 95.7199H78.6331V98.2796H90.9014L85.4071 103.774Z" fill="#D8D8D8"/>
<path d="M118.307 95.7196H114.597C114.597 95.7158 114.597 95.7119 114.598 95.7081C114.682 95.2998 114.807 94.8967 114.971 94.5089C115.132 94.1288 115.331 93.7628 115.561 93.421C115.789 93.0832 116.052 92.7645 116.342 92.474C116.632 92.1847 116.951 91.9211 117.291 91.692C117.632 91.4616 117.996 91.2646 118.376 91.1033C118.763 90.9395 119.166 90.8141 119.577 90.7309C120.419 90.5581 121.314 90.5581 122.16 90.7309C122.567 90.8141 122.971 90.9395 123.359 91.1033C123.738 91.2633 124.102 91.4629 124.447 91.6933C124.787 91.9224 125.104 92.1847 125.391 92.4727L127.203 90.6656C126.802 90.2612 126.354 89.8926 125.877 89.5714C125.4 89.2488 124.888 88.9698 124.357 88.7446C123.813 88.5142 123.246 88.3389 122.674 88.2224C121.493 87.9805 120.244 87.9805 119.066 88.2224C118.492 88.3402 117.925 88.5155 117.382 88.7459C116.846 88.9711 116.334 89.2488 115.858 89.5714C115.384 89.89 114.939 90.2586 114.532 90.6643C114.125 91.07 113.758 91.5167 113.44 91.9889C113.118 92.4663 112.839 92.9782 112.613 93.5119C112.383 94.0546 112.208 94.6215 112.091 95.1949C112.055 95.3676 112.036 95.5443 112.011 95.7196H108.069L113.188 100.839L118.307 95.7196ZM123.427 98.2792H127.137C127.136 98.2831 127.137 98.2869 127.136 98.2895C127.051 98.7041 126.926 99.1073 126.762 99.4899C126.604 99.8649 126.406 100.231 126.174 100.575C125.945 100.913 125.682 101.233 125.39 101.525C125.102 101.813 124.785 102.075 124.444 102.306C124.101 102.536 123.736 102.734 123.358 102.896C122.97 103.059 122.567 103.185 122.157 103.268C121.316 103.441 120.42 103.441 119.576 103.268C119.167 103.185 118.764 103.059 118.376 102.896C117.996 102.734 117.63 102.536 117.289 102.306C116.951 102.078 116.632 101.814 116.342 101.525L114.532 103.335C114.938 103.74 115.384 104.109 115.857 104.427C116.334 104.75 116.846 105.029 117.38 105.254C117.922 105.485 118.489 105.66 119.062 105.776C119.652 105.897 120.259 105.958 120.867 105.958C121.475 105.958 122.082 105.897 122.669 105.776C123.244 105.66 123.812 105.483 124.355 105.253C124.886 105.028 125.398 104.75 125.875 104.427C126.351 104.106 126.799 103.736 127.2 103.335C127.605 102.929 127.974 102.482 128.294 102.007C128.619 101.525 128.898 101.013 129.119 100.488C129.347 99.9507 129.522 99.3837 129.641 98.804C129.676 98.6312 129.696 98.4546 129.722 98.2792H133.665L128.546 93.16L123.427 98.2792Z" fill="#D8D8D8"/>
<path d="M197.476 101.686C197.476 102.442 197.187 103.011 196.608 103.394C196.029 103.777 195.087 103.968 193.78 103.968C193.183 103.968 192.674 103.926 192.254 103.842C191.843 103.767 191.503 103.655 191.232 103.506C190.971 103.357 190.779 103.175 190.658 102.96C190.537 102.745 190.476 102.498 190.476 102.218C190.476 101.817 190.583 101.504 190.798 101.28C191.022 101.056 191.33 100.902 191.722 100.818V100.664C191.171 100.487 190.896 100.113 190.896 99.544C190.896 99.1707 191.022 98.886 191.274 98.69C191.526 98.4847 191.829 98.34 192.184 98.256V98.2C191.755 97.9947 191.423 97.71 191.19 97.346C190.966 96.9727 190.854 96.5387 190.854 96.044C190.854 95.2973 191.101 94.6953 191.596 94.238C192.1 93.7807 192.819 93.552 193.752 93.552C194.265 93.552 194.704 93.6267 195.068 93.776V93.58C195.068 93.2533 195.143 93.0013 195.292 92.824C195.451 92.6373 195.693 92.544 196.02 92.544H197.14V93.776H195.656V94.07C195.983 94.2847 196.235 94.5647 196.412 94.91C196.589 95.246 196.678 95.624 196.678 96.044C196.678 96.7813 196.426 97.3787 195.922 97.836C195.418 98.284 194.699 98.508 193.766 98.508C193.411 98.508 193.094 98.4707 192.814 98.396C192.627 98.4613 192.464 98.5547 192.324 98.676C192.184 98.788 192.114 98.9373 192.114 99.124C192.114 99.32 192.203 99.46 192.38 99.544C192.557 99.628 192.809 99.67 193.136 99.67H194.928C195.824 99.67 196.473 99.852 196.874 100.216C197.275 100.571 197.476 101.061 197.476 101.686ZM196.048 101.854C196.048 101.602 195.95 101.401 195.754 101.252C195.567 101.103 195.222 101.028 194.718 101.028H192.254C191.918 101.224 191.75 101.504 191.75 101.868C191.75 102.167 191.867 102.405 192.1 102.582C192.343 102.769 192.749 102.862 193.318 102.862H194.27C195.455 102.862 196.048 102.526 196.048 101.854ZM193.766 97.402C194.214 97.402 194.559 97.304 194.802 97.108C195.054 96.9027 195.18 96.59 195.18 96.17V95.89C195.18 95.47 195.054 95.162 194.802 94.966C194.559 94.7607 194.214 94.658 193.766 94.658C193.318 94.658 192.968 94.7607 192.716 94.966C192.473 95.162 192.352 95.47 192.352 95.89V96.17C192.352 96.59 192.473 96.9027 192.716 97.108C192.968 97.304 193.318 97.402 193.766 97.402ZM201.386 101.168C200.882 101.168 200.42 101.079 200 100.902C199.589 100.725 199.239 100.473 198.95 100.146C198.66 99.81 198.436 99.4087 198.278 98.942C198.119 98.466 198.04 97.9387 198.04 97.36C198.04 96.7813 198.119 96.2587 198.278 95.792C198.436 95.316 198.66 94.9147 198.95 94.588C199.239 94.252 199.589 93.9953 200 93.818C200.42 93.6407 200.882 93.552 201.386 93.552C201.89 93.552 202.347 93.6407 202.758 93.818C203.178 93.9953 203.532 94.252 203.822 94.588C204.111 94.9147 204.335 95.316 204.494 95.792C204.652 96.2587 204.732 96.7813 204.732 97.36C204.732 97.9387 204.652 98.466 204.494 98.942C204.335 99.4087 204.111 99.81 203.822 100.146C203.532 100.473 203.178 100.725 202.758 100.902C202.347 101.079 201.89 101.168 201.386 101.168ZM201.386 99.908C201.908 99.908 202.328 99.7493 202.646 99.432C202.963 99.1053 203.122 98.62 203.122 97.976V96.744C203.122 96.1 202.963 95.6193 202.646 95.302C202.328 94.9753 201.908 94.812 201.386 94.812C200.863 94.812 200.443 94.9753 200.126 95.302C199.808 95.6193 199.65 96.1 199.65 96.744V97.976C199.65 98.62 199.808 99.1053 200.126 99.432C200.443 99.7493 200.863 99.908 201.386 99.908ZM207.124 101.168C206.778 101.168 206.522 101.079 206.354 100.902C206.186 100.715 206.102 100.487 206.102 100.216V100.006C206.102 99.7353 206.186 99.5113 206.354 99.334C206.522 99.1473 206.778 99.054 207.124 99.054C207.469 99.054 207.726 99.1473 207.894 99.334C208.062 99.5113 208.146 99.7353 208.146 100.006V100.216C208.146 100.487 208.062 100.715 207.894 100.902C207.726 101.079 207.469 101.168 207.124 101.168ZM216.589 101.686C216.589 102.442 216.3 103.011 215.721 103.394C215.143 103.777 214.2 103.968 212.893 103.968C212.296 103.968 211.787 103.926 211.367 103.842C210.957 103.767 210.616 103.655 210.345 103.506C210.084 103.357 209.893 103.175 209.771 102.96C209.65 102.745 209.589 102.498 209.589 102.218C209.589 101.817 209.697 101.504 209.911 101.28C210.135 101.056 210.443 100.902 210.835 100.818V100.664C210.285 100.487 210.009 100.113 210.009 99.544C210.009 99.1707 210.135 98.886 210.387 98.69C210.639 98.4847 210.943 98.34 211.297 98.256V98.2C210.868 97.9947 210.537 97.71 210.303 97.346C210.079 96.9727 209.967 96.5387 209.967 96.044C209.967 95.2973 210.215 94.6953 210.709 94.238C211.213 93.7807 211.932 93.552 212.865 93.552C213.379 93.552 213.817 93.6267 214.181 93.776V93.58C214.181 93.2533 214.256 93.0013 214.405 92.824C214.564 92.6373 214.807 92.544 215.133 92.544H216.253V93.776H214.769V94.07C215.096 94.2847 215.348 94.5647 215.525 94.91C215.703 95.246 215.791 95.624 215.791 96.044C215.791 96.7813 215.539 97.3787 215.035 97.836C214.531 98.284 213.813 98.508 212.879 98.508C212.525 98.508 212.207 98.4707 211.927 98.396C211.741 98.4613 211.577 98.5547 211.437 98.676C211.297 98.788 211.227 98.9373 211.227 99.124C211.227 99.32 211.316 99.46 211.493 99.544C211.671 99.628 211.923 99.67 212.249 99.67H214.041C214.937 99.67 215.586 99.852 215.987 100.216C216.389 100.571 216.589 101.061 216.589 101.686ZM215.161 101.854C215.161 101.602 215.063 101.401 214.867 101.252C214.681 101.103 214.335 101.028 213.831 101.028H211.367C211.031 101.224 210.863 101.504 210.863 101.868C210.863 102.167 210.98 102.405 211.213 102.582C211.456 102.769 211.862 102.862 212.431 102.862H213.383C214.569 102.862 215.161 102.526 215.161 101.854ZM212.879 97.402C213.327 97.402 213.673 97.304 213.915 97.108C214.167 96.9027 214.293 96.59 214.293 96.17V95.89C214.293 95.47 214.167 95.162 213.915 94.966C213.673 94.7607 213.327 94.658 212.879 94.658C212.431 94.658 212.081 94.7607 211.829 94.966C211.587 95.162 211.465 95.47 211.465 95.89V96.17C211.465 96.59 211.587 96.9027 211.829 97.108C212.081 97.304 212.431 97.402 212.879 97.402ZM220.499 101.168C219.995 101.168 219.533 101.079 219.113 100.902C218.702 100.725 218.352 100.473 218.063 100.146C217.773 99.81 217.549 99.4087 217.391 98.942C217.232 98.466 217.153 97.9387 217.153 97.36C217.153 96.7813 217.232 96.2587 217.391 95.792C217.549 95.316 217.773 94.9147 218.063 94.588C218.352 94.252 218.702 93.9953 219.113 93.818C219.533 93.6407 219.995 93.552 220.499 93.552C221.003 93.552 221.46 93.6407 221.871 93.818C222.291 93.9953 222.645 94.252 222.935 94.588C223.224 94.9147 223.448 95.316 223.607 95.792C223.765 96.2587 223.845 96.7813 223.845 97.36C223.845 97.9387 223.765 98.466 223.607 98.942C223.448 99.4087 223.224 99.81 222.935 100.146C222.645 100.473 222.291 100.725 221.871 100.902C221.46 101.079 221.003 101.168 220.499 101.168ZM220.499 99.908C221.021 99.908 221.441 99.7493 221.759 99.432C222.076 99.1053 222.235 98.62 222.235 97.976V96.744C222.235 96.1 222.076 95.6193 221.759 95.302C221.441 94.9753 221.021 94.812 220.499 94.812C219.976 94.812 219.556 94.9753 219.239 95.302C218.921 95.6193 218.763 96.1 218.763 96.744V97.976C218.763 98.62 218.921 99.1053 219.239 99.432C219.556 99.7493 219.976 99.908 220.499 99.908ZM227.018 101L224.54 93.72H226.052L227.158 97.038L227.9 99.586H227.984L228.726 97.038L229.86 93.72H231.316L228.81 101H227.018ZM232.895 101.168C232.55 101.168 232.293 101.079 232.125 100.902C231.957 100.715 231.873 100.487 231.873 100.216V100.006C231.873 99.7353 231.957 99.5113 232.125 99.334C232.293 99.1473 232.55 99.054 232.895 99.054C233.241 99.054 233.497 99.1473 233.665 99.334C233.833 99.5113 233.917 99.7353 233.917 100.006V100.216C233.917 100.487 233.833 100.715 233.665 100.902C233.497 101.079 233.241 101.168 232.895 101.168ZM238.328 101.168C237.637 101.168 237.058 101.047 236.592 100.804C236.125 100.561 235.719 100.225 235.374 99.796L236.354 98.9C236.624 99.2267 236.923 99.4833 237.25 99.67C237.586 99.8473 237.973 99.936 238.412 99.936C238.86 99.936 239.191 99.852 239.406 99.684C239.63 99.5067 239.742 99.264 239.742 98.956C239.742 98.7227 239.662 98.5267 239.504 98.368C239.354 98.2 239.088 98.0927 238.706 98.046L238.034 97.962C237.287 97.8687 236.699 97.654 236.27 97.318C235.85 96.9727 235.64 96.464 235.64 95.792C235.64 95.4373 235.705 95.1247 235.836 94.854C235.966 94.574 236.148 94.3407 236.382 94.154C236.624 93.958 236.909 93.8087 237.236 93.706C237.572 93.6033 237.94 93.552 238.342 93.552C238.995 93.552 239.527 93.6547 239.938 93.86C240.358 94.0653 240.731 94.35 241.058 94.714L240.12 95.61C239.933 95.386 239.686 95.1947 239.378 95.036C239.079 94.868 238.734 94.784 238.342 94.784C237.922 94.784 237.609 94.868 237.404 95.036C237.208 95.204 237.11 95.4233 237.11 95.694C237.11 95.974 237.198 96.184 237.376 96.324C237.553 96.464 237.838 96.5667 238.23 96.632L238.902 96.716C239.704 96.8373 240.288 97.0753 240.652 97.43C241.025 97.7753 241.212 98.242 241.212 98.83C241.212 99.1847 241.142 99.5067 241.002 99.796C240.871 100.076 240.68 100.319 240.428 100.524C240.176 100.729 239.872 100.888 239.518 101C239.163 101.112 238.766 101.168 238.328 101.168ZM249.238 101.686C249.238 102.442 248.948 103.011 248.37 103.394C247.791 103.777 246.848 103.968 245.542 103.968C244.944 103.968 244.436 103.926 244.016 103.842C243.605 103.767 243.264 103.655 242.994 103.506C242.732 103.357 242.541 103.175 242.42 102.96C242.298 102.745 242.238 102.498 242.238 102.218C242.238 101.817 242.345 101.504 242.56 101.28C242.784 101.056 243.092 100.902 243.484 100.818V100.664C242.933 100.487 242.658 100.113 242.658 99.544C242.658 99.1707 242.784 98.886 243.036 98.69C243.288 98.4847 243.591 98.34 243.946 98.256V98.2C243.516 97.9947 243.185 97.71 242.952 97.346C242.728 96.9727 242.616 96.5387 242.616 96.044C242.616 95.2973 242.863 94.6953 243.358 94.238C243.862 93.7807 244.58 93.552 245.514 93.552C246.027 93.552 246.466 93.6267 246.83 93.776V93.58C246.83 93.2533 246.904 93.0013 247.054 92.824C247.212 92.6373 247.455 92.544 247.782 92.544H248.902V93.776H247.418V94.07C247.744 94.2847 247.996 94.5647 248.174 94.91C248.351 95.246 248.44 95.624 248.44 96.044C248.44 96.7813 248.188 97.3787 247.684 97.836C247.18 98.284 246.461 98.508 245.528 98.508C245.173 98.508 244.856 98.4707 244.576 98.396C244.389 98.4613 244.226 98.5547 244.086 98.676C243.946 98.788 243.876 98.9373 243.876 99.124C243.876 99.32 243.964 99.46 244.142 99.544C244.319 99.628 244.571 99.67 244.898 99.67H246.69C247.586 99.67 248.234 99.852 248.636 100.216C249.037 100.571 249.238 101.061 249.238 101.686ZM247.81 101.854C247.81 101.602 247.712 101.401 247.516 101.252C247.329 101.103 246.984 101.028 246.48 101.028H244.016C243.68 101.224 243.512 101.504 243.512 101.868C243.512 102.167 243.628 102.405 243.862 102.582C244.104 102.769 244.51 102.862 245.08 102.862H246.032C247.217 102.862 247.81 102.526 247.81 101.854ZM245.528 97.402C245.976 97.402 246.321 97.304 246.564 97.108C246.816 96.9027 246.942 96.59 246.942 96.17V95.89C246.942 95.47 246.816 95.162 246.564 94.966C246.321 94.7607 245.976 94.658 245.528 94.658C245.08 94.658 244.73 94.7607 244.478 94.966C244.235 95.162 244.114 95.47 244.114 95.89V96.17C244.114 96.59 244.235 96.9027 244.478 97.108C244.73 97.304 245.08 97.402 245.528 97.402ZM249.68 103.114L253.558 90.64H254.874L250.996 103.114H249.68ZM255.854 93.776H256.946L257.716 96.898L258.486 100.062H258.514L259.396 96.898L260.306 93.776H261.3L262.238 96.898L263.134 100.062H263.162L263.904 96.898L264.688 93.776H265.738L263.82 101H262.434L261.426 97.528L260.796 95.33H260.768L260.152 97.528L259.144 101H257.786L255.854 93.776ZM267.356 90.64H268.476V94.952H268.532C268.709 94.5413 268.957 94.2147 269.274 93.972C269.601 93.7293 270.035 93.608 270.576 93.608C271.323 93.608 271.911 93.8507 272.34 94.336C272.779 94.812 272.998 95.4887 272.998 96.366V101H271.878V96.562C271.878 95.2647 271.332 94.616 270.24 94.616C270.016 94.616 269.797 94.644 269.582 94.7C269.377 94.756 269.19 94.84 269.022 94.952C268.854 95.064 268.719 95.2087 268.616 95.386C268.523 95.554 268.476 95.7547 268.476 95.988V101H267.356V90.64ZM280.563 101C280.143 101 279.84 100.888 279.653 100.664C279.476 100.44 279.364 100.16 279.317 99.824H279.247C279.088 100.272 278.827 100.608 278.463 100.832C278.099 101.056 277.665 101.168 277.161 101.168C276.396 101.168 275.798 100.972 275.369 100.58C274.949 100.188 274.739 99.656 274.739 98.984C274.739 98.3027 274.986 97.78 275.481 97.416C275.985 97.052 276.764 96.87 277.819 96.87H279.247V96.156C279.247 95.6427 279.107 95.2507 278.827 94.98C278.547 94.7093 278.118 94.574 277.539 94.574C277.1 94.574 276.732 94.672 276.433 94.868C276.144 95.064 275.901 95.3253 275.705 95.652L275.033 95.022C275.229 94.63 275.542 94.2987 275.971 94.028C276.4 93.748 276.942 93.608 277.595 93.608C278.472 93.608 279.154 93.8227 279.639 94.252C280.124 94.6813 280.367 95.2787 280.367 96.044V100.02H281.193V101H280.563ZM277.343 100.216C277.623 100.216 277.88 100.183 278.113 100.118C278.346 100.053 278.547 99.9593 278.715 99.838C278.883 99.7167 279.014 99.5767 279.107 99.418C279.2 99.2593 279.247 99.0867 279.247 98.9V97.71H277.763C277.119 97.71 276.648 97.8033 276.349 97.99C276.06 98.1767 275.915 98.4473 275.915 98.802V99.096C275.915 99.4507 276.041 99.726 276.293 99.922C276.554 100.118 276.904 100.216 277.343 100.216ZM284.388 101C283.996 101 283.697 100.893 283.492 100.678C283.296 100.454 283.198 100.165 283.198 99.81V94.756H282.008V93.776H282.68C282.922 93.776 283.086 93.7293 283.17 93.636C283.263 93.5333 283.31 93.3607 283.31 93.118V91.774H284.318V93.776H285.9V94.756H284.318V100.02H285.788V101H284.388ZM289.87 101.168C289.198 101.168 288.633 101.042 288.176 100.79C287.728 100.529 287.34 100.183 287.014 99.754L287.812 99.11C288.092 99.4647 288.404 99.74 288.75 99.936C289.095 100.123 289.496 100.216 289.954 100.216C290.43 100.216 290.798 100.113 291.06 99.908C291.33 99.7027 291.466 99.4133 291.466 99.04C291.466 98.76 291.372 98.522 291.186 98.326C291.008 98.1207 290.682 97.9807 290.206 97.906L289.632 97.822C289.296 97.7753 288.988 97.7053 288.708 97.612C288.428 97.5093 288.18 97.3787 287.966 97.22C287.76 97.052 287.597 96.8467 287.476 96.604C287.364 96.3613 287.308 96.072 287.308 95.736C287.308 95.3813 287.373 95.0733 287.504 94.812C287.634 94.5413 287.812 94.3173 288.036 94.14C288.269 93.9627 288.544 93.832 288.862 93.748C289.179 93.6547 289.52 93.608 289.884 93.608C290.472 93.608 290.962 93.7107 291.354 93.916C291.755 94.1213 292.105 94.406 292.404 94.77L291.662 95.442C291.503 95.218 291.27 95.0173 290.962 94.84C290.654 94.6533 290.266 94.56 289.8 94.56C289.333 94.56 288.978 94.6627 288.736 94.868C288.502 95.064 288.386 95.3347 288.386 95.68C288.386 96.0347 288.502 96.2913 288.736 96.45C288.978 96.6087 289.324 96.7253 289.772 96.8L290.332 96.884C291.134 97.0053 291.704 97.2387 292.04 97.584C292.376 97.92 292.544 98.3633 292.544 98.914C292.544 99.614 292.306 100.165 291.83 100.566C291.354 100.967 290.7 101.168 289.87 101.168ZM299.772 101C299.352 101 299.049 100.888 298.862 100.664C298.685 100.44 298.573 100.16 298.526 99.824H298.456C298.297 100.272 298.036 100.608 297.672 100.832C297.308 101.056 296.874 101.168 296.37 101.168C295.605 101.168 295.007 100.972 294.578 100.58C294.158 100.188 293.948 99.656 293.948 98.984C293.948 98.3027 294.195 97.78 294.69 97.416C295.194 97.052 295.973 96.87 297.028 96.87H298.456V96.156C298.456 95.6427 298.316 95.2507 298.036 94.98C297.756 94.7093 297.327 94.574 296.748 94.574C296.309 94.574 295.941 94.672 295.642 94.868C295.353 95.064 295.11 95.3253 294.914 95.652L294.242 95.022C294.438 94.63 294.751 94.2987 295.18 94.028C295.609 93.748 296.151 93.608 296.804 93.608C297.681 93.608 298.363 93.8227 298.848 94.252C299.333 94.6813 299.576 95.2787 299.576 96.044V100.02H300.402V101H299.772ZM296.552 100.216C296.832 100.216 297.089 100.183 297.322 100.118C297.555 100.053 297.756 99.9593 297.924 99.838C298.092 99.7167 298.223 99.5767 298.316 99.418C298.409 99.2593 298.456 99.0867 298.456 98.9V97.71H296.972C296.328 97.71 295.857 97.8033 295.558 97.99C295.269 98.1767 295.124 98.4473 295.124 98.802V99.096C295.124 99.4507 295.25 99.726 295.502 99.922C295.763 100.118 296.113 100.216 296.552 100.216ZM302.001 93.776H303.121V94.952H303.177C303.363 94.4947 303.634 94.1587 303.989 93.944C304.353 93.72 304.787 93.608 305.291 93.608C305.739 93.608 306.145 93.6967 306.509 93.874C306.873 94.0513 307.181 94.3033 307.433 94.63C307.694 94.9567 307.89 95.3533 308.021 95.82C308.161 96.2867 308.231 96.8093 308.231 97.388C308.231 97.9667 308.161 98.4893 308.021 98.956C307.89 99.4227 307.694 99.8193 307.433 100.146C307.181 100.473 306.873 100.725 306.509 100.902C306.145 101.079 305.739 101.168 305.291 101.168C304.311 101.168 303.606 100.72 303.177 99.824H303.121V103.8H302.001V93.776ZM304.983 100.16C305.617 100.16 306.117 99.964 306.481 99.572C306.845 99.1707 307.027 98.648 307.027 98.004V96.772C307.027 96.128 306.845 95.61 306.481 95.218C306.117 94.8167 305.617 94.616 304.983 94.616C304.731 94.616 304.488 94.6533 304.255 94.728C304.031 94.7933 303.835 94.8867 303.667 95.008C303.499 95.1293 303.363 95.2787 303.261 95.456C303.167 95.624 303.121 95.806 303.121 96.002V98.69C303.121 98.9233 303.167 99.1333 303.261 99.32C303.363 99.4973 303.499 99.6513 303.667 99.782C303.835 99.9033 304.031 99.9967 304.255 100.062C304.488 100.127 304.731 100.16 304.983 100.16ZM310.122 93.776H311.242V94.952H311.298C311.484 94.4947 311.755 94.1587 312.11 93.944C312.474 93.72 312.908 93.608 313.412 93.608C313.86 93.608 314.266 93.6967 314.63 93.874C314.994 94.0513 315.302 94.3033 315.554 94.63C315.815 94.9567 316.011 95.3533 316.142 95.82C316.282 96.2867 316.352 96.8093 316.352 97.388C316.352 97.9667 316.282 98.4893 316.142 98.956C316.011 99.4227 315.815 99.8193 315.554 100.146C315.302 100.473 314.994 100.725 314.63 100.902C314.266 101.079 313.86 101.168 313.412 101.168C312.432 101.168 311.727 100.72 311.298 99.824H311.242V103.8H310.122V93.776ZM313.104 100.16C313.738 100.16 314.238 99.964 314.602 99.572C314.966 99.1707 315.148 98.648 315.148 98.004V96.772C315.148 96.128 314.966 95.61 314.602 95.218C314.238 94.8167 313.738 94.616 313.104 94.616C312.852 94.616 312.609 94.6533 312.376 94.728C312.152 94.7933 311.956 94.8867 311.788 95.008C311.62 95.1293 311.484 95.2787 311.382 95.456C311.288 95.624 311.242 95.806 311.242 96.002V98.69C311.242 98.9233 311.288 99.1333 311.382 99.32C311.484 99.4973 311.62 99.6513 311.788 99.782C311.956 99.9033 312.152 99.9967 312.376 100.062C312.609 100.127 312.852 100.16 313.104 100.16Z" fill="#384A51"/>
<path d="M247.902 57V47.926H248.994V56.038H252.855V57H247.902ZM256.706 57.156C256.247 57.156 255.831 57.0737 255.458 56.909C255.094 56.7443 254.778 56.5103 254.509 56.207C254.249 55.895 254.045 55.5267 253.898 55.102C253.759 54.6687 253.69 54.1833 253.69 53.646C253.69 53.1173 253.759 52.6363 253.898 52.203C254.045 51.7697 254.249 51.4013 254.509 51.098C254.778 50.786 255.094 50.5477 255.458 50.383C255.831 50.2183 256.247 50.136 256.706 50.136C257.157 50.136 257.56 50.2183 257.915 50.383C258.27 50.5477 258.574 50.7773 258.825 51.072C259.076 51.358 259.267 51.7003 259.397 52.099C259.536 52.4977 259.605 52.9353 259.605 53.412V53.906H254.782V54.218C254.782 54.504 254.825 54.7727 254.912 55.024C255.007 55.2667 255.137 55.479 255.302 55.661C255.475 55.843 255.683 55.986 255.926 56.09C256.177 56.194 256.459 56.246 256.771 56.246C257.196 56.246 257.564 56.1463 257.876 55.947C258.197 55.7477 258.444 55.4617 258.617 55.089L259.358 55.622C259.141 56.0813 258.803 56.454 258.344 56.74C257.885 57.0173 257.339 57.156 256.706 57.156ZM256.706 51.007C256.42 51.007 256.16 51.059 255.926 51.163C255.692 51.2583 255.488 51.397 255.315 51.579C255.15 51.761 255.02 51.9777 254.925 52.229C254.83 52.4717 254.782 52.7403 254.782 53.035V53.126H258.487V52.983C258.487 52.385 258.322 51.9083 257.993 51.553C257.672 51.189 257.243 51.007 256.706 51.007ZM266.194 57C265.804 57 265.522 56.896 265.349 56.688C265.184 56.48 265.08 56.22 265.037 55.908H264.972C264.825 56.324 264.582 56.636 264.244 56.844C263.906 57.052 263.503 57.156 263.035 57.156C262.324 57.156 261.77 56.974 261.371 56.61C260.981 56.246 260.786 55.752 260.786 55.128C260.786 54.4953 261.016 54.01 261.475 53.672C261.943 53.334 262.667 53.165 263.646 53.165H264.972V52.502C264.972 52.0253 264.842 51.6613 264.582 51.41C264.322 51.1587 263.923 51.033 263.386 51.033C262.979 51.033 262.636 51.124 262.359 51.306C262.09 51.488 261.865 51.7307 261.683 52.034L261.059 51.449C261.241 51.085 261.531 50.7773 261.93 50.526C262.329 50.266 262.831 50.136 263.438 50.136C264.253 50.136 264.885 50.3353 265.336 50.734C265.787 51.1327 266.012 51.6873 266.012 52.398V56.09H266.779V57H266.194ZM263.204 56.272C263.464 56.272 263.702 56.2417 263.919 56.181C264.136 56.1203 264.322 56.0337 264.478 55.921C264.634 55.8083 264.755 55.6783 264.842 55.531C264.929 55.3837 264.972 55.2233 264.972 55.05V53.945H263.594C262.996 53.945 262.558 54.0317 262.281 54.205C262.012 54.3783 261.878 54.6297 261.878 54.959V55.232C261.878 55.5613 261.995 55.817 262.229 55.999C262.472 56.181 262.797 56.272 263.204 56.272ZM268.263 57V50.292H269.303V51.527H269.368C269.49 51.2063 269.706 50.9203 270.018 50.669C270.33 50.4177 270.759 50.292 271.305 50.292H271.708V51.332H271.097C270.534 51.332 270.092 51.4403 269.771 51.657C269.459 51.865 269.303 52.1293 269.303 52.45V57H268.263ZM273.037 57V50.292H274.077V51.384H274.129C274.293 51.0027 274.523 50.6993 274.818 50.474C275.121 50.2487 275.524 50.136 276.027 50.136C276.72 50.136 277.266 50.3613 277.665 50.812C278.072 51.254 278.276 51.8823 278.276 52.697V57H277.236V52.879C277.236 51.6743 276.729 51.072 275.715 51.072C275.507 51.072 275.303 51.098 275.104 51.15C274.913 51.202 274.74 51.28 274.584 51.384C274.428 51.488 274.302 51.6223 274.207 51.787C274.12 51.943 274.077 52.1293 274.077 52.346V57H273.037ZM288.373 57C287.983 57 287.701 56.896 287.528 56.688C287.363 56.48 287.259 56.22 287.216 55.908H287.151C287.003 56.324 286.761 56.636 286.423 56.844C286.085 57.052 285.682 57.156 285.214 57.156C284.503 57.156 283.948 56.974 283.55 56.61C283.16 56.246 282.965 55.752 282.965 55.128C282.965 54.4953 283.194 54.01 283.654 53.672C284.122 53.334 284.845 53.165 285.825 53.165H287.151V52.502C287.151 52.0253 287.021 51.6613 286.761 51.41C286.501 51.1587 286.102 51.033 285.565 51.033C285.157 51.033 284.815 51.124 284.538 51.306C284.269 51.488 284.044 51.7307 283.862 52.034L283.238 51.449C283.42 51.085 283.71 50.7773 284.109 50.526C284.507 50.266 285.01 50.136 285.617 50.136C286.431 50.136 287.064 50.3353 287.515 50.734C287.965 51.1327 288.191 51.6873 288.191 52.398V56.09H288.958V57H288.373ZM285.383 56.272C285.643 56.272 285.881 56.2417 286.098 56.181C286.314 56.1203 286.501 56.0337 286.657 55.921C286.813 55.8083 286.934 55.6783 287.021 55.531C287.107 55.3837 287.151 55.2233 287.151 55.05V53.945H285.773C285.175 53.945 284.737 54.0317 284.46 54.205C284.191 54.3783 284.057 54.6297 284.057 54.959V55.232C284.057 55.5613 284.174 55.817 284.408 55.999C284.65 56.181 284.975 56.272 285.383 56.272ZM290.442 47.38H291.482V51.384H291.534C291.707 50.9593 291.959 50.6473 292.288 50.448C292.626 50.24 293.029 50.136 293.497 50.136C293.913 50.136 294.29 50.2183 294.628 50.383C294.966 50.5477 295.252 50.7817 295.486 51.085C295.729 51.3883 295.911 51.7567 296.032 52.19C296.162 52.6233 296.227 53.1087 296.227 53.646C296.227 54.1833 296.162 54.6687 296.032 55.102C295.911 55.5353 295.729 55.9037 295.486 56.207C295.252 56.5103 294.966 56.7443 294.628 56.909C294.29 57.0737 293.913 57.156 293.497 57.156C292.587 57.156 291.933 56.74 291.534 55.908H291.482V57H290.442V47.38ZM293.211 56.22C293.8 56.22 294.264 56.038 294.602 55.674C294.94 55.3013 295.109 54.816 295.109 54.218V53.074C295.109 52.476 294.94 51.995 294.602 51.631C294.264 51.2583 293.8 51.072 293.211 51.072C292.977 51.072 292.752 51.1067 292.535 51.176C292.327 51.2367 292.145 51.3233 291.989 51.436C291.833 51.5487 291.707 51.6873 291.612 51.852C291.525 52.008 291.482 52.177 291.482 52.359V54.855C291.482 55.0717 291.525 55.2667 291.612 55.44C291.707 55.6047 291.833 55.7477 291.989 55.869C292.145 55.9817 292.327 56.0683 292.535 56.129C292.752 56.1897 292.977 56.22 293.211 56.22ZM300.518 57.156C300.067 57.156 299.656 57.0737 299.283 56.909C298.91 56.7443 298.59 56.5103 298.321 56.207C298.061 55.895 297.857 55.5267 297.71 55.102C297.563 54.6687 297.489 54.1833 297.489 53.646C297.489 53.1173 297.563 52.6363 297.71 52.203C297.857 51.7697 298.061 51.4013 298.321 51.098C298.59 50.786 298.91 50.5477 299.283 50.383C299.656 50.2183 300.067 50.136 300.518 50.136C300.969 50.136 301.376 50.2183 301.74 50.383C302.113 50.5477 302.433 50.786 302.702 51.098C302.971 51.4013 303.179 51.7697 303.326 52.203C303.473 52.6363 303.547 53.1173 303.547 53.646C303.547 54.1833 303.473 54.6687 303.326 55.102C303.179 55.5267 302.971 55.895 302.702 56.207C302.433 56.5103 302.113 56.7443 301.74 56.909C301.376 57.0737 300.969 57.156 300.518 57.156ZM300.518 56.233C301.081 56.233 301.541 56.0597 301.896 55.713C302.251 55.3663 302.429 54.8377 302.429 54.127V53.165C302.429 52.4543 302.251 51.9257 301.896 51.579C301.541 51.2323 301.081 51.059 300.518 51.059C299.955 51.059 299.495 51.2323 299.14 51.579C298.785 51.9257 298.607 52.4543 298.607 53.165V54.127C298.607 54.8377 298.785 55.3663 299.14 55.713C299.495 56.0597 299.955 56.233 300.518 56.233ZM309.391 55.908H309.339C309.27 56.064 309.183 56.22 309.079 56.376C308.984 56.5233 308.863 56.6577 308.715 56.779C308.568 56.8917 308.39 56.9827 308.182 57.052C307.974 57.1213 307.732 57.156 307.454 57.156C306.761 57.156 306.211 56.935 305.803 56.493C305.396 56.0423 305.192 55.4097 305.192 54.595V50.292H306.232V54.413C306.232 55.6177 306.744 56.22 307.766 56.22C307.974 56.22 308.174 56.194 308.364 56.142C308.564 56.09 308.737 56.012 308.884 55.908C309.04 55.804 309.162 55.674 309.248 55.518C309.344 55.3533 309.391 55.1583 309.391 54.933V50.292H310.431V57H309.391V55.908ZM314.128 57C313.764 57 313.487 56.9003 313.296 56.701C313.114 56.493 313.023 56.2243 313.023 55.895V51.202H311.918V50.292H312.542C312.767 50.292 312.919 50.2487 312.997 50.162C313.084 50.0667 313.127 49.9063 313.127 49.681V48.433H314.063V50.292H315.532V51.202H314.063V56.09H315.428V57H314.128ZM322.811 57.156C322.36 57.156 321.949 57.0737 321.576 56.909C321.203 56.7443 320.883 56.5103 320.614 56.207C320.354 55.895 320.15 55.5267 320.003 55.102C319.856 54.6687 319.782 54.1833 319.782 53.646C319.782 53.1173 319.856 52.6363 320.003 52.203C320.15 51.7697 320.354 51.4013 320.614 51.098C320.883 50.786 321.203 50.5477 321.576 50.383C321.949 50.2183 322.36 50.136 322.811 50.136C323.262 50.136 323.669 50.2183 324.033 50.383C324.406 50.5477 324.726 50.786 324.995 51.098C325.264 51.4013 325.472 51.7697 325.619 52.203C325.766 52.6363 325.84 53.1173 325.84 53.646C325.84 54.1833 325.766 54.6687 325.619 55.102C325.472 55.5267 325.264 55.895 324.995 56.207C324.726 56.5103 324.406 56.7443 324.033 56.909C323.669 57.0737 323.262 57.156 322.811 57.156ZM322.811 56.233C323.374 56.233 323.834 56.0597 324.189 55.713C324.544 55.3663 324.722 54.8377 324.722 54.127V53.165C324.722 52.4543 324.544 51.9257 324.189 51.579C323.834 51.2323 323.374 51.059 322.811 51.059C322.248 51.059 321.788 51.2323 321.433 51.579C321.078 51.9257 320.9 52.4543 320.9 53.165V54.127C320.9 54.8377 321.078 55.3663 321.433 55.713C321.788 56.0597 322.248 56.233 322.811 56.233ZM331.684 55.908H331.632C331.563 56.064 331.476 56.22 331.372 56.376C331.277 56.5233 331.156 56.6577 331.008 56.779C330.861 56.8917 330.683 56.9827 330.475 57.052C330.267 57.1213 330.025 57.156 329.747 57.156C329.054 57.156 328.504 56.935 328.096 56.493C327.689 56.0423 327.485 55.4097 327.485 54.595V50.292H328.525V54.413C328.525 55.6177 329.037 56.22 330.059 56.22C330.267 56.22 330.467 56.194 330.657 56.142C330.857 56.09 331.03 56.012 331.177 55.908C331.333 55.804 331.455 55.674 331.541 55.518C331.637 55.3533 331.684 55.1583 331.684 54.933V50.292H332.724V57H331.684V55.908ZM334.939 57V50.292H335.979V51.527H336.044C336.165 51.2063 336.382 50.9203 336.694 50.669C337.006 50.4177 337.435 50.292 337.981 50.292H338.384V51.332H337.773C337.21 51.332 336.768 51.4403 336.447 51.657C336.135 51.865 335.979 52.1293 335.979 52.45V57H334.939ZM347.66 57C347.27 57 346.988 56.896 346.815 56.688C346.65 56.48 346.546 56.22 346.503 55.908H346.438C346.29 56.324 346.048 56.636 345.71 56.844C345.372 57.052 344.969 57.156 344.501 57.156C343.79 57.156 343.235 56.974 342.837 56.61C342.447 56.246 342.252 55.752 342.252 55.128C342.252 54.4953 342.481 54.01 342.941 53.672C343.409 53.334 344.132 53.165 345.112 53.165H346.438V52.502C346.438 52.0253 346.308 51.6613 346.048 51.41C345.788 51.1587 345.389 51.033 344.852 51.033C344.444 51.033 344.102 51.124 343.825 51.306C343.556 51.488 343.331 51.7307 343.149 52.034L342.525 51.449C342.707 51.085 342.997 50.7773 343.396 50.526C343.794 50.266 344.297 50.136 344.904 50.136C345.718 50.136 346.351 50.3353 346.802 50.734C347.252 51.1327 347.478 51.6873 347.478 52.398V56.09H348.245V57H347.66ZM344.67 56.272C344.93 56.272 345.168 56.2417 345.385 56.181C345.601 56.1203 345.788 56.0337 345.944 55.921C346.1 55.8083 346.221 55.6783 346.308 55.531C346.394 55.3837 346.438 55.2233 346.438 55.05V53.945H345.06C344.462 53.945 344.024 54.0317 343.747 54.205C343.478 54.3783 343.344 54.6297 343.344 54.959V55.232C343.344 55.5613 343.461 55.817 343.695 55.999C343.937 56.181 344.262 56.272 344.67 56.272ZM349.729 57V50.292H350.769V51.384H350.821C350.986 51.0027 351.215 50.6993 351.51 50.474C351.813 50.2487 352.216 50.136 352.719 50.136C353.412 50.136 353.958 50.3613 354.357 50.812C354.764 51.254 354.968 51.8823 354.968 52.697V57H353.928V52.879C353.928 51.6743 353.421 51.072 352.407 51.072C352.199 51.072 351.995 51.098 351.796 51.15C351.605 51.202 351.432 51.28 351.276 51.384C351.12 51.488 350.994 51.6223 350.899 51.787C350.812 51.943 350.769 52.1293 350.769 52.346V57H349.729ZM358.6 57C358.236 57 357.958 56.9003 357.768 56.701C357.586 56.493 357.495 56.2243 357.495 55.895V51.202H356.39V50.292H357.014C357.239 50.292 357.391 50.2487 357.469 50.162C357.555 50.0667 357.599 49.9063 357.599 49.681V48.433H358.535V50.292H360.004V51.202H358.535V56.09H359.9V57H358.6ZM362.195 48.719C361.97 48.719 361.805 48.667 361.701 48.563C361.606 48.4503 361.558 48.3073 361.558 48.134V47.965C361.558 47.7917 361.606 47.653 361.701 47.549C361.805 47.4363 361.97 47.38 362.195 47.38C362.421 47.38 362.581 47.4363 362.676 47.549C362.78 47.653 362.832 47.7917 362.832 47.965V48.134C362.832 48.3073 362.78 48.4503 362.676 48.563C362.581 48.667 362.421 48.719 362.195 48.719ZM361.675 50.292H362.715V57H361.675V50.292ZM364.717 53.607V52.489H368.11V53.607H364.717ZM370.118 50.292H371.158V51.384H371.21C371.383 50.9593 371.634 50.6473 371.964 50.448C372.302 50.24 372.705 50.136 373.173 50.136C373.589 50.136 373.966 50.2183 374.304 50.383C374.642 50.5477 374.928 50.7817 375.162 51.085C375.404 51.3883 375.586 51.7567 375.708 52.19C375.838 52.6233 375.903 53.1087 375.903 53.646C375.903 54.1833 375.838 54.6687 375.708 55.102C375.586 55.5353 375.404 55.9037 375.162 56.207C374.928 56.5103 374.642 56.7443 374.304 56.909C373.966 57.0737 373.589 57.156 373.173 57.156C372.263 57.156 371.608 56.74 371.21 55.908H371.158V59.6H370.118V50.292ZM372.887 56.22C373.476 56.22 373.94 56.038 374.278 55.674C374.616 55.3013 374.785 54.816 374.785 54.218V53.074C374.785 52.476 374.616 51.995 374.278 51.631C373.94 51.2583 373.476 51.072 372.887 51.072C372.653 51.072 372.427 51.1067 372.211 51.176C372.003 51.2367 371.821 51.3233 371.665 51.436C371.509 51.5487 371.383 51.6873 371.288 51.852C371.201 52.008 371.158 52.177 371.158 52.359V54.855C371.158 55.0717 371.201 55.2667 371.288 55.44C371.383 55.6047 371.509 55.7477 371.665 55.869C371.821 55.9817 372.003 56.0683 372.211 56.129C372.427 56.1897 372.653 56.22 372.887 56.22ZM377.659 47.38H378.699V51.384H378.751C378.915 51.0027 379.145 50.6993 379.44 50.474C379.743 50.2487 380.146 50.136 380.649 50.136C381.342 50.136 381.888 50.3613 382.287 50.812C382.694 51.254 382.898 51.8823 382.898 52.697V57H381.858V52.879C381.858 51.6743 381.351 51.072 380.337 51.072C380.129 51.072 379.925 51.098 379.726 51.15C379.535 51.202 379.362 51.28 379.206 51.384C379.05 51.488 378.924 51.6223 378.829 51.787C378.742 51.943 378.699 52.1293 378.699 52.346V57H377.659V47.38ZM385.567 48.719C385.342 48.719 385.177 48.667 385.073 48.563C384.978 48.4503 384.93 48.3073 384.93 48.134V47.965C384.93 47.7917 384.978 47.653 385.073 47.549C385.177 47.4363 385.342 47.38 385.567 47.38C385.793 47.38 385.953 47.4363 386.048 47.549C386.152 47.653 386.204 47.7917 386.204 47.965V48.134C386.204 48.3073 386.152 48.4503 386.048 48.563C385.953 48.667 385.793 48.719 385.567 48.719ZM385.047 50.292H386.087V57H385.047V50.292ZM390.312 57.156C389.688 57.156 389.164 57.039 388.739 56.805C388.323 56.5623 387.964 56.2417 387.66 55.843L388.401 55.245C388.661 55.5743 388.952 55.83 389.272 56.012C389.593 56.1853 389.966 56.272 390.39 56.272C390.832 56.272 391.175 56.1767 391.417 55.986C391.669 55.7953 391.794 55.5267 391.794 55.18C391.794 54.92 391.708 54.699 391.534 54.517C391.37 54.3263 391.066 54.1963 390.624 54.127L390.091 54.049C389.779 54.0057 389.493 53.9407 389.233 53.854C388.973 53.7587 388.744 53.6373 388.544 53.49C388.354 53.334 388.202 53.1433 388.089 52.918C387.985 52.6927 387.933 52.424 387.933 52.112C387.933 51.7827 387.994 51.4967 388.115 51.254C388.237 51.0027 388.401 50.7947 388.609 50.63C388.826 50.4653 389.082 50.344 389.376 50.266C389.671 50.1793 389.987 50.136 390.325 50.136C390.871 50.136 391.326 50.2313 391.69 50.422C392.063 50.6127 392.388 50.877 392.665 51.215L391.976 51.839C391.829 51.631 391.612 51.4447 391.326 51.28C391.04 51.1067 390.681 51.02 390.247 51.02C389.814 51.02 389.485 51.1153 389.259 51.306C389.043 51.488 388.934 51.7393 388.934 52.06C388.934 52.3893 389.043 52.6277 389.259 52.775C389.485 52.9223 389.805 53.0307 390.221 53.1L390.741 53.178C391.487 53.2907 392.015 53.5073 392.327 53.828C392.639 54.14 392.795 54.5517 392.795 55.063C392.795 55.713 392.574 56.2243 392.132 56.597C391.69 56.9697 391.084 57.156 390.312 57.156ZM394.632 47.38H395.672V51.384H395.724C395.889 51.0027 396.119 50.6993 396.413 50.474C396.717 50.2487 397.12 50.136 397.622 50.136C398.316 50.136 398.862 50.3613 399.26 50.812C399.668 51.254 399.871 51.8823 399.871 52.697V57H398.831V52.879C398.831 51.6743 398.324 51.072 397.31 51.072C397.102 51.072 396.899 51.098 396.699 51.15C396.509 51.202 396.335 51.28 396.179 51.384C396.023 51.488 395.898 51.6223 395.802 51.787C395.716 51.943 395.672 52.1293 395.672 52.346V57H394.632V47.38ZM402.541 48.719C402.316 48.719 402.151 48.667 402.047 48.563C401.952 48.4503 401.904 48.3073 401.904 48.134V47.965C401.904 47.7917 401.952 47.653 402.047 47.549C402.151 47.4363 402.316 47.38 402.541 47.38C402.766 47.38 402.927 47.4363 403.022 47.549C403.126 47.653 403.178 47.7917 403.178 47.965V48.134C403.178 48.3073 403.126 48.4503 403.022 48.563C402.927 48.667 402.766 48.719 402.541 48.719ZM402.021 50.292H403.061V57H402.021V50.292ZM405.271 57V50.292H406.311V51.384H406.363C406.528 51.0027 406.757 50.6993 407.052 50.474C407.355 50.2487 407.758 50.136 408.261 50.136C408.954 50.136 409.5 50.3613 409.899 50.812C410.306 51.254 410.51 51.8823 410.51 52.697V57H409.47V52.879C409.47 51.6743 408.963 51.072 407.949 51.072C407.741 51.072 407.537 51.098 407.338 51.15C407.147 51.202 406.974 51.28 406.818 51.384C406.662 51.488 406.536 51.6223 406.441 51.787C406.354 51.943 406.311 52.1293 406.311 52.346V57H405.271ZM418.315 57.741C418.315 58.4343 418.042 58.9413 417.496 59.262C416.958 59.5913 416.148 59.756 415.065 59.756C414.016 59.756 413.262 59.613 412.803 59.327C412.343 59.041 412.114 58.6337 412.114 58.105C412.114 57.741 412.209 57.455 412.4 57.247C412.59 57.0477 412.85 56.9003 413.18 56.805V56.662C412.781 56.4713 412.582 56.1593 412.582 55.726C412.582 55.388 412.69 55.1323 412.907 54.959C413.123 54.777 413.401 54.6427 413.739 54.556V54.504C413.34 54.3133 413.028 54.0403 412.803 53.685C412.586 53.3297 412.478 52.918 412.478 52.45C412.478 52.112 412.538 51.8 412.66 51.514C412.781 51.228 412.95 50.9853 413.167 50.786C413.392 50.578 413.656 50.4177 413.96 50.305C414.272 50.1923 414.618 50.136 415 50.136C415.476 50.136 415.901 50.2227 416.274 50.396V50.279C416.274 50.019 416.334 49.8067 416.456 49.642C416.577 49.4687 416.776 49.382 417.054 49.382H418.055V50.292H416.781V50.721C417.023 50.929 417.21 51.1803 417.34 51.475C417.478 51.761 417.548 52.086 417.548 52.45C417.548 52.788 417.487 53.1 417.366 53.386C417.244 53.672 417.071 53.919 416.846 54.127C416.629 54.3263 416.365 54.4823 416.053 54.595C415.741 54.7077 415.394 54.764 415.013 54.764C414.796 54.764 414.579 54.7423 414.363 54.699C414.137 54.7597 413.934 54.8507 413.752 54.972C413.57 55.0847 413.479 55.245 413.479 55.453C413.479 55.6523 413.574 55.7867 413.765 55.856C413.955 55.9253 414.202 55.96 414.506 55.96H415.936C416.768 55.96 417.37 56.1203 417.743 56.441C418.124 56.753 418.315 57.1863 418.315 57.741ZM417.34 57.819C417.34 57.5503 417.236 57.3337 417.028 57.169C416.828 57.013 416.469 56.935 415.949 56.935H413.713C413.297 57.1257 413.089 57.429 413.089 57.845C413.089 58.1397 413.197 58.391 413.414 58.599C413.639 58.807 414.016 58.911 414.545 58.911H415.507C416.087 58.911 416.538 58.82 416.859 58.638C417.179 58.456 417.34 58.183 417.34 57.819ZM415.013 53.932C415.455 53.932 415.806 53.828 416.066 53.62C416.326 53.4033 416.456 53.074 416.456 52.632V52.268C416.456 51.826 416.326 51.501 416.066 51.293C415.806 51.0763 415.455 50.968 415.013 50.968C414.571 50.968 414.22 51.0763 413.96 51.293C413.7 51.501 413.57 51.826 413.57 52.268V52.632C413.57 53.074 413.7 53.4033 413.96 53.62C414.22 53.828 414.571 53.932 415.013 53.932ZM425.122 57.156C424.663 57.156 424.247 57.0737 423.874 56.909C423.51 56.7443 423.194 56.5103 422.925 56.207C422.665 55.895 422.461 55.5267 422.314 55.102C422.175 54.6687 422.106 54.1833 422.106 53.646C422.106 53.1173 422.175 52.6363 422.314 52.203C422.461 51.7697 422.665 51.4013 422.925 51.098C423.194 50.786 423.51 50.5477 423.874 50.383C424.247 50.2183 424.663 50.136 425.122 50.136C425.573 50.136 425.976 50.2183 426.331 50.383C426.686 50.5477 426.99 50.7773 427.241 51.072C427.492 51.358 427.683 51.7003 427.813 52.099C427.952 52.4977 428.021 52.9353 428.021 53.412V53.906H423.198V54.218C423.198 54.504 423.241 54.7727 423.328 55.024C423.423 55.2667 423.553 55.479 423.718 55.661C423.891 55.843 424.099 55.986 424.342 56.09C424.593 56.194 424.875 56.246 425.187 56.246C425.612 56.246 425.98 56.1463 426.292 55.947C426.613 55.7477 426.86 55.4617 427.033 55.089L427.774 55.622C427.557 56.0813 427.219 56.454 426.76 56.74C426.301 57.0173 425.755 57.156 425.122 57.156ZM425.122 51.007C424.836 51.007 424.576 51.059 424.342 51.163C424.108 51.2583 423.904 51.397 423.731 51.579C423.566 51.761 423.436 51.9777 423.341 52.229C423.246 52.4717 423.198 52.7403 423.198 53.035V53.126H426.903V52.983C426.903 52.385 426.738 51.9083 426.409 51.553C426.088 51.189 425.659 51.007 425.122 51.007ZM430.099 51.202H429.007V50.292H430.099V48.94C430.099 48.472 430.22 48.095 430.463 47.809C430.706 47.523 431.074 47.38 431.568 47.38H432.582V48.29H431.139V50.292H432.582V51.202H431.139V57H430.099V51.202ZM434.314 51.202H433.222V50.292H434.314V48.94C434.314 48.472 434.435 48.095 434.678 47.809C434.92 47.523 435.289 47.38 435.783 47.38H436.797V48.29H435.354V50.292H436.797V51.202H435.354V57H434.314V51.202ZM440.649 57.156C440.198 57.156 439.786 57.0737 439.414 56.909C439.041 56.7443 438.72 56.5103 438.452 56.207C438.192 55.895 437.988 55.5267 437.841 55.102C437.693 54.6687 437.62 54.1833 437.62 53.646C437.62 53.1173 437.693 52.6363 437.841 52.203C437.988 51.7697 438.192 51.4013 438.452 51.098C438.72 50.786 439.041 50.5477 439.414 50.383C439.786 50.2183 440.198 50.136 440.649 50.136C441.099 50.136 441.507 50.2183 441.871 50.383C442.243 50.5477 442.564 50.786 442.833 51.098C443.101 51.4013 443.309 51.7697 443.457 52.203C443.604 52.6363 443.678 53.1173 443.678 53.646C443.678 54.1833 443.604 54.6687 443.457 55.102C443.309 55.5267 443.101 55.895 442.833 56.207C442.564 56.5103 442.243 56.7443 441.871 56.909C441.507 57.0737 441.099 57.156 440.649 57.156ZM440.649 56.233C441.212 56.233 441.671 56.0597 442.027 55.713C442.382 55.3663 442.56 54.8377 442.56 54.127V53.165C442.56 52.4543 442.382 51.9257 442.027 51.579C441.671 51.2323 441.212 51.059 440.649 51.059C440.085 51.059 439.626 51.2323 439.271 51.579C438.915 51.9257 438.738 52.4543 438.738 53.165V54.127C438.738 54.8377 438.915 55.3663 439.271 55.713C439.626 56.0597 440.085 56.233 440.649 56.233ZM445.388 57V50.292H446.428V51.527H446.493C446.615 51.2063 446.831 50.9203 447.143 50.669C447.455 50.4177 447.884 50.292 448.43 50.292H448.833V51.332H448.222C447.659 51.332 447.217 51.4403 446.896 51.657C446.584 51.865 446.428 52.1293 446.428 52.45V57H445.388ZM451.694 57C451.33 57 451.053 56.9003 450.862 56.701C450.68 56.493 450.589 56.2243 450.589 55.895V51.202H449.484V50.292H450.108C450.334 50.292 450.485 50.2487 450.563 50.162C450.65 50.0667 450.693 49.9063 450.693 49.681V48.433H451.629V50.292H453.098V51.202H451.629V56.09H452.994V57H451.694ZM456.785 57.156C456.161 57.156 455.637 57.039 455.212 56.805C454.796 56.5623 454.436 56.2417 454.133 55.843L454.874 55.245C455.134 55.5743 455.424 55.83 455.745 56.012C456.066 56.1853 456.438 56.272 456.863 56.272C457.305 56.272 457.647 56.1767 457.89 55.986C458.141 55.7953 458.267 55.5267 458.267 55.18C458.267 54.92 458.18 54.699 458.007 54.517C457.842 54.3263 457.539 54.1963 457.097 54.127L456.564 54.049C456.252 54.0057 455.966 53.9407 455.706 53.854C455.446 53.7587 455.216 53.6373 455.017 53.49C454.826 53.334 454.675 53.1433 454.562 52.918C454.458 52.6927 454.406 52.424 454.406 52.112C454.406 51.7827 454.467 51.4967 454.588 51.254C454.709 51.0027 454.874 50.7947 455.082 50.63C455.299 50.4653 455.554 50.344 455.849 50.266C456.144 50.1793 456.46 50.136 456.798 50.136C457.344 50.136 457.799 50.2313 458.163 50.422C458.536 50.6127 458.861 50.877 459.138 51.215L458.449 51.839C458.302 51.631 458.085 51.4447 457.799 51.28C457.513 51.1067 457.153 51.02 456.72 51.02C456.287 51.02 455.957 51.1153 455.732 51.306C455.515 51.488 455.407 51.7393 455.407 52.06C455.407 52.3893 455.515 52.6277 455.732 52.775C455.957 52.9223 456.278 53.0307 456.694 53.1L457.214 53.178C457.959 53.2907 458.488 53.5073 458.8 53.828C459.112 54.14 459.268 54.5517 459.268 55.063C459.268 55.713 459.047 56.2243 458.605 56.597C458.163 56.9697 457.556 57.156 456.785 57.156Z" fill="white"/>
<path d="M246.693 58.625H459.996V59.405H246.693V58.625Z" fill="white"/>
</g>
<path d="M154.568 91.0427C153.998 90.2084 153.946 89.5826 155.448 89.5826C158.712 89.5826 161.198 88.331 161.664 87.5488C162.13 86.7666 161.146 85.8801 160.214 86.2973C159.489 86.6623 158.038 86.8187 157.002 86.923C156.122 87.0273 155.241 86.923 154.36 86.7144C153.635 86.558 152.962 86.3494 152.392 86.193C152.392 86.193 149.025 85.15 147.678 83.8984L139.805 91.0427L142.861 95.1624C142.861 95.1624 144.259 97.7177 147.212 97.6655C150.165 97.6134 154.205 95.8404 154.205 95.8404C154.827 95.0581 159.23 98.3435 160.68 99.595C162.079 100.794 163.218 100.638 163.27 99.595C163.27 98.8649 159.022 95.0581 157.624 93.8587C156.795 93.2851 155.293 92.0335 154.568 91.0427Z" fill="#D1A595"/>
<path d="M149.75 97.4568C149.75 97.509 149.543 97.5611 149.18 97.509C148.818 97.4568 148.3 97.3004 147.885 96.8832C147.471 96.5182 147.212 95.9967 147.16 95.6316C147.057 95.2666 147.108 95.0059 147.16 95.0059C147.264 95.0059 147.367 95.8924 148.144 96.5703C148.87 97.3525 149.75 97.3525 149.75 97.4568Z" fill="#B78C7E"/>
<path d="M152.703 96.5674C152.703 96.6195 152.496 96.6717 152.133 96.6195C151.77 96.5674 151.304 96.3588 150.89 95.9937C150.475 95.6287 150.268 95.1594 150.165 94.7943C150.061 94.4293 150.113 94.2207 150.165 94.2207C150.268 94.2207 150.372 95.0551 151.149 95.733C151.874 96.4109 152.703 96.4631 152.703 96.5674Z" fill="#B78C7E"/>
<path d="M96.0877 70.1221C105.337 76.1022 140.101 91 140.101 91L148 83.8134C148 83.8134 110.014 60.8897 106.065 59.2635C94.6327 54.5424 86.8381 64.142 96.0877 70.1221Z" fill="#D1A595"/>
<path d="M205.072 75.3957C191.397 75.1349 172.853 68.9815 164.772 70.0244C164.772 70.0244 157.261 72.8404 155.966 73.6226C154.671 74.4049 152.392 75.7086 152.081 75.5521C151.77 75.3435 150.838 74.4048 154.775 72.1625C156.484 71.1717 156.484 70.4416 156.484 70.4416C156.484 70.4416 154.827 70.233 154.619 70.3373C152.444 71.2238 148.041 77.3251 148.041 77.3251C147.471 77.638 147.005 76.4386 147.057 73.6748C147.057 71.7453 150.734 66.4783 150.838 66.4262C150.942 65.9569 152.703 64.4967 153.842 64.4446C160.991 64.1838 164.151 64.3403 164.151 64.3403C169.072 63.4016 188.237 63.6102 196.215 62.7758C204.192 61.9415 209.113 61.3678 213.257 62.2544C218.748 63.4016 223.41 75.7086 205.072 75.3957Z" fill="#D1A595"/>
<defs>
<filter id="filter0_d" x="0" y="17.3809" width="490" height="135.619" filterUnits="userSpaceOnUse" color-interpolation-filters="sRGB">
<feFlood flood-opacity="0" result="BackgroundImageFix"/>
<feColorMatrix in="SourceAlpha" type="matrix" values="0 0 0 0 0 0 0 0 0 0 0 0 0 0 0 0 0 0 127 0"/>
<feOffset/>
<feGaussianBlur stdDeviation="15"/>
<feColorMatrix type="matrix" values="0 0 0 0 0 0 0 0 0 0 0 0 0 0 0 0 0 0 0.3 0"/>
<feBlend mode="normal" in2="BackgroundImageFix" result="effect1_dropShadow"/>
<feBlend mode="normal" in="SourceGraphic" in2="effect1_dropShadow" result="shape"/>
</filter>
</defs>
</svg>
