<svg width="326" height="120" viewBox="0 0 326 120" fill="none" xmlns="http://www.w3.org/2000/svg">
<path d="M127.427 34.4436L113.575 34.281C113.575 34.281 111.808 33.0208 106.711 33.8338C99.1886 35.0128 101.655 52.0871 101.655 52.0871L105.108 76.8043C105.108 76.8043 104.039 79.6093 117.398 79.6093C130.757 79.6093 131.62 76.8043 131.62 76.8043L137.663 51.5993C137.663 51.5993 139.307 34.1184 134.744 34.1997C132.155 34.1997 127.427 34.4436 127.427 34.4436Z" fill="#FFBF8A"/>
<path d="M132.584 9.96289C132.827 14.9691 136.547 18.5508 134.242 26.0398C131.938 33.5287 99.9582 38.0872 107.438 11.3874" fill="#1A2E35"/>
<path d="M126.601 32.9233C126.681 30.7254 126.803 28.7311 126.803 28.7311C126.803 28.7311 131.695 28.1206 131.937 23.0736C132.139 18.0267 131.654 6.42695 131.654 6.42695L122.639 2.03125L112.936 9.92724L114.472 33.0861C114.674 36.4236 117.504 38.9877 120.819 38.8249C123.973 38.6214 126.479 36.0979 126.601 32.9233Z" fill="#D1A595"/>
<path d="M130.805 15.4969C130.805 15.8632 130.522 16.1481 130.199 16.1481C129.835 16.1481 129.552 15.8632 129.552 15.4969C129.552 15.1306 129.835 14.8457 130.158 14.8457C130.522 14.8457 130.805 15.1306 130.805 15.4969Z" fill="#1A2E35"/>
<path d="M131.412 14.153C131.331 14.2344 130.846 13.8274 130.199 13.8274C129.511 13.7867 129.026 14.153 128.945 14.0716C128.905 14.0309 128.986 13.8681 129.228 13.7053C129.431 13.5425 129.794 13.3797 130.239 13.4204C130.643 13.4204 131.007 13.6239 131.209 13.7867C131.371 13.9495 131.452 14.1123 131.412 14.153Z" fill="#1A2E35"/>
<path d="M123.366 15.4989C123.366 15.8652 123.083 16.1501 122.76 16.1501C122.396 16.1501 122.113 15.8652 122.113 15.4989C122.113 15.1326 122.396 14.8477 122.719 14.8477C123.083 14.8477 123.366 15.1326 123.366 15.4989Z" fill="#1A2E35"/>
<path d="M123.972 14.2761C123.891 14.3575 123.406 13.9504 122.759 13.9504C122.072 13.9097 121.587 14.2761 121.506 14.1947C121.466 14.154 121.546 13.9911 121.789 13.8283C121.991 13.6655 122.355 13.5027 122.8 13.5434C123.204 13.5434 123.568 13.7469 123.77 13.9097C123.932 14.0725 124.013 14.2354 123.972 14.2761Z" fill="#1A2E35"/>
<path d="M126.479 20.1043C126.479 20.0635 126.884 19.9821 127.571 19.9414C127.733 19.9414 127.894 19.9007 127.935 19.7786C127.975 19.6565 127.894 19.453 127.814 19.2088C127.652 18.7611 127.49 18.2727 127.328 17.7843C126.641 15.7492 126.156 14.0805 126.237 14.0398C126.318 13.9991 126.924 15.6271 127.611 17.6622C127.773 18.1506 127.935 18.639 128.056 19.0867C128.137 19.2902 128.218 19.5344 128.137 19.8193C128.097 19.9414 127.975 20.0635 127.854 20.0635C127.733 20.1042 127.652 20.1043 127.571 20.1043C126.924 20.145 126.479 20.145 126.479 20.1043Z" fill="#1A2E35"/>
<path d="M124.296 20.7926C123.609 20.3448 126.196 21.9322 127.571 21.8915C127.571 21.8915 126.762 23.1532 125.347 22.5834C123.892 21.9729 124.296 20.7926 124.296 20.7926Z" fill="#1A2E35"/>
<path d="M120.334 26.5703C120.334 26.5703 121.87 30.2334 126.762 29.9485L126.843 28.7275" fill="#B78C7E"/>
<path d="M107.639 14.8493C107.639 19.2043 100.686 29.9494 114.229 29.9494L114.108 16.4774C114.108 16.4774 121.749 12.855 123.043 5.28462L123.083 5.32532C123.568 6.46495 124.458 8.90701 123.932 10.9014L131.088 12.6922L131.897 13.4655C131.897 13.4655 134.444 7.84878 129.511 2.72046C124.579 -2.36716 120.374 1.29593 117.747 1.01102C116.008 0.766817 109.944 0.807518 107.437 11.3898L107.639 14.8493Z" fill="#1A2E35"/>
<path d="M114.31 16.6416C113.623 16.2346 112.733 16.5602 112.208 17.1707C111.359 18.1068 111.237 19.5721 111.884 20.6303C112.531 21.6885 113.906 22.2583 115.078 21.9327" fill="#D1A595"/>
<path d="M113.345 37.2926C113.345 37.2926 115.157 38.1529 111.171 34.3841C106.983 30.4514 84.8779 41.8807 84.8779 41.8807L88.7433 49.9508L106.138 46.7555L110.567 45.5266L113.345 37.2926Z" fill="#FFBF8A"/>
<path d="M84.8779 42.1465L88.812 49.9514C88.812 49.9514 95.6148 48.9213 102.049 47.6535" stroke="black" stroke-width="0.390244" stroke-miterlimit="10"/>
<path d="M127.024 37.729C127.024 37.729 127.19 36.3382 131.857 33.9782C137.103 31.3231 156.683 42.1963 156.683 42.1963L152.759 49.9508L134.46 47.4643L129.916 46.2L127.024 37.729Z" fill="#FFBF8A"/>
<path d="M131.708 33.9782C136.985 31.3231 156.683 42.1963 156.683 42.1963L152.735 49.9508L134.326 47.4643" stroke="black" stroke-width="0.390244" stroke-miterlimit="10"/>
<path d="M84.881 42.1465C84.881 42.1465 73.3455 45.8889 72.5738 48.8596C71.802 51.8304 73.5892 53.4122 75.5795 53.798C78.6665 54.4153 88.7804 49.7084 88.7804 49.7084L84.881 42.1465Z" fill="#B78C7E"/>
<path d="M156.594 42.1465C156.594 42.1465 167.152 47.1122 169.319 49.6358C171.848 52.6071 171.005 55.2934 166.59 57.4507C162.174 59.6079 152.78 49.6358 152.78 49.6358L156.594 42.1465Z" fill="#B78C7E"/>
<g filter="url(#filter0_d)">
<rect x="24" y="55.4141" width="277.854" height="40.5854" rx="3.90244" fill="#E8E8E8"/>
<path d="M114.537 72.585C114.537 66.5503 119.429 61.6582 125.463 61.6582H301.854V89.7558H125.463C119.429 89.7558 114.537 84.8637 114.537 78.8289V72.585Z" fill="#F9F9F9"/>
<path d="M138.992 75.7072C138.992 75.1332 138.525 74.6665 137.951 74.6665H137.431V73.1055C137.431 71.671 136.264 70.5039 134.829 70.5039C133.395 70.5039 132.227 71.671 132.227 73.1055V74.6665H131.707C131.133 74.6665 130.667 75.1332 130.667 75.7072V79.8698C130.667 80.4437 131.133 80.9104 131.707 80.9104H137.951C138.525 80.9104 138.992 80.4437 138.992 79.8698V75.7072ZM133.268 73.1055C133.268 72.2449 133.968 71.5446 134.829 71.5446C135.69 71.5446 136.39 72.2449 136.39 73.1055V74.6665H133.268V73.1055Z" fill="#384A51"/>
<path d="M41.6866 80.9944L37.3984 76.7062H46.9737V74.7084H37.3984L41.6866 70.4202L40.2742 69.0078L33.5747 75.7073L40.2742 82.4068L41.6866 80.9944Z" fill="#D8D8D8"/>
<path d="M67.2446 80.9944L68.657 82.4068L75.3565 75.7073L68.657 69.0078L67.2446 70.4202L71.5328 74.7084H61.9575V76.7062H71.5328L67.2446 80.9944Z" fill="#D8D8D8"/>
<path d="M92.9222 74.7079H90.0264C90.0264 74.7049 90.0264 74.7019 90.0274 74.6989C90.0924 74.3802 90.1903 74.0656 90.3181 73.7629C90.444 73.4663 90.5988 73.1806 90.7786 72.9139C90.9564 72.6502 91.1622 72.4015 91.3879 72.1747C91.6147 71.949 91.8634 71.7432 92.1291 71.5644C92.3948 71.3846 92.6795 71.2308 92.9761 71.1049C93.2778 70.9771 93.5925 70.8792 93.9131 70.8142C94.5704 70.6794 95.2686 70.6794 95.9288 70.8142C96.2465 70.8792 96.5621 70.9771 96.8648 71.1049C97.1605 71.2298 97.4451 71.3856 97.7138 71.5654C97.9795 71.7442 98.2273 71.949 98.451 72.1737L99.8654 70.7633C99.5518 70.4477 99.2022 70.16 98.8306 69.9093C98.458 69.6575 98.0584 69.4398 97.6439 69.264C97.2194 69.0842 96.7769 68.9473 96.3304 68.8564C95.4084 68.6676 94.4335 68.6676 93.5145 68.8564C93.066 68.9483 92.6235 69.0852 92.2 69.265C91.7815 69.4408 91.3819 69.6575 91.0103 69.9093C90.6408 70.158 90.2931 70.4457 89.9755 70.7623C89.6579 71.0789 89.3712 71.4276 89.1235 71.7961C88.8717 72.1687 88.654 72.5683 88.4782 72.9848C88.2984 73.4083 88.1615 73.8508 88.0706 74.2983C88.0427 74.4332 88.0277 74.571 88.0077 74.7079H84.9312L88.9267 78.7034L92.9222 74.7079ZM96.9177 76.7056H99.8135C99.8125 76.7086 99.8135 76.7116 99.8125 76.7136C99.7466 77.0373 99.6487 77.3519 99.5208 77.6506C99.3979 77.9433 99.2431 78.2289 99.0623 78.4976C98.8835 78.7613 98.6778 79.0111 98.45 79.2388C98.2253 79.4636 97.9775 79.6683 97.7118 79.8481C97.4441 80.0279 97.1595 80.1827 96.8638 80.3086C96.5611 80.4365 96.2465 80.5344 95.9268 80.5993C95.2706 80.7341 94.5714 80.7341 93.9121 80.5993C93.5934 80.5344 93.2788 80.4365 92.9761 80.3086C92.6795 80.1827 92.3938 80.0279 92.1271 79.8481C91.8634 79.6703 91.6147 79.4646 91.3879 79.2388L89.9755 80.6512C90.2921 80.9679 90.6408 81.2555 91.0093 81.5043C91.3819 81.756 91.7815 81.9737 92.198 82.1495C92.6215 82.3293 93.064 82.4662 93.5115 82.5571C93.972 82.651 94.4455 82.6989 94.92 82.6989C95.3944 82.6989 95.8679 82.651 96.3264 82.5571C96.7749 82.4662 97.2184 82.3283 97.6419 82.1485C98.0565 81.9727 98.456 81.756 98.8286 81.5043C99.2002 81.2536 99.5498 80.9649 99.8624 80.6512C100.179 80.3346 100.467 79.986 100.716 79.6154C100.97 79.2388 101.188 78.8393 101.361 78.4297C101.539 78.0102 101.675 77.5677 101.768 77.1152C101.795 76.9803 101.811 76.8425 101.831 76.7056H104.909L100.913 72.7101L96.9177 76.7056Z" fill="#D8D8D8"/>
<path d="M154.713 79.6565C154.713 80.2466 154.487 80.6909 154.035 80.9896C153.584 81.2882 152.848 81.4376 151.828 81.4376C151.362 81.4376 150.965 81.4048 150.637 81.3392C150.317 81.281 150.051 81.1935 149.839 81.077C149.636 80.9604 149.486 80.8184 149.391 80.6508C149.297 80.4833 149.249 80.2903 149.249 80.0717C149.249 79.7585 149.333 79.5145 149.501 79.3396C149.676 79.1648 149.916 79.0446 150.222 78.979V78.8588C149.792 78.7204 149.577 78.4291 149.577 77.9847C149.577 77.6933 149.676 77.4711 149.872 77.3182C150.069 77.1579 150.306 77.045 150.583 76.9794V76.9357C150.247 76.7755 149.989 76.5533 149.807 76.2692C149.632 75.9778 149.544 75.6391 149.544 75.253C149.544 74.6702 149.738 74.2004 150.124 73.8434C150.517 73.4865 151.078 73.308 151.806 73.308C152.207 73.308 152.549 73.3663 152.833 73.4828V73.3299C152.833 73.0749 152.892 72.8782 153.008 72.7398C153.132 72.5941 153.322 72.5213 153.576 72.5213H154.451V73.4828H153.292V73.7123C153.547 73.8799 153.744 74.0984 153.882 74.3679C154.021 74.6302 154.09 74.9252 154.09 75.253C154.09 75.8285 153.893 76.2947 153.5 76.6516C153.107 77.0013 152.546 77.1761 151.817 77.1761C151.54 77.1761 151.293 77.147 151.074 77.0887C150.929 77.1397 150.801 77.2125 150.692 77.3072C150.583 77.3947 150.528 77.5112 150.528 77.6569C150.528 77.8099 150.597 77.9191 150.735 77.9847C150.874 78.0503 151.071 78.083 151.326 78.083H152.724C153.423 78.083 153.93 78.2251 154.243 78.5092C154.556 78.786 154.713 79.1684 154.713 79.6565ZM153.598 79.7876C153.598 79.5909 153.522 79.4343 153.369 79.3178C153.223 79.2012 152.954 79.1429 152.56 79.1429H150.637C150.375 79.2959 150.244 79.5145 150.244 79.7986C150.244 80.0317 150.335 80.2174 150.517 80.3558C150.706 80.5015 151.023 80.5744 151.468 80.5744H152.211C153.136 80.5744 153.598 80.3121 153.598 79.7876ZM151.817 76.3129C152.167 76.3129 152.436 76.2364 152.626 76.0834C152.823 75.9232 152.921 75.6791 152.921 75.3513V75.1328C152.921 74.805 152.823 74.5646 152.626 74.4116C152.436 74.2514 152.167 74.1712 151.817 74.1712C151.468 74.1712 151.194 74.2514 150.998 74.4116C150.808 74.5646 150.714 74.805 150.714 75.1328V75.3513C150.714 75.6791 150.808 75.9232 150.998 76.0834C151.194 76.2364 151.468 76.3129 151.817 76.3129ZM157.764 79.2522C157.371 79.2522 157.01 79.183 156.682 79.0446C156.362 78.9062 156.089 78.7095 155.863 78.4546C155.637 78.1923 155.462 77.8791 155.338 77.5148C155.215 77.1433 155.153 76.7318 155.153 76.2801C155.153 75.8285 155.215 75.4205 155.338 75.0563C155.462 74.6848 155.637 74.3716 155.863 74.1166C156.089 73.8544 156.362 73.654 156.682 73.5156C157.01 73.3772 157.371 73.308 157.764 73.308C158.158 73.308 158.514 73.3772 158.835 73.5156C159.163 73.654 159.44 73.8544 159.665 74.1166C159.891 74.3716 160.066 74.6848 160.19 75.0563C160.314 75.4205 160.376 75.8285 160.376 76.2801C160.376 76.7318 160.314 77.1433 160.19 77.5148C160.066 77.8791 159.891 78.1923 159.665 78.4546C159.44 78.7095 159.163 78.9062 158.835 79.0446C158.514 79.183 158.158 79.2522 157.764 79.2522ZM157.764 78.2688C158.172 78.2688 158.5 78.145 158.748 77.8973C158.995 77.6423 159.119 77.2635 159.119 76.7609V75.7993C159.119 75.2967 158.995 74.9215 158.748 74.6739C158.5 74.4189 158.172 74.2914 157.764 74.2914C157.356 74.2914 157.028 74.4189 156.781 74.6739C156.533 74.9215 156.409 75.2967 156.409 75.7993V76.7609C156.409 77.2635 156.533 77.6423 156.781 77.8973C157.028 78.145 157.356 78.2688 157.764 78.2688ZM162.243 79.2522C161.973 79.2522 161.773 79.183 161.642 79.0446C161.511 78.8989 161.445 78.7204 161.445 78.5092V78.3453C161.445 78.134 161.511 77.9592 161.642 77.8208C161.773 77.6751 161.973 77.6023 162.243 77.6023C162.512 77.6023 162.713 77.6751 162.844 77.8208C162.975 77.9592 163.04 78.134 163.04 78.3453V78.5092C163.04 78.7204 162.975 78.8989 162.844 79.0446C162.713 79.183 162.512 79.2522 162.243 79.2522ZM169.631 79.6565C169.631 80.2466 169.405 80.6909 168.953 80.9896C168.501 81.2882 167.766 81.4376 166.746 81.4376C166.28 81.4376 165.883 81.4048 165.555 81.3392C165.234 81.281 164.968 81.1935 164.757 81.077C164.553 80.9604 164.404 80.8184 164.309 80.6508C164.214 80.4833 164.167 80.2903 164.167 80.0717C164.167 79.7585 164.251 79.5145 164.418 79.3396C164.593 79.1648 164.834 79.0446 165.14 78.979V78.8588C164.71 78.7204 164.495 78.4291 164.495 77.9847C164.495 77.6933 164.593 77.4711 164.79 77.3182C164.987 77.1579 165.223 77.045 165.5 76.9794V76.9357C165.165 76.7755 164.907 76.5533 164.724 76.2692C164.55 75.9778 164.462 75.6391 164.462 75.253C164.462 74.6702 164.655 74.2004 165.041 73.8434C165.435 73.4865 165.996 73.308 166.724 73.308C167.125 73.308 167.467 73.3663 167.751 73.4828V73.3299C167.751 73.0749 167.809 72.8782 167.926 72.7398C168.05 72.5941 168.239 72.5213 168.494 72.5213H169.368V73.4828H168.21V73.7123C168.465 73.8799 168.662 74.0984 168.8 74.3679C168.939 74.6302 169.008 74.9252 169.008 75.253C169.008 75.8285 168.811 76.2947 168.418 76.6516C168.024 77.0013 167.463 77.1761 166.735 77.1761C166.458 77.1761 166.21 77.147 165.992 77.0887C165.846 77.1397 165.719 77.2125 165.609 77.3072C165.5 77.3947 165.446 77.5112 165.446 77.6569C165.446 77.8099 165.515 77.9191 165.653 77.9847C165.792 78.0503 165.988 78.083 166.243 78.083H167.642C168.341 78.083 168.847 78.2251 169.161 78.5092C169.474 78.786 169.631 79.1684 169.631 79.6565ZM168.516 79.7876C168.516 79.5909 168.44 79.4343 168.287 79.3178C168.141 79.2012 167.871 79.1429 167.478 79.1429H165.555C165.293 79.2959 165.161 79.5145 165.161 79.7986C165.161 80.0317 165.253 80.2174 165.435 80.3558C165.624 80.5015 165.941 80.5744 166.385 80.5744H167.128C168.053 80.5744 168.516 80.3121 168.516 79.7876ZM166.735 76.3129C167.085 76.3129 167.354 76.2364 167.544 76.0834C167.74 75.9232 167.839 75.6791 167.839 75.3513V75.1328C167.839 74.805 167.74 74.5646 167.544 74.4116C167.354 74.2514 167.085 74.1712 166.735 74.1712C166.385 74.1712 166.112 74.2514 165.915 74.4116C165.726 74.5646 165.631 74.805 165.631 75.1328V75.3513C165.631 75.6791 165.726 75.9232 165.915 76.0834C166.112 76.2364 166.385 76.3129 166.735 76.3129ZM172.682 79.2522C172.288 79.2522 171.928 79.183 171.6 79.0446C171.28 78.9062 171.006 78.7095 170.781 78.4546C170.555 78.1923 170.38 77.8791 170.256 77.5148C170.132 77.1433 170.07 76.7318 170.07 76.2801C170.07 75.8285 170.132 75.4205 170.256 75.0563C170.38 74.6848 170.555 74.3716 170.781 74.1166C171.006 73.8544 171.28 73.654 171.6 73.5156C171.928 73.3772 172.288 73.308 172.682 73.308C173.075 73.308 173.432 73.3772 173.753 73.5156C174.08 73.654 174.357 73.8544 174.583 74.1166C174.809 74.3716 174.984 74.6848 175.108 75.0563C175.231 75.4205 175.293 75.8285 175.293 76.2801C175.293 76.7318 175.231 77.1433 175.108 77.5148C174.984 77.8791 174.809 78.1923 174.583 78.4546C174.357 78.7095 174.08 78.9062 173.753 79.0446C173.432 79.183 173.075 79.2522 172.682 79.2522ZM172.682 78.2688C173.09 78.2688 173.418 78.145 173.665 77.8973C173.913 77.6423 174.037 77.2635 174.037 76.7609V75.7993C174.037 75.2967 173.913 74.9215 173.665 74.6739C173.418 74.4189 173.09 74.2914 172.682 74.2914C172.274 74.2914 171.946 74.4189 171.698 74.6739C171.451 74.9215 171.327 75.2967 171.327 75.7993V76.7609C171.327 77.2635 171.451 77.6423 171.698 77.8973C171.946 78.145 172.274 78.2688 172.682 78.2688ZM177.77 79.1211L175.836 73.4391H177.016L177.879 76.0288L178.458 78.0175H178.524L179.103 76.0288L179.988 73.4391H181.124L179.168 79.1211H177.77ZM182.357 79.2522C182.088 79.2522 181.887 79.183 181.756 79.0446C181.625 78.8989 181.559 78.7204 181.559 78.5092V78.3453C181.559 78.134 181.625 77.9592 181.756 77.8208C181.887 77.6751 182.088 77.6023 182.357 77.6023C182.627 77.6023 182.827 77.6751 182.958 77.8208C183.089 77.9592 183.155 78.134 183.155 78.3453V78.5092C183.155 78.7204 183.089 78.8989 182.958 79.0446C182.827 79.183 182.627 79.2522 182.357 79.2522ZM186.597 79.2522C186.058 79.2522 185.606 79.1575 185.242 78.9681C184.878 78.7787 184.561 78.5165 184.292 78.1814L185.056 77.4821C185.268 77.737 185.501 77.9374 185.756 78.083C186.018 78.2215 186.32 78.2907 186.663 78.2907C187.012 78.2907 187.271 78.2251 187.439 78.094C187.613 77.9556 187.701 77.7662 187.701 77.5258C187.701 77.3437 187.639 77.1907 187.515 77.0668C187.398 76.9357 187.191 76.852 186.892 76.8155L186.368 76.75C185.785 76.6771 185.326 76.5096 184.991 76.2473C184.663 75.9778 184.499 75.5808 184.499 75.0563C184.499 74.7795 184.55 74.5355 184.652 74.3242C184.754 74.1057 184.896 73.9236 185.078 73.7779C185.268 73.6249 185.49 73.5083 185.745 73.4282C186.007 73.3481 186.295 73.308 186.608 73.308C187.118 73.308 187.533 73.3882 187.854 73.5484C188.182 73.7087 188.473 73.9308 188.728 74.2149L187.996 74.9143C187.85 74.7394 187.657 74.5901 187.417 74.4663C187.184 74.3351 186.914 74.2696 186.608 74.2696C186.28 74.2696 186.036 74.3351 185.876 74.4663C185.723 74.5974 185.647 74.7686 185.647 74.9798C185.647 75.1984 185.716 75.3623 185.854 75.4715C185.993 75.5808 186.215 75.6609 186.521 75.7119L187.045 75.7775C187.672 75.8722 188.127 76.0579 188.411 76.3348C188.702 76.6043 188.848 76.9685 188.848 77.4274C188.848 77.7042 188.793 77.9556 188.684 78.1814C188.582 78.3999 188.433 78.5893 188.236 78.7496C188.04 78.9098 187.803 79.0337 187.526 79.1211C187.249 79.2085 186.94 79.2522 186.597 79.2522ZM195.112 79.6565C195.112 80.2466 194.886 80.6909 194.435 80.9896C193.983 81.2882 193.247 81.4376 192.228 81.4376C191.761 81.4376 191.364 81.4048 191.037 81.3392C190.716 81.281 190.45 81.1935 190.239 81.077C190.035 80.9604 189.886 80.8184 189.791 80.6508C189.696 80.4833 189.649 80.2903 189.649 80.0717C189.649 79.7585 189.733 79.5145 189.9 79.3396C190.075 79.1648 190.315 79.0446 190.621 78.979V78.8588C190.192 78.7204 189.977 78.4291 189.977 77.9847C189.977 77.6933 190.075 77.4711 190.272 77.3182C190.468 77.1579 190.705 77.045 190.982 76.9794V76.9357C190.647 76.7755 190.388 76.5533 190.206 76.2692C190.031 75.9778 189.944 75.6391 189.944 75.253C189.944 74.6702 190.137 74.2004 190.523 73.8434C190.916 73.4865 191.477 73.308 192.206 73.308C192.606 73.308 192.949 73.3663 193.233 73.4828V73.3299C193.233 73.0749 193.291 72.8782 193.408 72.7398C193.531 72.5941 193.721 72.5213 193.976 72.5213H194.85V73.4828H193.692V73.7123C193.947 73.8799 194.143 74.0984 194.282 74.3679C194.42 74.6302 194.489 74.9252 194.489 75.253C194.489 75.8285 194.293 76.2947 193.899 76.6516C193.506 77.0013 192.945 77.1761 192.217 77.1761C191.94 77.1761 191.692 77.147 191.474 77.0887C191.328 77.1397 191.2 77.2125 191.091 77.3072C190.982 77.3947 190.927 77.5112 190.927 77.6569C190.927 77.8099 190.996 77.9191 191.135 77.9847C191.273 78.0503 191.47 78.083 191.725 78.083H193.124C193.823 78.083 194.329 78.2251 194.642 78.5092C194.956 78.786 195.112 79.1684 195.112 79.6565ZM193.998 79.7876C193.998 79.5909 193.921 79.4343 193.768 79.3178C193.623 79.2012 193.353 79.1429 192.96 79.1429H191.037C190.774 79.2959 190.643 79.5145 190.643 79.7986C190.643 80.0317 190.734 80.2174 190.916 80.3558C191.106 80.5015 191.423 80.5744 191.867 80.5744H192.61C193.535 80.5744 193.998 80.3121 193.998 79.7876ZM192.217 76.3129C192.566 76.3129 192.836 76.2364 193.025 76.0834C193.222 75.9232 193.32 75.6791 193.32 75.3513V75.1328C193.32 74.805 193.222 74.5646 193.025 74.4116C192.836 74.2514 192.566 74.1712 192.217 74.1712C191.867 74.1712 191.594 74.2514 191.397 74.4116C191.208 74.5646 191.113 74.805 191.113 75.1328V75.3513C191.113 75.6791 191.208 75.9232 191.397 76.0834C191.594 76.2364 191.867 76.3129 192.217 76.3129ZM195.457 80.771L198.484 71.0352H199.511L196.485 80.771H195.457ZM200.276 73.4828H201.128L201.729 75.9195L202.33 78.389H202.352L203.041 75.9195L203.751 73.4828H204.527L205.259 75.9195L205.958 78.389H205.98L206.559 75.9195L207.171 73.4828H207.99L206.493 79.1211H205.412L204.625 76.4112L204.133 74.6957H204.111L203.631 76.4112L202.844 79.1211H201.784L200.276 73.4828ZM209.253 71.0352H210.128V74.4007H210.171C210.31 74.0802 210.503 73.8252 210.75 73.6358C211.005 73.4464 211.344 73.3517 211.767 73.3517C212.349 73.3517 212.808 73.5411 213.143 73.9199C213.486 74.2914 213.657 74.8196 213.657 75.5043V79.1211H212.783V75.6573C212.783 74.6447 212.357 74.1385 211.504 74.1385C211.329 74.1385 211.158 74.1603 210.991 74.204C210.83 74.2477 210.685 74.3133 210.554 74.4007C210.423 74.4881 210.317 74.601 210.237 74.7394C210.164 74.8706 210.128 75.0272 210.128 75.2093V79.1211H209.253V71.0352ZM219.561 79.1211C219.233 79.1211 218.997 79.0337 218.851 78.8588C218.713 78.684 218.625 78.4655 218.589 78.2032H218.534C218.41 78.5529 218.206 78.8151 217.922 78.99C217.638 79.1648 217.299 79.2522 216.906 79.2522C216.309 79.2522 215.843 79.0992 215.507 78.7933C215.18 78.4873 215.016 78.0721 215.016 77.5476C215.016 77.0159 215.209 76.6079 215.595 76.3238C215.988 76.0397 216.596 75.8977 217.42 75.8977H218.534V75.3404C218.534 74.9398 218.425 74.6338 218.206 74.4226C217.988 74.2113 217.653 74.1057 217.201 74.1057C216.859 74.1057 216.571 74.1822 216.338 74.3351C216.112 74.4881 215.923 74.6921 215.77 74.947L215.245 74.4553C215.398 74.1494 215.642 73.8908 215.977 73.6795C216.312 73.461 216.735 73.3517 217.245 73.3517C217.93 73.3517 218.461 73.5193 218.84 73.8544C219.219 74.1895 219.408 74.6557 219.408 75.253V78.3562H220.053V79.1211H219.561ZM217.048 78.5092C217.267 78.5092 217.467 78.4837 217.649 78.4327C217.831 78.3817 217.988 78.3089 218.119 78.2142C218.25 78.1195 218.352 78.0102 218.425 77.8864C218.498 77.7625 218.534 77.6278 218.534 77.4821V76.5533H217.376C216.873 76.5533 216.505 76.6261 216.272 76.7718C216.046 76.9175 215.934 77.1288 215.934 77.4056V77.635C215.934 77.9119 216.032 78.1268 216.229 78.2797C216.433 78.4327 216.706 78.5092 217.048 78.5092ZM222.546 79.1211C222.24 79.1211 222.007 79.0373 221.847 78.8698C221.694 78.6949 221.617 78.4691 221.617 78.1923V74.2477H220.689V73.4828H221.213C221.403 73.4828 221.53 73.4464 221.596 73.3736C221.668 73.2935 221.705 73.1587 221.705 72.9693V71.9203H222.492V73.4828H223.726V74.2477H222.492V78.3562H223.639V79.1211H222.546ZM226.825 79.2522C226.301 79.2522 225.86 79.1539 225.503 78.9572C225.153 78.7532 224.851 78.4837 224.596 78.1486L225.219 77.646C225.437 77.9228 225.681 78.1377 225.951 78.2907C226.22 78.4363 226.534 78.5092 226.891 78.5092C227.262 78.5092 227.55 78.4291 227.754 78.2688C227.965 78.1085 228.071 77.8827 228.071 77.5913C228.071 77.3728 227.998 77.187 227.852 77.0341C227.714 76.8738 227.459 76.7645 227.087 76.7063L226.639 76.6407C226.377 76.6043 226.137 76.5496 225.918 76.4768C225.7 76.3967 225.507 76.2947 225.339 76.1708C225.179 76.0397 225.051 75.8795 224.957 75.6901C224.869 75.5007 224.825 75.2749 224.825 75.0126C224.825 74.7358 224.876 74.4954 224.978 74.2914C225.08 74.0802 225.219 73.9054 225.394 73.7669C225.576 73.6285 225.791 73.5266 226.038 73.461C226.286 73.3882 226.552 73.3517 226.836 73.3517C227.295 73.3517 227.677 73.4319 227.983 73.5921C228.297 73.7524 228.57 73.9746 228.803 74.2587L228.224 74.7831C228.1 74.6083 227.918 74.4517 227.677 74.3133C227.437 74.1676 227.135 74.0948 226.77 74.0948C226.406 74.0948 226.129 74.1749 225.94 74.3351C225.758 74.4881 225.667 74.6994 225.667 74.9689C225.667 75.2457 225.758 75.446 225.94 75.5699C226.129 75.6937 226.399 75.7848 226.749 75.843L227.186 75.9086C227.812 76.0033 228.256 76.1854 228.519 76.4549C228.781 76.7172 228.912 77.0632 228.912 77.493C228.912 78.0393 228.726 78.4691 228.355 78.7824C227.983 79.0956 227.473 79.2522 226.825 79.2522ZM234.554 79.1211C234.226 79.1211 233.989 79.0337 233.843 78.8588C233.705 78.684 233.618 78.4655 233.581 78.2032H233.527C233.403 78.5529 233.199 78.8151 232.915 78.99C232.631 79.1648 232.292 79.2522 231.898 79.2522C231.301 79.2522 230.835 79.0992 230.5 78.7933C230.172 78.4873 230.008 78.0721 230.008 77.5476C230.008 77.0159 230.201 76.6079 230.587 76.3238C230.981 76.0397 231.589 75.8977 232.412 75.8977H233.527V75.3404C233.527 74.9398 233.417 74.6338 233.199 74.4226C232.98 74.2113 232.645 74.1057 232.193 74.1057C231.851 74.1057 231.563 74.1822 231.33 74.3351C231.104 74.4881 230.915 74.6921 230.762 74.947L230.238 74.4553C230.391 74.1494 230.635 73.8908 230.97 73.6795C231.305 73.461 231.727 73.3517 232.237 73.3517C232.922 73.3517 233.454 73.5193 233.832 73.8544C234.211 74.1895 234.401 74.6557 234.401 75.253V78.3562H235.045V79.1211H234.554ZM232.04 78.5092C232.259 78.5092 232.459 78.4837 232.641 78.4327C232.824 78.3817 232.98 78.3089 233.111 78.2142C233.242 78.1195 233.344 78.0102 233.417 77.8864C233.49 77.7625 233.527 77.6278 233.527 77.4821V76.5533H232.368C231.866 76.5533 231.498 76.6261 231.265 76.7718C231.039 76.9175 230.926 77.1288 230.926 77.4056V77.635C230.926 77.9119 231.024 78.1268 231.221 78.2797C231.425 78.4327 231.698 78.5092 232.04 78.5092ZM236.293 73.4828H237.167V74.4007H237.211C237.357 74.0438 237.568 73.7815 237.845 73.614C238.129 73.4391 238.467 73.3517 238.861 73.3517C239.21 73.3517 239.527 73.4209 239.811 73.5593C240.096 73.6977 240.336 73.8944 240.533 74.1494C240.737 74.4043 240.89 74.7139 240.992 75.0782C241.101 75.4424 241.155 75.8503 241.155 76.302C241.155 76.7536 241.101 77.1615 240.992 77.5258C240.89 77.89 240.737 78.1996 240.533 78.4546C240.336 78.7095 240.096 78.9062 239.811 79.0446C239.527 79.183 239.21 79.2522 238.861 79.2522C238.096 79.2522 237.546 78.9026 237.211 78.2032H237.167V81.3065H236.293V73.4828ZM238.62 78.4655C239.116 78.4655 239.505 78.3125 239.79 78.0066C240.074 77.6933 240.216 77.2854 240.216 76.7828V75.8212C240.216 75.3186 240.074 74.9143 239.79 74.6083C239.505 74.2951 239.116 74.1385 238.62 74.1385C238.424 74.1385 238.234 74.1676 238.052 74.2259C237.877 74.2769 237.724 74.3497 237.593 74.4444C237.462 74.5391 237.357 74.6557 237.276 74.7941C237.204 74.9252 237.167 75.0672 237.167 75.2202V77.3182C237.167 77.5003 237.204 77.6642 237.276 77.8099C237.357 77.9483 237.462 78.0685 237.593 78.1705C237.724 78.2652 237.877 78.338 238.052 78.389C238.234 78.44 238.424 78.4655 238.62 78.4655ZM242.631 73.4828H243.506V74.4007H243.549C243.695 74.0438 243.906 73.7815 244.183 73.614C244.467 73.4391 244.806 73.3517 245.199 73.3517C245.549 73.3517 245.866 73.4209 246.15 73.5593C246.434 73.6977 246.674 73.8944 246.871 74.1494C247.075 74.4043 247.228 74.7139 247.33 75.0782C247.439 75.4424 247.494 75.8503 247.494 76.302C247.494 76.7536 247.439 77.1615 247.33 77.5258C247.228 77.89 247.075 78.1996 246.871 78.4546C246.674 78.7095 246.434 78.9062 246.15 79.0446C245.866 79.183 245.549 79.2522 245.199 79.2522C244.434 79.2522 243.884 78.9026 243.549 78.2032H243.506V81.3065H242.631V73.4828ZM244.959 78.4655C245.454 78.4655 245.844 78.3125 246.128 78.0066C246.412 77.6933 246.554 77.2854 246.554 76.7828V75.8212C246.554 75.3186 246.412 74.9143 246.128 74.6083C245.844 74.2951 245.454 74.1385 244.959 74.1385C244.762 74.1385 244.573 74.1676 244.391 74.2259C244.216 74.2769 244.063 74.3497 243.932 74.4444C243.801 74.5391 243.695 74.6557 243.615 74.7941C243.542 74.9252 243.506 75.0672 243.506 75.2202V77.3182C243.506 77.5003 243.542 77.6642 243.615 77.8099C243.695 77.9483 243.801 78.0685 243.932 78.1705C244.063 78.2652 244.216 78.338 244.391 78.389C244.573 78.44 244.762 78.4655 244.959 78.4655Z" fill="#384A51"/>
</g>
<path d="M121.223 71.0585C120.779 70.4072 120.738 69.9188 121.911 69.9188C124.458 69.9188 126.398 68.942 126.762 68.3315C127.126 67.721 126.358 67.0291 125.63 67.3547C125.064 67.6396 123.932 67.7617 123.124 67.8431C122.436 67.9245 121.749 67.8431 121.062 67.6803C120.496 67.5582 119.97 67.3954 119.525 67.2733C119.525 67.2733 116.898 66.4592 115.846 65.4824L109.701 71.0585L112.086 74.2738C112.086 74.2738 113.178 76.2682 115.483 76.2275C117.787 76.1868 120.94 74.8029 120.94 74.8029C121.426 74.1924 124.862 76.7566 125.994 77.7334C127.086 78.6695 127.975 78.5474 128.016 77.7334C128.016 77.1636 124.7 74.1924 123.609 73.2563C122.962 72.8086 121.789 71.8318 121.223 71.0585Z" fill="#D1A595"/>
<path d="M117.464 76.0633C117.464 76.104 117.302 76.1447 117.019 76.104C116.736 76.0633 116.332 75.9412 116.008 75.6156C115.685 75.3307 115.483 74.9237 115.442 74.6388C115.361 74.3539 115.402 74.1504 115.442 74.1504C115.523 74.1504 115.604 74.8423 116.21 75.3714C116.776 75.9819 117.464 75.9819 117.464 76.0633Z" fill="#B78C7E"/>
<path d="M119.768 75.3706C119.768 75.4113 119.606 75.452 119.323 75.4113C119.04 75.3706 118.676 75.2078 118.353 74.9229C118.029 74.638 117.868 74.2717 117.787 73.9868C117.706 73.7019 117.746 73.5391 117.787 73.5391C117.868 73.5391 117.949 74.1903 118.555 74.7194C119.121 75.2485 119.768 75.2892 119.768 75.3706Z" fill="#B78C7E"/>
<path d="M75.5806 54.7287C82.7998 59.3961 109.933 71.0237 109.933 71.0237L116.097 65.4146C116.097 65.4146 86.45 47.5229 83.3676 46.2537C74.445 42.569 68.3613 50.0614 75.5806 54.7287Z" fill="#D1A595"/>
<path d="M160.642 58.8448C149.969 58.6413 135.495 53.8386 129.188 54.6526C129.188 54.6526 123.326 56.8504 122.315 57.4609C121.305 58.0715 119.526 59.089 119.283 58.9669C119.041 58.8041 118.313 58.0715 121.385 56.3213C122.72 55.548 122.72 54.9782 122.72 54.9782C122.72 54.9782 121.426 54.8154 121.264 54.8968C119.566 55.5887 116.13 60.3507 116.13 60.3507C115.685 60.5949 115.321 59.6588 115.361 57.5016C115.361 55.9957 118.232 51.8849 118.313 51.8442C118.394 51.4779 119.768 50.3383 120.658 50.2976C126.237 50.0941 128.703 50.2162 128.703 50.2162C132.544 49.4836 147.503 49.6464 153.729 48.9952C159.955 48.3439 163.796 47.8962 167.03 48.5881C171.315 49.4836 174.954 59.089 160.642 58.8448Z" fill="#D1A595"/>
<defs>
<filter id="filter0_d" x="0.585367" y="31.9994" width="324.683" height="87.4146" filterUnits="userSpaceOnUse" color-interpolation-filters="sRGB">
<feFlood flood-opacity="0" result="BackgroundImageFix"/>
<feColorMatrix in="SourceAlpha" type="matrix" values="0 0 0 0 0 0 0 0 0 0 0 0 0 0 0 0 0 0 127 0"/>
<feOffset/>
<feGaussianBlur stdDeviation="11.7073"/>
<feColorMatrix type="matrix" values="0 0 0 0 0 0 0 0 0 0 0 0 0 0 0 0 0 0 0.3 0"/>
<feBlend mode="normal" in2="BackgroundImageFix" result="effect1_dropShadow"/>
<feBlend mode="normal" in="SourceGraphic" in2="effect1_dropShadow" result="shape"/>
</filter>
</defs>
</svg>
