<svg width="490" height="153" viewBox="0 0 490 153" fill="none" xmlns="http://www.w3.org/2000/svg">
<path d="M162.517 44.1314L144.769 43.9231C144.769 43.9231 142.504 42.3084 135.973 43.3501C126.336 44.8607 129.496 66.7372 129.496 66.7372L133.92 98.406C133.92 98.406 132.55 102 149.666 102C166.783 102 167.889 98.406 167.889 98.406L175.63 66.1121C175.63 66.1121 177.737 43.7147 171.891 43.8189C168.573 43.8189 162.517 44.1314 162.517 44.1314Z" fill="#FFBF8A"/>
<path d="M169.123 12.7656C169.434 19.1798 174.2 23.7689 171.247 33.3641C168.295 42.9594 127.321 48.7999 136.904 14.5908" fill="#1A2E35"/>
<path d="M161.457 42.182C161.56 39.366 161.716 36.8107 161.716 36.8107C161.716 36.8107 167.984 36.0285 168.294 29.5621C168.553 23.0958 167.932 8.23356 167.932 8.23356L156.38 2.60156L143.948 12.7183L145.917 42.3906C146.176 46.6667 149.802 49.952 154.049 49.7434C158.09 49.4827 161.301 46.2495 161.457 42.182Z" fill="#D1A595"/>
<path d="M166.844 19.8559C166.844 20.3252 166.482 20.6902 166.067 20.6902C165.601 20.6902 165.239 20.3252 165.239 19.8559C165.239 19.3865 165.601 19.0215 166.016 19.0215C166.482 19.0215 166.844 19.3865 166.844 19.8559Z" fill="#1A2E35"/>
<path d="M167.621 18.1323C167.518 18.2366 166.896 17.7151 166.067 17.7151C165.187 17.663 164.565 18.1323 164.461 18.028C164.41 17.9759 164.513 17.7673 164.824 17.5587C165.083 17.3501 165.549 17.1415 166.119 17.1937C166.637 17.1937 167.103 17.4544 167.362 17.663C167.569 17.8716 167.673 18.0802 167.621 18.1323Z" fill="#1A2E35"/>
<path d="M157.313 19.8578C157.313 20.3271 156.95 20.6922 156.536 20.6922C156.07 20.6922 155.707 20.3271 155.707 19.8578C155.707 19.3885 156.07 19.0234 156.484 19.0234C156.95 19.0234 157.313 19.3885 157.313 19.8578Z" fill="#1A2E35"/>
<path d="M158.09 18.2905C157.986 18.3948 157.365 17.8733 156.536 17.8733C155.655 17.8212 155.034 18.2905 154.93 18.1862C154.878 18.1341 154.982 17.9255 155.293 17.7169C155.552 17.5083 156.018 17.2997 156.588 17.3519C157.106 17.3519 157.572 17.6126 157.831 17.8212C158.038 18.0298 158.142 18.2384 158.09 18.2905Z" fill="#1A2E35"/>
<path d="M161.301 25.7574C161.301 25.7052 161.819 25.6009 162.7 25.5488C162.907 25.5488 163.114 25.4966 163.166 25.3402C163.218 25.1837 163.114 24.923 163.011 24.6101C162.804 24.0365 162.596 23.4107 162.389 22.7849C161.509 20.1775 160.887 18.0394 160.991 17.9873C161.094 17.9351 161.871 20.0211 162.752 22.6285C162.959 23.2542 163.166 23.88 163.322 24.4536C163.425 24.7144 163.529 25.0273 163.425 25.3923C163.373 25.5488 163.218 25.7052 163.063 25.7052C162.907 25.7573 162.804 25.7574 162.7 25.7574C161.871 25.8095 161.301 25.8095 161.301 25.7574Z" fill="#1A2E35"/>
<path d="M158.504 26.6411C157.624 26.0675 160.939 28.1013 162.7 28.0491C162.7 28.0491 161.664 29.6657 159.851 28.9356C157.986 28.1534 158.504 26.6411 158.504 26.6411Z" fill="#1A2E35"/>
<path d="M153.428 34.043C153.428 34.043 155.396 38.7363 161.664 38.3713L161.768 36.8068" fill="#B78C7E"/>
<path d="M137.163 19.0257C137.163 24.6056 128.253 38.3727 145.606 38.3727L145.451 21.1116C145.451 21.1116 155.241 16.4705 156.899 6.77092L156.95 6.82307C157.572 8.28322 158.711 11.4121 158.038 13.9674L167.207 16.2619L168.243 17.2527C168.243 17.2527 171.506 10.0563 165.186 3.48559C158.867 -3.03292 153.48 1.66041 150.113 1.29537C147.885 0.982485 140.115 1.03463 136.904 14.5931L137.163 19.0257Z" fill="#1A2E35"/>
<path d="M145.71 21.3213C144.829 20.7998 143.69 21.217 143.016 21.9992C141.928 23.1987 141.773 25.076 142.602 26.4318C143.431 27.7877 145.192 28.5178 146.694 28.1006" fill="#D1A595"/>
<path d="M144.474 47.7817C144.474 47.7817 146.795 48.8839 141.688 44.0552C136.322 39.0165 108 53.6602 108 53.6602L112.953 64L135.239 59.9061L140.914 58.3315L144.474 47.7817Z" fill="#FFBF8A"/>
<path d="M108 54L113.041 64C113.041 64 121.757 62.6802 130 61.0558" stroke="black" stroke-width="0.5" stroke-miterlimit="10"/>
<path d="M162 48.3408C162 48.3408 162.212 46.5589 168.192 43.5351C174.914 40.1333 200 54.0645 200 54.0645L194.972 64L171.526 60.8142L165.705 59.1943L162 48.3408Z" fill="#FFBF8A"/>
<path d="M168 43.5351C174.762 40.1333 200 54.0645 200 54.0645L194.942 64L171.354 60.8142" stroke="black" stroke-width="0.5" stroke-miterlimit="10"/>
<path d="M108.004 54C108.004 54 93.2241 58.7949 92.2353 62.6012C91.2465 66.4075 93.5363 68.4342 96.0864 68.9285C100.042 69.7194 113 63.6887 113 63.6887L108.004 54Z" fill="#B78C7E"/>
<path d="M199.886 54C199.886 54 213.413 60.3623 216.191 63.5956C219.431 67.4026 218.351 70.8445 212.693 73.6085C207.035 76.3725 195 63.5956 195 63.5956L199.886 54Z" fill="#B78C7E"/>
<g filter="url(#filter0_d)">
<rect x="30" y="71" width="430" height="52" rx="5" fill="#E8E8E8"/>
<path d="M146 93C146 85.268 152.268 79 160 79H460V115H160C152.268 115 146 108.732 146 101V93Z" fill="#F9F9F9"/>
<path d="M177.333 97.0007C177.333 96.2653 176.735 95.6673 176 95.6673H175.333V93.6673C175.333 91.8293 173.838 90.334 172 90.334C170.162 90.334 168.667 91.8293 168.667 93.6673V95.6673H168C167.265 95.6673 166.667 96.2653 166.667 97.0007V102.334C166.667 103.069 167.265 103.667 168 103.667H176C176.735 103.667 177.333 103.069 177.333 102.334V97.0007ZM170 93.6673C170 92.5647 170.897 91.6673 172 91.6673C173.103 91.6673 174 92.5647 174 93.6673V95.6673H170V93.6673Z" fill="#384A51"/>
<path d="M52.6617 103.774L47.1674 98.2796H59.4358V95.7199H47.1674L52.6617 90.2257L50.852 88.416L42.2683 96.9997L50.852 105.583L52.6617 103.774Z" fill="#D8D8D8"/>
<path d="M85.4071 103.774L87.2168 105.583L95.8005 96.9997L87.2168 88.416L85.4071 90.2257L90.9014 95.7199H78.6331V98.2796H90.9014L85.4071 103.774Z" fill="#D8D8D8"/>
<path d="M118.307 95.7196H114.597C114.597 95.7158 114.597 95.7119 114.598 95.7081C114.682 95.2998 114.807 94.8967 114.971 94.5089C115.132 94.1288 115.331 93.7628 115.561 93.421C115.789 93.0832 116.052 92.7645 116.342 92.474C116.632 92.1847 116.951 91.9211 117.291 91.692C117.632 91.4616 117.996 91.2646 118.376 91.1033C118.763 90.9395 119.166 90.8141 119.577 90.7309C120.419 90.5581 121.314 90.5581 122.16 90.7309C122.567 90.8141 122.971 90.9395 123.359 91.1033C123.738 91.2633 124.102 91.4629 124.447 91.6933C124.787 91.9224 125.104 92.1847 125.391 92.4727L127.203 90.6656C126.802 90.2612 126.354 89.8926 125.877 89.5714C125.4 89.2488 124.888 88.9698 124.357 88.7446C123.813 88.5142 123.246 88.3389 122.674 88.2224C121.493 87.9805 120.244 87.9805 119.066 88.2224C118.492 88.3402 117.925 88.5155 117.382 88.7459C116.846 88.9711 116.334 89.2488 115.858 89.5714C115.384 89.89 114.939 90.2586 114.532 90.6643C114.125 91.07 113.758 91.5167 113.44 91.9889C113.118 92.4663 112.839 92.9782 112.613 93.5119C112.383 94.0546 112.208 94.6215 112.091 95.1949C112.055 95.3676 112.036 95.5443 112.011 95.7196H108.069L113.188 100.839L118.307 95.7196ZM123.427 98.2792H127.137C127.136 98.2831 127.137 98.2869 127.136 98.2895C127.051 98.7041 126.926 99.1073 126.762 99.4899C126.604 99.8649 126.406 100.231 126.174 100.575C125.945 100.913 125.682 101.233 125.39 101.525C125.102 101.813 124.785 102.075 124.444 102.306C124.101 102.536 123.736 102.734 123.358 102.896C122.97 103.059 122.567 103.185 122.157 103.268C121.316 103.441 120.42 103.441 119.576 103.268C119.167 103.185 118.764 103.059 118.376 102.896C117.996 102.734 117.63 102.536 117.289 102.306C116.951 102.078 116.632 101.814 116.342 101.525L114.532 103.335C114.938 103.74 115.384 104.109 115.857 104.427C116.334 104.75 116.846 105.029 117.38 105.254C117.922 105.485 118.489 105.66 119.062 105.776C119.652 105.897 120.259 105.958 120.867 105.958C121.475 105.958 122.082 105.897 122.669 105.776C123.244 105.66 123.812 105.483 124.355 105.253C124.886 105.028 125.398 104.75 125.875 104.427C126.351 104.106 126.799 103.736 127.2 103.335C127.605 102.929 127.974 102.482 128.294 102.007C128.619 101.525 128.898 101.013 129.119 100.488C129.347 99.9507 129.522 99.3837 129.641 98.804C129.676 98.6312 129.696 98.4546 129.722 98.2792H133.665L128.546 93.16L123.427 98.2792Z" fill="#D8D8D8"/>
</g>
<path d="M154.568 91.0427C153.998 90.2084 153.946 89.5826 155.448 89.5826C158.712 89.5826 161.198 88.331 161.664 87.5488C162.13 86.7666 161.146 85.8801 160.214 86.2973C159.489 86.6623 158.038 86.8187 157.002 86.923C156.122 87.0273 155.241 86.923 154.36 86.7144C153.635 86.558 152.962 86.3494 152.392 86.193C152.392 86.193 149.025 85.15 147.678 83.8984L139.805 91.0427L142.861 95.1624C142.861 95.1624 144.259 97.7177 147.212 97.6655C150.165 97.6134 154.205 95.8404 154.205 95.8404C154.827 95.0581 159.23 98.3435 160.68 99.595C162.079 100.794 163.218 100.638 163.27 99.595C163.27 98.8649 159.022 95.0581 157.624 93.8587C156.795 93.2851 155.293 92.0335 154.568 91.0427Z" fill="#D1A595"/>
<path d="M149.75 97.4568C149.75 97.509 149.543 97.5611 149.18 97.509C148.818 97.4568 148.3 97.3004 147.885 96.8832C147.471 96.5182 147.212 95.9967 147.16 95.6316C147.057 95.2666 147.108 95.0059 147.16 95.0059C147.264 95.0059 147.367 95.8924 148.144 96.5703C148.87 97.3525 149.75 97.3525 149.75 97.4568Z" fill="#B78C7E"/>
<path d="M152.703 96.5674C152.703 96.6195 152.496 96.6717 152.133 96.6195C151.77 96.5674 151.304 96.3588 150.89 95.9937C150.475 95.6287 150.268 95.1594 150.165 94.7943C150.061 94.4293 150.113 94.2207 150.165 94.2207C150.268 94.2207 150.372 95.0551 151.149 95.733C151.874 96.4109 152.703 96.4631 152.703 96.5674Z" fill="#B78C7E"/>
<path d="M96.0877 70.1221C105.337 76.1022 140.101 91 140.101 91L148 83.8134C148 83.8134 110.014 60.8897 106.065 59.2635C94.6327 54.5424 86.8381 64.142 96.0877 70.1221Z" fill="#D1A595"/>
<path d="M205.072 75.3957C191.397 75.1349 172.853 68.9815 164.772 70.0244C164.772 70.0244 157.261 72.8404 155.966 73.6226C154.671 74.4049 152.392 75.7086 152.081 75.5521C151.77 75.3435 150.838 74.4048 154.775 72.1625C156.484 71.1717 156.484 70.4416 156.484 70.4416C156.484 70.4416 154.827 70.233 154.619 70.3373C152.444 71.2238 148.041 77.3251 148.041 77.3251C147.471 77.638 147.005 76.4386 147.057 73.6748C147.057 71.7453 150.734 66.4783 150.838 66.4262C150.942 65.9569 152.703 64.4967 153.842 64.4446C160.991 64.1838 164.151 64.3403 164.151 64.3403C169.072 63.4016 188.237 63.6102 196.215 62.7758C204.192 61.9415 209.113 61.3678 213.257 62.2544C218.748 63.4016 223.41 75.7086 205.072 75.3957Z" fill="#D1A595"/>
<defs>
<filter id="filter0_d" x="0" y="41" width="490" height="112" filterUnits="userSpaceOnUse" color-interpolation-filters="sRGB">
<feFlood flood-opacity="0" result="BackgroundImageFix"/>
<feColorMatrix in="SourceAlpha" type="matrix" values="0 0 0 0 0 0 0 0 0 0 0 0 0 0 0 0 0 0 127 0"/>
<feOffset/>
<feGaussianBlur stdDeviation="15"/>
<feColorMatrix type="matrix" values="0 0 0 0 0 0 0 0 0 0 0 0 0 0 0 0 0 0 0.3 0"/>
<feBlend mode="normal" in2="BackgroundImageFix" result="effect1_dropShadow"/>
<feBlend mode="normal" in="SourceGraphic" in2="effect1_dropShadow" result="shape"/>
</filter>
</defs>
</svg>
