<svg width="400" height="160" viewBox="0 0 400 160" fill="none" xmlns="http://www.w3.org/2000/svg">
<rect x="43.4261" y="10.4261" width="313.235" height="52.7131" rx="26.3565" fill="#FDF3E8" stroke="black" stroke-width="0.852174"/>
<path d="M113.017 45.0307C112.097 45.0307 111.262 44.8659 110.512 44.5364C109.773 44.2069 109.205 43.6615 108.807 42.9003L110.222 41.8265C110.552 42.3719 110.944 42.7696 111.398 43.0196C111.864 43.2582 112.409 43.3775 113.034 43.3775C113.92 43.3775 114.597 43.1673 115.062 42.7469C115.528 42.3265 115.761 41.8095 115.761 41.1959C115.761 40.7528 115.625 40.4062 115.352 40.1563C115.079 39.8949 114.676 39.7074 114.142 39.5938L113.154 39.4063C112.301 39.2245 111.637 38.8894 111.159 38.4008C110.682 37.9008 110.444 37.2248 110.444 36.3726C110.444 35.8613 110.54 35.3841 110.733 34.941C110.938 34.4978 111.222 34.1115 111.586 33.782C111.96 33.4525 112.415 33.1968 112.949 33.015C113.483 32.8219 114.085 32.7253 114.756 32.7253C115.665 32.7253 116.449 32.8844 117.108 33.2025C117.767 33.5093 118.295 33.9354 118.693 34.4808L117.363 35.6568C117.056 35.2364 116.693 34.9182 116.272 34.7023C115.852 34.4865 115.318 34.3785 114.67 34.3785C113.943 34.3785 113.364 34.5433 112.932 34.8728C112.512 35.1909 112.301 35.6397 112.301 36.2192C112.301 36.6623 112.432 37.0089 112.693 37.2589C112.955 37.4975 113.352 37.6736 113.886 37.7872L114.858 37.9747C115.733 38.1565 116.415 38.4974 116.903 38.9973C117.403 39.4972 117.653 40.179 117.653 41.0425C117.653 41.5652 117.551 42.0708 117.346 42.5594C117.142 43.0366 116.841 43.457 116.443 43.8206C116.045 44.1842 115.557 44.4796 114.977 44.7069C114.409 44.9228 113.756 45.0307 113.017 45.0307ZM122.853 45.0307C121.705 45.0307 120.83 44.7069 120.228 44.0592C119.637 43.4002 119.342 42.4742 119.342 41.2811C119.342 40.5539 119.45 39.8608 119.665 39.2018C119.893 38.5314 120.211 37.9406 120.62 37.4293C121.029 36.918 121.523 36.5146 122.103 36.2192C122.682 35.9124 123.33 35.759 124.046 35.759C124.398 35.759 124.75 35.8045 125.102 35.8954C125.466 35.9863 125.79 36.1283 126.074 36.3215C126.358 36.5146 126.585 36.7646 126.756 37.0714C126.937 37.3782 127.028 37.7474 127.028 38.1792C127.028 39.1223 126.551 39.8438 125.597 40.3437C124.654 40.8437 123.171 41.1164 121.148 41.1618C121.114 41.3891 121.097 41.5765 121.097 41.7243C121.097 42.2696 121.245 42.7071 121.54 43.0366C121.847 43.3661 122.324 43.5309 122.972 43.5309C123.46 43.5309 123.904 43.4229 124.301 43.207C124.699 42.9912 125.08 42.656 125.443 42.2015L126.568 43.1389C126.011 43.832 125.426 44.3205 124.813 44.6046C124.199 44.8887 123.546 45.0307 122.853 45.0307ZM123.909 37.1736C123.296 37.1736 122.762 37.3839 122.307 37.8043C121.864 38.2133 121.574 38.7701 121.438 39.4745L121.353 39.9176C122.159 39.8836 122.819 39.8268 123.33 39.7472C123.841 39.6677 124.239 39.5597 124.523 39.4234C124.818 39.287 125.017 39.1223 125.119 38.9291C125.222 38.736 125.273 38.5144 125.273 38.2644C125.273 38.0485 125.233 37.8724 125.153 37.7361C125.074 37.5884 124.966 37.4747 124.83 37.3952C124.705 37.3043 124.563 37.2475 124.404 37.2248C124.244 37.1907 124.08 37.1736 123.909 37.1736ZM134.744 44.8262C134.346 44.8262 134.028 44.7239 133.79 44.5194C133.562 44.3149 133.449 44.0308 133.449 43.6672C133.449 43.4741 133.466 43.3093 133.5 43.173L133.568 42.8491H133.5C133.136 43.5763 132.733 44.1217 132.29 44.4853C131.858 44.8489 131.301 45.0307 130.62 45.0307C129.802 45.0307 129.171 44.7353 128.728 44.1444C128.285 43.5536 128.063 42.7639 128.063 41.7754C128.063 41.0028 128.16 40.2528 128.353 39.5256C128.546 38.7985 128.824 38.1565 129.188 37.5997C129.563 37.043 130.012 36.5999 130.534 36.2703C131.057 35.9295 131.648 35.759 132.307 35.759C132.886 35.759 133.386 35.9124 133.807 36.2192C134.227 36.5146 134.483 36.9237 134.574 37.4463H134.659L134.949 35.9636H136.721L135.238 43.3434H136.38L136.091 44.8262H134.744ZM131.301 43.5138C131.665 43.5138 131.983 43.4343 132.256 43.2752C132.54 43.1161 132.796 42.9116 133.023 42.6616C133.511 42.139 133.835 41.48 133.994 40.6846L134.352 38.895C134.386 38.7019 134.375 38.5087 134.318 38.3156C134.261 38.1224 134.159 37.952 134.011 37.8043C133.864 37.6452 133.67 37.5202 133.432 37.4293C133.205 37.327 132.943 37.2759 132.648 37.2759C131.989 37.2759 131.46 37.4804 131.063 37.8895C130.665 38.2872 130.387 38.878 130.228 39.662L129.972 40.9062C129.949 41.0425 129.927 41.1959 129.904 41.3663C129.892 41.5368 129.887 41.6902 129.887 41.8265C129.887 42.3265 130 42.7355 130.228 43.0536C130.466 43.3604 130.824 43.5138 131.301 43.5138ZM137.794 44.8262L139.566 35.9636H141.339L140.964 37.8554H141.066C141.168 37.6281 141.293 37.4009 141.441 37.1736C141.6 36.9464 141.788 36.7476 142.004 36.5771C142.219 36.3953 142.464 36.2476 142.736 36.134C143.021 36.0204 143.339 35.9636 143.691 35.9636H144.185L143.827 37.719H143.231C142.447 37.719 141.839 37.9065 141.407 38.2815C140.975 38.6564 140.697 39.1677 140.572 39.8154L139.566 44.8262H137.794ZM147.714 45.0307C146.726 45.0307 145.925 44.7182 145.311 44.0933C144.698 43.457 144.391 42.531 144.391 41.3152C144.391 40.5426 144.499 39.8211 144.715 39.1507C144.931 38.469 145.237 37.8781 145.635 37.3782C146.033 36.8782 146.504 36.4862 147.05 36.2022C147.606 35.9067 148.22 35.759 148.89 35.759C149.708 35.759 150.379 35.9579 150.902 36.3556C151.436 36.7532 151.776 37.2759 151.924 37.9236L150.441 38.5201C150.316 38.1224 150.129 37.8156 149.879 37.5997C149.64 37.3725 149.282 37.2589 148.805 37.2589C148.192 37.2589 147.692 37.452 147.305 37.8383C146.919 38.2247 146.658 38.7757 146.521 39.4916L146.232 40.9573C146.175 41.2414 146.146 41.4913 146.146 41.7072C146.146 42.2526 146.288 42.6957 146.572 43.0366C146.857 43.3661 147.294 43.5309 147.885 43.5309C148.317 43.5309 148.686 43.4059 148.993 43.1559C149.311 42.9059 149.623 42.5026 149.93 41.9458L151.294 42.5935C150.919 43.3888 150.43 43.9967 149.828 44.4171C149.226 44.8262 148.521 45.0307 147.714 45.0307ZM155.03 32.214H156.802L155.677 37.8554H155.762C156.092 37.1736 156.478 36.6567 156.921 36.3044C157.365 35.9408 157.916 35.759 158.575 35.759C159.313 35.759 159.864 35.9692 160.228 36.3896C160.603 36.8101 160.79 37.3952 160.79 38.1451C160.79 38.3383 160.779 38.5314 160.756 38.7246C160.734 38.9064 160.699 39.1109 160.654 39.3382L159.853 43.3434H160.927L160.637 44.8262H159.29C158.916 44.8262 158.614 44.7296 158.387 44.5364C158.171 44.3433 158.063 44.0649 158.063 43.7013C158.063 43.6331 158.063 43.565 158.063 43.4968C158.075 43.4172 158.086 43.3491 158.097 43.2923L158.864 39.4575C158.933 39.1166 158.967 38.8041 158.967 38.5201C158.967 38.1224 158.876 37.8213 158.694 37.6168C158.512 37.4009 158.217 37.293 157.808 37.293C157.217 37.293 156.7 37.5429 156.257 38.0429C156.007 38.3156 155.791 38.6337 155.609 38.9973C155.427 39.3495 155.302 39.7018 155.234 40.054L154.28 44.8262H152.507L155.03 32.214ZM168.828 32.214H170.6L169.458 37.9406H169.526C169.89 37.2134 170.288 36.668 170.719 36.3044C171.162 35.9408 171.725 35.759 172.407 35.759C173.225 35.759 173.855 36.0545 174.298 36.6453C174.742 37.2361 174.963 38.0258 174.963 39.0143C174.963 39.787 174.867 40.5369 174.673 41.2641C174.48 41.9913 174.196 42.6332 173.821 43.19C173.458 43.7468 173.015 44.1956 172.492 44.5364C171.969 44.8659 171.378 45.0307 170.719 45.0307C170.14 45.0307 169.64 44.883 169.22 44.5876C168.799 44.2921 168.543 43.8774 168.453 43.3434H168.367L168.078 44.8262H166.305L168.828 32.214ZM170.396 43.5138C171.043 43.5138 171.566 43.315 171.964 42.9173C172.361 42.5083 172.64 41.9117 172.799 41.1277L173.054 39.8836C173.077 39.7472 173.094 39.5995 173.105 39.4404C173.128 39.27 173.14 39.1109 173.14 38.9632C173.14 38.4633 173.02 38.0599 172.782 37.7531C172.543 37.435 172.179 37.2759 171.691 37.2759C171.339 37.2759 171.026 37.3611 170.753 37.5316C170.481 37.6906 170.231 37.8895 170.004 38.1281C169.765 38.3894 169.56 38.6848 169.39 39.0143C169.231 39.3325 169.112 39.6904 169.032 40.0881L168.708 41.7072C168.606 42.2185 168.697 42.6503 168.981 43.0025C169.265 43.3434 169.737 43.5138 170.396 43.5138ZM182.692 35.9636H184.584L178.823 46.5817C178.664 46.8771 178.505 47.127 178.346 47.3316C178.198 47.5361 178.028 47.7065 177.835 47.8429C177.653 47.9792 177.443 48.0758 177.204 48.1326C176.965 48.2008 176.693 48.2349 176.386 48.2349H175.039L175.329 46.7691H176.948L177.783 45.2011L176.437 35.9636H178.175L178.704 39.9006L179.028 43.1559H179.113L180.664 39.9006L182.692 35.9636Z" fill="#BBBBBB"/>
<line x1="110.383" y1="22.1738" x2="110.383" y2="52.6086" stroke="black" stroke-width="0.852174"/>
<path d="M43.4261 36.7826C43.4261 22.2263 55.2263 10.4261 69.7826 10.4261H96.1391V63.1391H69.7826C55.2263 63.1391 43.4261 51.3389 43.4261 36.7826Z" fill="#8CA6AD" stroke="black" stroke-width="0.852174"/>
<path d="M77.4434 34.7051L72.2172 39.9313L66.9909 34.7051L65.2695 36.4265L72.2172 43.3741L79.1648 36.4265L77.4434 34.7051Z" fill="#FDF3E8"/>
<path d="M296.258 77.6094C295.124 76.479 293.285 76.479 292.152 77.6094C291.018 78.7398 291.018 80.5727 292.152 81.7031L301.015 90.5396C302.149 91.6701 303.987 91.6701 305.121 90.5396C306.255 89.4092 306.255 87.5764 305.121 86.4459L296.258 77.6094Z" fill="#8CA6AD"/>
<path d="M305.121 90.5302C304.851 90.8 304.532 91.0141 304.179 91.1602C303.827 91.3063 303.449 91.3815 303.067 91.3815C302.686 91.3815 302.308 91.3063 301.956 91.1602C301.603 91.0141 301.283 90.8 301.014 90.5302L292.155 81.7056C291.881 81.4349 291.664 81.1128 291.515 80.758C291.367 80.4031 291.291 80.0224 291.291 79.6379C291.291 79.2535 291.367 78.8728 291.515 78.5179C291.664 78.163 291.881 77.841 292.155 77.5703" stroke="black" stroke-width="0.852174" stroke-miterlimit="10"/>
<path d="M276.768 79.6383C289.911 76.1272 297.711 62.6582 294.189 49.5544C290.668 36.4507 277.158 28.6744 264.015 32.1855C250.872 35.6966 243.072 49.1656 246.594 62.2694C250.116 75.3731 263.625 83.1494 276.768 79.6383Z" fill="#F7C5A8"/>
<path d="M252.968 38.5394C257.604 34.0097 263.845 31.4872 270.336 31.5198C276.827 31.5525 283.043 34.1378 287.633 38.714C292.223 43.2901 294.816 49.4873 294.849 55.9589C294.882 62.4304 292.352 68.6534 287.808 73.2755" stroke="black" stroke-width="0.852174" stroke-miterlimit="10"/>
<path d="M282.607 43.7305C285.846 46.961 287.665 51.3414 287.665 55.9088C287.665 60.4761 285.846 64.8566 282.607 68.0871" stroke="black" stroke-width="0.852174" stroke-miterlimit="10"/>
<path d="M274.37 39.1465C276.069 39.5449 277.697 40.2004 279.198 41.0901" stroke="black" stroke-width="0.852174" stroke-miterlimit="10"/>
<path d="M292.155 77.6067L287.808 73.2812" stroke="black" stroke-width="0.852174" stroke-miterlimit="10"/>
<rect x="51.9481" y="73.7308" width="147.67" height="75.8435" rx="6.87826" fill="#FDF3E8" stroke="black" stroke-width="0.852174"/>
<path d="M51.9481 80.609C51.9481 76.8103 55.0276 73.7308 58.8263 73.7308H192.739C196.538 73.7308 199.618 76.8103 199.618 80.609V111.835H51.9481V80.609Z" fill="#8CA6AD" stroke="black" stroke-width="0.852174"/>
<path d="M101.593 94.0532L99.9566 95.928V99.6094H98.0307V87.713H99.9566V93.7464H100.025L101.729 91.5819L104.933 87.713H107.183L102.939 92.7238L107.524 99.6094H105.206L101.593 94.0532ZM112.19 99.8139C111.554 99.8139 110.985 99.706 110.485 99.4901C109.986 99.2742 109.559 98.9674 109.207 98.5697C108.855 98.1607 108.582 97.6721 108.389 97.104C108.207 96.5245 108.116 95.8825 108.116 95.1781C108.116 94.4736 108.207 93.8373 108.389 93.2692C108.582 92.6897 108.855 92.2011 109.207 91.8035C109.559 91.3944 109.986 91.082 110.485 90.8661C110.985 90.6502 111.554 90.5422 112.19 90.5422C112.837 90.5422 113.406 90.6559 113.894 90.8831C114.394 91.1104 114.809 91.4285 115.138 91.8375C115.468 92.2352 115.712 92.7011 115.871 93.2351C116.042 93.7691 116.127 94.3429 116.127 94.9565V95.6553H110.042V95.945C110.042 96.6268 110.241 97.1892 110.639 97.6323C111.048 98.0641 111.627 98.28 112.377 98.28C112.923 98.28 113.383 98.1607 113.758 97.9221C114.133 97.6835 114.451 97.3596 114.712 96.9506L115.803 98.0243C115.474 98.5697 114.996 99.0072 114.371 99.3367C113.746 99.6548 113.019 99.8139 112.19 99.8139ZM112.19 91.9909C111.872 91.9909 111.576 92.0477 111.304 92.1614C111.042 92.275 110.815 92.4341 110.622 92.6386C110.44 92.8431 110.298 93.0874 110.196 93.3715C110.093 93.6555 110.042 93.968 110.042 94.3089V94.4282H114.167V94.2577C114.167 93.576 113.991 93.0306 113.639 92.6215C113.286 92.2011 112.803 91.9909 112.19 91.9909ZM123.52 90.7468H125.31L121.577 101.365C121.475 101.66 121.356 101.91 121.22 102.115C121.095 102.331 120.941 102.501 120.759 102.626C120.589 102.762 120.379 102.859 120.129 102.916C119.879 102.984 119.583 103.018 119.242 103.018H118.169V101.501H119.669L120.18 100.001L116.959 90.7468H118.816L120.589 95.9621L121.1 97.888H121.185L121.748 95.9621L123.52 90.7468ZM125.952 90.7468H127.759L128.662 94.4622L129.463 97.8198H129.514L130.434 94.4622L131.508 90.7468H133.178L134.269 94.4622L135.207 97.8198H135.258L136.042 94.4622L136.962 90.7468H138.684L136.297 99.6094H134.201L133.042 95.5701L132.326 93.0817H132.292L131.593 95.5701L130.417 99.6094H128.372L125.952 90.7468ZM143.813 99.8139C143.2 99.8139 142.637 99.706 142.126 99.4901C141.626 99.2742 141.2 98.9674 140.848 98.5697C140.496 98.1607 140.223 97.6721 140.03 97.104C139.837 96.5245 139.74 95.8825 139.74 95.1781C139.74 94.4736 139.837 93.8373 140.03 93.2692C140.223 92.6897 140.496 92.2011 140.848 91.8035C141.2 91.3944 141.626 91.082 142.126 90.8661C142.637 90.6502 143.2 90.5422 143.813 90.5422C144.427 90.5422 144.984 90.6502 145.484 90.8661C145.995 91.082 146.427 91.3944 146.779 91.8035C147.131 92.2011 147.404 92.6897 147.597 93.2692C147.79 93.8373 147.887 94.4736 147.887 95.1781C147.887 95.8825 147.79 96.5245 147.597 97.104C147.404 97.6721 147.131 98.1607 146.779 98.5697C146.427 98.9674 145.995 99.2742 145.484 99.4901C144.984 99.706 144.427 99.8139 143.813 99.8139ZM143.813 98.28C144.45 98.28 144.961 98.0868 145.347 97.7005C145.734 97.3028 145.927 96.712 145.927 95.928V94.4282C145.927 93.6442 145.734 93.059 145.347 92.6727C144.961 92.275 144.45 92.0762 143.813 92.0762C143.177 92.0762 142.666 92.275 142.28 92.6727C141.893 93.059 141.7 93.6442 141.7 94.4282V95.928C141.7 96.712 141.893 97.3028 142.28 97.7005C142.666 98.0868 143.177 98.28 143.813 98.28ZM149.957 99.6094V90.7468H151.815V92.4511H151.9C152.025 91.9966 152.286 91.5989 152.684 91.2581C153.081 90.9172 153.633 90.7468 154.337 90.7468H154.831V92.5363H154.098C153.36 92.5363 152.792 92.6556 152.394 92.8942C152.008 93.1329 151.815 93.4851 151.815 93.9509V99.6094H149.957ZM161.971 98.1436H161.886C161.693 98.6663 161.375 99.0753 160.932 99.3708C160.5 99.6662 159.989 99.8139 159.398 99.8139C158.273 99.8139 157.404 99.4105 156.79 98.6038C156.177 97.7857 155.87 96.6438 155.87 95.1781C155.87 93.7123 156.177 92.5761 156.79 91.7694C157.404 90.9513 158.273 90.5422 159.398 90.5422C159.989 90.5422 160.5 90.69 160.932 90.9854C161.375 91.2694 161.693 91.6785 161.886 92.2125H161.971V86.9972H163.829V99.6094H161.971V98.1436ZM159.96 98.2118C160.528 98.2118 161.006 98.0755 161.392 97.8028C161.778 97.5187 161.971 97.1494 161.971 96.6949V93.6612C161.971 93.2067 161.778 92.8431 161.392 92.5704C161.006 92.2864 160.528 92.1443 159.96 92.1443C159.313 92.1443 158.796 92.3545 158.409 92.7749C158.023 93.184 157.83 93.7294 157.83 94.4111V95.945C157.83 96.6268 158.023 97.1778 158.409 97.5982C158.796 98.0073 159.313 98.2118 159.96 98.2118Z" fill="#FDF3E8"/>
<path d="M98.0307 137.348V125.451H105.649V127.156H99.9566V130.462H105.121V132.166H99.9566V135.643H105.649V137.348H98.0307ZM107.997 137.348V128.485H109.855V129.951H109.94C110.031 129.724 110.139 129.508 110.264 129.303C110.4 129.099 110.559 128.922 110.741 128.775C110.934 128.616 111.156 128.496 111.406 128.417C111.667 128.326 111.968 128.281 112.309 128.281C112.911 128.281 113.445 128.428 113.911 128.724C114.377 129.019 114.718 129.474 114.934 130.087H114.985C115.144 129.587 115.451 129.161 115.905 128.809C116.36 128.457 116.945 128.281 117.661 128.281C118.547 128.281 119.235 128.582 119.723 129.184C120.212 129.775 120.456 130.621 120.456 131.723V137.348H118.598V131.945C118.598 131.263 118.468 130.752 118.206 130.411C117.945 130.059 117.53 129.883 116.962 129.883C116.724 129.883 116.496 129.917 116.28 129.985C116.065 130.042 115.871 130.133 115.701 130.258C115.542 130.383 115.411 130.542 115.309 130.735C115.207 130.928 115.156 131.15 115.156 131.399V137.348H113.298V131.945C113.298 130.57 112.758 129.883 111.679 129.883C111.451 129.883 111.224 129.917 110.997 129.985C110.781 130.042 110.588 130.133 110.417 130.258C110.247 130.383 110.111 130.542 110.008 130.735C109.906 130.928 109.855 131.15 109.855 131.399V137.348H107.997ZM129.52 137.348C129.032 137.348 128.657 137.211 128.396 136.939C128.134 136.655 127.975 136.297 127.918 135.865H127.833C127.663 136.422 127.35 136.842 126.896 137.126C126.441 137.41 125.89 137.552 125.242 137.552C124.322 137.552 123.612 137.314 123.112 136.836C122.623 136.359 122.379 135.717 122.379 134.91C122.379 134.024 122.697 133.359 123.334 132.916C123.981 132.473 124.924 132.252 126.163 132.252H127.765V131.502C127.765 130.956 127.617 130.536 127.322 130.241C127.026 129.945 126.566 129.797 125.941 129.797C125.419 129.797 124.992 129.911 124.663 130.138C124.333 130.366 124.055 130.655 123.828 131.007L122.72 130.002C123.015 129.502 123.43 129.093 123.964 128.775C124.498 128.445 125.197 128.281 126.061 128.281C127.208 128.281 128.089 128.548 128.702 129.082C129.316 129.616 129.623 130.383 129.623 131.382V135.831H130.56V137.348H129.52ZM125.771 136.138C126.35 136.138 126.828 136.013 127.202 135.763C127.577 135.501 127.765 135.155 127.765 134.723V133.445H126.197C124.913 133.445 124.271 133.842 124.271 134.638V134.945C124.271 135.342 124.402 135.643 124.663 135.848C124.936 136.041 125.305 136.138 125.771 136.138ZM133.318 126.9C132.932 126.9 132.648 126.809 132.466 126.627C132.296 126.446 132.21 126.213 132.21 125.929V125.639C132.21 125.355 132.296 125.122 132.466 124.94C132.648 124.758 132.932 124.667 133.318 124.667C133.704 124.667 133.983 124.758 134.153 124.94C134.324 125.122 134.409 125.355 134.409 125.639V125.929C134.409 126.213 134.324 126.446 134.153 126.627C133.983 126.809 133.704 126.9 133.318 126.9ZM132.381 128.485H134.238V137.348H132.381V128.485ZM138.783 137.348C138.147 137.348 137.67 137.189 137.351 136.87C137.045 136.541 136.891 136.086 136.891 135.507V124.735H138.749V135.831H139.976V137.348H138.783Z" fill="#384A51"/>
<path d="M70.5943 97.6515C72.0925 97.6515 73.4698 97.1362 74.5687 96.2816L78.1365 99.8493L79.2841 98.7017L75.7163 95.134C76.5717 94.0342 77.0871 92.657 77.0871 91.1588C77.0871 87.5788 74.1743 84.666 70.5943 84.666C67.0144 84.666 64.1016 87.5788 64.1016 91.1588C64.1016 94.7387 67.0144 97.6515 70.5943 97.6515ZM70.5943 86.2892C73.2799 86.2892 75.4639 88.4732 75.4639 91.1588C75.4639 93.8443 73.2799 96.0283 70.5943 96.0283C67.9088 96.0283 65.7248 93.8443 65.7248 91.1588C65.7248 88.4732 67.9088 86.2892 70.5943 86.2892Z" fill="#FDF3E8"/>
<path d="M78.7103 124.027H65.7248C64.8296 124.027 64.1016 124.755 64.1016 125.651V135.39C64.1016 136.285 64.8296 137.013 65.7248 137.013H78.7103C79.6054 137.013 80.3335 136.285 80.3335 135.39V125.651C80.3335 124.755 79.6054 124.027 78.7103 124.027ZM78.7103 125.651V126.065L72.2175 131.116L65.7248 126.066V125.651H78.7103ZM65.7248 135.39V128.121L71.7192 132.784C71.8653 132.898 72.0414 132.955 72.2175 132.955C72.3936 132.955 72.5697 132.898 72.7158 132.784L78.7103 128.121L78.7119 135.39H65.7248Z" fill="#384A51"/>
</svg>
