<svg width="13" height="13" viewBox="0 0 13 13" fill="none" xmlns="http://www.w3.org/2000/svg">
<path d="M2.28714 10.7131C2.81527 11.2412 3.5086 11.505 4.20193 11.505C4.89581 11.5044 5.58968 11.2412 6.11727 10.7131L7.6491 9.18069L6.88318 8.41477L5.35135 9.94715C4.71814 10.5793 3.68735 10.5804 3.05306 9.94715C2.41985 9.3134 2.41985 8.28261 3.05306 7.64886L4.58543 6.11702L3.81952 5.35111L2.28714 6.88294C1.23143 7.93865 1.23143 9.65736 2.28714 10.7131ZM10.7133 6.11702C11.7685 5.06131 11.7685 3.34261 10.7133 2.2869C9.65706 1.23065 7.93835 1.23173 6.88318 2.2869L5.35135 3.81927L6.11727 4.58519L7.6491 3.05282C8.28285 2.42069 9.31364 2.41961 9.94739 3.05282C10.5806 3.68656 10.5806 4.71736 9.94739 5.35111L8.41502 6.88294L9.18093 7.64886L10.7133 6.11702Z" fill="#384A51"/>
<path d="M4.58447 9.18164L3.81845 8.41559L8.41511 3.8191L9.18113 4.58514L4.58447 9.18164Z" fill="#384A51"/>
</svg>
