<svg width="213" height="288" viewBox="0 0 213 288" fill="none" xmlns="http://www.w3.org/2000/svg">
<g opacity="0.2">
<path opacity="0.8" fill-rule="evenodd" clip-rule="evenodd" d="M96.1618 196.379H209.031C211.086 196.379 212.702 197.748 212.702 199.494V235.271C212.702 236.99 211.058 238.38 209.031 238.38H96.1618C94.1077 238.38 92.4917 237.01 92.4917 235.271V199.494C92.4917 197.776 94.135 196.379 96.1618 196.379Z" fill="#456682"/>
<path opacity="0.8" d="M212.702 235.271C212.702 236.99 211.058 238.38 209.031 238.38H96.1618C94.1077 238.38 92.4917 237.01 92.4917 235.271V199.494" stroke="black" stroke-width="0.5" stroke-miterlimit="10"/>
<path opacity="0.8" d="M163.162 207.547H130.823C129.462 207.547 128.358 208.65 128.358 210.012C128.358 211.373 129.462 212.477 130.823 212.477H163.162C164.524 212.477 165.627 211.373 165.627 210.012C165.627 208.65 164.524 207.547 163.162 207.547Z" fill="#2F4B62"/>
<path opacity="0.8" d="M195.687 216.297H130.371C129.259 216.297 128.358 217.198 128.358 218.31V218.317C128.358 219.429 129.259 220.33 130.371 220.33H195.687C196.798 220.33 197.7 219.429 197.7 218.317V218.31C197.7 217.198 196.798 216.297 195.687 216.297Z" fill="#2F4B62"/>
<path opacity="0.8" d="M195.687 222.855H130.371C129.259 222.855 128.358 223.757 128.358 224.869V224.875C128.358 225.987 129.259 226.888 130.371 226.888H195.687C196.798 226.888 197.7 225.987 197.7 224.875V224.869C197.7 223.757 196.798 222.855 195.687 222.855Z" fill="#2F4B62"/>
<path opacity="0.8" d="M108.603 219.22C109.314 219.93 110.277 220.329 111.281 220.329C112.285 220.329 113.248 219.93 113.958 219.22L116.101 217.076L115.026 216.001L112.883 218.145C112.672 218.356 112.421 218.524 112.145 218.638C111.869 218.752 111.573 218.811 111.274 218.811C110.975 218.811 110.679 218.752 110.403 218.638C110.127 218.524 109.876 218.356 109.665 218.145C109.454 217.933 109.286 217.682 109.172 217.406C109.057 217.13 108.998 216.834 108.998 216.536C108.998 216.237 109.057 215.941 109.172 215.665C109.286 215.389 109.454 215.138 109.665 214.926L111.808 212.783L110.74 211.715L108.597 213.858C108.244 214.21 107.965 214.629 107.775 215.089C107.585 215.549 107.487 216.042 107.488 216.54C107.488 217.038 107.587 217.531 107.779 217.991C107.97 218.451 108.25 218.868 108.603 219.22ZM120.394 212.79C121.104 212.079 121.503 211.115 121.502 210.11C121.502 209.106 121.102 208.142 120.391 207.432C119.68 206.722 118.716 206.324 117.711 206.324C116.706 206.325 115.743 206.725 115.033 207.436L112.89 209.579L113.958 210.647L116.101 208.504C116.528 208.077 117.107 207.837 117.71 207.837C118.314 207.837 118.893 208.077 119.319 208.504C119.746 208.931 119.986 209.509 119.986 210.113C119.986 210.716 119.746 211.295 119.319 211.722L117.176 213.865L118.244 214.933L120.394 212.79Z" fill="#F7C5A8"/>
<path opacity="0.8" d="M111.815 217.079L110.747 216.004L117.176 209.574L118.251 210.642L111.815 217.079Z" fill="#FDF3E8"/>
<path opacity="0.8" d="M110.747 211.723L108.603 213.866C107.893 214.576 107.495 215.539 107.495 216.543C107.495 217.547 107.893 218.51 108.603 219.22" stroke="black" stroke-width="0.5" stroke-miterlimit="10"/>
<path opacity="0.8" d="M118.245 214.935L120.395 212.792C121.101 212.08 121.498 211.118 121.498 210.115C121.498 209.112 121.101 208.149 120.395 207.438" stroke="black" stroke-width="0.5" stroke-miterlimit="10"/>
<path opacity="0.8" d="M111.815 217.079L110.747 216.004L117.176 209.574" stroke="black" stroke-width="0.5" stroke-miterlimit="10"/>
</g>
<g opacity="0.1">
<path opacity="0.8" fill-rule="evenodd" clip-rule="evenodd" d="M96.1618 245H209.031C211.086 245 212.702 246.369 212.702 248.115V283.892C212.702 285.611 211.058 287.001 209.031 287.001H96.1618C94.1077 287.001 92.4917 285.631 92.4917 283.892V248.115C92.4917 246.397 94.135 245 96.1618 245Z" fill="#456682"/>
<path opacity="0.8" d="M212.702 283.892C212.702 285.611 211.058 287.001 209.031 287.001H96.1618C94.1077 287.001 92.4917 285.631 92.4917 283.892V248.115" stroke="black" stroke-width="0.5" stroke-miterlimit="10"/>
<path opacity="0.8" d="M163.162 256.168H130.823C129.462 256.168 128.358 257.272 128.358 258.633C128.358 259.994 129.462 261.098 130.823 261.098H163.162C164.524 261.098 165.627 259.994 165.627 258.633C165.627 257.272 164.524 256.168 163.162 256.168Z" fill="#2F4B62"/>
<path opacity="0.8" d="M195.687 264.918H130.371C129.259 264.918 128.358 265.819 128.358 266.931V266.938C128.358 268.05 129.259 268.951 130.371 268.951H195.687C196.798 268.951 197.7 268.05 197.7 266.938V266.931C197.7 265.819 196.798 264.918 195.687 264.918Z" fill="#2F4B62"/>
<path opacity="0.8" d="M195.687 271.477H130.371C129.259 271.477 128.358 272.378 128.358 273.49V273.496C128.358 274.608 129.259 275.51 130.371 275.51H195.687C196.798 275.51 197.7 274.608 197.7 273.496V273.49C197.7 272.378 196.798 271.477 195.687 271.477Z" fill="#2F4B62"/>
<path opacity="0.8" d="M108.603 267.841C109.314 268.551 110.277 268.95 111.281 268.95C112.285 268.95 113.248 268.551 113.958 267.841L116.101 265.698L115.026 264.623L112.883 266.766C112.672 266.977 112.421 267.145 112.145 267.259C111.869 267.373 111.573 267.432 111.274 267.432C110.975 267.432 110.679 267.373 110.403 267.259C110.127 267.145 109.876 266.977 109.665 266.766C109.454 266.554 109.286 266.304 109.172 266.028C109.057 265.751 108.998 265.455 108.998 265.157C108.998 264.858 109.057 264.562 109.172 264.286C109.286 264.01 109.454 263.759 109.665 263.548L111.808 261.404L110.74 260.336L108.597 262.479C108.244 262.832 107.965 263.25 107.775 263.71C107.585 264.17 107.487 264.663 107.488 265.162C107.488 265.66 107.587 266.153 107.779 266.612C107.97 267.072 108.25 267.489 108.603 267.841ZM120.394 261.411C121.104 260.7 121.503 259.736 121.502 258.732C121.502 257.727 121.102 256.763 120.391 256.053C119.68 255.343 118.716 254.945 117.711 254.945C116.706 254.946 115.743 255.346 115.033 256.057L112.89 258.2L113.958 259.268L116.101 257.125C116.528 256.698 117.107 256.458 117.71 256.458C118.314 256.458 118.893 256.698 119.319 257.125C119.746 257.552 119.986 258.13 119.986 258.734C119.986 259.337 119.746 259.916 119.319 260.343L117.176 262.486L118.244 263.554L120.394 261.411Z" fill="#F7C5A8"/>
<path opacity="0.8" d="M111.815 265.7L110.747 264.625L117.176 258.195L118.251 259.263L111.815 265.7Z" fill="#FDF3E8"/>
<path opacity="0.8" d="M110.747 260.344L108.603 262.487C107.893 263.197 107.495 264.16 107.495 265.164C107.495 266.168 107.893 267.131 108.603 267.841" stroke="black" stroke-width="0.5" stroke-miterlimit="10"/>
<path opacity="0.8" d="M118.245 263.556L120.395 261.413C121.101 260.701 121.498 259.739 121.498 258.736C121.498 257.733 121.101 256.77 120.395 256.059" stroke="black" stroke-width="0.5" stroke-miterlimit="10"/>
<path opacity="0.8" d="M111.815 265.7L110.747 264.625L117.176 258.195" stroke="black" stroke-width="0.5" stroke-miterlimit="10"/>
</g>
<g opacity="0.4">
<path opacity="0.8" fill-rule="evenodd" clip-rule="evenodd" d="M96.1618 147H209.031C211.086 147 212.702 148.369 212.702 150.115V185.892C212.702 187.611 211.058 189.001 209.031 189.001H96.1618C94.1077 189.001 92.4917 187.631 92.4917 185.892V150.115C92.4917 148.397 94.135 147 96.1618 147Z" fill="#456682"/>
<path opacity="0.8" d="M212.702 185.892C212.702 187.611 211.058 189.001 209.031 189.001H96.1618C94.1077 189.001 92.4917 187.631 92.4917 185.892V150.115" stroke="black" stroke-width="0.5" stroke-miterlimit="10"/>
<path opacity="0.8" d="M163.162 158.168H130.823C129.462 158.168 128.358 159.272 128.358 160.633C128.358 161.994 129.462 163.098 130.823 163.098H163.162C164.524 163.098 165.627 161.994 165.627 160.633C165.627 159.272 164.524 158.168 163.162 158.168Z" fill="#2F4B62"/>
<path opacity="0.8" d="M195.687 166.918H130.371C129.259 166.918 128.358 167.819 128.358 168.931V168.938C128.358 170.05 129.259 170.951 130.371 170.951H195.687C196.798 170.951 197.7 170.05 197.7 168.938V168.931C197.7 167.819 196.798 166.918 195.687 166.918Z" fill="#2F4B62"/>
<path opacity="0.8" d="M195.687 173.477H130.371C129.259 173.477 128.358 174.378 128.358 175.49V175.496C128.358 176.608 129.259 177.51 130.371 177.51H195.687C196.798 177.51 197.7 176.608 197.7 175.496V175.49C197.7 174.378 196.798 173.477 195.687 173.477Z" fill="#2F4B62"/>
<path opacity="0.8" d="M108.603 169.841C109.314 170.551 110.277 170.95 111.281 170.95C112.285 170.95 113.248 170.551 113.958 169.841L116.101 167.698L115.026 166.623L112.883 168.766C112.672 168.977 112.421 169.145 112.145 169.259C111.869 169.373 111.573 169.432 111.274 169.432C110.975 169.432 110.679 169.373 110.403 169.259C110.127 169.145 109.876 168.977 109.665 168.766C109.454 168.554 109.286 168.304 109.172 168.028C109.057 167.751 108.998 167.455 108.998 167.157C108.998 166.858 109.057 166.562 109.172 166.286C109.286 166.01 109.454 165.759 109.665 165.548L111.808 163.404L110.74 162.336L108.597 164.479C108.244 164.832 107.965 165.25 107.775 165.71C107.585 166.17 107.487 166.663 107.488 167.162C107.488 167.66 107.587 168.153 107.779 168.612C107.97 169.072 108.25 169.489 108.603 169.841ZM120.394 163.411C121.104 162.7 121.503 161.736 121.502 160.732C121.502 159.727 121.102 158.763 120.391 158.053C119.68 157.343 118.716 156.945 117.711 156.945C116.706 156.946 115.743 157.346 115.033 158.057L112.89 160.2L113.958 161.268L116.101 159.125C116.528 158.698 117.107 158.458 117.71 158.458C118.314 158.458 118.893 158.698 119.319 159.125C119.746 159.552 119.986 160.13 119.986 160.734C119.986 161.337 119.746 161.916 119.319 162.343L117.176 164.486L118.244 165.554L120.394 163.411Z" fill="#F7C5A8"/>
<path opacity="0.8" d="M111.815 167.7L110.747 166.625L117.176 160.195L118.251 161.263L111.815 167.7Z" fill="#FDF3E8"/>
<path opacity="0.8" d="M110.747 162.344L108.603 164.487C107.893 165.197 107.495 166.16 107.495 167.164C107.495 168.168 107.893 169.131 108.603 169.841" stroke="black" stroke-width="0.5" stroke-miterlimit="10"/>
<path opacity="0.8" d="M118.245 165.556L120.395 163.413C121.101 162.701 121.498 161.739 121.498 160.736C121.498 159.733 121.101 158.77 120.395 158.059" stroke="black" stroke-width="0.5" stroke-miterlimit="10"/>
<path opacity="0.8" d="M111.815 167.7L110.747 166.625L117.176 160.195" stroke="black" stroke-width="0.5" stroke-miterlimit="10"/>
</g>
<path fill-rule="evenodd" clip-rule="evenodd" d="M96.1618 98H209.031C211.086 98 212.702 99.3695 212.702 101.115V136.892C212.702 138.611 211.058 140.001 209.031 140.001H96.1618C94.1077 140.001 92.4917 138.631 92.4917 136.892V101.115C92.4917 99.3968 94.135 98 96.1618 98Z" fill="#456682"/>
<path opacity="0.8" d="M212.702 136.892C212.702 138.611 211.058 140.001 209.031 140.001H96.1618C94.1077 140.001 92.4917 138.631 92.4917 136.892V101.115" stroke="black" stroke-width="0.5" stroke-miterlimit="10"/>
<path opacity="0.8" d="M163.162 109.168H130.823C129.462 109.168 128.358 110.272 128.358 111.633C128.358 112.994 129.462 114.098 130.823 114.098H163.162C164.524 114.098 165.627 112.994 165.627 111.633C165.627 110.272 164.524 109.168 163.162 109.168Z" fill="#2F4B62"/>
<path opacity="0.8" d="M195.547 118H132.437C131.363 118 130.492 118.894 130.492 119.997V120.003C130.492 121.106 131.363 122 132.437 122H195.547C196.621 122 197.492 121.106 197.492 120.003V119.997C197.492 118.894 196.621 118 195.547 118Z" fill="#2F4B62"/>
<path opacity="0.8" d="M195.547 124H132.437C131.363 124 130.492 124.894 130.492 125.997V126.003C130.492 127.106 131.363 128 132.437 128H195.547C196.621 128 197.492 127.106 197.492 126.003V125.997C197.492 124.894 196.621 124 195.547 124Z" fill="#2F4B62"/>
<path opacity="0.8" d="M105.244 128.257C106.359 129.372 107.871 129.998 109.448 129.998C111.024 129.998 112.537 129.372 113.652 128.257L117.017 124.892L115.329 123.204L111.964 126.569C111.632 126.901 111.238 127.164 110.804 127.344C110.371 127.523 109.906 127.616 109.437 127.616C108.968 127.616 108.503 127.523 108.069 127.344C107.636 127.164 107.242 126.901 106.91 126.569C106.578 126.237 106.315 125.843 106.136 125.41C105.956 124.976 105.864 124.512 105.864 124.042C105.864 123.573 105.956 123.109 106.136 122.675C106.315 122.241 106.578 121.848 106.91 121.516L110.276 118.15L108.598 116.473L105.233 119.838C104.68 120.391 104.242 121.048 103.943 121.771C103.644 122.494 103.491 123.268 103.492 124.05C103.493 124.832 103.648 125.606 103.949 126.328C104.249 127.05 104.689 127.706 105.244 128.257ZM123.759 118.161C124.874 117.045 125.499 115.531 125.498 113.953C125.497 112.375 124.87 110.863 123.753 109.748C122.637 108.633 121.123 108.007 119.545 108.008C117.968 108.009 116.455 108.637 115.34 109.753L111.974 113.118L113.652 114.796L117.017 111.43C117.687 110.76 118.596 110.384 119.544 110.384C120.492 110.384 121.4 110.76 122.071 111.43C122.741 112.1 123.117 113.009 123.117 113.957C123.117 114.905 122.741 115.814 122.071 116.484L118.705 119.849L120.383 121.526L123.759 118.161Z" fill="#F7C5A8"/>
<path opacity="0.8" d="M110.286 124.896L108.609 123.208L118.705 113.111L120.393 114.789L110.286 124.896Z" fill="#FDF3E8"/>
<path opacity="0.8" d="M108.609 116.484L105.244 119.85C104.129 120.965 103.502 122.477 103.502 124.054C103.502 125.631 104.129 127.143 105.244 128.258" stroke="black" stroke-width="0.5" stroke-miterlimit="10"/>
<path opacity="0.8" d="M120.383 121.529L123.759 118.164C124.869 117.046 125.491 115.535 125.491 113.96C125.491 112.385 124.869 110.874 123.759 109.756" stroke="black" stroke-width="0.5" stroke-miterlimit="10"/>
<path opacity="0.8" d="M110.286 124.896L108.609 123.208L118.705 113.111" stroke="black" stroke-width="0.5" stroke-miterlimit="10"/>
<g opacity="0.4">
<path opacity="0.8" fill-rule="evenodd" clip-rule="evenodd" d="M96.1618 49H209.031C211.086 49 212.702 50.3695 212.702 52.1155V87.8922C212.702 89.6109 211.058 91.0009 209.031 91.0009H96.1618C94.1077 91.0009 92.4917 89.6314 92.4917 87.8922V52.1155C92.4917 50.3968 94.135 49 96.1618 49Z" fill="#456682"/>
<path opacity="0.8" d="M212.702 87.892C212.702 89.6106 211.058 91.0006 209.031 91.0006H96.1618C94.1077 91.0006 92.4917 89.6312 92.4917 87.892V52.1152" stroke="black" stroke-width="0.5" stroke-miterlimit="10"/>
<path opacity="0.8" d="M163.162 60.168H130.823C129.462 60.168 128.358 61.2716 128.358 62.633C128.358 63.9944 129.462 65.098 130.823 65.098H163.162C164.524 65.098 165.627 63.9944 165.627 62.633C165.627 61.2716 164.524 60.168 163.162 60.168Z" fill="#2F4B62"/>
<path opacity="0.8" d="M195.687 68.918H130.371C129.259 68.918 128.358 69.8193 128.358 70.9311V70.9379C128.358 72.0497 129.259 72.951 130.371 72.951H195.687C196.798 72.951 197.7 72.0497 197.7 70.9379V70.9311C197.7 69.8193 196.798 68.918 195.687 68.918Z" fill="#2F4B62"/>
<path opacity="0.8" d="M195.687 75.4766H130.371C129.259 75.4766 128.358 76.3779 128.358 77.4896V77.4965C128.358 78.6083 129.259 79.5096 130.371 79.5096H195.687C196.798 79.5096 197.7 78.6083 197.7 77.4965V77.4896C197.7 76.3779 196.798 75.4766 195.687 75.4766Z" fill="#2F4B62"/>
<path opacity="0.8" d="M108.603 71.8408C109.314 72.5508 110.277 72.9496 111.281 72.9496C112.285 72.9496 113.248 72.5508 113.958 71.8408L116.101 69.6976L115.026 68.6226L112.883 70.7658C112.672 70.9771 112.421 71.1447 112.145 71.2591C111.869 71.3734 111.573 71.4323 111.274 71.4323C110.975 71.4323 110.679 71.3734 110.403 71.2591C110.127 71.1447 109.876 70.9771 109.665 70.7658C109.454 70.5544 109.286 70.3036 109.172 70.0275C109.057 69.7514 108.998 69.4555 108.998 69.1567C108.998 68.8578 109.057 68.5619 109.172 68.2858C109.286 68.0097 109.454 67.7589 109.665 67.5476L111.808 65.4044L110.74 64.3362L108.597 66.4794C108.244 66.8316 107.965 67.2498 107.775 67.71C107.585 68.1702 107.487 68.6635 107.488 69.1615C107.488 69.6595 107.587 70.1525 107.779 70.6123C107.97 71.072 108.25 71.4895 108.603 71.8408ZM120.394 65.4112C121.104 64.7003 121.503 63.7363 121.502 62.7315C121.502 61.7267 121.102 60.7633 120.391 60.0533C119.68 59.3432 118.716 58.9447 117.711 58.9453C116.706 58.946 115.743 59.3457 115.033 60.0567L112.89 62.1999L113.958 63.268L116.101 61.1249C116.528 60.6981 117.107 60.4584 117.71 60.4584C118.314 60.4584 118.893 60.6981 119.319 61.1249C119.746 61.5516 119.986 62.1304 119.986 62.734C119.986 63.3375 119.746 63.9163 119.319 64.3431L117.176 66.4862L118.244 67.5544L120.394 65.4112Z" fill="#F7C5A8"/>
<path opacity="0.8" d="M111.815 69.6999L110.747 68.6249L117.176 62.1953L118.251 63.2635L111.815 69.6999Z" fill="#FDF3E8"/>
<path opacity="0.8" d="M110.747 64.3438L108.603 66.4869C107.893 67.197 107.495 68.1601 107.495 69.1642C107.495 70.1683 107.893 71.1314 108.603 71.8415" stroke="black" stroke-width="0.5" stroke-miterlimit="10"/>
<path opacity="0.8" d="M118.245 67.5563L120.395 65.4131C121.101 64.7013 121.498 63.7389 121.498 62.7359C121.498 61.7328 121.101 60.7705 120.395 60.0586" stroke="black" stroke-width="0.5" stroke-miterlimit="10"/>
<path opacity="0.8" d="M111.815 69.6999L110.747 68.6249L117.176 62.1953" stroke="black" stroke-width="0.5" stroke-miterlimit="10"/>
</g>
<g opacity="0.1">
<path opacity="0.8" fill-rule="evenodd" clip-rule="evenodd" d="M96.1618 0H209.031C211.086 0 212.702 1.36946 212.702 3.1155V38.8922C212.702 40.6109 211.058 42.0009 209.031 42.0009H96.1618C94.1077 42.0009 92.4917 40.6314 92.4917 38.8922V3.1155C92.4917 1.39685 94.135 0 96.1618 0Z" fill="#456682"/>
<path opacity="0.8" d="M212.702 38.892C212.702 40.6106 211.058 42.0006 209.031 42.0006H96.1618C94.1077 42.0006 92.4917 40.6312 92.4917 38.892V3.11523" stroke="black" stroke-width="0.5" stroke-miterlimit="10"/>
<path opacity="0.8" d="M163.162 11.168H130.823C129.462 11.168 128.358 12.2716 128.358 13.633C128.358 14.9944 129.462 16.098 130.823 16.098H163.162C164.524 16.098 165.627 14.9944 165.627 13.633C165.627 12.2716 164.524 11.168 163.162 11.168Z" fill="#2F4B62"/>
<path opacity="0.8" d="M195.687 19.918H130.371C129.259 19.918 128.358 20.8193 128.358 21.9311V21.9379C128.358 23.0497 129.259 23.951 130.371 23.951H195.687C196.798 23.951 197.7 23.0497 197.7 21.9379V21.9311C197.7 20.8193 196.798 19.918 195.687 19.918Z" fill="#2F4B62"/>
<path opacity="0.8" d="M195.687 26.4766H130.371C129.259 26.4766 128.358 27.3779 128.358 28.4896V28.4965C128.358 29.6083 129.259 30.5096 130.371 30.5096H195.687C196.798 30.5096 197.7 29.6083 197.7 28.4965V28.4896C197.7 27.3779 196.798 26.4766 195.687 26.4766Z" fill="#2F4B62"/>
<path opacity="0.8" d="M108.603 22.8408C109.314 23.5508 110.277 23.9496 111.281 23.9496C112.285 23.9496 113.248 23.5508 113.958 22.8408L116.101 20.6976L115.026 19.6226L112.883 21.7658C112.672 21.9771 112.421 22.1447 112.145 22.2591C111.869 22.3734 111.573 22.4323 111.274 22.4323C110.975 22.4323 110.679 22.3734 110.403 22.2591C110.127 22.1447 109.876 21.9771 109.665 21.7658C109.454 21.5544 109.286 21.3036 109.172 21.0275C109.057 20.7514 108.998 20.4555 108.998 20.1567C108.998 19.8578 109.057 19.5619 109.172 19.2858C109.286 19.0097 109.454 18.7589 109.665 18.5476L111.808 16.4044L110.74 15.3362L108.597 17.4794C108.244 17.8316 107.965 18.2498 107.775 18.71C107.585 19.1702 107.487 19.6635 107.488 20.1615C107.488 20.6595 107.587 21.1525 107.779 21.6123C107.97 22.072 108.25 22.4895 108.603 22.8408ZM120.394 16.4112C121.104 15.7003 121.503 14.7363 121.502 13.7315C121.502 12.7267 121.102 11.7633 120.391 11.0533C119.68 10.3432 118.716 9.94467 117.711 9.94531C116.706 9.94596 115.743 10.3457 115.033 11.0567L112.89 13.1999L113.958 14.268L116.101 12.1249C116.528 11.6981 117.107 11.4584 117.71 11.4584C118.314 11.4584 118.893 11.6981 119.319 12.1249C119.746 12.5516 119.986 13.1304 119.986 13.734C119.986 14.3375 119.746 14.9163 119.319 15.3431L117.176 17.4862L118.244 18.5544L120.394 16.4112Z" fill="#F7C5A8"/>
<path opacity="0.8" d="M111.815 20.6999L110.747 19.6249L117.176 13.1953L118.251 14.2635L111.815 20.6999Z" fill="#FDF3E8"/>
<path opacity="0.8" d="M110.747 15.3438L108.603 17.4869C107.893 18.197 107.495 19.1601 107.495 20.1642C107.495 21.1683 107.893 22.1314 108.603 22.8415" stroke="black" stroke-width="0.5" stroke-miterlimit="10"/>
<path opacity="0.8" d="M118.245 18.5563L120.395 16.4131C121.101 15.7013 121.498 14.7389 121.498 13.7359C121.498 12.7328 121.101 11.7705 120.395 11.0586" stroke="black" stroke-width="0.5" stroke-miterlimit="10"/>
<path opacity="0.8" d="M111.815 20.6999L110.747 19.6249L117.176 13.1953" stroke="black" stroke-width="0.5" stroke-miterlimit="10"/>
</g>
<path fill-rule="evenodd" clip-rule="evenodd" d="M83.3631 166.13C108.441 181.736 141.636 175.165 158.782 150.678C176.522 125.343 170.365 90.4243 145.03 72.6847C119.696 54.9452 84.777 61.1023 67.0374 86.437C49.5941 111.349 55.256 145.527 79.5368 163.527L44.973 212.889L48.7635 215.543L83.3631 166.13Z" fill="#8CA6AD"/>
<mask id="path-62-inside-1" fill="white">
<path fill-rule="evenodd" clip-rule="evenodd" d="M103.418 173.493C73.0776 168.251 52.7313 139.406 57.9733 109.065L57.4806 108.98C53.4818 132.125 64.2408 154.407 82.9578 166.187L49.7934 214.859L50.2066 215.141L83.3825 166.452C89.3184 170.114 96.0395 172.726 103.333 173.986C133.945 179.275 163.049 158.746 168.338 128.133L167.845 128.048C162.604 158.389 133.758 178.735 103.418 173.493Z"/>
</mask>
<path d="M57.9733 109.065L58.466 109.151L58.5511 108.658L58.0584 108.573L57.9733 109.065ZM103.418 173.493L103.333 173.986L103.418 173.493ZM57.4806 108.98L57.5657 108.488L57.073 108.402L56.9879 108.895L57.4806 108.98ZM82.9578 166.187L83.371 166.468L83.663 166.04L83.2241 165.764L82.9578 166.187ZM49.7934 214.859L49.3802 214.578L49.0987 214.991L49.5119 215.272L49.7934 214.859ZM50.2066 215.141L49.9251 215.554L50.3383 215.836L50.6198 215.422L50.2066 215.141ZM83.3825 166.452L83.6451 166.026L83.2384 165.775L82.9693 166.17L83.3825 166.452ZM103.333 173.986L103.418 173.493L103.333 173.986ZM168.338 128.133L168.831 128.218L168.916 127.726L168.423 127.641L168.338 128.133ZM167.845 128.048L167.931 127.555L167.438 127.47L167.353 127.963L167.845 128.048ZM57.4806 108.98C52.1916 139.593 72.7204 168.697 103.333 173.986L103.503 173C73.4349 167.805 53.271 139.219 58.466 109.151L57.4806 108.98ZM57.3954 109.473L57.8881 109.558L58.0584 108.573L57.5657 108.488L57.3954 109.473ZM83.2241 165.764C64.6727 154.088 54.0102 132.003 57.9733 109.065L56.9879 108.895C52.9535 132.246 63.809 154.726 82.6915 166.61L83.2241 165.764ZM50.2066 215.141L83.371 166.468L82.5446 165.905L49.3802 214.578L50.2066 215.141ZM50.4881 214.728L50.0749 214.446L49.5119 215.272L49.9251 215.554L50.4881 214.728ZM82.9693 166.17L49.7934 214.859L50.6198 215.422L83.7957 166.733L82.9693 166.17ZM103.418 173.493C96.1885 172.244 89.5275 169.655 83.6451 166.026L83.12 166.877C89.1093 170.572 95.8904 173.207 103.248 174.478L103.418 173.493ZM167.845 128.048C162.604 158.389 133.758 178.735 103.418 173.493L103.248 174.478C134.132 179.814 163.495 159.103 168.831 128.218L167.845 128.048ZM167.76 128.541L168.253 128.626L168.423 127.641L167.931 127.555L167.76 128.541ZM103.333 173.986C133.945 179.275 163.049 158.746 168.338 128.133L167.353 127.963C162.158 158.031 133.571 178.195 103.503 173L103.333 173.986Z" fill="black" mask="url(#path-62-inside-1)"/>
<rect x="66.7368" y="170" width="18.0328" height="51.8443" rx="9.01641" transform="rotate(35 66.7368 170)" fill="#F7C5A8"/>
<path d="M44.386 217.641V217.641C48.4651 220.497 54.0873 219.505 56.9435 215.426L66.6186 201.609C66.633 201.588 66.6446 201.572 66.6591 201.551C67.1061 200.917 75.3662 189.191 77.0109 186.45C78.7015 183.632 78.1479 177.889 74.766 175.636C74.2026 175.26 73.0755 174.507 71.9485 173.943" stroke="black" stroke-width="0.5"/>
<mask id="mask0" mask-type="alpha" maskUnits="userSpaceOnUse" x="62" y="68" width="101" height="101">
<circle cx="112.992" cy="118.5" r="50.0083" fill="#C4C4C4"/>
</mask>
<g mask="url(#mask0)">
<circle cx="112.992" cy="118.5" r="50.0083" fill="white"/>
<g opacity="0.4">
<path opacity="0.8" fill-rule="evenodd" clip-rule="evenodd" d="M79.3486 153.475H217.154C219.661 153.475 221.634 155.147 221.634 157.278V200.959C221.634 203.057 219.628 204.754 217.154 204.754H79.3486C76.8406 204.754 74.8677 203.082 74.8677 200.959V157.278C74.8677 155.18 76.8741 153.475 79.3486 153.475Z" fill="#456682"/>
<path opacity="0.8" d="M221.633 200.96C221.633 203.058 219.627 204.755 217.153 204.755H79.3476C76.8397 204.755 74.8667 203.083 74.8667 200.96V157.279" stroke="black" stroke-width="0.5" stroke-miterlimit="10"/>
<path opacity="0.8" d="M161.15 167.111H121.666C120.004 167.111 118.656 168.459 118.656 170.121C118.656 171.783 120.004 173.13 121.666 173.13H161.15C162.812 173.13 164.159 171.783 164.159 170.121C164.159 168.459 162.812 167.111 161.15 167.111Z" fill="#2F4B62"/>
<path opacity="0.8" d="M94.5379 181.362C95.4049 182.228 96.5807 182.715 97.8067 182.715C99.0327 182.715 100.208 182.228 101.075 181.362L103.692 178.745L102.38 177.432L99.7629 180.049C99.5049 180.307 99.1986 180.512 98.8615 180.651C98.5245 180.791 98.1632 180.863 97.7983 180.863C97.4335 180.863 97.0722 180.791 96.7351 180.651C96.398 180.512 96.0917 180.307 95.8337 180.049C95.5758 179.791 95.3711 179.485 95.2315 179.148C95.0919 178.811 95.02 178.449 95.02 178.084C95.02 177.72 95.0919 177.358 95.2315 177.021C95.3711 176.684 95.5758 176.378 95.8337 176.12L98.4504 173.503L97.1462 172.199L94.5296 174.816C94.0997 175.246 93.7588 175.756 93.5265 176.318C93.2942 176.88 93.175 177.482 93.1758 178.09C93.1766 178.698 93.2973 179.3 93.531 179.862C93.7648 180.423 94.1069 180.933 94.5379 181.362ZM108.934 173.512C109.801 172.644 110.287 171.467 110.286 170.24C110.286 169.013 109.798 167.837 108.93 166.97C108.062 166.103 106.885 165.616 105.658 165.617C104.431 165.618 103.255 166.106 102.388 166.974L99.7713 169.591L101.075 170.895L103.692 168.278C104.213 167.757 104.92 167.464 105.657 167.464C106.394 167.464 107.1 167.757 107.621 168.278C108.142 168.799 108.435 169.506 108.435 170.243C108.435 170.98 108.142 171.686 107.621 172.207L105.005 174.824L106.309 176.128L108.934 173.512Z" fill="#F7C5A8"/>
<path opacity="0.8" d="M106.309 176.131L108.934 173.514C109.797 172.645 110.281 171.47 110.281 170.245C110.281 169.021 109.797 167.846 108.934 166.977" stroke="black" stroke-width="0.5" stroke-miterlimit="10"/>
</g>
<path fill-rule="evenodd" clip-rule="evenodd" d="M79.3486 93.6504H217.154C219.661 93.6504 221.634 95.3224 221.634 97.4542V141.135C221.634 143.233 219.628 144.93 217.154 144.93H79.3486C76.8406 144.93 74.8677 143.258 74.8677 141.135V97.4542C74.8677 95.3558 76.8741 93.6504 79.3486 93.6504Z" fill="#456682"/>
<path opacity="0.8" d="M221.633 141.134C221.633 143.232 219.627 144.929 217.153 144.929H79.3476C76.8397 144.929 74.8667 143.257 74.8667 141.134V97.4531" stroke="black" stroke-width="0.5" stroke-miterlimit="10"/>
<path opacity="0.8" d="M161.15 107.283H121.666C120.004 107.283 118.656 108.631 118.656 110.293C118.656 111.955 120.004 113.302 121.666 113.302H161.15C162.812 113.302 164.159 111.955 164.159 110.293C164.159 108.631 162.812 107.283 161.15 107.283Z" fill="#2F4B62"/>
<path opacity="0.8" d="M200.689 118.068H123.637C122.325 118.068 121.262 119.16 121.262 120.506V120.514C121.262 121.861 122.325 122.952 123.637 122.952H200.689C202 122.952 203.063 121.861 203.063 120.514V120.506C203.063 119.16 202 118.068 200.689 118.068Z" fill="#2F4B62"/>
<path opacity="0.8" d="M200.689 125.393H123.637C122.325 125.393 121.262 126.484 121.262 127.83V127.839C121.262 129.185 122.325 130.276 123.637 130.276H200.689C202 130.276 203.063 129.185 203.063 127.839V127.83C203.063 126.484 202 125.393 200.689 125.393Z" fill="#2F4B62"/>
<path opacity="0.8" d="M90.4359 130.59C91.7972 131.951 93.6435 132.716 95.5687 132.716C97.4938 132.716 99.3401 131.951 100.701 130.59L104.81 126.481L102.749 124.42L98.6405 128.529C98.2354 128.934 97.7544 129.256 97.2251 129.475C96.6958 129.694 96.1285 129.807 95.5555 129.807C94.9826 129.807 94.4153 129.694 93.886 129.475C93.3567 129.256 92.8757 128.934 92.4706 128.529C92.0655 128.124 91.7441 127.643 91.5249 127.114C91.3056 126.584 91.1928 126.017 91.1928 125.444C91.1928 124.871 91.3056 124.304 91.5249 123.775C91.7441 123.245 92.0655 122.764 92.4706 122.359L96.5795 118.25L94.5316 116.203L90.4227 120.311C89.7476 120.987 89.2124 121.788 88.8476 122.671C88.4828 123.553 88.2957 124.499 88.2969 125.454C88.2981 126.408 88.4877 127.353 88.8547 128.235C89.2217 129.116 89.759 129.917 90.4359 130.59ZM113.041 118.264C114.403 116.9 115.167 115.052 115.165 113.126C115.164 111.2 114.398 109.353 113.035 107.991C111.672 106.63 109.824 105.866 107.897 105.867C105.971 105.868 104.124 106.635 102.762 107.998L98.6536 112.107L100.701 114.155L104.81 110.046C105.629 109.228 106.738 108.768 107.895 108.768C109.052 108.768 110.162 109.228 110.98 110.046C111.798 110.864 112.258 111.974 112.258 113.131C112.258 114.288 111.798 115.397 110.98 116.216L106.871 120.325L108.919 122.372L113.041 118.264Z" fill="#F7C5A8"/>
<path opacity="0.8" d="M96.5928 126.483L94.5449 124.422L106.872 112.096L108.933 114.144L96.5928 126.483Z" fill="#FDF3E8"/>
<path opacity="0.8" d="M94.5448 116.217L90.4359 120.326C89.0747 121.687 88.3101 123.533 88.3101 125.458C88.3101 127.384 89.0747 129.23 90.4359 130.591" stroke="black" stroke-width="0.5" stroke-miterlimit="10"/>
<path opacity="0.8" d="M108.919 122.375L113.041 118.266C114.396 116.901 115.156 115.056 115.156 113.133C115.156 111.21 114.396 109.365 113.041 108" stroke="black" stroke-width="0.5" stroke-miterlimit="10"/>
<path opacity="0.8" d="M96.5928 126.483L94.5449 124.422L106.872 112.096" stroke="black" stroke-width="0.5" stroke-miterlimit="10"/>
<g opacity="0.4">
<path opacity="0.8" fill-rule="evenodd" clip-rule="evenodd" d="M79.3491 33.8242H217.154C219.662 33.8242 221.635 35.4962 221.635 37.628V81.3086C221.635 83.4069 219.629 85.104 217.154 85.104H79.3491C76.8411 85.104 74.8682 83.432 74.8682 81.3086V37.628C74.8682 35.5297 76.8746 33.8242 79.3491 33.8242Z" fill="#456682"/>
<path opacity="0.8" d="M221.633 81.3075C221.633 83.4059 219.627 85.1029 217.153 85.1029H79.3476C76.8397 85.1029 74.8667 83.431 74.8667 81.3075V37.627" stroke="black" stroke-width="0.5" stroke-miterlimit="10"/>
<path opacity="0.8" d="M200.859 66.1504H121.114C119.757 66.1504 118.656 67.2508 118.656 68.6082V68.6166C118.656 69.974 119.757 71.0744 121.114 71.0744H200.859C202.217 71.0744 203.317 69.974 203.317 68.6166V68.6082C203.317 67.2508 202.217 66.1504 200.859 66.1504Z" fill="#2F4B62"/>
</g>
</g>
</svg>
