<svg xmlns="http://www.w3.org/2000/svg" width="351" height="247" fill="none" viewBox="0 0 351 247">
    <g clip-path="url(#prefix__clip0)">
        <path stroke="#384A51" stroke-dasharray="5 5" stroke-miterlimit="10" d="M192.513 34.791h-77.7v76.014H50.187v-36.29"/>
        <path fill="#F0F0F0" d="M233.548 247c1.688-.005 3.304-.673 4.497-1.858 1.193-1.186 1.865-2.792 1.871-4.468-.006-1.676-.678-3.282-1.871-4.467-1.193-1.185-2.809-1.853-4.497-1.858h-6.6c-1.687-.003-3.303-.669-4.496-1.852-1.194-1.184-1.866-2.789-1.871-4.464.005-1.676.677-3.282 1.87-4.468 1.193-1.185 2.81-1.853 4.497-1.858h19.237c1.687-.005 3.304-.673 4.497-1.858 1.193-1.186 1.865-2.792 1.87-4.468-.005-1.675-.677-3.28-1.871-4.463-1.193-1.184-2.809-1.85-4.496-1.853H81.653c-1.686.006-3.3.672-4.494 1.855-1.192 1.183-1.866 2.787-1.874 4.461.005 1.676.678 3.282 1.871 4.468 1.193 1.185 2.81 1.853 4.496 1.858h7.916c1.687.005 3.303.673 4.496 1.858 1.193 1.186 1.866 2.792 1.87 4.468-.007 1.674-.68 3.278-1.873 4.461-1.193 1.183-2.808 1.85-4.493 1.855H74.75c-1.687.005-3.304.673-4.497 1.858s-1.865 2.791-1.87 4.467c.005 1.676.677 3.282 1.87 4.468 1.193 1.185 2.81 1.853 4.497 1.858h158.798z"/>
        <path stroke="#8CA6AD" stroke-miterlimit="10" d="M5.627 171.963l28.856-7.168 28.857-32.247 28.856 21.502 28.867-14.335 28.856 7.167 28.857-21.501 28.856 5.388 28.867-16.143 6.191-18.252"/>
        <path fill="#8CA6AD" d="M34.483 166.701c1.06 0 1.918-.853 1.918-1.905 0-1.053-.858-1.906-1.918-1.906-1.059 0-1.918.853-1.918 1.906 0 1.052.86 1.905 1.918 1.905zM5.627 173.868c1.06 0 1.918-.853 1.918-1.905 0-1.053-.859-1.906-1.918-1.906-1.06 0-1.918.853-1.918 1.906 0 1.052.859 1.905 1.918 1.905zM63.34 134.453c1.059 0 1.918-.853 1.918-1.905s-.859-1.905-1.918-1.905c-1.06 0-1.918.853-1.918 1.905s.859 1.905 1.918 1.905zM92.333 155.578c1.06 0 1.918-.853 1.918-1.905 0-1.053-.859-1.906-1.918-1.906-1.06 0-1.918.853-1.918 1.906 0 1.052.859 1.905 1.918 1.905zM121.062 141.621c1.06 0 1.918-.853 1.918-1.906 0-1.052-.858-1.905-1.918-1.905-1.059 0-1.917.853-1.917 1.905 0 1.053.858 1.906 1.917 1.906zM149.919 148.788c1.059 0 1.918-.853 1.918-1.906 0-1.052-.859-1.905-1.918-1.905s-1.918.853-1.918 1.905c0 1.053.859 1.906 1.918 1.906zM178.775 127.286c1.06 0 1.918-.853 1.918-1.905s-.858-1.905-1.918-1.905c-1.059 0-1.918.853-1.918 1.905s.859 1.905 1.918 1.905zM207.633 132.674c1.059 0 1.918-.853 1.918-1.905 0-1.053-.859-1.906-1.918-1.906s-1.918.853-1.918 1.906c0 1.052.859 1.905 1.918 1.905zM236.499 116.531c1.059 0 1.918-.853 1.918-1.905 0-1.053-.859-1.906-1.918-1.906s-1.918.853-1.918 1.906c0 1.052.859 1.905 1.918 1.905z"/>
        <path fill="#D8D8D8" d="M316.759.242H202.248c-5.376 0-9.735 4.33-9.735 9.672v43.641c0 5.342 4.359 9.672 9.735 9.672h114.511c5.377 0 9.736-4.33 9.736-9.672V9.914c0-5.342-4.359-9.672-9.736-9.672z"/>
        <path stroke="#000" stroke-linecap="round" stroke-linejoin="round" stroke-width=".5" d="M326.495 55.877c-.005 1.946-.785 3.811-2.169 5.188-1.385 1.378-3.261 2.155-5.22 2.162H199.902c-1.96-.005-3.838-.781-5.223-2.159-1.385-1.378-2.164-3.244-2.166-5.191V7.583"/>
        <path stroke="#000" stroke-miterlimit="10" stroke-width=".5" d="M273.572 123.36c0 1.016-.402 1.991-1.12 2.715-.718.724-1.693 1.138-2.716 1.154h-73.387c-1.023-.016-1.999-.43-2.716-1.154-.718-.724-1.12-1.699-1.12-2.715v0c.015-1.006.424-1.967 1.14-2.678.716-.712 1.683-1.118 2.696-1.133"/>
        <path fill="#FDF3E8" d="M324.587 133.477H196.349c-2.119 0-3.836 1.706-3.836 3.81v.01c0 2.105 1.717 3.811 3.836 3.811h128.238c2.118 0 3.836-1.706 3.836-3.811v-.01c0-2.104-1.718-3.81-3.836-3.81z"/>
        <path stroke="#000" stroke-miterlimit="10" stroke-width=".5" d="M294.679 137.345c-.015 1.008-.426 1.97-1.144 2.682s-1.687 1.117-2.702 1.129h-94.484c-1.013-.015-1.98-.421-2.696-1.132-.716-.712-1.125-1.673-1.14-2.679.012-1.007.42-1.97 1.137-2.684.716-.713 1.684-1.121 2.699-1.136"/>
        <path fill="#FDF3E8" d="M324.587 147.415H196.349c-2.119 0-3.836 1.706-3.836 3.81v.01c0 2.105 1.717 3.811 3.836 3.811h128.238c2.118 0 3.836-1.706 3.836-3.811v-.01c0-2.104-1.718-3.81-3.836-3.81z"/>
        <path stroke="#000" stroke-miterlimit="10" stroke-width=".5" d="M242.924 151.225c0 1.017-.402 1.992-1.12 2.716-.718.724-1.693 1.138-2.716 1.153h-42.739c-1.023-.015-1.999-.429-2.716-1.153-.718-.724-1.12-1.699-1.12-2.716.015-1.006.424-1.966 1.14-2.678.716-.711 1.683-1.117 2.696-1.132"/>
        <path fill="#FDF3E8" d="M324.587 119.549H196.349c-2.119 0-3.836 1.706-3.836 3.811v.009c0 2.105 1.717 3.811 3.836 3.811h128.238c2.118 0 3.836-1.706 3.836-3.811v-.009c0-2.105-1.718-3.811-3.836-3.811z"/>
        <path fill="#8CA6AD" d="M269.765 119.549h-73.416c-2.119 0-3.836 1.706-3.836 3.811v.009c0 2.105 1.717 3.811 3.836 3.811h73.416c2.119 0 3.836-1.706 3.836-3.811v-.009c0-2.105-1.717-3.811-3.836-3.811z"/>
        <path stroke="#000" stroke-miterlimit="10" stroke-width=".5" d="M273.572 123.36c0 1.016-.402 1.991-1.12 2.715-.718.724-1.693 1.138-2.716 1.154h-73.387c-1.023-.016-1.999-.43-2.716-1.154-.718-.724-1.12-1.699-1.12-2.715v0c.015-1.006.424-1.967 1.14-2.678.716-.712 1.683-1.118 2.696-1.133"/>
        <path fill="#FDF3E8" d="M324.587 133.477H196.349c-2.119 0-3.836 1.706-3.836 3.81v.01c0 2.105 1.717 3.811 3.836 3.811h128.238c2.118 0 3.836-1.706 3.836-3.811v-.01c0-2.104-1.718-3.81-3.836-3.81z"/>
        <path fill="#8CA6AD" d="M290.843 133.477h-94.494c-2.119 0-3.836 1.706-3.836 3.81v.01c0 2.105 1.717 3.811 3.836 3.811h94.494c2.118 0 3.836-1.706 3.836-3.811v-.01c0-2.104-1.718-3.81-3.836-3.81z"/>
        <path stroke="#000" stroke-miterlimit="10" stroke-width=".5" d="M294.679 137.345c-.015 1.008-.426 1.97-1.144 2.682s-1.687 1.117-2.702 1.129h-94.484c-1.013-.015-1.98-.421-2.696-1.132-.716-.712-1.125-1.673-1.14-2.679.012-1.007.42-1.97 1.137-2.684.716-.713 1.684-1.121 2.699-1.136"/>
        <path fill="#FDF3E8" d="M324.587 147.415H196.349c-2.119 0-3.836 1.706-3.836 3.81v.01c0 2.105 1.717 3.811 3.836 3.811h128.238c2.118 0 3.836-1.706 3.836-3.811v-.01c0-2.104-1.718-3.81-3.836-3.81z"/>
        <path fill="#8CA6AD" d="M239.088 147.415h-42.739c-2.119 0-3.836 1.706-3.836 3.81v.01c0 2.105 1.717 3.811 3.836 3.811h42.739c2.119 0 3.836-1.706 3.836-3.811v-.01c0-2.104-1.717-3.81-3.836-3.81z"/>
        <path stroke="#000" stroke-miterlimit="10" stroke-width=".5" d="M242.924 151.225c0 1.017-.402 1.992-1.12 2.716-.718.724-1.693 1.138-2.716 1.153h-42.739c-1.023-.015-1.999-.429-2.716-1.153-.718-.724-1.12-1.699-1.12-2.716.015-1.006.424-1.966 1.14-2.678.716-.711 1.683-1.117 2.696-1.132M233.13 165.163c-.015 1.016-.433 1.985-1.161 2.698-.729.713-1.711 1.113-2.733 1.113h-32.887c-1.013-.015-1.98-.422-2.696-1.133-.716-.712-1.125-1.672-1.14-2.678.012-1.008.42-1.971 1.137-2.685.716-.713 1.684-1.121 2.699-1.136"/>
        <path fill="#FDF3E8" d="M324.587 161.342H196.349c-2.119 0-3.836 1.706-3.836 3.811v.01c0 2.105 1.717 3.811 3.836 3.811h128.238c2.118 0 3.836-1.706 3.836-3.811v-.01c0-2.105-1.718-3.811-3.836-3.811z"/>
        <path fill="#8CA6AD" d="M229.294 161.342h-32.945c-2.119 0-3.836 1.706-3.836 3.811v.01c0 2.105 1.717 3.811 3.836 3.811h32.945c2.119 0 3.836-1.706 3.836-3.811v-.01c0-2.105-1.717-3.811-3.836-3.811z"/>
        <path stroke="#000" stroke-miterlimit="10" stroke-width=".5" d="M233.13 165.163c-.015 1.016-.433 1.985-1.161 2.698-.729.713-1.711 1.113-2.733 1.113h-32.887c-1.013-.015-1.98-.422-2.696-1.133-.716-.712-1.125-1.672-1.14-2.678.012-1.008.42-1.971 1.137-2.685.716-.713 1.684-1.121 2.699-1.136"/>
        <path fill="#FDF3E8" d="M57.382 24.21v48.564c0 .961.784 1.74 1.752 1.74s1.753-.779 1.753-1.74V24.209c0-.961-.785-1.74-1.753-1.74-.968 0-1.752.779-1.752 1.74z"/>
        <path stroke="#000" stroke-miterlimit="10" stroke-width=".5" d="M59.134 22.459c.464.002.908.186 1.237.512.328.326.513.767.516 1.229v48.564c-.01.456-.2.89-.526 1.21-.328.32-.768.5-1.227.502v0c-.465-.003-.911-.188-1.24-.516-.328-.328-.512-.772-.512-1.235"/>
        <path fill="#FDF3E8" d="M66.33 1.973v70.79c0 .962.784 1.742 1.752 1.742.967 0 1.752-.78 1.752-1.741V1.973c0-.962-.785-1.741-1.752-1.741-.968 0-1.753.78-1.753 1.74z"/>
        <path stroke="#000" stroke-miterlimit="10" stroke-width=".5" d="M68.082.242c.464.002.908.186 1.236.512.328.326.513.768.516 1.229v70.781c-.01.456-.199.89-.526 1.21-.328.32-.768.5-1.227.502v0c-.465-.002-.91-.188-1.24-.516-.328-.328-.512-.772-.512-1.234"/>
        <path fill="#FDF3E8" d="M75.276 10.871v61.903c0 .961.785 1.74 1.753 1.74.968 0 1.752-.779 1.752-1.74V10.87c0-.961-.784-1.74-1.752-1.74s-1.753.779-1.753 1.74z"/>
        <path stroke="#000" stroke-miterlimit="10" stroke-width=".5" d="M77.029 9.13c.464.003.908.187 1.236.513.328.326.514.767.516 1.228v61.903c-.012.454-.202.885-.53 1.203-.326.318-.765.497-1.222.499v0c-.466-.002-.912-.188-1.24-.516-.328-.328-.513-.772-.513-1.235"/>
        <path fill="#8CA6AD" d="M57.382 24.21v48.564c0 .961.784 1.74 1.752 1.74s1.753-.779 1.753-1.74V24.209c0-.961-.785-1.74-1.753-1.74-.968 0-1.752.779-1.752 1.74z"/>
        <path stroke="#000" stroke-miterlimit="10" stroke-width=".5" d="M59.134 22.459c.464.002.908.186 1.237.512.328.326.513.767.516 1.229v48.564c-.01.456-.2.89-.526 1.21-.328.32-.768.5-1.227.502v0c-.465-.003-.911-.188-1.24-.516-.328-.328-.512-.772-.512-1.235"/>
        <path fill="#8CA6AD" d="M66.33 1.973v70.79c0 .962.784 1.742 1.752 1.742.967 0 1.752-.78 1.752-1.741V1.973c0-.962-.785-1.741-1.752-1.741-.968 0-1.753.78-1.753 1.74z"/>
        <path stroke="#000" stroke-miterlimit="10" stroke-width=".5" d="M68.082.242c.464.002.908.186 1.236.512.328.326.513.768.516 1.229v70.781c-.01.456-.199.89-.526 1.21-.328.32-.768.5-1.227.502v0c-.465-.002-.91-.188-1.24-.516-.328-.328-.512-.772-.512-1.234"/>
        <path fill="#8CA6AD" d="M75.276 10.871v61.903c0 .961.785 1.74 1.753 1.74.968 0 1.752-.779 1.752-1.74V10.87c0-.961-.784-1.74-1.752-1.74s-1.753.779-1.753 1.74z"/>
        <path stroke="#000" stroke-miterlimit="10" stroke-width=".5" d="M77.029 9.13c.464.003.908.187 1.236.513.328.326.514.767.516 1.228v61.903c-.012.454-.202.885-.53 1.203-.326.318-.765.497-1.222.499v0c-.466-.002-.912-.188-1.24-.516-.328-.328-.513-.772-.513-1.235"/>
        <path fill="#FDF3E8" d="M84.213 19.76v53.014c0 .961.785 1.74 1.752 1.74.968 0 1.753-.779 1.753-1.74V19.76c0-.961-.785-1.74-1.753-1.74-.968 0-1.752.779-1.752 1.74z"/>
        <path stroke="#000" stroke-miterlimit="10" stroke-width=".5" d="M85.975 18.019c.464.003.908.187 1.236.513.329.326.514.767.517 1.228v53.004c-.01.456-.2.89-.527 1.21-.327.32-.767.5-1.226.502v0c-.466-.003-.911-.188-1.24-.516-.328-.328-.512-.772-.512-1.235"/>
        <path fill="#FDF3E8" d="M93.16 13.976v58.788c0 .961.785 1.74 1.753 1.74.967 0 1.752-.779 1.752-1.74V13.976c0-.962-.785-1.741-1.752-1.741-.968 0-1.753.78-1.753 1.741z"/>
        <path stroke="#000" stroke-miterlimit="10" stroke-width=".5" d="M94.922 12.245c.464.002.909.186 1.237.512.328.326.513.768.516 1.229v58.778c-.01.456-.2.89-.526 1.21-.328.32-.768.5-1.227.502v0c-.465-.003-.911-.188-1.24-.516-.328-.328-.512-.772-.512-1.235"/>
        <path fill="#FDF3E8" d="M102.117 8.211v64.563c0 .961.785 1.74 1.753 1.74.967 0 1.752-.779 1.752-1.74V8.21c0-.961-.785-1.74-1.752-1.74-.968 0-1.753.779-1.753 1.74z"/>
        <path stroke="#000" stroke-miterlimit="10" stroke-width=".5" d="M103.87 6.46c.464.003.908.188 1.236.514.328.326.513.767.516 1.228v64.562c0 .463-.184.907-.513 1.235-.328.328-.774.513-1.239.516-.467-.003-.914-.188-1.244-.516-.33-.328-.516-.771-.519-1.235"/>
        <path fill="#8CA6AD" d="M84.213 19.76v53.014c0 .961.785 1.74 1.752 1.74.968 0 1.753-.779 1.753-1.74V19.76c0-.961-.785-1.74-1.753-1.74-.968 0-1.752.779-1.752 1.74z"/>
        <path stroke="#000" stroke-miterlimit="10" stroke-width=".5" d="M85.975 18.019c.464.003.908.187 1.236.513.329.326.514.767.517 1.228v53.004c-.01.456-.2.89-.527 1.21-.327.32-.767.5-1.226.502v0c-.466-.003-.911-.188-1.24-.516-.328-.328-.512-.772-.512-1.235"/>
        <path fill="#8CA6AD" d="M93.16 13.976v58.788c0 .961.785 1.74 1.753 1.74.967 0 1.752-.779 1.752-1.74V13.976c0-.962-.785-1.741-1.752-1.741-.968 0-1.753.78-1.753 1.741z"/>
        <path stroke="#000" stroke-miterlimit="10" stroke-width=".5" d="M94.922 12.245c.464.002.909.186 1.237.512.328.326.513.768.516 1.229v58.778c-.01.456-.2.89-.526 1.21-.328.32-.768.5-1.227.502v0c-.465-.003-.911-.188-1.24-.516-.328-.328-.512-.772-.512-1.235"/>
        <path fill="#8CA6AD" d="M102.117 8.211v64.563c0 .961.785 1.74 1.753 1.74.967 0 1.752-.779 1.752-1.74V8.21c0-.961-.785-1.74-1.752-1.74-.968 0-1.753.779-1.753 1.74z"/>
        <path stroke="#000" stroke-miterlimit="10" stroke-width=".5" d="M103.87 6.46c.464.003.908.188 1.236.514.328.326.513.767.516 1.228v64.562c0 .463-.184.907-.513 1.235-.328.328-.774.513-1.239.516-.467-.003-.914-.188-1.244-.516-.33-.328-.516-.771-.519-1.235"/>
        <path fill="#FDF3E8" d="M3.7 38.418v34.346c0 .961.784 1.74 1.752 1.74.967 0 1.752-.779 1.752-1.74V38.418c0-.962-.785-1.741-1.752-1.741-.968 0-1.753.78-1.753 1.74z"/>
        <path stroke="#000" stroke-miterlimit="10" stroke-width=".5" d="M5.452 36.687c.464.002.908.186 1.236.512.328.326.514.768.516 1.229v34.336c-.01.456-.199.89-.526 1.21-.327.32-.767.5-1.226.502v0c-.466-.003-.912-.188-1.24-.516-.328-.328-.513-.772-.513-1.235"/>
        <path fill="#FDF3E8" d="M12.646 42.877v29.897c0 .961.785 1.74 1.753 1.74.968 0 1.752-.779 1.752-1.74V42.877c0-.962-.784-1.741-1.752-1.741s-1.752.78-1.752 1.74z"/>
        <path stroke="#000" stroke-miterlimit="10" stroke-width=".5" d="M14.399 41.126c.464.003.908.187 1.236.513.328.326.514.767.516 1.228v29.897c-.01.456-.199.89-.526 1.21-.327.32-.767.5-1.226.502v0c-.457-.005-.895-.186-1.22-.506-.325-.32-.513-.752-.523-1.206"/>
        <path fill="#FDF3E8" d="M21.594 46.426v26.348c0 .961.784 1.74 1.752 1.74s1.753-.779 1.753-1.74V46.426c0-.961-.785-1.74-1.753-1.74-.968 0-1.752.779-1.752 1.74z"/>
        <path stroke="#000" stroke-miterlimit="10" stroke-width=".5" d="M23.366 44.685c.464.003.908.187 1.236.513.328.326.514.768.516 1.228v26.338c-.01.456-.199.89-.526 1.21-.327.32-.767.5-1.226.502v0c-.466-.002-.912-.188-1.24-.516-.328-.328-.513-.772-.513-1.235"/>
        <path fill="#8CA6AD" d="M3.7 38.418v34.346c0 .961.784 1.74 1.752 1.74.967 0 1.752-.779 1.752-1.74V38.418c0-.962-.785-1.741-1.752-1.741-.968 0-1.753.78-1.753 1.74z"/>
        <path stroke="#000" stroke-miterlimit="10" stroke-width=".5" d="M3.7 72.764c.01.456.198.89.525 1.21.328.32.768.5 1.227.502v0c.465-.003.911-.188 1.24-.516.328-.328.512-.772.512-1.235V38.428c-.002-.461-.188-.903-.516-1.229-.328-.326-.772-.51-1.236-.512"/>
        <path fill="#8CA6AD" d="M12.646 42.877v29.897c0 .961.785 1.74 1.753 1.74.968 0 1.752-.779 1.752-1.74V42.877c0-.962-.784-1.741-1.752-1.741s-1.752.78-1.752 1.74z"/>
        <path stroke="#000" stroke-miterlimit="10" stroke-width=".5" d="M14.399 41.126c.464.003.908.187 1.236.513.328.326.514.767.516 1.228v29.897c-.01.456-.199.89-.526 1.21-.327.32-.767.5-1.226.502v0c-.457-.005-.895-.186-1.22-.506-.325-.32-.513-.752-.523-1.206"/>
        <path fill="#8CA6AD" d="M21.594 46.426v26.348c0 .961.784 1.74 1.752 1.74s1.753-.779 1.753-1.74V46.426c0-.961-.785-1.74-1.753-1.74-.968 0-1.752.779-1.752 1.74z"/>
        <path stroke="#000" stroke-miterlimit="10" stroke-width=".5" d="M23.366 44.685c.464.003.908.187 1.236.513.328.326.514.768.516 1.228v26.338c-.01.456-.199.89-.526 1.21-.327.32-.767.5-1.226.502v0c-.466-.002-.912-.188-1.24-.516-.328-.328-.513-.772-.513-1.235"/>
        <path fill="#FDF3E8" d="M30.541 39.211v33.563c0 .961.785 1.74 1.752 1.74.968 0 1.753-.779 1.753-1.74V39.21c0-.962-.785-1.741-1.753-1.741-.967 0-1.752.78-1.752 1.741z"/>
        <path stroke="#000" stroke-miterlimit="10" stroke-width=".5" d="M32.293 37.47c.464.003.909.187 1.237.513.328.326.513.767.516 1.228v33.553c-.01.456-.2.89-.526 1.21-.328.32-.768.5-1.227.502v0c-.465-.002-.91-.188-1.24-.516-.328-.328-.512-.772-.512-1.234"/>
        <path fill="#FDF3E8" d="M39.487 37.528v35.236c0 .961.785 1.74 1.753 1.74.968 0 1.752-.779 1.752-1.74V37.528c0-.962-.784-1.741-1.752-1.741s-1.753.78-1.753 1.74z"/>
        <path stroke="#000" stroke-miterlimit="10" stroke-width=".5" d="M41.24 35.787c.464.003.908.187 1.236.513.328.326.514.767.516 1.228v35.236c-.01.456-.199.89-.526 1.21-.327.32-.767.5-1.226.502v0c-.466-.002-.912-.188-1.24-.516-.328-.328-.513-.772-.513-1.235"/>
        <path fill="#FDF3E8" d="M48.435 33.088v39.676c0 .961.784 1.74 1.752 1.74s1.752-.779 1.752-1.74V33.088c0-.961-.784-1.74-1.752-1.74s-1.752.779-1.752 1.74z"/>
        <path stroke="#000" stroke-miterlimit="10" stroke-width=".5" d="M50.187 31.348c.464.002.908.186 1.236.512.328.326.514.768.516 1.229v39.656c-.005.46-.191.898-.52 1.222-.327.324-.77.507-1.232.51v0c-.466-.003-.911-.189-1.24-.517-.328-.328-.512-.772-.512-1.234"/>
        <path fill="#8CA6AD" d="M30.541 39.211v33.563c0 .961.785 1.74 1.752 1.74.968 0 1.753-.779 1.753-1.74V39.21c0-.962-.785-1.741-1.753-1.741-.967 0-1.752.78-1.752 1.741z"/>
        <path stroke="#000" stroke-miterlimit="10" stroke-width=".5" d="M32.293 37.47c.464.003.909.187 1.237.513.328.326.513.767.516 1.228v33.553c-.01.456-.2.89-.526 1.21-.328.32-.768.5-1.227.502v0c-.465-.002-.91-.188-1.24-.516-.328-.328-.512-.772-.512-1.234"/>
        <path fill="#8CA6AD" d="M39.487 37.528v35.236c0 .961.785 1.74 1.753 1.74.968 0 1.752-.779 1.752-1.74V37.528c0-.962-.784-1.741-1.752-1.741s-1.753.78-1.753 1.74z"/>
        <path stroke="#000" stroke-miterlimit="10" stroke-width=".5" d="M41.24 35.787c.464.003.908.187 1.236.513.328.326.514.767.516 1.228v35.236c-.01.456-.199.89-.526 1.21-.327.32-.767.5-1.226.502v0c-.466-.002-.912-.188-1.24-.516-.328-.328-.513-.772-.513-1.235"/>
        <path fill="#8CA6AD" d="M48.435 33.088v39.676c0 .961.784 1.74 1.752 1.74s1.752-.779 1.752-1.74V33.088c0-.961-.784-1.74-1.752-1.74s-1.752.779-1.752 1.74z"/>
        <path stroke="#000" stroke-miterlimit="10" stroke-width=".5" d="M50.187 31.348c.464.002.908.186 1.236.512.328.326.514.768.516 1.229v39.656c-.005.46-.191.898-.52 1.222-.327.324-.77.507-1.232.51v0c-.466-.003-.911-.189-1.24-.517-.328-.328-.512-.772-.512-1.234"/>
        <path fill="#FDF3E8" d="M278.022 87.127h-29.49c-1.328 0-2.643.26-3.871.766-1.227.504-2.342 1.245-3.281 2.178-.94.933-1.685 2.041-2.193 3.26-.508 1.22-.77 2.526-.77 3.846.003 2.664 1.069 5.217 2.966 7.1 1.897 1.882 4.468 2.94 7.149 2.94h18.605l3.164 3.143 3.155-3.143h4.566c1.331.005 2.649-.251 3.88-.753 1.232-.502 2.351-1.241 3.294-2.174.943-.932 1.692-2.041 2.203-3.261.512-1.22.776-2.53.777-3.852 0-1.323-.263-2.633-.774-3.855-.51-1.222-1.259-2.331-2.202-3.265-.944-.933-2.064-1.673-3.295-2.176-1.232-.502-2.552-.759-3.883-.754z"/>
        <path stroke="#000" stroke-linecap="round" stroke-linejoin="round" stroke-width=".5" d="M248.532 87.127c-1.328 0-2.643.26-3.871.765-1.227.505-2.342 1.246-3.281 2.179-.94.933-1.685 2.04-2.193 3.26-.508 1.22-.77 2.526-.77 3.846v0c.003 2.663 1.069 5.217 2.966 7.1 1.897 1.882 4.468 2.94 7.149 2.94h18.605l3.164 3.143"/>
        <path stroke="#8CA6AD" stroke-linecap="round" stroke-linejoin="round" d="M260.73 93.57h15.47M260.73 97.215h15.47M260.73 100.862h15.47"/>
        <path fill="#384A51" d="M252.368 96.094l1.762.464c.031.01.06.028.084.051.024.024.042.053.052.084l.477 1.644v1.045c0 .084-.017.167-.049.244-.032.078-.079.148-.139.207-.06.06-.131.107-.209.139-.078.032-.161.048-.246.048h-3.845c-.339-.002-.664-.138-.903-.377-.238-.24-.373-.562-.373-.9v-4.748c0-.336.135-.659.374-.896.239-.238.564-.371.902-.371h3.203c.339 0 .665.133.905.37.241.237.377.56.38.897v.415h-3.427c-.085 0-.169.015-.247.046-.079.032-.15.079-.21.139-.06.06-.107.13-.139.208-.032.078-.048.162-.046.246v3.114c-.001.025.005.05.014.073.01.023.025.044.043.06.018.018.04.031.063.04.024.009.049.012.074.011h1.285c.049 0 .096-.02.131-.054s.054-.08.054-.13l.03-2.07z"/>
        <path fill="#8CA6AD" d="M251.959 101.626c-.319-.003-.625-.13-.851-.354-.225-.225-.354-.528-.356-.845v-.329h3.349c.192 0 .376-.075.513-.21.137-.133.215-.315.217-.506v-3.095c0-.037-.007-.073-.021-.106-.015-.034-.036-.064-.062-.09-.026-.024-.058-.044-.092-.057-.034-.013-.07-.02-.107-.018h-2.259v2.147c0 .029-.011.056-.031.076-.02.02-.047.03-.076.03h-1.314c-.03 0-.058-.01-.08-.03-.021-.02-.035-.047-.037-.076V95.05c0-.149.059-.292.165-.397.106-.105.25-.164.4-.164h3.972c.318.002.623.13.847.355.224.224.35.528.35.844v4.74c0 .316-.126.62-.35.844-.224.225-.529.352-.847.355h-3.33z"/>
        <path fill="#7F9DA5" d="M255.288 94.575c.297 0 .582.117.792.326.21.209.328.492.328.787v4.739c0 .295-.118.578-.328.786-.21.209-.495.326-.792.326h-3.329c-.148.001-.294-.026-.43-.082-.137-.055-.261-.137-.365-.241-.104-.103-.186-.226-.242-.362-.056-.135-.084-.281-.083-.427v-.242h3.262c.214 0 .42-.085.571-.235.152-.15.237-.355.237-.568v-3.095c0-.095-.038-.186-.106-.253-.067-.067-.159-.105-.254-.105h-2.347V98.193h-1.343v-3.144c0-.126.05-.246.139-.335.09-.089.211-.139.338-.139h3.972-.02zm.02-.164h-3.972c-.085-.002-.169.014-.248.046-.078.031-.15.078-.21.138-.059.06-.107.13-.139.208-.031.078-.047.162-.046.246v3.114c0 .026.005.05.015.073.01.023.025.044.043.061.018.017.04.03.063.04.024.008.049.012.074.01h1.266c.049 0 .096-.019.13-.053.035-.035.055-.082.055-.13v-2.07h2.18c.052 0 .101.02.138.056.036.037.057.086.057.137v3.095c0 .17-.068.332-.188.452-.121.12-.284.187-.455.187h-3.426v.406c0 .338.135.663.376.903.241.239.568.374.909.374h3.329c.341 0 .668-.135.909-.374.241-.24.376-.565.376-.903v-4.74c0-.338-.135-.663-.376-.902-.241-.24-.568-.374-.909-.374h.049z"/>
        <path fill="#FDF3E8" d="M39.848 2.901h-29.49c-2.674 0-5.24 1.052-7.135 2.927C1.327 7.702.256 10.246.243 12.902c0 2.666 1.066 5.222 2.963 7.107 1.897 1.884 4.47 2.943 7.152 2.943h18.605l3.164 3.163 3.155-3.134h4.566c1.33-.001 2.647-.263 3.875-.77 1.228-.508 2.343-1.251 3.282-2.187.938-.936 1.682-2.047 2.188-3.27.506-1.221.764-2.53.76-3.852-.01-2.655-1.08-5.2-2.973-7.074-1.894-1.874-4.459-2.927-7.132-2.927z"/>
        <path stroke="#000" stroke-linecap="round" stroke-linejoin="round" stroke-width=".5" d="M10.358 2.901c-2.674 0-5.24 1.052-7.135 2.927C1.327 7.702.256 10.246.243 12.902v0c0 2.666 1.066 5.222 2.963 7.107 1.897 1.884 4.47 2.943 7.152 2.943h18.605l3.164 3.163"/>
        <path stroke="#8CA6AD" stroke-linecap="round" stroke-linejoin="round" d="M22.558 9.295h15.47M22.558 12.941h15.47M22.558 16.597h15.47"/>
        <path fill="#384A51" d="M14.195 11.829l1.762.464c.03.009.057.025.08.047.022.022.038.049.046.079l.487 1.644v1.054c0 .084-.017.166-.049.243-.032.077-.08.147-.14.205-.06.059-.13.105-.208.136-.078.031-.161.046-.245.045h-3.846c-.333 0-.653-.13-.892-.36-.238-.232-.376-.547-.383-.878V9.73c0-.337.134-.66.373-.9.239-.239.563-.374.902-.377h3.203c.338.005.66.142.896.38.237.24.37.562.37.897v.416h-3.408c-.084-.002-.167.014-.245.045-.078.03-.149.077-.209.135-.06.059-.107.129-.14.206-.032.076-.048.16-.048.242v3.115c0 .051.02.1.057.137.036.036.086.056.137.056h1.315c.05-.002.097-.024.131-.06s.054-.083.054-.133v-2.06z"/>
        <path fill="#8CA6AD" d="M13.785 17.352c-.318 0-.624-.125-.85-.348-.226-.223-.354-.526-.357-.842v-.329h3.35c.191 0 .375-.075.512-.209s.215-.316.217-.507v-3.095c0-.074-.03-.146-.082-.198-.053-.053-.125-.082-.2-.082h-2.259v2.147c0 .03-.012.06-.034.082-.022.022-.052.034-.083.034h-1.343c-.031 0-.06-.012-.083-.034-.022-.022-.034-.051-.034-.082v-3.114c.003-.148.063-.288.169-.391.105-.103.248-.16.396-.16h3.972c.317 0 .622.124.847.348.224.223.35.525.35.84v4.75c0 .315-.126.618-.35.841-.225.223-.53.349-.847.349h-3.29z"/>
        <path fill="#7F9DA5" d="M17.115 10.3c.296.003.58.121.789.33.209.207.328.489.33.783v4.75c-.002.293-.121.575-.33.783-.21.208-.493.326-.79.328h-3.329c-.148.002-.294-.026-.431-.081-.137-.056-.262-.137-.367-.24-.105-.104-.188-.227-.245-.363-.057-.136-.086-.28-.086-.428v-.251h3.261c.213 0 .417-.083.568-.232.152-.148.238-.35.24-.561v-3.095c0-.095-.038-.187-.105-.254-.068-.067-.16-.104-.255-.104H14.03v2.254h-1.344v-3.144c0-.126.05-.247.14-.335.09-.09.21-.14.337-.14h3.972-.02zm.02-.154h-3.992c-.084-.001-.168.014-.246.045-.078.031-.148.077-.208.136-.06.058-.107.128-.14.205-.032.077-.049.16-.049.243v3.114c0 .052.02.1.057.137.037.036.086.057.138.057h1.314c.05-.003.097-.024.131-.06.035-.036.054-.084.054-.134v-2.06h2.18c.052 0 .102.02.139.057.036.036.056.085.056.137v3.095c0 .083-.016.165-.049.242-.032.077-.08.147-.14.206-.06.058-.13.104-.208.135-.078.031-.161.047-.245.045H12.5v.416c.008.334.146.651.387.884.24.233.562.364.898.364h3.33c.168 0 .335-.033.49-.097.155-.065.296-.159.415-.278.119-.118.212-.26.276-.414.063-.155.095-.32.094-.488v-4.72c.001-.167-.03-.332-.094-.486-.064-.155-.158-.295-.277-.413-.118-.118-.26-.21-.415-.274-.155-.063-.321-.095-.49-.094h.02z"/>
        <path fill="#F7C5A8" fill-rule="evenodd" d="M232.555 35.603c-.641.703-1.449 1.236-2.35 1.549-.901.313-1.867.396-2.809.243-.942-.153-1.831-.538-2.584-1.12-.754-.583-1.349-1.343-1.731-2.212-.381-.87-.538-1.82-.455-2.765.083-.945.403-1.854.931-2.644s1.247-1.437 2.091-1.88c.843-.444 1.786-.67 2.74-.659V15.572c-4.314 0-8.452 1.703-11.503 4.734-3.051 3.031-4.765 7.142-4.765 11.429 0 4.286 1.714 8.397 4.765 11.428 3.051 3.031 7.189 4.734 11.503 4.734 2.235.012 4.447-.437 6.498-1.317 2.052-.881 3.896-2.175 5.419-3.8l-7.75-7.177z" clip-rule="evenodd"/>
        <path stroke="#000" stroke-miterlimit="10" stroke-width=".5" d="M228.389 15.572c-2.589.007-5.138.626-7.436 1.808-2.299 1.181-4.281 2.89-5.781 4.986-1.5 2.095-2.476 4.516-2.845 7.06-.37 2.546-.123 5.142.72 7.573.843 2.43 2.258 4.627 4.127 6.406 1.868 1.779 4.137 3.089 6.618 3.822 2.481.732 5.102.867 7.645.391 2.544-.476 4.936-1.547 6.979-3.126"/>
        <path fill="#456682" fill-rule="evenodd" d="M228.281 15.572v10.543c1.511 0 2.959.596 4.027 1.657 1.069 1.061 1.669 2.5 1.669 4.001h10.573c-.003-4.289-1.717-8.402-4.766-11.44-3.049-3.036-7.185-4.748-11.503-4.76z" clip-rule="evenodd"/>
        <path fill="#FDF3E8" fill-rule="evenodd" d="M233.986 31.734c0 .853-.195 1.694-.571 2.46-.377.765-.924 1.436-1.6 1.96l6.504 8.232c1.938-1.5 3.507-3.418 4.587-5.61 1.08-2.193 1.642-4.6 1.644-7.042h-10.564z" clip-rule="evenodd"/>
        <path fill="#F0F0F0" d="M305.213 17.913h-51.551c-.983 0-1.781.792-1.781 1.77 0 .977.798 1.77 1.781 1.77h51.551c.984 0 1.781-.793 1.781-1.77 0-.978-.797-1.77-1.781-1.77zM305.213 25.728h-51.551c-.983 0-1.781.792-1.781 1.77s.798 1.77 1.781 1.77h51.551c.984 0 1.781-.792 1.781-1.77s-.797-1.77-1.781-1.77zM305.213 33.534h-51.551c-.983 0-1.781.792-1.781 1.77 0 .977.798 1.77 1.781 1.77h51.551c.984 0 1.781-.793 1.781-1.77 0-.978-.797-1.77-1.781-1.77zM305.213 41.349h-51.551c-.983 0-1.781.792-1.781 1.77 0 .977.798 1.77 1.781 1.77h51.551c.984 0 1.781-.793 1.781-1.77 0-.978-.797-1.77-1.781-1.77z"/>
        <path stroke="#384A51" stroke-miterlimit="10" d="M328.413 137.297h2.434"/>
        <path stroke="#384A51" stroke-dasharray="5.9 5.9" stroke-miterlimit="10" d="M336.591 137.297h8.616"/>
        <path stroke="#384A51" stroke-miterlimit="10" d="M348.079 137.298h2.434v-2.419"/>
        <path stroke="#384A51" stroke-dasharray="4.98 4.98" stroke-miterlimit="10" d="M350.513 130.062V36.077"/>
        <path stroke="#384A51" stroke-miterlimit="10" d="M350.513 33.66V31.24h-2.434"/>
        <path stroke="#384A51" stroke-dasharray="3.93 3.93" stroke-miterlimit="10" d="M344.243 31.241h-13.396"/>
        <path stroke="#384A51" stroke-miterlimit="10" d="M328.929 31.241h-2.434"/>
        <path stroke="#384A51" stroke-dasharray="5 5" stroke-miterlimit="10" d="M32.128 26.086V38.34M270.301 118.678v-8.318"/>
        <path fill="#FFBF8A" d="M128.881 84.284s3.281-11.413 6.971-14.509l-6.971 14.509z"/>
        <path fill="#AF897B" fill-rule="evenodd" d="M178.766 209.887c.866 2.951 1.801 6.065 2.804 9.305l6.172-1.122c-.224-3.569-.458-7.041-.682-10.378l-8.294 2.195z" clip-rule="evenodd"/>
        <path fill="#456682" fill-rule="evenodd" d="M180.216 217.925c-.236.988-.308 2.007-.214 3.018.232 1.131.558 2.24.974 3.318l24.339-4.16c.273-2.185-.273-3.249-1.675-3.182-1.401.068-2.57.116-3.485.136l-12.179-3.076c-.054-.015-.112-.015-.166 0-.058.009-.114.029-.165.058-.047.03-.089.066-.127.106-.036.045-.06.098-.068.155l-.428 1.877c-.864.665-1.859 1.143-2.921 1.402-.94.078-1.887-.03-2.784-.319-.225-.056-.463-.021-.662.097-.198.114-.341.302-.4.522l-.039.048z" clip-rule="evenodd"/>
        <path fill="#AF897B" fill-rule="evenodd" d="M135.102 214.046c.318 3.057.678 6.281 1.08 9.673h6.28c.418-3.56.818-7.013 1.197-10.33l-8.557.657z" clip-rule="evenodd"/>
        <path fill="#456682" fill-rule="evenodd" d="M135.073 222.258c-.411.92-.667 1.9-.76 2.902.028 1.155.149 2.307.361 3.443l24.68.252c.662-2.109.321-3.24-1.071-3.434-1.393-.193-2.541-.348-3.456-.493l-11.42-5.194H143.066c-.051.02-.097.049-.136.087-.044.038-.08.084-.108.135l-.759 1.77c-.972.496-2.035.789-3.125.861-.941-.091-1.855-.367-2.687-.812-.212-.087-.45-.087-.662 0-.109.036-.21.094-.295.171-.085.076-.154.17-.202.274l-.019.038z" clip-rule="evenodd"/>
        <path fill="#8CA6AD" fill-rule="evenodd" d="M205.364 218.873c.008.411-.014.821-.068 1.228l-24.339 4.16c-.117-.281-.341-.968-.438-1.239 2.541-.367 11.254-1.547 12.705-1.866 1.694-.378 10.621-1.751 11.527-2.041.211-.061.417-.142.613-.242zM159.664 227.298c-.036.543-.144 1.08-.321 1.595l-24.68-.241c-.107-.561-.194-1.132-.253-1.693 2.512.222 9.58.851 11.605.764 2.463-.116 12.286.242 13.649-.425z" clip-rule="evenodd"/>
        <path fill="#2F4B62" fill-rule="evenodd" d="M142.627 110.157l20.347 58.44 15.013 46.233 10.709-3.395s-6.941-41.01-8.704-47.916c-1.762-6.906-12.432-53.826-12.432-53.826l-24.933.464z" clip-rule="evenodd"/>
        <path fill="#456682" fill-rule="evenodd" d="M134.352 109.229s-1.995 14.701-1.217 23.687c1.237 14.208 3.447 33.911 3.33 37.219-.127 3.607-2.113 46.426-2.113 46.426l9.347.716s9.784-36.629 11.254-44.966c4.508-13.928 4.8-61.68 4.8-61.68l-25.401-1.402z" clip-rule="evenodd"/>
        <path stroke="#000" stroke-linecap="round" stroke-linejoin="round" stroke-width=".5" d="M134.352 109.229s-1.995 14.701-1.217 23.687c1.237 14.208 3.447 33.911 3.33 37.219-.127 3.607-2.113 46.426-2.113 46.426l9.347.716"/>
        <path fill="#FFBF8A" d="M168.29 51.485c-4.76-1.934-20.513 0-20.513 0-3.334.36-6.64.952-9.891 1.77-1.174.17-2.288.626-3.242 1.325l-.185.136c-.379.283-.725.608-1.032.967-3.894 4.836-8.198 22.198-8.198 22.198l8.763 4.74.282 26.559s11.284 2.467 18.03 2.467c5.135.079 10.252-.595 15.188-2.003l4.478-33.969 5.754 8.493 9.395-10.843s-12.734-19.383-18.829-21.84z"/>
        <path stroke="#000" stroke-linecap="round" stroke-linejoin="round" stroke-width=".5" d="M134.226 100.852l.087 8.376s11.284 2.467 18.031 2.467c5.134.079 10.252-.595 15.187-2.003"/>
        <path fill="#AF897B" d="M201.703 110.079s1.947 5.397 2.093 6.461c.146 1.064.497 2.902.74 2.989.244.087 1.198.145.623-3.027-.253-1.393.166-1.722.166-1.722.335.296.644.62.925.967.496 1.586-.789 6.771-.789 6.771.078.464.974.135 2.453-1.113 1.052-.889 2.23-5.29 2.22-5.377.229-.853.117-1.761-.311-2.534-1.504-1.988-3.129-3.881-4.868-5.668l-3.252 2.253z"/>
        <path fill="#AF897B" d="M205.636 108.803c-1.83-4.033-11.011-20.67-15.684-25.36l-4.079-8.6-7.652 8.706c1.462 1.687 3.093 3.223 4.868 4.584 3.592 6.694 19.393 22.837 19.393 22.837s4.43 1.228 3.154-2.167zM147.437 36.812c.435-.065.839-.262 1.158-.563.319-.3.537-.69.626-1.119.089-.428.043-.872-.13-1.274-.174-.401-.467-.74-.84-.971-.373-.231-.809-.343-1.248-.32-.439.022-.861.177-1.208.445-.348.268-.604.635-.735 1.052-.131.417-.131.864.002 1.28.129.502.448.935.891 1.209.442.273.974.367 1.484.261z"/>
        <path fill="#AF897B" fill-rule="evenodd" d="M146.911 28.31c.925-13.076 17.378-10.513 20.26-3.598 1.032 2.448 1.84 9.77-.38 16.443-.466 1.4-1.296 2.654-2.405 3.633-1.11.98-2.459 1.652-3.914 1.948l.117 3.772s-1.723 4.885-6.97 4.15c-6.893-.968-6.504-3.87-6.504-3.87s-.526-17.902-.204-22.477z" clip-rule="evenodd"/>
        <path fill="#000" fill-rule="evenodd" d="M161.262 39.956c-.098.58-2.298 1.402-2.347-.29-.029-.977 2.561-.87 2.347.29zM162.8 30.7c.381-.265.828-.419 1.292-.446.464-.027.927.073 1.337.29.116.078.068.242 0 .194-.356-.174-.755-.241-1.149-.194-1.12.04-1.626.407-1.48.155zM155.206 30.719c.449-.28.959-.444 1.487-.482.528-.037 1.057.056 1.541.27.146.076.068.241-.049.202-.411-.173-.862-.233-1.304-.174-1.237.058-1.85.465-1.675.184z" clip-rule="evenodd"/>
        <path fill="#000" d="M163.881 32.663c.143.002.284-.039.404-.117.12-.078.213-.19.269-.32.056-.132.071-.276.043-.416-.027-.14-.096-.268-.197-.369-.102-.1-.231-.169-.371-.196-.141-.028-.287-.013-.419.043-.132.055-.244.148-.323.268-.078.119-.119.258-.117.4 0 .188.075.368.208.5.133.133.314.207.503.207zM156.491 32.595c.144 0 .285-.043.404-.124.119-.08.211-.194.265-.327.053-.133.065-.28.033-.42-.031-.139-.103-.266-.208-.365-.105-.098-.237-.163-.379-.186-.142-.023-.288-.003-.419.057-.13.06-.24.158-.314.28-.075.123-.11.265-.102.408.007.184.087.358.221.484.135.127.314.196.499.193z"/>
        <path fill="#B28B67" fill-rule="evenodd" d="M161.339 36.667c.867-.725-.71-.29-1.46-.31-.75-.019 1.285.455 1.46.31z" clip-rule="evenodd"/>
        <path fill="#000" d="M162.771 17.845s3.29-.628 5.422 3.395c.974 1.819.867 5.059-.623 5.92-1.236.706-5.257-2.264-5.257-2.264-5.578 3.985-5.374 0-8.616 2.409-2.557 1.808-4.758 4.067-6.494 6.664 0 0-2.404.445-3.3-2.795-.479-1.33-.671-2.745-.564-4.153.108-1.408.512-2.778 1.187-4.02 4.586-9.528 16.113-6.868 18.245-5.156z"/>
        <path fill="#000" fill-rule="evenodd" d="M160.638 30.622c.428 3.076 1.519 5.89.896 6.123-.35.166-.747.207-1.123.115-.376-.092-.709-.31-.941-.618 0 0 1.947.85 1.85 0-.069-.774-.682-5.62-.682-5.62z" clip-rule="evenodd"/>
        <path fill="#B28B67" fill-rule="evenodd" d="M160.473 46.785c-2.075-.219-4.083-.857-5.9-1.877 0 0 .906 2.447 5.9 3.23v-1.353z" clip-rule="evenodd"/>
        <path stroke="#000" stroke-linecap="round" stroke-linejoin="round" stroke-width=".5" d="M165.652 71.188s6.971 2.582 12.112 13.028l9.394-10.843"/>
        <path fill="#456682" d="M178.484 78.76l-20.913 5.94-.623-3.173 20.134-6.258"/>
        <path fill="#2F4B62" d="M177.764 78.093c-.341.087-19.345 5.494-19.598 5.581-.198.083-.362.229-.467.414-.106.186-.147.4-.117.611.078.349.555.764.973.63"/>
        <path fill="#AF897B" d="M160.492 90.145c3.213-1.271 6.516-2.305 9.882-3.095 1.178-.32 2.453-1.441 2.083-2.553.226-.228.378-.518.438-.832.073-.322.049-.659-.068-.967.196-.166.333-.39.39-.639.047-.253.01-.515-.107-.745.169-.12.287-.3.331-.502.04-.205-.002-.417-.117-.59l-4.712 1.383s-4.654.967-1.11-2.273c3.544-3.24 2.356-4.034 1.996-4.15-.361-.116-2.395 1.8-3.573 2.902-1.178 1.103-6.737 8.966-6.737 8.966l1.304 3.095z"/>
        <path fill="#AF897B" d="M161.261 85.676c-5.52.706-19.169 2.902-26.636 6.77l1.879-8.462-8.967-4.575s-5.072 19.509 1.421 21.549c7.331 2.302 32.839-11.461 32.839-11.461s4.011-4.091-.536-3.82z"/>
        <path stroke="#000" stroke-linecap="round" stroke-linejoin="round" stroke-width=".5" d="M147.777 51.485c-3.334.36-6.64.952-9.891 1.77-1.174.17-2.288.626-3.242 1.325l-.185.136c-.379.283-.725.608-1.032.967-3.894 4.836-8.198 22.198-8.198 22.198l11.274 6.074M134.625 92.467s2.862-14.509 4.868-17.623"/>
    </g>
    <defs>
        <clipPath id="prefix__clip0">
            <path fill="#fff" d="M0 0H351V247H0z"/>
        </clipPath>
    </defs>
</svg>
