<svg width="162" height="134" viewBox="0 0 162 134" fill="none" xmlns="http://www.w3.org/2000/svg">
<path d="M112.699 1C119.375 1.00096 124.786 6.43245 124.787 13.1328V104.172C124.787 115.712 121.735 120.559 112.699 120.559H19.9779L32.1309 32.4135V19.1819L19.9779 1H112.699Z" fill="#6D4559" stroke="#472F40" stroke-width="1.25"/>
<path d="M19.4779 42.8457C12.5874 42.8457 7.00152 48.3194 7.00152 55.0716V72.0052C7.00152 75.1598 9.61123 77.7171 12.8305 77.7171H31.9561V55.0716C31.9561 51.8288 30.6413 48.7188 28.3012 46.426C25.961 44.1331 22.7871 42.8452 19.4779 42.8457Z" fill="#6D4559"/>
<path d="M19.4779 1C12.5874 1 7.00152 6.43599 7.00152 13.1416V67.7674C7.00152 70.9003 7.00152 102.312 7.00152 108.779C7.00152 115.247 10.6546 120.559 19.4779 120.559C28.3012 120.559 31.9561 115.478 31.9561 108.779C31.956 102.081 31.9561 13.1416 31.9561 13.1416C31.9561 9.92116 30.6413 6.83263 28.3012 4.55559C25.961 2.27854 22.7871 0.999541 19.4779 1Z" fill="#472F40" stroke="#472F40" stroke-width="1.25"/>
<path d="M0 25.9255H13.8475" stroke="#AB7F95" stroke-width="1.25"/>
<path d="M0 39.7731H13.8475" stroke="#AB7F95" stroke-width="1.25"/>
<path d="M0 53.6205H13.8475" stroke="#AB7F95" stroke-width="1.25"/>
<path d="M0 67.468H13.8475" stroke="#AB7F95" stroke-width="1.25"/>
<path d="M0 81.3156H13.8475" stroke="#AB7F95" stroke-width="1.25"/>
<path d="M0 95.1631H13.8475" stroke="#AB7F95" stroke-width="1.25"/>
<path d="M72.1063 45.0032C79.5938 45.0032 85.6636 51.0617 85.6636 58.5352V72.0673H58.5491V58.5352C58.5491 51.0617 64.6189 45.0032 72.1063 45.0032Z" fill="#9DDFD3"/>
<path d="M73.2371 67.7589C76.4403 67.7589 79.0369 65.167 79.0369 61.9698V54.2268C79.0416 51.0456 77.9185 47.9653 75.8665 45.5311C74.6441 45.1799 73.3783 45.0022 72.1063 45.0032C64.6188 45.0032 58.5491 51.0617 58.5491 58.5352V67.7589H73.2371Z" fill="#DBF6E9"/>
<path fill-rule="evenodd" clip-rule="evenodd" d="M72.1063 45.0032V45.0032C79.5938 45.0032 85.6636 51.0617 85.6636 58.5352V72.0673H58.5491V58.5352C58.5491 51.0617 64.6189 45.0032 72.1063 45.0032Z" stroke="#6D4559" stroke-width="1.25"/>
<path d="M72.0759 43.0614C75.7189 43.0614 78.6722 40.1136 78.6722 36.4774C78.6722 32.8412 75.7189 29.8934 72.0759 29.8934C68.4329 29.8934 65.4797 32.8412 65.4797 36.4774C65.4797 40.1136 68.4329 43.0614 72.0759 43.0614Z" fill="#9DDFD3" stroke="#6D4559" stroke-width="1.25"/>
<path d="M116.717 94.0913C115.294 92.6671 115.294 90.3581 116.717 88.9339C118.14 87.5097 120.448 87.5097 121.871 88.9339L146.326 113.406C147.749 114.83 147.749 117.139 146.326 118.563C144.903 119.988 142.595 119.988 141.172 118.563L116.717 94.0913Z" fill="#FF847C"/>
<path d="M127.935 105.317C130.116 103.967 132.412 102.81 134.794 101.859L126.741 93.809C125.096 94.1623 123.507 94.7397 122.018 95.5251C121.186 95.9599 120.385 96.4511 119.62 96.9953L127.935 105.317Z" fill="#ED6663"/>
<path fill-rule="evenodd" clip-rule="evenodd" d="M116.717 94.0913C115.294 92.6671 115.294 90.3581 116.717 88.9339V88.9339C118.14 87.5097 120.448 87.5097 121.871 88.9339L146.326 113.406C147.749 114.83 147.749 117.139 146.326 118.563V118.563C144.903 119.988 142.595 119.988 141.172 118.563L116.717 94.0913Z" stroke="#472F40" stroke-width="1.25"/>
<path d="M134.687 115.076C132.416 112.804 132.416 109.12 134.687 106.848C136.957 104.576 140.638 104.576 142.909 106.848L157.709 121.659C159.98 123.931 159.98 127.614 157.709 129.886C155.439 132.158 151.758 132.158 149.487 129.886L134.687 115.076Z" fill="#ED6663" stroke="#472F40" stroke-width="1.25"/>
<path d="M107.87 108.682C124.445 108.682 137.882 95.2363 137.882 78.6499C137.882 62.0634 124.445 48.6174 107.87 48.6174C91.2949 48.6174 77.8582 62.0634 77.8582 78.6499C77.8582 95.2363 91.2949 108.682 107.87 108.682Z" fill="#FF847C"/>
<path d="M77.8582 78.6499C77.856 89.9134 84.1521 100.231 94.166 105.374C95.5809 105.577 97.0084 105.679 98.4377 105.679C115.016 105.679 128.449 92.236 128.449 75.6466C128.452 64.3831 122.156 54.0652 112.142 48.922C110.727 48.7198 109.299 48.618 107.87 48.6174C91.292 48.6174 77.8582 62.0605 77.8582 78.6499Z" fill="#ED6663"/>
<path fill-rule="evenodd" clip-rule="evenodd" d="M107.87 108.682C124.445 108.682 137.882 95.2363 137.882 78.6499C137.882 62.0634 124.445 48.6174 107.87 48.6174C91.2949 48.6174 77.8582 62.0634 77.8582 78.6499C77.8582 95.2363 91.2949 108.682 107.87 108.682Z" stroke="#472F40" stroke-width="1.25"/>
<path d="M107.87 102.247C120.893 102.247 131.451 91.682 131.451 78.6498C131.451 65.6176 120.893 55.0529 107.87 55.0529C94.8466 55.0529 84.2892 65.6176 84.2892 78.6498C84.2892 91.682 94.8466 102.247 107.87 102.247Z" fill="#FFE8E8"/>
<path d="M106.675 55.0828C97.4788 55.5498 89.3956 61.3305 85.9759 69.8857C82.5562 78.4409 84.4256 88.2054 90.7629 94.8901C101.619 98.773 113.6 93.3685 117.882 82.6569C122.164 71.9452 117.212 59.7631 106.675 55.0828Z" fill="#FDF3E8"/>
<path fill-rule="evenodd" clip-rule="evenodd" d="M107.87 102.247C120.893 102.247 131.451 91.682 131.451 78.6498C131.451 65.6176 120.893 55.0529 107.87 55.0529C94.8466 55.0529 84.2892 65.6176 84.2892 78.6498C84.2892 91.682 94.8466 102.247 107.87 102.247Z" stroke="#472F40" stroke-width="1.25"/>
</svg>
