<svg width="670" height="373" viewBox="0 0 670 373" fill="none" xmlns="http://www.w3.org/2000/svg">
<path d="M629.91 136.73C626.63 127.73 605.83 72.89 548.55 46.01C518.9 32.11 492.31 31.69 477.27 31.61C423.4 31.34 405.56 53.17 366.39 61.13C277.84 79.13 244 -6.99996 158.31 6.41004C105.69 14.66 59.58 56.41 40.95 102.89C3.85003 195.53 83.22 288.48 93.51 300.17C94.4 301.17 95.29 302.17 96.19 303.17C135.37 346.17 191.27 370.01 249.42 370.01H435.68C460.137 370.055 484.408 365.769 507.37 357.35C557.05 339.03 604.83 308.5 626.57 257.48C651.49 199 631 139.7 629.91 136.73Z" fill="#FDF3E8"/>
<path d="M520.48 370C522.48 352.35 537.08 339.84 552.16 340.48C563.73 340.98 574.4 349.17 579.04 361.12C579.776 359.529 580.917 358.159 582.349 357.148C583.782 356.137 585.454 355.521 587.2 355.36C589.368 355.254 591.513 355.851 593.314 357.062C595.116 358.272 596.479 360.032 597.2 362.08C601.07 352.84 611.45 349.08 618.8 352.72C624.56 355.55 628 362.64 626.72 370H520.48Z" fill="#FFBF8A"/>
<path d="M520.48 370C522.48 352.35 537.08 339.84 552.16 340.48C563.73 340.98 574.4 349.17 579.04 361.12C579.776 359.529 580.917 358.159 582.349 357.148C583.782 356.137 585.454 355.521 587.2 355.36C589.368 355.254 591.513 355.851 593.314 357.062C595.116 358.272 596.479 360.032 597.2 362.08C601.07 352.84 611.45 349.08 618.8 352.72C624.56 355.55 628 362.64 626.72 370H520.48Z" stroke="#472F40" stroke-linecap="round" stroke-linejoin="round"/>
<path d="M122.08 370C126.08 358.41 119.08 346.08 108.16 343.48C97.99 341.06 86.89 347.66 84.16 358.72C81.8216 355.981 78.7034 354.021 75.2216 353.1C71.7398 352.18 68.0602 352.344 64.6739 353.57C61.2876 354.796 58.3558 357.025 56.2699 359.961C54.184 362.897 53.0433 366.399 53 370H122.08Z" fill="#FFBF8A"/>
<path d="M122.08 370C126.08 358.41 119.08 346.08 108.16 343.48C97.99 341.06 86.89 347.66 84.16 358.72C81.8216 355.981 78.7034 354.021 75.2216 353.1C71.7398 352.18 68.0602 352.344 64.6739 353.57C61.2876 354.796 58.3558 357.025 56.2699 359.961C54.184 362.897 53.0433 366.399 53 370H122.08Z" stroke="#472F40" stroke-linecap="round" stroke-linejoin="round"/>
<path d="M480.37 87.47H347.47C343.61 87.47 340.48 90.5995 340.48 94.46V279.83C340.48 283.69 343.61 286.82 347.47 286.82H480.37C484.23 286.82 487.36 283.69 487.36 279.83V94.46C487.36 90.5995 484.23 87.47 480.37 87.47Z" fill="#F8F8F8"/>
<path d="M480.37 87.47H478.3V286.82H480.37C482.226 286.82 484.007 286.082 485.32 284.77C486.632 283.457 487.37 281.676 487.37 279.82V94.46C487.367 92.6052 486.629 90.8273 485.316 89.5167C484.004 88.2061 482.225 87.47 480.37 87.47V87.47Z" fill="#F2F2F2"/>
<path d="M480.37 87.47H347.47C343.61 87.47 340.48 90.5995 340.48 94.46V279.83C340.48 283.69 343.61 286.82 347.47 286.82H480.37C484.23 286.82 487.36 283.69 487.36 279.83V94.46C487.36 90.5995 484.23 87.47 480.37 87.47Z" stroke="#472F40" stroke-miterlimit="10"/>
<path d="M469.45 252.83C471.609 249.362 473.19 245.566 474.13 241.59C474.389 240.496 474.52 239.375 474.52 238.25V101.6H353.32V272.68H432.49C432.77 272.68 433.03 272.68 433.31 272.68C437.89 272.26 458.85 269.8 469.45 252.83Z" fill="#FDF3E8"/>
<path d="M465.91 101.6V257.6C467.218 256.12 468.402 254.535 469.45 252.86C471.609 249.392 473.19 245.596 474.13 241.62C474.389 240.526 474.52 239.405 474.52 238.28V101.6H465.91Z" fill="#FFE8E8"/>
<path d="M469.45 252.83C471.93 248.83 473.649 244.405 474.52 239.78V101.6H353.32V272.68H432.88C436.38 272.42 458.47 270.4 469.45 252.83Z" stroke="#472F40" stroke-linecap="round" stroke-linejoin="round"/>
<path d="M432.88 272.68C434.37 272.68 460.31 272.68 470.62 254.09C473.009 249.686 474.344 244.787 474.52 239.78C473.425 244.657 470.601 248.973 466.57 251.93C463.002 254.473 458.71 255.798 454.33 255.71C453.668 258.122 452.603 260.404 451.18 262.46C445.31 270.91 435.28 272.39 432.88 272.68Z" fill="#FF847C"/>
<path d="M432.88 272.68C434.37 272.68 460.31 272.68 470.62 254.09C473.009 249.686 474.344 244.787 474.52 239.78C473.425 244.657 470.601 248.973 466.57 251.93C463.002 254.473 458.71 255.798 454.33 255.71C453.668 258.122 452.603 260.404 451.18 262.46C445.31 270.91 435.28 272.39 432.88 272.68Z" stroke="#472F40" stroke-linecap="round" stroke-linejoin="round"/>
<path d="M389.2 87.47V104.57C389.199 105.075 389.297 105.575 389.49 106.041C389.682 106.508 389.965 106.931 390.322 107.288C390.679 107.645 391.102 107.928 391.569 108.12C392.035 108.313 392.535 108.411 393.04 108.41H397.49C397.952 108.409 398.408 108.309 398.827 108.115C399.247 107.922 399.619 107.64 399.92 107.29L401.65 105.23C401.851 104.992 402.101 104.801 402.384 104.67C402.666 104.539 402.974 104.471 403.285 104.471C403.596 104.471 403.904 104.539 404.186 104.67C404.469 104.801 404.719 104.992 404.92 105.23L406.65 107.29C406.95 107.641 407.322 107.924 407.742 108.117C408.161 108.31 408.618 108.41 409.08 108.41H418.76C419.222 108.41 419.679 108.31 420.098 108.117C420.518 107.924 420.89 107.641 421.19 107.29L422.92 105.23C423.121 104.992 423.371 104.801 423.654 104.67C423.936 104.539 424.244 104.471 424.555 104.471C424.866 104.471 425.174 104.539 425.456 104.67C425.739 104.801 425.989 104.992 426.19 105.23L427.92 107.29C428.221 107.64 428.593 107.922 429.013 108.115C429.432 108.309 429.888 108.409 430.35 108.41H434.8C435.305 108.411 435.805 108.313 436.271 108.12C436.737 107.928 437.161 107.645 437.518 107.288C437.875 106.931 438.158 106.508 438.35 106.041C438.543 105.575 438.641 105.075 438.64 104.57V87.47H389.2Z" fill="#6D4558"/>
<path d="M431.8 87.47V104.57C431.799 105.368 431.549 106.146 431.085 106.795C430.62 107.444 429.965 107.932 429.21 108.19C429.573 108.332 429.96 108.407 430.35 108.41H434.8C435.305 108.411 435.805 108.313 436.271 108.12C436.738 107.928 437.161 107.645 437.518 107.288C437.875 106.931 438.158 106.508 438.35 106.041C438.543 105.575 438.641 105.075 438.64 104.57V87.47H431.8Z" fill="#472F40"/>
<path d="M389.2 87.47V104.57C389.199 105.075 389.297 105.575 389.49 106.041C389.682 106.508 389.965 106.931 390.322 107.288C390.679 107.645 391.102 107.928 391.569 108.12C392.035 108.313 392.535 108.411 393.04 108.41H397.49C397.952 108.409 398.408 108.309 398.827 108.115C399.247 107.922 399.619 107.64 399.92 107.29L401.65 105.23C401.851 104.992 402.101 104.801 402.384 104.67C402.666 104.539 402.974 104.471 403.285 104.471C403.596 104.471 403.904 104.539 404.186 104.67C404.469 104.801 404.719 104.992 404.92 105.23L406.65 107.29C406.95 107.641 407.322 107.924 407.742 108.117C408.161 108.31 408.618 108.41 409.08 108.41H418.76C419.222 108.41 419.679 108.31 420.098 108.117C420.518 107.924 420.89 107.641 421.19 107.29L422.92 105.23C423.121 104.992 423.371 104.801 423.654 104.67C423.936 104.539 424.244 104.471 424.555 104.471C424.866 104.471 425.174 104.539 425.456 104.67C425.739 104.801 425.989 104.992 426.19 105.23L427.92 107.29C428.221 107.64 428.593 107.922 429.013 108.115C429.432 108.309 429.888 108.409 430.35 108.41H434.8C435.305 108.411 435.805 108.313 436.271 108.12C436.737 107.928 437.161 107.645 437.518 107.288C437.875 106.931 438.158 106.508 438.35 106.041C438.543 105.575 438.641 105.075 438.64 104.57V87.47H389.2Z" stroke="#472F40" stroke-miterlimit="10"/>
<path d="M419.32 75.8701C420.085 75.2526 420.684 74.4533 421.062 73.5449C421.439 72.6366 421.583 71.6483 421.48 70.6701C421.216 69.2044 420.424 67.8863 419.254 66.9649C418.084 66.0436 416.617 65.5829 415.13 65.6701C414.32 65.6701 413.52 65.6701 412.71 65.6701C411.223 65.5829 409.756 66.0436 408.586 66.9649C407.416 67.8863 406.624 69.2044 406.36 70.6701C406.257 71.6483 406.401 72.6366 406.778 73.5449C407.156 74.4533 407.754 75.2526 408.52 75.8701C409.164 76.3783 409.623 77.0854 409.823 77.8813C410.024 78.6771 409.956 79.517 409.63 80.2701L406.36 87.4701H421.48L418.21 80.2701C417.884 79.517 417.816 78.6771 418.016 77.8813C418.217 77.0854 418.675 76.3783 419.32 75.8701V75.8701Z" stroke="#472F40" stroke-miterlimit="10"/>
<path d="M393.33 230.15C401.8 230.64 405.65 241.06 399.82 247.23L393.29 254.13L385.87 262C385.54 262.35 385.142 262.63 384.7 262.821C384.258 263.012 383.782 263.11 383.3 263.11C382.819 263.11 382.342 263.012 381.9 262.821C381.458 262.63 381.06 262.35 380.73 262L373.32 254.16L366.79 247.26C360.96 241.09 364.79 230.67 373.28 230.18H373.99C375.775 230.177 377.538 230.574 379.149 231.343C380.76 232.111 382.179 233.231 383.3 234.62C384.425 233.233 385.846 232.115 387.458 231.346C389.071 230.578 390.834 230.18 392.62 230.18L393.33 230.15Z" fill="#FF847C"/>
<path d="M394.77 235.4C395.459 236.173 395.962 237.093 396.24 238.09C397.88 244.09 387.83 257.49 383.35 263.09C383.823 263.088 384.29 262.989 384.724 262.8C385.157 262.611 385.547 262.335 385.87 261.99L393.29 254.15L399.82 247.25C405.65 241.08 401.82 230.66 393.33 230.17H392.62C390.834 230.17 389.071 230.568 387.458 231.336C385.846 232.105 384.425 233.223 383.3 234.61C384.4 234.2 391.39 231.94 394.77 235.4Z" fill="#ED6663"/>
<path d="M393.33 230.15C401.8 230.64 405.65 241.06 399.82 247.23L393.29 254.13L385.87 262C385.54 262.35 385.142 262.63 384.7 262.821C384.258 263.012 383.782 263.11 383.3 263.11C382.819 263.11 382.342 263.012 381.9 262.821C381.458 262.63 381.06 262.35 380.73 262L373.32 254.16L366.79 247.26C360.96 241.09 364.79 230.67 373.28 230.18H373.99C375.775 230.177 377.538 230.574 379.149 231.343C380.76 232.111 382.179 233.231 383.3 234.62C384.425 233.233 385.846 232.115 387.458 231.346C389.071 230.578 390.834 230.18 392.62 230.18L393.33 230.15Z" stroke="#472F40" stroke-linecap="round" stroke-linejoin="round"/>
<path d="M371.33 246.22H377.79L381.06 238.78L383.77 251.53L386.61 242.79L387.76 246.47H395.27" stroke="#472F40" stroke-linecap="round" stroke-linejoin="round"/>
<path d="M364 116.53H384.52" stroke="#472F40" stroke-linecap="round" stroke-linejoin="round"/>
<path d="M364 122.51H401.32" stroke="#472F40" stroke-linecap="round" stroke-linejoin="round"/>
<path d="M364 128.5H372.34" stroke="#472F40" stroke-linecap="round" stroke-linejoin="round"/>
<path d="M427.54 116.53H444.88" stroke="#472F40" stroke-linecap="round" stroke-linejoin="round"/>
<path d="M427.54 122.51H435.12" stroke="#472F40" stroke-linecap="round" stroke-linejoin="round"/>
<path d="M427.54 128.5H459.46" stroke="#472F40" stroke-linecap="round" stroke-linejoin="round"/>
<path d="M372.1 149.93H365.5C364.672 149.93 364 150.602 364 151.43V158.03C364 158.858 364.672 159.53 365.5 159.53H372.1C372.928 159.53 373.6 158.858 373.6 158.03V151.43C373.6 150.602 372.928 149.93 372.1 149.93Z" fill="#8ABAF1"/>
<path d="M372.1 166.66H365.5C364.672 166.66 364 167.331 364 168.16V174.76C364 175.588 364.672 176.26 365.5 176.26H372.1C372.928 176.26 373.6 175.588 373.6 174.76V168.16C373.6 167.331 372.928 166.66 372.1 166.66Z" fill="#FFBF8A"/>
<path d="M372.1 183.39H365.5C364.672 183.39 364 184.061 364 184.89V191.49C364 192.318 364.672 192.99 365.5 192.99H372.1C372.928 192.99 373.6 192.318 373.6 191.49V184.89C373.6 184.061 372.928 183.39 372.1 183.39Z" fill="#9DDFD3"/>
<path d="M372.1 200.11H365.5C364.672 200.11 364 200.782 364 201.61V208.21C364 209.039 364.672 209.71 365.5 209.71H372.1C372.928 209.71 373.6 209.039 373.6 208.21V201.61C373.6 200.782 372.928 200.11 372.1 200.11Z" fill="#DAF6E8"/>
<path d="M372.1 166.66H365.5C364.672 166.66 364 167.331 364 168.16V174.76C364 175.588 364.672 176.26 365.5 176.26H372.1C372.928 176.26 373.6 175.588 373.6 174.76V168.16C373.6 167.331 372.928 166.66 372.1 166.66Z" stroke="#472F40" stroke-linecap="round" stroke-linejoin="round"/>
<path d="M372.1 183.39H365.5C364.672 183.39 364 184.061 364 184.89V191.49C364 192.318 364.672 192.99 365.5 192.99H372.1C372.928 192.99 373.6 192.318 373.6 191.49V184.89C373.6 184.061 372.928 183.39 372.1 183.39Z" stroke="#472F40" stroke-linecap="round" stroke-linejoin="round"/>
<path d="M372.1 200.11H365.5C364.672 200.11 364 200.782 364 201.61V208.21C364 209.039 364.672 209.71 365.5 209.71H372.1C372.928 209.71 373.6 209.039 373.6 208.21V201.61C373.6 200.782 372.928 200.11 372.1 200.11Z" stroke="#472F40" stroke-linecap="round" stroke-linejoin="round"/>
<path d="M364 218.92H432.88" stroke="#472F40" stroke-linecap="round" stroke-linejoin="round"/>
<path d="M440.18 218.92H463.24" stroke="#472F40" stroke-linecap="round" stroke-linejoin="round"/>
<path d="M381.16 152.3H392.96" stroke="#472F40" stroke-linecap="round" stroke-linejoin="round"/>
<path d="M381.16 157.16H413.92" stroke="#472F40" stroke-linecap="round" stroke-linejoin="round"/>
<path d="M381.16 169.03H401.32" stroke="#472F40" stroke-linecap="round" stroke-linejoin="round"/>
<path d="M381.16 173.89H389.2" stroke="#472F40" stroke-linecap="round" stroke-linejoin="round"/>
<path d="M381.16 185.76H397.54" stroke="#472F40" stroke-linecap="round" stroke-linejoin="round"/>
<path d="M381.16 190.62H426.4" stroke="#472F40" stroke-linecap="round" stroke-linejoin="round"/>
<path d="M381.16 202.48H409.36" stroke="#472F40" stroke-linecap="round" stroke-linejoin="round"/>
<path d="M381.16 207.34H391.24" stroke="#472F40" stroke-linecap="round" stroke-linejoin="round"/>
<path d="M372.1 149.93H365.5C364.672 149.93 364 150.602 364 151.43V158.03C364 158.858 364.672 159.53 365.5 159.53H372.1C372.928 159.53 373.6 158.858 373.6 158.03V151.43C373.6 150.602 372.928 149.93 372.1 149.93Z" stroke="#472F40" stroke-linecap="round" stroke-linejoin="round"/>
<path d="M477.565 212.681L436.066 201.117L428.7 227.55L470.199 239.114L477.565 212.681Z" fill="#FFBF8A"/>
<path d="M477.565 212.681L436.066 201.117L428.7 227.55L470.199 239.114L477.565 212.681Z" stroke="#472F40" stroke-linecap="round" stroke-linejoin="round"/>
<path d="M439.63 208.48L447.38 210.64" stroke="#472F40" stroke-linecap="round" stroke-linejoin="round"/>
<path d="M438.62 212.12L462.11 218.67" stroke="#472F40" stroke-linecap="round" stroke-linejoin="round"/>
<path d="M437.6 215.76L452.34 219.87" stroke="#472F40" stroke-linecap="round" stroke-linejoin="round"/>
<path d="M436.59 219.41L442.14 220.95" stroke="#472F40" stroke-linecap="round" stroke-linejoin="round"/>
<path d="M435.58 223.05L463.49 230.82" stroke="#472F40" stroke-linecap="round" stroke-linejoin="round"/>
<path d="M474.75 211.87L477.61 208.82C477.84 208.574 478.019 208.286 478.138 207.971C478.256 207.656 478.311 207.321 478.3 206.985C478.289 206.649 478.212 206.318 478.073 206.012C477.934 205.706 477.736 205.43 477.49 205.2V205.2C477.096 204.825 476.592 204.586 476.052 204.517C475.513 204.449 474.965 204.555 474.49 204.82C474.251 204.951 474.035 205.12 473.85 205.32L466.55 213C466.398 213.161 466.279 213.35 466.2 213.556C466.121 213.763 466.084 213.983 466.091 214.205C466.097 214.426 466.147 214.643 466.238 214.845C466.329 215.047 466.459 215.229 466.62 215.38V215.38C466.779 215.53 466.966 215.647 467.17 215.725C467.374 215.803 467.591 215.839 467.81 215.833C468.028 215.826 468.243 215.777 468.442 215.687C468.641 215.597 468.82 215.469 468.97 215.31L473.39 210.47" stroke="#472F40" stroke-linecap="round" stroke-linejoin="round"/>
<path d="M412.84 237.89H425.44" stroke="#472F40" stroke-linecap="round" stroke-linejoin="round"/>
<path d="M412.84 242.75H449.53" stroke="#472F40" stroke-linecap="round" stroke-linejoin="round"/>
<path d="M412.84 247.61H436.59" stroke="#472F40" stroke-linecap="round" stroke-linejoin="round"/>
<path d="M309.96 48.24H163.15C158.113 48.24 154.03 52.3232 154.03 57.36V145.85C154.03 150.887 158.113 154.97 163.15 154.97H309.96C314.997 154.97 319.08 150.887 319.08 145.85V57.36C319.08 52.3232 314.997 48.24 309.96 48.24Z" fill="#F8F8F8"/>
<path d="M309.57 48.24H299.64C302.162 48.24 304.581 49.2419 306.365 51.0254C308.148 52.8089 309.15 55.2278 309.15 57.75V145.46C309.15 147.982 308.148 150.401 306.365 152.185C304.581 153.968 302.162 154.97 299.64 154.97H309.57C312.092 154.97 314.511 153.968 316.295 152.185C318.078 150.401 319.08 147.982 319.08 145.46V57.75C319.08 55.2278 318.078 52.8089 316.295 51.0254C314.511 49.2419 312.092 48.24 309.57 48.24V48.24Z" fill="#F2F2F2"/>
<path d="M177.75 155H295.37V158.7C295.37 161.548 294.238 164.28 292.224 166.294C290.21 168.308 287.478 169.44 284.63 169.44H188.49C185.642 169.44 182.91 168.308 180.896 166.294C178.882 164.28 177.75 161.548 177.75 158.7V155Z" fill="#F8F8F8"/>
<path d="M287.8 155V158.24C287.801 159.71 287.513 161.167 286.951 162.525C286.389 163.884 285.565 165.119 284.526 166.159C283.487 167.199 282.253 168.024 280.894 168.587C279.536 169.15 278.08 169.44 276.61 169.44H284.17C287.14 169.44 289.989 168.26 292.089 166.16C294.19 164.059 295.37 161.21 295.37 158.24V155H287.8Z" fill="#F2F2F2"/>
<path d="M217.11 166.19C219.319 166.19 221.11 164.399 221.11 162.19C221.11 159.981 219.319 158.19 217.11 158.19C214.901 158.19 213.11 159.981 213.11 162.19C213.11 164.399 214.901 166.19 217.11 166.19Z" fill="#FFBF8A"/>
<path d="M236.56 166.19C238.769 166.19 240.56 164.399 240.56 162.19C240.56 159.981 238.769 158.19 236.56 158.19C234.351 158.19 232.56 159.981 232.56 162.19C232.56 164.399 234.351 166.19 236.56 166.19Z" fill="#8ABAF1"/>
<path d="M258.25 166.19C260.459 166.19 262.25 164.399 262.25 162.19C262.25 159.981 260.459 158.19 258.25 158.19C256.041 158.19 254.25 159.981 254.25 162.19C254.25 164.399 256.041 166.19 258.25 166.19Z" fill="#FF847C"/>
<path d="M295.3 100.04H280.29V110.68H295.3V100.04Z" fill="#8ABAF1"/>
<path d="M313.7 100.04H298.69V110.68H313.7V100.04Z" fill="#8ABAF1"/>
<path d="M295.3 82.1499H280.29V92.7899H295.3V82.1499Z" fill="#9DDFD3"/>
<path d="M313.7 82.1499H298.69V92.7899H313.7V82.1499Z" fill="#9DDFD3"/>
<path d="M295.3 64.26H280.29V74.9H295.3V64.26Z" fill="#FFBF8A"/>
<path d="M313.7 64.26H298.69V74.9H313.7V64.26Z" fill="#FFBF8A"/>
<path d="M296.81 141.07C300.781 141.07 304 137.851 304 133.88C304 129.909 300.781 126.69 296.81 126.69C292.839 126.69 289.62 129.909 289.62 133.88C289.62 137.851 292.839 141.07 296.81 141.07Z" fill="#FDF3E8"/>
<path d="M295.31 123.37V117.93H280.31V128.57H287.63C288.434 127.179 289.542 125.988 290.872 125.087C292.203 124.187 293.72 123.599 295.31 123.37V123.37Z" fill="#FF847C"/>
<path d="M298.69 117.93V123.43C300.211 123.701 301.655 124.301 302.919 125.189C304.184 126.077 305.239 127.231 306.01 128.57H313.7V117.93H298.69Z" fill="#FF847C"/>
<path d="M295.31 100.04H291.74V110.68H295.31V100.04Z" fill="#6986C5"/>
<path d="M313.71 100.04H310.14V110.68H313.71V100.04Z" fill="#6986C5"/>
<path d="M295.31 82.1499H291.74V92.7899H295.31V82.1499Z" fill="#8ABAF1"/>
<path d="M313.71 82.1499H310.14V92.7899H313.71V82.1499Z" fill="#8ABAF1"/>
<path d="M295.31 64.26H291.74V74.9H295.31V64.26Z" fill="#FF847C"/>
<path d="M313.71 64.26H310.14V74.9H313.71V64.26Z" fill="#FF847C"/>
<path d="M296.81 126.69C296.21 126.695 295.612 126.772 295.03 126.92C296.578 127.312 297.952 128.21 298.933 129.47C299.914 130.731 300.446 132.283 300.446 133.88C300.446 135.477 299.914 137.029 298.933 138.29C297.952 139.55 296.578 140.448 295.03 140.84C295.611 140.993 296.209 141.07 296.81 141.07C298.717 141.07 300.546 140.312 301.894 138.964C303.243 137.616 304 135.787 304 133.88C304 131.973 303.243 130.144 301.894 128.796C300.546 127.447 298.717 126.69 296.81 126.69V126.69Z" fill="#FFE8E8"/>
<path d="M291.74 117.93V124.55C292.85 123.947 294.059 123.547 295.31 123.37V117.93H291.74Z" fill="#ED6663"/>
<path d="M313.71 117.93H310.14V128.57H313.71V117.93Z" fill="#ED6663"/>
<path d="M274.29 60.72H167.45V142.5H274.29V60.72Z" fill="#6986C5"/>
<path d="M309.96 48.24H163.15C158.113 48.24 154.03 52.3232 154.03 57.36V145.85C154.03 150.887 158.113 154.97 163.15 154.97H309.96C314.997 154.97 319.08 150.887 319.08 145.85V57.36C319.08 52.3232 314.997 48.24 309.96 48.24Z" stroke="#472F40" stroke-miterlimit="10"/>
<path d="M274.29 60.72H167.45V142.5H274.29V60.72Z" stroke="#472F40" stroke-miterlimit="10"/>
<path d="M295.3 100.04H280.29V110.68H295.3V100.04Z" stroke="#472F40" stroke-miterlimit="10"/>
<path d="M313.7 100.04H298.69V110.68H313.7V100.04Z" stroke="#472F40" stroke-miterlimit="10"/>
<path d="M295.3 82.1499H280.29V92.7899H295.3V82.1499Z" stroke="#472F40" stroke-miterlimit="10"/>
<path d="M313.7 82.1499H298.69V92.7899H313.7V82.1499Z" stroke="#472F40" stroke-miterlimit="10"/>
<path d="M295.3 64.26H280.29V74.9H295.3V64.26Z" stroke="#472F40" stroke-miterlimit="10"/>
<path d="M313.7 64.26H298.69V74.9H313.7V64.26Z" stroke="#472F40" stroke-miterlimit="10"/>
<path d="M296.81 141.07C300.781 141.07 304 137.851 304 133.88C304 129.909 300.781 126.69 296.81 126.69C292.839 126.69 289.62 129.909 289.62 133.88C289.62 137.851 292.839 141.07 296.81 141.07Z" stroke="#472F40" stroke-miterlimit="10"/>
<path d="M295.31 123.37V117.93H280.31V128.57H287.63C288.434 127.179 289.542 125.988 290.872 125.087C292.203 124.187 293.72 123.599 295.31 123.37V123.37Z" stroke="#472F40" stroke-miterlimit="10"/>
<path d="M298.69 117.93V123.43C300.211 123.701 301.655 124.301 302.919 125.189C304.184 126.077 305.239 127.231 306.01 128.57H313.7V117.93H298.69Z" stroke="#472F40" stroke-miterlimit="10"/>
<path d="M177.75 155H295.37V158.7C295.37 161.548 294.238 164.28 292.224 166.294C290.21 168.308 287.478 169.44 284.63 169.44H188.49C185.642 169.44 182.91 168.308 180.896 166.294C178.882 164.28 177.75 161.548 177.75 158.7V155Z" stroke="#472F40" stroke-miterlimit="10"/>
<path d="M217.11 166.19C219.319 166.19 221.11 164.399 221.11 162.19C221.11 159.981 219.319 158.19 217.11 158.19C214.901 158.19 213.11 159.981 213.11 162.19C213.11 164.399 214.901 166.19 217.11 166.19Z" stroke="#472F40" stroke-miterlimit="10"/>
<path d="M236.56 166.19C238.769 166.19 240.56 164.399 240.56 162.19C240.56 159.981 238.769 158.19 236.56 158.19C234.351 158.19 232.56 159.981 232.56 162.19C232.56 164.399 234.351 166.19 236.56 166.19Z" stroke="#472F40" stroke-miterlimit="10"/>
<path d="M258.25 166.19C260.459 166.19 262.25 164.399 262.25 162.19C262.25 159.981 260.459 158.19 258.25 158.19C256.041 158.19 254.25 159.981 254.25 162.19C254.25 164.399 256.041 166.19 258.25 166.19Z" stroke="#472F40" stroke-miterlimit="10"/>
<path d="M173.44 68.51H183.32" stroke="#D2E3F9" stroke-width="2" stroke-linecap="round" stroke-linejoin="round"/>
<path d="M173.44 73.26H197.34" stroke="#D2E3F9" stroke-width="2" stroke-linecap="round" stroke-linejoin="round"/>
<path d="M173.44 78.02H188.83" stroke="#D2E3F9" stroke-width="2" stroke-linecap="round" stroke-linejoin="round"/>
<path d="M267.66 89.34H242.32L240.72 93.19L236.13 73.26L229.93 94.88L226.37 89.34H217.83L214.73 82.4L209.66 97.41L203.09 76.11L197.34 89.34H174.57" stroke="#D2E3F9" stroke-width="2" stroke-linecap="round" stroke-linejoin="round"/>
<path d="M174.57 122.69H187.83V107.92H201.34V122.69H213.7V107.92H229V122.69H242.04V107.92H262.12V122.69H267.66" stroke="#D2E3F9" stroke-width="2" stroke-linecap="round" stroke-linejoin="round"/>
<path d="M257.67 128.57H267.66" stroke="#D2E3F9" stroke-width="2" stroke-linecap="round" stroke-linejoin="round"/>
<path d="M267.66 132.32H251.52" stroke="#D2E3F9" stroke-width="2" stroke-linecap="round" stroke-linejoin="round"/>
<path d="M267.66 136.2H262.66" stroke="#D2E3F9" stroke-width="2" stroke-linecap="round" stroke-linejoin="round"/>
<path d="M34.8999 370.01H635.1" stroke="#472F40" stroke-linecap="round" stroke-linejoin="round"/>
<path d="M131.46 221.62C131.454 224.36 130.745 227.053 129.4 229.44C125.29 236.44 116.53 237.39 116.88 239.32C117.16 240.83 122.68 241.25 126.71 240.76C129.31 240.441 131.836 239.68 134.18 238.51C135.066 238.079 135.794 237.379 136.26 236.51L142.47 225.01L131.46 221.62Z" fill="#EAB292"/>
<path d="M130.54 227C130.97 227.28 131.61 227.69 132.42 228.17C134.18 229.17 134.58 229.26 134.92 229.73C135.81 230.95 134.92 233.01 134.48 234.05C133.465 236.297 131.754 238.159 129.6 239.36C128.066 240.243 126.362 240.792 124.6 240.97C125.33 240.97 126.06 240.89 126.75 240.8C129.35 240.481 131.876 239.72 134.22 238.55C135.106 238.118 135.834 237.419 136.3 236.55L142.51 225.05L131.51 221.64C131.474 223.467 131.147 225.276 130.54 227V227Z" fill="#D2A186"/>
<path d="M151.79 134.78C149.108 134.163 146.656 132.797 144.72 130.84C142.868 128.903 141.581 126.497 140.997 123.881C140.414 121.266 140.557 118.54 141.41 116C143.64 109.6 149.61 107.36 150.86 106.93C156.75 104.93 163.01 106.85 165.43 109.56C165.95 110.053 166.368 110.645 166.658 111.301C166.948 111.956 167.105 112.663 167.12 113.38C167.072 114.139 166.82 114.872 166.39 115.5C167.108 117.308 167.459 119.241 167.423 121.186C167.387 123.131 166.965 125.05 166.18 126.83C163.74 131.91 158 135.1 151.79 134.78Z" fill="#6D4558"/>
<path d="M151.79 134.78C149.108 134.163 146.656 132.797 144.72 130.84C142.868 128.903 141.581 126.497 140.997 123.881C140.414 121.266 140.557 118.54 141.41 116C143.64 109.6 149.61 107.36 150.86 106.93C156.75 104.93 163.01 106.85 165.43 109.56C165.95 110.053 166.368 110.645 166.658 111.301C166.948 111.956 167.105 112.663 167.12 113.38C167.072 114.139 166.82 114.872 166.39 115.5C167.108 117.308 167.459 119.241 167.423 121.186C167.387 123.131 166.965 125.05 166.18 126.83C163.74 131.91 158 135.1 151.79 134.78Z" stroke="#472F40" stroke-linecap="round" stroke-linejoin="round"/>
<path d="M164.68 142.1C163.271 140.182 162.546 137.848 162.62 135.47C164.034 135.242 165.385 134.725 166.59 133.951C167.794 133.176 168.826 132.162 169.62 130.97C171.62 127.68 171.35 123.12 169.5 120.58C168.486 119.424 167.622 118.143 166.93 116.77C166.54 115.944 166.229 115.084 166 114.2C165.634 114.101 165.251 114.084 164.878 114.15C164.505 114.216 164.15 114.362 163.84 114.58C161.26 116.68 165.77 125.46 163.84 126.58C163.663 126.665 163.465 126.697 163.27 126.67C161.19 126.57 161.18 121.62 158.77 120.85C157.38 120.41 155.47 121.44 154.7 122.98C154.31 123.87 154.24 124.867 154.502 125.803C154.765 126.738 155.344 127.553 156.14 128.11C157.122 128.744 158.314 128.97 159.46 128.74C159.407 130.078 158.943 131.366 158.13 132.43C155.9 135.25 152.13 134.84 151.82 134.8C152.309 135.736 152.627 136.752 152.76 137.8C153 140.016 152.47 142.248 151.26 144.12C154.136 145.491 157.426 145.713 160.46 144.74C162.042 144.178 163.483 143.277 164.68 142.1V142.1Z" fill="#EAB292"/>
<path d="M162.62 135.47C162.35 135.47 161.94 135.47 161.45 135.41C160.07 135.29 159.61 135.11 159.51 135.28C159.41 135.45 160.2 136.45 161.13 136.97C161.636 137.257 162.187 137.453 162.76 137.55C162.704 137.219 162.667 136.885 162.65 136.55C162.622 136.191 162.612 135.83 162.62 135.47Z" fill="#D2A186"/>
<path d="M164.68 142.1C163.271 140.182 162.546 137.848 162.62 135.47C164.034 135.242 165.385 134.725 166.59 133.951C167.794 133.176 168.826 132.162 169.62 130.97C171.62 127.68 171.35 123.12 169.5 120.58C168.486 119.424 167.622 118.143 166.93 116.77C166.54 115.944 166.229 115.084 166 114.2C165.634 114.101 165.251 114.084 164.878 114.15C164.505 114.216 164.15 114.362 163.84 114.58C161.26 116.68 165.77 125.46 163.84 126.58C163.663 126.665 163.465 126.697 163.27 126.67C161.19 126.57 161.18 121.62 158.77 120.85C157.38 120.41 155.47 121.44 154.7 122.98C154.31 123.87 154.24 124.867 154.502 125.803C154.765 126.738 155.344 127.553 156.14 128.11C157.122 128.744 158.314 128.97 159.46 128.74C159.407 130.078 158.943 131.366 158.13 132.43C155.9 135.25 152.13 134.84 151.82 134.8C152.309 135.736 152.627 136.752 152.76 137.8C153 140.016 152.47 142.248 151.26 144.12C154.136 145.491 157.426 145.713 160.46 144.74C162.042 144.178 163.483 143.277 164.68 142.1V142.1Z" stroke="#472F40" stroke-linecap="round" stroke-linejoin="round"/>
<path d="M238.13 172C250.757 163.833 257.44 160.223 258.18 161.17C258.687 161.837 256.277 164.747 250.95 169.9C251.13 171.202 251.082 172.525 250.81 173.81C249.21 181.3 240.4 184.45 239.32 184.81C238.12 182.922 237.386 180.776 237.179 178.549C236.972 176.321 237.298 174.076 238.13 172V172Z" fill="#EAB292"/>
<path d="M131.46 221.62C131.454 224.36 130.745 227.053 129.4 229.44C125.29 236.44 116.53 237.39 116.88 239.32C117.16 240.83 122.68 241.25 126.71 240.76C129.31 240.441 131.836 239.68 134.18 238.51C135.066 238.079 135.794 237.379 136.26 236.51L142.47 225.01L131.46 221.62Z" stroke="#472F40" stroke-linecap="round" stroke-linejoin="round"/>
<path d="M238.13 172C250.757 163.833 257.44 160.223 258.18 161.17C258.687 161.837 256.277 164.747 250.95 169.9C251.13 171.202 251.082 172.525 250.81 173.81C249.21 181.3 240.4 184.45 239.32 184.81C238.12 182.922 237.386 180.776 237.179 178.549C236.972 176.321 237.298 174.076 238.13 172V172Z" stroke="#472F40" stroke-linecap="round" stroke-linejoin="round"/>
<path d="M110.38 347.87C109.173 350.95 107.967 354.033 106.76 357.12C106.2 358.552 105.998 360.1 106.172 361.628C106.346 363.156 106.89 364.618 107.757 365.888C108.624 367.158 109.788 368.198 111.148 368.916C112.508 369.634 114.022 370.01 115.56 370.01H130.15C130.423 369.19 130.377 368.297 130.02 367.51C129.22 365.92 127.11 365.85 122.7 364.45C122.15 364.27 121.64 364.1 121.17 363.93C119.912 363.495 118.872 362.588 118.27 361.4V361.4L117.52 359.9C117.181 359.208 116.999 358.45 116.985 357.679C116.971 356.908 117.126 356.144 117.44 355.44L119.77 350.2L110.38 347.87Z" fill="#6D4558"/>
<path d="M230.87 352.75C232.037 355.79 233.203 358.833 234.37 361.88C246.597 363.62 252.75 365.567 252.83 367.72C252.827 367.931 252.782 368.14 252.698 368.334C252.614 368.528 252.492 368.703 252.34 368.85C251.971 369.23 251.528 369.53 251.037 369.73C250.546 369.929 250.02 370.025 249.49 370.01H229.37L218.86 354.87L230.87 352.75Z" fill="#6D4558"/>
<path d="M110.38 347.87C109.173 350.95 107.967 354.033 106.76 357.12C106.2 358.552 105.998 360.1 106.172 361.628C106.346 363.156 106.89 364.618 107.757 365.888C108.624 367.158 109.788 368.198 111.148 368.916C112.508 369.634 114.022 370.01 115.56 370.01H130.15C130.423 369.19 130.377 368.297 130.02 367.51C129.22 365.92 127.11 365.85 122.7 364.45C122.15 364.27 121.64 364.1 121.17 363.93C119.912 363.495 118.872 362.588 118.27 361.4V361.4L117.52 359.9C117.181 359.208 116.999 358.45 116.985 357.679C116.971 356.908 117.126 356.144 117.44 355.44L119.77 350.2L110.38 347.87Z" stroke="#472F40" stroke-linecap="round" stroke-linejoin="round"/>
<path d="M230.87 352.75C232.037 355.79 233.203 358.833 234.37 361.88C246.597 363.62 252.75 365.567 252.83 367.72C252.827 367.931 252.782 368.14 252.698 368.334C252.614 368.528 252.492 368.703 252.34 368.85C251.971 369.23 251.528 369.53 251.037 369.73C250.546 369.929 250.02 370.025 249.49 370.01H229.37L218.86 354.87L230.87 352.75Z" stroke="#472F40" stroke-linecap="round" stroke-linejoin="round"/>
<path d="M116.63 322.22C115.24 327.13 113.63 332.22 111.88 337.48C110.547 341.427 109.17 345.223 107.75 348.87C109.75 349.41 111.75 349.92 114.01 350.37C117.21 351.02 120.23 351.46 123.01 351.75C125.57 346.23 128.113 340.513 130.64 334.6C132.747 329.64 134.747 324.763 136.64 319.97L116.63 322.22Z" fill="#FF847C"/>
<path d="M219.49 309.2C220.78 315.33 222.38 321.82 224.37 328.6C226.865 337.124 229.785 345.518 233.12 353.75C231.586 354.495 229.999 355.124 228.37 355.63C225.045 356.645 221.586 357.151 218.11 357.13C213.462 349.466 209.203 341.573 205.35 333.48C201.8 326.03 198.83 318.89 196.35 312.21L219.49 309.2Z" fill="#FF847C"/>
<path d="M116.63 322.22C115.24 327.13 113.63 332.22 111.88 337.48C111.74 337.9 111.59 338.29 111.45 338.7C116.223 337.76 121.057 336.76 125.95 335.7L130.64 334.63C132.747 329.67 134.747 324.793 136.64 320L116.63 322.22Z" fill="#ED6663"/>
<path d="M219.49 309.2L196.34 312.2C198.78 318.76 201.7 325.75 205.15 333.05C210.831 332.66 216.263 330.569 220.74 327.05C221.633 326.322 222.475 325.534 223.26 324.69C221.78 319.31 220.53 314.13 219.49 309.2Z" fill="#ED6663"/>
<path d="M116.63 322.22C115.24 327.13 113.63 332.22 111.88 337.48C110.547 341.427 109.17 345.223 107.75 348.87C109.75 349.41 111.75 349.92 114.01 350.37C117.21 351.02 120.23 351.46 123.01 351.75C125.57 346.23 128.113 340.513 130.64 334.6C132.747 329.64 134.747 324.763 136.64 319.97L116.63 322.22Z" stroke="#472F40" stroke-linecap="round" stroke-linejoin="round"/>
<path d="M219.49 309.2C220.78 315.33 222.38 321.82 224.37 328.6C226.865 337.124 229.785 345.518 233.12 353.75C231.586 354.495 229.999 355.124 228.37 355.63C225.045 356.645 221.586 357.151 218.11 357.13C213.462 349.466 209.203 341.573 205.35 333.48C201.8 326.03 198.83 318.89 196.35 312.21L219.49 309.2Z" stroke="#472F40" stroke-linecap="round" stroke-linejoin="round"/>
<path d="M158.24 142.64C153.796 143.019 149.415 143.932 145.19 145.36C144.55 145.58 143.92 145.81 143.32 146.05C141.147 146.904 139.275 148.379 137.936 150.291C136.596 152.203 135.85 154.467 135.79 156.8C135.54 165.21 134.9 174.36 133.65 184.11C132.039 196.748 129.563 209.261 126.24 221.56C131.358 223.803 136.882 224.973 142.47 225C139.277 237.613 135.415 250.048 130.9 262.25C122.63 284.55 114.2 300.46 112.38 325.94C112.24 327.94 112.17 329.55 112.13 330.57C120.435 330.805 128.74 330.135 136.9 328.57C155.61 324.97 157.21 319.75 171.69 318.06C188.16 316.13 192.45 322.16 207.97 318.81C215.105 317.232 221.885 314.347 227.97 310.3C226.57 303.92 224.12 293.76 220.22 281.52C212.54 257.52 206.05 246.87 198.44 226.22C192.919 211.145 188.573 195.666 185.44 179.92C188.212 183.349 191.362 186.456 194.83 189.18C200.51 193.65 205.27 197.4 212.22 198.18C220.4 199.12 227.16 195.45 231.36 193.18C234.133 191.672 236.735 189.868 239.12 187.8C239.351 185.22 239.391 182.626 239.24 180.04C239.083 177.305 238.709 174.586 238.12 171.91L227 178.36C224.09 180.037 220.708 180.708 217.378 180.269C214.048 179.83 210.956 178.305 208.58 175.93L178.78 146.13C176.339 143.697 173.064 142.285 169.62 142.18C165.82 142.06 162.017 142.214 158.24 142.64V142.64Z" fill="#BAE8E0"/>
<path d="M161.05 307.14C160.89 306.87 158.05 302.24 156.17 302.82C154.17 303.45 155.72 309.45 153.92 314.82C152.52 319 148.57 324.33 136.92 328.58C143.831 327.295 150.552 325.137 156.92 322.16C159.116 321.243 160.901 319.554 161.938 317.411C162.975 315.269 163.193 312.822 162.55 310.53C162.197 309.341 161.693 308.201 161.05 307.14Z" fill="#9DDFD3"/>
<path d="M192.85 319.41C196.429 319.958 200.066 320.012 203.66 319.57C203.66 318.57 199.52 318.83 195.21 316.57C186.16 311.86 185.53 300.75 178.95 280.03C177.78 276.36 170.41 253.17 167.43 253.76C165.81 254.08 167.32 261.1 165.93 275.03C164.28 291.65 160.73 295.8 164.18 301.03C167.25 305.71 171.11 304.03 178.57 311.54L179.21 312.2C182.801 316.089 187.614 318.633 192.85 319.41V319.41Z" fill="#9DDFD3"/>
<path d="M198.46 226.25C192.939 211.175 188.593 195.695 185.46 179.95C184.72 179.13 183.58 177.82 182.27 176.14C179.05 172 178.4 170.19 177.58 170.32C176.12 170.54 175.22 176.66 175.89 182.71C176.89 191.98 181.11 196.15 185.65 204.71C193.23 218.91 189.41 222.01 196.54 236.24C200.321 243.678 205.195 250.507 211 256.5C206.87 246.76 202.85 238.17 198.46 226.25Z" fill="#9DDFD3"/>
<path d="M146.82 167.67C146.73 167.21 146.36 165.4 145.35 165.19C144.997 165.145 144.64 165.234 144.35 165.44C141.26 167.44 143.69 185.52 143.69 185.52C144.83 193.96 143.84 206.52 133.79 224.04C135.275 224.374 136.777 224.624 138.29 224.79C139.8 224.95 141.2 225.02 142.47 225.03C147.767 206.398 149.247 186.888 146.82 167.67V167.67Z" fill="#9DDFD3"/>
<path d="M158.24 142.64C153.796 143.019 149.415 143.932 145.19 145.36C144.55 145.58 143.92 145.81 143.32 146.05C141.147 146.904 139.275 148.379 137.936 150.291C136.596 152.203 135.85 154.467 135.79 156.8C135.54 165.21 134.9 174.36 133.65 184.11C132.039 196.748 129.563 209.261 126.24 221.56C131.358 223.803 136.882 224.973 142.47 225C139.277 237.613 135.415 250.048 130.9 262.25C122.63 284.55 114.2 300.46 112.38 325.94C112.24 327.94 112.17 329.55 112.13 330.57C120.435 330.805 128.74 330.135 136.9 328.57C155.61 324.97 157.21 319.75 171.69 318.06C188.16 316.13 192.45 322.16 207.97 318.81C215.105 317.232 221.885 314.347 227.97 310.3C226.57 303.92 224.12 293.76 220.22 281.52C212.54 257.52 206.05 246.87 198.44 226.22C192.919 211.145 188.573 195.666 185.44 179.92C188.212 183.349 191.362 186.456 194.83 189.18C200.51 193.65 205.27 197.4 212.22 198.18C220.4 199.12 227.16 195.45 231.36 193.18C234.133 191.672 236.735 189.868 239.12 187.8C239.351 185.22 239.391 182.626 239.24 180.04C239.083 177.305 238.709 174.586 238.12 171.91L227 178.36C224.09 180.037 220.708 180.708 217.378 180.269C214.048 179.83 210.956 178.305 208.58 175.93L178.78 146.13C176.339 143.697 173.064 142.285 169.62 142.18C165.82 142.06 162.017 142.214 158.24 142.64V142.64Z" stroke="#472F40" stroke-linecap="round" stroke-linejoin="round"/>
<path d="M142.47 225C143.47 221.49 144.39 217.81 145.16 214C148.777 195.665 148.862 176.807 145.41 158.44" stroke="#472F40" stroke-linecap="round" stroke-linejoin="round"/>
<path d="M150 207.11C160.269 208.842 170.809 207.979 180.66 204.6" stroke="#472F40" stroke-linecap="round" stroke-linejoin="round"/>
<path d="M146.19 112.88C146.511 112.63 146.88 112.448 147.273 112.345C147.667 112.241 148.078 112.219 148.48 112.28C150.48 112.69 151.27 115.89 151.34 117.77C151.44 120.53 150.13 124.01 148.29 124.15C147.854 124.116 147.432 123.985 147.053 123.767C146.674 123.549 146.349 123.25 146.1 122.89L146.19 112.88Z" fill="#FFBF8A"/>
<path d="M146.19 112.88C146.511 112.63 146.88 112.448 147.273 112.345C147.667 112.241 148.078 112.219 148.48 112.28C150.48 112.69 151.27 115.89 151.34 117.77C151.44 120.53 150.13 124.01 148.29 124.15C147.854 124.116 147.432 123.985 147.053 123.767C146.674 123.549 146.349 123.25 146.1 122.89L146.19 112.88Z" stroke="#472F40" stroke-linecap="round" stroke-linejoin="round"/>
<path d="M146.91 122.15C145.992 122.876 145.245 123.794 144.72 124.84C140.82 132.78 154.43 141.68 152.04 152.4C150.91 157.51 146.51 161.34 142.28 162.91C133.78 166.06 125.94 160.05 125.39 159.62C131.15 155.86 132.99 152.14 133.58 149.37C135.75 139.1 122.82 131.95 124.92 118.89C125.281 116.044 126.531 113.385 128.49 111.29C131.23 108.47 136.55 105.83 141.35 108.01C143.833 109.255 145.747 111.401 146.7 114.01C146.88 113.903 147.081 113.833 147.289 113.806C147.497 113.778 147.708 113.793 147.91 113.85C149.81 114.62 149.53 121.85 147.77 122.32C147.472 122.379 147.163 122.318 146.91 122.15V122.15Z" fill="#6D4558"/>
<path d="M142.28 162.91C146.51 161.34 150.91 157.51 152.04 152.4C154.37 141.97 140.73 132.89 144.72 124.84C145.012 124.247 145.382 123.695 145.82 123.2C144.609 124.364 143.664 125.777 143.05 127.34C139.92 135.53 149.05 142.1 146.77 151.84C146.007 154.975 144.254 157.78 141.77 159.84C138.959 161.988 135.485 163.085 131.95 162.94C135.299 164.09 138.938 164.079 142.28 162.91V162.91Z" fill="#472F40"/>
<path d="M146.91 122.15C145.992 122.876 145.245 123.794 144.72 124.84C140.82 132.78 154.43 141.68 152.04 152.4C150.91 157.51 146.51 161.34 142.28 162.91C133.78 166.06 125.94 160.05 125.39 159.62C131.15 155.86 132.99 152.14 133.58 149.37C135.75 139.1 122.82 131.95 124.92 118.89C125.281 116.044 126.531 113.385 128.49 111.29C131.23 108.47 136.55 105.83 141.35 108.01C143.833 109.255 145.747 111.401 146.7 114.01C146.88 113.903 147.081 113.833 147.289 113.806C147.497 113.778 147.708 113.793 147.91 113.85C149.81 114.62 149.53 121.85 147.77 122.32C147.472 122.379 147.163 122.318 146.91 122.15V122.15Z" stroke="#472F40" stroke-linecap="round" stroke-linejoin="round"/>
<path d="M523.6 134.27C523.683 133.466 523.83 132.67 524.04 131.89C526.04 124.51 532.4 122.46 532.04 117.77C531.966 116.549 531.425 115.404 530.53 114.57C529.577 113.836 528.376 113.499 527.18 113.63C527.83 112.898 528.211 111.967 528.26 110.99C528.26 109.92 527.92 108.45 527.26 108.35C526.6 108.25 525.74 109.56 525.05 111.5C524.63 109.6 523.72 106.97 521.47 105.71C519.22 104.45 517.41 105.81 513.47 104.95C509.07 103.95 508.81 101.66 505.83 101.6C502.39 101.54 498.27 104.6 497.31 108.82C496.24 113.53 499.31 118.82 504.7 120.39C504.7 121 504.36 127.83 509.96 132.25C516 137 523.24 134.41 523.6 134.27Z" fill="#FFBF8A"/>
<path d="M532 117.77C531.926 116.549 531.385 115.404 530.49 114.57C529.537 113.836 528.336 113.499 527.14 113.63C527.79 112.899 528.171 111.967 528.22 110.99C528.22 109.92 527.88 108.45 527.22 108.35C526.56 108.25 525.7 109.56 525.01 111.5C524.59 109.6 523.68 106.97 521.43 105.71C519.18 104.45 517.37 105.81 513.43 104.95C512.68 104.795 511.95 104.56 511.25 104.25V104.25C512.29 105.478 513.596 106.453 515.07 107.1C517.7 108.23 518.83 107.34 520.2 108.46C522.39 110.24 520.41 113.28 522.74 115.46C524.22 116.84 526.09 116.64 527.02 118.61C527.237 119.082 527.362 119.591 527.39 120.11C527.49 122.51 525.11 124.11 523.62 125.83C522.38 127.31 521.01 129.83 520.86 134.2C520.879 134.437 520.923 134.672 520.99 134.9C521.868 134.772 522.732 134.561 523.57 134.27C523.653 133.466 523.8 132.67 524.01 131.89C526 124.51 532.4 122.46 532 117.77Z" fill="#FF847C"/>
<path d="M482.25 356.19C480.123 360.803 477.987 365.41 475.84 370.01H456.05C455.816 370.011 455.588 369.939 455.398 369.803C455.208 369.667 455.065 369.474 454.991 369.253C454.917 369.031 454.914 368.791 454.984 368.568C455.054 368.345 455.193 368.15 455.38 368.01C457.207 366.656 459.23 365.591 461.38 364.85C465.51 363.45 468.25 363.94 470.68 361.71C472.257 360.12 473.233 358.03 473.44 355.8L482.25 356.19Z" fill="#6D4558"/>
<path d="M564.72 354.68C566.093 358.053 567.467 361.42 568.84 364.78C569.074 365.357 569.163 365.982 569.099 366.602C569.035 367.221 568.819 367.815 568.472 368.332C568.124 368.848 567.655 369.271 567.105 369.564C566.556 369.857 565.943 370.01 565.32 370.01H549.76C549.491 370.011 549.228 369.927 549.01 369.77C548.791 369.612 548.629 369.39 548.545 369.134C548.462 368.878 548.462 368.602 548.546 368.346C548.629 368.09 548.792 367.867 549.01 367.71L549.13 367.63C554.39 364.02 559.27 365.25 560.32 362.97C560.75 362.03 560.56 360.39 557.93 357.32L564.72 354.68Z" fill="#6D4558"/>
<path d="M482.25 356.19C480.123 360.803 477.987 365.41 475.84 370.01H456.05C455.816 370.011 455.588 369.939 455.398 369.803C455.208 369.667 455.065 369.474 454.991 369.253C454.917 369.031 454.914 368.791 454.984 368.568C455.054 368.345 455.193 368.15 455.38 368.01C457.207 366.656 459.23 365.591 461.38 364.85C465.51 363.45 468.25 363.94 470.68 361.71C472.257 360.12 473.233 358.03 473.44 355.8L482.25 356.19Z" stroke="#472F40" stroke-linecap="round" stroke-linejoin="round"/>
<path d="M564.72 354.68C566.093 358.053 567.467 361.42 568.84 364.78C569.074 365.357 569.163 365.982 569.099 366.602C569.035 367.221 568.819 367.815 568.472 368.332C568.124 368.848 567.655 369.271 567.105 369.564C566.556 369.857 565.943 370.01 565.32 370.01H549.76C549.491 370.011 549.228 369.927 549.01 369.77C548.791 369.612 548.629 369.39 548.545 369.134C548.462 368.878 548.462 368.602 548.546 368.346C548.629 368.09 548.792 367.867 549.01 367.71L549.13 367.63C554.39 364.02 559.27 365.25 560.32 362.97C560.75 362.03 560.56 360.39 557.93 357.32L564.72 354.68Z" stroke="#472F40" stroke-linecap="round" stroke-linejoin="round"/>
<path d="M555.46 205.24L553.72 207.92C558.387 213.033 560.387 215.987 559.72 216.78C559.054 217.573 555.114 215.833 547.9 211.56C547.78 207.79 547.65 204.02 547.53 200.25C548.46 199.791 549.5 199.601 550.532 199.702C551.564 199.803 552.547 200.19 553.37 200.82C554.025 201.355 554.553 202.029 554.914 202.794C555.276 203.559 555.462 204.394 555.46 205.24Z" fill="#B18D7B"/>
<path d="M555.46 205.24L553.72 207.92C558.387 213.033 560.387 215.987 559.72 216.78C559.054 217.573 555.114 215.833 547.9 211.56C547.78 207.79 547.65 204.02 547.53 200.25C548.46 199.791 549.5 199.601 550.532 199.702C551.564 199.803 552.547 200.19 553.37 200.82C554.025 201.355 554.553 202.029 554.914 202.794C555.276 203.559 555.462 204.394 555.46 205.24Z" stroke="#472F40" stroke-linecap="round" stroke-linejoin="round"/>
<path d="M502.74 207.1C502.2 209.57 501.66 212.1 501.11 214.52C490.37 262.84 478.637 310.273 465.91 356.82C468.227 357.206 470.564 357.457 472.91 357.57C476.521 357.734 480.139 357.566 483.72 357.07C491.307 341.63 497.777 325.666 503.08 309.3C508.44 292.66 512.08 277.14 522.19 247.45C523.76 242.85 525.09 239.08 525.96 236.64C524.98 239.393 524.007 242.173 523.04 244.98C522.12 247.63 521.23 250.26 520.35 252.88C521.35 258.56 522.67 265.83 524.58 274.23C527.524 287.963 531.386 301.484 536.14 314.7C540.14 325.78 545.91 340.58 553.71 357.83C555.025 358.118 556.364 358.282 557.71 358.32C561.089 358.401 564.442 357.718 567.52 356.32C564.68 347.77 560.95 335.83 557.21 321.38C552.88 304.66 550.72 296.29 549.79 288.19C547.05 264.29 552.79 256.76 551.3 226.34C550.86 217.74 550.02 210.78 549.42 206.48C533.881 204.432 518.128 204.645 502.65 207.11L502.74 207.1Z" fill="#BAE8E0"/>
<path d="M532.9 223.8C530.396 225.679 528.02 227.723 525.79 229.92C491 264.2 511.38 314.1 478.27 353.42C476.5 355.52 474.99 357.1 474.52 357.6C477.609 357.666 480.699 357.489 483.76 357.07C491.347 341.63 497.817 325.666 503.12 309.3C508.48 292.66 512.12 277.14 522.23 247.45L523.06 245.02C522.147 247.687 521.257 250.307 520.39 252.88L532.9 223.8ZM526 236.64C525.027 239.38 524.057 242.143 523.09 244.93C524.29 241.48 525.3 238.62 526 236.64Z" fill="#9DDFD3"/>
<path d="M523.6 134.27C523.683 133.466 523.83 132.67 524.04 131.89C526.04 124.51 532.4 122.46 532.04 117.77C531.966 116.549 531.425 115.404 530.53 114.57C529.577 113.836 528.376 113.499 527.18 113.63C527.83 112.898 528.211 111.967 528.26 110.99C528.26 109.92 527.92 108.45 527.26 108.35C526.6 108.25 525.74 109.56 525.05 111.5C524.63 109.6 523.72 106.97 521.47 105.71C519.22 104.45 517.41 105.81 513.47 104.95C509.07 103.95 508.81 101.66 505.83 101.6C502.39 101.54 498.27 104.6 497.31 108.82C496.24 113.53 499.31 118.82 504.7 120.39C504.7 121 504.36 127.83 509.96 132.25C516 137 523.24 134.41 523.6 134.27Z" stroke="#472F40" stroke-linecap="round" stroke-linejoin="round"/>
<path d="M510.35 144.22C511.139 142.767 511.808 141.252 512.35 139.69C512.89 138.123 513.298 136.514 513.57 134.88C509.07 136.1 504.7 134.76 502.87 131.82C501.929 130.093 501.598 128.099 501.93 126.16C502.23 124.64 502.86 123.96 504.24 121.31C505.24 119.31 505.97 117.71 506.41 116.64C507.057 116.657 507.676 116.909 508.15 117.35C509.2 118.35 509.15 120.57 507.82 122.53C508.085 122.88 508.406 123.184 508.77 123.43C509.169 123.703 509.617 123.897 510.09 124C510.082 123.195 510.348 122.411 510.844 121.777C511.34 121.143 512.037 120.696 512.82 120.51C514.82 120.18 516.6 122.11 516.64 124.04C516.581 125.096 516.105 126.085 515.318 126.792C514.531 127.498 513.496 127.864 512.44 127.81C512.129 128.525 512.062 129.323 512.25 130.08C512.45 130.78 512.99 131.65 514.94 132.62C517.659 133.86 520.636 134.426 523.62 134.27C523.585 134.836 523.585 135.404 523.62 135.97C523.748 138.204 524.34 140.388 525.36 142.38C523.217 143.925 520.719 144.905 518.096 145.226C515.474 145.548 512.813 145.202 510.36 144.22H510.35Z" fill="#B18D7B"/>
<path d="M510.35 144.22C511.139 142.767 511.808 141.252 512.35 139.69C512.89 138.123 513.298 136.514 513.57 134.88C509.07 136.1 504.7 134.76 502.87 131.82C501.929 130.093 501.598 128.099 501.93 126.16C502.23 124.64 502.86 123.96 504.24 121.31C505.24 119.31 505.97 117.71 506.41 116.64C507.057 116.657 507.676 116.909 508.15 117.35C509.2 118.35 509.15 120.57 507.82 122.53C508.085 122.88 508.406 123.184 508.77 123.43C509.169 123.703 509.617 123.897 510.09 124C510.082 123.195 510.348 122.411 510.844 121.777C511.34 121.143 512.037 120.696 512.82 120.51C514.82 120.18 516.6 122.11 516.64 124.04C516.581 125.096 516.105 126.085 515.318 126.792C514.531 127.498 513.496 127.864 512.44 127.81C512.129 128.525 512.062 129.323 512.25 130.08C512.45 130.78 512.99 131.65 514.94 132.62C517.659 133.86 520.636 134.426 523.62 134.27C523.585 134.836 523.585 135.404 523.62 135.97C523.748 138.204 524.34 140.388 525.36 142.38C523.217 143.925 520.719 144.905 518.096 145.226C515.474 145.548 512.813 145.202 510.36 144.22H510.35Z" stroke="#472F40" stroke-linecap="round" stroke-linejoin="round"/>
<path d="M529.35 143.05C528.83 142.33 528.35 141.57 527.79 140.78L527.1 139.71C526.937 139.45 526.707 139.238 526.435 139.097C526.162 138.957 525.856 138.892 525.55 138.91L517.84 139.46L510.43 140.01C510.205 140.029 509.989 140.107 509.804 140.237C509.62 140.367 509.473 140.544 509.38 140.75L508.09 143.56C515.137 144.849 522.373 144.675 529.35 143.05V143.05Z" fill="#8ABAF1"/>
<path d="M529.35 143.05C528.83 142.33 528.35 141.57 527.79 140.78L527.1 139.71C526.937 139.45 526.707 139.238 526.435 139.097C526.162 138.957 525.856 138.892 525.55 138.91L517.84 139.46L510.43 140.01C510.205 140.029 509.989 140.107 509.804 140.237C509.62 140.367 509.473 140.544 509.38 140.75L508.09 143.56C515.137 144.849 522.373 144.675 529.35 143.05V143.05Z" stroke="#472F40" stroke-linecap="round" stroke-linejoin="round"/>
<path d="M547.75 344.12C545.66 333.864 543.05 323.721 539.93 313.73C536 301.19 534.48 299.26 533.24 291.48C531.61 281.39 533.49 280.41 532.86 262.73C532.27 246.33 530.61 245.68 532.1 238.73C534.5 227.5 540.89 219.3 539.55 218.36C539.12 218.06 537.99 218.55 535.26 221.14C533.39 223.085 531.715 225.208 530.26 227.48C528.6 230.09 527.49 232.48 524.93 239.68C524.31 241.44 523.69 243.19 523.07 244.97C523.35 244.19 523.61 243.42 523.86 242.7C522.93 245.37 521.74 248.8 520.4 252.84C520.98 251.107 521.583 249.323 522.21 247.49L523.04 245.06C522.127 247.727 521.237 250.347 520.37 252.92C521.37 258.6 522.69 265.87 524.6 274.27C527.544 288.003 531.406 301.524 536.16 314.74C539.09 322.72 542.91 332.69 547.75 344.12Z" fill="#9DDFD3"/>
<path d="M502.74 207.1C502.2 209.57 501.66 212.1 501.11 214.52C490.37 262.84 478.637 310.273 465.91 356.82C468.227 357.206 470.564 357.457 472.91 357.57C476.521 357.734 480.139 357.566 483.72 357.07C491.307 341.63 497.777 325.666 503.08 309.3C508.44 292.66 512.08 277.14 522.19 247.45C523.76 242.85 525.09 239.08 525.96 236.64C524.98 239.393 524.007 242.173 523.04 244.98C522.12 247.63 521.23 250.26 520.35 252.88C521.35 258.56 522.67 265.83 524.58 274.23C527.524 287.963 531.386 301.484 536.14 314.7C540.14 325.78 545.91 340.58 553.71 357.83C555.025 358.118 556.364 358.282 557.71 358.32C561.089 358.401 564.442 357.718 567.52 356.32C564.68 347.77 560.95 335.83 557.21 321.38C552.88 304.66 550.72 296.29 549.79 288.19C547.05 264.29 552.79 256.76 551.3 226.34C550.86 217.74 550.02 210.78 549.42 206.48C533.881 204.432 518.128 204.645 502.65 207.11L502.74 207.1Z" stroke="#472F40" stroke-linecap="round" stroke-linejoin="round"/>
<path d="M567.23 190.63C564.636 196.168 561.317 201.337 557.36 206C555.221 205.308 553.221 204.245 551.45 202.86C550.509 202.115 549.639 201.285 548.85 200.38C548.63 198.58 548.387 196.767 548.12 194.94C550.229 192.606 551.92 189.927 553.12 187.02C554.37 184.02 556.27 179.4 554.88 174.83C552.47 166.83 541.88 164.74 541.43 164.64C544.366 174.569 546.592 184.695 548.09 194.94L548.81 200.36C549.07 202.43 549.28 204.47 549.46 206.48C534.102 210.063 518.15 210.278 502.7 207.11C503.69 200.031 503.901 192.865 503.33 185.74C502.957 181.044 502.241 176.382 501.19 171.79C499.05 175.263 496.897 178.73 494.73 182.19C484.85 198.1 460.85 195.32 454.96 177.54C452.45 170.01 449.51 162.11 446.01 153.94C444.09 149.473 442.133 145.18 440.14 141.06C441.358 139.77 442.668 138.57 444.06 137.47C445.927 135.988 447.937 134.695 450.06 133.61C453.96 140.99 456.71 149.04 461.06 159.22C462.35 162.22 464.06 166.13 466.28 170.71C466.812 171.808 467.628 172.744 468.645 173.419C469.661 174.095 470.84 174.485 472.059 174.549C473.278 174.613 474.491 174.35 475.573 173.785C476.655 173.221 477.566 172.376 478.21 171.34L488.57 154.6C490.381 151.666 492.828 149.176 495.731 147.315C498.634 145.455 501.918 144.27 505.34 143.85L507.07 143.66C508.43 143.53 511.99 143.18 517 143.07C525 142.88 531.22 142.73 538.31 144.13C544.437 145.154 550.32 147.308 555.66 150.48C560.55 153.48 570.47 159.57 572.38 170.09C573.68 176.88 571 182.54 567.23 190.63Z" fill="#8ABAF1"/>
<path d="M548.12 194.91C546.622 184.665 544.396 174.539 541.46 164.61C541.24 163.68 541.02 162.71 540.82 161.71C540.62 160.71 540.41 159.59 540.25 158.58C540.25 157.88 540.31 154.68 539.18 154.35C539.011 154.326 538.84 154.338 538.676 154.385C538.513 154.431 538.361 154.511 538.23 154.62C535.5 156.54 537.86 168.32 537.86 168.32C539.86 178.54 541.39 178.18 542.26 184.41C542.82 188.5 544 196.97 538.99 203.65C537.251 205.915 535.022 207.758 532.47 209.04C538.195 208.629 543.879 207.77 549.47 206.47C549.29 204.47 549.08 202.42 548.82 200.35L548.12 194.91Z" fill="#6986C5"/>
<path d="M450.14 133.6C448.017 134.685 446.007 135.978 444.14 137.46C442.748 138.56 441.438 139.76 440.22 141.05C438.81 138.12 437.37 135.28 435.94 132.54C435.557 131.821 435.342 131.025 435.31 130.211C435.279 129.397 435.433 128.586 435.76 127.84L437.38 124.08C437.532 123.747 437.605 123.383 437.593 123.017C437.581 122.651 437.484 122.292 437.31 121.97L435.51 118.57C435.402 118.366 435.344 118.14 435.34 117.91C435.341 117.612 435.444 117.323 435.63 117.09C435.746 116.931 435.895 116.798 436.067 116.701C436.239 116.605 436.43 116.546 436.626 116.53C436.823 116.514 437.02 116.541 437.206 116.608C437.391 116.675 437.56 116.782 437.7 116.92C438.53 117.73 439.53 118.75 440.64 119.92C444.385 124.05 447.578 128.648 450.14 133.6Z" fill="#B18D7B"/>
<path d="M450.14 133.6C448.017 134.685 446.007 135.978 444.14 137.46C442.748 138.56 441.438 139.76 440.22 141.05C438.81 138.12 437.37 135.28 435.94 132.54C435.557 131.821 435.342 131.025 435.31 130.211C435.279 129.397 435.433 128.586 435.76 127.84L437.38 124.08C437.532 123.747 437.605 123.383 437.593 123.017C437.581 122.651 437.484 122.292 437.31 121.97L435.51 118.57C435.402 118.366 435.344 118.14 435.34 117.91C435.341 117.612 435.444 117.323 435.63 117.09C435.746 116.931 435.895 116.798 436.067 116.701C436.239 116.605 436.43 116.546 436.626 116.53C436.823 116.514 437.02 116.541 437.206 116.608C437.391 116.675 437.56 116.782 437.7 116.92C438.53 117.73 439.53 118.75 440.64 119.92C444.385 124.05 447.578 128.648 450.14 133.6Z" stroke="#472F40" stroke-linecap="round" stroke-linejoin="round"/>
<path d="M526 236.64C526.533 234.955 527.177 233.308 527.93 231.71C530.245 226.854 533.501 222.507 537.51 218.92" stroke="#472F40" stroke-linecap="round" stroke-linejoin="round"/>
<path d="M548.85 200.35L548.13 194.93C548.397 196.75 548.637 198.557 548.85 200.35Z" stroke="#472F40" stroke-linecap="round" stroke-linejoin="round"/>
<path d="M450.15 133.6H450.14" stroke="#472F40" stroke-linecap="round" stroke-linejoin="round"/>
<path d="M541.4 164.24C541.13 163.15 540.87 162.02 540.64 160.84C540.06 157.832 539.683 154.788 539.51 151.73" stroke="#472F40" stroke-linecap="round" stroke-linejoin="round"/>
<path d="M557.36 206C561.314 201.346 564.633 196.188 567.23 190.66C571.03 182.57 573.68 176.91 572.45 170.11C570.54 159.59 560.62 153.51 555.73 150.5C552.712 148.656 549.486 147.176 546.12 146.09C549.881 147.754 553.402 149.913 556.59 152.51C560.65 155.565 563.994 159.469 566.39 163.95C567.8 166.71 569.45 169.95 569.53 174.13C569.72 183.52 561.83 186.84 558.35 200.78C557.916 202.499 557.585 204.242 557.36 206Z" fill="#6986C5"/>
<path d="M485.06 186.55C478.94 190.2 470.31 188.28 465.2 185.17C459.57 181.74 458.37 176.95 452.75 164.93C450 159.04 445.9 150.78 440.18 141.05C442.18 145.157 444.137 149.45 446.05 153.93C449.55 162.1 452.49 170 455 177.53C460.89 195.31 484.89 198.09 494.77 182.18C496.93 178.713 499.083 175.247 501.23 171.78C500.588 171.429 499.872 171.233 499.14 171.21C493.63 171.12 492.47 182.14 485.06 186.55Z" fill="#6986C5"/>
<path d="M567.23 190.63C564.636 196.168 561.317 201.337 557.36 206C555.221 205.308 553.221 204.245 551.45 202.86C550.509 202.115 549.639 201.285 548.85 200.38C548.63 198.58 548.387 196.767 548.12 194.94C550.229 192.606 551.92 189.927 553.12 187.02C554.37 184.02 556.27 179.4 554.88 174.83C552.47 166.83 541.88 164.74 541.43 164.64C544.366 174.569 546.592 184.695 548.09 194.94L548.81 200.36C549.07 202.43 549.28 204.47 549.46 206.48C534.102 210.063 518.15 210.278 502.7 207.11C503.69 200.031 503.901 192.865 503.33 185.74C502.957 181.044 502.241 176.382 501.19 171.79C499.05 175.263 496.897 178.73 494.73 182.19C484.85 198.1 460.85 195.32 454.96 177.54C452.45 170.01 449.51 162.11 446.01 153.94C444.09 149.473 442.133 145.18 440.14 141.06C441.358 139.77 442.668 138.57 444.06 137.47C445.927 135.988 447.937 134.695 450.06 133.61C453.96 140.99 456.71 149.04 461.06 159.22C462.35 162.22 464.06 166.13 466.28 170.71C466.812 171.808 467.628 172.744 468.645 173.419C469.661 174.095 470.84 174.485 472.059 174.549C473.278 174.613 474.491 174.35 475.573 173.785C476.655 173.221 477.566 172.376 478.21 171.34L488.57 154.6C490.381 151.666 492.828 149.176 495.731 147.315C498.634 145.455 501.918 144.27 505.34 143.85L507.07 143.66C508.43 143.53 511.99 143.18 517 143.07C525 142.88 531.22 142.73 538.31 144.13C544.437 145.154 550.32 147.308 555.66 150.48C560.55 153.48 570.47 159.57 572.38 170.09C573.68 176.88 571 182.54 567.23 190.63Z" stroke="#472F40" stroke-linecap="round" stroke-linejoin="round"/>
<path d="M271.88 263.67H260.1V356.26H271.88V263.67Z" fill="#8ABAF1"/>
<path d="M323.32 263.67H271.88V356.26H323.32V263.67Z" fill="#D2E3F9"/>
<path d="M271.88 263.67H260.1V356.26H271.88V263.67Z" stroke="#472F40" stroke-linecap="round" stroke-linejoin="round"/>
<path d="M323.32 263.67H271.88V356.26H323.32V263.67Z" stroke="#472F40" stroke-linecap="round" stroke-linejoin="round"/>
<path d="M329.33 256.5H256.51C254.699 256.5 253.23 257.969 253.23 259.78V260.39C253.23 262.202 254.699 263.67 256.51 263.67H329.33C331.141 263.67 332.61 262.202 332.61 260.39V259.78C332.61 257.969 331.141 256.5 329.33 256.5Z" fill="#8ABAF1"/>
<path d="M329.33 302.8H256.51C254.699 302.8 253.23 304.269 253.23 306.08V306.69C253.23 308.502 254.699 309.97 256.51 309.97H329.33C331.141 309.97 332.61 308.502 332.61 306.69V306.08C332.61 304.269 331.141 302.8 329.33 302.8Z" fill="#8ABAF1"/>
<path d="M329.33 349.09H256.51C254.699 349.09 253.23 350.559 253.23 352.37V352.98C253.23 354.792 254.699 356.26 256.51 356.26H329.33C331.141 356.26 332.61 354.792 332.61 352.98V352.37C332.61 350.559 331.141 349.09 329.33 349.09Z" fill="#8ABAF1"/>
<path d="M268 260.08C268.003 259.13 268.382 258.219 269.055 257.548C269.728 256.877 270.64 256.5 271.59 256.5H256.81C255.892 256.549 255.027 256.947 254.395 257.614C253.762 258.281 253.409 259.166 253.409 260.085C253.409 261.004 253.762 261.889 254.395 262.556C255.027 263.223 255.892 263.622 256.81 263.67H271.54C270.597 263.657 269.696 263.273 269.034 262.601C268.371 261.929 268 261.024 268 260.08V260.08Z" fill="#D2E3F9"/>
<path d="M268 306.38C268 305.909 268.093 305.443 268.273 305.008C268.454 304.573 268.719 304.178 269.052 303.845C269.386 303.513 269.781 303.249 270.217 303.07C270.652 302.89 271.119 302.799 271.59 302.8H256.81C255.861 302.8 254.95 303.177 254.279 303.849C253.607 304.52 253.23 305.431 253.23 306.38C253.23 307.33 253.607 308.24 254.279 308.912C254.95 309.583 255.861 309.96 256.81 309.96H271.54C270.597 309.95 269.697 309.568 269.034 308.897C268.372 308.227 268 307.323 268 306.38Z" fill="#D2E3F9"/>
<path d="M268 352.67C268.003 351.72 268.382 350.809 269.055 350.138C269.728 349.467 270.64 349.09 271.59 349.09H256.81C255.892 349.139 255.027 349.537 254.395 350.204C253.762 350.871 253.409 351.756 253.409 352.675C253.409 353.594 253.762 354.479 254.395 355.146C255.027 355.813 255.892 356.212 256.81 356.26H271.54C270.597 356.247 269.696 355.863 269.034 355.191C268.371 354.519 268 353.614 268 352.67V352.67Z" fill="#D2E3F9"/>
<path d="M329.33 256.5H256.51C254.699 256.5 253.23 257.969 253.23 259.78V260.39C253.23 262.202 254.699 263.67 256.51 263.67H329.33C331.141 263.67 332.61 262.202 332.61 260.39V259.78C332.61 257.969 331.141 256.5 329.33 256.5Z" stroke="#472F40" stroke-linecap="round" stroke-linejoin="round"/>
<path d="M329.33 302.8H256.51C254.699 302.8 253.23 304.269 253.23 306.08V306.69C253.23 308.502 254.699 309.97 256.51 309.97H329.33C331.141 309.97 332.61 308.502 332.61 306.69V306.08C332.61 304.269 331.141 302.8 329.33 302.8Z" stroke="#472F40" stroke-linecap="round" stroke-linejoin="round"/>
<path d="M329.33 349.09H256.51C254.699 349.09 253.23 350.559 253.23 352.37V352.98C253.23 354.792 254.699 356.26 256.51 356.26H329.33C331.141 356.26 332.61 354.792 332.61 352.98V352.37C332.61 350.559 331.141 349.09 329.33 349.09Z" stroke="#472F40" stroke-linecap="round" stroke-linejoin="round"/>
<path d="M271.71 370.01C274.51 370.01 276.78 367.74 276.78 364.94C276.78 362.14 274.51 359.87 271.71 359.87C268.91 359.87 266.64 362.14 266.64 364.94C266.64 367.74 268.91 370.01 271.71 370.01Z" fill="#6986C5"/>
<path d="M314.12 370.01C316.92 370.01 319.19 367.74 319.19 364.94C319.19 362.14 316.92 359.87 314.12 359.87C311.32 359.87 309.05 362.14 309.05 364.94C309.05 367.74 311.32 370.01 314.12 370.01Z" fill="#6986C5"/>
<path d="M271.71 370.01C274.51 370.01 276.78 367.74 276.78 364.94C276.78 362.14 274.51 359.87 271.71 359.87C268.91 359.87 266.64 362.14 266.64 364.94C266.64 367.74 268.91 370.01 271.71 370.01Z" stroke="#472F40" stroke-linecap="round" stroke-linejoin="round"/>
<path d="M314.12 370.01C316.92 370.01 319.19 367.74 319.19 364.94C319.19 362.14 316.92 359.87 314.12 359.87C311.32 359.87 309.05 362.14 309.05 364.94C309.05 367.74 311.32 370.01 314.12 370.01Z" stroke="#472F40" stroke-linecap="round" stroke-linejoin="round"/>
<path d="M315 300.46L311.32 293.81C311.001 293.316 310.541 292.93 310 292.7C309.428 292.493 308.811 292.447 308.215 292.567C307.619 292.687 307.067 292.968 306.62 293.38C306.367 293.63 306.026 293.771 305.67 293.771C305.314 293.771 304.973 293.63 304.72 293.38C304.379 292.987 303.913 292.722 303.4 292.63C302.93 292.573 302.453 292.668 302.04 292.9V292.9L297.85 300.48C297.718 300.72 297.651 300.991 297.655 301.265C297.66 301.539 297.735 301.807 297.874 302.043C298.013 302.279 298.212 302.474 298.449 302.611C298.687 302.747 298.956 302.819 299.23 302.82H313.64C313.915 302.818 314.185 302.743 314.423 302.605C314.66 302.466 314.858 302.267 314.995 302.029C315.132 301.791 315.205 301.52 315.206 301.245C315.207 300.97 315.136 300.699 315 300.46V300.46Z" fill="#ED6663"/>
<path d="M315 300.46L312.38 295.72C310.55 296.93 309.32 296.92 308.56 296.72C306.72 296.25 306.29 294.3 304.31 293.81C303.29 293.611 302.233 293.763 301.31 294.24L297.87 300.46C297.738 300.7 297.671 300.971 297.675 301.245C297.68 301.519 297.755 301.787 297.894 302.023C298.034 302.259 298.232 302.454 298.469 302.591C298.707 302.727 298.976 302.799 299.25 302.8H313.66C313.931 302.792 314.195 302.715 314.427 302.576C314.659 302.437 314.852 302.241 314.986 302.006C315.121 301.771 315.193 301.505 315.195 301.235C315.198 300.964 315.13 300.697 315 300.46V300.46Z" fill="#FF847C"/>
<path d="M315 300.46L309.55 290.61C309.202 289.975 309.02 289.264 309.02 288.54V280.73H310.02C310.163 280.73 310.305 280.702 310.437 280.647C310.569 280.592 310.69 280.512 310.791 280.411C310.892 280.31 310.972 280.189 311.027 280.057C311.082 279.925 311.11 279.783 311.11 279.64C311.11 279.497 311.082 279.355 311.027 279.223C310.972 279.091 310.892 278.971 310.791 278.869C310.69 278.768 310.569 278.688 310.437 278.633C310.305 278.578 310.163 278.55 310.02 278.55H302.81C302.667 278.55 302.525 278.578 302.393 278.633C302.261 278.688 302.14 278.768 302.039 278.869C301.938 278.971 301.858 279.091 301.803 279.223C301.748 279.355 301.72 279.497 301.72 279.64C301.72 279.783 301.748 279.925 301.803 280.057C301.858 280.189 301.938 280.31 302.039 280.411C302.14 280.512 302.261 280.592 302.393 280.647C302.525 280.702 302.667 280.73 302.81 280.73H303.81V288.54C303.81 289.264 303.628 289.975 303.28 290.61L297.83 300.46C297.698 300.7 297.631 300.971 297.635 301.245C297.64 301.519 297.715 301.787 297.854 302.023C297.993 302.259 298.192 302.454 298.429 302.591C298.667 302.727 298.936 302.799 299.21 302.8H313.62C313.894 302.799 314.163 302.727 314.401 302.591C314.638 302.454 314.837 302.259 314.976 302.023C315.115 301.787 315.19 301.519 315.195 301.245C315.199 300.971 315.132 300.7 315 300.46V300.46Z" stroke="#472F40" stroke-linecap="round" stroke-linejoin="round"/>
<path d="M297.33 335.74C295.519 335.058 293.527 335.033 291.7 335.67C288.8 336.67 288.42 338.59 286.7 338.42C284.98 338.25 284.7 336.32 282.65 335.42C281.75 335.044 280.765 334.92 279.8 335.06C278.71 336.795 278.131 338.801 278.13 340.85V340.95C278.193 343.107 279.099 345.154 280.655 346.65C282.211 348.146 284.292 348.972 286.45 348.95H291.67C293.828 348.972 295.909 348.146 297.465 346.65C299.02 345.154 299.927 343.107 299.99 340.95V340.85C299.987 339.479 299.723 338.121 299.21 336.85C298.644 336.386 298.01 336.011 297.33 335.74Z" fill="#6D4558"/>
<path d="M299.24 344.12C298.748 343.006 297.993 342.028 297.041 341.269C296.089 340.51 294.967 339.992 293.772 339.76C292.576 339.528 291.342 339.589 290.175 339.937C289.008 340.286 287.943 340.911 287.07 341.76C286.282 342.477 285.355 343.024 284.347 343.368C283.339 343.712 282.272 343.846 281.21 343.76L278.61 343.62C279.226 345.186 280.3 346.529 281.691 347.475C283.083 348.42 284.727 348.924 286.41 348.92H291.63C293.223 348.926 294.786 348.478 296.134 347.628C297.482 346.778 298.559 345.561 299.24 344.12V344.12Z" fill="#AB7F95"/>
<path d="M291.63 349C293.588 349.011 295.487 348.327 296.99 347.072C298.492 345.816 299.502 344.069 299.84 342.14C298.955 341.644 297.955 341.388 296.94 341.4C293.94 341.49 293.12 344.19 290.94 344.15C288.46 344.15 288 340.68 284.59 339.25C282.541 338.495 280.289 338.495 278.24 339.25C278.156 339.786 278.113 340.328 278.11 340.87V340.97C278.173 343.128 279.079 345.174 280.635 346.67C282.191 348.166 284.272 348.992 286.43 348.97L291.63 349Z" fill="#F1D4DF"/>
<path d="M286.41 349H291.63C293.788 349.022 295.869 348.196 297.425 346.7C298.981 345.204 299.887 343.157 299.95 341V340.9C299.952 338.476 299.145 336.121 297.658 334.206C296.172 332.292 294.089 330.928 291.74 330.33V324H293.21C293.558 324 293.891 323.862 294.136 323.616C294.382 323.371 294.52 323.037 294.52 322.69C294.52 322.342 294.382 322.009 294.136 321.764C293.891 321.518 293.558 321.38 293.21 321.38H284.83C284.483 321.38 284.149 321.518 283.904 321.764C283.658 322.009 283.52 322.342 283.52 322.69C283.52 323.037 283.658 323.371 283.904 323.616C284.149 323.862 284.483 324 284.83 324H286.3V330.25C283.951 330.848 281.869 332.212 280.382 334.126C278.895 336.041 278.089 338.396 278.09 340.82V340.92C278.132 343.091 279.03 345.158 280.588 346.671C282.146 348.185 284.238 349.021 286.41 349V349Z" stroke="#472F40" stroke-linecap="round" stroke-linejoin="round"/>
<path d="M385.12 369.86C383 371 372.88 358.58 374.5 356.54C375.29 355.54 378.95 356.97 381.16 358.7C385.8 362.33 386.47 369.14 385.12 369.86Z" fill="#FFBF8A"/>
<path d="M385.12 369.86C384.04 368.98 385.92 364.23 388.72 360.86C393.8 354.76 402.4 352.59 403.3 354.02C403.99 355.12 400.23 358.62 396.46 362.12C394.59 363.86 386.72 371.17 385.12 369.86Z" fill="#FFBF8A"/>
<path d="M403.3 354C402.4 352.57 393.8 354.74 388.72 360.84C387.414 362.423 386.346 364.188 385.55 366.08C384.996 363.177 383.443 360.559 381.16 358.68C378.95 356.95 375.29 355.52 374.5 356.52C372.88 358.52 382.99 370.97 385.12 369.84C386.72 371.15 394.59 363.84 396.46 362.1C400.23 358.62 404 355.12 403.3 354Z" stroke="#472F40" stroke-linecap="round" stroke-linejoin="round"/>
<path d="M185.89 369.9C187.42 370.72 194.71 361.77 193.55 360.3C192.97 359.58 190.34 360.61 188.74 361.85C185.4 364.47 184.91 369.38 185.89 369.9Z" fill="#FFBF8A"/>
<path d="M185.89 369.9C186.67 369.26 185.31 365.84 183.29 363.41C179.63 359.01 173.42 357.41 172.78 358.48C172.28 359.28 174.99 361.8 177.71 364.32C179.06 365.57 184.73 370.84 185.89 369.9Z" fill="#FFBF8A"/>
<path d="M172.78 358.48C173.42 357.48 179.63 359.01 183.29 363.41C184.23 364.554 185.002 365.827 185.58 367.19C185.978 365.096 187.096 363.207 188.74 361.85C190.34 360.61 192.97 359.57 193.55 360.3C194.71 361.77 187.42 370.72 185.89 369.9C184.73 370.84 179.06 365.57 177.71 364.32C175 361.8 172.28 359.28 172.78 358.48Z" stroke="#472F40" stroke-linecap="round" stroke-linejoin="round"/>
</svg>
