<svg width="67" height="68" viewBox="0 0 67 68" fill="none" xmlns="http://www.w3.org/2000/svg">
<path d="M33.9087 1C27.4 1 21.0374 2.93006 15.6256 6.54611C10.2138 10.1622 5.99582 15.3018 3.50504 21.3151C1.01426 27.3284 0.362557 33.9452 1.63235 40.3288C2.90213 46.7125 6.03638 52.5763 10.6387 57.1786C15.2411 61.781 21.1049 64.9153 27.4885 66.185C33.8722 67.4548 40.489 66.8031 46.5023 64.3123C52.5156 61.8216 57.6552 57.6036 61.2713 52.1918C64.8873 46.78 66.8174 40.4174 66.8174 33.9087H33.9087V1Z" fill="#FDF3E8"/>
<path d="M66.8174 33.9087H33.9087L60.3971 53.4386C64.5789 47.787 66.83 40.9392 66.8174 33.9087Z" fill="black"/>
<path d="M33.9087 1V34.0913H67C67 25.3149 63.5136 16.898 57.3078 10.6922C51.1019 4.48639 42.6851 1 33.9087 1Z" fill="#F7C5A8"/>
<path d="M33.909 1C28.289 1.00144 22.763 2.44213 17.8577 5.18475C12.9523 7.92737 8.83109 11.8805 5.88672 16.6675C2.94234 21.4545 1.27296 26.9157 1.03765 32.5308C0.802346 38.1459 2.00896 43.7277 4.54251 48.7442C7.07605 53.7607 10.8521 58.0448 15.5108 61.1883C20.1695 64.3317 25.5556 66.2296 31.1557 66.7013C36.7559 67.1729 42.3836 66.2025 47.5024 63.8825C52.6212 61.5626 57.0606 57.9703 60.3974 53.4482" stroke="black" stroke-width="0.5" stroke-miterlimit="10"/>
</svg>
