<svg width="20" height="20" viewBox="0 0 20 20" fill="none" xmlns="http://www.w3.org/2000/svg">
<path fill-rule="evenodd" clip-rule="evenodd" d="M14.0015 10C14.0015 12.206 12.2075 14 10.0015 14C7.79553 14 6.00153 12.206 6.00153 10C6.00153 7.794 7.79553 6 10.0015 6C12.2075 6 14.0015 7.794 14.0015 10ZM12.0015 10C12.0015 8.916 11.0855 8 10.0015 8C8.91753 8 8.00153 8.916 8.00153 10C8.00153 11.084 8.91753 12 10.0015 12C11.0855 12 12.0015 11.084 12.0015 10Z" fill="#384A51"/>
<path fill-rule="evenodd" clip-rule="evenodd" d="M1.8462 15.866L0.846203 14.136C0.294203 13.181 0.622203 11.955 1.5772 11.403L2.0822 11.111C2.0282 10.742 2.0012 10.371 2.0012 10C2.0012 9.629 2.0282 9.257 2.0822 8.888L1.5772 8.596C0.622203 8.045 0.294203 6.819 0.846203 5.864L1.8452 4.135C2.3762 3.216 3.6522 2.872 4.5762 3.403L5.1052 3.709C5.6872 3.253 6.3262 2.878 7.0012 2.598V2C7.0012 0.897 7.8982 0 9.0012 0H11.0012C12.1042 0 13.0012 0.897 13.0012 2V2.598C13.6762 2.878 14.3152 3.253 14.8972 3.71L15.4262 3.404C16.3492 2.871 17.6262 3.216 18.1572 4.136L19.1562 5.865C19.7082 6.82 19.3802 8.045 18.4252 8.597L17.9202 8.889C17.9742 9.257 18.0012 9.629 18.0012 10C18.0012 10.371 17.9742 10.742 17.9202 11.113L18.4252 11.405C19.3802 11.956 19.7082 13.182 19.1562 14.137L18.1572 15.866C17.6242 16.785 16.3492 17.127 15.4262 16.597L14.8972 16.291C14.3152 16.747 13.6762 17.122 13.0012 17.402V18C13.0012 19.103 12.1042 20 11.0012 20H9.0012C7.8982 20 7.0012 19.103 7.0012 18V17.402C6.3262 17.122 5.6872 16.747 5.1052 16.29L4.5762 16.596C3.6552 17.127 2.3772 16.783 1.8462 15.866ZM4.0012 10C4.0012 10.461 4.0592 10.925 4.1722 11.378C4.2792 11.811 4.0882 12.263 3.7012 12.486L2.5772 13.137L3.5772 14.866L4.7212 14.204C4.8772 14.114 5.0492 14.07 5.2212 14.07C5.4712 14.07 5.7192 14.163 5.9092 14.345C6.5922 14.992 7.4162 15.475 8.2932 15.744C8.7142 15.872 9.0012 16.261 9.0012 16.7V18H11.0032L11.0012 16.7C11.0012 16.261 11.2882 15.872 11.7092 15.744C12.5862 15.476 13.4102 14.992 14.0932 14.345C14.4142 14.037 14.8982 13.982 15.2812 14.203L16.4262 14.864L17.4242 13.135L16.3012 12.486C15.9142 12.263 15.7232 11.811 15.8302 11.378C15.9432 10.925 16.0012 10.461 16.0012 10C16.0012 9.538 15.9432 9.074 15.8312 8.622C15.7232 8.19 15.9142 7.738 16.3012 7.514L17.4252 6.865L16.4252 5.136L15.2812 5.797C14.8992 6.017 14.4142 5.962 14.0932 5.655C13.4102 5.008 12.5862 4.525 11.7092 4.256C11.2882 4.128 11.0012 3.739 11.0012 3.3V2H9.0012V3.3C9.0012 3.739 8.7142 4.128 8.2932 4.256C7.4162 4.524 6.5922 5.008 5.9092 5.655C5.5882 5.962 5.1052 6.018 4.7212 5.797L3.5762 5.135L2.5782 6.864L3.7012 7.514C4.0882 7.737 4.2792 8.189 4.1712 8.622C4.0592 9.074 4.0012 9.538 4.0012 10Z" fill="#384A51"/>
</svg>
