<svg width="18" height="20" viewBox="0 0 18 20" fill="none" xmlns="http://www.w3.org/2000/svg">
<path d="M2 19.9998H6H12H16C17.103 19.9998 18 19.1028 18 17.9998V8.99976C18 8.73476 17.895 8.47976 17.707 8.29276L9.707 0.292762C9.316 -0.0982383 8.684 -0.0982383 8.293 0.292762L0.293 8.29276C0.105 8.47976 0 8.73476 0 8.99976V17.9998C0 19.1028 0.897 19.9998 2 19.9998ZM7 17.9998V12.9998H11V17.9998H7ZM2 9.41376L9 2.41376L16 9.41376L16.001 17.9998H13V12.9998C13 11.8968 12.103 10.9998 11 10.9998H7C5.897 10.9998 5 11.8968 5 12.9998V17.9998H2V9.41376Z" fill="#384A51"/>
</svg>
