<svg width="18" height="12" viewBox="0 0 18 12" fill="none" xmlns="http://www.w3.org/2000/svg">
<path d="M7.20573 5.16678H4.7899C4.7899 5.16428 4.7899 5.16178 4.79073 5.15928C4.8449 4.89345 4.92656 4.63095 5.03323 4.37845C5.13823 4.13095 5.2674 3.89262 5.4174 3.67012C5.56573 3.45012 5.7374 3.24262 5.92573 3.05345C6.1149 2.86512 6.3224 2.69345 6.54406 2.54428C6.76573 2.39428 7.00323 2.26595 7.25073 2.16095C7.5024 2.05428 7.7649 1.97262 8.0324 1.91845C8.58073 1.80595 9.16323 1.80595 9.71406 1.91845C9.97906 1.97262 10.2424 2.05428 10.4949 2.16095C10.7416 2.26512 10.9791 2.39512 11.2032 2.54512C11.4249 2.69428 11.6316 2.86512 11.8182 3.05262L12.9982 1.87595C12.7366 1.61262 12.4449 1.37262 12.1349 1.16345C11.8241 0.95345 11.4907 0.771784 11.1449 0.625117C10.7907 0.475117 10.4216 0.360951 10.0491 0.285117C9.2799 0.127617 8.46656 0.127617 7.6999 0.285117C7.32573 0.361784 6.95656 0.47595 6.60323 0.62595C6.25406 0.772617 5.92073 0.95345 5.61073 1.16345C5.3024 1.37095 5.0124 1.61095 4.7474 1.87512C4.4824 2.13928 4.24323 2.43012 4.03656 2.73762C3.82656 3.04845 3.6449 3.38178 3.49823 3.72928C3.34823 4.08262 3.23406 4.45178 3.15823 4.82512C3.1349 4.93762 3.1224 5.05262 3.10573 5.16678H0.539062L3.8724 8.50012L7.20573 5.16678ZM10.5391 6.83345H12.9549C12.9541 6.83595 12.9549 6.83845 12.9541 6.84012C12.8991 7.11012 12.8174 7.37262 12.7107 7.62178C12.6082 7.86595 12.4791 8.10428 12.3282 8.32845C12.1791 8.54845 12.0074 8.75678 11.8174 8.94678C11.6299 9.13428 11.4232 9.30512 11.2016 9.45512C10.9782 9.60512 10.7407 9.73428 10.4941 9.83928C10.2416 9.94595 9.97906 10.0276 9.7124 10.0818C9.1649 10.1943 8.58156 10.1943 8.03156 10.0818C7.76573 10.0276 7.50323 9.94595 7.25073 9.83928C7.00323 9.73428 6.7649 9.60512 6.5424 9.45512C6.3224 9.30678 6.1149 9.13512 5.92573 8.94678L4.7474 10.1251C5.01156 10.3893 5.3024 10.6293 5.6099 10.8368C5.92073 11.0468 6.25406 11.2285 6.60156 11.3751C6.9549 11.5251 7.32406 11.6393 7.6974 11.7151C8.08156 11.7935 8.47656 11.8335 8.8724 11.8335C9.26823 11.8335 9.66323 11.7935 10.0457 11.7151C10.4199 11.6393 10.7899 11.5243 11.1432 11.3743C11.4891 11.2276 11.8224 11.0468 12.1332 10.8368C12.4432 10.6276 12.7349 10.3868 12.9957 10.1251C13.2599 9.86095 13.4999 9.57012 13.7082 9.26095C13.9199 8.94678 14.1016 8.61345 14.2457 8.27178C14.3941 7.92178 14.5082 7.55262 14.5857 7.17512C14.6082 7.06262 14.6216 6.94762 14.6382 6.83345H17.2057L13.8724 3.50012L10.5391 6.83345Z" fill="white"/>
</svg>
