<svg width="134" height="25" viewBox="0 0 134 25" fill="none" xmlns="http://www.w3.org/2000/svg">
<path fill-rule="evenodd" clip-rule="evenodd" d="M86.3278 3.66872C86.3278 2.73506 85.6254 2.01471 84.7154 2.01471C83.8082 2.01471 83.103 2.73506 83.103 3.66872C83.103 4.60237 83.8082 5.32248 84.7154 5.32248C85.6256 5.32248 86.3278 4.60237 86.3278 3.66872ZM82.1614 3.66872C82.1614 2.218 83.2632 1.12305 84.7154 1.12305C86.1669 1.12305 87.2694 2.21824 87.2694 3.66872C87.2694 5.11943 86.1669 6.21415 84.7154 6.21415C83.2632 6.21415 82.1614 5.11943 82.1614 3.66872ZM91.5989 2.77061C91.5989 2.31535 91.3154 1.99849 90.7736 1.99849H89.9423C89.9005 1.99849 89.8605 2.0155 89.8309 2.0458C89.8014 2.07609 89.7848 2.11718 89.7848 2.16002V3.37189C89.7848 3.46089 89.8555 3.53295 89.9423 3.53295H90.7736C91.3156 3.53295 91.5989 3.24567 91.5989 2.77061ZM92.5091 2.78015C92.5091 3.67206 91.8852 4.34707 90.9155 4.34707H89.9423C89.9005 4.34707 89.8605 4.36409 89.8309 4.39438C89.8014 4.42467 89.7848 4.46576 89.7848 4.5086V5.98843C89.7848 6.0096 89.7808 6.03057 89.7729 6.05013C89.7651 6.0697 89.7535 6.08748 89.7389 6.10247C89.7243 6.11745 89.707 6.12933 89.6879 6.13744C89.6689 6.14555 89.6484 6.14972 89.6278 6.14972H89.0037C88.9831 6.14975 88.9626 6.14561 88.9435 6.13751C88.9244 6.12942 88.907 6.11755 88.8924 6.10256C88.8778 6.08758 88.8662 6.06979 88.8582 6.05021C88.8503 6.03062 88.8462 6.00963 88.8462 5.98843V1.34901C88.8462 1.26001 88.9167 1.18771 89.0037 1.18771H90.9155C91.8855 1.18771 92.5089 1.90161 92.5089 2.78039L92.5091 2.78015ZM94.968 2.20536V3.08724C94.968 3.17624 95.038 3.24877 95.1252 3.24877H96.5267C96.6137 3.24877 96.6841 3.32083 96.6841 3.41031V3.9338C96.6841 3.97665 96.6676 4.01773 96.638 4.04803C96.6085 4.07832 96.5684 4.09534 96.5267 4.09534H95.1252C95.1046 4.09531 95.0841 4.09945 95.065 4.10753C95.0459 4.1156 95.0286 4.12746 95.014 4.14241C94.9993 4.15737 94.9877 4.17513 94.9798 4.19469C94.9719 4.21425 94.9678 4.23522 94.9677 4.2564V5.13208C94.9677 5.22131 95.038 5.29361 95.1252 5.29361H96.76C96.8467 5.29361 96.9172 5.36591 96.9172 5.45467V5.98819C96.9172 6.03099 96.9007 6.07204 96.8712 6.10233C96.8417 6.13261 96.8017 6.14966 96.76 6.14972H94.1864C94.1657 6.14972 94.1453 6.14554 94.1262 6.13742C94.1071 6.1293 94.0898 6.1174 94.0751 6.1024C94.0605 6.08739 94.049 6.06958 94.0411 6.04999C94.0332 6.03039 94.0291 6.00939 94.0292 5.98819V1.34901C94.0292 1.26001 94.0997 1.18795 94.1864 1.18795H96.7597C96.8465 1.18795 96.917 1.26001 96.917 1.34901V1.88229C96.917 1.92509 96.9004 1.96614 96.8709 1.99642C96.8415 2.02671 96.8015 2.04376 96.7597 2.04382H95.125C95.0832 2.04382 95.0432 2.06084 95.0136 2.09113C94.9841 2.12143 94.9675 2.16251 94.9675 2.20536H94.968ZM103.18 1.34901V5.98819C103.18 6.03103 103.164 6.07212 103.134 6.10241C103.105 6.1327 103.065 6.14972 103.023 6.14972H102.368C102.344 6.14975 102.321 6.14427 102.299 6.13369C102.278 6.12311 102.259 6.10771 102.245 6.08864L99.8139 2.9572C99.7208 2.8379 99.5336 2.90494 99.5336 3.05789V5.98819C99.5336 6.03103 99.517 6.07212 99.4874 6.10241C99.4579 6.1327 99.4179 6.14972 99.3761 6.14972H98.765C98.7233 6.14966 98.6833 6.13261 98.6538 6.10233C98.6244 6.07204 98.6078 6.03099 98.6078 5.98819V1.34901C98.6078 1.26001 98.678 1.18771 98.765 1.18771H99.4138C99.4617 1.18771 99.5068 1.21014 99.5366 1.24831L101.968 4.36854C102.061 4.48784 102.248 4.42056 102.248 4.26833V1.34877C102.248 1.25977 102.318 1.18747 102.405 1.18747H103.023C103.11 1.18747 103.18 1.25977 103.18 1.34877V1.34901ZM87.2692 12.2146C87.2692 13.6715 86.1703 14.7664 84.7154 14.7664C83.2632 14.7664 82.1614 13.6712 82.1614 12.221C82.1614 10.7703 83.2632 9.67558 84.7154 9.67558C85.5505 9.67558 86.2706 10.0397 86.7284 10.6216C86.743 10.6401 86.7536 10.6616 86.7593 10.6846C86.765 10.7077 86.7657 10.7317 86.7613 10.7551C86.757 10.7784 86.7477 10.8005 86.7341 10.8198C86.7205 10.8391 86.703 10.8551 86.6828 10.8667L86.1431 11.1723C86.1121 11.1905 86.076 11.1972 86.0407 11.1913C86.0055 11.1855 85.9732 11.1674 85.9494 11.1401C85.6563 10.7894 85.2174 10.567 84.7119 10.567C83.8082 10.567 83.103 11.2745 83.103 12.2434C83.103 13.1516 83.7296 13.875 84.728 13.875C85.4381 13.875 85.9659 13.5104 86.1971 12.9323C86.2387 12.8273 86.1599 12.7121 86.0494 12.7121H85.1655C85.1448 12.7121 85.1244 12.7079 85.1053 12.6998C85.0862 12.6916 85.0688 12.6797 85.0542 12.6647C85.0396 12.6497 85.028 12.6319 85.0201 12.6123C85.0123 12.5927 85.0082 12.5717 85.0082 12.5505V12.0788C85.0082 11.9896 85.0787 11.9173 85.1655 11.9173H87.1066C87.1901 11.9173 87.2578 11.9834 87.2638 12.0685C87.2673 12.1153 87.2692 12.164 87.2692 12.2146ZM92.6224 12.221C92.6224 11.2873 91.9199 10.5672 91.0099 10.5672C90.103 10.5672 89.3975 11.2873 89.3975 12.221C89.3975 13.1547 90.103 13.8748 91.0099 13.8748C91.9199 13.8748 92.6224 13.1547 92.6224 12.221ZM88.4559 12.221C88.4559 10.7703 89.558 9.67534 91.0099 9.67534C92.4614 9.67534 93.564 10.7705 93.564 12.221C93.564 13.6717 92.4614 14.7667 91.0099 14.7667C89.558 14.7667 88.4559 13.6715 88.4559 12.221ZM98.9369 9.95856L97.2233 14.5977C97.2121 14.6283 97.192 14.6547 97.1658 14.6733C97.1395 14.6919 97.1084 14.702 97.0766 14.702H96.3236C96.2917 14.702 96.2605 14.692 96.2343 14.6734C96.208 14.6548 96.1879 14.6284 96.1766 14.5977L94.4658 9.95856C94.4568 9.93412 94.4537 9.90781 94.4568 9.88189C94.4599 9.85596 94.4691 9.83119 94.4836 9.8097C94.498 9.78821 94.5174 9.77065 94.5399 9.75851C94.5625 9.74637 94.5876 9.74002 94.613 9.74H95.2666C95.3329 9.74 95.3922 9.78295 95.4146 9.84713L96.552 13.1167C96.6018 13.2599 96.7986 13.2599 96.8481 13.117L97.9884 9.84713C97.9993 9.81577 98.0194 9.78864 98.0459 9.76946C98.0724 9.75028 98.1041 9.73999 98.1365 9.74H98.7899C98.9 9.74 98.9762 9.85286 98.9369 9.95856ZM101.37 10.7574V11.6398C101.37 11.7288 101.44 11.8011 101.527 11.8011H102.929C103.015 11.8011 103.086 11.8731 103.086 11.9624V12.4861C103.086 12.5289 103.069 12.5699 103.04 12.6002C103.01 12.6304 102.97 12.6474 102.929 12.6474H101.527C101.485 12.6475 101.445 12.6645 101.416 12.6948C101.386 12.7251 101.37 12.7661 101.37 12.8089V13.6846C101.37 13.7736 101.44 13.8457 101.527 13.8457H103.162C103.249 13.8457 103.319 13.9182 103.319 14.0072V14.5405C103.319 14.5617 103.315 14.5827 103.307 14.6023C103.299 14.6219 103.288 14.6397 103.273 14.6547C103.258 14.6697 103.241 14.6816 103.222 14.6897C103.203 14.6978 103.182 14.702 103.162 14.702H100.588C100.568 14.702 100.547 14.6978 100.528 14.6896C100.509 14.6815 100.492 14.6696 100.477 14.6546C100.463 14.6396 100.451 14.6218 100.443 14.6022C100.435 14.5826 100.431 14.5617 100.431 14.5405V9.90154C100.431 9.8123 100.501 9.74 100.588 9.74H103.162C103.249 9.74 103.319 9.8123 103.319 9.90154V10.4348C103.319 10.456 103.315 10.477 103.307 10.4966C103.299 10.5162 103.288 10.534 103.273 10.5489C103.258 10.5639 103.241 10.5758 103.222 10.5839C103.203 10.592 103.182 10.5961 103.162 10.5961H101.527C101.485 10.5962 101.445 10.6132 101.416 10.6434C101.386 10.6737 101.37 10.7147 101.37 10.7574ZM105.948 11.672C105.948 11.761 106.018 11.8335 106.105 11.8335H106.836C107.287 11.8335 107.529 11.5973 107.529 11.2003C107.529 10.8094 107.287 10.5541 106.836 10.5541H106.105C106.064 10.5541 106.024 10.5711 105.994 10.6014C105.965 10.6317 105.948 10.6728 105.948 10.7157V11.672ZM106.642 12.6052H106.105C106.063 12.6052 106.023 12.6222 105.994 12.6525C105.964 12.6828 105.948 12.7239 105.948 12.7667V14.5405C105.948 14.5617 105.944 14.5827 105.936 14.6023C105.928 14.6219 105.916 14.6397 105.902 14.6547C105.887 14.6697 105.87 14.6816 105.851 14.6897C105.832 14.6978 105.811 14.702 105.79 14.702H105.167C105.146 14.702 105.125 14.6978 105.106 14.6897C105.087 14.6816 105.07 14.6697 105.055 14.6547C105.041 14.6397 105.029 14.6219 105.021 14.6023C105.013 14.5827 105.009 14.5617 105.009 14.5405V9.90154C105.009 9.8123 105.08 9.74 105.167 9.74H106.899C107.894 9.74 108.439 10.399 108.439 11.2098C108.439 11.7526 108.167 12.1881 107.749 12.4214C107.73 12.4317 107.714 12.4456 107.701 12.4625C107.688 12.4793 107.678 12.4987 107.673 12.5195C107.667 12.5403 107.665 12.562 107.668 12.5834C107.671 12.6047 107.678 12.6253 107.689 12.6438L108.736 14.4584C108.75 14.4829 108.758 14.5108 108.758 14.5392C108.758 14.5676 108.751 14.5956 108.737 14.6203C108.723 14.645 108.704 14.6655 108.68 14.6798C108.656 14.6941 108.629 14.7017 108.601 14.7018H107.949C107.921 14.7019 107.894 14.6941 107.869 14.6795C107.845 14.6648 107.825 14.6436 107.812 14.6183L106.78 12.6891C106.766 12.6638 106.746 12.6426 106.722 12.6278C106.698 12.613 106.67 12.6052 106.642 12.6052H106.642ZM114.863 9.90154V14.5407C114.863 14.5835 114.846 14.6245 114.817 14.6547C114.787 14.6849 114.747 14.702 114.706 14.702H114.051C114.027 14.7021 114.003 14.6966 113.982 14.6861C113.961 14.6756 113.942 14.6602 113.927 14.6412L111.497 11.5095C111.403 11.3902 111.216 11.4575 111.216 11.6102V14.5407C111.216 14.5835 111.2 14.6245 111.17 14.6548C111.14 14.685 111.1 14.702 111.059 14.702H110.447C110.406 14.702 110.366 14.6849 110.336 14.6547C110.307 14.6244 110.29 14.5835 110.29 14.5407V9.90154C110.29 9.8123 110.361 9.74 110.447 9.74H111.096C111.144 9.74 111.189 9.76243 111.219 9.80084L113.651 12.9208C113.743 13.0401 113.931 12.9728 113.931 12.8201V9.90177C113.931 9.81254 114.001 9.74024 114.088 9.74024H114.706C114.792 9.74024 114.863 9.81254 114.863 9.90177L114.863 9.90154ZM122.058 9.90154V14.5407C122.058 14.5835 122.041 14.6245 122.012 14.6548C121.982 14.685 121.942 14.702 121.901 14.702H121.277C121.235 14.702 121.195 14.685 121.166 14.6548C121.136 14.6245 121.119 14.5835 121.119 14.5407V11.8497C121.119 11.6729 120.882 11.625 120.816 11.7887L119.695 14.6018C119.683 14.6314 119.663 14.6567 119.637 14.6745C119.611 14.6924 119.581 14.7019 119.55 14.702H119.273C119.242 14.702 119.211 14.6924 119.185 14.6744C119.159 14.6565 119.139 14.6311 119.127 14.6013L118.012 11.7872C117.947 11.6233 117.709 11.6708 117.709 11.8481V14.5407C117.709 14.5835 117.692 14.6245 117.663 14.6548C117.633 14.685 117.593 14.702 117.551 14.702H116.928C116.886 14.702 116.846 14.685 116.817 14.6548C116.787 14.6245 116.77 14.5835 116.77 14.5407V9.90154C116.77 9.8123 116.841 9.74 116.928 9.74H117.938C118.001 9.74 118.059 9.77937 118.083 9.83974L119.265 12.7755C119.276 12.8051 119.297 12.8304 119.322 12.8482C119.348 12.866 119.379 12.8755 119.41 12.8756C119.441 12.8756 119.471 12.8662 119.497 12.8485C119.523 12.8307 119.543 12.8055 119.555 12.776L120.749 9.83926C120.761 9.80989 120.781 9.78479 120.807 9.76713C120.832 9.74947 120.863 9.74003 120.894 9.74H121.901C121.988 9.74 122.058 9.8123 122.058 9.90154ZM124.907 10.7574V11.6398C124.907 11.7288 124.978 11.8011 125.065 11.8011H126.467C126.554 11.8011 126.624 11.8731 126.624 11.9624V12.4861C126.624 12.5289 126.607 12.5699 126.578 12.6002C126.548 12.6304 126.508 12.6474 126.467 12.6474H125.065C125.023 12.6474 124.983 12.6644 124.954 12.6947C124.924 12.725 124.907 12.7661 124.907 12.8089V13.6846C124.907 13.7736 124.978 13.8457 125.065 13.8457H126.7C126.786 13.8457 126.857 13.9182 126.857 14.0072V14.5405C126.857 14.5617 126.853 14.5826 126.845 14.6022C126.837 14.6218 126.825 14.6396 126.811 14.6546C126.796 14.6696 126.779 14.6815 126.76 14.6896C126.741 14.6978 126.72 14.702 126.7 14.702H124.126C124.105 14.702 124.085 14.6978 124.066 14.6897C124.047 14.6816 124.029 14.6697 124.015 14.6547C124 14.6397 123.989 14.6219 123.981 14.6023C123.973 14.5827 123.969 14.5617 123.969 14.5405V9.90154C123.969 9.8123 124.04 9.74 124.126 9.74H126.7C126.786 9.74 126.857 9.8123 126.857 9.90154V10.4348C126.857 10.456 126.853 10.477 126.845 10.4965C126.837 10.5161 126.825 10.5339 126.811 10.5489C126.796 10.5638 126.779 10.5757 126.76 10.5838C126.741 10.5919 126.72 10.5961 126.7 10.5961H125.065C125.023 10.5961 124.983 10.6131 124.954 10.6433C124.924 10.6736 124.907 10.7146 124.907 10.7574ZM133.12 9.90154V14.5407C133.12 14.5619 133.116 14.5829 133.108 14.6025C133.1 14.6221 133.088 14.6399 133.074 14.6549C133.059 14.6698 133.042 14.6817 133.023 14.6898C133.003 14.6979 132.983 14.702 132.962 14.702H132.308C132.284 14.702 132.261 14.6966 132.239 14.686C132.218 14.6755 132.199 14.6602 132.184 14.6412L129.754 11.5095C129.661 11.3902 129.473 11.4575 129.473 11.6102V14.5407C129.473 14.5835 129.457 14.6245 129.427 14.6547C129.398 14.6849 129.358 14.702 129.316 14.702H128.704C128.663 14.702 128.623 14.6849 128.593 14.6547C128.564 14.6244 128.547 14.5835 128.547 14.5407V9.90154C128.547 9.8123 128.617 9.74 128.704 9.74H129.353C129.401 9.74 129.446 9.76243 129.476 9.80084L131.907 12.9208C132 13.0401 132.188 12.9728 132.188 12.8201V9.90177C132.188 9.81254 132.258 9.74024 132.345 9.74024H132.962C133.049 9.74024 133.12 9.81254 133.12 9.90177" fill="black"/>
<path fill-rule="evenodd" clip-rule="evenodd" d="M85.2473 19.88C85.2473 19.4247 84.964 19.1079 84.4222 19.1079H83.5909C83.5491 19.1079 83.5091 19.1249 83.4796 19.1552C83.45 19.1855 83.4334 19.2266 83.4334 19.2694V20.4813C83.4334 20.5703 83.5039 20.6423 83.5909 20.6423H84.4222C84.9642 20.6423 85.2475 20.355 85.2475 19.88H85.2473ZM86.1577 19.89C86.1577 20.7814 85.5343 21.4564 84.5639 21.4564H83.5909C83.5491 21.4564 83.5091 21.4735 83.4796 21.5038C83.45 21.534 83.4334 21.5751 83.4334 21.618V23.0978C83.4335 23.119 83.4294 23.14 83.4215 23.1596C83.4136 23.1791 83.4021 23.1969 83.3875 23.2119C83.3728 23.2269 83.3555 23.2388 83.3364 23.2469C83.3173 23.255 83.2969 23.2591 83.2762 23.2591H82.6523C82.6317 23.2591 82.6112 23.255 82.5921 23.2469C82.573 23.2388 82.5556 23.2269 82.541 23.2119C82.5264 23.197 82.5148 23.1792 82.5069 23.1596C82.4989 23.14 82.4949 23.119 82.4949 23.0978V18.4584C82.4949 18.3694 82.5651 18.2971 82.6523 18.2971H84.5639C85.5341 18.2971 86.1577 19.0112 86.1577 19.89ZM88.6164 20.2291C88.6164 20.3181 88.6868 20.3906 88.7738 20.3906H89.5042C89.9546 20.3906 90.1974 20.1544 90.1974 19.7571C90.1974 19.3663 89.9546 19.1112 89.5042 19.1112H88.7738C88.7532 19.1112 88.7327 19.1153 88.7136 19.1234C88.6945 19.1315 88.6771 19.1434 88.6625 19.1584C88.6479 19.1733 88.6363 19.1911 88.6284 19.2107C88.6204 19.2303 88.6164 19.2513 88.6164 19.2725V20.2293V20.2291ZM89.3105 21.1625H88.7738C88.7321 21.1625 88.6921 21.1795 88.6626 21.2097C88.633 21.2399 88.6164 21.281 88.6164 21.3238V23.0976C88.6164 23.1188 88.6123 23.1398 88.6044 23.1594C88.5965 23.179 88.5849 23.1968 88.5703 23.2119C88.5557 23.2269 88.5383 23.2388 88.5192 23.2469C88.5001 23.255 88.4796 23.2591 88.4589 23.2591H87.835C87.8144 23.2591 87.7939 23.2549 87.7748 23.2468C87.7557 23.2387 87.7384 23.2268 87.7238 23.2118C87.7092 23.1968 87.6976 23.179 87.6897 23.1594C87.6818 23.1398 87.6778 23.1188 87.6778 23.0976V18.4584C87.6778 18.3694 87.748 18.2973 87.835 18.2973H89.5673C90.5624 18.2973 91.1073 18.9561 91.1073 19.7669C91.1073 20.3095 90.8357 20.7454 90.4172 20.9783C90.3988 20.9886 90.3825 21.0025 90.3695 21.0194C90.3564 21.0363 90.3468 21.0556 90.3412 21.0764C90.3356 21.0972 90.3341 21.1188 90.3369 21.1402C90.3396 21.1615 90.3465 21.1821 90.3572 21.2007L91.4044 23.0155C91.4185 23.04 91.426 23.0678 91.4263 23.0963C91.4265 23.1247 91.4194 23.1527 91.4057 23.1774C91.3919 23.2021 91.3721 23.2227 91.3481 23.237C91.3242 23.2513 91.297 23.2588 91.2692 23.2589H90.6179C90.5898 23.2589 90.5621 23.2512 90.5378 23.2365C90.5136 23.2218 90.4936 23.2007 90.48 23.1753L89.4484 21.2462C89.4348 21.2209 89.4149 21.1997 89.3906 21.185C89.3663 21.1703 89.3387 21.1625 89.3105 21.1625ZM96.6622 20.7781C96.6622 19.8444 95.9597 19.1243 95.0498 19.1243C94.1429 19.1243 93.4374 19.8444 93.4374 20.7781C93.4374 21.7117 94.1429 22.4321 95.0498 22.4321C95.9597 22.4321 96.6622 21.7117 96.6622 20.7781ZM92.4958 20.7781C92.4958 19.3274 93.5979 18.2327 95.0498 18.2327C96.5013 18.2327 97.6038 19.3274 97.6038 20.7781C97.6038 22.2288 96.5013 23.3238 95.0498 23.3238C93.5979 23.3238 92.4958 22.2286 92.4958 20.7781ZM100.797 22.403C101.823 22.403 102.321 21.8279 102.321 20.7781C102.321 19.7282 101.823 19.1534 100.797 19.1534H100.273C100.231 19.1534 100.191 19.1704 100.162 19.2007C100.133 19.2309 100.116 19.272 100.116 19.3147V22.2414C100.116 22.3307 100.186 22.403 100.273 22.403H100.797ZM99.1809 18.4584C99.1809 18.3694 99.2514 18.2973 99.3381 18.2973H100.837C102.444 18.2973 103.293 19.2756 103.293 20.7781C103.293 22.2803 102.444 23.2591 100.837 23.2591H99.3381C99.3174 23.2591 99.297 23.2549 99.2779 23.2468C99.2588 23.2387 99.2414 23.2268 99.2268 23.2118C99.2122 23.1968 99.2007 23.179 99.1928 23.1594C99.1849 23.1398 99.1808 23.1188 99.1809 23.0976V18.4584ZM104.802 21.5404V18.4586C104.802 18.3691 104.872 18.2971 104.959 18.2971H105.583C105.67 18.2971 105.74 18.3691 105.74 18.4586V21.3918C105.74 22.1832 106.184 22.471 106.767 22.471C107.353 22.471 107.796 22.1832 107.796 21.3918V18.4586C107.796 18.3691 107.867 18.2971 107.954 18.2971H108.581C108.668 18.2971 108.738 18.3691 108.738 18.4586V21.5404C108.738 22.7261 107.888 23.3235 106.767 23.3235C105.652 23.3235 104.802 22.7261 104.802 21.5404H104.802ZM110.218 20.7781C110.218 19.3274 111.316 18.2327 112.772 18.2327C113.425 18.2327 114.048 18.4818 114.497 18.8876C114.514 18.9025 114.527 18.9209 114.536 18.9414C114.546 18.962 114.551 18.9844 114.551 19.0071C114.552 19.0298 114.548 19.0523 114.539 19.0733C114.53 19.0942 114.518 19.1131 114.501 19.1286L114.069 19.5443C114.041 19.5719 114.003 19.5874 113.964 19.5879C113.925 19.5883 113.887 19.5736 113.858 19.5467C113.573 19.2801 113.184 19.1243 112.772 19.1243C111.861 19.1243 111.159 19.8413 111.159 20.7781C111.159 21.7148 111.861 22.4321 112.771 22.4321C113.184 22.4321 113.573 22.276 113.858 22.0095C113.887 21.9825 113.925 21.9678 113.964 21.9682C114.003 21.9686 114.041 21.9842 114.07 22.0119L114.501 22.4278C114.518 22.4434 114.53 22.4622 114.539 22.4832C114.548 22.5041 114.552 22.5266 114.551 22.5494C114.551 22.5721 114.546 22.5944 114.536 22.615C114.527 22.6356 114.514 22.6539 114.497 22.6688C114.048 23.0744 113.425 23.3238 112.771 23.3238C111.316 23.3238 110.218 22.2286 110.218 20.7781ZM118.896 19.1532H117.967C117.946 19.1532 117.926 19.1574 117.907 19.1655C117.888 19.1736 117.87 19.1855 117.856 19.2005C117.841 19.2155 117.829 19.2333 117.822 19.2529C117.814 19.2725 117.81 19.2935 117.81 19.3147V23.0978C117.81 23.1405 117.793 23.1815 117.763 23.2117C117.734 23.2419 117.694 23.2589 117.652 23.2589H117.032C117.011 23.2589 116.99 23.2547 116.971 23.2467C116.952 23.2386 116.935 23.2267 116.92 23.2118C116.906 23.1968 116.894 23.1791 116.886 23.1595C116.878 23.1399 116.874 23.119 116.874 23.0978V19.3147C116.874 19.2935 116.87 19.2725 116.862 19.2529C116.854 19.2334 116.843 19.2155 116.828 19.2005C116.814 19.1855 116.796 19.1736 116.777 19.1655C116.758 19.1574 116.738 19.1532 116.717 19.1532H115.784C115.743 19.1531 115.703 19.1361 115.673 19.1059C115.644 19.0756 115.627 19.0346 115.627 18.9919V18.4586C115.627 18.3691 115.698 18.2971 115.784 18.2971H118.896C118.983 18.2971 119.054 18.3691 119.054 18.4586V18.9919C119.054 19.0347 119.037 19.0757 119.007 19.106C118.978 19.1362 118.938 19.1532 118.896 19.1532ZM120.191 22.4178L120.532 21.9816C120.545 21.9642 120.562 21.9498 120.581 21.9395C120.601 21.9291 120.622 21.923 120.643 21.9216C120.665 21.9201 120.687 21.9233 120.707 21.931C120.728 21.9386 120.746 21.9506 120.762 21.9661C121.087 22.288 121.535 22.5063 121.929 22.5063C122.306 22.5063 122.58 22.3063 122.58 21.9539C122.58 21.5113 122.149 21.3464 121.598 21.0981C120.965 20.8136 120.297 20.4906 120.297 19.6149C120.297 18.7364 120.965 18.2324 121.79 18.2324C122.336 18.2324 122.849 18.4417 123.271 18.7877C123.336 18.8406 123.345 18.938 123.296 19.0065L122.991 19.4307C122.979 19.4482 122.963 19.4629 122.945 19.474C122.927 19.485 122.907 19.4922 122.886 19.4951C122.865 19.4979 122.844 19.4964 122.823 19.4906C122.803 19.4848 122.784 19.4748 122.767 19.4612C122.442 19.1847 122.075 19.0499 121.768 19.0499C121.462 19.0499 121.22 19.2083 121.22 19.5183C121.22 19.922 121.636 20.0802 122.193 20.3259C122.829 20.6135 123.519 20.9687 123.519 21.8926C123.519 22.8423 122.788 23.3204 121.925 23.3204C121.303 23.3204 120.665 23.0642 120.211 22.6409C120.181 22.6133 120.162 22.5749 120.158 22.5334C120.154 22.4919 120.166 22.4506 120.191 22.4178Z" fill="black"/>
<path fill-rule="evenodd" clip-rule="evenodd" d="M55.2326 21.6268C55.3085 21.4928 55.3316 21.3341 55.297 21.1833C55.2625 21.0324 55.1729 20.9008 55.0468 20.8156C52.319 18.9821 50.5161 15.8211 50.5161 12.2258C50.5161 8.63101 52.319 5.46999 55.0468 3.63655C55.1729 3.55124 55.2624 3.41967 55.2969 3.26883C55.3315 3.11798 55.3085 2.95929 55.2326 2.8253L54.0682 0.756597C54.0275 0.684756 53.9731 0.622135 53.9081 0.572533C53.8431 0.52293 53.769 0.487379 53.6903 0.468035C53.6115 0.448691 53.5298 0.445957 53.4499 0.46C53.3701 0.474043 53.2939 0.504569 53.2259 0.549728C49.4821 3.01642 47 7.32275 47 12.2261C47 17.1294 49.4819 21.4355 53.2259 23.9024C53.2939 23.9475 53.3701 23.978 53.4499 23.9921C53.5297 24.0061 53.6115 24.0034 53.6902 23.9841C53.7689 23.9648 53.8431 23.9293 53.908 23.8797C53.973 23.8301 54.0275 23.7676 54.0682 23.6958L55.2326 21.6268Z" fill="#7F7F7F"/>
<path fill-rule="evenodd" clip-rule="evenodd" d="M66.979 0.754467L65.8148 2.82364C65.739 2.95755 65.716 3.11613 65.7505 3.26688C65.785 3.41762 65.8744 3.54912 66.0004 3.63442C68.7282 5.46785 70.5309 8.62912 70.5309 12.2242C70.5309 15.8192 68.7282 18.9802 66.0004 20.8139C65.8744 20.8992 65.785 21.0307 65.7505 21.1815C65.716 21.3322 65.739 21.4908 65.8148 21.6247L66.979 23.6936C67.0197 23.7655 67.0742 23.828 67.1391 23.8776C67.2041 23.9272 67.2782 23.9628 67.357 23.9821C67.4357 24.0014 67.5175 24.0042 67.5973 23.9902C67.6771 23.9761 67.7533 23.9456 67.8213 23.9005C71.5655 21.4336 74.047 17.1275 74.047 12.2242C74.047 7.32086 71.5651 3.01476 67.8213 0.547597C67.7533 0.502487 67.6771 0.472007 67.5973 0.458003C67.5175 0.443999 67.4357 0.446763 67.357 0.466128C67.2783 0.485493 67.2042 0.521055 67.1393 0.57066C67.0743 0.620265 67.0199 0.682878 66.9792 0.754705" fill="#7F7F7F"/>
<path d="M0.93 16.02H3.8C4.38 16.02 4.83333 16.1833 5.16 16.51C5.49333 16.8367 5.66 17.2733 5.66 17.82C5.66 18.08 5.62333 18.3 5.55 18.48C5.47667 18.66 5.38333 18.81 5.27 18.93C5.15667 19.0433 5.03333 19.13 4.9 19.19C4.76667 19.2433 4.64333 19.28 4.53 19.3V19.36C4.65667 19.3667 4.79667 19.4 4.95 19.46C5.11 19.52 5.26 19.6167 5.4 19.75C5.54 19.8767 5.65667 20.0433 5.75 20.25C5.85 20.45 5.9 20.6933 5.9 20.98C5.9 21.2667 5.85333 21.5333 5.76 21.78C5.67333 22.0267 5.55 22.24 5.39 22.42C5.23 22.6 5.04 22.7433 4.82 22.85C4.6 22.95 4.36 23 4.1 23H0.93V16.02ZM1.77 22.26H3.84C4.2 22.26 4.48333 22.17 4.69 21.99C4.89667 21.8033 5 21.5333 5 21.18V20.84C5 20.4867 4.89667 20.22 4.69 20.04C4.48333 19.8533 4.2 19.76 3.84 19.76H1.77V22.26ZM1.77 19.04H3.7C4.03333 19.04 4.29333 18.9567 4.48 18.79C4.66667 18.6233 4.76 18.3833 4.76 18.07V17.73C4.76 17.4167 4.66667 17.1767 4.48 17.01C4.29333 16.8433 4.03333 16.76 3.7 16.76H1.77V19.04ZM10.5632 22.16H10.5232C10.4699 22.28 10.4032 22.4 10.3232 22.52C10.2499 22.6333 10.1565 22.7367 10.0432 22.83C9.92987 22.9167 9.7932 22.9867 9.6332 23.04C9.4732 23.0933 9.28654 23.12 9.0732 23.12C8.53987 23.12 8.11654 22.95 7.8032 22.61C7.48987 22.2633 7.3332 21.7767 7.3332 21.15V17.84H8.1332V21.01C8.1332 21.9367 8.52654 22.4 9.3132 22.4C9.4732 22.4 9.62654 22.38 9.7732 22.34C9.92654 22.3 10.0599 22.24 10.1732 22.16C10.2932 22.08 10.3865 21.98 10.4532 21.86C10.5265 21.7333 10.5632 21.5833 10.5632 21.41V17.84H11.3632V23H10.5632V22.16ZM13.4668 16.63C13.2935 16.63 13.1668 16.59 13.0868 16.51C13.0135 16.4233 12.9768 16.3133 12.9768 16.18V16.05C12.9768 15.9167 13.0135 15.81 13.0868 15.73C13.1668 15.6433 13.2935 15.6 13.4668 15.6C13.6401 15.6 13.7635 15.6433 13.8368 15.73C13.9168 15.81 13.9568 15.9167 13.9568 16.05V16.18C13.9568 16.3133 13.9168 16.4233 13.8368 16.51C13.7635 16.59 13.6401 16.63 13.4668 16.63ZM13.0668 17.84H13.8668V23H13.0668V17.84ZM16.4168 23C16.1368 23 15.9235 22.9233 15.7768 22.77C15.6368 22.61 15.5668 22.41 15.5668 22.17V15.6H16.3668V22.3H17.1268V23H16.4168ZM19.3826 23C19.1026 23 18.8892 22.9233 18.7426 22.77C18.6026 22.61 18.5326 22.4033 18.5326 22.15V18.54H17.6826V17.84H18.1626C18.3359 17.84 18.4526 17.8067 18.5126 17.74C18.5792 17.6667 18.6126 17.5433 18.6126 17.37V16.41H19.3326V17.84H20.4626V18.54H19.3326V22.3H20.3826V23H19.3826ZM24.1117 15.6H24.9117V18.68H24.9517C25.0851 18.3533 25.2784 18.1133 25.5317 17.96C25.7917 17.8 26.1017 17.72 26.4617 17.72C26.7817 17.72 27.0717 17.7833 27.3317 17.91C27.5917 18.0367 27.8117 18.2167 27.9917 18.45C28.1784 18.6833 28.3184 18.9667 28.4117 19.3C28.5117 19.6333 28.5617 20.0067 28.5617 20.42C28.5617 20.8333 28.5117 21.2067 28.4117 21.54C28.3184 21.8733 28.1784 22.1567 27.9917 22.39C27.8117 22.6233 27.5917 22.8033 27.3317 22.93C27.0717 23.0567 26.7817 23.12 26.4617 23.12C25.7617 23.12 25.2584 22.8 24.9517 22.16H24.9117V23H24.1117V15.6ZM26.2417 22.4C26.6951 22.4 27.0517 22.26 27.3117 21.98C27.5717 21.6933 27.7017 21.32 27.7017 20.86V19.98C27.7017 19.52 27.5717 19.15 27.3117 18.87C27.0517 18.5833 26.6951 18.44 26.2417 18.44C26.0617 18.44 25.8884 18.4667 25.7217 18.52C25.5617 18.5667 25.4217 18.6333 25.3017 18.72C25.1817 18.8067 25.0851 18.9133 25.0117 19.04C24.9451 19.16 24.9117 19.29 24.9117 19.43V21.35C24.9117 21.5167 24.9451 21.6667 25.0117 21.8C25.0851 21.9267 25.1817 22.0367 25.3017 22.13C25.4217 22.2167 25.5617 22.2833 25.7217 22.33C25.8884 22.3767 26.0617 22.4 26.2417 22.4ZM33.0437 17.84H33.8337L31.5237 24.2C31.4637 24.3533 31.4037 24.48 31.3437 24.58C31.2837 24.6867 31.2103 24.77 31.1237 24.83C31.037 24.89 30.927 24.9333 30.7937 24.96C30.667 24.9867 30.5103 25 30.3237 25H29.9137V24.3H30.7237L31.1137 23.2L29.1837 17.84H29.9837L31.2237 21.35L31.4637 22.19H31.5137L31.7937 21.35L33.0437 17.84Z" fill="#BBBBBB"/>
</svg>
