<svg width="138" height="25" viewBox="0 0 138 25" fill="none" xmlns="http://www.w3.org/2000/svg">
<path fill-rule="evenodd" clip-rule="evenodd" d="M86.3278 3.2195C86.3278 2.28584 85.6254 1.56549 84.7154 1.56549C83.8082 1.56549 83.103 2.28584 83.103 3.2195C83.103 4.15316 83.8082 4.87326 84.7154 4.87326C85.6256 4.87326 86.3278 4.15316 86.3278 3.2195ZM82.1614 3.2195C82.1614 1.76878 83.2632 0.673828 84.7154 0.673828C86.1669 0.673828 87.2694 1.76902 87.2694 3.2195C87.2694 4.67021 86.1669 5.76493 84.7154 5.76493C83.2632 5.76493 82.1614 4.67021 82.1614 3.2195ZM91.5989 2.32139C91.5989 1.86613 91.3154 1.54927 90.7736 1.54927H89.9423C89.9005 1.54927 89.8605 1.56629 89.8309 1.59658C89.8014 1.62687 89.7848 1.66796 89.7848 1.7108V2.92267C89.7848 3.01167 89.8555 3.08373 89.9423 3.08373H90.7736C91.3156 3.08373 91.5989 2.79645 91.5989 2.32139ZM92.5091 2.33093C92.5091 3.22284 91.8852 3.89785 90.9155 3.89785H89.9423C89.9005 3.89785 89.8605 3.91487 89.8309 3.94516C89.8014 3.97545 89.7848 4.01654 89.7848 4.05938V5.53921C89.7848 5.56038 89.7808 5.58135 89.7729 5.60091C89.7651 5.62048 89.7535 5.63827 89.7389 5.65325C89.7243 5.66823 89.707 5.68011 89.6879 5.68822C89.6689 5.69633 89.6484 5.7005 89.6278 5.7005H89.0037C88.9831 5.70054 88.9626 5.69639 88.9435 5.68829C88.9244 5.6802 88.907 5.66833 88.8924 5.65335C88.8778 5.63836 88.8662 5.62057 88.8582 5.60099C88.8503 5.5814 88.8462 5.56041 88.8462 5.53921V0.899786C88.8462 0.810787 88.9167 0.73849 89.0037 0.73849H90.9155C91.8855 0.73849 92.5089 1.45239 92.5089 2.33117L92.5091 2.33093ZM94.968 1.75614V2.63802C94.968 2.72702 95.038 2.79955 95.1252 2.79955H96.5267C96.6137 2.79955 96.6841 2.87161 96.6841 2.96109V3.48459C96.6841 3.52743 96.6676 3.56852 96.638 3.59881C96.6085 3.6291 96.5684 3.64612 96.5267 3.64612H95.1252C95.1046 3.64609 95.0841 3.65023 95.065 3.65831C95.0459 3.66638 95.0286 3.67824 95.014 3.6932C94.9993 3.70815 94.9877 3.72591 94.9798 3.74547C94.9719 3.76503 94.9678 3.786 94.9677 3.80718V4.68286C94.9677 4.7721 95.038 4.84439 95.1252 4.84439H96.76C96.8467 4.84439 96.9172 4.91669 96.9172 5.00545V5.53897C96.9172 5.58177 96.9007 5.62282 96.8712 5.65311C96.8417 5.68339 96.8017 5.70044 96.76 5.7005H94.1864C94.1657 5.7005 94.1453 5.69632 94.1262 5.6882C94.1071 5.68008 94.0898 5.66818 94.0751 5.65318C94.0605 5.63817 94.049 5.62036 94.0411 5.60077C94.0332 5.58117 94.0291 5.56017 94.0292 5.53897V0.899786C94.0292 0.810787 94.0997 0.738729 94.1864 0.738729H96.7597C96.8465 0.738729 96.917 0.810787 96.917 0.899786V1.43307C96.917 1.47587 96.9004 1.51692 96.8709 1.54721C96.8415 1.57749 96.8015 1.59454 96.7597 1.5946H95.125C95.0832 1.5946 95.0432 1.61162 95.0136 1.64191C94.9841 1.67221 94.9675 1.7133 94.9675 1.75614H94.968ZM103.18 0.899786V5.53897C103.18 5.58181 103.164 5.6229 103.134 5.65319C103.105 5.68348 103.065 5.7005 103.023 5.7005H102.368C102.344 5.70053 102.321 5.69505 102.299 5.68447C102.278 5.67389 102.259 5.65849 102.245 5.63942L99.8139 2.50798C99.7208 2.38868 99.5336 2.45572 99.5336 2.60867V5.53897C99.5336 5.58181 99.517 5.6229 99.4874 5.65319C99.4579 5.68348 99.4179 5.7005 99.3761 5.7005H98.765C98.7233 5.70044 98.6833 5.68339 98.6538 5.65311C98.6244 5.62282 98.6078 5.58177 98.6078 5.53897V0.899786C98.6078 0.810787 98.678 0.73849 98.765 0.73849H99.4138C99.4617 0.73849 99.5068 0.760919 99.5366 0.799095L101.968 3.91932C102.061 4.03863 102.248 3.97134 102.248 3.81911V0.899548C102.248 0.810548 102.318 0.738251 102.405 0.738251H103.023C103.11 0.738251 103.18 0.810548 103.18 0.899548V0.899786ZM87.2692 11.7653C87.2692 13.2223 86.1703 14.3172 84.7154 14.3172C83.2632 14.3172 82.1614 13.222 82.1614 11.7718C82.1614 10.3211 83.2632 9.22636 84.7154 9.22636C85.5505 9.22636 86.2706 9.59047 86.7284 10.1724C86.743 10.1908 86.7536 10.2123 86.7593 10.2354C86.765 10.2584 86.7657 10.2825 86.7613 10.3059C86.757 10.3292 86.7477 10.3513 86.7341 10.3706C86.7205 10.3899 86.703 10.4059 86.6828 10.4175L86.1431 10.7231C86.1121 10.7413 86.076 10.748 86.0407 10.7421C86.0055 10.7362 85.9732 10.7182 85.9494 10.6909C85.6563 10.3402 85.2174 10.1178 84.7119 10.1178C83.8082 10.1178 83.103 10.8252 83.103 11.7942C83.103 12.7023 83.7296 13.4258 84.728 13.4258C85.4381 13.4258 85.9659 13.0612 86.1971 12.4831C86.2387 12.3781 86.1599 12.2628 86.0494 12.2628H85.1655C85.1448 12.2628 85.1244 12.2587 85.1053 12.2505C85.0862 12.2424 85.0688 12.2305 85.0542 12.2155C85.0396 12.2005 85.028 12.1827 85.0201 12.1631C85.0123 12.1435 85.0082 12.1225 85.0082 12.1013V11.6296C85.0082 11.5403 85.0787 11.468 85.1655 11.468H87.1066C87.1901 11.468 87.2578 11.5341 87.2638 11.6193C87.2673 11.6661 87.2692 11.7148 87.2692 11.7653ZM92.6224 11.7718C92.6224 10.8381 91.9199 10.118 91.0099 10.118C90.103 10.118 89.3975 10.8381 89.3975 11.7718C89.3975 12.7054 90.103 13.4256 91.0099 13.4256C91.9199 13.4256 92.6224 12.7054 92.6224 11.7718ZM88.4559 11.7718C88.4559 10.3211 89.558 9.22612 91.0099 9.22612C92.4614 9.22612 93.564 10.3213 93.564 11.7718C93.564 13.2225 92.4614 14.3175 91.0099 14.3175C89.558 14.3175 88.4559 13.2223 88.4559 11.7718ZM98.9369 9.50934L97.2233 14.1485C97.2121 14.1791 97.192 14.2055 97.1658 14.2241C97.1395 14.2427 97.1084 14.2527 97.0766 14.2528H96.3236C96.2917 14.2528 96.2605 14.2428 96.2343 14.2242C96.208 14.2055 96.1879 14.1792 96.1766 14.1485L94.4658 9.50934C94.4568 9.48491 94.4537 9.45859 94.4568 9.43267C94.4599 9.40674 94.4691 9.38197 94.4836 9.36048C94.498 9.33899 94.5174 9.32143 94.5399 9.30929C94.5625 9.29715 94.5876 9.2908 94.613 9.29078H95.2666C95.3329 9.29078 95.3922 9.33373 95.4146 9.39791L96.552 12.6675C96.6018 12.8107 96.7986 12.8107 96.8481 12.6677L97.9884 9.39791C97.9993 9.36656 98.0194 9.33942 98.0459 9.32024C98.0724 9.30106 98.1041 9.29077 98.1365 9.29078H98.7899C98.9 9.29078 98.9762 9.40364 98.9369 9.50934ZM101.37 10.3082V11.1905C101.37 11.2795 101.44 11.3518 101.527 11.3518H102.929C103.015 11.3518 103.086 11.4239 103.086 11.5131V12.0369C103.086 12.0797 103.069 12.1207 103.04 12.1509C103.01 12.1812 102.97 12.1982 102.929 12.1982H101.527C101.485 12.1982 101.445 12.2153 101.416 12.2456C101.386 12.2759 101.37 12.3169 101.37 12.3597V13.2354C101.37 13.3244 101.44 13.3964 101.527 13.3964H103.162C103.249 13.3964 103.319 13.469 103.319 13.558V14.0913C103.319 14.1125 103.315 14.1335 103.307 14.1531C103.299 14.1727 103.288 14.1905 103.273 14.2055C103.258 14.2205 103.241 14.2324 103.222 14.2405C103.203 14.2486 103.182 14.2528 103.162 14.2528H100.588C100.568 14.2528 100.547 14.2486 100.528 14.2404C100.509 14.2323 100.492 14.2204 100.477 14.2054C100.463 14.1904 100.451 14.1726 100.443 14.153C100.435 14.1334 100.431 14.1124 100.431 14.0913V9.45232C100.431 9.36308 100.501 9.29078 100.588 9.29078H103.162C103.249 9.29078 103.319 9.36308 103.319 9.45232V9.9856C103.319 10.0068 103.315 10.0278 103.307 10.0474C103.299 10.0669 103.288 10.0847 103.273 10.0997C103.258 10.1147 103.241 10.1266 103.222 10.1347C103.203 10.1428 103.182 10.1469 103.162 10.1469H101.527C101.485 10.147 101.445 10.164 101.416 10.1942C101.386 10.2244 101.37 10.2654 101.37 10.3082ZM105.948 11.2228C105.948 11.3118 106.018 11.3843 106.105 11.3843H106.836C107.287 11.3843 107.529 11.1481 107.529 10.751C107.529 10.3602 107.287 10.1049 106.836 10.1049H106.105C106.064 10.1049 106.024 10.1219 105.994 10.1522C105.965 10.1825 105.948 10.2236 105.948 10.2664V11.2228ZM106.642 12.1559H106.105C106.063 12.1559 106.023 12.173 105.994 12.2033C105.964 12.2335 105.948 12.2746 105.948 12.3175V14.0913C105.948 14.1125 105.944 14.1335 105.936 14.1531C105.928 14.1727 105.916 14.1905 105.902 14.2055C105.887 14.2205 105.87 14.2324 105.851 14.2405C105.832 14.2486 105.811 14.2528 105.79 14.2528H105.167C105.146 14.2528 105.125 14.2486 105.106 14.2405C105.087 14.2324 105.07 14.2205 105.055 14.2055C105.041 14.1905 105.029 14.1727 105.021 14.1531C105.013 14.1335 105.009 14.1125 105.009 14.0913V9.45232C105.009 9.36308 105.08 9.29078 105.167 9.29078H106.899C107.894 9.29078 108.439 9.94981 108.439 10.7606C108.439 11.3034 108.167 11.7389 107.749 11.9722C107.73 11.9824 107.714 11.9964 107.701 12.0133C107.688 12.0301 107.678 12.0495 107.673 12.0703C107.667 12.0911 107.665 12.1128 107.668 12.1341C107.671 12.1555 107.678 12.1761 107.689 12.1946L108.736 14.0092C108.75 14.0337 108.758 14.0616 108.758 14.09C108.758 14.1184 108.751 14.1464 108.737 14.1711C108.723 14.1958 108.704 14.2163 108.68 14.2306C108.656 14.2449 108.629 14.2525 108.601 14.2526H107.949C107.921 14.2526 107.894 14.2449 107.869 14.2302C107.845 14.2155 107.825 14.1944 107.812 14.169L106.78 12.2399C106.766 12.2145 106.746 12.1933 106.722 12.1786C106.698 12.1638 106.67 12.156 106.642 12.1559H106.642ZM114.863 9.45232V14.0915C114.863 14.1343 114.846 14.1752 114.817 14.2055C114.787 14.2357 114.747 14.2527 114.706 14.2528H114.051C114.027 14.2529 114.003 14.2474 113.982 14.2369C113.961 14.2263 113.942 14.211 113.927 14.192L111.497 11.0603C111.403 10.941 111.216 11.0083 111.216 11.161V14.0915C111.216 14.1343 111.2 14.1753 111.17 14.2056C111.14 14.2358 111.1 14.2528 111.059 14.2528H110.447C110.406 14.2527 110.366 14.2357 110.336 14.2055C110.307 14.1752 110.29 14.1342 110.29 14.0915V9.45232C110.29 9.36308 110.361 9.29078 110.447 9.29078H111.096C111.144 9.29078 111.189 9.31321 111.219 9.35163L113.651 12.4716C113.743 12.5909 113.931 12.5236 113.931 12.3709V9.45256C113.931 9.36332 114.001 9.29102 114.088 9.29102H114.706C114.792 9.29102 114.863 9.36332 114.863 9.45256L114.863 9.45232ZM122.058 9.45232V14.0915C122.058 14.1343 122.041 14.1753 122.012 14.2056C121.982 14.2358 121.942 14.2528 121.901 14.2528H121.277C121.235 14.2528 121.195 14.2358 121.166 14.2056C121.136 14.1753 121.119 14.1343 121.119 14.0915V11.4005C121.119 11.2237 120.882 11.1758 120.816 11.3394L119.695 14.1526C119.683 14.1822 119.663 14.2075 119.637 14.2253C119.611 14.2431 119.581 14.2527 119.55 14.2528H119.273C119.242 14.2528 119.211 14.2432 119.185 14.2252C119.159 14.2073 119.139 14.1818 119.127 14.1521L118.012 11.338C117.947 11.1741 117.709 11.2216 117.709 11.3989V14.0915C117.709 14.1343 117.692 14.1753 117.663 14.2056C117.633 14.2358 117.593 14.2528 117.551 14.2528H116.928C116.886 14.2528 116.846 14.2358 116.817 14.2056C116.787 14.1753 116.77 14.1343 116.77 14.0915V9.45232C116.77 9.36308 116.841 9.29078 116.928 9.29078H117.938C118.001 9.29078 118.059 9.33015 118.083 9.39052L119.265 12.3263C119.276 12.3559 119.297 12.3812 119.322 12.399C119.348 12.4168 119.379 12.4263 119.41 12.4264C119.441 12.4264 119.471 12.417 119.497 12.3993C119.523 12.3815 119.543 12.3563 119.555 12.3268L120.749 9.39004C120.761 9.36067 120.781 9.33557 120.807 9.31791C120.832 9.30025 120.863 9.29081 120.894 9.29078H121.901C121.988 9.29078 122.058 9.36308 122.058 9.45232ZM124.907 10.3082V11.1905C124.907 11.2795 124.978 11.3518 125.065 11.3518H126.467C126.554 11.3518 126.624 11.4239 126.624 11.5131V12.0369C126.624 12.0797 126.607 12.1207 126.578 12.1509C126.548 12.1812 126.508 12.1982 126.467 12.1982H125.065C125.023 12.1982 124.983 12.2152 124.954 12.2455C124.924 12.2758 124.907 12.3169 124.907 12.3597V13.2354C124.907 13.3244 124.978 13.3964 125.065 13.3964H126.7C126.786 13.3964 126.857 13.469 126.857 13.558V14.0913C126.857 14.1124 126.853 14.1334 126.845 14.153C126.837 14.1726 126.825 14.1904 126.811 14.2054C126.796 14.2204 126.779 14.2323 126.76 14.2404C126.741 14.2486 126.72 14.2528 126.7 14.2528H124.126C124.105 14.2528 124.085 14.2486 124.066 14.2405C124.047 14.2324 124.029 14.2205 124.015 14.2055C124 14.1905 123.989 14.1727 123.981 14.1531C123.973 14.1335 123.969 14.1125 123.969 14.0913V9.45232C123.969 9.36308 124.04 9.29078 124.126 9.29078H126.7C126.786 9.29078 126.857 9.36308 126.857 9.45232V9.9856C126.857 10.0068 126.853 10.0277 126.845 10.0473C126.837 10.0669 126.825 10.0847 126.811 10.0996C126.796 10.1146 126.779 10.1265 126.76 10.1346C126.741 10.1427 126.72 10.1469 126.7 10.1469H125.065C125.023 10.1469 124.983 10.1639 124.954 10.1941C124.924 10.2244 124.907 10.2654 124.907 10.3082ZM133.12 9.45232V14.0915C133.12 14.1127 133.116 14.1337 133.108 14.1533C133.1 14.1729 133.088 14.1907 133.074 14.2057C133.059 14.2206 133.042 14.2325 133.023 14.2406C133.003 14.2487 132.983 14.2528 132.962 14.2528H132.308C132.284 14.2528 132.261 14.2474 132.239 14.2368C132.218 14.2263 132.199 14.2109 132.184 14.192L129.754 11.0603C129.661 10.941 129.473 11.0083 129.473 11.161V14.0915C129.473 14.1343 129.457 14.1752 129.427 14.2055C129.398 14.2357 129.358 14.2527 129.316 14.2528H128.704C128.663 14.2527 128.623 14.2357 128.593 14.2055C128.564 14.1752 128.547 14.1342 128.547 14.0915V9.45232C128.547 9.36308 128.617 9.29078 128.704 9.29078H129.353C129.401 9.29078 129.446 9.31321 129.476 9.35163L131.907 12.4716C132 12.5909 132.188 12.5236 132.188 12.3709V9.45256C132.188 9.36332 132.258 9.29102 132.345 9.29102H132.962C133.049 9.29102 133.12 9.36332 133.12 9.45256" fill="black"/>
<path fill-rule="evenodd" clip-rule="evenodd" d="M137.843 10.1491H136.913C136.893 10.1491 136.872 10.1533 136.853 10.1614C136.834 10.1695 136.817 10.1814 136.802 10.1964C136.787 10.2114 136.776 10.2292 136.768 10.2488C136.76 10.2684 136.756 10.2894 136.756 10.3106V14.0937C136.756 14.1364 136.739 14.1774 136.71 14.2077C136.68 14.2379 136.64 14.2549 136.599 14.255H135.978C135.936 14.2549 135.896 14.2379 135.867 14.2077C135.837 14.1774 135.821 14.1364 135.821 14.0937V10.3106C135.821 10.2894 135.817 10.2684 135.809 10.2488C135.801 10.2292 135.789 10.2114 135.775 10.1964C135.76 10.1814 135.743 10.1695 135.724 10.1614C135.705 10.1533 135.684 10.1491 135.663 10.1491H134.731C134.69 10.1491 134.65 10.1321 134.62 10.1019C134.59 10.0717 134.574 10.0308 134.574 9.98802V9.4545C134.574 9.36527 134.644 9.29297 134.731 9.29297H137.843C137.93 9.29297 138 9.36527 138 9.4545V9.98778C138 10.0306 137.984 10.0716 137.954 10.1019C137.925 10.1321 137.884 10.1491 137.843 10.1491Z" fill="black"/>
<path fill-rule="evenodd" clip-rule="evenodd" d="M85.2473 19.4308C85.2473 18.9755 84.964 18.6586 84.4222 18.6586H83.5909C83.5491 18.6586 83.5091 18.6757 83.4796 18.706C83.45 18.7362 83.4334 18.7773 83.4334 18.8202V20.032C83.4334 20.121 83.5039 20.1931 83.5909 20.1931H84.4222C84.9642 20.1931 85.2475 19.9058 85.2475 19.4308H85.2473ZM86.1577 19.4408C86.1577 20.3322 85.5343 21.0072 84.5639 21.0072H83.5909C83.5491 21.0072 83.5091 21.0242 83.4796 21.0545C83.45 21.0848 83.4334 21.1259 83.4334 21.1688V22.6486C83.4335 22.6698 83.4294 22.6908 83.4215 22.7103C83.4136 22.7299 83.4021 22.7477 83.3875 22.7627C83.3728 22.7777 83.3555 22.7896 83.3364 22.7977C83.3173 22.8058 83.2969 22.8099 83.2762 22.8099H82.6523C82.6317 22.8099 82.6112 22.8058 82.5921 22.7977C82.573 22.7896 82.5556 22.7777 82.541 22.7627C82.5264 22.7477 82.5148 22.7299 82.5069 22.7104C82.4989 22.6908 82.4949 22.6698 82.4949 22.6486V18.0092C82.4949 17.9202 82.5651 17.8479 82.6523 17.8479H84.5639C85.5341 17.8479 86.1577 18.562 86.1577 19.4408ZM88.6164 19.7798C88.6164 19.8688 88.6868 19.9414 88.7738 19.9414H89.5042C89.9546 19.9414 90.1974 19.7052 90.1974 19.3079C90.1974 18.917 89.9546 18.662 89.5042 18.662H88.7738C88.7532 18.662 88.7327 18.6661 88.7136 18.6742C88.6945 18.6823 88.6771 18.6942 88.6625 18.7091C88.6479 18.7241 88.6363 18.7419 88.6284 18.7615C88.6204 18.7811 88.6164 18.8021 88.6164 18.8233V19.7801V19.7798ZM89.3105 20.7133H88.7738C88.7321 20.7133 88.6921 20.7302 88.6626 20.7605C88.633 20.7907 88.6164 20.8318 88.6164 20.8746V22.6483C88.6164 22.6696 88.6123 22.6906 88.6044 22.7102C88.5965 22.7298 88.5849 22.7476 88.5703 22.7626C88.5557 22.7776 88.5383 22.7895 88.5192 22.7976C88.5001 22.8058 88.4796 22.8099 88.4589 22.8099H87.835C87.8144 22.8099 87.7939 22.8057 87.7748 22.7976C87.7557 22.7895 87.7384 22.7776 87.7238 22.7625C87.7092 22.7475 87.6976 22.7297 87.6897 22.7101C87.6818 22.6905 87.6778 22.6695 87.6778 22.6483V18.0092C87.6778 17.9202 87.748 17.8481 87.835 17.8481H89.5673C90.5624 17.8481 91.1073 18.5069 91.1073 19.3177C91.1073 19.8603 90.8357 20.2962 90.4172 20.5291C90.3988 20.5393 90.3825 20.5533 90.3695 20.5702C90.3564 20.587 90.3468 20.6064 90.3412 20.6272C90.3356 20.6479 90.3341 20.6696 90.3369 20.691C90.3396 20.7123 90.3465 20.7329 90.3572 20.7514L91.4044 22.5663C91.4185 22.5907 91.426 22.6186 91.4263 22.647C91.4265 22.6755 91.4194 22.7035 91.4057 22.7282C91.3919 22.7529 91.3721 22.7734 91.3481 22.7877C91.3242 22.802 91.297 22.8096 91.2692 22.8096H90.6179C90.5898 22.8097 90.5621 22.8019 90.5378 22.7872C90.5136 22.7726 90.4936 22.7514 90.48 22.7261L89.4484 20.797C89.4348 20.7717 89.4149 20.7505 89.3906 20.7358C89.3663 20.7211 89.3387 20.7133 89.3105 20.7133ZM96.6622 20.3289C96.6622 19.3952 95.9597 18.6751 95.0498 18.6751C94.1429 18.6751 93.4374 19.3952 93.4374 20.3289C93.4374 21.2625 94.1429 21.9829 95.0498 21.9829C95.9597 21.9829 96.6622 21.2625 96.6622 20.3289ZM92.4958 20.3289C92.4958 18.8782 93.5979 17.7834 95.0498 17.7834C96.5013 17.7834 97.6038 18.8782 97.6038 20.3289C97.6038 21.7796 96.5013 22.8745 95.0498 22.8745C93.5979 22.8745 92.4958 21.7793 92.4958 20.3289ZM100.797 21.9538C101.823 21.9538 102.321 21.3787 102.321 20.3289C102.321 19.279 101.823 18.7042 100.797 18.7042H100.273C100.231 18.7042 100.191 18.7212 100.162 18.7515C100.133 18.7817 100.116 18.8227 100.116 18.8655V21.7922C100.116 21.8815 100.186 21.9538 100.273 21.9538H100.797ZM99.1809 18.0092C99.1809 17.9202 99.2514 17.8481 99.3381 17.8481H100.837C102.444 17.8481 103.293 18.8264 103.293 20.3289C103.293 21.8311 102.444 22.8099 100.837 22.8099H99.3381C99.3174 22.8099 99.297 22.8057 99.2779 22.7976C99.2588 22.7895 99.2414 22.7776 99.2268 22.7625C99.2122 22.7475 99.2007 22.7297 99.1928 22.7101C99.1849 22.6905 99.1808 22.6695 99.1809 22.6483V18.0092ZM104.802 21.0912V18.0094C104.802 17.9199 104.872 17.8479 104.959 17.8479H105.583C105.67 17.8479 105.74 17.9199 105.74 18.0094V20.9426C105.74 21.734 106.184 22.0218 106.767 22.0218C107.353 22.0218 107.796 21.734 107.796 20.9426V18.0094C107.796 17.9199 107.867 17.8479 107.954 17.8479H108.581C108.668 17.8479 108.738 17.9199 108.738 18.0094V21.0912C108.738 22.2768 107.888 22.8743 106.767 22.8743C105.652 22.8743 104.802 22.2768 104.802 21.0912H104.802ZM110.218 20.3289C110.218 18.8782 111.316 17.7834 112.772 17.7834C113.425 17.7834 114.048 18.0325 114.497 18.4384C114.514 18.4533 114.527 18.4716 114.536 18.4922C114.546 18.5128 114.551 18.5351 114.551 18.5578C114.552 18.5806 114.548 18.6031 114.539 18.624C114.53 18.645 114.518 18.6638 114.501 18.6794L114.069 19.095C114.041 19.1226 114.003 19.1382 113.964 19.1387C113.925 19.1391 113.887 19.1244 113.858 19.0974C113.573 18.8309 113.184 18.6751 112.772 18.6751C111.861 18.6751 111.159 19.3921 111.159 20.3289C111.159 21.2656 111.861 21.9829 112.771 21.9829C113.184 21.9829 113.573 21.8268 113.858 21.5603C113.887 21.5333 113.925 21.5185 113.964 21.519C114.003 21.5194 114.041 21.535 114.07 21.5627L114.501 21.9786C114.518 21.9941 114.53 22.013 114.539 22.0339C114.548 22.0549 114.552 22.0774 114.551 22.1001C114.551 22.1228 114.546 22.1452 114.536 22.1658C114.527 22.1863 114.514 22.2047 114.497 22.2196C114.048 22.6252 113.425 22.8745 112.771 22.8745C111.316 22.8745 110.218 21.7793 110.218 20.3289ZM118.896 18.704H117.967C117.946 18.704 117.926 18.7082 117.907 18.7163C117.888 18.7244 117.87 18.7363 117.856 18.7513C117.841 18.7663 117.829 18.7841 117.822 18.8037C117.814 18.8233 117.81 18.8443 117.81 18.8655V22.6486C117.81 22.6913 117.793 22.7323 117.763 22.7625C117.734 22.7927 117.694 22.8096 117.652 22.8096H117.032C117.011 22.8097 116.99 22.8055 116.971 22.7975C116.952 22.7894 116.935 22.7775 116.92 22.7626C116.906 22.7476 116.894 22.7298 116.886 22.7103C116.878 22.6907 116.874 22.6698 116.874 22.6486V18.8655C116.874 18.8443 116.87 18.8233 116.862 18.8037C116.854 18.7841 116.843 18.7663 116.828 18.7513C116.814 18.7363 116.796 18.7244 116.777 18.7163C116.758 18.7082 116.738 18.704 116.717 18.704H115.784C115.743 18.7039 115.703 18.6869 115.673 18.6566C115.644 18.6264 115.627 18.5854 115.627 18.5427V18.0094C115.627 17.9199 115.698 17.8479 115.784 17.8479H118.896C118.983 17.8479 119.054 17.9199 119.054 18.0094V18.5427C119.054 18.5855 119.037 18.6265 119.007 18.6567C118.978 18.687 118.938 18.704 118.896 18.704ZM120.191 21.9686L120.532 21.5324C120.545 21.5149 120.562 21.5006 120.581 21.4902C120.601 21.4799 120.622 21.4738 120.643 21.4723C120.665 21.4709 120.687 21.4741 120.707 21.4818C120.728 21.4894 120.746 21.5014 120.762 21.5169C121.087 21.8388 121.535 22.0571 121.929 22.0571C122.306 22.0571 122.58 21.8571 122.58 21.5047C122.58 21.0621 122.149 20.8972 121.598 20.6488C120.965 20.3644 120.297 20.0414 120.297 19.1657C120.297 18.2871 120.965 17.7832 121.79 17.7832C122.336 17.7832 122.849 17.9925 123.271 18.3384C123.336 18.3914 123.345 18.4888 123.296 18.5572L122.991 18.9815C122.979 18.999 122.963 19.0137 122.945 19.0248C122.927 19.0358 122.907 19.043 122.886 19.0459C122.865 19.0487 122.844 19.0472 122.823 19.0414C122.803 19.0355 122.784 19.0256 122.767 19.012C122.442 18.7355 122.075 18.6007 121.768 18.6007C121.462 18.6007 121.22 18.7591 121.22 19.069C121.22 19.4728 121.636 19.631 122.193 19.8767C122.829 20.1642 123.519 20.5195 123.519 21.4434C123.519 22.393 122.788 22.8712 121.925 22.8712C121.303 22.8712 120.665 22.6149 120.211 22.1917C120.181 22.1641 120.162 22.1257 120.158 22.0842C120.154 22.0427 120.166 22.0013 120.191 21.9686Z" fill="black"/>
<path fill-rule="evenodd" clip-rule="evenodd" d="M55.2326 21.1776C55.3085 21.0436 55.3316 20.8849 55.297 20.7341C55.2625 20.5832 55.1729 20.4516 55.0468 20.3664C52.319 18.5329 50.5161 15.3719 50.5161 11.7766C50.5161 8.1818 52.319 5.02077 55.0468 3.18733C55.1729 3.10202 55.2624 2.97045 55.2969 2.81961C55.3315 2.66876 55.3085 2.51007 55.2326 2.37608L54.0682 0.307379C54.0275 0.235537 53.9731 0.172917 53.9081 0.123314C53.8431 0.0737112 53.769 0.0381599 53.6903 0.018816C53.6115 -0.00052793 53.5298 -0.00326143 53.4499 0.0107812C53.3701 0.0248239 53.2939 0.0553501 53.2259 0.100509C49.4821 2.5672 47 6.87353 47 11.7768C47 16.6802 49.4819 20.9863 53.2259 23.4532C53.2939 23.4983 53.3701 23.5288 53.4499 23.5429C53.5297 23.5569 53.6115 23.5542 53.6902 23.5349C53.7689 23.5156 53.8431 23.48 53.908 23.4305C53.973 23.3809 54.0275 23.3183 54.0682 23.2465L55.2326 21.1776Z" fill="#7F7F7F"/>
<path fill-rule="evenodd" clip-rule="evenodd" d="M66.979 0.305248L65.8148 2.37442C65.739 2.50833 65.716 2.66691 65.7505 2.81766C65.785 2.9684 65.8744 3.0999 66.0004 3.1852C68.7282 5.01864 70.5309 8.1799 70.5309 11.775C70.5309 15.37 68.7282 18.531 66.0004 20.3647C65.8744 20.45 65.785 20.5815 65.7505 20.7322C65.716 20.883 65.739 21.0416 65.8148 21.1755L66.979 23.2444C67.0197 23.3162 67.0742 23.3788 67.1391 23.4284C67.2041 23.478 67.2782 23.5135 67.357 23.5329C67.4357 23.5522 67.5175 23.555 67.5973 23.5409C67.6771 23.5269 67.7533 23.4964 67.8213 23.4513C71.5655 20.9844 74.047 16.6783 74.047 11.775C74.047 6.87164 71.5651 2.56555 67.8213 0.0983782C67.7533 0.0532684 67.6771 0.0227878 67.5973 0.00878377C67.5175 -0.00522021 67.4357 -0.0024559 67.357 0.0169092C67.2783 0.0362742 67.2042 0.0718367 67.1393 0.121441C67.0743 0.171046 67.0199 0.233659 66.9792 0.305487" fill="#7F7F7F"/>
<path d="M0.93 15.5708H3.8C4.38 15.5708 4.83333 15.7341 5.16 16.0608C5.49333 16.3874 5.66 16.8241 5.66 17.3708C5.66 17.6308 5.62333 17.8508 5.55 18.0308C5.47667 18.2108 5.38333 18.3608 5.27 18.4808C5.15667 18.5941 5.03333 18.6808 4.9 18.7408C4.76667 18.7941 4.64333 18.8308 4.53 18.8508V18.9108C4.65667 18.9174 4.79667 18.9508 4.95 19.0108C5.11 19.0708 5.26 19.1674 5.4 19.3008C5.54 19.4274 5.65667 19.5941 5.75 19.8008C5.85 20.0008 5.9 20.2441 5.9 20.5308C5.9 20.8174 5.85333 21.0841 5.76 21.3308C5.67333 21.5774 5.55 21.7908 5.39 21.9708C5.23 22.1508 5.04 22.2941 4.82 22.4008C4.6 22.5008 4.36 22.5508 4.1 22.5508H0.93V15.5708ZM1.77 21.8108H3.84C4.2 21.8108 4.48333 21.7208 4.69 21.5408C4.89667 21.3541 5 21.0841 5 20.7308V20.3908C5 20.0374 4.89667 19.7708 4.69 19.5908C4.48333 19.4041 4.2 19.3108 3.84 19.3108H1.77V21.8108ZM1.77 18.5908H3.7C4.03333 18.5908 4.29333 18.5074 4.48 18.3408C4.66667 18.1741 4.76 17.9341 4.76 17.6208V17.2808C4.76 16.9674 4.66667 16.7274 4.48 16.5608C4.29333 16.3941 4.03333 16.3108 3.7 16.3108H1.77V18.5908ZM10.5632 21.7108H10.5232C10.4699 21.8308 10.4032 21.9508 10.3232 22.0708C10.2499 22.1841 10.1565 22.2874 10.0432 22.3808C9.92987 22.4674 9.7932 22.5374 9.6332 22.5908C9.4732 22.6441 9.28654 22.6708 9.0732 22.6708C8.53987 22.6708 8.11654 22.5008 7.8032 22.1608C7.48987 21.8141 7.3332 21.3274 7.3332 20.7008V17.3908H8.1332V20.5608C8.1332 21.4874 8.52654 21.9508 9.3132 21.9508C9.4732 21.9508 9.62654 21.9308 9.7732 21.8908C9.92654 21.8508 10.0599 21.7908 10.1732 21.7108C10.2932 21.6308 10.3865 21.5308 10.4532 21.4108C10.5265 21.2841 10.5632 21.1341 10.5632 20.9608V17.3908H11.3632V22.5508H10.5632V21.7108ZM13.4668 16.1808C13.2935 16.1808 13.1668 16.1408 13.0868 16.0608C13.0135 15.9741 12.9768 15.8641 12.9768 15.7308V15.6008C12.9768 15.4674 13.0135 15.3608 13.0868 15.2808C13.1668 15.1941 13.2935 15.1508 13.4668 15.1508C13.6401 15.1508 13.7635 15.1941 13.8368 15.2808C13.9168 15.3608 13.9568 15.4674 13.9568 15.6008V15.7308C13.9568 15.8641 13.9168 15.9741 13.8368 16.0608C13.7635 16.1408 13.6401 16.1808 13.4668 16.1808ZM13.0668 17.3908H13.8668V22.5508H13.0668V17.3908ZM16.4168 22.5508C16.1368 22.5508 15.9235 22.4741 15.7768 22.3208C15.6368 22.1608 15.5668 21.9608 15.5668 21.7208V15.1508H16.3668V21.8508H17.1268V22.5508H16.4168ZM19.3826 22.5508C19.1026 22.5508 18.8892 22.4741 18.7426 22.3208C18.6026 22.1608 18.5326 21.9541 18.5326 21.7008V18.0908H17.6826V17.3908H18.1626C18.3359 17.3908 18.4526 17.3574 18.5126 17.2908C18.5792 17.2174 18.6126 17.0941 18.6126 16.9208V15.9608H19.3326V17.3908H20.4626V18.0908H19.3326V21.8508H20.3826V22.5508H19.3826ZM24.1117 15.1508H24.9117V18.2308H24.9517C25.0851 17.9041 25.2784 17.6641 25.5317 17.5108C25.7917 17.3508 26.1017 17.2708 26.4617 17.2708C26.7817 17.2708 27.0717 17.3341 27.3317 17.4608C27.5917 17.5874 27.8117 17.7674 27.9917 18.0008C28.1784 18.2341 28.3184 18.5174 28.4117 18.8508C28.5117 19.1841 28.5617 19.5574 28.5617 19.9708C28.5617 20.3841 28.5117 20.7574 28.4117 21.0908C28.3184 21.4241 28.1784 21.7074 27.9917 21.9408C27.8117 22.1741 27.5917 22.3541 27.3317 22.4808C27.0717 22.6074 26.7817 22.6708 26.4617 22.6708C25.7617 22.6708 25.2584 22.3508 24.9517 21.7108H24.9117V22.5508H24.1117V15.1508ZM26.2417 21.9508C26.6951 21.9508 27.0517 21.8108 27.3117 21.5308C27.5717 21.2441 27.7017 20.8708 27.7017 20.4108V19.5308C27.7017 19.0708 27.5717 18.7008 27.3117 18.4208C27.0517 18.1341 26.6951 17.9908 26.2417 17.9908C26.0617 17.9908 25.8884 18.0174 25.7217 18.0708C25.5617 18.1174 25.4217 18.1841 25.3017 18.2708C25.1817 18.3574 25.0851 18.4641 25.0117 18.5908C24.9451 18.7108 24.9117 18.8408 24.9117 18.9808V20.9008C24.9117 21.0674 24.9451 21.2174 25.0117 21.3508C25.0851 21.4774 25.1817 21.5874 25.3017 21.6808C25.4217 21.7674 25.5617 21.8341 25.7217 21.8808C25.8884 21.9274 26.0617 21.9508 26.2417 21.9508ZM33.0437 17.3908H33.8337L31.5237 23.7508C31.4637 23.9041 31.4037 24.0308 31.3437 24.1308C31.2837 24.2374 31.2103 24.3208 31.1237 24.3808C31.037 24.4408 30.927 24.4841 30.7937 24.5108C30.667 24.5374 30.5103 24.5508 30.3237 24.5508H29.9137V23.8508H30.7237L31.1137 22.7508L29.1837 17.3908H29.9837L31.2237 20.9008L31.4637 21.7408H31.5137L31.7937 20.9008L33.0437 17.3908Z" fill="#BBBBBB"/>
</svg>
