<svg width="24" height="24" viewBox="0 0 24 24" fill="none" xmlns="http://www.w3.org/2000/svg">
<path fill-rule="evenodd" clip-rule="evenodd" d="M12.0258 2C6.51676 2 2.05176 6.465 2.05176 11.974C2.05176 16.38 4.90876 20.119 8.87276 21.439C9.37176 21.529 9.55176 21.222 9.55176 20.958C9.55176 20.721 9.54376 20.093 9.54076 19.262C6.76576 19.864 6.17976 17.924 6.17976 17.924C5.72776 16.772 5.07276 16.465 5.07276 16.465C4.16776 15.846 5.14176 15.86 5.14176 15.86C6.14376 15.93 6.66876 16.888 6.66876 16.888C7.55876 18.412 9.00476 17.972 9.57076 17.717C9.66176 17.072 9.92176 16.632 10.2058 16.383C7.99176 16.132 5.66376 15.276 5.66376 11.453C5.66376 10.366 6.05276 9.474 6.68776 8.778C6.58676 8.525 6.24176 7.51 6.78676 6.138C6.78676 6.138 7.62376 5.869 9.52876 7.159C10.3268 6.938 11.1778 6.827 12.0248 6.823C12.8738 6.827 13.7258 6.938 14.5208 7.159C16.4268 5.868 17.2628 6.138 17.2628 6.138C17.8078 7.51 17.4658 8.525 17.3618 8.778C18.0018 9.474 18.3858 10.365 18.3858 11.453C18.3858 15.286 16.0558 16.128 13.8338 16.375C14.1888 16.683 14.5088 17.291 14.5088 18.221C14.5088 19.555 14.4968 20.631 14.4968 20.958C14.4968 21.225 14.6748 21.535 15.1838 21.437C19.1458 20.115 21.9998 16.379 21.9998 11.974C21.9998 6.465 17.5348 2 12.0258 2Z" fill="#384A51"/>
</svg>
