<svg xmlns="http://www.w3.org/2000/svg" width="24" height="24" fill="none" viewBox="0 0 24 24">
    <path fill="#384A51" d="M12 6C9.83 6 8.066 7.765 8.066 9.934h2C10.066 8.867 10.934 8 12 8c1.066 0 1.934.867 1.934 1.934 0 .598-.481 1.032-1.216 1.626-.255.207-.496.404-.691.599-.998.997-1.027 2.056-1.027 2.174v.167h2l-.001-.133c0-.016.033-.386.44-.793.15-.15.34-.3.536-.458.779-.631 1.958-1.584 1.958-3.182C15.933 7.765 14.169 6 12 6zm-1 10h2v2h-2v-2z"/>
    <path fill="#384A51" d="M12 2C6.486 2 2 6.486 2 12s4.486 10 10 10 10-4.486 10-10S17.514 2 12 2zm0 18c-4.411 0-8-3.589-8-8s3.589-8 8-8 8 3.589 8 8-3.589 8-8 8z"/>
</svg>
