<svg width="24" height="24" viewBox="0 0 18 16" fill="none" xmlns="http://www.w3.org/2000/svg">
<path d="M0.666504 7.99935L4.83317 11.3327V8.83268H12.3332V7.16602H4.83317V4.66602L0.666504 7.99935Z" fill="white"/>
<path d="M9.8341 0.5C7.82993 0.5 5.9466 1.28083 4.53076 2.6975L5.70909 3.87583C6.81076 2.77417 8.27576 2.16667 9.8341 2.16667C11.3924 2.16667 12.8574 2.77417 13.9591 3.87583C15.0608 4.9775 15.6683 6.4425 15.6683 8.00083C15.6683 9.55917 15.0608 11.0242 13.9591 12.1258C12.8574 13.2275 11.3924 13.835 9.8341 13.835C8.27576 13.835 6.81076 13.2275 5.70909 12.1258L4.53076 13.3042C5.9466 14.7208 7.82993 15.5017 9.8341 15.5017C11.8383 15.5017 13.7216 14.7208 15.1374 13.3042C16.5541 11.8883 17.3349 10.005 17.3349 8.00083C17.3349 5.99667 16.5541 4.11333 15.1374 2.6975C13.7216 1.28083 11.8383 0.5 9.8341 0.5Z" fill="white"/>
</svg>
