<svg width="68" height="68" viewBox="0 0 68 68" fill="none" xmlns="http://www.w3.org/2000/svg">
<path d="M24.994 1.666L2.3256 17.7905C1.50383 18.36 1.01056 19.2837 1 20.2727V31.2217C1 46.604 10.2769 60.464 24.4859 66.3129C26.1607 66.9973 28.0435 66.9973 29.7183 66.3129C43.9318 60.464 53.2042 46.604 53.2042 31.2217V20.2727C53.1939 19.2831 52.6996 18.3591 51.8764 17.7905L29.2079 1.666C27.9461 0.784674 26.2559 0.784674 24.994 1.666Z" fill="#AB7F95"/>
<path d="M51.8842 17.7899L29.2158 1.66537C28.4047 1.09568 27.3915 0.878754 26.4133 1.06536C25.7358 4.15649 25.239 9.66984 28.6874 14.2365C33.7865 20.9832 37.5668 58.2634 30.3585 61.2034C26.5939 62.739 26.0904 65.0056 26.9575 66.8212C27.9049 66.8437 28.8466 66.6703 29.7216 66.3123C43.9351 60.4634 53.2076 46.6033 53.2076 31.221V20.2721C53.1983 19.2833 52.7057 18.3594 51.8842 17.7899Z" fill="#6D4559"/>
<path d="M25.4702 8.93903L7.91673 21.428C7.27834 21.8676 6.89485 22.5835 6.88696 23.3502V31.828C6.88696 43.7414 14.0728 54.4748 25.0795 59.0037C26.376 59.5348 27.8343 59.5348 29.1308 59.0037C40.1376 54.4792 47.3324 43.7414 47.3324 31.828V23.3502C47.3243 22.5841 46.9419 21.8686 46.3049 21.428L28.7514 8.93903C27.7693 8.25128 26.4523 8.25128 25.4702 8.93903Z" fill="#AB7F95"/>
<path d="M40.1489 26.534V18.0562C40.1471 17.5966 40.0064 17.1479 39.7447 16.7673L28.7402 8.93838C27.7605 8.25589 26.4499 8.25589 25.4702 8.93838L7.91676 21.4273C7.27837 21.867 6.89488 22.5828 6.887 23.3496V31.8274C6.87544 39.5708 9.94426 47.0112 15.4368 52.5563C16.2362 52.9756 17.059 53.3601 17.9051 53.7097C19.2061 54.2415 20.6689 54.2415 21.9699 53.7097C32.9631 49.1808 40.1489 38.4474 40.1489 26.534Z" fill="#F1D4DF"/>
<path fill-rule="evenodd" clip-rule="evenodd" d="M25.4702 8.93903L7.91673 21.428C7.27834 21.8676 6.89485 22.5835 6.88696 23.3502V31.828C6.88696 43.7414 14.0727 54.4748 25.0795 59.0037V59.0037C26.376 59.5348 27.8343 59.5348 29.1308 59.0037V59.0037C40.1376 54.4792 47.3324 43.7414 47.3324 31.828V23.3502C47.3243 22.5841 46.9419 21.8686 46.3049 21.428L28.7514 8.93903C27.7693 8.25128 26.4523 8.25128 25.4702 8.93903V8.93903Z" stroke="#472F40" stroke-width="0.75"/>
<path fill-rule="evenodd" clip-rule="evenodd" d="M24.994 1.666L2.3256 17.7905C1.50383 18.36 1.01056 19.2837 1 20.2727V31.2217C1 46.604 10.2769 60.464 24.4859 66.3129V66.3129C26.1607 66.9973 28.0435 66.9973 29.7183 66.3129V66.3129C43.9318 60.464 53.2042 46.604 53.2042 31.2217V20.2727C53.1939 19.2831 52.6996 18.3591 51.8764 17.7905L29.2079 1.666C27.9461 0.784674 26.2559 0.784674 24.994 1.666Z" stroke="#472F40" stroke-width="0.75" stroke-linecap="round"/>
<path d="M27.1774 12.7983V55.1785" stroke="#472F40" stroke-width="0.75"/>
<path d="M54.1222 27C61.3695 27 67.2445 21.1797 67.2445 14C67.2445 6.8203 61.3695 1 54.1222 1C46.875 1 41 6.8203 41 14C41 21.1797 46.875 27 54.1222 27Z" fill="#BAE9E0"/>
<path d="M54.1224 1C53.3623 0.999922 52.6036 1.06478 51.8548 1.19386C51.5923 2.93023 51.9181 5.61158 56.4276 5.63742C63.1008 5.67544 48.372 19.3977 50.2885 21.7924C51.699 23.5554 47.7899 23.2798 46.0557 24.254C48.3588 26.0375 51.1991 27.0043 54.1224 27C61.3696 27 67.2446 21.1796 67.2446 14C67.2446 6.82035 61.3696 1 54.1224 1Z" fill="#9DDFD3"/>
<path fill-rule="evenodd" clip-rule="evenodd" d="M54.1222 27C61.3695 27 67.2445 21.1797 67.2445 14C67.2445 6.8203 61.3695 1 54.1222 1C46.875 1 41 6.8203 41 14C41 21.1797 46.875 27 54.1222 27Z" stroke="#472F40" stroke-width="0.75"/>
<path d="M54.1224 23.8069C59.5896 23.8069 64.0216 19.4161 64.0216 13.9999C64.0216 8.58362 59.5896 4.19287 54.1224 4.19287C48.6552 4.19287 44.2231 8.58362 44.2231 13.9999C44.2231 19.4161 48.6552 23.8069 54.1224 23.8069Z" fill="#DBF6E9"/>
<path d="M54.1224 4.19287C53.5965 4.19292 53.0716 4.2341 52.5523 4.31603C52.5523 4.33313 53.025 6.04746 57.8442 7.08176C62.6725 8.11796 62.0648 19.4736 56.6547 20.918C51.8732 22.1944 50.1492 21.69 50.5018 23.1303C51.6551 23.5788 52.8834 23.8084 54.1224 23.8069C59.5896 23.8069 64.0216 19.4162 64.0216 13.9999C64.0216 8.5836 59.5896 4.19287 54.1224 4.19287Z" fill="#BAE9E0"/>
<path fill-rule="evenodd" clip-rule="evenodd" d="M54.1224 23.8069C59.5896 23.8069 64.0216 19.4161 64.0216 13.9999C64.0216 8.58362 59.5896 4.19287 54.1224 4.19287C48.6552 4.19287 44.2231 8.58362 44.2231 13.9999C44.2231 19.4161 48.6552 23.8069 54.1224 23.8069Z" stroke="#472F40" stroke-width="0.75"/>
<path d="M53.2012 21.3022L48.6736 16.569C48.2129 16.0862 48.2346 15.3248 48.722 14.8684C49.2094 14.412 49.9779 14.4334 50.4386 14.9163L53.1885 17.7934L59.6345 10.9463C60.094 10.4732 60.8517 10.4529 61.3363 10.9008C61.821 11.3486 61.8532 12.0988 61.4087 12.5858L53.2012 21.3022Z" fill="#BAE9E0"/>
<path d="M52.856 19.7436L48.3284 15.0104C47.8677 14.5276 47.8894 13.7662 48.3768 13.3098C48.8642 12.8534 49.6327 12.8748 50.0934 13.3577L52.8433 16.2348L59.2893 9.38774C59.7488 8.91464 60.5065 8.89435 60.9911 9.34216C61.4757 9.78997 61.508 10.5402 61.0635 11.0272L52.856 19.7436Z" fill="#9DDFD3"/>
</svg>
