<svg width="68" height="68" viewBox="0 0 68 68" fill="none" xmlns="http://www.w3.org/2000/svg">
<rect x="24.8726" y="10.2275" width="42.0863" height="52.0027" rx="13.1002" fill="#6D4559"/>
<rect x="24.8726" y="10.2275" width="42.0863" height="52.0027" rx="13.1002" stroke="#472F40" stroke-width="0.75"/>
<path d="M17 17.7062V65.1226C17 66.1592 17.8404 66.9995 18.877 66.9995H60.0866C61.1232 66.9995 61.9636 66.1592 61.9636 65.1226V32.3311L47.2791 15.9056L18.8724 15.8292C17.8376 15.8317 17 16.6714 17 17.7062Z" fill="#AB7F95"/>
<path fill-rule="evenodd" clip-rule="evenodd" d="M17 17.7062V65.1226C17 66.1592 17.8404 66.9996 18.877 66.9996H60.0866C61.1232 66.9996 61.9636 66.1592 61.9636 65.1226V32.3311L47.2791 15.9056L18.8724 15.8292C17.8376 15.8317 17 16.6714 17 17.7062Z" stroke="#472F40" stroke-width="0.75"/>
<path d="M47.2031 15.949V27.1574C47.2031 30.0592 49.4742 32.4066 52.2766 32.4066H61.8784C61.8944 32.4059 61.9085 32.3961 61.9147 32.3814C61.9209 32.3667 61.9181 32.3497 61.9075 32.3378L47.2887 15.9154C47.2751 15.8999 47.2533 15.8947 47.2341 15.9022C47.215 15.9097 47.2026 15.9284 47.2031 15.949Z" fill="#472F40" stroke="#472F40" stroke-width="0.75"/>
<rect opacity="0.63" x="23.6628" y="36.1924" width="27.1743" height="2.79638" rx="1.39819" fill="#F9F9F9"/>
<rect opacity="0.63" x="23.6628" y="41.9989" width="27.1743" height="2.79638" rx="1.39819" fill="#F9F9F9"/>
<rect opacity="0.63" x="23.6628" y="47.8066" width="27.1743" height="2.79638" rx="1.39819" fill="#F9F9F9"/>
<rect opacity="0.63" x="23.6628" y="53.6149" width="14.9853" height="2.79639" rx="1.39819" fill="#F9F9F9"/>
<path d="M35.3325 12.1246C36.4281 7.74212 34.0869 3.23008 29.8729 1.60259C25.659 -0.0248995 20.8927 1.74215 18.7581 5.72331C16.4691 4.43573 13.6937 4.35471 11.3335 5.50659C8.97331 6.65847 7.32955 8.89625 6.93627 11.4929C3.57311 11.7962 0.99761 14.6164 1 17.9932C1 21.5986 3.92272 24.5213 7.52809 24.5213H32.4713C36.0767 24.5213 38.9994 21.5986 38.9994 17.9932C39.0012 15.4964 37.5774 13.2176 35.3325 12.1246Z" fill="#F7C5A8"/>
<path d="M13.8642 6.48757C15.1444 6.48564 16.4032 6.81564 17.5178 7.44534C17.8531 6.8226 18.2662 6.24506 18.7473 5.72666C16.5313 4.48198 13.8553 4.36544 11.5394 5.41277C9.22354 6.46009 7.5438 8.54641 7.01489 11.0325C8.17607 8.27777 10.8748 6.48701 13.8642 6.48757Z" fill="#FFBF8A"/>
<path d="M35.3335 12.1242C36.4129 7.75629 34.0827 3.26588 29.8897 1.63401C25.6968 0.00214326 20.9441 1.73589 18.7869 5.68426C21.3802 2.92182 25.5116 2.25861 28.8393 4.07055C32.1669 5.88249 33.8517 9.71262 32.9385 13.3899C35.1129 14.4492 36.4516 16.6975 36.3467 19.1138C36.2418 21.5302 34.7133 23.6541 32.4554 24.5209H32.482C35.5211 24.5194 38.1573 22.4213 38.8408 19.46C39.5243 16.4987 38.0743 13.4575 35.3432 12.1242H35.3335Z" fill="#FFBF8A"/>
<path d="M18.7818 5.6844L18.7467 5.72184L18.7576 5.72788C18.7649 5.71339 18.7721 5.69889 18.7818 5.6844Z" fill="#FFBF8A"/>
<path fill-rule="evenodd" clip-rule="evenodd" d="M35.3325 12.1246C36.4281 7.74212 34.0869 3.23008 29.8729 1.60259C25.6589 -0.0248995 20.8927 1.74215 18.7581 5.72331C16.4691 4.43573 13.6937 4.35471 11.3335 5.50659C8.97331 6.65847 7.32955 8.89625 6.93627 11.4929C3.57311 11.7962 0.99761 14.6164 1 17.9932C1 21.5986 3.92272 24.5213 7.52809 24.5213H32.4713C36.0767 24.5213 38.9994 21.5986 38.9994 17.9932C39.0012 15.4964 37.5774 13.2176 35.3325 12.1246Z" stroke="#472F40" stroke-width="0.75"/>
<path d="M22.057 24.5213V17.1163C22.057 16.9209 22.2155 16.7625 22.4109 16.7625H25.8169C25.952 16.763 26.0755 16.6862 26.1349 16.5648C26.1943 16.4434 26.1792 16.2988 26.0958 16.1924L20.5026 9.00365C20.4358 8.91727 20.3328 8.8667 20.2236 8.8667C20.1144 8.8667 20.0114 8.91727 19.9446 9.00365L14.3501 16.1924C14.2668 16.2988 14.2516 16.4434 14.3111 16.5648C14.3705 16.6862 14.494 16.763 14.6291 16.7625H18.0351C18.2305 16.7625 18.389 16.9209 18.389 17.1163V24.5165L22.057 24.5213Z" fill="#FDF3E8" stroke="#472F40" stroke-width="0.75"/>
</svg>
