<svg width="68" height="68" viewBox="0 0 68 68" fill="none" xmlns="http://www.w3.org/2000/svg">
<rect x="3" y="33" width="10" height="28" rx="1.9724" fill="#6D4559" stroke="#472F40" stroke-width="0.378761"/>
<rect x="20" y="23" width="9" height="38" rx="1.9724" fill="#6D4559" stroke="#472F40" stroke-width="0.378761"/>
<rect x="37" y="38" width="9" height="23" rx="1.9724" fill="#6D4559" stroke="#472F40" stroke-width="0.378761"/>
<path d="M59.8445 13H54.9325C54.4197 13 53.9279 13.1887 53.5654 13.5245C53.203 13.8603 52.9996 14.3157 53 14.7904V59.2111C53 60.1991 53.8652 61 54.9325 61H61.0658C62.1334 61 62.9991 60.1993 63 59.2111V14.7904C63 13.8016 62.134 13 61.0658 13L59.8445 13Z" fill="#AB7F95"/>
<path d="M60.0455 13H54.9893C53.8906 13 53 13.7924 53 14.7699V57H59.0107C60.1096 56.9992 61 56.2063 61 55.2286V13H60.0455Z" fill="#F1D4DF"/>
<path fill-rule="evenodd" clip-rule="evenodd" d="M59.8445 13H54.9325C54.4197 13 53.9279 13.1887 53.5654 13.5245C53.203 13.8603 52.9996 14.3157 53 14.7904V59.2111C53 60.1991 53.8652 61 54.9325 61H61.0658C62.1334 61 62.9991 60.1993 63 59.2111V14.7904C63 13.8016 62.134 13 61.0658 13L59.8445 13Z" stroke="#472F40" stroke-width="0.378761" stroke-linecap="round"/>
<path d="M66 1V61.6544C65.9992 63.5024 64.5184 65 62.6921 65H2" stroke="#6D4559" stroke-width="0.75" stroke-linecap="round"/>
<path d="M2.5 67C3.32843 67 4 66.3284 4 65.5C4 64.6716 3.32843 64 2.5 64C1.67157 64 1 64.6716 1 65.5C1 66.3284 1.67157 67 2.5 67Z" fill="#472F40" stroke="#472F40" stroke-width="0.378761" stroke-linecap="round"/>
<path d="M65.5 4C66.3284 4 67 3.32843 67 2.5C67 1.67157 66.3284 1 65.5 1C64.6716 1 64 1.67157 64 2.5C64 3.32843 64.6716 4 65.5 4Z" fill="#472F40" stroke="#472F40" stroke-width="0.378761" stroke-linecap="round"/>
</svg>
