<svg width="68" height="70" viewBox="0 0 68 70" fill="none" xmlns="http://www.w3.org/2000/svg">
<path d="M43.3737 21.0756L29.3422 2.94259L8.13978 28.4781C4.76602 32.5489 4.66168 38.4644 7.89022 42.6264L11.2263 46.9449L14.5744 51.2713C17.7962 55.4368 23.4614 56.7024 28.1241 54.2983L57.406 39.2021L43.3737 21.0756Z" fill="#AB7F95" stroke="#472F40" stroke-width="0.378761"/>
<path d="M43.1005 21.0004L29.1809 2.9238L8.1189 28.402C6.88529 29.8918 6.05353 31.6848 5.70674 33.6017C5.88496 33.8815 6.07713 34.153 6.27965 34.4191L9.60113 38.7321L12.9237 43.0353C16.1218 47.1875 21.7463 48.4453 26.3768 46.0439L52.1227 32.7003L43.1005 21.0004Z" fill="#F1D4DF"/>
<path fill-rule="evenodd" clip-rule="evenodd" d="M43.3735 21.0772L28.5006 4.00017L8.13957 28.4798C4.76582 32.5505 4.66148 38.466 7.89001 42.6281L11.2261 46.9465L14.5742 51.273C17.796 55.4385 23.4612 56.704 28.1239 54.2999L57.4058 39.2037L43.3735 21.0772Z" stroke="#6D4559" stroke-width="0.75"/>
<path d="M56.9516 39.2984C59.4001 37.3663 55.0613 27.7859 47.2605 17.9C39.4597 8.01414 31.151 1.56629 28.7025 3.49837C26.254 5.43044 30.5928 15.0108 38.3936 24.8967C46.1944 34.7826 54.5031 41.2305 56.9516 39.2984Z" fill="#AB7F95"/>
<path d="M52.8443 38.6565C54.0679 37.691 49.5819 29.9663 42.8247 21.4029C36.0674 12.8394 29.5977 6.68004 28.3741 7.64552C27.1506 8.611 31.6365 16.3357 38.3938 24.8992C45.151 33.4626 51.6208 39.622 52.8443 38.6565Z" fill="#6D4559"/>
<path fill-rule="evenodd" clip-rule="evenodd" d="M56.9516 39.2984C59.4001 37.3663 55.0613 27.786 47.2605 17.9C39.4597 8.01414 31.151 1.56629 28.7025 3.49837C26.254 5.43044 30.5928 15.0108 38.3936 24.8967C46.1944 34.7826 54.5031 41.2305 56.9516 39.2984Z" stroke="#6D4559" stroke-width="0.75"/>
<path d="M29.0699 36.1343C30.9899 36.3579 32.7018 35.2051 32.8935 33.5594C33.0852 31.9136 31.6841 30.3982 29.7641 30.1746C27.8441 29.9509 26.1322 31.1038 25.9405 32.7495C25.7488 34.3952 27.1499 35.9107 29.0699 36.1343Z" fill="#AB7F95"/>
<path d="M28.8047 34.0896C30.4505 34.2813 31.94 33.1026 32.1317 31.4569C32.3234 29.8111 31.1446 28.3216 29.4989 28.1299C27.8532 27.9382 26.3636 29.117 26.172 30.7627C25.9803 32.4084 27.159 33.8979 28.8047 34.0896Z" fill="#F9F9F9" stroke="#6D4559" stroke-width="0.75"/>
<path d="M29.1539 31.0969L15.8709 32.2358C7.98994 32.7317 1.31229 28.9246 0.928848 23.7V23.7C0.569382 18.4907 6.6483 13.8613 14.5293 13.3654L20.741 13.0151" stroke="#6D4559" stroke-width="0.75" stroke-linecap="round"/>
<path d="M52.7598 58.0343L59.4906 44.0001L66.2412 58.0343C67.3747 60.397 67.2315 63.1875 65.8623 65.4172C64.493 67.647 62.091 69.0012 59.5071 69.0001C56.9209 69.0058 54.5147 67.6535 53.1422 65.4229C51.7698 63.1924 51.6252 60.3992 52.7598 58.0343Z" fill="#ED6663" stroke="#6D4559" stroke-width="0.75" stroke-linecap="round"/>
</svg>
