<svg width="148" height="47" viewBox="0 0 148 47" fill="none" 
  xmlns="http://www.w3.org/2000/svg">
  <g id="Group">
    <g id="Group 27">
      <g id="Group 3">
        <mask id="mask0" mask-type="alpha" maskUnits="userSpaceOnUse" x="0" y="0" width="30" height="39">
          <path id="Clip 2" fill-rule="evenodd" clip-rule="evenodd" d="M0 0H29.8384V38.09H0V0Z" fill="white"/>
        </mask>
        <g mask="url(#mask0)">
          <path id="Fill 1" fill-rule="evenodd" clip-rule="evenodd" d="M17.5573 17.6034L26.6437 20.0254C26.9799 20.1151 27.2446 20.3745 27.3421 20.7096L29.8385 29.2881V34.7651C29.8385 36.6011 28.3535 38.09 26.5223 38.09H6.6324C2.96932 38.09 0 35.1129 0 31.4401V6.64956C0 2.97744 2.96932 -0.000427246 6.6324 -0.000427246H23.2061C26.8685 -0.000427246 29.8385 2.97744 29.8385 6.64956V8.80216H12.0948C10.2636 8.80216 8.77864 10.2904 8.77864 12.1272V28.3837C8.77864 28.935 9.22434 29.3812 9.7735 29.3812H16.5624C17.1116 29.3812 17.5573 28.935 17.5573 28.3837V17.6034Z" fill="#384A51"/>
        </g>
      </g>
      <path id="Fill 4" fill-rule="evenodd" clip-rule="evenodd" d="M32.6475 8.80148H12.095C10.2638 8.80148 8.77881 10.2898 8.77881 12.1265V28.383C8.77881 28.9343 9.22451 29.3805 9.77367 29.3805H16.5626C17.1118 29.3805 17.5574 28.9343 17.5574 28.383V17.6027H28.8438C29.393 17.6027 29.8387 18.0496 29.8387 18.6002V34.7644C29.8387 36.6011 28.3537 38.0894 26.5225 38.0894L8.77881 38.09V40.2413C8.77881 43.9148 11.7481 46.892 15.4119 46.892H32.6481C36.3106 46.892 39.2799 43.9148 39.2799 40.242V15.4515C39.2799 11.7787 36.3106 8.80148 32.6475 8.80148Z" fill="#7F9DA5"/>
      <path id="Fill 6" fill-rule="evenodd" clip-rule="evenodd" d="M15.4112 46.2273H32.6475C35.9385 46.2273 38.616 43.542 38.616 40.2423V15.4518C38.616 12.1514 35.9385 9.4668 32.6468 9.4668H12.0944C10.6319 9.4668 9.44141 10.6598 9.44141 12.1268V28.3834C9.44141 28.5669 9.59064 28.7159 9.77303 28.7159H16.5619C16.745 28.7159 16.8936 28.5669 16.8936 28.3834V17.6031V16.9381H17.5568H28.8432C29.7571 16.9381 30.5013 17.6835 30.5013 18.6006V34.7647C30.5013 36.9645 28.7165 38.7547 26.5218 38.7547L9.44141 38.7553V40.2416C9.44141 43.542 12.1196 46.2273 15.4112 46.2273Z" fill="#8CA6AD"/>
      <path id="Fill 8" fill-rule="evenodd" clip-rule="evenodd" d="M57.2612 8.96863C54.7587 8.96863 52.7166 9.68018 51.1932 11.0833C49.6737 12.4825 48.9023 14.5766 48.9023 17.307V30.6117C48.9023 33.3162 49.6319 35.3964 51.0685 36.7955C52.5071 38.196 54.4895 38.9069 56.9627 38.9069C59.4087 38.9069 61.429 38.1874 62.967 36.7709C64.5004 35.3584 65.2784 33.2856 65.2784 30.6117V23.1717H57.2658V26.9708H60.3804V30.2692C60.3804 31.6125 60.1111 32.6625 59.5785 33.3894C59.034 34.1322 58.2116 34.5086 57.1338 34.5086C54.9226 34.5086 53.801 32.9964 53.801 30.0125V18.1622C53.801 16.5948 54.0617 15.3965 54.5757 14.6018C55.1056 13.7819 55.9658 13.3669 57.1338 13.3669C58.0902 13.3669 58.8795 13.6948 59.4804 14.3425C60.0779 14.9869 60.3804 15.9119 60.3804 17.0929V17.8164H65.2784V17.0929C65.2784 14.4183 64.5362 12.3754 63.0731 11.0188C61.606 9.65823 59.6508 8.96863 57.2612 8.96863Z" fill="#384A51"/>
      <path id="Fill 10" fill-rule="evenodd" clip-rule="evenodd" d="M76.2494 34.509C74.0381 34.509 72.9172 32.9968 72.9172 30.0123V18.1626C72.9172 16.5952 73.1772 15.3969 73.6919 14.6016C74.2212 13.7823 75.0814 13.3673 76.2494 13.3673C77.3311 13.3673 78.1555 13.7896 78.6994 14.6228C79.2286 15.4328 79.4966 16.6238 79.4966 18.1626V30.0123C79.4966 31.4114 79.22 32.5173 78.6755 33.3007C78.117 34.1027 77.3013 34.509 76.2494 34.509ZM76.3767 8.96912C73.8743 8.96912 71.8328 9.68067 70.3087 11.0831C68.7892 12.483 68.0186 14.5764 68.0186 17.3075V30.6122C68.0186 33.3167 68.7475 35.3968 70.184 36.7953C71.6226 38.1965 73.6057 38.9067 76.0782 38.9067C78.5249 38.9067 80.5452 38.1878 82.0826 36.7707C83.616 35.3583 84.3939 33.2861 84.3939 30.6122V17.3075C84.3939 14.5751 83.6584 12.4803 82.2072 11.0812C80.7547 9.67934 78.7935 8.96912 76.3767 8.96912Z" fill="#384A51"/>
      <path id="Fill 12" fill-rule="evenodd" clip-rule="evenodd" d="M97.0339 32.3404V28.5173C97.0339 26.0289 96.1664 24.7847 94.4307 24.7847C93.664 24.7847 93.0638 25.0673 92.63 25.6339C92.1963 26.2005 91.9801 27.1507 91.9801 28.4867V32.3404C91.9801 33.6757 92.1857 34.6267 92.5995 35.1932C93.0134 35.7598 93.6236 36.0424 94.4307 36.0424C95.279 36.0424 95.9237 35.7292 96.368 35.1015C96.8124 34.475 97.0339 33.554 97.0339 32.3404ZM90.1033 39.8056H92.0705C92.1109 40.4726 92.343 41.0039 92.7662 41.3989C93.1907 41.7926 93.7657 41.9901 94.4913 41.9901C95.3794 41.9901 96.0254 41.7068 96.4286 41.1402C96.8325 40.5743 97.0341 39.7145 97.0341 38.5614V36.2552C96.3683 37.3477 95.3687 37.8944 94.0376 37.8944C92.8073 37.8944 91.8138 37.4535 91.0564 36.5737C90.3003 35.6932 89.9209 34.3632 89.9209 32.583V28.2432C89.9209 26.463 90.3003 25.133 91.0564 24.2533C91.8138 23.3735 92.8073 22.9332 94.0376 22.9332C95.3687 22.9332 96.3683 23.5198 97.0341 24.6928V23.176H99.0922V38.3792C99.0922 40.0383 98.7135 41.353 97.9574 42.3239C97.2006 43.2955 96.0453 43.7803 94.4913 43.7803C93.1204 43.7803 92.0552 43.4272 91.2991 42.7183C90.5424 42.0107 90.1437 41.0392 90.1033 39.8056Z" fill="#384A51"/>
      <path id="Fill 14" fill-rule="evenodd" clip-rule="evenodd" d="M109.079 33.5235V28.5174C109.079 27.1814 108.858 26.2258 108.413 25.6493C107.97 25.0721 107.324 24.7841 106.477 24.7841C105.629 24.7841 104.978 25.0674 104.525 25.634C104.07 26.1999 103.843 27.1615 103.843 28.5174V33.5235C103.843 34.8795 104.07 35.8397 104.525 36.407C104.978 36.9729 105.629 37.2562 106.477 37.2562C107.324 37.2562 107.97 36.9682 108.413 36.391C108.858 35.8145 109.079 34.8595 109.079 33.5235ZM101.785 33.7663V28.2734C101.785 26.4327 102.199 25.0827 103.026 24.2229C103.853 23.363 105.013 22.9328 106.507 22.9328C107.959 22.9328 109.094 23.3677 109.911 24.2382C110.728 25.108 111.137 26.4526 111.137 28.2734V33.7663C111.137 35.5877 110.728 36.933 109.911 37.8028C109.094 38.672 107.959 39.1075 106.507 39.1075C105.013 39.1075 103.853 38.678 103.026 37.8174C102.199 36.9576 101.785 35.6077 101.785 33.7663Z" fill="#384A51"/>
      <path id="Fill 16" fill-rule="evenodd" clip-rule="evenodd" d="M115.163 23.1761L118.098 35.5876L121.005 23.1761H123.244L119.097 38.8654H117.039L112.922 23.1761H115.163Z" fill="#384A51"/>
      <path id="Fill 18" fill-rule="evenodd" clip-rule="evenodd" d="M126.966 34.6465V34.465H128.873V34.6465C128.873 35.4964 129.115 36.1488 129.599 36.6036C130.083 37.0591 130.75 37.2872 131.597 37.2872C132.383 37.2872 133.014 37.0791 133.488 36.6641C133.962 36.2498 134.199 35.6174 134.199 34.7682C134.199 34.1006 134.038 33.5745 133.716 33.1902C133.392 32.8051 132.847 32.452 132.081 32.1282L130.114 31.3082C128.116 30.479 127.118 29.1144 127.118 27.2118C127.118 25.9171 127.526 24.8803 128.343 24.1023C129.16 23.3229 130.255 22.9332 131.627 22.9332C132.999 22.9332 134.083 23.3276 134.88 24.1169C135.677 24.9056 136.075 25.9676 136.075 27.3029V27.6973H134.169V27.5151C134.169 26.6253 133.947 25.937 133.503 25.4522C133.06 24.9661 132.424 24.7234 131.597 24.7234C130.85 24.7234 130.26 24.9315 129.826 25.3465C129.393 25.7608 129.176 26.332 129.176 27.0602C129.176 27.6068 129.316 28.0817 129.599 28.4866C129.881 28.891 130.376 29.2447 131.082 29.5486L133.05 30.3673C134.118 30.8128 134.921 31.3488 135.456 31.9759C135.99 32.6036 136.257 33.4834 136.257 34.6159C136.257 36.0324 135.839 37.1349 135.001 37.9243C134.165 38.713 133.009 39.108 131.536 39.108C130.124 39.108 129.009 38.7083 128.191 37.9083C127.374 37.1097 126.966 36.0224 126.966 34.6465Z" fill="#384A51"/>
      <g id="Group 22">
        <mask id="mask1" mask-type="alpha" maskUnits="userSpaceOnUse" x="138" y="22" width="11" height="22">
          <path id="Clip 21" fill-rule="evenodd" clip-rule="evenodd" d="M138.83 22.9332H148V43.7803H138.83V22.9332Z" fill="white"/>
        </mask>
        <g mask="url(#mask1)">
          <path id="Fill 20" fill-rule="evenodd" clip-rule="evenodd" d="M145.942 32.3404V28.5173C145.942 26.0289 145.075 24.7847 143.34 24.7847C142.573 24.7847 141.973 25.0673 141.538 25.6339C141.105 26.2005 140.888 27.1507 140.888 28.4867V32.3404C140.888 33.6757 141.095 34.6267 141.508 35.1932C141.922 35.7598 142.533 36.0424 143.34 36.0424C144.187 36.0424 144.833 35.7292 145.277 35.1015C145.721 34.475 145.942 33.554 145.942 32.3404ZM139.011 39.8056H140.979C141.02 40.4726 141.252 41.0039 141.674 41.3989C142.099 41.7926 142.674 41.9901 143.4 41.9901C144.288 41.9901 144.933 41.7068 145.337 41.1402C145.741 40.5743 145.942 39.7145 145.942 38.5614V36.2552C145.277 37.3477 144.277 37.8944 142.946 37.8944C141.715 37.8944 140.722 37.4535 139.965 36.5737C139.208 35.6932 138.83 34.3632 138.83 32.583V28.2432C138.83 26.463 139.208 25.133 139.965 24.2533C140.722 23.3735 141.715 22.9332 142.946 22.9332C144.277 22.9332 145.277 23.5198 145.942 24.6928V23.176H148.001V38.3792C148.001 40.0383 147.621 41.353 146.866 42.3239C146.109 43.2955 144.954 43.7803 143.4 43.7803C142.028 43.7803 140.963 43.4272 140.208 42.7183C139.45 42.0107 139.052 41.0392 139.011 39.8056Z" fill="#384A51"/>
        </g>
      </g>
      <path id="Fill 23" fill-rule="evenodd" clip-rule="evenodd" d="M87.4295 38.9237H86.1693C85.8954 38.9237 85.6719 38.699 85.6719 38.425V37.1615C85.6719 36.8869 85.8954 36.6628 86.1693 36.6628H87.4295C87.7027 36.6628 87.9269 36.8869 87.9269 37.1615V38.425C87.9269 38.699 87.7027 38.9237 87.4295 38.9237Z" fill="#384A51"/>
      <path id="Fill 25" fill-rule="evenodd" clip-rule="evenodd" d="M124.448 38.9237H123.188C122.914 38.9237 122.69 38.699 122.69 38.425V37.1615C122.69 36.8869 122.914 36.6628 123.188 36.6628H124.448C124.721 36.6628 124.945 36.8869 124.945 37.1615V38.425C124.945 38.699 124.721 38.9237 124.448 38.9237Z" fill="#384A51"/>
    </g>
  </g>
</svg>