<svg width="226" height="150" viewBox="0 0 226 150" fill="none" xmlns="http://www.w3.org/2000/svg">
<path d="M29.1499 118.459C29.1492 121.522 30.3623 124.459 32.5222 126.624C34.6821 128.789 37.6117 130.006 40.6663 130.005H183.15C189.51 130.005 194.666 124.836 194.666 118.459V21.6584H29.1499V118.459Z" fill="#F1D4DF" stroke="#472F40" stroke-width="1.25"/>
<path d="M183.153 1H40.6697C34.3094 1 29.1533 6.16923 29.1533 12.5458V21.6557H194.672V12.5508C194.673 9.48734 193.46 6.54897 191.3 4.38256C189.139 2.21616 186.209 0.99934 183.153 1Z" fill="#6D4559" stroke="#472F40" stroke-width="1.25"/>
<path d="M49.6658 13.821C50.9899 13.821 52.0633 12.7449 52.0633 11.4174C52.0633 10.0899 50.9899 9.01379 49.6658 9.01379C48.3417 9.01379 47.2683 10.0899 47.2683 11.4174C47.2683 12.7449 48.3417 13.821 49.6658 13.821Z" fill="#F1D4DF"/>
<path d="M57.6568 13.821C58.9809 13.821 60.0543 12.7449 60.0543 11.4174C60.0543 10.0899 58.9809 9.01379 57.6568 9.01379C56.3327 9.01379 55.2593 10.0899 55.2593 11.4174C55.2593 12.7449 56.3327 13.821 57.6568 13.821Z" fill="#F1D4DF"/>
<path d="M41.6754 13.821C42.9995 13.821 44.0729 12.7449 44.0729 11.4174C44.0729 10.0899 42.9995 9.01379 41.6754 9.01379C40.3513 9.01379 39.2779 10.0899 39.2779 11.4174C39.2779 12.7449 40.3513 13.821 41.6754 13.821Z" fill="#F1D4DF"/>
<path d="M145.857 100.254C144.291 98.6838 144.291 96.138 145.857 94.5678C147.424 92.9976 149.963 92.9976 151.529 94.5678L178.442 121.55C180.008 123.12 180.008 125.666 178.442 127.236C176.876 128.806 174.337 128.806 172.77 127.236L145.857 100.254Z" fill="#FF847C"/>
<path d="M158.202 112.631C160.604 111.143 163.129 109.867 165.752 108.818L156.889 99.9427C155.078 100.332 153.329 100.969 151.691 101.835C150.776 102.314 149.894 102.856 149.052 103.456L158.202 112.631Z" fill="#ED6663"/>
<path fill-rule="evenodd" clip-rule="evenodd" d="M145.857 100.254C144.291 98.6838 144.291 96.138 145.857 94.5678V94.5678C147.424 92.9976 149.963 92.9976 151.529 94.5678L178.442 121.55C180.008 123.12 180.008 125.666 178.442 127.236V127.236C176.876 128.806 174.337 128.806 172.77 127.236L145.857 100.254Z" stroke="#472F40" stroke-width="1.25"/>
<path d="M165.633 123.39C163.135 120.885 163.135 116.824 165.633 114.319C168.132 111.814 172.183 111.814 174.681 114.319L190.969 130.649C193.468 133.153 193.468 137.215 190.969 139.72C188.471 142.225 184.42 142.225 181.921 139.72L165.633 123.39Z" fill="#ED6663" stroke="#472F40" stroke-width="1.25"/>
<path d="M136.121 116.341C154.362 116.341 169.149 101.516 169.149 83.2291C169.149 64.9417 154.362 50.1168 136.121 50.1168C117.88 50.1168 103.093 64.9417 103.093 83.2291C103.093 101.516 117.88 116.341 136.121 116.341Z" fill="#FF847C"/>
<path d="M103.093 83.2291C103.091 95.6477 110.02 107.024 121.04 112.694C122.597 112.917 124.168 113.03 125.741 113.03C143.985 113.03 158.769 98.2084 158.769 79.9179C158.771 67.4992 151.843 56.1233 140.822 50.4527C139.265 50.2296 137.694 50.1174 136.121 50.1168C117.877 50.1168 103.093 64.9385 103.093 83.2291Z" fill="#ED6663"/>
<path fill-rule="evenodd" clip-rule="evenodd" d="M136.121 116.341C154.362 116.341 169.149 101.516 169.149 83.2291C169.149 64.9417 154.362 50.1168 136.121 50.1168C117.88 50.1168 103.093 64.9417 103.093 83.2291C103.093 101.516 117.88 116.341 136.121 116.341Z" stroke="#472F40" stroke-width="1.25"/>
<path d="M136.121 109.246C150.453 109.246 162.072 97.5977 162.072 83.2291C162.072 68.8604 150.453 57.2123 136.121 57.2123C121.789 57.2123 110.171 68.8604 110.171 83.2291C110.171 97.5977 121.789 109.246 136.121 109.246Z" fill="#FFE8E8"/>
<path d="M134.806 57.2451C124.686 57.76 115.79 64.1335 112.027 73.5661C108.264 82.9986 110.321 93.7645 117.295 101.135C129.242 105.416 142.427 99.457 147.139 87.6469C151.851 75.8368 146.403 62.4055 134.806 57.2451Z" fill="#FDF3E8"/>
<path fill-rule="evenodd" clip-rule="evenodd" d="M136.121 109.246C150.453 109.246 162.072 97.5977 162.072 83.2291C162.072 68.8604 150.453 57.2123 136.121 57.2123C121.789 57.2123 110.171 68.8604 110.171 83.2291C110.171 97.5977 121.789 109.246 136.121 109.246Z" stroke="#472F40" stroke-width="1.25"/>
<path d="M168.538 148.853H44.7181" stroke="#472F40" stroke-width="1.25" stroke-linecap="round"/>
<path d="M198.525 148.853H176.742" stroke="#472F40" stroke-width="1.25" stroke-linecap="round"/>
<path d="M225 148.855H210.011" stroke="#472F40" stroke-width="1.25" stroke-linecap="round"/>
<path d="M106.334 148.853H0.999856" stroke="#472F40" stroke-width="1.25" stroke-linecap="round"/>
<path d="M23.8305 120.098C32.3118 118.818 40.4937 126.502 42.1072 137.257C42.731 141.426 42.2819 145.426 41.0052 148.853H13.5277C12.4711 146.652 11.7525 144.304 11.3965 141.888C9.78505 131.134 15.3471 121.376 23.8305 120.098Z" fill="#ED6663"/>
<path d="M28.5005 120.279C35.1334 121.789 40.7952 128.505 42.1072 137.256C42.731 141.425 42.2819 145.426 41.0052 148.853H19.1397C18.0847 146.652 17.3669 144.304 17.0105 141.888C15.4573 131.536 20.5452 122.112 28.5005 120.279Z" fill="#FF847C"/>
<path fill-rule="evenodd" clip-rule="evenodd" d="M23.8305 120.098C32.3118 118.818 40.4937 126.502 42.1072 137.257C42.731 141.426 42.2819 145.426 41.0052 148.853H13.5277C12.4711 146.652 11.7525 144.304 11.3965 141.888C9.78505 131.134 15.3471 121.376 23.8305 120.098Z" stroke="#472F40" stroke-width="1.25" stroke-linecap="round"/>
<path d="M11.4214 134.407L29.9622 148.482C30.0155 148.516 30.0845 148.511 30.1322 148.469C30.1799 148.428 30.1953 148.361 30.1701 148.303L17.6259 122.871" stroke="#472F40" stroke-width="1.25" stroke-linecap="round"/>
<path d="M48.7586 103.072C61.5689 101.794 73.639 117.741 75.7183 138.691C76.058 142.068 76.115 145.467 75.8888 148.853H30.1263C29.7825 147.055 29.5157 145.209 29.3258 143.316C27.2465 122.379 35.9482 104.35 48.7586 103.072Z" fill="#ED6663"/>
<path d="M55.0047 103.797C65.2845 107.201 73.9842 121.201 75.7183 138.691C76.058 142.067 76.115 145.467 75.8888 148.853H39.6743C39.3319 147.055 39.065 145.209 38.8737 143.316C36.9712 124.22 44.0407 107.562 55.0047 103.797Z" fill="#FF847C"/>
<path fill-rule="evenodd" clip-rule="evenodd" d="M48.7586 103.072C61.5689 101.794 73.639 117.741 75.7183 138.691C76.058 142.068 76.115 145.467 75.8888 148.853H30.1263C29.7825 147.055 29.5157 145.209 29.3258 143.316C27.2465 122.379 35.9482 104.35 48.7586 103.072Z" stroke="#472F40" stroke-width="1.25" stroke-linecap="round"/>
<path d="M40.1734 106.832L52.8299 148.436C52.8361 148.46 52.8254 148.486 52.8036 148.499C52.7818 148.511 52.7544 148.508 52.7364 148.49L30.4778 124.334" stroke="#472F40" stroke-width="1.25" stroke-linecap="round"/>
<path d="M57.7636 104.965L52.9085 148.399C52.9051 148.409 52.9102 148.419 52.9199 148.423C52.9297 148.426 52.9404 148.421 52.9439 148.411L71.0459 120.907" stroke="#472F40" stroke-width="1.25" stroke-linecap="round"/>
<path d="M29.7024 141.35L52.9007 148.477L75.9536 141.859" stroke="#472F40" stroke-width="1.25" stroke-linecap="round"/>
<path d="M26.1759 119.969L29.1014 140.352" stroke="#472F40" stroke-width="1.25" stroke-linecap="round"/>
<path d="M29.9623 148.482L11.9081 144.409" stroke="#472F40" stroke-width="1.25" stroke-linecap="round"/>
</svg>
