<svg width="548" height="206" viewBox="0 0 548 206" fill="none" xmlns="http://www.w3.org/2000/svg">
<path d="M24.7 121C24.3 121 23.8 120.9 23.4 120.8C23.1 120.7 22.9 120.6 22.7 120.5C22.6 120.4 22.5 120.4 22.3 120.3C21.9 120 21.5 119.6 21.2 119.2C21 118.9 20.8 118.5 20.6 118.1C20.5 117.7 20.4 117.3 20.4 116.8V89.2C20.4 86.9 22.3 85 24.6 85H52.7V64.7H24.6C11.1 64.7 0.0999756 75.7 0.0999756 89.2V116.8C0.0999756 117.2 0.0999756 117.6 0.0999756 118C0.0999756 118.1 0.0999756 118.1 0.0999756 118.2C0.0999756 118.6 0.0999664 118.9 0.199966 119.3C0.199966 119.6 0.299973 119.9 0.299973 120.2C0.299973 120.5 0.399963 120.8 0.399963 121V121.1C0.499963 121.4 0.499976 121.7 0.599976 122C0.599976 122.1 0.599976 122.1 0.599976 122.2C0.699976 122.5 0.799973 122.8 0.799973 123.1C0.899973 123.4 0.999976 123.8 1.09998 124.1C1.29998 124.7 1.49997 125.2 1.69997 125.7C2.19997 126.9 2.69996 128 3.39996 129.1C3.49996 129.3 3.59997 129.5 3.79997 129.7C3.89997 129.8 3.89997 129.9 3.99997 130C4.09997 130.2 4.29996 130.4 4.39996 130.6C4.49996 130.7 4.49998 130.8 4.59998 130.9C4.79998 131.1 4.89997 131.3 4.99997 131.5C5.09997 131.6 5.09997 131.6 5.19997 131.7C5.39997 131.9 5.59997 132.2 5.79997 132.4C6.49997 133.2 7.19997 134 7.99997 134.7C8.29997 134.9 8.49997 135.2 8.79997 135.4C9.09997 135.6 9.29998 135.8 9.59998 136.1C9.79998 136.3 9.99997 136.4 10.3 136.6C10.7 136.9 11.1 137.2 11.5 137.4C11.7 137.5 11.9 137.7 12.1 137.8C12.6 138.1 13 138.3 13.5 138.6C13.7 138.7 13.9 138.8 14.1 138.9C15.1 139.4 16 139.8 17.1 140.1C17.3 140.2 17.5 140.3 17.8 140.3C18 140.4 18.2 140.4 18.4 140.5C18.7 140.6 19.1 140.7 19.4 140.7C19.6 140.8 19.8 140.8 20 140.8C20.2 140.8 20.3 140.9 20.5 140.9C20.8 141 21 141 21.3 141C21.6 141 21.9 141.1 22.2 141.1C22.4 141.1 22.7 141.2 22.9 141.2C23.1 141.2 23.3 141.2 23.5 141.2C23.9 141.2 24.3 141.2 24.6 141.2H64V121H24.7Z" fill="#AB7F95"/>
<path d="M204.5 87.8C204.5 87.4 204.5 87.1 204.4 86.7C204.4 86.4 204.3 86.1 204.3 85.8C204.3 85.5 204.2 85.2 204.2 85V84.9C204.1 84.6 204.1 84.3 204 84C204 83.9 204 83.9 204 83.8C203.9 83.5 203.8 83.2 203.8 82.9C203.7 82.6 203.6 82.2 203.5 81.9C203.3 81.3 203.1 80.8 202.9 80.3C202.4 79.1 201.9 78 201.2 76.9C201.1 76.7 201 76.5 200.8 76.3C200.7 76.2 200.7 76.1 200.6 76C200.5 75.8 200.3 75.6 200.2 75.4C200.1 75.3 200.1 75.2 200 75.1C199.8 74.9 199.7 74.7 199.6 74.5C199.5 74.4 199.5 74.4 199.4 74.3C199.2 74.1 199 73.8 198.8 73.6C198.1 72.8 197.4 72 196.6 71.3C196.3 71.1 196.1 70.8 195.8 70.6C195.5 70.4 195.3 70.2 195 69.9C194.8 69.7 194.6 69.6 194.3 69.4C193.9 69.1 193.5 68.8 193.1 68.6C192.9 68.5 192.7 68.3 192.5 68.2C192 67.9 191.6 67.7 191.1 67.4C190.9 67.3 190.7 67.2 190.5 67.1C189.5 66.6 188.6 66.2 187.5 65.9C187.3 65.8 187.1 65.7 186.8 65.7C186.6 65.6 186.4 65.6 186.2 65.5C185.9 65.4 185.5 65.3 185.2 65.3C185 65.2 184.8 65.2 184.6 65.2C184.4 65.2 184.3 65.1 184.1 65.1C183.8 65 183.6 65 183.3 65C183 65 182.7 64.9 182.4 64.9C182.2 64.9 181.9 64.8 181.7 64.8C181.5 64.8 181.3 64.8 181.1 64.8C180.7 64.8 180.3 64.8 180 64.8H140.6V85H180C180.4 85 180.9 85.1 181.3 85.2C181.6 85.3 181.8 85.4 182 85.5C182.1 85.6 182.2 85.6 182.4 85.7C182.8 86 183.2 86.4 183.5 86.8C183.7 87.1 183.9 87.5 184.1 87.9C184.2 88.3 184.3 88.7 184.3 89.2V116.8C184.3 119.1 182.4 121 180.1 121H152V141.3H180.1C193.6 141.3 204.6 130.3 204.6 116.8V89.2C204.6 88.8 204.6 88.4 204.6 88C204.5 87.9 204.5 87.9 204.5 87.8Z" fill="#AB7F95"/>
<path d="M120.4 180.6C120.4 182.9 118.5 184.8 116.2 184.8H88.6C86.3 184.8 84.4 182.9 84.4 180.6V129.3V100.7C84.4 98.4 86.3 96.5 88.6 96.5H109.1V76.2H88.6C87.2 76.2 85.8 76.3 84.4 76.6C72.9 78.6 64.1 88.6 64.1 100.7V105.2V121V141.3V180.6C64.1 194.1 75.1 205.1 88.6 205.1H116.2C129.7 205.1 140.7 194.1 140.7 180.6V131.3C135.3 136.4 128.2 139.9 120.4 140.8V180.6Z" fill="#472F40" stroke="#472F40" stroke-width="0.3189" stroke-miterlimit="10"/>
<path d="M116.1 0.899994H88.5C75 0.899994 64 11.9 64 25.4V74.7C69.4 69.6 76.5 66.1 84.3 65.2V25.3C84.3 23 86.2 21.1 88.5 21.1H116.1C118.4 21.1 120.3 23 120.3 25.3V105.2C120.3 107.5 118.4 109.4 116.1 109.4H95.6V129.7H116.1C117.5 129.7 118.9 129.6 120.3 129.3C131.8 127.3 140.6 117.2 140.6 105.2V85V64.7V25.4C140.6 11.9 129.6 0.899994 116.1 0.899994Z" fill="#472F40" stroke="#472F40" stroke-width="0.3189" stroke-miterlimit="10"/>
<path d="M251.5 55.4C246.3 60.1 243.7 66.9 243.7 75.8H235.9V95.4H243.7V137.5H264.2V95.4H274.8V75.8H264.2C264.2 70.3 267.7 67.8 274.8 68.3V49.3C264.4 48.6 256.7 50.7 251.5 55.4Z" fill="#472F40" stroke="#472F40" stroke-width="0.3189" stroke-miterlimit="10"/>
<path d="M309.4 74C300.3 74 292.5 77.1 286.1 83.4C279.7 89.7 276.5 97.4 276.5 106.6C276.5 115.8 279.7 123.5 286.1 129.8C292.5 136.1 300.3 139.2 309.4 139.2C318.6 139.2 326.4 136.1 332.8 129.8C339.2 123.5 342.4 115.8 342.4 106.6C342.4 97.4 339.2 89.7 332.8 83.4C326.5 77.2 318.7 74 309.4 74ZM318.4 115.9C316.1 118.3 313.1 119.5 309.4 119.5C305.9 119.5 302.9 118.3 300.6 115.9C298.3 113.5 297.1 110.4 297.1 106.6C297.1 102.8 298.3 99.7 300.6 97.3C302.9 94.9 305.9 93.7 309.4 93.7C313 93.7 316 94.9 318.4 97.3C320.7 99.7 321.9 102.8 321.9 106.6C321.9 110.4 320.7 113.5 318.4 115.9Z" fill="#472F40" stroke="#472F40" stroke-width="0.3189" stroke-miterlimit="10"/>
<path d="M390.5 74.5C386.2 74.5 382.3 75.6 378.9 77.8C375.5 80 373.1 83.2 372 87.2V75.7H351.5V137.4H372V111.8C372 106.2 373.9 102.2 377.7 99.7C381.5 97.2 385.8 96.4 390.5 97.1V74.5Z" fill="#472F40" stroke="#472F40" stroke-width="0.3189" stroke-miterlimit="10"/>
<path d="M401.6 113.6C398.1 113.6 395 114.9 392.5 117.4C389.9 119.9 388.7 122.9 388.7 126.5C388.7 130 390 133.1 392.5 135.6C395 138.1 398.1 139.4 401.7 139.4C405.2 139.4 408.3 138.1 410.8 135.6C413.3 133.1 414.6 130.1 414.6 126.5C414.6 123 413.3 119.9 410.8 117.4C408.1 114.8 405.1 113.6 401.6 113.6Z" fill="#472F40" stroke="#472F40" stroke-width="0.3189" stroke-miterlimit="10"/>
<path d="M464.7 101.5C461.7 100.3 458.7 99.4 455.7 98.7C452.7 98 450.1 97.3 448 96.6C445.9 95.9 444.9 94.9 444.9 93.8C444.9 91.8 446.4 90.8 449.5 90.8C452.8 90.8 455.3 92.6 457.2 96.1L474.5 88.3C469.7 78.8 461.2 74 449.1 74C442.3 74 436.4 75.8 431.6 79.4C426.7 83 424.3 88.1 424.3 94.7C424.3 98.7 425.3 102.1 427.4 104.9C429.5 107.7 432 109.7 434.9 110.9C437.9 112.1 440.8 113.1 443.8 113.9C446.8 114.6 449.3 115.4 451.3 116.1C453.4 116.8 454.4 117.8 454.4 118.9C454.4 121.1 452.5 122.2 448.8 122.2C443.9 122.2 440.7 119.9 439.2 115.4L421.3 124.4C425.9 134.2 435.1 139.1 449 139.1C456.2 139.1 462.5 137.4 467.8 134C473.1 130.6 475.7 125.4 475.7 118.3C475.7 113.9 474.7 110.3 472.6 107.4C470.3 104.7 467.7 102.7 464.7 101.5Z" fill="#472F40" stroke="#472F40" stroke-width="0.3189" stroke-miterlimit="10"/>
<path d="M527.5 75.8V81.7C523.3 76.6 517.5 74 510.2 74C501.7 74 494.7 77 489.1 83.1C483.5 89.2 480.8 96.6 480.8 105.3C480.8 114 483.6 121.4 489.1 127.5C494.7 133.6 501.7 136.6 510.2 136.6C517.5 136.6 523.3 134 527.5 128.9V134.8C527.5 138.4 526.3 141.2 524 143.1C521.7 145 518.7 145.9 515 145.9C509.2 145.9 504.9 143.6 501.9 138.9L484.9 148.8C487.6 153.7 491.7 157.5 497 160C502.4 162.6 508.4 163.8 515.3 163.8C519.5 163.8 523.5 163.2 527.2 162.1C530.9 161 534.4 159.3 537.5 157C540.6 154.7 543.1 151.7 545 147.9C546.9 144.1 547.8 139.7 547.8 134.7V75.4H527.5V75.8ZM523.9 114.6C521.5 117 518.3 118.2 514.5 118.2C510.6 118.2 507.5 117 505.1 114.6C502.7 112.2 501.5 109.1 501.5 105.4C501.5 101.7 502.7 98.6 505.1 96.2C507.5 93.8 510.7 92.6 514.5 92.6C518.4 92.6 521.5 93.8 523.9 96.2C526.3 98.6 527.5 101.7 527.5 105.4C527.5 109.1 526.3 112.2 523.9 114.6Z" fill="#472F40" stroke="#472F40" stroke-width="0.3189" stroke-miterlimit="10"/>
</svg>
