<svg width="394" height="394" viewBox="0 0 394 394" fill="none" xmlns="http://www.w3.org/2000/svg">
<path d="M47.6 231.7C46.8 231.7 45.9 231.6 45.2 231.3C44.7 231.2 44.2 231 43.8 230.7C43.5 230.6 43.3 230.4 43.1 230.3C42.3 229.7 41.5 229 41 228.2C40.5 227.5 40.2 226.8 39.9 226C39.6 225.2 39.5 224.4 39.5 223.6V170.5C39.5 166 43.1 162.4 47.6 162.4H101.6V123.4H47.6C21.6 123.4 0.5 144.5 0.5 170.5V223.6C0.5 224.4 0.500006 225.2 0.600006 225.9C0.600006 226 0.600006 226.1 0.600006 226.2C0.600006 226.9 0.699988 227.6 0.799988 228.3C0.799988 228.9 0.9 229.4 1 230C1.1 230.5 1.20001 231.1 1.20001 231.6C1.20001 231.7 1.20001 231.7 1.20001 231.8C1.30001 232.4 1.40001 233 1.60001 233.6C1.60001 233.7 1.60001 233.9 1.70001 234C1.80001 234.6 2.00001 235.2 2.10001 235.8C2.30001 236.5 2.50001 237.1 2.70001 237.8C3.00001 238.9 3.39999 239.9 3.79999 240.9C4.69999 243.2 5.8 245.4 7 247.5C7.3 247.9 7.50001 248.3 7.70001 248.7C7.80001 248.9 8.00001 249.1 8.10001 249.3C8.40001 249.7 8.59999 250.1 8.89999 250.4C8.99999 250.6 9.19999 250.8 9.29999 250.9C9.59999 251.3 9.90001 251.7 10.2 252.1C10.3 252.2 10.4 252.3 10.5 252.4C10.8 252.8 11.2 253.3 11.6 253.7C12.9 255.3 14.3 256.7 15.8 258.1C16.3 258.6 16.8 259 17.3 259.4C17.8 259.8 18.3 260.2 18.9 260.7C19.3 261 19.7 261.3 20.2 261.6C21 262.2 21.7 262.7 22.5 263.2C22.9 263.5 23.3 263.7 23.7 264C24.6 264.5 25.5 265 26.4 265.5C26.7 265.7 27.1 265.9 27.5 266C29.3 266.9 31.3 267.7 33.2 268.3C33.6 268.5 34 268.6 34.5 268.7C34.9 268.8 35.3 268.9 35.7 269C36.4 269.2 37 269.3 37.7 269.5C38.1 269.6 38.5 269.7 38.8 269.7C39.1 269.8 39.4 269.8 39.7 269.9C40.2 270 40.7 270.1 41.2 270.1C41.8 270.2 42.4 270.3 43 270.3C43.4 270.4 43.9 270.4 44.3 270.4C44.7 270.4 45.1 270.5 45.5 270.5C46.2 270.5 46.9 270.6 47.7 270.6H123.4V231.6H47.6V231.7Z" fill="#AB7F95"/>
<path d="M393.5 167.8C393.5 167.1 393.4 166.4 393.3 165.7C393.3 165.1 393.2 164.6 393.1 164C393 163.5 392.9 162.9 392.9 162.4C392.9 162.3 392.9 162.3 392.9 162.2C392.8 161.6 392.7 161 392.5 160.4C392.5 160.3 392.5 160.1 392.4 160C392.3 159.4 392.1 158.8 392 158.2C391.8 157.5 391.6 156.9 391.4 156.2C391.1 155.1 390.7 154.1 390.3 153.1C389.4 150.8 388.3 148.6 387.1 146.5C386.8 146.1 386.6 145.7 386.4 145.3C386.3 145.1 386.1 144.9 386 144.7C385.7 144.3 385.5 143.9 385.2 143.6C385.1 143.4 384.9 143.2 384.8 143.1C384.5 142.7 384.2 142.3 383.9 141.9C383.8 141.8 383.7 141.7 383.6 141.6C383.3 141.2 382.9 140.7 382.5 140.3C381.2 138.7 379.8 137.3 378.3 135.9C377.8 135.4 377.3 135 376.8 134.6C376.3 134.2 375.8 133.8 375.2 133.3C374.8 133 374.4 132.7 373.9 132.4C373.1 131.8 372.4 131.3 371.6 130.8C371.2 130.5 370.8 130.3 370.4 130C369.5 129.5 368.6 129 367.7 128.5C367.4 128.3 367 128.1 366.6 128C364.8 127.1 362.8 126.3 360.9 125.7C360.5 125.5 360.1 125.4 359.6 125.3C359.2 125.2 358.8 125.1 358.4 125C357.7 124.8 357.1 124.7 356.4 124.5C356 124.4 355.6 124.3 355.3 124.3C355 124.2 354.7 124.2 354.4 124.1C353.9 124 353.4 123.9 352.9 123.9C352.3 123.8 351.7 123.7 351.1 123.7C350.7 123.6 350.2 123.6 349.8 123.6C349.4 123.6 349 123.5 348.6 123.5C347.9 123.5 347.2 123.4 346.4 123.4H270.5V162.4H346.4C347.2 162.4 348.1 162.5 348.8 162.8C349.3 162.9 349.8 163.1 350.2 163.4C350.5 163.5 350.7 163.7 350.9 163.8C351.7 164.4 352.5 165.1 353 165.9C353.5 166.6 353.8 167.3 354.1 168.1C354.4 168.9 354.5 169.7 354.5 170.5V223.6C354.5 228.1 350.9 231.7 346.4 231.7H292.4V270.7H346.4C372.4 270.7 393.5 249.6 393.5 223.6V170.5C393.5 169.7 393.5 168.9 393.4 168.2C393.5 168 393.5 167.9 393.5 167.8Z" fill="#AB7F95"/>
<path d="M231.6 346.3C231.6 350.8 228 354.4 223.5 354.4H170.4C165.9 354.4 162.3 350.8 162.3 346.3V247.7V192.6C162.3 188.1 165.9 184.5 170.4 184.5H209.9V145.5H170.4C167.6 145.5 164.9 145.7 162.3 146.2C140.2 150 123.3 169.4 123.3 192.6V201.2V231.5V270.5V346.2C123.3 372.2 144.4 393.3 170.4 393.3H223.5C249.5 393.3 270.6 372.2 270.6 346.2V251.3C260.1 261.1 246.6 267.8 231.6 269.5V346.3Z" fill="#472F40" stroke="#472F40" stroke-width="0.6135" stroke-miterlimit="10"/>
<path d="M223.5 0.5H170.4C144.4 0.5 123.3 21.6 123.3 47.6V142.5C133.8 132.7 147.3 126 162.3 124.3V47.6C162.3 43.1 165.9 39.5 170.4 39.5H223.5C228 39.5 231.6 43.1 231.6 47.6V201.3C231.6 205.8 228 209.4 223.5 209.4H184V248.4H223.5C226.3 248.4 229 248.2 231.6 247.7C253.7 243.9 270.6 224.5 270.6 201.3V162.3V123.3V47.6C270.6 21.7 249.4 0.5 223.5 0.5Z" fill="#472F40" stroke="#472F40" stroke-width="0.6135" stroke-miterlimit="10"/>
</svg>
