<svg width="140" height="47" viewBox="0 0 276 104" fill="none" xmlns="http://www.w3.org/2000/svg">
<path d="M12.3516 60.9912C12.1508 60.9912 11.8998 60.9412 11.6989 60.8913C11.5483 60.8413 11.4479 60.7914 11.3475 60.7414C11.2972 60.6915 11.247 60.6915 11.1466 60.6415C10.9458 60.4917 10.7449 60.2919 10.5943 60.0921C10.4939 59.9422 10.3935 59.7424 10.293 59.5426C10.2428 59.3428 10.1926 59.143 10.1926 58.8932V45.1068C10.1926 43.9579 11.1466 43.0088 12.3014 43.0088H26.4104V32.8688H12.3014C5.5231 32.8688 0 38.3634 0 45.1068V58.8932C0 59.0931 0 59.2929 0 59.4927C0 59.5426 0 59.5426 0 59.5926C0 59.7924 -4.59761e-06 59.9422 0.0502054 60.142C0.0502054 60.2919 0.100418 60.4417 0.100418 60.5916C0.100418 60.7414 0.150624 60.8913 0.150624 60.9912V61.0411C0.200834 61.191 0.20084 61.3409 0.25105 61.4907C0.25105 61.5407 0.25105 61.5407 0.25105 61.5906C0.30126 61.7405 0.351468 61.8903 0.351468 62.0402C0.401678 62.19 0.45189 62.3898 0.5021 62.5397C0.60252 62.8394 0.702935 63.0891 0.803355 63.3389C1.0544 63.9383 1.30545 64.4878 1.65692 65.0372C1.70713 65.1371 1.75735 65.237 1.85777 65.3369C1.90798 65.3869 1.90798 65.4368 1.95819 65.4868C2.0084 65.5867 2.10881 65.6866 2.15902 65.7865C2.20923 65.8364 2.20924 65.8864 2.25945 65.9364C2.35987 66.0363 2.41008 66.1362 2.46029 66.2361C2.5105 66.286 2.51049 66.286 2.5607 66.336C2.66112 66.4359 2.76155 66.5857 2.86197 66.6856C3.21344 67.0852 3.56491 67.4848 3.96658 67.8345C4.11721 67.9344 4.21764 68.0843 4.36827 68.1842C4.5189 68.2841 4.61932 68.3839 4.76995 68.5338C4.87037 68.6337 4.97079 68.6836 5.12142 68.7835C5.32226 68.9334 5.52309 69.0833 5.72393 69.1832C5.82435 69.2331 5.92478 69.333 6.0252 69.383C6.27625 69.5328 6.47708 69.6327 6.72813 69.7826C6.82855 69.8325 6.92898 69.8825 7.0294 69.9324C7.5315 70.1822 7.98339 70.382 8.5357 70.5318C8.63612 70.5818 8.73653 70.6317 8.88716 70.6317C8.98758 70.6817 9.088 70.6817 9.18842 70.7317C9.33905 70.7816 9.53989 70.8316 9.69052 70.8316C9.79094 70.8815 9.89136 70.8815 9.99178 70.8815C10.0922 70.8815 10.1424 70.9315 10.2428 70.9315C10.3935 70.9814 10.4939 70.9814 10.6445 70.9814C10.7951 70.9814 10.9458 71.0313 11.0964 71.0313C11.1968 71.0313 11.3474 71.0813 11.4479 71.0813C11.5483 71.0813 11.6487 71.0813 11.7491 71.0813C11.95 71.0813 12.1508 71.0813 12.3014 71.0813H32.0842V60.9912H12.3516Z" fill="#AB7F95"/>
<path d="M102.629 44.4074C102.629 44.2076 102.629 44.0578 102.579 43.858C102.579 43.7081 102.529 43.5583 102.529 43.4084C102.529 43.2586 102.479 43.1087 102.479 43.0088V42.9589C102.428 42.809 102.428 42.6592 102.378 42.5093C102.378 42.4594 102.378 42.4593 102.378 42.4094C102.328 42.2595 102.278 42.1097 102.278 41.9598C102.228 41.81 102.177 41.6102 102.127 41.4603C102.027 41.1606 101.926 40.9109 101.826 40.6611C101.575 40.0617 101.324 39.5122 100.972 38.9628C100.922 38.8629 100.872 38.763 100.771 38.6631C100.721 38.6131 100.721 38.5632 100.671 38.5132C100.621 38.4133 100.52 38.3134 100.47 38.2135C100.42 38.1636 100.42 38.1136 100.37 38.0637C100.269 37.9638 100.219 37.8639 100.169 37.764C100.119 37.714 100.119 37.714 100.068 37.664C99.9681 37.5641 99.8677 37.4143 99.7672 37.3144C99.4158 36.9148 99.0643 36.5152 98.6626 36.1655C98.512 36.0656 98.4116 35.9158 98.2609 35.8159C98.1103 35.716 98.0099 35.6161 97.8593 35.4662C97.7588 35.3663 97.6584 35.3164 97.5078 35.2165C97.3069 35.0666 97.1061 34.9168 96.9053 34.8168C96.8049 34.7669 96.7044 34.667 96.604 34.617C96.353 34.4672 96.1521 34.3673 95.9011 34.2174C95.8007 34.1675 95.7002 34.1175 95.5998 34.0676C95.0977 33.8178 94.6458 33.618 94.0935 33.4682C93.9931 33.4182 93.8927 33.3683 93.742 33.3683C93.6416 33.3183 93.5412 33.3183 93.4408 33.2684C93.2902 33.2184 93.0893 33.1685 92.9387 33.1685C92.8383 33.1185 92.7378 33.1185 92.6374 33.1185C92.537 33.1185 92.4868 33.0686 92.3864 33.0686C92.2357 33.0186 92.1353 33.0186 91.9847 33.0186C91.8341 33.0186 91.6834 32.9687 91.5328 32.9687C91.4324 32.9687 91.2818 32.9187 91.1813 32.9187C91.0809 32.9187 90.9805 32.9187 90.8801 32.9187C90.6792 32.9187 90.4784 32.9187 90.3278 32.9187H70.545V43.0088H90.3278C90.5286 43.0088 90.7796 43.0588 90.9805 43.1087C91.1311 43.1587 91.2315 43.2086 91.332 43.2586C91.3822 43.3085 91.4324 43.3085 91.5328 43.3585C91.7336 43.5083 91.9345 43.7081 92.0851 43.9079C92.1855 44.0578 92.286 44.2576 92.3864 44.4574C92.4366 44.6572 92.4868 44.857 92.4868 45.1068V58.8932C92.4868 60.0421 91.5328 60.9912 90.378 60.9912H76.269V71.1312H90.378C97.1563 71.1312 102.679 65.6366 102.679 58.8932V45.1068C102.679 44.907 102.679 44.7072 102.679 44.5073C102.629 44.4574 102.629 44.4574 102.629 44.4074Z" fill="#AB7F95"/>
<path d="M60.4025 90.762C60.4025 91.9109 59.4485 92.86 58.2937 92.86H44.4357C43.2809 92.86 42.3269 91.9109 42.3269 90.762V65.1371V50.8512C42.3269 49.7023 43.2809 48.7532 44.4357 48.7532H54.7288V38.6132H44.4357C43.7328 38.6132 43.0298 38.6631 42.3269 38.813C36.5527 39.812 32.1343 44.8071 32.1343 50.8512V53.099V60.9912V71.1313V90.762C32.1343 97.5054 37.6574 103 44.4357 103H58.2937C65.072 103 70.5951 97.5054 70.5951 90.762V66.1362C67.8838 68.6837 64.3189 70.432 60.4025 70.8815V90.762Z" fill="#472F40" stroke="#472F40" stroke-width="0.3189" stroke-miterlimit="10"/>
<path d="M58.2435 1H44.3856C37.6072 1 32.0841 6.49461 32.0841 13.238V37.8639C34.7954 35.3164 38.3603 33.5681 42.2767 33.1185V13.1881C42.2767 12.0392 43.2307 11.0901 44.3856 11.0901H58.2435C59.3983 11.0901 60.3523 12.0392 60.3523 13.1881V53.0989C60.3523 54.2478 59.3983 55.1969 58.2435 55.1969H47.9505V65.3369H58.2435C58.9464 65.3369 59.6494 65.287 60.3523 65.1371C66.1265 64.1381 70.545 59.0931 70.545 53.0989V43.0088V32.8688V13.238C70.545 6.49461 65.0219 1 58.2435 1Z" fill="#472F40" stroke="#472F40" stroke-width="0.3189" stroke-miterlimit="10"/>
<path d="M126.228 28.2232C123.617 30.5709 122.311 33.9676 122.311 38.4133H118.395V48.2037H122.311V69.233H132.604V48.2037H137.927V38.4133H132.604C132.604 35.6659 134.362 34.4172 137.927 34.6669V25.1762C132.705 24.8266 128.839 25.8755 126.228 28.2232Z" fill="#472F40" stroke="#472F40" stroke-width="0.3189" stroke-miterlimit="10"/>
<path d="M155.299 37.5143C150.73 37.5143 146.814 39.0628 143.6 42.2097C140.387 45.3566 138.78 49.2028 138.78 53.7983C138.78 58.3938 140.387 62.24 143.6 65.387C146.814 68.5339 150.73 70.0824 155.299 70.0824C159.919 70.0824 163.835 68.5339 167.048 65.387C170.262 62.24 171.869 58.3938 171.869 53.7983C171.869 49.2028 170.262 45.3566 167.048 42.2097C163.885 39.1127 159.969 37.5143 155.299 37.5143ZM159.818 58.4438C158.663 59.6426 157.157 60.242 155.299 60.242C153.542 60.242 152.036 59.6426 150.881 58.4438C149.726 57.245 149.124 55.6965 149.124 53.7983C149.124 51.9002 149.726 50.3517 150.881 49.1529C152.036 47.954 153.542 47.3546 155.299 47.3546C157.107 47.3546 158.613 47.954 159.818 49.1529C160.973 50.3517 161.576 51.9002 161.576 53.7983C161.576 55.6965 160.973 57.245 159.818 58.4438Z" fill="#472F40" stroke="#472F40" stroke-width="0.3189" stroke-miterlimit="10"/>
<path d="M196.02 37.764C193.861 37.764 191.902 38.3135 190.195 39.4124C188.488 40.5113 187.283 42.1098 186.731 44.1078V38.3635H176.438V69.1832H186.731V56.3958C186.731 53.5985 187.685 51.6005 189.593 50.3517C191.501 49.1029 193.66 48.7033 196.02 49.053V37.764Z" fill="#472F40" stroke="#472F40" stroke-width="0.3189" stroke-miterlimit="10"/>
<path d="M201.593 57.2948C199.836 57.2948 198.279 57.9442 197.024 59.1929C195.718 60.4417 195.116 61.9402 195.116 63.7385C195.116 65.4868 195.769 67.0352 197.024 68.284C198.279 69.5328 199.836 70.1822 201.643 70.1822C203.4 70.1822 204.957 69.5328 206.212 68.284C207.467 67.0352 208.12 65.5367 208.12 63.7385C208.12 61.9902 207.467 60.4417 206.212 59.1929C204.857 57.8942 203.35 57.2948 201.593 57.2948Z" fill="#472F40" stroke="#472F40" stroke-width="0.3189" stroke-miterlimit="10"/>
<path d="M233.275 51.2508C231.769 50.6514 230.263 50.2019 228.756 49.8522C227.25 49.5025 225.945 49.1529 224.89 48.8032C223.836 48.4536 223.334 47.954 223.334 47.4046C223.334 46.4056 224.087 45.9061 225.643 45.9061C227.3 45.9061 228.556 46.8052 229.51 48.5535L238.196 44.6573C235.786 39.9119 231.518 37.5143 225.443 37.5143C222.028 37.5143 219.066 38.4134 216.656 40.2116C214.196 42.0099 212.991 44.5574 212.991 47.8542C212.991 49.8522 213.493 51.5505 214.547 52.9492C215.601 54.3478 216.857 55.3468 218.313 55.9462C219.819 56.5456 221.275 57.0451 222.781 57.4447C224.288 57.7944 225.543 58.194 226.547 58.5437C227.602 58.8933 228.104 59.3929 228.104 59.9423C228.104 61.0412 227.15 61.5907 225.292 61.5907C222.832 61.5907 221.225 60.4418 220.472 58.194L211.484 62.6896C213.794 67.5848 218.413 70.0324 225.392 70.0324C229.008 70.0324 232.171 69.1832 234.832 67.4849C237.493 65.7866 238.798 63.1891 238.798 59.6426C238.798 57.4447 238.296 55.6465 237.242 54.1979C236.087 52.8492 234.782 51.8502 233.275 51.2508Z" fill="#472F40" stroke="#472F40" stroke-width="0.3189" stroke-miterlimit="10"/>
<path d="M264.807 38.4134V41.3605C262.699 38.813 259.786 37.5143 256.121 37.5143C251.853 37.5143 248.338 39.0128 245.527 42.0598C242.715 45.1068 241.359 48.8032 241.359 53.1489C241.359 57.4947 242.765 61.1911 245.527 64.2381C248.338 67.2851 251.853 68.7836 256.121 68.7836C259.786 68.7836 262.699 67.4849 264.807 64.9374V67.8845C264.807 69.6827 264.205 71.0814 263.05 72.0304C261.895 72.9795 260.389 73.4291 258.531 73.4291C255.619 73.4291 253.46 72.2802 251.954 69.9325L243.418 74.8777C244.774 77.3253 246.832 79.2234 249.493 80.4722C252.205 81.7709 255.217 82.3703 258.682 82.3703C260.791 82.3703 262.799 82.0706 264.657 81.5211C266.514 80.9717 268.272 80.1225 269.828 78.9736C271.385 77.8248 272.64 76.3262 273.594 74.4281C274.548 72.53 275 70.3321 275 67.8346V38.2136H264.807V38.4134ZM263 57.7944C261.795 58.9932 260.188 59.5926 258.28 59.5926C256.322 59.5926 254.765 58.9932 253.56 57.7944C252.355 56.5956 251.753 55.0471 251.753 53.1989C251.753 51.3507 252.355 49.8022 253.56 48.6034C254.765 47.4046 256.372 46.8052 258.28 46.8052C260.238 46.8052 261.795 47.4046 263 48.6034C264.205 49.8022 264.807 51.3507 264.807 53.1989C264.807 55.0471 264.205 56.5956 263 57.7944Z" fill="#472F40" stroke="#472F40" stroke-width="0.3189" stroke-miterlimit="10"/>
</svg>
