<svg width="30" height="30" viewBox="0 0 119 120" fill="none" xmlns="http://www.w3.org/2000/svg">
<path d="M14.2671 70.5508C14.0352 70.5508 13.7452 70.493 13.5132 70.4352C13.3392 70.3775 13.2232 70.3197 13.1072 70.262C13.0492 70.2042 12.9912 70.2042 12.8752 70.1464C12.6432 69.9731 12.4113 69.7421 12.2373 69.511C12.1213 69.3378 12.0053 69.1067 11.8893 68.8756C11.8313 68.6446 11.7733 68.4135 11.7733 68.1247V52.1819C11.7733 50.8533 12.8752 49.7558 14.2092 49.7558H30.5062V38.0298H14.2092C6.37962 38.0298 0 44.3838 0 52.1819V68.1247C0 68.3558 0 68.5868 0 68.8179C0 68.8756 0 68.8756 0 68.9334C0 69.1645 -5.31061e-06 69.3377 0.0579912 69.5688C0.0579912 69.7421 0.115991 69.9154 0.115991 70.0887C0.115991 70.262 0.173983 70.4353 0.173983 70.5508V70.6085C0.231979 70.7818 0.231986 70.9551 0.289983 71.1284C0.289983 71.1862 0.289983 71.1862 0.289983 71.244C0.347979 71.4172 0.405974 71.5905 0.405974 71.7638C0.463971 71.9371 0.521969 72.1682 0.579965 72.3414C0.695959 72.688 0.811946 72.9769 0.927939 73.2657C1.21792 73.9589 1.5079 74.5942 1.91388 75.2296C1.97188 75.3452 2.02988 75.4607 2.14587 75.5762C2.20387 75.634 2.20387 75.6918 2.26186 75.7495C2.31986 75.8651 2.43585 75.9806 2.49384 76.0961C2.55184 76.1539 2.55185 76.2117 2.60984 76.2694C2.72584 76.3849 2.78383 76.5005 2.84183 76.616C2.89982 76.6737 2.89982 76.6738 2.95782 76.7315C3.07381 76.847 3.18981 77.0203 3.3058 77.1359C3.71178 77.598 4.11775 78.0601 4.58172 78.4644C4.75571 78.58 4.87171 78.7533 5.0457 78.8688C5.21969 78.9843 5.33568 79.0998 5.50967 79.2731C5.62567 79.3886 5.74166 79.4464 5.91565 79.5619C6.14763 79.7352 6.37962 79.9085 6.6116 80.0241C6.7276 80.0818 6.84359 80.1973 6.95959 80.2551C7.24957 80.4284 7.48155 80.5439 7.77153 80.7172C7.88753 80.775 8.00352 80.8328 8.11952 80.8905C8.69948 81.1793 9.22145 81.4104 9.85941 81.5837C9.97541 81.6414 10.0914 81.6992 10.2654 81.6992C10.3814 81.757 10.4974 81.757 10.6134 81.8147C10.7874 81.8725 11.0193 81.9303 11.1933 81.9303C11.3093 81.988 11.4253 81.988 11.5413 81.988C11.6573 81.988 11.7153 82.0458 11.8313 82.0458C12.0053 82.1036 12.1213 82.1035 12.2953 82.1035C12.4693 82.1035 12.6432 82.1613 12.8172 82.1613C12.9332 82.1613 13.1072 82.2191 13.2232 82.2191C13.3392 82.2191 13.4552 82.2191 13.5712 82.2191C13.8032 82.2191 14.0352 82.2191 14.2092 82.2191H37.0598V70.5508H14.2671Z" fill="#AB7F95"/>
<path d="M118.545 51.3732C118.545 51.1421 118.545 50.9689 118.487 50.7378C118.487 50.5645 118.429 50.3912 118.429 50.2179C118.429 50.0446 118.371 49.8713 118.371 49.7558V49.698C118.313 49.5248 118.313 49.3515 118.255 49.1782C118.255 49.1204 118.255 49.1204 118.255 49.0626C118.197 48.8894 118.139 48.7161 118.139 48.5428C118.081 48.3695 118.023 48.1384 117.965 47.9651C117.849 47.6186 117.733 47.3297 117.617 47.0409C117.327 46.3477 117.037 45.7123 116.631 45.0769C116.573 44.9614 116.515 44.8459 116.399 44.7304C116.341 44.6726 116.341 44.6148 116.283 44.5571C116.225 44.4415 116.109 44.326 116.051 44.2105C115.993 44.1527 115.993 44.095 115.935 44.0372C115.819 43.9217 115.761 43.8061 115.703 43.6906C115.645 43.6329 115.645 43.6328 115.587 43.5751C115.471 43.4596 115.355 43.2863 115.239 43.1707C114.833 42.7086 114.427 42.2465 113.963 41.8422C113.789 41.7266 113.673 41.5534 113.499 41.4378C113.325 41.3223 113.209 41.2068 113.035 41.0335C112.919 40.918 112.803 40.8602 112.629 40.7447C112.397 40.5714 112.165 40.3981 111.933 40.2826C111.817 40.2248 111.701 40.1093 111.585 40.0515C111.295 39.8782 111.063 39.7627 110.773 39.5894C110.657 39.5316 110.541 39.4739 110.425 39.4161C109.845 39.1273 109.323 38.8962 108.685 38.7229C108.569 38.6652 108.453 38.6074 108.28 38.6074C108.164 38.5496 108.048 38.5496 107.932 38.4919C107.758 38.4341 107.526 38.3763 107.352 38.3763C107.236 38.3186 107.12 38.3186 107.004 38.3186C106.888 38.3186 106.83 38.2608 106.714 38.2608C106.54 38.2031 106.424 38.2031 106.25 38.2031C106.076 38.2031 105.902 38.1453 105.728 38.1453C105.612 38.1453 105.438 38.0875 105.322 38.0875C105.206 38.0875 105.09 38.0875 104.974 38.0875C104.742 38.0875 104.51 38.0875 104.336 38.0875H81.4851V49.7558H104.336C104.568 49.7558 104.858 49.8136 105.09 49.8713C105.264 49.9291 105.38 49.9869 105.496 50.0446C105.554 50.1024 105.612 50.1024 105.728 50.1602C105.96 50.3335 106.192 50.5645 106.366 50.7956C106.482 50.9688 106.598 51.1999 106.714 51.431C106.772 51.662 106.83 51.8931 106.83 52.1819V68.1247C106.83 69.4533 105.728 70.5508 104.394 70.5508H88.0967V82.2768H104.394C112.223 82.2768 118.603 75.9228 118.603 68.1247V52.1819C118.603 51.9508 118.603 51.7198 118.603 51.4887C118.545 51.431 118.545 51.431 118.545 51.3732Z" fill="#AB7F95"/>
<path d="M69.7697 104.978C69.7697 106.307 68.6678 107.404 67.3339 107.404H51.3268C49.9929 107.404 48.891 106.307 48.891 104.978V75.3452V58.8247C48.891 57.4962 49.9929 56.3986 51.3268 56.3986H63.2161V44.6726H51.3268C50.5149 44.6726 49.7029 44.7304 48.891 44.9037C42.2214 46.0589 37.1177 51.8353 37.1177 58.8247V61.4241V70.5508V82.2768V104.978C37.1177 112.776 43.4973 119.13 51.3268 119.13H67.3339C75.1634 119.13 81.543 112.776 81.543 104.978V76.5004C78.4112 79.4464 74.2935 81.4681 69.7697 81.988V104.978Z" fill="white" stroke="white" stroke-width="0.3189" stroke-miterlimit="10"/>
<path d="M67.2759 1.17651H51.2688C43.4393 1.17651 37.0597 7.53053 37.0597 15.3286V43.8062C40.1915 40.8602 44.3093 38.8385 48.833 38.3186V15.2709C48.833 13.9423 49.9349 12.8448 51.2688 12.8448H67.2759C68.6098 12.8448 69.7117 13.9423 69.7117 15.2709V61.4242C69.7117 62.7527 68.6098 63.8502 67.2759 63.8502H55.3866V75.5763H67.2759C68.0878 75.5763 68.8998 75.5185 69.7117 75.3452C76.3813 74.1899 81.4851 68.3558 81.4851 61.4242V49.7559V38.0298V15.3286C81.4851 7.53053 75.1054 1.17651 67.2759 1.17651Z" fill="white" stroke="white" stroke-width="0.3189" stroke-miterlimit="10"/>
</svg>
