<svg
  xmlns="http://www.w3.org/2000/svg"
  width="20"
  height="20"
  viewBox="0 0 32 32"
>
  <title>Lion Head Symbol</title>
  <path
    fill="#db0000"
    d="M5.896 11.185s-.949 1.341.294 3.075c0 0 .196-.883 2.159-.883h2.356c2.225 0 3.893-2.126 2.846-4.319 0 0 1.57.164 2.095-.818.523-.981-.033-1.374-.818-1.374h-3.959c0 .704-1.341.802-1.341 0H7.303s-1.669 0-1.701 1.407c0 0 .377-.229.752-.261v.375s-.458.082-.671.197c-.212.114-.523.425-.228 1.227.294.801.409 1.079.409 1.079s.475-.41 1.244-.41h.9c1.602 0 1.308 1.554-.295 1.554s-1.815-.85-1.815-.85z"
  />
  <path
    fill="#db0000"
    d="M14.255 9.566s.54.033.932-.31c0 0 3.55 2.765-1.717 8.326-5.268 5.562-1.195 9.162-1.195 9.162s-.948.915-.409 2.699c0 0-2.191-1.237-3.867-3.338-2.422-3.036-3.902-7.681 2.749-11.386 0 0 4.389-2.208 3.506-5.153zM8.829 6.343s.709-1.265 2.355-1.265c1.298 0 1.594-.666 1.594-.666s.566-1.079 3.424-1.079c2.619 0 4.384.873 5.812 2.039 0 0-3.85-2.388-7.645.971h-5.54z"
  />
  <path
    fill="#db0000"
    d="M24.839 14.348c-.109-3.948-3.163-8.179-9.728-7.939 6.413-5.431 17.537 6.695 8.375 13.066 0 0 1.533-2.186 1.353-5.126z"
  />
  <path
    fill="#db0000"
    d="M16.093 6.845c8.005-.24 10.863 9.357 5.693 13.676l-5.191 2.509s-.676-2.181 1.833-4.734c2.509-2.551 4.929-7.328-2.006-10.469 0 0 .131-.654-.327-.981z"
  />
  <path
    fill="#db0000"
    d="M15.678 9.004s.393-.371.524-.676c5.954 2.486 5.017 6.697 1.461 10.23-2.181 2.246-1.505 4.668-1.505 4.668s-2.66 1.657-3.577 3.097c0 0-3.852-3.28 1.483-8.724 5.235-5.344 1.614-8.594 1.614-8.594z"
  />
</svg>