<svg width="401" height="171" viewBox="0 0 401 171" fill="none" xmlns="http://www.w3.org/2000/svg">
<rect width="401" height="171" fill="white"/>
<path d="M27.4477 98.7364C27.1712 98.7364 26.8255 98.6648 26.5489 98.5933C26.3415 98.5217 26.2033 98.4502 26.065 98.3787C25.9958 98.3071 25.9267 98.3071 25.7884 98.2356C25.5119 98.0209 25.2353 97.7347 25.0279 97.4485C24.8896 97.2339 24.7514 96.9477 24.6131 96.6615C24.544 96.3753 24.4748 96.0891 24.4748 95.7314V75.9841C24.4748 74.3385 25.7884 72.9791 27.3786 72.9791H46.8064V58.4548H27.3786C18.045 58.4548 10.4398 66.3251 10.4398 75.9841V95.7314C10.4398 96.0176 10.4398 96.3038 10.4398 96.59C10.4398 96.6615 10.4398 96.6615 10.4398 96.7331C10.4398 97.0193 10.4398 97.2339 10.509 97.5201C10.509 97.7347 10.5781 97.9494 10.5781 98.164C10.5781 98.3787 10.6472 98.5933 10.6472 98.7364V98.8079C10.7164 99.0226 10.7164 99.2372 10.7855 99.4519C10.7855 99.5234 10.7855 99.5234 10.7855 99.595C10.8546 99.8096 10.9238 100.024 10.9238 100.239C10.9929 100.454 11.0621 100.74 11.1312 100.954C11.2695 101.384 11.4077 101.741 11.546 102.099C11.8917 102.958 12.2374 103.745 12.7214 104.532C12.7905 104.675 12.8596 104.818 12.9979 104.961C13.0671 105.033 13.0671 105.104 13.1362 105.176C13.2053 105.319 13.3436 105.462 13.4127 105.605C13.4819 105.677 13.4819 105.748 13.551 105.82C13.6893 105.963 13.7584 106.106 13.8276 106.249C13.8967 106.32 13.8967 106.321 13.9658 106.392C14.1041 106.535 14.2424 106.75 14.3807 106.893C14.8646 107.465 15.3486 108.038 15.9017 108.539C16.1091 108.682 16.2474 108.896 16.4548 109.039C16.6622 109.182 16.8005 109.326 17.0079 109.54C17.1462 109.683 17.2845 109.755 17.4919 109.898C17.7684 110.113 18.045 110.327 18.3215 110.47C18.4598 110.542 18.5981 110.685 18.7364 110.756C19.0821 110.971 19.3586 111.114 19.7043 111.329C19.8426 111.4 19.9809 111.472 20.1191 111.544C20.8105 111.901 21.4328 112.187 22.1933 112.402C22.3315 112.474 22.4698 112.545 22.6772 112.545C22.8155 112.617 22.9538 112.617 23.0921 112.688C23.2995 112.76 23.576 112.831 23.7834 112.831C23.9217 112.903 24.06 112.903 24.1983 112.903C24.3365 112.903 24.4057 112.974 24.544 112.974C24.7514 113.046 24.8896 113.046 25.0971 113.046C25.3045 113.046 25.5119 113.118 25.7193 113.118C25.8576 113.118 26.065 113.189 26.2033 113.189C26.3415 113.189 26.4798 113.189 26.6181 113.189C26.8946 113.189 27.1712 113.189 27.3786 113.189H54.619V98.7364H27.4477Z" fill="#AB7F95"/>
<path d="M151.758 74.9824C151.758 74.6962 151.758 74.4816 151.689 74.1954C151.689 73.9808 151.619 73.7661 151.619 73.5515C151.619 73.3368 151.55 73.1222 151.55 72.9791V72.9075C151.481 72.6929 151.481 72.4782 151.412 72.2636C151.412 72.1921 151.412 72.192 151.412 72.1205C151.343 71.9058 151.274 71.6912 151.274 71.4766C151.205 71.2619 151.136 70.9757 151.066 70.7611C150.928 70.3318 150.79 69.9741 150.652 69.6163C150.306 68.7577 149.96 67.9707 149.476 67.1837C149.407 67.0406 149.338 66.8975 149.2 66.7544C149.13 66.6828 149.131 66.6113 149.061 66.5397C148.992 66.3967 148.854 66.2536 148.785 66.1105C148.716 66.0389 148.716 65.9674 148.647 65.8958C148.508 65.7527 148.439 65.6096 148.37 65.4665C148.301 65.395 148.301 65.395 148.232 65.3234C148.093 65.1803 147.955 64.9657 147.817 64.8226C147.333 64.2502 146.849 63.6778 146.296 63.177C146.088 63.0339 145.95 62.8193 145.743 62.6762C145.535 62.5331 145.397 62.39 145.19 62.1753C145.051 62.0322 144.913 61.9607 144.706 61.8176C144.429 61.6029 144.153 61.3883 143.876 61.2452C143.738 61.1736 143.599 61.0306 143.461 60.959C143.116 60.7444 142.839 60.6013 142.493 60.3866C142.355 60.3151 142.217 60.2435 142.078 60.172C141.387 59.8142 140.765 59.528 140.004 59.3134C139.866 59.2418 139.728 59.1703 139.52 59.1703C139.382 59.0988 139.244 59.0987 139.106 59.0272C138.898 58.9556 138.622 58.8841 138.414 58.8841C138.276 58.8125 138.138 58.8126 137.999 58.8126C137.861 58.8126 137.792 58.741 137.654 58.741C137.446 58.6695 137.308 58.6695 137.1 58.6695C136.893 58.6695 136.686 58.5979 136.478 58.5979C136.34 58.5979 136.133 58.5264 135.994 58.5264C135.856 58.5264 135.718 58.5264 135.579 58.5264C135.303 58.5264 135.026 58.5264 134.819 58.5264H107.579V72.9791H134.819C135.096 72.9791 135.441 73.0506 135.718 73.1222C135.925 73.1937 136.063 73.2653 136.202 73.3368C136.271 73.4084 136.34 73.4084 136.478 73.4799C136.755 73.6946 137.031 73.9807 137.239 74.2669C137.377 74.4816 137.515 74.7678 137.654 75.054C137.723 75.3402 137.792 75.6264 137.792 75.9841V95.7314C137.792 97.377 136.478 98.7364 134.888 98.7364H115.46V113.261H134.888C144.222 113.261 151.827 105.39 151.827 95.7314V75.9841C151.827 75.6979 151.827 75.4117 151.827 75.1255C151.758 75.054 151.758 75.054 151.758 74.9824Z" fill="#AB7F95"/>
<path d="M93.6127 141.379C93.6127 143.025 92.2991 144.384 90.7089 144.384H71.6269C70.0367 144.384 68.7231 143.025 68.7231 141.379V104.675V84.2121C68.7231 82.5665 70.0367 81.2071 71.6269 81.2071H85.8001V66.6829H71.6269C70.6589 66.6829 69.691 66.7544 68.7231 66.969C60.7722 68.4 54.6881 75.5548 54.6881 84.2121V87.4318V98.7364V113.261V141.379C54.6881 151.038 62.2933 158.908 71.6269 158.908H90.7089C100.043 158.908 107.648 151.038 107.648 141.379V106.106C103.914 109.755 99.0055 112.259 93.6127 112.903V141.379Z" fill="#472F40" stroke="#472F40" stroke-width="0.3189" stroke-miterlimit="10"/>
<path d="M90.6398 12.8071H71.5578C62.2241 12.8071 54.619 20.6774 54.619 30.3364V65.6096C58.3524 61.9607 63.2612 59.4565 68.6539 58.8126V30.2648C68.6539 28.6192 69.9676 27.2598 71.5578 27.2598H90.6398C92.23 27.2598 93.5436 28.6192 93.5436 30.2648V87.4318C93.5436 89.0774 92.23 90.4368 90.6398 90.4368H76.4665V104.961H90.6398C91.6078 104.961 92.5757 104.89 93.5436 104.675C101.494 103.244 107.579 96.0176 107.579 87.4318V72.9791V58.4548V30.3364C107.579 20.6774 99.9734 12.8071 90.6398 12.8071Z" fill="#472F40" stroke="#472F40" stroke-width="0.3189" stroke-miterlimit="10"/>
<path d="M184.253 51.8008C180.657 55.1636 178.86 60.0289 178.86 66.3966H173.467V80.4201H178.86V110.542H193.033V80.4201H200.362V66.3966H193.033C193.033 62.4615 195.453 60.6728 200.362 61.0305V47.4364C193.171 46.9355 187.848 48.4381 184.253 51.8008Z" fill="#472F40" stroke="#472F40" stroke-width="0.3189" stroke-miterlimit="10"/>
<path d="M224.283 65.1088C217.992 65.1088 212.599 67.3268 208.174 71.8343C203.749 76.3418 201.537 81.8511 201.537 88.4335C201.537 95.0159 203.749 100.525 208.174 105.033C212.599 109.54 217.992 111.758 224.283 111.758C230.644 111.758 236.037 109.54 240.462 105.033C244.887 100.525 247.099 95.0159 247.099 88.4335C247.099 81.8511 244.887 76.3418 240.462 71.8343C236.106 67.3983 230.713 65.1088 224.283 65.1088ZM230.506 95.0875C228.916 96.8046 226.842 97.6632 224.283 97.6632C221.864 97.6632 219.789 96.8046 218.199 95.0875C216.609 93.3703 215.779 91.1523 215.779 88.4335C215.779 85.7147 216.609 83.4967 218.199 81.7795C219.789 80.0623 221.864 79.2038 224.283 79.2038C226.772 79.2038 228.847 80.0623 230.506 81.7795C232.096 83.4967 232.926 85.7147 232.926 88.4335C232.926 91.1523 232.096 93.3703 230.506 95.0875Z" fill="#472F40" stroke="#472F40" stroke-width="0.3189" stroke-miterlimit="10"/>
<path d="M280.354 65.4665C277.381 65.4665 274.685 66.2535 272.334 67.8276C269.984 69.4017 268.324 71.6912 267.564 74.5531V66.3251H253.391V110.47H267.564V92.154C267.564 88.1473 268.877 85.2854 271.505 83.4967C274.132 81.708 277.105 81.1356 280.354 81.6364V65.4665Z" fill="#472F40" stroke="#472F40" stroke-width="0.3189" stroke-miterlimit="10"/>
<path d="M288.029 93.4418C285.609 93.4418 283.466 94.372 281.737 96.1607C279.939 97.9494 279.11 100.096 279.11 102.672C279.11 105.176 280.009 107.394 281.737 109.182C283.466 110.971 285.609 111.901 288.098 111.901C290.518 111.901 292.661 110.971 294.389 109.182C296.118 107.394 297.017 105.247 297.017 102.672C297.017 100.167 296.118 97.9494 294.389 96.1607C292.523 94.3004 290.448 93.4418 288.029 93.4418Z" fill="#472F40" stroke="#472F40" stroke-width="0.3189" stroke-miterlimit="10"/>
<path d="M331.655 84.7845C329.581 83.926 327.506 83.282 325.432 82.7812C323.358 82.2804 321.561 81.7795 320.109 81.2787C318.657 80.7778 317.965 80.0623 317.965 79.2753C317.965 77.8444 319.002 77.1289 321.146 77.1289C323.427 77.1289 325.156 78.4168 326.469 80.9209L338.43 75.3402C335.112 68.5431 329.235 65.1088 320.869 65.1088C316.168 65.1088 312.089 66.3967 308.77 68.9724C305.382 71.5481 303.723 75.1971 303.723 79.9193C303.723 82.7812 304.414 85.2138 305.866 87.2172C307.318 89.2205 309.047 90.6515 311.052 91.51C313.126 92.3686 315.131 93.0841 317.205 93.6565C319.279 94.1573 321.007 94.7297 322.39 95.2305C323.842 95.7314 324.533 96.4469 324.533 97.2339C324.533 98.808 323.22 99.595 320.662 99.595C317.274 99.595 315.062 97.9494 314.024 94.7297L301.649 101.169C304.829 108.181 311.19 111.687 320.8 111.687C325.778 111.687 330.134 110.47 333.798 108.038C337.462 105.605 339.26 101.885 339.26 96.8046C339.26 93.6565 338.568 91.0808 337.117 89.0059C335.526 87.0741 333.729 85.6431 331.655 84.7845Z" fill="#472F40" stroke="#472F40" stroke-width="0.3189" stroke-miterlimit="10"/>
<path d="M375.073 66.3967V70.618C372.169 66.9691 368.159 65.1088 363.112 65.1088C357.236 65.1088 352.396 67.2552 348.524 71.6197C344.653 75.9841 342.786 81.2787 342.786 87.5033C342.786 93.728 344.722 99.0226 348.524 103.387C352.396 107.751 357.236 109.898 363.112 109.898C368.159 109.898 372.169 108.038 375.073 104.389V108.61C375.073 111.186 374.244 113.189 372.653 114.549C371.063 115.908 368.989 116.552 366.431 116.552C362.421 116.552 359.448 114.906 357.374 111.544L345.621 118.627C347.487 122.133 350.322 124.851 353.986 126.64C357.72 128.5 361.868 129.359 366.638 129.359C369.542 129.359 372.308 128.93 374.866 128.143C377.424 127.356 379.844 126.139 381.987 124.494C384.13 122.848 385.859 120.702 387.172 117.983C388.486 115.264 389.108 112.116 389.108 108.539V66.1105H375.073V66.3967ZM372.584 94.1573C370.925 95.8745 368.713 96.7331 366.085 96.7331C363.389 96.7331 361.246 95.8745 359.586 94.1573C357.927 92.4402 357.097 90.2222 357.097 87.5749C357.097 84.9276 357.927 82.7096 359.586 80.9925C361.246 79.2753 363.458 78.4167 366.085 78.4167C368.782 78.4167 370.925 79.2753 372.584 80.9925C374.244 82.7096 375.073 84.9276 375.073 87.5749C375.073 90.2222 374.244 92.4402 372.584 94.1573Z" fill="#472F40" stroke="#472F40" stroke-width="0.3189" stroke-miterlimit="10"/>
</svg>
