<?xml version="1.0" encoding="utf-8"?>
<svg viewBox="0 0 406 150" width="406" height="150" fill="none" xmlns="http://www.w3.org/2000/svg">
  <defs>
    <clipPath id="clip0">
      <rect width="406" height="135" fill="white"/>
    </clipPath>
  </defs>
  <rect x="0.156" y="0.083" width="406" height="150" style="fill: rgb(255, 255, 255);"/>
  <g clip-path="url(#clip0)" transform="matrix(0.935961, 0, 0, 0.935961, 12, 12)">
    <path d="M184.203 37.3934C184.203 25.5074 193.717 16.193 205.832 16.2028C217.946 16.2125 227.441 25.5269 227.436 37.4323C227.431 49.3378 217.922 58.6424 205.812 58.6473C193.703 58.6522 184.198 49.2454 184.203 37.3934ZM213.978 37.3934C213.978 32.5321 210.557 29.027 205.797 29.027C201.106 29.027 197.705 32.5418 197.705 37.3837C197.705 42.2256 201.096 45.7404 205.788 45.7598C210.479 45.7793 213.978 42.2937 213.978 37.4323V37.3934Z" fill="#8F8AB0"/>
    <path d="M176.062 57.4563H162.608V30.1015L157.506 30.0723V17.3307H162.662C162.636 16.9665 162.636 16.601 162.662 16.2369C162.68 13.3356 163.385 10.4794 164.719 7.89962C167.094 3.52439 170.965 1.24927 175.739 0.437426C177.879 0.0874076 180.078 0.140883 182.248 -9.68529e-05C182.513 -0.016081 182.779 -0.016081 183.045 -9.6852e-05V12.3623H182.918C180.753 12.4061 178.52 12.338 176.97 14.2826C176.306 15.1285 176.135 16.057 176.135 17.3307H183.045V30.0966C182.639 30.0966 176.062 30.0966 176.062 30.0966V57.4563Z" fill="#8F8AB0"/>
    <path d="M258.863 31.0737C257.273 31.1291 255.687 31.2768 254.113 31.5161C249.573 32.4495 246.842 35.799 246.783 40.4221V57.4369H233.408V17.3987H246.749V24.0782C249.143 18.9009 253.327 16.7327 258.863 16.4994V31.0737Z" fill="#8F8AB0"/>
    <path d="M274.638 50.315C274.638 52.5442 273.748 54.6821 272.163 56.2584C270.579 57.8347 268.429 58.7203 266.189 58.7203C263.948 58.7203 261.799 57.8347 260.214 56.2584C258.629 54.6821 257.739 52.5442 257.739 50.315C257.739 48.0857 258.629 45.9478 260.214 44.3715C261.799 42.7952 263.948 41.9097 266.189 41.9097C268.429 41.9097 270.579 42.7952 272.163 44.3715C273.748 45.9478 274.638 48.0857 274.638 50.315Z" fill="#8F8AB0"/>
    <path d="M364.843 125.151L375.922 118.778C376.093 118.977 376.22 119.113 376.327 119.264C377.719 121.157 379.728 122.513 382.011 123.1C384.295 123.686 386.712 123.468 388.852 122.482C389.871 122.069 390.757 121.388 391.416 120.512C392.075 119.636 392.481 118.597 392.59 117.509C392.781 115.905 392.63 114.261 392.63 112.55C392.494 112.619 392.366 112.702 392.248 112.798C389.223 116.036 385.407 117.29 381.062 117.173C376.742 117.102 372.575 115.569 369.248 112.827C365.92 110.085 363.631 106.298 362.757 102.089C361.198 94.9958 362.414 88.4524 367.199 82.8132C372.198 76.9164 380.847 74.7433 387.601 77.5386C389.5 78.3847 391.232 79.56 392.718 81.0096V77.5095L406.01 77.6018V116.118C406.01 121.466 404.382 126.191 400.243 129.832C397.656 132.081 394.516 133.608 391.144 134.261C384.581 135.627 378.184 135.199 372.115 132.146C369.239 130.719 366.832 128.507 365.176 125.768C365.068 125.613 364.995 125.423 364.843 125.151ZM384.131 105.137C389.179 105.137 392.703 101.734 392.708 96.8139C392.713 91.8942 389.204 88.4767 384.166 88.4767C379.127 88.4767 375.594 91.8797 375.589 96.8042C375.584 101.729 379.088 105.127 384.131 105.137Z" fill="#48426D"/>
    <path d="M234.048 81.0729V61.3795H247.462V117.645H234.077V114.013C234.077 114.013 233.716 114.417 233.643 114.5C230.065 118.233 225.565 119.249 220.624 118.729C214.345 118.073 209.56 114.879 206.623 109.424C202.045 100.932 202.225 92.3707 207.625 84.2619C209.782 81.0549 212.928 78.6311 216.588 77.3547C220.249 76.0783 224.227 76.0184 227.925 77.1838C229.897 77.7886 231.695 78.8537 233.169 80.2902C233.398 80.4701 233.623 80.6986 234.048 81.0729ZM234.048 97.6015C234.048 92.5943 230.789 89.0309 226.058 88.8754C220.903 88.7052 217.443 91.8408 217.081 97.0036C216.817 100.718 218.547 104.033 221.567 105.477C226.537 107.844 234.004 105.632 234.038 97.5918L234.048 97.6015Z" fill="#48426D"/>
    <path d="M171.448 102.575C172.831 105.696 175.323 106.95 178.387 107.305C181.696 107.674 184.828 107.232 187.472 104.962L187.843 104.646L197.617 111.418C196.6 112.39 195.721 113.362 194.714 114.189C191.171 117.105 187.003 118.403 182.497 118.744C177.278 119.137 172.235 118.433 167.671 115.773C160.858 111.811 157.658 105.715 157.506 97.9808C157.325 88.6956 162.486 80.9174 170.984 77.7964C179.135 74.8018 189.143 76.3914 195.081 83.63C199.435 88.9775 200.613 95.1174 199.479 101.802C199.391 102.2 199.298 102.482 199.298 102.482L171.448 102.575ZM186.641 93.2215C186.152 89.8185 182.79 87.5142 178.695 87.6844C174.952 87.84 171.609 90.3727 171.443 93.2215H186.641Z" fill="#48426D"/>
    <path d="M280.991 77.5678H294.346V117.645H281.035V113.62C280.901 113.833 280.75 114.037 280.585 114.227C277.262 118.116 272.864 119.244 268.016 118.71C261.023 117.932 256.41 113.362 255.311 106.376C255.041 104.704 254.901 103.014 254.89 101.32C254.846 93.7562 254.851 77.4998 254.851 77.4998H268.285V99.1717C268.271 100.237 268.396 101.299 268.656 102.332C269.409 105.073 272.077 106.561 275.332 106.153C278.386 105.769 280.258 104.023 280.771 101C280.919 100.074 280.993 99.1372 280.991 98.1994C280.991 91.729 280.991 77.5678 280.991 77.5678Z" fill="#48426D"/>
    <path d="M323.017 109.249L334.672 103.416C334.853 103.766 334.995 104.033 335.131 104.305C335.86 105.737 337.094 106.852 338.597 107.436C340.1 108.02 341.766 108.032 343.278 107.47C343.647 107.37 343.978 107.161 344.226 106.87C344.473 106.579 344.627 106.221 344.666 105.841C344.705 105.474 344.612 105.105 344.402 104.8C344.193 104.496 343.881 104.275 343.522 104.179C341.709 103.547 339.852 103.041 338.029 102.439C335.933 101.748 333.797 101.145 331.779 100.27C322.323 96.1625 323.472 84.0334 330.181 79.5561C334.418 76.7365 339.1 76.0267 344.045 76.5275C348.052 76.9309 351.703 78.2581 354.566 81.1701C355.832 82.4535 356.844 83.9799 358.114 85.5842L346.615 90.7324C346.342 90.324 346.127 89.9643 345.858 89.6094C345.308 88.7529 344.509 88.0834 343.567 87.69C342.625 87.2966 341.585 87.198 340.585 87.4072C339.972 87.5201 339.404 87.8052 338.948 88.2288C338.793 88.3783 338.675 88.5624 338.605 88.7659C338.535 88.9694 338.514 89.1865 338.544 89.3995C338.575 89.6125 338.656 89.8153 338.78 89.9912C338.905 90.1671 339.07 90.3112 339.261 90.4115C340.052 90.8655 340.898 91.2183 341.778 91.4616C344.563 92.2637 347.422 92.8519 350.163 93.7853C353.951 95.0736 357.005 97.3535 358.065 101.393C359.697 107.519 358.002 114.062 350.672 116.989C347.461 118.314 344.012 118.975 340.536 118.93C337.061 118.886 333.63 118.138 330.455 116.731C327.039 115.292 324.649 112.696 323.017 109.249Z" fill="#48426D"/>
    <path d="M318.511 110.499C318.447 112.694 317.521 114.778 315.932 116.303C314.343 117.829 312.218 118.675 310.009 118.662C307.801 118.649 305.686 117.776 304.116 116.232C302.546 114.687 301.646 112.593 301.608 110.397C301.673 108.201 302.598 106.118 304.187 104.592C305.776 103.067 307.902 102.22 310.11 102.233C312.318 102.247 314.433 103.119 316.003 104.663C317.573 106.208 318.473 108.302 318.511 110.499Z" fill="#48426D"/>
    <path d="M12.2901 23.7768C10.7044 23.6765 9.11498 23.9025 7.62105 24.4408C6.12713 24.979 4.76081 25.8179 3.60744 26.905C2.45407 27.9922 1.53843 29.3042 0.917704 30.7592C0.296979 32.2142 -0.0154934 33.7809 -0.000196762 35.3615V109.347C-0.0049553 110.918 0.359788 112.469 1.0649 113.875C1.77 115.281 2.79593 116.504 4.06073 117.446C4.96842 118.096 5.97252 118.601 7.03679 118.943V35.7309C7.03005 35.0552 7.16346 34.3854 7.42868 33.7632C7.6939 33.1411 8.08524 32.5801 8.57824 32.1152C9.07125 31.6503 9.65532 31.2915 10.294 31.0613C10.9326 30.8311 11.6122 30.7344 12.2901 30.7772C13.7041 30.8654 15.0322 31.4821 16.0083 32.5036C16.9844 33.5251 17.5362 34.8759 17.5532 36.2851V124.694C17.5484 126.265 17.9132 127.816 18.6183 129.222C19.3234 130.629 20.3493 131.851 21.6141 132.793C22.5231 133.442 23.5268 133.949 24.5902 134.295V36.6546C24.5488 33.3611 23.2587 30.2046 20.9781 27.8168C18.6974 25.429 15.5944 23.9861 12.2901 23.7768Z" fill="#48426D"/>
    <path d="M24.59 36.6547C24.5486 33.3611 23.2585 30.2047 20.9779 27.8169C18.6972 25.4291 15.5942 23.9862 12.2899 23.7769C11.0297 23.7103 9.76668 23.8398 8.54663 24.161L93.7773 2.35289C106.761 -0.996584 115.108 8.18653 115.108 20.3399L115.074 101.039C115.074 109.142 109.982 114.923 102.979 116.619L33.9629 134.246C32.1151 134.823 30.1797 135.072 28.2453 134.981C27.0004 134.919 25.7694 134.692 24.5851 134.305L24.59 36.6547Z" fill="#8F8AB0"/>
    <path d="M96.2698 118.296L102.965 116.59C109.967 114.893 115.06 109.113 115.06 101.009L115.094 20.3108C115.094 13.1937 112.22 7.08787 107.216 3.93285C100.902 -0.719471 92.0671 -0.928509 80.4072 1.62857L80.2997 1.65773C80.2997 1.65773 38.762 12.061 37.2666 12.5909C35.5269 13.2083 34.6619 15.4834 35.3119 17.2821C35.3119 17.2821 37.6038 16.7182 39.4021 16.2321C39.4021 16.2321 49.7475 14.9487 53.7693 20.9816C55.6067 23.738 55.8315 25.9937 55.8315 30.3592V33.6552C55.4308 57.894 56.6672 85.0981 96.2844 70.8932L96.2698 118.296Z" fill="#48426D"/>
    <path d="M94.8019 46.7644C96.8205 44.8088 96.7779 41.5083 94.7067 39.3925C92.6354 37.2766 89.3199 37.1467 87.3013 39.1022C85.2827 41.0578 85.3253 44.3583 87.3965 46.4741C89.4678 48.59 92.7832 48.7199 94.8019 46.7644Z" fill="#D5CDE0"/>
  </g>
</svg>