<svg width="717" height="629" viewBox="0 0 717 629" fill="none" xmlns="http://www.w3.org/2000/svg">
<line x1="153.909" y1="114.316" x2="153.909" y2="-7.61792e-05" stroke="#A9A9A9" stroke-width="3"/>
<line x1="448.546" y1="126.564" x2="448.546" y2="-0.00019843" stroke="#A9A9A9" stroke-width="3"/>
<path d="M544.064 324.014C552.108 325.229 612.409 338.516 621.441 331.466C631.012 323.994 614.762 320.71 608.692 318.804C606.741 319.022 603.115 319.535 601.127 319.714C586.826 320.982 553.197 317.722 550.23 316.385C547.262 315.049 541.993 291.607 539.521 287.503C539.521 287.503 538.594 284.639 536.016 278.316C535.395 277.317 534.407 276.598 533.254 276.305C533.198 276.216 527.199 274.75 525.425 275.417C522.943 276.337 521.954 277.163 522.449 277.551C522.449 277.551 529.447 279.415 530.987 281.054C531.218 281.608 531.397 282.184 531.519 282.773C531.519 282.773 530.852 283.05 529.382 281.852C526.038 279.11 525.467 280.259 525.399 280.6C525.33 280.94 527.288 282.494 528.415 283.409C529.543 284.323 534.597 290.064 534.597 290.064C538.196 296.945 541.464 323.617 544.064 324.014Z" fill="#EAC3B7"/>
<path d="M639.233 290.993C641.774 281.875 635.829 272.214 625.955 269.413C616.081 266.612 606.016 271.733 603.476 280.851C600.935 289.969 606.88 299.631 616.754 302.432C626.628 305.232 636.692 300.111 639.233 290.993Z" fill="black"/>
<path d="M615.018 350.151C605.529 348.261 607.911 345.33 607.911 333.422C609.786 331.455 610.18 330.184 612.847 329.95C614.357 329.837 615.272 329.518 616.169 327.45C617.919 323.372 611.941 302.346 611.941 302.346L630.126 300.824C630.126 300.824 634.639 325.595 635.682 329.22C636.725 332.844 640.344 336.448 646.343 340.644C641.674 344.978 639.241 352.14 638.707 358.633C632.494 351.806 622.884 351.717 615.018 350.151Z" fill="#EAC3B7"/>
<g style="mix-blend-mode:multiply">
<path d="M622.759 314.336C621.238 315.161 616.695 316.465 615.218 316.276C614.184 309.019 613.481 302.073 613.481 302.073L627.851 298.219C629.224 305.493 627.221 312.052 622.759 314.336Z" fill="#F5CFBF"/>
</g>
<path d="M630.709 302.22C634.129 301.664 636.484 298.382 635.969 294.888C635.455 291.395 632.266 289.014 628.846 289.569C625.426 290.125 623.071 293.407 623.586 296.9C624.1 300.394 627.289 302.775 630.709 302.22Z" fill="#EAC3B7"/>
<path d="M606.294 296.544C606.475 305.625 610.054 312.856 617.686 312.558C624.154 312.358 629.671 304.915 629.92 295.889C630.169 286.863 626.67 279.602 617.674 279.854C604.745 280.222 606.102 287.527 606.294 296.544Z" fill="#EAC3B7"/>
<path d="M623.891 289.524C623.323 289.243 622.724 289.033 622.106 288.896C621.486 288.761 620.854 288.684 620.218 288.667C619.586 288.655 618.954 288.7 618.329 288.8C617.699 288.89 617.082 289.06 616.491 289.304C616.466 289.322 616.447 289.347 616.438 289.376C616.428 289.405 616.427 289.437 616.437 289.466C616.446 289.495 616.465 289.52 616.489 289.537C616.514 289.554 616.544 289.563 616.574 289.561C617.162 289.447 617.778 289.36 618.388 289.305C618.99 289.251 619.595 289.234 620.198 289.256C620.803 289.263 621.407 289.313 622.004 289.405C622.608 289.481 623.208 289.588 623.801 289.728C623.818 289.732 623.835 289.733 623.853 289.73C623.87 289.728 623.887 289.721 623.902 289.711C623.917 289.702 623.929 289.689 623.939 289.674C623.949 289.659 623.956 289.642 623.959 289.624C623.956 289.603 623.949 289.583 623.937 289.565C623.925 289.548 623.909 289.534 623.891 289.524Z" fill="black"/>
<path d="M606.19 289.365C606.609 289.28 607.032 289.216 607.457 289.175C608.721 289.055 609.994 289.209 611.192 289.626C611.221 289.638 611.245 289.659 611.261 289.685C611.277 289.712 611.285 289.743 611.283 289.775C611.282 289.792 611.276 289.81 611.268 289.826C611.259 289.841 611.247 289.855 611.233 289.866C611.219 289.877 611.203 289.885 611.186 289.889C611.169 289.893 611.151 289.894 611.134 289.89C610.53 289.8 609.921 289.742 609.311 289.717C608.704 289.684 608.096 289.699 607.491 289.763C607.057 289.79 606.625 289.845 606.197 289.926C606.226 289.74 606.223 289.55 606.19 289.365Z" fill="black"/>
<path d="M619.176 292.982C619.181 293.21 619.275 293.425 619.435 293.581C619.596 293.738 619.811 293.822 620.034 293.817C620.15 293.813 620.264 293.786 620.37 293.736C620.476 293.685 620.571 293.614 620.649 293.525C620.727 293.436 620.787 293.332 620.825 293.219C620.862 293.107 620.877 292.987 620.868 292.869C620.875 292.749 620.857 292.63 620.817 292.519C620.776 292.407 620.713 292.305 620.631 292.22C620.55 292.135 620.452 292.069 620.344 292.025C620.236 291.98 620.119 291.96 620.003 291.964C619.886 291.968 619.771 291.997 619.665 292.049C619.56 292.101 619.465 292.174 619.389 292.265C619.312 292.355 619.254 292.461 619.219 292.576C619.184 292.69 619.173 292.81 619.185 292.929L619.176 292.982Z" fill="black"/>
<path d="M607.113 293.298C607.116 293.469 607.168 293.635 607.263 293.775C607.359 293.915 607.493 294.022 607.649 294.084C607.804 294.145 607.975 294.157 608.138 294.119C608.302 294.081 608.451 293.995 608.567 293.87C608.683 293.746 608.76 293.589 608.79 293.42C608.819 293.251 608.798 293.078 608.731 292.922C608.663 292.766 608.551 292.634 608.41 292.543C608.269 292.453 608.104 292.408 607.936 292.413C607.826 292.416 607.717 292.441 607.615 292.487C607.514 292.532 607.422 292.598 607.345 292.681C607.269 292.763 607.209 292.86 607.169 292.966C607.129 293.072 607.11 293.185 607.113 293.298Z" fill="black"/>
<path d="M611.931 301.981C611.943 302.456 612.595 302.825 613.404 302.795C614.213 302.765 614.854 302.363 614.842 301.889C614.831 301.415 614.178 301.77 613.366 301.811C612.555 301.852 611.964 301.504 611.931 301.981Z" fill="black"/>
<path d="M602.892 283.315C604.031 278.589 608.558 271.463 616.661 272.303C618.716 272.535 620.702 273.183 622.504 274.21C624.305 275.237 625.886 276.621 627.154 278.283L637.011 295.021C625.758 296.976 623.269 282.604 620.04 281.069C618.73 280.517 617.368 280.103 615.974 279.834C614.326 287.455 608.567 284.664 607.012 286.877C604.944 289.8 606.929 297.844 606.31 297.831C605.69 297.819 601.133 290.544 602.892 283.315Z" fill="black"/>
<path d="M637.881 605.563C641.118 601.565 642.682 599.605 646.177 598.168C645.81 584.453 645.736 545.83 647.349 525.211C649.321 499.902 653.801 469.168 653.114 445.358L630.937 444.813C631.263 454.342 631.095 463.886 630.433 473.405C629.35 491.374 627.559 507.315 629.871 539.269C631.844 566.538 636.206 595.73 635.699 598.373C634.501 604.571 634.608 609.587 637.881 605.563Z" fill="#EAC3B7"/>
<path d="M551.126 590.718C551.742 591.333 552.496 591.785 553.323 592.035C555.139 592.669 558.515 592.968 563.065 590.435C567.614 587.903 568.86 587.292 572.619 587.254C577.166 574.289 579.748 539.558 590.924 506.754C599.615 481.224 612.757 464.389 619.472 441.085L597.863 432.306C597.863 432.306 593.584 451.535 588.832 470.656C584.052 490.047 582.778 494.398 575.156 521.558C567.754 547.913 563.551 580.684 562.133 582.911C558.82 588.344 551.887 589.23 551.126 590.718Z" fill="#EAC3B7"/>
<path d="M563.252 569.637C565.516 527.964 561.728 507.693 572.113 469.861C579.914 441.404 594.332 418.363 596.668 407.208C602.101 381.192 608.029 385.43 609.707 377.342L652.067 374.967C652.716 381.321 655.673 385.63 657.6 404.567C660.283 431.404 655.718 462.199 655.517 494.712C655.287 533.654 660.204 567.579 660.302 584.519C660.343 592.828 634.035 594.275 633.501 589.128C632.968 583.981 617.23 498.993 620.824 446.631C620.824 446.631 607.483 471.139 599.222 497.263C588.238 531.979 600.037 574.498 590.54 575.449C582.65 576.229 563.095 573.617 563.252 569.637Z" fill="#8CA6AD"/>
<path d="M660.296 584.551C660.337 592.86 634.029 594.307 633.496 589.16C632.962 584.013 617.23 498.993 620.824 446.632C620.824 446.632 618.557 412.402 622.468 393.964" stroke="black" stroke-width="0.5" stroke-miterlimit="10"/>
<path d="M590.519 575.446C582.65 576.229 563.043 573.608 563.252 569.637C565.516 527.964 561.728 507.693 572.113 469.861C579.914 441.404 594.332 418.363 596.668 407.208C602.101 381.192 608.029 385.43 609.707 377.342L652.067 374.967" stroke="black" stroke-width="0.5" stroke-miterlimit="10"/>
<g style="mix-blend-mode:multiply" opacity="0.3">
<path d="M620.824 446.631C620.824 446.631 607.483 471.139 599.222 497.263C588.238 531.979 600.037 574.497 590.54 575.449C582.67 576.232 563.064 573.612 563.273 569.641C565.537 527.967 561.749 507.697 572.134 469.864C579.935 441.407 594.353 418.367 596.689 407.212C602.122 381.196 608.05 385.434 609.727 377.345L625.603 376.452C625.603 376.452 617.196 410.488 620.824 446.631Z" fill="#8CA6AD"/>
</g>
<path d="M618.076 320.661C617.202 320.464 618.957 329.476 615.286 331.064C607.005 334.76 590.845 333.853 590.845 333.853L595.799 318.79C600.924 319.12 606.067 319.197 611.208 319.022C613.636 318.762 616.064 319.342 618.076 320.661Z" fill="#456682"/>
<path d="M607.022 339.106C607.458 336.022 607.32 323.961 608.253 322.943C609.469 321.602 609.198 321.202 612.021 320.227C613.015 319.905 613.988 319.514 614.932 319.058C614.932 319.058 619.069 323.656 624.032 323.537C632.325 323.324 633.804 317.177 633.804 317.177C636.702 317.607 639.538 318.389 642.25 319.506L640.206 335.841C643.719 335.978 645.792 336.197 645.792 336.197L650.471 346.492C652.516 355.686 653.487 365.105 653.364 374.552C653.33 375.578 653.658 376.373 650.936 377.685C644.95 380.574 625.399 384.212 610.007 379.548C607.72 378.852 607.685 378.274 607.465 375.797C606.641 364.207 606.574 342.199 607.022 339.106Z" fill="#456682"/>
<path d="M650.464 346.534C652.509 355.729 653.48 365.148 653.357 374.595C653.322 375.621 653.651 376.416 650.929 377.728C644.943 380.617 625.391 384.254 610 379.591C607.713 378.894 607.677 378.317 607.458 375.84" stroke="black" stroke-width="0.5" stroke-miterlimit="10"/>
<path fill-rule="evenodd" clip-rule="evenodd" d="M575.019 583.501C575.6 584.925 575.951 586.438 576.058 587.981C575.981 589.742 575.766 591.496 575.416 593.225L538.81 593.162C537.887 589.944 538.435 588.208 540.503 587.976C542.57 587.743 544.288 587.491 545.641 587.295L562.724 579.558C562.803 579.526 562.886 579.507 562.97 579.503C563.055 579.502 563.14 579.517 563.219 579.548C563.298 579.578 563.37 579.625 563.43 579.684C563.496 579.744 563.549 579.817 563.585 579.899L564.641 582.614C566.068 583.387 567.637 583.852 569.251 583.98C570.647 583.846 572.004 583.429 573.245 582.754C573.558 582.611 573.913 582.6 574.232 582.723C574.551 582.846 574.809 583.093 574.949 583.411L575.019 583.501Z" fill="#FFBF8A"/>
<path fill-rule="evenodd" clip-rule="evenodd" d="M538.474 591.334C538.548 591.953 538.675 592.564 538.854 593.159L575.423 593.248C575.505 592.79 575.694 591.737 575.777 591.28C571.977 591.366 558.939 591.803 556.74 591.693C554.157 591.57 540.775 591.769 539.374 591.573C539.068 591.521 538.766 591.441 538.474 591.334Z" fill="#8CA6AD"/>
<path fill-rule="evenodd" clip-rule="evenodd" d="M647.211 598.563C647.897 599.946 648.353 601.438 648.562 602.978C648.599 604.74 648.497 606.503 648.258 608.25L611.698 610.557C610.582 607.402 611.017 605.636 613.07 605.247C615.123 604.858 616.814 604.513 618.162 604.228L634.75 595.425C634.825 595.381 634.907 595.352 634.991 595.336C635.076 595.341 635.16 595.356 635.241 595.381C635.324 595.405 635.401 595.449 635.464 595.509C635.533 595.561 635.587 595.632 635.621 595.713L636.851 598.35C638.328 599.025 639.926 599.386 641.549 599.413C642.94 599.184 644.277 598.678 645.482 597.923C645.632 597.841 645.796 597.79 645.964 597.773C646.133 597.756 646.303 597.774 646.464 597.825C646.626 597.873 646.777 597.955 646.906 598.065C647.036 598.175 647.142 598.311 647.218 598.465L647.211 598.563Z" fill="#FFBF8A"/>
<path fill-rule="evenodd" clip-rule="evenodd" d="M611.094 608.131C611.171 608.958 611.361 609.768 611.658 610.539L648.217 608.242C648.37 607.391 648.42 606.511 648.469 605.641C644.77 606.185 634.337 607.693 631.342 607.715C627.712 607.755 613.154 609.072 611.094 608.131Z" fill="#8CA6AD"/>
<path fill-rule="evenodd" clip-rule="evenodd" d="M613.43 292.982C613.218 295.415 612.302 297.71 612.968 297.819C613.358 297.901 613.763 297.883 614.146 297.767C614.508 297.668 614.836 297.463 615.088 297.179C615.088 297.179 613.161 298.062 613.156 297.37C613.152 296.677 613.43 292.982 613.43 292.982Z" fill="black"/>
<path fill-rule="evenodd" clip-rule="evenodd" d="M628.473 275.534C628.473 275.534 628.957 270.031 631.814 268.15C635.456 265.774 645.146 265.537 650.589 277.013C655.068 286.514 648.942 291.794 650.491 297.135C652.041 302.475 656.734 300.935 662.464 310.87C674.731 332.093 649.468 340.437 648.307 325.294C648.12 322.932 646.162 321.12 644.085 320.033C641.204 318.527 634.931 316.687 633.68 312.312C632.544 308.329 632.789 304.056 634.374 300.214C635.858 296.483 638.745 290.797 638.334 286.814C637.978 283.247 637.385 279.385 636.483 277.785C634.61 274.483 632.834 276.855 632.834 276.855L628.473 275.534Z" fill="black"/>
<path d="M604.482 333.529C599.947 333.96 595.393 334.074 590.853 333.872L595.807 318.809" stroke="black" stroke-width="0.5" stroke-miterlimit="10"/>
<path d="M642.25 319.506C650.559 321.887 655.781 326.175 655.584 334.254C655.548 338.88 654.49 343.447 652.489 347.612C650.561 345.117 648.002 343.211 645.086 342.098C642.239 341.175 639.236 340.849 636.254 341.138C636.452 340.394 642.25 319.506 642.25 319.506Z" fill="#456682"/>
<path d="M652.489 347.612C650.562 345.117 648.003 343.211 645.086 342.098C642.24 341.175 639.236 340.849 636.254 341.138C636.321 340.766 637.793 335.551 639.266 330.335" stroke="black" stroke-width="0.5" stroke-miterlimit="10"/>
<path d="M491.561 174.877H114.006C108.775 174.877 104.534 179.11 104.534 184.331V574.142C104.534 579.363 108.775 583.596 114.006 583.596H491.561C496.793 583.596 501.034 579.363 501.034 574.142V184.331C501.034 179.11 496.793 174.877 491.561 174.877Z" fill="#F2F2F2"/>
<path d="M385.051 226.859H128.214C125.598 226.859 123.478 228.975 123.478 231.586V277.654C123.478 280.264 125.598 282.38 128.214 282.38H385.051C387.666 282.38 389.787 280.264 389.787 277.654V231.586C389.787 228.975 387.666 226.859 385.051 226.859Z" fill="white"/>
<path d="M328.243 243.506H137.674C135.715 243.506 134.128 245.09 134.128 247.044V248.296C134.128 250.251 135.715 251.835 137.674 251.835H328.243C330.202 251.835 331.789 250.251 331.789 248.296V247.044C331.789 245.09 330.202 243.506 328.243 243.506Z" fill="#F0F0F0"/>
<path d="M263.257 257.392H137.674C135.715 257.392 134.128 258.976 134.128 260.931V262.183C134.128 264.137 135.715 265.722 137.674 265.722H263.257C265.215 265.722 266.802 264.137 266.802 262.183V260.931C266.802 258.976 265.215 257.392 263.257 257.392Z" fill="#F0F0F0"/>
<path d="M361.319 262.873C365.893 262.873 369.601 259.172 369.601 254.607C369.601 250.042 365.893 246.342 361.319 246.342C356.745 246.342 353.038 250.042 353.038 254.607C353.038 259.172 356.745 262.873 361.319 262.873Z" fill="#DDE3E9"/>
<path d="M361.319 258.146C363.277 258.146 364.865 256.561 364.865 254.607C364.865 252.652 363.277 251.068 361.319 251.068C359.361 251.068 357.773 252.652 357.773 254.607C357.773 256.561 359.361 258.146 361.319 258.146Z" fill="#F2F2F2"/>
<path d="M385.051 291.821H128.214C125.598 291.821 123.478 293.938 123.478 296.548V333.162C123.478 335.773 125.598 337.889 128.214 337.889H385.051C387.666 337.889 389.787 335.773 389.787 333.162V296.548C389.787 293.938 387.666 291.821 385.051 291.821Z" fill="white"/>
<path fill-rule="evenodd" clip-rule="evenodd" d="M137.586 305.644H328.309C328.764 305.642 329.215 305.73 329.636 305.903C330.057 306.076 330.439 306.329 330.761 306.65C331.084 306.97 331.339 307.351 331.514 307.77C331.688 308.19 331.778 308.639 331.778 309.093C331.771 310.005 331.405 310.877 330.758 311.52C330.111 312.164 329.235 312.527 328.322 312.53H137.599C137.144 312.53 136.693 312.44 136.273 312.266C135.853 312.092 135.471 311.837 135.15 311.515C134.829 311.193 134.575 310.812 134.402 310.392C134.229 309.972 134.141 309.522 134.143 309.068C134.149 308.16 134.515 307.291 135.159 306.65C135.804 306.009 136.676 305.647 137.586 305.644Z" fill="#F0F0F0"/>
<path fill-rule="evenodd" clip-rule="evenodd" d="M137.584 317.167H263.346C264.263 317.167 265.142 317.531 265.79 318.178C266.438 318.824 266.802 319.702 266.802 320.617C266.802 321.531 266.438 322.409 265.79 323.056C265.142 323.702 264.263 324.066 263.346 324.066H137.584C136.667 324.066 135.788 323.702 135.14 323.056C134.492 322.409 134.128 321.531 134.128 320.617C134.128 319.702 134.492 318.824 135.14 318.178C135.788 317.531 136.667 317.167 137.584 317.167Z" fill="#F0F0F0"/>
<path d="M361.319 323.121C365.893 323.121 369.601 319.42 369.601 314.855C369.601 310.29 365.893 306.59 361.319 306.59C356.745 306.59 353.038 310.29 353.038 314.855C353.038 319.42 356.745 323.121 361.319 323.121Z" fill="#DDE3E9"/>
<path d="M361.319 318.394C363.277 318.394 364.865 316.81 364.865 314.855C364.865 312.901 363.277 311.317 361.319 311.317C359.361 311.317 357.773 312.901 357.773 314.855C357.773 316.81 359.361 318.394 361.319 318.394Z" fill="#F2F2F2"/>
<path d="M385.051 347.343H128.214C125.598 347.343 123.478 349.459 123.478 352.07V388.684C123.478 391.294 125.598 393.41 128.214 393.41H385.051C387.666 393.41 389.787 391.294 389.787 388.684V352.07C389.787 349.459 387.666 347.343 385.051 347.343Z" fill="white"/>
<path fill-rule="evenodd" clip-rule="evenodd" d="M137.584 361.166H328.307C328.762 361.164 329.213 361.252 329.634 361.425C330.055 361.597 330.437 361.851 330.76 362.172C331.082 362.492 331.338 362.873 331.512 363.292C331.686 363.711 331.776 364.161 331.776 364.615C331.776 365.07 331.687 365.52 331.512 365.94C331.338 366.36 331.082 366.742 330.76 367.063C330.438 367.385 330.056 367.64 329.635 367.814C329.214 367.988 328.763 368.077 328.307 368.077H137.584C137.129 368.077 136.679 367.988 136.258 367.813C135.838 367.639 135.457 367.384 135.136 367.062C134.815 366.741 134.56 366.359 134.387 365.939C134.214 365.519 134.126 365.069 134.128 364.615C134.128 364.162 134.217 363.714 134.391 363.295C134.565 362.877 134.819 362.496 135.14 362.176C135.461 361.856 135.842 361.602 136.261 361.428C136.681 361.255 137.13 361.166 137.584 361.166Z" fill="#F0F0F0"/>
<path fill-rule="evenodd" clip-rule="evenodd" d="M137.584 372.676H263.346C264.264 372.679 265.143 373.045 265.791 373.694C266.439 374.343 266.802 375.222 266.802 376.138C266.802 377.053 266.438 377.93 265.79 378.577C265.142 379.224 264.263 379.587 263.346 379.587H137.584C136.667 379.587 135.788 379.224 135.14 378.577C134.492 377.93 134.128 377.053 134.128 376.138C134.128 375.222 134.492 374.343 135.139 373.694C135.787 373.045 136.666 372.679 137.584 372.676Z" fill="#F0F0F0"/>
<path d="M361.319 378.642C365.893 378.642 369.601 374.942 369.601 370.377C369.601 365.812 365.893 362.111 361.319 362.111C356.745 362.111 353.038 365.812 353.038 370.377C353.038 374.942 356.745 378.642 361.319 378.642Z" fill="#DDE3E9"/>
<path d="M361.319 373.915C363.277 373.915 364.865 372.331 364.865 370.376C364.865 368.422 363.277 366.838 361.319 366.838C359.361 366.838 357.773 368.422 357.773 370.376C357.773 372.331 359.361 373.915 361.319 373.915Z" fill="#AFB9C5"/>
<path d="M395.062 384.832L139.036 405.224C136.429 405.432 134.483 407.709 134.69 410.312L137.597 446.81C137.804 449.412 140.086 451.354 142.694 451.146L398.719 430.755C401.327 430.547 403.273 428.269 403.065 425.667L400.158 389.168C399.951 386.566 397.669 384.625 395.062 384.832Z" fill="white"/>
<path fill-rule="evenodd" clip-rule="evenodd" d="M149.474 418.259L339.596 403.117C340.049 403.079 340.506 403.131 340.939 403.27C341.372 403.408 341.773 403.631 342.12 403.925C342.467 404.219 342.752 404.578 342.959 404.982C343.166 405.386 343.292 405.827 343.328 406.28C343.401 407.195 343.106 408.102 342.509 408.801C341.912 409.5 341.062 409.934 340.145 410.007L150.023 425.149C149.57 425.185 149.114 425.132 148.681 424.991C148.248 424.851 147.848 424.627 147.502 424.332C147.156 424.037 146.873 423.676 146.667 423.271C146.461 422.866 146.338 422.425 146.303 421.972C146.267 421.521 146.321 421.066 146.461 420.635C146.601 420.204 146.824 419.805 147.119 419.46C147.413 419.116 147.773 418.832 148.177 418.626C148.581 418.42 149.022 418.295 149.474 418.259Z" fill="#F0F0F0"/>
<path fill-rule="evenodd" clip-rule="evenodd" d="M150.388 429.734L275.753 419.749C276.207 419.713 276.663 419.766 277.096 419.907C277.528 420.047 277.929 420.271 278.274 420.566C278.62 420.861 278.904 421.222 279.11 421.626C279.315 422.031 279.439 422.473 279.473 422.926C279.546 423.838 279.253 424.741 278.658 425.437C278.063 426.134 277.216 426.566 276.302 426.638L150.937 436.623C150.023 436.696 149.118 436.404 148.42 435.81C147.723 435.217 147.29 434.371 147.218 433.459C147.18 433.007 147.232 432.551 147.371 432.119C147.51 431.687 147.733 431.286 148.028 430.94C148.323 430.594 148.683 430.309 149.088 430.102C149.493 429.895 149.935 429.77 150.388 429.734Z" fill="#F0F0F0"/>
<path d="M373.89 417.917C378.45 417.554 381.852 413.571 381.49 409.02C381.127 404.47 377.137 401.075 372.578 401.438C368.018 401.802 364.616 405.785 364.979 410.335C365.341 414.886 369.331 418.281 373.89 417.917Z" fill="#DDE3E9"/>
<path d="M373.514 413.206C375.466 413.05 376.923 411.345 376.768 409.396C376.613 407.448 374.905 405.995 372.952 406.15C371 406.306 369.544 408.011 369.699 409.959C369.854 411.908 371.562 413.361 373.514 413.206Z" fill="#F2F2F2"/>
<path opacity="0.3" d="M491.561 174.877H114.006C108.775 174.877 104.534 179.11 104.534 184.331V574.142C104.534 579.363 108.775 583.596 114.006 583.596H491.561C496.793 583.596 501.034 579.363 501.034 574.142V184.331C501.034 179.11 496.793 174.877 491.561 174.877Z" fill="black"/>
<path fill-rule="evenodd" clip-rule="evenodd" d="M114.371 109.009L491.828 119.637C494.339 119.708 496.719 120.771 498.445 122.593C500.171 124.415 501.101 126.847 501.03 129.353L500.398 151.791L104.004 140.629L104.636 118.192C104.707 115.686 105.772 113.31 107.598 111.588C109.423 109.866 111.86 108.938 114.371 109.009Z" fill="#8CA6AD"/>
<path d="M104.534 574.155V184.331C104.534 181.823 105.532 179.419 107.308 177.646C109.084 175.873 111.494 174.877 114.006 174.877H491.612" stroke="black" stroke-linecap="round" stroke-linejoin="round"/>
<path d="M119.842 130.442C122.457 130.516 124.636 128.46 124.709 125.85C124.783 123.241 122.723 121.066 120.108 120.992C117.494 120.918 115.314 122.974 115.241 125.584C115.168 128.193 117.228 130.368 119.842 130.442Z" fill="#F0F0F0"/>
<path d="M134.045 130.842C136.659 130.915 138.839 128.86 138.912 126.25C138.985 123.641 136.925 121.465 134.311 121.392C131.696 121.318 129.517 123.374 129.444 125.984C129.37 128.593 131.43 130.768 134.045 130.842Z" fill="#F0F0F0"/>
<path d="M148.247 131.242C150.862 131.315 153.041 129.26 153.115 126.65C153.188 124.04 151.128 121.865 148.513 121.792C145.899 121.718 143.72 123.774 143.646 126.383C143.573 128.993 145.633 131.168 148.247 131.242Z" fill="#F0F0F0"/>
<path fill-rule="evenodd" clip-rule="evenodd" d="M251.493 175.557H501.098V573.373C501.094 576.085 500.095 578.685 498.319 580.602C496.543 582.519 494.136 583.596 491.626 583.596H251.493C249.925 583.596 248.421 582.922 247.312 581.724C246.203 580.525 245.58 578.899 245.58 577.204V181.948C245.58 181.109 245.733 180.278 246.03 179.503C246.327 178.727 246.763 178.023 247.312 177.429C247.861 176.836 248.513 176.365 249.23 176.044C249.948 175.722 250.717 175.557 251.493 175.557Z" fill="#F9F9F9"/>
<path d="M501.047 175.557V573.373C501.043 576.085 500.044 578.685 498.268 580.602C496.492 582.519 494.084 583.596 491.574 583.596H251.493C249.925 583.596 248.421 582.922 247.312 581.724C246.203 580.525 245.58 578.899 245.58 577.204" stroke="black" stroke-linecap="round" stroke-linejoin="round"/>
<path fill-rule="evenodd" clip-rule="evenodd" d="M382.99 497.299C384.321 497.299 385.597 497.826 386.538 498.766C387.479 499.705 388.008 500.979 388.008 502.307V534.028C388.008 535.356 387.479 536.63 386.538 537.569C385.597 538.508 384.321 539.036 382.99 539.036C381.66 539.032 380.386 538.503 379.446 537.565C378.505 536.627 377.976 535.355 377.972 534.028V502.307C377.976 500.98 378.505 499.708 379.446 498.769C380.386 497.831 381.66 497.302 382.99 497.299Z" fill="#DDE3E9"/>
<path fill-rule="evenodd" clip-rule="evenodd" d="M406.401 470.598C407.06 470.597 407.714 470.725 408.323 470.976C408.933 471.227 409.486 471.596 409.953 472.061C410.419 472.527 410.789 473.08 411.04 473.688C411.292 474.296 411.42 474.948 411.419 475.606V534.028C411.419 535.356 410.89 536.63 409.949 537.569C409.008 538.508 407.732 539.035 406.401 539.035C405.071 539.032 403.797 538.503 402.857 537.565C401.916 536.627 401.387 535.355 401.383 534.028V475.606C401.383 474.949 401.513 474.297 401.765 473.69C402.017 473.082 402.387 472.53 402.853 472.065C403.319 471.6 403.872 471.231 404.481 470.98C405.09 470.728 405.742 470.598 406.401 470.598Z" fill="#DDE3E9"/>
<path fill-rule="evenodd" clip-rule="evenodd" d="M429.826 457.235C431.156 457.239 432.43 457.767 433.37 458.706C434.31 459.644 434.84 460.916 434.843 462.243V534.027C434.84 535.355 434.31 536.626 433.37 537.565C432.43 538.503 431.156 539.032 429.826 539.035C428.495 539.035 427.219 538.508 426.278 537.569C425.337 536.629 424.808 535.356 424.808 534.027V462.243C424.808 460.915 425.337 459.641 426.278 458.702C427.219 457.763 428.495 457.235 429.826 457.235Z" fill="#DDE3E9"/>
<path fill-rule="evenodd" clip-rule="evenodd" d="M453.237 470.598C454.568 470.598 455.844 471.126 456.785 472.065C457.726 473.004 458.255 474.278 458.255 475.606V534.028C458.252 535.355 457.722 536.627 456.782 537.565C455.841 538.503 454.567 539.032 453.237 539.035C452.579 539.035 451.926 538.906 451.317 538.654C450.708 538.403 450.155 538.034 449.689 537.569C449.223 537.104 448.854 536.552 448.602 535.944C448.35 535.336 448.22 534.685 448.22 534.028V475.606C448.218 474.948 448.347 474.296 448.598 473.688C448.85 473.08 449.219 472.527 449.686 472.061C450.152 471.596 450.706 471.227 451.315 470.976C451.925 470.725 452.578 470.597 453.237 470.598Z" fill="#DDE3E9"/>
<path fill-rule="evenodd" clip-rule="evenodd" d="M476.649 443.885C477.979 443.889 479.253 444.417 480.193 445.356C481.134 446.294 481.663 447.566 481.667 448.893V534.027C481.663 535.355 481.134 536.626 480.193 537.565C479.253 538.503 477.979 539.032 476.649 539.035C475.319 539.032 474.045 538.503 473.105 537.565C472.164 536.626 471.635 535.355 471.631 534.027V448.893C471.635 447.566 472.164 446.294 473.105 445.356C474.045 444.417 475.319 443.889 476.649 443.885Z" fill="#C5CFD6"/>
<path d="M382.99 539.035C381.66 539.032 380.386 538.503 379.446 537.565C378.505 536.626 377.976 535.354 377.972 534.027V502.306" stroke="black" stroke-width="0.5" stroke-miterlimit="10"/>
<path d="M406.401 539.036C405.071 539.032 403.797 538.504 402.857 537.565C401.916 536.627 401.387 535.355 401.383 534.028V475.606" stroke="black" stroke-width="0.5" stroke-miterlimit="10"/>
<path d="M429.826 539.035C428.495 539.035 427.219 538.508 426.278 537.568C425.337 536.629 424.808 535.355 424.808 534.027V462.243" stroke="black" stroke-width="0.5" stroke-miterlimit="10"/>
<path d="M453.237 539.036C452.578 539.036 451.926 538.906 451.317 538.654C450.708 538.403 450.155 538.034 449.689 537.569C449.223 537.104 448.854 536.552 448.602 535.944C448.35 535.337 448.22 534.685 448.22 534.028V475.606" stroke="black" stroke-width="0.5" stroke-miterlimit="10"/>
<path fill-rule="evenodd" clip-rule="evenodd" d="M476.649 443.885C477.979 443.889 479.253 444.417 480.193 445.356C481.134 446.294 481.663 447.566 481.667 448.893V534.027C481.663 535.355 481.134 536.626 480.193 537.565C479.253 538.503 477.979 539.032 476.649 539.035V539.035C475.319 539.032 474.045 538.503 473.105 537.565C472.164 536.626 471.635 535.355 471.631 534.027V448.893C471.635 447.566 472.164 446.294 473.105 445.356C474.045 444.417 475.319 443.889 476.649 443.885V443.885Z" stroke="black" stroke-width="0.5" stroke-miterlimit="10"/>
<path fill-rule="evenodd" clip-rule="evenodd" d="M324.544 509.832C323.021 511.476 321.112 512.716 318.99 513.439C316.867 514.163 314.597 514.347 312.385 513.975C310.172 513.604 308.088 512.688 306.319 511.311C304.551 509.934 303.153 508.139 302.254 506.088C301.355 504.037 300.982 501.794 301.168 499.563C301.355 497.332 302.095 495.183 303.323 493.309C304.551 491.435 306.227 489.896 308.2 488.83C310.173 487.765 312.38 487.207 314.624 487.207V462.244C309.512 462.151 304.434 463.075 299.685 464.963C294.936 466.851 290.611 469.664 286.963 473.239C283.316 476.813 280.419 481.077 278.441 485.782C276.463 490.487 275.444 495.538 275.444 500.64C275.444 505.742 276.463 510.793 278.441 515.497C280.419 520.202 283.316 524.466 286.963 528.041C290.611 531.616 294.936 534.429 299.685 536.317C304.434 538.204 309.512 539.129 314.624 539.036C319.904 539.059 325.133 537.99 329.979 535.897C334.826 533.804 339.186 530.731 342.784 526.874L324.544 509.832Z" fill="#FFBF8A"/>
<path d="M314.624 462.244C308.508 462.273 302.488 463.756 297.061 466.572C291.635 469.387 286.959 473.452 283.421 478.431C279.884 483.41 277.586 489.158 276.719 495.2C275.852 501.242 276.44 507.404 278.435 513.173C280.43 518.943 283.774 524.155 288.191 528.377C292.607 532.6 297.968 535.71 303.83 537.452C309.691 539.193 315.884 539.515 321.895 538.391C327.906 537.267 333.562 534.729 338.394 530.987" stroke="black" stroke-width="0.5" stroke-miterlimit="10"/>
<path fill-rule="evenodd" clip-rule="evenodd" d="M314.418 462.244V487.206C317.99 487.206 321.415 488.622 323.94 491.143C326.466 493.663 327.884 497.082 327.884 500.646H352.883C352.856 490.472 348.795 480.721 341.588 473.526C334.381 466.33 324.613 462.274 314.418 462.244Z" fill="#456682"/>
<path fill-rule="evenodd" clip-rule="evenodd" d="M327.923 500.646C327.923 502.669 327.463 504.666 326.576 506.486C325.689 508.305 324.398 509.899 322.803 511.147L338.163 530.681C342.748 527.125 346.458 522.57 349.009 517.365C351.56 512.16 352.885 506.441 352.883 500.646H327.923Z" fill="#8CA6AD"/>
<path fill-rule="evenodd" clip-rule="evenodd" d="M281.804 343.651H475.369C478.851 343.651 481.667 346.04 481.667 348.978V410.21C481.667 413.148 478.851 415.537 475.369 415.537H281.804C278.336 415.537 275.52 413.148 275.52 410.21V348.978C275.52 346.04 278.336 343.651 281.804 343.651Z" fill="#C5CFD6"/>
<path d="M459.637 390.587C465.724 390.587 470.658 385.663 470.658 379.588C470.658 373.513 465.724 368.588 459.637 368.588C453.55 368.588 448.616 373.513 448.616 379.588C448.616 385.663 453.55 390.587 459.637 390.587Z" fill="#8CA6AD"/>
<path d="M459.637 384.302C462.245 384.302 464.36 382.191 464.36 379.588C464.36 376.984 462.245 374.874 459.637 374.874C457.028 374.874 454.914 376.984 454.914 379.588C454.914 382.191 457.028 384.302 459.637 384.302Z" fill="#C5CFD6"/>
<path d="M421.199 365.944H294.72C291.934 365.944 289.676 368.197 289.676 370.977C289.676 373.757 291.934 376.011 294.72 376.011H421.199C423.984 376.011 426.242 373.757 426.242 370.977C426.242 368.197 423.984 365.944 421.199 365.944Z" fill="#DDE3E9"/>
<path d="M381.608 384.353H294.72C291.934 384.353 289.676 386.606 289.676 389.386C289.676 392.166 291.934 394.42 294.72 394.42H381.608C384.393 394.42 386.651 392.166 386.651 389.386C386.651 386.606 384.393 384.353 381.608 384.353Z" fill="#DDE3E9"/>
<path d="M481.667 410.21C481.667 413.148 478.851 415.537 475.369 415.537H281.804C278.335 415.537 275.519 413.148 275.519 410.21V348.978" stroke="black" stroke-width="0.5" stroke-miterlimit="10"/>
<path fill-rule="evenodd" clip-rule="evenodd" d="M394.37 265.104L586.739 243.621C590.199 243.234 593.262 245.283 593.589 248.216L600.385 309.07C600.711 311.99 598.178 314.677 594.718 315.063L402.349 336.546C398.901 336.931 395.837 334.87 395.511 331.949L388.714 271.083C388.388 268.163 390.923 265.489 394.37 265.104Z" fill="#C5CFD6"/>
<path d="M576.314 292.013C582.364 291.338 586.721 285.896 586.047 279.858C585.372 273.821 579.922 269.475 573.873 270.15C567.824 270.826 563.466 276.268 564.141 282.305C564.815 288.342 570.265 292.689 576.314 292.013Z" fill="#8CA6AD"/>
<path d="M575.617 285.766C578.209 285.477 580.077 283.145 579.788 280.557C579.499 277.97 577.163 276.107 574.571 276.396C571.978 276.686 570.111 279.018 570.4 281.606C570.689 284.193 573.024 286.056 575.617 285.766Z" fill="#C5CFD6"/>
<path d="M535.378 271.788L409.68 285.825C406.912 286.134 404.918 288.625 405.227 291.387C405.535 294.15 408.029 296.139 410.797 295.83L536.495 281.793C539.263 281.483 541.257 278.993 540.949 276.23C540.64 273.468 538.146 271.479 535.378 271.788Z" fill="#DDE3E9"/>
<path d="M498.074 294.478L411.723 304.121C408.955 304.43 406.961 306.92 407.27 309.683C407.578 312.446 410.072 314.435 412.84 314.126L499.192 304.482C501.96 304.173 503.954 301.683 503.645 298.92C503.336 296.157 500.842 294.168 498.074 294.478Z" fill="#DDE3E9"/>
<path d="M600.385 309.07C600.711 311.99 598.178 314.677 594.718 315.063L402.349 336.546C398.901 336.931 395.837 334.87 395.511 331.949L388.714 271.083" stroke="black" stroke-width="0.5" stroke-miterlimit="10"/>
<path d="M590.909 343.168C586.65 340.245 571.426 319.514 571.405 316.613C571.383 313.712 567.428 307.539 564.447 305.193C561.467 302.846 561.199 304.138 561.037 305.331C561.037 305.331 547.262 298.35 557.449 309.708C559.991 312.549 563.883 315.492 565.082 319.539C566.281 323.585 581.92 352.419 590.979 354.269C606.205 357.424 642.009 359.338 650.691 351.929C659.898 344.088 643.38 341.628 637.198 339.93C635.258 340.235 631.633 340.901 629.668 341.158C615.353 343.049 594.133 345.386 590.909 343.168Z" fill="#EAC3B7"/>
<path d="M18.9506 346.295C30.8412 315.934 28.214 320.787 48.6822 319.112C48.8088 318.225 50.2965 308.141 50.9717 303.98C51.7313 299.311 44.0083 290.48 47.0258 280.569C50.0432 270.658 58.1989 272.56 61.7966 273.695C67.1985 275.414 73.5711 283.477 72.5583 290.005C71.5454 296.533 75.1854 303.396 71.5032 307.222C70.0157 308.898 68.2865 310.331 66.3756 311.47L66.9981 321.554C73.7927 323.997 77.8969 321.857 80.3024 324.872C91.3911 338.761 112.186 373.878 119.508 378.503C126.831 383.129 158.071 391.398 166.237 392.77C171.399 393.68 176.463 395.103 181.356 397.018C185.816 401.136 185.734 401.116 183.648 401.808C179.565 402.148 172.42 402.488 168.338 402.829C168.338 402.829 174.773 407.513 173.317 408.821C171.861 410.129 159.052 404.703 156.119 403.579C153.186 402.455 132.718 400.769 115.89 395.148C99.0614 389.528 81.4946 368.03 81.4946 368.03C78.5721 375.899 70.7013 400.153 70.7013 401.277C70.7013 402.401 12.673 396.402 12.673 396.402C12.673 396.402 8.15735 373.834 18.9506 346.295Z" fill="#AF897B"/>
<path d="M2.63923 608.678L4.22182 590.693L21.778 592.379L18.9505 608.905C22.5094 613.045 26.7082 616.557 31.3791 619.302C36.5594 622.242 40.0833 626.425 38.5429 628.1C37.625 629.116 28.7203 629.603 21.1133 625.939C13.5063 622.275 11.2802 619.864 7.53471 618.881C5.59014 618.323 3.71672 617.533 1.95344 616.525C1.53207 616.284 1.20381 615.903 1.02336 615.445C0.842905 614.987 0.821145 614.479 0.961685 614.006L2.63923 608.678Z" fill="#AF897B"/>
<path d="M54.3479 597.426L55.0653 578.706L73.3601 579.452L70.522 597.524C74.109 601.727 78.3517 605.291 83.0772 608.073C88.2576 611.012 91.064 615.541 89.703 617.368C88.342 619.194 79.2684 617.541 71.6615 613.92C64.0545 610.299 62.609 607.738 58.9058 606.732C57.2748 606.274 55.6805 605.689 54.1369 604.981C53.5944 604.734 53.1623 604.286 52.926 603.728C52.6896 603.17 52.6662 602.541 52.8603 601.966L54.3479 597.426Z" fill="#AF897B"/>
<path d="M11.1748 395.375L70.7014 400.92C78.2978 439.268 86.5273 500 81.252 541.785C75.9767 583.57 75.3964 579.355 75.3964 579.355C70.1211 581.3 57.186 580.155 52.9658 578.414C52.9658 578.414 52.9658 537.57 51.9846 513.154" fill="#2F4B62"/>
<path d="M7.53471 618.881C5.59014 618.324 3.71672 617.533 1.95344 616.525C1.53207 616.284 1.20381 615.903 1.02336 615.445C0.842905 614.987 0.821145 614.479 0.961685 614.006L2.57593 608.775C5.41404 609.91 5.93103 613.606 8.81134 615.26C10.5411 616.353 12.6089 616.739 14.6036 616.341C16.8931 615.952 18.7078 612.763 21.5776 611.791C24.4916 614.741 27.773 617.285 31.3369 619.357C36.5172 622.296 40.0411 626.479 38.5008 628.154C37.5829 629.17 28.6781 629.657 21.0711 625.993C13.4642 622.329 11.2802 619.865 7.53471 618.881Z" fill="#2F4B62"/>
<path d="M71.6615 613.909C64.0545 610.299 62.609 607.727 58.9058 606.721C57.2748 606.263 55.6805 605.678 54.1369 604.97C53.5944 604.723 53.1623 604.275 52.926 603.717C52.6896 603.159 52.6662 602.53 52.8603 601.955L54.3057 597.556C58.6947 599.047 58.9796 602.549 60.9209 604.041C63.1788 605.727 66.8926 605.478 66.8926 605.478C68.9291 603.416 71.5382 602.05 74.3624 601.566C77.0091 604.076 79.9341 606.26 83.0772 608.072C88.2576 611.012 91.064 615.541 89.703 617.368C88.342 619.194 79.279 617.53 71.6615 613.909Z" fill="#2F4B62"/>
<path d="M58.9056 606.722C57.2747 606.264 55.6804 605.678 54.1368 604.971C53.6689 604.758 53.2812 604.395 53.032 603.937C52.7827 603.479 52.6854 602.95 52.7546 602.431C53.9584 603.54 55.3396 604.428 56.8377 605.057C59.1858 605.65 61.441 606.578 63.5374 607.813C67.5918 610.302 71.7918 612.533 76.1137 614.493C79.3738 615.833 85.7992 617.443 90.0194 616.6C89.975 616.873 89.8704 617.132 89.7135 617.357C88.3524 619.184 79.2789 617.53 71.6719 613.909C64.0649 610.288 62.6089 607.727 58.9056 606.722Z" fill="#242638"/>
<path d="M14.4032 621.043C17.8587 623.16 21.5136 624.917 25.3125 626.285C28.6887 627.495 33.9007 627.701 38.8911 627.257C38.8932 627.591 38.7683 627.913 38.5429 628.154C37.625 629.17 28.7203 629.657 21.1133 625.993C13.5063 622.329 11.2802 619.865 7.53471 618.881C5.59014 618.324 3.71672 617.533 1.95344 616.525C1.53207 616.284 1.20381 615.903 1.02336 615.445C0.842905 614.987 0.821145 614.479 0.961685 614.006L1.08829 613.596C2.99901 615.011 5.08528 616.16 7.29205 617.011C10.3201 617.93 11.7549 619.238 14.4032 621.043Z" fill="#242638"/>
<path d="M51.0035 399.245C51.0035 399.245 51.0035 444.953 36.5914 522.071C31.6326 548.648 23.4242 594.616 23.4242 594.616C18.1489 595.697 3.93724 594.389 0.265625 591.557C0.265625 591.557 5.14001 547.654 6.59599 511.035C8.05198 474.417 3.90558 459.858 7.56665 431.918C9.77172 415.046 11.1644 395.375 11.1644 395.375L51.0035 399.245Z" fill="#456682"/>
<path d="M65.331 291.669C65.7331 291.669 66.059 291.335 66.059 290.924C66.059 290.512 65.7331 290.178 65.331 290.178C64.929 290.178 64.603 290.512 64.603 290.924C64.603 291.335 64.929 291.669 65.331 291.669Z" fill="black"/>
<path d="M72.0626 291.669C72.2666 291.669 72.4319 291.335 72.4319 290.924C72.4319 290.512 72.2666 290.178 72.0626 290.178C71.8587 290.178 71.6934 290.512 71.6934 290.924C71.6934 291.335 71.8587 291.669 72.0626 291.669Z" fill="black"/>
<path d="M68.7282 287.919C68.3296 287.446 67.8299 287.075 67.268 286.833C66.7062 286.591 66.0974 286.486 65.4891 286.524C64.8843 286.541 64.2874 286.669 63.7272 286.903C63.1605 287.126 62.6617 287.499 62.2817 287.984C63.5056 287.984 64.4974 287.984 65.5208 287.908C66.5442 287.832 67.4515 287.94 68.7282 287.919Z" fill="black"/>
<path d="M70.8384 287.875C71.2194 287.392 71.7178 287.019 72.2838 286.795L72.5476 286.719C72.6348 287.097 72.7017 287.479 72.748 287.865C72.1256 287.865 71.5136 287.886 70.8384 287.875Z" fill="black"/>
<path d="M70.9438 300.143C70.9438 299.484 71.6613 299.981 72.5792 299.927C72.7302 299.938 72.8818 299.938 73.0329 299.927C73.1384 300.37 73.0329 300.759 73.1384 301.159C72.9873 301.206 72.8316 301.235 72.6742 301.245C71.7563 301.289 70.9861 300.802 70.9438 300.143Z" fill="black"/>
<path d="M69.1823 279.305C69.6043 278.397 71.2924 275.176 68.697 272.82C65.0148 269.501 59.001 270.755 52.0481 273.382C46.9627 275.295 40.8328 280.948 40.7062 286.676C40.5269 295.106 46.3191 299.981 50.2967 303.71C50.6027 303.991 51.3518 304.434 51.6472 304.121C52.5651 303.04 53.8523 298.284 54.3376 296.133L57.5977 296.479C56.7793 293.512 56.2666 290.466 56.0679 287.389C56.0679 283.898 57.8826 280.159 61.2272 279.445C63.8611 279.037 66.5362 278.99 69.1823 279.305Z" fill="black"/>
<g style="mix-blend-mode:multiply">
<path d="M70.9438 296.187L72.8007 298.187L72.5475 295.863L70.9438 296.187Z" fill="#AF897B"/>
</g>
<path d="M18.9509 346.295C30.5566 316.561 29.9446 319.901 46.7307 319.328C48.5454 323.651 64.6667 324.105 66.9878 321.598C72.9173 322.678 75.4283 319.382 80.2922 324.916C90.8428 336.989 110.446 369.327 117.219 376.709C114.952 378.015 113.115 379.983 111.944 382.362C110.258 385.388 109.368 388.811 109.359 392.295C94.8098 384.34 81.4949 368.03 81.4949 368.03C78.5724 375.899 70.7016 400.153 70.7016 401.277C70.7016 401.839 55.7198 404.519 41.2338 403.114C26.7478 401.709 9.89848 396.121 9.89848 396.121C9.89848 396.121 8.15763 373.834 18.9509 346.295Z" fill="#FFBF8A"/>
<path d="M81.4949 368.031C78.5724 375.899 70.7016 400.153 70.7016 401.277C70.7016 401.839 58.1253 405.222 41.2337 403.114C26.7794 401.309 9.89844 396.121 9.89844 396.121" stroke="black" stroke-width="0.5" stroke-miterlimit="10"/>
<path d="M117.261 376.709C114.994 378.015 113.157 379.983 111.986 382.362C110.301 385.388 109.41 388.811 109.401 392.295C94.8097 384.34 81.4949 368.03 81.4949 368.03C81.4949 368.03 77.3274 362.626 73.3604 357.222" stroke="black" stroke-width="0.5" stroke-miterlimit="10"/>
<path d="M33.1412 320.441C24.0782 325.089 8.37889 361.902 3.98984 384.481C2.46 392.295 19.6469 412.139 34.038 420.645C47.9542 428.87 55.9833 429.984 61.4696 431.129C66.9559 432.275 75.8923 431.659 77.0106 430.621L78.129 429.595C78.129 429.595 80.0281 428.33 79.8065 427.638C79.6736 427.237 79.4966 426.853 79.279 426.493C79.279 426.493 80.5662 426.212 80.3341 425.866C79.6777 425.484 78.965 425.214 78.224 425.066C78.224 425.066 80.1864 425.066 79.9015 424.32C79.6166 423.574 74.4785 423.92 72.1362 423.628C73.1843 423.462 74.2017 423.134 75.1537 422.656C76.1033 422.029 75.8184 421.164 75.6602 421.056C74.3502 421.313 73.0146 421.408 71.6826 421.337C69.7835 421.056 67.2091 421.564 65.2573 421.629C63.3054 421.694 24.9856 397.786 21.4089 388.123C21.1029 379.303 32.371 361.307 37.2876 353.742C42.2042 346.176 44.8946 337.929 42.2147 331.282C39.5349 324.635 33.1412 320.441 33.1412 320.441Z" fill="#AF897B"/>
<path d="M3.72601 382.265C6.41642 359.405 25.9878 322.365 33.1411 320.441C33.1411 320.441 39.5348 324.624 42.2252 331.25C44.9156 337.875 42.2252 346.143 37.2981 353.709C32.371 361.275 21.1451 379.228 21.4194 388.047C15.5955 388.047 9.66601 390.306 6.44807 393.235C4.63337 388.663 3.01912 388.296 3.72601 382.265Z" fill="#FFBF8A"/>
<path d="M42.2254 331.271C44.9052 337.918 42.2254 346.165 37.2983 353.731C32.3711 361.297 21.1453 379.249 21.4196 388.069C15.5956 388.069 9.66618 390.328 6.44824 393.257" stroke="black" stroke-width="0.5" stroke-miterlimit="10"/>
</svg>
