<?xml version="1.0" standalone="no"?>
<!DOCTYPE svg PUBLIC "-//W3C//DTD SVG 1.1//EN" "http://www.w3.org/Graphics/SVG/1.1/DTD/svg11.dtd" >
<svg xmlns="http://www.w3.org/2000/svg">
<metadata>Generated by IcoMoon</metadata>
<defs>
<font id="sgds-icons" horiz-adv-x="1024">
<font-face units-per-em="1024" ascent="860.16" descent="-163.84" />
<missing-glyph horiz-adv-x="1024" />
<glyph unicode="&#x20;" horiz-adv-x="512" d="" />
<glyph unicode="&#xe900;" glyph-name="add-photo" d="M832 565.333h-76.373l-20.48 57.173c-27.733 76.8-49.92 113.493-101.12 113.493h-207.36v-85.333h203.52c9.926-18.139 18.208-37.131 24.747-56.747l9.813-28.587h-110.080v-85.333h277.333c11.782 0 21.333-9.551 21.333-21.333v-384c0-11.782-9.551-21.333-21.333-21.333h-640c-11.782 0-21.333 9.551-21.333 21.333v234.667h-85.333v-234.667c0-58.91 47.756-106.667 106.667-106.667h640c58.91 0 106.667 47.756 106.667 106.667v384c0 58.91-47.756 106.667-106.667 106.667zM341.333 266.667c0-94.257 76.41-170.667 170.667-170.667s170.667 76.41 170.667 170.667c0 94.257-76.41 170.667-170.667 170.667s-170.667-76.41-170.667-170.667zM512 352c47.128 0 85.333-38.205 85.333-85.333s-38.205-85.333-85.333-85.333c-47.128 0-85.333 38.205-85.333 85.333s38.205 85.333 85.333 85.333zM213.333 352h85.333v128h128v85.333h-128v128h-85.333v-128h-128v-85.333h128z" />
<glyph unicode="&#xe901;" glyph-name="browser" d="M853.333 693.333h-682.667c-47.128 0-85.333-38.205-85.333-85.333v-512c0-47.128 38.205-85.333 85.333-85.333h682.667c47.128 0 85.333 38.205 85.333 85.333v512c0 47.128-38.205 85.333-85.333 85.333zM371.627 595.627c14.447-14.33 16.764-36.867 5.536-53.837s-32.878-23.649-51.716-15.955c-18.838 7.694-29.62 27.62-25.757 47.598s21.296 34.449 41.644 34.566c11.341 0.066 22.241-4.387 30.293-12.373zM170.667 608v-42.667c0 23.564 19.103 42.667 42.667 42.667s42.667-19.103 42.667-42.667c0-23.564-19.103-42.667-42.667-42.667s-42.667 19.103-42.667 42.667v-42.667 85.333zM853.333 96h-682.667v341.333h682.667v-341.333zM426.667 522.667v85.333h426.667v-85.333h-426.667z" />
<glyph unicode="&#xe902;" glyph-name="calculator" d="M768 778.667h-512c-47.128 0-85.333-38.205-85.333-85.333v-682.667c0-47.128 38.205-85.333 85.333-85.333h512c47.128 0 85.333 38.205 85.333 85.333v682.667c0 47.128-38.205 85.333-85.333 85.333zM256 10.667v682.667h512v-682.667h-512zM298.667 437.333h426.667v213.333h-426.667v-213.333zM384 565.333h256v-42.667h-256v42.667zM341.333 394.667h85.333v-85.333h-85.333v85.333zM469.333 394.667h85.333v-85.333h-85.333v85.333zM597.333 394.667h85.333v-85.333h-85.333v85.333zM341.333 266.667h85.333v-85.333h-85.333v85.333zM469.333 266.667h85.333v-85.333h-85.333v85.333zM341.333 138.667h85.333v-85.333h-85.333v85.333zM469.333 138.667h85.333v-85.333h-85.333v85.333zM597.333 181.333v-128h85.333v213.333h-85.333z" />
<glyph unicode="&#xe903;" glyph-name="camera" d="M832 565.333h-76.8l-20.053 57.173c-27.733 76.8-49.92 113.493-101.12 113.493h-244.053c-51.2 0-73.387-36.693-101.12-113.493l-20.053-57.173h-76.8c-58.91 0-106.667-47.756-106.667-106.667v-384c0-58.91 47.756-106.667 106.667-106.667h640c58.91 0 106.667 47.756 106.667 106.667v384c0 58.91-47.756 106.667-106.667 106.667zM369.493 593.493c6.23 19.802 14.376 38.951 24.32 57.173h236.373c9.944-18.223 18.090-37.371 24.32-57.173l10.24-28.16h-305.493l10.24 28.16zM853.333 74.667c0-11.782-9.551-21.333-21.333-21.333h-640c-11.782 0-21.333 9.551-21.333 21.333v384c0 11.782 9.551 21.333 21.333 21.333h640c11.782 0 21.333-9.551 21.333-21.333v-384zM512 437.333c-94.257 0-170.667-76.41-170.667-170.667s76.41-170.667 170.667-170.667c94.257 0 170.667 76.41 170.667 170.667 0 45.264-17.981 88.673-49.987 120.68s-75.416 49.987-120.68 49.987zM512 181.333c-47.128 0-85.333 38.205-85.333 85.333s38.205 85.333 85.333 85.333c47.128 0 85.333-38.205 85.333-85.333s-38.205-85.333-85.333-85.333z" />
<glyph unicode="&#xe904;" glyph-name="clock" d="M512 778.667c-235.641 0-426.667-191.025-426.667-426.667s191.025-426.667 426.667-426.667c235.641 0 426.667 191.025 426.667 426.667 0 113.159-44.952 221.683-124.968 301.699s-188.54 124.968-301.699 124.968zM512 10.667c-188.513 0-341.333 152.82-341.333 341.333s152.82 341.333 341.333 341.333c188.513 0 341.333-152.82 341.333-341.333 0-90.527-35.962-177.347-99.974-241.359s-150.832-99.974-241.359-99.974zM554.667 608h-85.333v-299.093l184.747-106.667 42.667 74.24-142.080 81.92z" />
<glyph unicode="&#xe905;" glyph-name="cloud-download" d="M789.333 382.293c-13.682 134.81-119.361 241.919-253.975 257.412s-261.862-64.808-305.812-192.986c-98.842-16.19-168.94-105.205-161.504-205.087s89.942-177.537 190.091-178.913h488.533c75.512-2.291 143.185 46.322 165.12 118.613 11.648 42.951 5.13 88.801-18.027 126.804s-60.916 64.817-104.427 74.156zM305.92 442.88c41.576 93.072 142.585 144.382 242.267 123.066s170.872-109.45 170.747-211.386c0-8.107 0-23.467 0-23.467 24.023-5.312 47.569-12.589 70.4-21.76 23.133-9.012 41.517-27.176 50.807-50.198s8.66-48.859-1.74-71.402c-15.953-32.368-49.259-52.518-85.333-51.627h-494.933c-32.172-0.114-63.059 12.616-85.808 35.365s-35.479 53.636-35.365 85.808c0 66.56 34.56 122.88 148.907 135.253 5.145 17.355 11.857 34.207 20.053 50.347zM592.213 352.427l-75.947-75.52v203.093h-51.2v-203.093l-75.947 75.52-43.093-43.52 144.64-144.64 144.64 144.64z" />
<glyph unicode="&#xe906;" glyph-name="cloud-success" d="M789.333 382.72c-13.682 134.81-119.361 241.919-253.975 257.412s-261.862-64.808-305.812-192.986c-98.842-16.19-168.94-105.205-161.504-205.087s89.942-177.537 190.091-178.913h488.533c75.439-2.495 143.154 45.973 165.12 118.187 11.654 43.004 5.146 88.906-18.003 126.976s-60.908 64.969-104.451 74.411zM305.92 443.307c41.608 93.146 142.736 144.455 242.476 123.023s170.865-109.754 170.537-211.77c0-7.68 0-23.040 0-23.040 24.055-5.379 47.608-12.801 70.4-22.187 23.133-9.012 41.517-27.176 50.807-50.198s8.66-48.859-1.74-71.402c-15.994-32.277-49.327-52.277-85.333-51.2h-494.933c-32.098-0.113-62.92 12.558-85.657 35.215s-35.517 53.434-35.517 85.532c0 66.987 34.56 123.307 148.907 135.68 5.225 17.327 11.934 34.172 20.053 50.347zM391.028 192.936l-0.165-0.165-97.147 97.147 52.797 52.797 74.307-74.307 187.822 187.822 52.797-52.797-240.454-240.454-29.957 29.957z" />
<glyph unicode="&#xe907;" glyph-name="cloud-upload" d="M789.333 382.293c-13.682 134.81-119.361 241.919-253.975 257.412s-261.862-64.808-305.812-192.986c-98.842-16.19-168.94-105.205-161.504-205.087s89.942-177.537 190.091-178.913h488.533c75.512-2.291 143.185 46.322 165.12 118.613 11.648 42.951 5.13 88.801-18.027 126.804s-60.916 64.817-104.427 74.156zM305.92 442.88c41.576 93.072 142.585 144.382 242.267 123.066s170.872-109.45 170.747-211.386c0-8.107 0-23.467 0-23.467 24.023-5.312 47.569-12.589 70.4-21.76 23.133-9.012 41.517-27.176 50.807-50.198s8.66-48.859-1.74-71.402c-15.953-32.368-49.259-52.518-85.333-51.627h-494.933c-32.172-0.114-63.059 12.616-85.808 35.365s-35.479 53.636-35.365 85.808c0 66.56 34.56 122.88 148.907 135.253 5.145 17.355 11.857 34.207 20.053 50.347zM389.12 313.173l75.947 75.52v-203.093h51.2v203.093l75.947-75.52 43.093 43.52-144.64 144.64-144.64-144.64z" />
<glyph unicode="&#xe908;" glyph-name="database" d="M512 778.667c-341.333 0-341.333-128-341.333-128v-597.333c0 0 0-128 341.333-128s341.333 128 341.333 128v597.333c0 0 0 128-341.333 128zM512 693.333c194.56 0 245.76-42.667 256-54.613v-2.56c-7.253-8.533-52.48-49.493-256-49.493s-248.32 42.667-256 50.347c10.24 13.653 61.44 56.32 256 56.32zM256 357.547c82.021-29.282 169.025-42.043 256-37.547 86.873-4.52 173.801 7.794 256 36.267v-118.613c-21.76-16.64-85.333-45.653-256-45.653s-234.24 29.44-256 46.933v118.613zM768 429.653c-21.76-16.64-85.333-45.653-256-45.653s-234.24 29.44-256 46.933v106.667c82.323-27.955 169.151-40.256 256-36.267 86.788-4.114 173.588 7.894 256 35.413v-107.093zM512 10.667c-194.56 0-245.76 42.667-256 54.613v100.267c82.021-29.282 169.025-42.043 256-37.547 86.903-4.437 173.842 8.024 256 36.693v-99.413c-10.24-11.947-61.44-54.613-256-54.613zM384 85.333c0-23.564-19.103-42.667-42.667-42.667s-42.667 19.103-42.667 42.667c0 23.564 19.103 42.667 42.667 42.667s42.667-19.103 42.667-42.667zM384 266.667c0-23.564-19.103-42.667-42.667-42.667s-42.667 19.103-42.667 42.667c0 23.564 19.103 42.667 42.667 42.667s42.667-19.103 42.667-42.667zM384 458.667c0-23.564-19.103-42.667-42.667-42.667s-42.667 19.103-42.667 42.667c0 23.564 19.103 42.667 42.667 42.667s42.667-19.103 42.667-42.667z" />
<glyph unicode="&#xe909;" glyph-name="download" d="M469.333 302.601v433.399h85.333v-434.306l153.094 153.094 60.34-60.34-195.307-195.307 0.172-0.172-60.34-60.34-256.444 256.444 60.34 60.34 152.813-152.813zM853.333 53.333v-85.333h-682.667v85.333h682.667z" />
<glyph unicode="&#xe90a;" glyph-name="file-add" d="M516.267 655.787l-36.267 37.547h-336.213c-10.033-0.111-19.605-4.234-26.579-11.449s-10.77-16.92-10.541-26.951v-691.2c-0.229-10.031 3.567-19.737 10.541-26.951s16.545-11.337 26.579-11.449h523.093c10.033 0.111 19.605 4.234 26.579 11.449s10.77 16.92 10.541 26.951v501.333l-187.733 190.72zM582.827 465.067h-66.56v68.267l66.56-68.267zM618.667 10.667h-426.667v597.333h249.6v-145.067c0-41.237 33.429-74.667 74.667-74.667h102.4v-377.6zM917.333 663.467h-115.2v115.2h-68.267v-115.2h-115.2v-68.267h115.2v-115.2h68.267v115.2h115.2z" />
<glyph unicode="&#xe90b;" glyph-name="file-alt" d="M597.333 778.667h-384c-23.564 0-42.667-19.103-42.667-42.667v-768c0-23.564 19.103-42.667 42.667-42.667h597.333c23.564 0 42.667 19.103 42.667 42.667v554.667l-256 256zM732.587 522.667h-92.587v92.587l92.587-92.587zM768 10.667h-512v682.667h298.667v-170.667c0-47.128 38.205-85.333 85.333-85.333h128v-426.667zM341.333 352h341.333v-85.333h-341.333v85.333zM341.333 181.333h341.333v-85.333h-341.333v85.333z" />
<glyph unicode="&#xe90c;" glyph-name="file" d="M597.333 778.667h-384c-23.564 0-42.667-19.103-42.667-42.667v-768c0-23.564 19.103-42.667 42.667-42.667h597.333c23.564 0 42.667 19.103 42.667 42.667v554.667l-256 256zM732.587 522.667h-92.587v92.587l92.587-92.587zM768 10.667h-512v682.667h298.667v-170.667c0-47.128 38.205-85.333 85.333-85.333h128v-426.667z" />
<glyph unicode="&#xe90d;" glyph-name="hdd" d="M927.573 392.96l-134.827 193.707c-15.304 26.507-43.632 42.788-74.24 42.667h-413.013c-30.608 0.122-58.936-16.159-74.24-42.667l-134.827-193.707c-7.371-13.005-11.197-27.718-11.093-42.667v-190.293c0-47.128 38.205-85.333 85.333-85.333h682.667c47.128 0 85.333 38.205 85.333 85.333v190.72c0.029 14.804-3.794 29.361-11.093 42.24zM301.227 538.027l2.56 2.987v3.413h413.013v-3.413l2.56-2.987 85.333-122.027h-587.947l84.48 122.027zM853.333 160h-682.667v170.667h682.667v-170.667zM810.667 245.333c0-23.564-19.103-42.667-42.667-42.667s-42.667 19.103-42.667 42.667c0 23.564 19.103 42.667 42.667 42.667s42.667-19.103 42.667-42.667zM682.667 245.333c0-23.564-19.103-42.667-42.667-42.667s-42.667 19.103-42.667 42.667c0 23.564 19.103 42.667 42.667 42.667s42.667-19.103 42.667-42.667z" />
<glyph unicode="&#xe90e;" glyph-name="image" d="M853.333 693.333h-682.667c-47.128 0-85.333-38.205-85.333-85.333v-512c0-47.128 38.205-85.333 85.333-85.333h682.667c47.128 0 85.333 38.205 85.333 85.333v512c0 47.128-38.205 85.333-85.333 85.333zM170.667 96l170.667 170.667 170.667-170.667h-341.333zM853.333 96h-256l-128 128 213.333 213.333 170.667-170.667v-170.667zM853.333 352l-170.667 170.667-256-256-85.333 85.333-170.667-170.667v426.667h682.667v-256zM341.333 373.333c58.91 0 106.667 47.756 106.667 106.667s-47.756 106.667-106.667 106.667c-58.91 0-106.667-47.756-106.667-106.667s47.756-106.667 106.667-106.667zM341.333 533.333c29.455 0 53.333-23.878 53.333-53.333s-23.878-53.333-53.333-53.333c-29.455 0-53.333 23.878-53.333 53.333s23.878 53.333 53.333 53.333z" />
<glyph unicode="&#xe90f;" glyph-name="link" d="M481.83 623.529l30.17 30.17c83.312 83.312 218.387 83.312 301.699 0s83.312-218.387 0-301.699l-90.51-90.51c-83.312-83.312-218.387-83.312-301.699 0-16.662 16.662-16.662 43.677 0 60.34s43.677 16.662 60.34 0c49.987-49.987 131.032-49.987 181.019 0l90.51 90.51c49.987 49.987 49.987 131.032 0 181.019s-131.032 49.987-181.019 0l-30.17-30.17c-16.662-16.662-43.677-16.662-60.34 0s-16.662 43.677 0 60.34zM602.51 442.51c16.662-16.662 16.662-43.677 0-60.34s-43.677-16.662-60.34 0c-49.987 49.987-131.032 49.987-181.019 0l-90.51-90.51c-49.987-49.987-49.987-131.032 0-181.019s131.032-49.987 181.019 0l30.17 30.17c16.662 16.662 43.677 16.662 60.34 0s16.662-43.677 0-60.34l-30.17-30.17c-83.312-83.312-218.387-83.312-301.699 0s-83.312 218.387 0 301.699l90.51 90.51c83.312 83.312 218.387 83.312 301.699 0z" />
<glyph unicode="&#xe910;" glyph-name="lock" d="M810.667 501.333h-85.333v53.333c-3.025 114.84-98.489 205.531-213.333 202.667-114.844 2.865-210.309-87.827-213.333-202.667v-53.333h-85.333c-47.128 0-85.333-38.205-85.333-85.333v-426.667c0-47.128 38.205-85.333 85.333-85.333h597.333c47.128 0 85.333 38.205 85.333 85.333v426.667c0 47.128-38.205 85.333-85.333 85.333zM384 554.667c3.227 67.615 60.36 119.987 128 117.333 67.64 2.653 124.773-49.718 128-117.333v-53.333h-256v53.333zM810.667-10.667h-597.333v426.667h597.333v-426.667zM469.333 171.947v-97.28h85.333v97.28c33.448 19.311 49.755 58.68 39.759 95.987s-43.803 63.247-82.426 63.247c-38.622 0-72.429-25.941-82.426-63.247s6.311-76.676 39.759-95.987z" />
<glyph unicode="&#xe911;" glyph-name="mail" d="M810.667 650.667h-597.333c-47.128 0-85.333-38.205-85.333-85.333v-426.667c0-47.128 38.205-85.333 85.333-85.333h597.333c47.128 0 85.333 38.205 85.333 85.333v426.667c0 47.128-38.205 85.333-85.333 85.333zM512 407.467l-273.067 157.867h546.56l-273.493-157.867zM213.333 138.667v341.333l276.907-160c6.461-3.835 13.82-5.895 21.333-5.973 8.334 0.25 16.445 2.757 23.467 7.253l275.627 158.72v-341.333h-597.333z" />
<glyph unicode="&#xe912;" glyph-name="print" d="M853.333 608h-85.333v170.667h-512v-170.667h-85.333c-47.128 0-85.333-38.205-85.333-85.333v-341.333c0-47.128 38.205-85.333 85.333-85.333h85.333v-170.667h512v170.667h85.333c47.128 0 85.333 38.205 85.333 85.333v341.333c0 47.128-38.205 85.333-85.333 85.333zM341.333 693.333h341.333v-85.333h-341.333v85.333zM682.667 10.667h-341.333v256h341.333v-256zM853.333 181.333h-85.333v170.667h-512v-170.667h-85.333v341.333h682.667v-341.333zM725.333 437.333c0-23.564 19.103-42.667 42.667-42.667s42.667 19.103 42.667 42.667c0 23.564-19.103 42.667-42.667 42.667s-42.667-19.103-42.667-42.667zM384 224h256v-42.667h-256v42.667zM384 138.667h170.667v-42.667h-170.667v42.667z" />
<glyph unicode="&#xe913;" glyph-name="radar" d="M911.36 549.12l-64-64c45.929-107.26 33.351-230.616-33.28-326.4-4.684 0.422-9.396 0.422-14.080 0-47.128 0-85.333-38.205-85.333-85.333-0.228-3.694-0.228-7.399 0-11.093-154.363-97.218-357.884-55.874-462.080 93.867 8.697 13.476 13.293 29.188 13.227 45.227 0.831 41.196-27.893 77.101-68.267 85.333-3.989 21.525-5.847 43.391-5.547 65.28 0.093 114.43 57.52 221.2 152.942 284.357s216.143 74.297 321.512 29.67c27.242-11.396 52.795-26.469 75.947-44.8l-61.013-60.587c-24.685 17.777-52.465 30.799-81.92 38.4-21.52 6.049-43.779 9.065-66.133 8.96-21.617 0.008-43.14-2.862-64-8.533-15.071 12.29-33.887 19.064-53.333 19.2-47.128 0-85.333-38.205-85.333-85.333-0.085-7.221 0.922-14.413 2.987-21.333-36.593-45.281-56.481-101.781-56.32-160 0-141.385 114.615-256 256-256s256 114.615 256 256c0.105 22.354-2.911 44.613-8.96 66.133l-76.373-76.8c-5.64-90.067-80.423-160.176-170.667-160-30.075 0.147-59.555 8.401-85.333 23.893-41.274 24.118-70.541 64.442-80.679 111.159s-0.218 95.544 27.346 134.601c6.92-2.064 14.112-3.071 21.333-2.987 42.136-0.577 78.384 29.69 85.333 71.253 7.042 1.536 14.164 2.676 21.333 3.413h10.667c30.075-0.147 59.555-8.401 85.333-23.893l-64.853-64.427c-6.688 1.787-13.561 2.789-20.48 2.987-47.128 0-85.333-38.205-85.333-85.333s38.205-85.333 85.333-85.333c47.128 0 85.333 38.205 85.333 85.333-0.095 7.349-1.098 14.657-2.987 21.76l90.453 90.88 35.84 35.413 218.027 220.16-58.453 58.453-98.133-98.133c-22.565 18.459-47.022 34.477-72.96 47.787-60.585 32.689-128.279 49.979-197.12 50.347-235.641 0-426.667-191.025-426.667-426.667-0.084-31.431 3.35-62.773 10.24-93.44-13.469-15.508-20.892-35.353-20.907-55.893-0.057-45.511 35.612-83.058 81.067-85.333 129.622-196.732 394.166-251.168 590.933-121.6 10.123-4.28 21.010-6.458 32-6.4 47.128 0 85.333 38.205 85.333 85.333 0.070 9.902-1.665 19.734-5.12 29.013 93.451 130.762 105.49 302.945 31.147 445.44zM373.333 533.333c-0.019 8.51 2.507 16.83 7.253 23.893 6.265 9.266 15.918 15.701 26.88 17.92h8.107c23.564 0 42.667-19.103 42.667-42.667s-19.103-42.667-42.667-42.667c-23.564 0-42.667 19.103-42.667 42.667l0.427 0.853zM138.667 202.667c0 23.564 19.103 42.667 42.667 42.667 13.505-0.1 26.165-6.589 34.133-17.493 4.26-5.256 6.925-11.623 7.68-18.347 0.448-2.253 0.448-4.573 0-6.827 0-23.564-19.103-42.667-42.667-42.667s-42.667 19.103-42.667 42.667h0.853zM834.987 50.347c-3.395-4.824-7.753-8.892-12.8-11.947-6.598-4.286-14.32-6.513-22.187-6.4-23.564 0-42.667 19.103-42.667 42.667s19.103 42.667 42.667 42.667c23.564 0 42.667-19.103 42.667-42.667 0.019-8.51-2.507-16.83-7.253-23.893l-0.427-0.427z" />
<glyph unicode="&#xe914;" glyph-name="save" d="M742.827 778.667h-572.16c-47.128 0-85.333-38.205-85.333-85.333v-682.667c0-47.128 38.205-85.333 85.333-85.333h682.667c47.128 0 85.333 38.205 85.333 85.333v572.16l-195.84 195.84zM469.333 693.333v-128h-128v128h128zM853.333 10.667h-682.667v682.667h85.333v-213.333h384v213.333h67.84l145.493-145.493v-537.173zM256 53.333h512v341.333h-512v-341.333zM341.333 309.333h341.333v-170.667h-341.333v170.667z" />
<glyph unicode="&#xe915;" glyph-name="share" d="M746.667 245.333c-44.595-0.125-86.757-20.344-114.773-55.040l-209.92 104.96c6.25 23.195 6.25 47.631 0 70.827l209.92 104.96c46.289-55.371 125.689-69.438 188.184-33.34s89.981 111.906 65.145 179.669c-24.836 67.763-94.801 107.853-165.821 95.016s-122.524-74.882-122.067-147.052c-0.42-5.111-0.42-10.249 0-15.36l-218.88-110.080c-27.373 25.753-63.537 40.097-101.12 40.107-82.475 0-149.333-66.859-149.333-149.333s66.859-149.333 149.333-149.333c37.583 0.010 73.747 14.354 101.12 40.107l218.88-110.080c-0.42-5.111-0.42-10.249 0-15.36 0-82.475 66.859-149.333 149.333-149.333s149.333 66.859 149.333 149.333c0 82.475-66.859 149.333-149.333 149.333zM746.667 629.333c35.346 0 64-28.654 64-64s-28.654-64-64-64c-35.346 0-64 28.654-64 64s28.654 64 64 64zM213.333 330.667c0 35.346 28.654 64 64 64s64-28.654 64-64c0-35.346-28.654-64-64-64s-64 28.654-64 64zM746.667 32c-35.346 0-64 28.654-64 64s28.654 64 64 64c35.346 0 64-28.654 64-64s-28.654-64-64-64z" />
<glyph unicode="&#xe916;" glyph-name="unlock" d="M810.667 501.333h-426.667c0 67.413 5.12 112.213 48.64 144.64 34.113 24.774 77.897 32.045 118.187 19.627 39.128-9.884 70.976-38.23 85.333-75.947l80.213 29.867c-23.676 62.469-75.618 109.977-139.947 128-66.663 20.638-139.164 8.449-195.413-32.853-77.227-58.453-82.347-139.093-82.347-213.333h-85.333c-47.128 0-85.333-38.205-85.333-85.333v-426.667c0-47.128 38.205-85.333 85.333-85.333h597.333c47.128 0 85.333 38.205 85.333 85.333v426.667c0 47.128-38.205 85.333-85.333 85.333zM810.667-10.667h-597.333v426.667h597.333v-426.667zM469.333 171.947v-97.28h85.333v97.28c33.448 19.311 49.755 58.68 39.759 95.987s-43.803 63.247-82.426 63.247c-38.622 0-72.429-25.941-82.426-63.247s6.311-76.676 39.759-95.987z" />
<glyph unicode="&#xe917;" glyph-name="upload" d="M469.333 550.733l-153.148-153.148-60.34 60.34 256.807 256.836 255.539-255.539-60.34-60.34-153.185 153.185v-434.732h-85.333v433.399zM853.333 32v-85.333h-682.667v85.333h682.667z" />
<glyph unicode="&#xe918;" glyph-name="volume-mute" d="M679.253 669.867c-39.716 15.476-81.962 23.433-124.587 23.467v-85.333c18.958 0.054 37.858-2.094 56.32-6.4l68.267 68.267zM781.653 471.040c41.709-79.409 38.815-174.856-7.628-251.593s-129.661-123.569-219.358-123.447v-85.333c124.191-0.035 238.601 67.385 298.74 176.044s56.516 241.407-9.46 346.623l-62.293-62.293zM581.973 271.36l-27.307-27.307v-62.72c94.257 0 170.667 76.41 170.667 170.667 0.076 18.298-2.953 36.476-8.96 53.76l-81.067-81.067c-8.53-25.096-28.237-44.804-53.333-53.333zM356.267 33.28c12.104-14.557 30.136-22.867 49.067-22.613 35.346 0 64 28.654 64 64 0 2.133 0 3.84 0 5.973s0 4.267 0 6.827v71.253l-118.187-118.187 5.12-7.253zM213.333 224l8.533-11.52 61.013 61.013-26.88 35.84h-85.333v85.333h85.333l128 170.667v-190.293l85.333 85.333v170.667c0 0 0 0 0 0-0.7 34.776-29.217 62.534-64 62.293-18.852 0.020-36.713-8.44-48.64-23.040l-143.36-190.293h-85.333c-23.564 0-42.667-19.103-42.667-42.667v-170.667c0-23.564 19.103-42.667 42.667-42.667h85.333zM683.52 463.36l220.587 220.587-60.16 60.16-724.053-724.053 60.16-60.16 442.88 442.88z" />
<glyph unicode="&#xe919;" glyph-name="volume" d="M576 693.333v-85.333c141.385 0 256-114.615 256-256s-114.615-256-256-256v-85.333c188.513 0 341.333 152.82 341.333 341.333s-152.82 341.333-341.333 341.333zM746.667 352c0 94.257-76.41 170.667-170.667 170.667v-85.333c47.128 0 85.333-38.205 85.333-85.333s-38.205-85.333-85.333-85.333v-85.333c94.257 0 170.667 76.41 170.667 170.667zM426.667 693.333c-18.852 0.020-36.713-8.44-48.64-23.040l-143.36-190.293h-85.333c-23.564 0-42.667-19.103-42.667-42.667v-170.667c0-23.564 19.103-42.667 42.667-42.667h85.333l142.933-190.72c12.104-14.557 30.136-22.867 49.067-22.613 35.346 0 64 28.654 64 64 0 2.133 0 3.84 0 5.973s0 4.267 0 6.827v543.573c0 0 0 0 0 0-0.7 34.776-29.217 62.534-64 62.293zM405.333 138.667l-128 170.667h-85.333v85.333h85.333l128 170.667v-426.667z" />
<glyph unicode="&#xe91a;" glyph-name="docker" d="M551.68 378.453h-87.893v78.933h87.893v-78.933zM551.68 650.667h-87.893v-81.067h87.893v81.067zM656.213 457.813h-88.32v-79.36h88.32v79.36zM447.573 553.813h-87.893v-80.213h87.893v80.213zM551.68 553.813h-87.893v-80.213h87.893v80.213zM920.747 420.267c-30.291 14.385-64.467 18.432-97.28 11.52-5.694 34.745-25.448 65.611-54.613 85.333l-18.773 12.373-12.373-18.773c-27.018-41.626-28.984-94.729-5.12-138.24-19.904-10.205-42.070-15.196-64.427-14.507h-579.413c-11.525-76.97 9.67-155.252 58.453-215.893 56.224-61.564 137.393-94.219 220.587-88.747 209.92 0 365.227 96.427 437.76 272.213 48.914-6.051 96.733 17.607 121.6 60.16 2.133 3.413 8.96 17.493 11.52 23.040l-17.92 11.52zM238.080 457.813h-86.613v-79.36h88.32v79.36h-1.707zM342.187 457.813h-86.187v-79.36h87.467l-1.28 79.36zM446.293 457.813h-86.613v-79.36h87.893l-1.28 79.36zM343.467 553.813h-87.467v-80.213h87.467v80.213z" />
<glyph unicode="&#xe91b;" glyph-name="facebook-alt" d="M438.613-10.667v315.307h-110.507v130.987h110.507v103.68c-4.75 46.782 11.601 93.246 44.603 126.742s79.217 50.538 126.064 46.485c33.776 0.201 67.537-1.509 101.12-5.12v-117.333h-70.4c-54.187 0-64.853-26.027-64.853-64v-90.453h122.88l-15.36-130.987h-108.373v-315.307z" />
<glyph unicode="&#xe91c;" glyph-name="facebook" d="M938.667 608v-512c0-94.257-76.41-170.667-170.667-170.667h-93.867v330.667h110.933l16.64 128h-128v82.773c0 37.547 10.667 62.72 64 62.72h68.267v115.2c-32.997 3.885-66.189 5.879-99.413 5.973-45.815 3.393-90.781-13.671-122.809-46.606s-47.833-78.359-43.164-124.061v-95.147h-110.933v-128h110.933v-331.52h-284.587c-94.257 0-170.667 76.41-170.667 170.667v512c0 94.257 76.41 170.667 170.667 170.667h512c94.257 0 170.667-76.41 170.667-170.667z" />
<glyph unicode="&#xe91d;" glyph-name="google" d="M820.48 397.653h-302.080v-109.653h181.333c-16.28-85.622-94.458-145.221-181.333-138.24-111.694 0-202.24 90.546-202.24 202.24s90.546 202.24 202.24 202.24c47.503 0.908 93.465-16.864 128-49.493l85.333 85.333c-57.396 54.968-133.861 85.554-213.333 85.333-176.731 0-320-143.269-320-320s143.269-320 320-320c184.747 0 307.2 128 307.2 312.747 0.032 17.761-1.683 35.482-5.12 52.907v-3.413z" />
<glyph unicode="&#xe91e;" glyph-name="instagram" d="M512 570.453c-88.567 0-168.406-53.375-202.259-135.217s-15.049-176.020 47.639-238.585c62.688-62.566 156.902-81.187 238.678-47.174s134.995 113.955 134.822 202.523c0.229 58.081-22.772 113.844-63.882 154.874s-96.917 63.922-154.998 63.58zM512 209.493c-78.704 0-142.507 63.802-142.507 142.507s63.802 142.507 142.507 142.507c78.704 0 142.507-63.802 142.507-142.507 0-37.795-15.014-74.042-41.739-100.767s-62.972-41.739-100.767-41.739zM790.613 579.413c-2.414-26.358-24.519-46.531-50.987-46.531s-48.573 20.173-50.987 46.531c-1.77 19.329 7.542 37.998 24.049 48.21s37.369 10.212 53.875 0c16.507-10.212 25.819-28.88 24.049-48.21zM935.68 527.787c1.343 66.358-23.487 130.578-69.12 178.773-48.392 45.321-112.48 70.099-178.773 69.12-70.4 2.987-281.173 2.987-351.573 0-66.293 0.979-130.381-23.799-178.773-69.12-45.793-48.094-70.649-112.383-69.12-178.773-2.987-70.4-2.987-281.173 0-351.573-1.529-66.391 23.327-130.679 69.12-178.773 48.245-45.554 112.432-70.371 178.773-69.12 70.4-3.84 281.173-3.84 351.573 0 66.391-1.529 130.679 23.327 178.773 69.12 45.593 48.22 70.417 112.424 69.12 178.773 3.84 70.4 3.84 281.173 0 351.573zM844.8 101.12c-14.788-36.978-44.088-66.279-81.067-81.067-56.32-22.187-189.44-17.067-251.733-17.067s-195.413-4.693-251.307 17.067c-37.15 14.526-66.54 43.916-81.067 81.067-22.187 56.32-17.067 189.44-17.067 251.733s-5.12 195.413 17.067 251.307c14.526 37.15 43.916 66.54 81.067 81.067 55.893 22.187 189.44 17.067 251.307 17.067s195.413 5.12 251.733-17.067c36.978-14.788 66.279-44.088 81.067-81.067 22.187-55.893 17.067-189.44 17.067-251.307s5.12-196.267-17.067-252.587v0.853z" />
<glyph unicode="&#xe91f;" glyph-name="linkedin-alt" d="M344.747 10.667h-141.653v455.68h141.653v-455.68zM273.92 528.64c-45.478-0.235-82.536 36.441-82.771 81.919s36.441 82.536 81.919 82.772c45.478 0.236 82.536-36.44 82.773-81.918 0.002-45.383-36.539-82.305-81.92-82.773zM874.667 10.667h-141.227v221.867c0 52.907 0 120.747-73.813 120.747s-85.333-57.6-85.333-116.907v-225.707h-140.8v455.68h135.68v-61.867h2.133c27.531 46.838 78.386 74.963 132.693 73.387 142.933 0 170.667-94.293 170.667-216.747v-250.453z" />
<glyph unicode="&#xe920;" glyph-name="linkedin" d="M768 778.667h-512c-94.257 0-170.667-76.41-170.667-170.667v-512c0-94.257 76.41-170.667 170.667-170.667h512c94.257 0 170.667 76.41 170.667 170.667v512c0 94.257-76.41 170.667-170.667 170.667zM341.333 47.36h-128v407.040h128v-407.040zM279.893 510.293c-29.721 0.001-56.507 17.927-67.84 45.402s-4.976 59.073 16.101 80.028c21.077 20.954 52.712 27.127 80.12 15.634s45.179-38.384 45.006-68.104c-0.235-40.364-33.022-72.961-73.387-72.96zM817.493 47.36h-128v197.973c0 47.36 0 107.947-65.707 107.947s-75.947-51.2-75.947-104.533v-201.387h-128v407.040h121.173v-55.467c25.664 43.802 73.945 69.265 124.587 65.707 128 0 151.893-85.333 151.893-194.133v-223.147z" />
<glyph unicode="&#xe921;" glyph-name="person-add" d="M384 352c94.257 0 170.667 76.41 170.667 170.667s-76.41 170.667-170.667 170.667c-94.257 0-170.667-76.41-170.667-170.667s76.41-170.667 170.667-170.667zM384 608c47.128 0 85.333-38.205 85.333-85.333s-38.205-85.333-85.333-85.333c-47.128 0-85.333 38.205-85.333 85.333s38.205 85.333 85.333 85.333zM384 309.333c-178.773 0-298.667-102.827-298.667-256v-42.667c0-23.564 19.103-42.667 42.667-42.667h512c23.564 0 42.667 19.103 42.667 42.667v42.667c0 153.173-119.893 256-298.667 256zM170.667 53.333c0 125.867 110.080 170.667 213.333 170.667s213.333-44.8 213.333-170.667h-426.667zM938.667 629.333h-106.667v106.667h-85.333v-106.667h-106.667v-85.333h106.667v-106.667h85.333v106.667h106.667z" />
<glyph unicode="&#xe922;" glyph-name="person-cancel" d="M384 330.667c94.257 0 170.667 76.41 170.667 170.667s-76.41 170.667-170.667 170.667c-94.257 0-170.667-76.41-170.667-170.667s76.41-170.667 170.667-170.667zM384 586.667c47.128 0 85.333-38.205 85.333-85.333s-38.205-85.333-85.333-85.333c-47.128 0-85.333 38.205-85.333 85.333s38.205 85.333 85.333 85.333zM384 288c-178.773 0-298.667-102.827-298.667-256v-42.667c0-23.564 19.103-42.667 42.667-42.667h512c23.564 0 42.667 19.103 42.667 42.667v42.667c0 153.173-119.893 256-298.667 256zM170.667 32c0 125.867 110.080 170.667 213.333 170.667s213.333-44.8 213.333-170.667h-426.667zM926.293 684.373l-60.587 60.587-97.707-98.133-97.707 98.133-60.587-60.587 98.133-97.707-98.133-97.707 60.587-60.587 97.707 98.133 97.707-98.133 60.587 60.587-98.133 97.707z" />
<glyph unicode="&#xe923;" glyph-name="person-remove" d="M405.333 373.333c94.257 0 170.667 76.41 170.667 170.667s-76.41 170.667-170.667 170.667c-94.257 0-170.667-76.41-170.667-170.667s76.41-170.667 170.667-170.667zM405.333 629.333c47.128 0 85.333-38.205 85.333-85.333s-38.205-85.333-85.333-85.333c-47.128 0-85.333 38.205-85.333 85.333s38.205 85.333 85.333 85.333zM405.333 330.667c-178.773 0-298.667-102.827-298.667-256v-42.667c0-23.564 19.103-42.667 42.667-42.667h512c23.564 0 42.667 19.103 42.667 42.667v42.667c0 153.173-119.893 256-298.667 256zM192 74.667c0 125.867 110.080 170.667 213.333 170.667s213.333-44.8 213.333-170.667h-426.667zM661.333 672h256v-85.333h-256v85.333z" />
<glyph unicode="&#xe924;" glyph-name="person" d="M512 352c106.039 0 192 85.961 192 192s-85.961 192-192 192c-106.039 0-192-85.961-192-192-0.114-50.956 20.078-99.858 56.11-135.89s84.934-56.224 135.89-56.11zM512 650.667c58.91 0 106.667-47.756 106.667-106.667s-47.756-106.667-106.667-106.667c-58.91 0-106.667 47.756-106.667 106.667s47.756 106.667 106.667 106.667zM512 309.333c-233.387 0-384-100.693-384-256v-42.667c0-23.564 19.103-42.667 42.667-42.667h682.667c23.564 0 42.667 19.103 42.667 42.667v42.667c0 155.307-150.613 256-384 256zM213.333 53.333c0 125.867 160.853 170.667 298.667 170.667s298.667-44.8 298.667-170.667h-597.333z" />
<glyph unicode="&#xe925;" glyph-name="rss" d="M128 565.333v170.667c424.155 0 768-343.845 768-768h-170.667c0 329.898-267.435 597.333-597.333 597.333zM128 299.947v170.667c277.586 0 502.613-225.028 502.613-502.613h-170.667c0 183.329-148.618 331.947-331.947 331.947zM234.667 181.333c58.91 0 106.667-47.756 106.667-106.667s-47.756-106.667-106.667-106.667c-58.91 0-106.667 47.756-106.667 106.667s47.756 106.667 106.667 106.667z" />
<glyph unicode="&#xe926;" glyph-name="thumbs-down" d="M896 714.667h-583.253c-32.813-8.084-63.7-22.585-90.88-42.667l-136.533-213.333v-170.667c1.576-24.040 21.561-42.718 45.653-42.667h227.413l-45.653-174.933c1.091-22.957 11.396-44.503 28.582-59.761s39.801-22.94 62.725-21.305h90.88c15.36 0 45.653 0 58.027 14.933 25.173 29.44 72.533 101.973 170.667 210.773 6.4 7.253 15.36 18.347 23.893 30.293h148.48c23.564 0 42.667 19.103 42.667 42.667v384c0 23.564-19.103 42.667-42.667 42.667zM514.987 94.293l-14.933-19.627h-97.707l38.827 149.333 28.16 106.667h-298.667v102.827l113.92 177.493c11.456 7.030 23.438 13.164 35.84 18.347h362.24v-325.547c-7.119-11.273-15.108-21.972-23.893-32-69.547-78.080-114.347-137.813-143.787-177.493zM853.333 330.667h-85.333v298.667h85.333v-298.667z" />
<glyph unicode="&#xe927;" glyph-name="thumbs-up" d="M893.013 458.667h-227.413l45.653 174.933c-1.091 22.957-11.396 44.503-28.582 59.761s-39.801 22.94-62.725 21.305h-90.88c-17.067 0-45.653 0-59.733-14.933-25.173-29.44-72.533-101.973-170.667-210.773-6.4-7.253-15.36-18.347-23.893-30.293h-146.773c-23.564 0-42.667-19.103-42.667-42.667v-384c0-23.564 19.103-42.667 42.667-42.667h583.253c32.813 8.084 63.7 22.585 90.88 42.667l136.533 213.333v170.667c-1.576 24.040-21.561 42.718-45.653 42.667zM170.667 373.333h85.333v-298.667h-85.333v298.667zM853.333 270.507l-113.92-177.493c-11.456-7.030-23.438-13.164-35.84-18.347h-362.24v325.547c7.119 11.273 15.108 21.972 23.893 32 69.547 78.080 114.347 137.813 143.787 177.493l14.933 19.627h97.707l-38.827-149.333-28.16-106.667h298.667v-102.827z" />
<glyph unicode="&#xe928;" glyph-name="twitter" d="M676.267 698.453l-0.427-0.427c48.479 0.325 94.887-19.63 128-55.040 39.164 7.709 76.697 22.145 110.933 42.667-12.981-40.434-40.295-74.728-76.8-96.427 34.676 4.106 68.585 13.158 100.693 26.88-23.341-34.587-52.163-65.139-85.333-90.453 0.434-7.532 0.434-15.082 0-22.613 1.384-132.929-50.811-260.816-144.811-354.816s-221.887-146.194-354.816-144.811c-95.165-0.316-188.382 26.952-268.373 78.507 14.209-0.879 28.458-0.879 42.667 0 78.308-0.067 154.358 26.235 215.893 74.667-74.728 1.439-140.332 50.085-163.413 121.173 10.865-1.733 21.851-2.589 32.853-2.56 15.875 0.216 31.654 2.511 46.933 6.827-81.348 16.393-139.985 87.684-140.373 170.667v2.133c24.278-13.311 51.276-20.9 78.933-22.187-48.555 32.488-77.688 87.071-77.653 145.493-0.223 31.066 8.039 61.603 23.893 88.32 88.722-109.578 219.74-176.405 360.533-183.893-2.895 13.171-4.326 26.621-4.267 40.107-0.342 46.577 17.951 91.359 50.807 124.375s77.547 51.527 124.126 51.412z" />
<glyph unicode="&#xe929;" glyph-name="youtube" d="M920.747 558.080c-9.798 36.989-38.586 65.941-75.52 75.947-66.56 16.64-333.227 16.64-333.227 16.64s-266.667 0-333.227-17.92c-36.61-9.776-65.329-38.17-75.52-74.667-12.332-67.992-18.331-136.98-17.92-206.080-0.442-69.384 5.557-138.659 17.92-206.933 9.877-36.681 38.729-65.208 75.52-74.667 66.56-17.067 333.227-17.067 333.227-17.067s266.667 0 333.227 17.92c36.791 9.459 65.643 37.986 75.52 74.667 12.311 67.994 18.309 136.981 17.92 206.080 0.411 69.1-5.588 138.088-17.92 206.080zM426.667 224v256l223.147-128-223.147-128z" />
<glyph unicode="&#xe92a;" glyph-name="add-place" d="M810.667 480c0 164.949-133.718 298.667-298.667 298.667s-298.667-133.718-298.667-298.667c0-151.467 238.080-460.8 264.96-495.787l2.56-2.987 31.147-42.667 31.147 42.667 2.56 2.987c26.88 34.987 264.96 344.32 264.96 495.787zM512 693.333c117.821 0 213.333-95.513 213.333-213.333 0-81.92-119.467-271.787-213.333-398.507-93.867 128-213.333 316.587-213.333 398.507 0 117.821 95.513 213.333 213.333 213.333zM554.667 352v85.333h85.333v85.333h-85.333v85.333h-85.333v-85.333h-85.333v-85.333h85.333v-85.333z" />
<glyph unicode="&#xe92b;" glyph-name="boat" d="M405.333 266.667c0-35.346-28.654-64-64-64s-64 28.654-64 64c0 35.346 28.654 64 64 64s64-28.654 64-64zM746.667 266.667c0-35.346-28.654-64-64-64s-64 28.654-64 64c0 35.346 28.654 64 64 64s64-28.654 64-64zM872.533 39.68c18.228 42.948 26.26 89.534 23.467 136.107 5.329 16.974 11.597 33.64 18.773 49.92 21.76 52.48 31.147 74.24 19.2 98.133-35.104 52.762-85.607 93.432-144.64 116.48v146.347c0 35.346-28.654 64-64 64h-170.667v42.667c0 23.564-19.103 42.667-42.667 42.667s-42.667-19.103-42.667-42.667v-42.667h-170.667c-35.346 0-64-28.654-64-64v-145.92c-58.997-23.538-109.441-64.459-144.64-117.333-11.947-23.467-2.56-45.227 19.2-97.707 6.4-15.787 17.493-42.667 18.773-46.507-3.149-47.66 4.735-95.403 23.040-139.52h-65.707v-85.333h85.333c48.669 0.236 96.81 10.097 141.653 29.013 9.813 3.84 19.627 8.533 29.013 13.227 18.299-9.237 37.268-17.081 56.747-23.467 36.788-11.954 75.238-18.003 113.92-17.92 38.094-0.134 75.968 5.771 112.213 17.493 20.117 6.318 39.67 14.311 58.453 23.893 9.383-5.015 19.074-9.432 29.013-13.227 44.631-19.115 92.674-28.985 141.227-29.013h85.333v85.333h-65.707zM320 565.333h384v-92.16c-85.333 26.88-165.12 42.667-183.467 47.787h-14.507c-18.347-3.84-98.56-20.907-183.040-47.36l-2.987 91.733zM682.667 96c-102.127-72.818-239.206-72.818-341.333 0-29.433-20.65-62.193-36.092-96.853-45.653l-9.387 13.653c-18.348 35.451-25.913 75.499-21.76 115.2-3.598 27.799-12.275 54.699-25.6 79.36-4.267 11.093-10.667 26.453-14.507 36.693 34.015 34.389 75.058 61.023 120.32 78.080 71.404 25.436 144.373 46.243 218.453 62.293 73.923-16.12 146.746-36.926 218.027-62.293 45.388-17.010 86.469-43.814 120.32-78.507-3.84-10.667-10.24-25.6-14.507-37.12-13.325-24.661-22.002-51.561-25.6-79.36 4.153-39.701-3.412-79.749-21.76-115.2-2.738-4.674-5.879-9.1-9.387-13.227-34.597 9.583-67.237 25.181-96.427 46.080z" />
<glyph unicode="&#xe92c;" glyph-name="bus" d="M384 181.333c0-35.346-28.654-64-64-64s-64 28.654-64 64c0 35.346 28.654 64 64 64s64-28.654 64-64zM384 650.667h256v-85.333h-256v85.333zM768 181.333c0-35.346-28.654-64-64-64s-64 28.654-64 64c0 35.346 28.654 64 64 64s64-28.654 64-64zM896 480v170.667c0 64-140.8 128-285.867 128h-196.267c-145.067 0-285.867-64-285.867-128v-170.667c-25.6 0-42.667-17.067-42.667-42.667v-85.333c0-25.6 17.067-42.667 42.667-42.667v-213.333c0-29.867 17.067-59.733 42.667-72.533v-34.133c0-34.133 29.867-64 64-64h42.667c34.133 0 64 29.867 64 64v21.333h341.333v-21.333c0-34.133 29.867-64 64-64h42.667c34.133 0 64 29.867 64 64v34.133c25.6 12.8 42.667 42.667 42.667 72.533v213.333c25.6 0 42.667 17.067 42.667 42.667v85.333c0 25.6-17.067 42.667-42.667 42.667zM213.333 266.667h597.333v42.667h-597.333v170.667h597.333v42.667h-597.333v115.2c17.067 17.067 89.6 55.467 200.533 55.467h196.267c110.933 0 183.467-38.4 200.533-55.467v-541.867h-597.333v170.667z" />
<glyph unicode="&#xe92d;" glyph-name="car" d="M362.667 266.667c0-35.346-28.654-64-64-64s-64 28.654-64 64c0 35.346 28.654 64 64 64s64-28.654 64-64zM789.333 266.667c0-35.346-28.654-64-64-64s-64 28.654-64 64c0 35.346 28.654 64 64 64s64-28.654 64-64zM883.627 452.693l-115.627 261.973h-512l-115.627-261.973c-32.991-12.527-54.868-44.071-55.040-79.36v-213.333c0.183-30.303 16.423-58.236 42.667-73.387v-33.28c0-35.346 28.654-64 64-64h42.667c35.346 0 64 28.654 64 64v21.333h426.667v-21.333c0-35.346 28.654-64 64-64h42.667c35.346 0 64 28.654 64 64v33.28c26.244 15.151 42.484 43.084 42.667 73.387v213.333c-0.172 35.289-22.049 66.833-55.040 79.36zM853.333 160h-682.667v213.333h682.667v-213.333zM312.32 629.333h399.36l75.947-170.667h-551.253l75.947 170.667z" />
<glyph unicode="&#xe92e;" glyph-name="layers" d="M938.667 437.333l-426.667 256-426.667-256 426.667-256 426.667 256zM227.413 437.333l284.587 170.667 284.587-170.667-284.587-170.667-284.587 170.667zM512 96l-355.413 213.333-71.253-42.667 426.667-256 426.667 256-71.253 42.667z" />
<glyph unicode="&#xe92f;" glyph-name="map" d="M597.333 71.111v490.667l-170.667 71.111v-490.667l170.667-71.111zM682.667 71.111l128 53.333v490.667l-128-53.333v-490.667zM341.333 142.222v490.667l-128-53.333v-490.667l128 53.333zM896 160v-85.333l-256-106.667-256 106.667-256-106.667v85.333l8.192 3.413h-8.192v572.587l256 106.667 256-106.667 256 106.667v-576z" />
<glyph unicode="&#xe930;" glyph-name="my-location" d="M661.333 352c0-82.475-66.859-149.333-149.333-149.333s-149.333 66.859-149.333 149.333c0 82.475 66.859 149.333 149.333 149.333s149.333-66.859 149.333-149.333zM938.667 394.667h-88.32c-19.588 154.461-141.219 276.092-295.68 295.68v88.32h-85.333v-88.32c-154.461-19.588-276.092-141.219-295.68-295.68h-88.32v-85.333h88.32c19.588-154.461 141.219-276.092 295.68-295.68v-88.32h85.333v88.32c154.461 19.588 276.092 141.219 295.68 295.68h88.32v85.333zM512 96c-141.385 0-256 114.615-256 256s114.615 256 256 256c141.385 0 256-114.615 256-256 0-67.895-26.971-133.010-74.981-181.019s-113.124-74.981-181.019-74.981z" />
<glyph unicode="&#xe931;" glyph-name="place" d="M810.667 480c0 164.949-133.718 298.667-298.667 298.667s-298.667-133.718-298.667-298.667c0-151.467 238.080-460.8 264.96-495.787l2.56-2.987 31.147-42.667 31.147 42.667 2.56 2.987c26.88 34.987 264.96 344.32 264.96 495.787zM512 693.333c117.821 0 213.333-95.513 213.333-213.333 0-81.92-119.467-271.787-213.333-398.507-93.867 128-213.333 316.587-213.333 398.507 0 117.821 95.513 213.333 213.333 213.333zM618.667 480c0-58.91-47.756-106.667-106.667-106.667s-106.667 47.756-106.667 106.667c0 58.91 47.756 106.667 106.667 106.667s106.667-47.756 106.667-106.667z" />
<glyph unicode="&#xe932;" glyph-name="taxi" d="M362.667 224c0-35.346-28.654-64-64-64s-64 28.654-64 64c0 35.346 28.654 64 64 64s64-28.654 64-64zM789.333 224c0-35.346-28.654-64-64-64s-64 28.654-64 64c0 35.346 28.654 64 64 64s64-28.654 64-64zM883.627 410.027l-115.627 261.973h-128v85.333h-256v-85.333h-128l-115.627-261.973c-32.991-12.527-54.868-44.071-55.040-79.36v-213.333c0.183-30.303 16.423-58.236 42.667-73.387v-33.28c0-35.346 28.654-64 64-64h42.667c35.346 0 64 28.654 64 64v21.333h426.667v-21.333c0-35.346 28.654-64 64-64h42.667c35.346 0 64 28.654 64 64v33.28c26.244 15.151 42.484 43.084 42.667 73.387v213.333c-0.172 35.289-22.049 66.833-55.040 79.36zM853.333 117.333h-682.667v213.333h682.667v-213.333zM312.32 586.667h399.36l75.947-170.667h-551.253l75.947 170.667z" />
<glyph unicode="&#xe933;" glyph-name="traffic" d="M597.333 565.333c0-47.128-38.205-85.333-85.333-85.333s-85.333 38.205-85.333 85.333c0 47.128 38.205 85.333 85.333 85.333s85.333-38.205 85.333-85.333zM597.333 352c0-47.128-38.205-85.333-85.333-85.333s-85.333 38.205-85.333 85.333c0 47.128 38.205 85.333 85.333 85.333s85.333-38.205 85.333-85.333zM597.333 138.667c0-47.128-38.205-85.333-85.333-85.333s-85.333 38.205-85.333 85.333c0 47.128 38.205 85.333 85.333 85.333s85.333-38.205 85.333-85.333zM865.707 364.373c12.252 12.152 15.978 30.488 9.441 46.458s-22.051 26.43-39.307 26.502h-67.84v42.667l97.707 97.707c12.252 12.152 15.978 30.488 9.441 46.458s-22.051 26.43-39.307 26.502h-67.84v42.667c0 47.128-38.205 85.333-85.333 85.333h-341.333c-47.128 0-85.333-38.205-85.333-85.333v-42.667h-67.84c-17.256-0.072-32.77-10.532-39.307-26.502s-2.811-34.306 9.441-46.458l97.707-97.707v-42.667h-67.84c-17.256-0.072-32.77-10.532-39.307-26.502s-2.811-34.306 9.441-46.458l97.707-97.707v-42.667h-67.84c-17.256-0.072-32.77-10.532-39.307-26.502s-2.811-34.306 9.441-46.458l97.707-97.707v-42.667c0-47.128 38.205-85.333 85.333-85.333h341.333c47.128 0 85.333 38.205 85.333 85.333v42.667l97.707 97.707c12.252 12.152 15.978 30.488 9.441 46.458s-22.051 26.43-39.307 26.502h-67.84v42.667l97.707 97.707zM341.333 10.667v682.667h341.333v-682.667h-341.333z" />
<glyph unicode="&#xe934;" glyph-name="train" d="M405.333 181.333c0-35.346-28.654-64-64-64s-64 28.654-64 64c0 35.346 28.654 64 64 64s64-28.654 64-64zM909.227 298.24v8.107c-3.135 54.179-9.117 108.156-17.92 161.707-6.4 50.333-19.159 99.652-37.973 146.773-16.543 42.844-46.47 79.206-85.333 103.68-4.611 2.843-9.466 5.271-14.507 7.253-17.483 9.003-36.159 15.468-55.467 19.2-50.535 9.091-101.835 13.235-153.173 12.373-37.12 0-75.52 0-113.493 0-32.36-0.57-64.615-3.853-96.427-9.813-46.702-7.801-89.482-30.917-121.6-65.707-25.455-29.742-44.095-64.692-54.613-102.4-24.758-91.094-39.073-184.71-42.667-279.040-2.56-31.147-2.987-62.293-3.413-92.16v-15.787c-1.182-29.626-0.041-59.299 3.413-88.747 4.621-58.6 49.315-106.131 107.52-114.347 11.97-2.224 24.096-3.508 36.267-3.84h38.827l-47.787-81.493h98.56l46.933 81.067h231.253l46.933-81.067h98.56l-47.787 81.067h42.667c8.96 0 18.347 0 27.307 2.133 54.176 3.857 99.337 42.939 110.933 96 4.535 15.694 7.115 31.887 7.68 48.213 0 53.76-1.28 110.080-4.693 166.827zM781.227 340.907h-537.173c-15.787 0-22.187 6.4-22.613 21.333-0.195 21.951 0.945 43.894 3.413 65.707 3.028 42.222 11.195 83.916 24.32 124.16 6.591 19.606 15.47 38.366 26.453 55.893 17.072 29.471 46.87 49.336 80.64 53.76 50.755 6.997 101.939 10.419 153.173 10.24h66.56c35.855-1.515 71.528-5.938 106.667-13.227 22.933-3.933 43.437-16.633 57.173-35.413 22.164-29.758 37.199-64.207 43.947-100.693 10.289-40.793 16.295-82.548 17.92-124.587 0-11.093 0-21.76 0-32.853s-5.973-22.187-21.333-22.613l0.853-1.707zM226.56 149.76c0 39.68-2.56 81.493 0 89.173-0.186 9.537 1.707 19.001 5.547 27.733 4.422 4.304 10.49 6.482 16.64 5.973h531.627c6.15 0.509 12.218-1.669 16.64-5.973 4.076-9.561 5.97-19.909 5.547-30.293 1.601-28.422 1.601-56.911 0-85.333-4.693-33.707-34.56-76.373-61.44-76.373-48.213-2.987-141.653-7.68-229.12-8.107s-183.040 4.267-229.12 8.107c-30.72 0-57.6 42.667-59.307 76.8l2.987-1.707zM746.667 181.333c0-35.346-28.654-64-64-64s-64 28.654-64 64c0 35.346 28.654 64 64 64s64-28.654 64-64z" />
<glyph unicode="&#xe935;" glyph-name="arrow-down" d="M554.24 25.173l-42.667-42.667-60.587 60.16-194.987 195.413 60.16 60.16 153.173-152.747v605.013h85.333v-604.16l153.173 153.173 60.16-60.587-213.333-213.333v-0.427z" />
<glyph unicode="&#xe936;" glyph-name="arrow-left" d="M170.667 309.76l-42.667 42.667 60.16 60.587 195.413 194.987 60.16-60.16-152.747-153.173h605.013v-85.333h-604.16l153.173-153.173-60.587-60.16-213.333 213.333h-0.427z" />
<glyph unicode="&#xe937;" glyph-name="arrow-right" d="M853.333 309.76l42.667 42.667-60.16 60.587-195.413 194.987-60.16-60.16 152.747-153.173h-605.013v-85.333h604.16l-153.173-153.173 60.587-60.16 213.333 213.333h0.427z" />
<glyph unicode="&#xe938;" glyph-name="arrow-top-left" d="M316.119 608l537.106-537.106-60.34-60.34-536.885 536.885v-152.773h-85.333v298.666h298.667v-85.333h-153.214z" />
<glyph unicode="&#xe939;" glyph-name="arrow-top-right" d="M707.866 608h-153.2v85.333h298.667v-298.667h-85.333v152.788l-536.685-536.685-60.34 60.34 536.891 536.891z" />
<glyph unicode="&#xe93a;" glyph-name="arrow-up" d="M554.24 693.333l-42.667 42.667-60.587-60.16-194.987-195.413 60.16-60.16 153.173 152.747v-605.013h85.333v604.16l153.173-153.173 60.16 60.587-213.333 213.333v0.427z" />
<glyph unicode="&#xe93b;" glyph-name="check" d="M431.36 104.96c-38.4-37.973-68.693-72.96-68.693-72.96l-229.547 232.107 69.547 69.547 159.147-159.147 463.787 463.787 69.547-69.547-463.787-463.787z" />
<glyph unicode="&#xe93c;" glyph-name="chevron-down" d="M442.923 190.72l-292.832 292.832 69.391 69.391 292.832-292.832 292.486 292.486 69.391-69.391-362.039-362.039-69.391 69.391 0.162 0.162z" />
<glyph unicode="&#xe93d;" glyph-name="chevron-left" d="M350.752 282.633l-0.186-0.186-69.391 69.391 0.186 0.186-0.162 0.162 69.391 69.391 0.162-0.162 292.462 292.462 69.391-69.391-292.462-292.462 292.486-292.486-69.391-69.391-292.486 292.486z" />
<glyph unicode="&#xe93e;" glyph-name="chevron-right" d="M742.311 352l0.208-0.208-362.039-362.039-69.391 69.391 292.832 292.832-292.856 292.856 69.391 69.391 362.039-362.039-0.184-0.184z" />
<glyph unicode="&#xe93f;" glyph-name="chevron-up" d="M442.971 513.28l-0.186 0.186 69.391 69.391 362.039-362.039-69.391-69.391-292.462 292.462-292.856-292.856-69.391 69.391 292.856 292.856z" />
<glyph unicode="&#xe940;" glyph-name="cog" d="M908.373 249.6l-72.96 42.667c7.254 39.779 7.254 80.541 0 120.32l72.96 42.667c8.901 4.72 12.919 15.311 9.387 24.747-9.57 29.79-22.451 58.414-38.4 85.333-15.723 26.96-34.321 52.138-55.467 75.093-6.554 6.832-16.881 8.407-25.173 3.84l-73.387-42.24c-30.837 26.101-66.095 46.475-104.107 60.16v85.333c0.011 9.675-6.751 18.038-16.213 20.053-61.528 13.81-125.352 13.81-186.88 0-9.463-2.016-16.224-10.378-16.213-20.053v-85.333c-37.711-13.777-72.672-34.147-103.253-60.16l-72.96 42.667c-8.293 4.567-18.62 2.992-25.173-3.84-21.32-23.068-40.062-48.39-55.893-75.52-15.949-26.92-28.83-55.543-38.4-85.333-3.047-9.186 0.902-19.237 9.387-23.893l72.96-42.667c-7.254-39.779-7.254-80.541 0-120.32l-72.96-42.667c-8.485-4.656-12.433-14.707-9.387-23.893 9.57-29.79 22.451-58.414 38.4-85.333 15.723-26.96 34.321-52.138 55.467-75.093 6.554-6.832 16.881-8.407 25.173-3.84l72.96 42.667c30.837-26.101 66.095-46.475 104.107-60.16v-85.333c-0.011-9.675 6.751-18.038 16.213-20.053 61.528-13.81 125.352-13.81 186.88 0 9.463 2.016 16.224 10.378 16.213 20.053v85.333c37.648 12.824 72.744 32.177 103.68 57.173l72.96-42.667c8.293-4.567 18.62-2.992 25.173 3.84 43.042 46.328 75.122 101.738 93.867 162.133 3.357 9.207-0.432 19.492-8.96 24.32zM848.64 194.56c-3.909-10.099-8.469-19.933-13.653-29.44-5.477-9.109-11.609-17.807-18.347-26.027-3.609-5.309-10.77-6.817-16.213-3.413l-91.307 52.907c-39.2-47.118-94.005-78.608-154.453-88.747v-97.707c0.235-3.057-0.759-6.082-2.761-8.404s-4.847-3.751-7.906-3.969c-10.599-1.552-21.289-2.407-32-2.56-10.711 0.153-21.401 1.008-32 2.56-3.058 0.218-5.904 1.647-7.906 3.969s-2.996 5.347-2.761 8.404v97.707c-58.744 9.999-112.159 40.177-151.040 85.333l-85.333-49.067c-5.142-3.314-11.956-2.209-15.787 2.56-6.738 8.22-12.87 16.918-18.347 26.027-5.184 9.507-9.745 19.341-13.653 29.44-1.309 2.771-1.46 5.95-0.419 8.833s3.188 5.232 5.965 6.527l85.333 47.787c-12.648 30.010-19.455 62.159-20.053 94.72-0.172 30.789 5.474 61.333 16.64 90.027l-81.92 46.933c-2.778 1.296-4.924 3.645-5.965 6.527s-0.89 6.061 0.419 8.833c3.909 10.099 8.469 19.933 13.653 29.44 5.477 9.109 11.609 17.807 18.347 26.027 3.609 5.309 10.77 6.817 16.213 3.413l81.92-47.36c39.162 46.872 93.792 78.197 154.027 88.32v97.707c-0.235 3.057 0.759 6.082 2.761 8.404s4.847 3.751 7.906 3.969c10.599 1.552 21.289 2.407 32 2.56 10.711-0.153 21.401-1.008 32-2.56 3.058-0.218 5.904-1.647 7.906-3.969s2.996-5.347 2.761-8.404v-97.707c61.862-10.443 117.736-43.238 157.013-92.16l88.747 51.2c5.444 3.404 12.604 1.896 16.213-3.413 6.738-8.22 12.87-16.918 18.347-26.027 5.184-9.507 9.745-19.341 13.653-29.44 1.309-2.771 1.46-5.95 0.419-8.833s-3.188-5.232-5.965-6.527l-90.027-51.627c20.762-56.463 20.762-118.47 0-174.933l91.307-52.48c5.307-3.15 7.189-9.924 4.267-15.36zM512 512c-88.366 0-160-71.634-160-160s71.634-160 160-160c88.366 0 160 71.634 160 160 0 42.435-16.857 83.131-46.863 113.137s-70.702 46.863-113.137 46.863zM512 256c-53.019 0-96 42.981-96 96s42.981 96 96 96c53.019 0 96-42.981 96-96s-42.981-96-96-96z" />
<glyph unicode="&#xe941;" glyph-name="cross" d="M512 421.367l206.688 206.688 69.391-69.391-206.688-206.688 206.664-206.664-69.391-69.391-206.664 206.664-206.64-206.64-69.391 69.391 206.64 206.64-206.664 206.664 69.391 69.391 206.664-206.664z" />
<glyph unicode="&#xe942;" glyph-name="ellipsis" d="M213.333 266.667c-47.128 0-85.333 38.205-85.333 85.333s38.205 85.333 85.333 85.333c47.128 0 85.333-38.205 85.333-85.333s-38.205-85.333-85.333-85.333zM512 266.667c-47.128 0-85.333 38.205-85.333 85.333s38.205 85.333 85.333 85.333c47.128 0 85.333-38.205 85.333-85.333s-38.205-85.333-85.333-85.333zM810.667 266.667c-47.128 0-85.333 38.205-85.333 85.333s38.205 85.333 85.333 85.333c47.128 0 85.333-38.205 85.333-85.333s-38.205-85.333-85.333-85.333z" />
<glyph unicode="&#xe943;" glyph-name="home" d="M853.333 266.404v-298.404h-298.667v256h-85.333v-256h-298.667v298.406c-21.922-0.054-43.861 8.281-60.587 25.007-5.094 5.094-9.41 10.672-12.948 16.585-3.466 5.778-6.318 12.184-8.357 18.858-4.937 16.226-4.937 33.633 0 49.86 4.052 13.262 11.313 25.464 21.304 35.443l341.333 341.333c16.006 16.024 37.725 25.027 60.373 25.027s44.368-9.003 60.373-25.027l341.333-341.333c0.071-0.071 0.142-0.142 0.213-0.214l0.214 0.214c21.569-21.569 29.993-53.007 22.098-82.472s-30.909-52.478-60.373-60.373c-7.375-1.976-14.874-2.93-22.312-2.911zM170.667 351.573v0.427h85.333v-298.667h128v256h256v-256h128v298.667h84.907l-341.306 341.306-341.176-341.491 0.241-0.241z" />
<glyph unicode="&#xe944;" glyph-name="menu" d="M170.667 522.667v85.333h682.667v-85.333h-682.667zM170.667 309.333v85.333h682.667v-85.333h-682.667zM170.667 96v85.333h682.667v-85.333h-682.667z" />
<glyph unicode="&#xe945;" glyph-name="minus" d="M170.667 401.067h682.667v-98.133h-682.667v98.133z" />
<glyph unicode="&#xe946;" glyph-name="notification" d="M839.349 127.588c8.591-7.805 13.984-19.067 13.984-31.588 0-23.564-19.103-42.667-42.667-42.667h-597.333c-23.564 0-42.667 19.103-42.667 42.667 0 10.533 3.817 20.174 10.142 27.616l-0.013 0.013 0.163 0.163c1.409 1.64 2.941 3.172 4.581 4.581l70.459 70.459v238.5c0 126.898 92.33 232.231 213.476 252.484-0.095 1.159-0.143 2.332-0.143 3.516v42.667c0 23.564 19.103 42.667 42.667 42.667s42.667-19.103 42.667-42.667v-42.667c0-1.184-0.048-2.356-0.143-3.516 121.146-20.254 213.476-125.587 213.476-252.484v-238.396l71.349-71.349zM341.333 138.667h341.333v298.667c0 94.257-76.41 170.667-170.667 170.667s-170.667-76.41-170.667-170.667v-298.667zM597.333 10.667c0-47.128-38.205-85.333-85.333-85.333s-85.333 38.205-85.333 85.333h170.667z" />
<glyph unicode="&#xe947;" glyph-name="plus" d="M462.933 401.067v292.267h98.133v-292.267h292.267v-98.133h-292.267v-292.267h-98.133v292.267h-292.267v98.133h292.267z" />
<glyph unicode="&#xe948;" glyph-name="sg-crest" d="M188.665 506.064c0 0-30.379-42.906 9.421-98.406 0 0 6.281 28.262 69.086 28.262h75.401c71.202 0 124.587 68.028 91.068 138.206 0 0 50.244-5.257 67.038 26.18 16.725 31.403-1.058 43.964-26.18 43.964h-126.703c0-22.528-42.906-25.668-42.906 0h-71.202c0 0-53.419 0-54.443-45.022 0 0 12.049 7.339 24.064 8.363v-12.015c0 0-14.643-2.628-21.47-6.315-6.793-3.652-16.725-13.585-7.305-39.253 9.421-25.634 13.073-34.543 13.073-34.543s15.189 13.107 39.799 13.107h28.809c51.268 0 41.847-49.732-9.455-49.732s-58.095 27.204-58.095 27.204zM456.165 557.896c0 0 17.271-1.058 29.833 9.933 0 0 113.596-88.474-54.955-266.445-168.585-177.971-38.229-293.171-38.229-293.171s-30.345-29.286-13.073-86.357c0 0-70.11 39.595-123.733 106.803-77.517 97.143-124.86 245.794 87.962 364.339 0 0 140.459 70.656 112.196 164.898zM282.532 661.012c0 0 22.699 40.482 75.366 40.482 41.54 0 50.995 21.299 50.995 21.299s18.125 34.543 109.568 34.543c83.797 0 140.288-27.921 185.993-65.263 0 0-123.187 76.425-244.634-31.061h-177.289zM794.849 404.862c-3.482 126.327-101.205 261.734-311.296 254.054 205.21 173.807 561.186-214.255 268.015-418.099 0 0 49.050 69.939 43.281 164.045zM514.966 644.963c256.171 7.68 347.614-299.418 182.17-437.623l-166.127-80.282c0 0-21.641 69.803 58.641 151.484 80.282 81.647 157.73 234.496-64.205 335.019 0 0 4.198 20.924-10.479 31.403zM501.699 575.863c0 0 12.561 11.878 16.759 21.641 190.532-79.565 160.529-214.289 46.763-327.373-69.803-71.885-48.162-149.367-48.162-149.367s-85.129-53.009-114.449-99.089c0 0-123.255 104.96 47.445 279.177 167.526 171.008 51.644 275.012 51.644 275.012z" />
<glyph unicode="&#xe949;" glyph-name="text-center" d="M725.333 480v-85.333h-426.667v85.333h426.667zM896 309.333v-85.333h-768v85.333h768zM725.333 138.667v-85.333h-426.667v85.333h426.667zM896 650.667v-85.333h-768v85.333h768z" />
<glyph unicode="&#xe94a;" glyph-name="text-justify" d="M128 394.667v85.333h768v-85.333h-768zM128 224v85.333h768v-85.333h-768zM128 53.333v85.333h768v-85.333h-768zM128 565.333v85.333h768v-85.333h-768z" />
<glyph unicode="&#xe94b;" glyph-name="text-left" d="M128 394.667v85.333h512v-85.333h-512zM128 224v85.333h768v-85.333h-768zM128 53.333v85.333h512v-85.333h-512zM128 565.333v85.333h768v-85.333h-768z" />
<glyph unicode="&#xe94c;" glyph-name="text-right" d="M896 480v-85.333h-512v85.333h512zM896 309.333v-85.333h-768v85.333h768zM896 138.667v-85.333h-512v85.333h512zM896 650.667v-85.333h-768v85.333h768z" />
<glyph unicode="&#xe94d;" glyph-name="add-comment" d="M810.667 629.333v-384h-499.2l-98.133-78.507v462.507h597.333zM810.667 714.667h-597.333c-47.128 0-85.333-38.205-85.333-85.333v-640l213.333 170.667h469.333c47.128 0 85.333 38.205 85.333 85.333v384c0 47.128-38.205 85.333-85.333 85.333zM477.867 403.2h-125.867v68.267h125.867v115.2h68.267v-115.2h125.867v-68.267h-125.867v-115.2h-68.267v115.2z" />
<glyph unicode="&#xe94e;" glyph-name="ban" d="M512 736c-212.077 0-384-171.923-384-384s171.923-384 384-384c212.077 0 384 171.923 384 384s-171.923 384-384 384zM810.667 352c-0.184-64.331-21.134-126.882-59.733-178.347l-417.28 417.28c90.497 67.37 211.233 77.996 312.106 27.47s164.666-153.583 164.907-266.403zM213.333 352c0.184 64.331 21.134 126.882 59.733 178.347l417.28-417.28c-90.497-67.37-211.233-77.996-312.106-27.47s-164.666 153.583-164.907 266.403z" />
<glyph unicode="&#xe94f;" glyph-name="bookmark" d="M725.333 650.667v-597.333l-160.853 128-52.48 42.667-52.907-42.667-160.427-128v597.333h426.667zM725.333 736h-426.667c-47.128 0-85.333-38.205-85.333-85.333v-597.333c0-47.128 38.205-85.333 85.333-85.333 15.009-0.141 29.768 3.844 42.667 11.52l170.667 135.68 170.667-135.68c12.898-7.676 27.658-11.661 42.667-11.52 47.128 0 85.333 38.205 85.333 85.333v597.333c0 47.128-38.205 85.333-85.333 85.333z" />
<glyph unicode="&#xe950;" glyph-name="calendar" d="M853.333 650.667h-42.667v42.667c0 23.564-19.103 42.667-42.667 42.667s-42.667-19.103-42.667-42.667v-42.667h-170.667v42.667c0 23.564-19.103 42.667-42.667 42.667s-42.667-19.103-42.667-42.667v-42.667h-170.667v42.667c0 23.564-19.103 42.667-42.667 42.667s-42.667-19.103-42.667-42.667v-42.667h-42.667c-47.128 0-85.333-38.205-85.333-85.333v-512c0-47.128 38.205-85.333 85.333-85.333h682.667c47.128 0 85.333 38.205 85.333 85.333v512c0 47.128-38.205 85.333-85.333 85.333zM853.333 53.333h-682.667v341.333h682.667v-341.333zM170.667 480v85.333h42.667c0-23.564 19.103-42.667 42.667-42.667s42.667 19.103 42.667 42.667h170.667c0-23.564 19.103-42.667 42.667-42.667s42.667 19.103 42.667 42.667h170.667c0-23.564 19.103-42.667 42.667-42.667s42.667 19.103 42.667 42.667h42.667v-85.333h-682.667zM597.333 309.333h170.667v-170.667h-170.667v170.667z" />
<glyph unicode="&#xe951;" glyph-name="chat" d="M810.667 629.333v-384h-499.2l-98.133-78.507v462.507h597.333zM810.667 714.667h-597.333c-47.128 0-85.333-38.205-85.333-85.333v-640l213.333 170.667h469.333c47.128 0 85.333 38.205 85.333 85.333v384c0 47.128-38.205 85.333-85.333 85.333zM298.667 544h426.667v-68.267h-426.667v68.267zM298.667 401.067h256v-68.267h-256v68.267z" />
<glyph unicode="&#xe952;" glyph-name="circle-info" d="M512 764.587c-235.641 0-426.667-191.025-426.667-426.667s191.025-426.667 426.667-426.667c235.641 0 426.667 191.025 426.667 426.667 0 113.159-44.952 221.683-124.968 301.699s-188.54 124.968-301.699 124.968zM512-3.413c-188.513 0-341.333 152.82-341.333 341.333s152.82 341.333 341.333 341.333c188.513 0 341.333-152.82 341.333-341.333 0-90.527-35.962-177.347-99.974-241.359s-150.832-99.974-241.359-99.974zM469.333 380.587h85.333v-256h-85.333v256zM469.333 551.253h85.333v-85.333h-85.333v85.333z" />
<glyph unicode="&#xe953;" glyph-name="circle-minus" d="M512 778.667c-235.641 0-426.667-191.025-426.667-426.667s191.025-426.667 426.667-426.667c235.641 0 426.667 191.025 426.667 426.667 0 113.159-44.952 221.683-124.968 301.699s-188.54 124.968-301.699 124.968zM512 10.667c-188.513 0-341.333 152.82-341.333 341.333s152.82 341.333 341.333 341.333c188.513 0 341.333-152.82 341.333-341.333 0-90.527-35.962-177.347-99.974-241.359s-150.832-99.974-241.359-99.974zM298.667 395.093h426.667v-85.333h-426.667v85.333z" />
<glyph unicode="&#xe954;" glyph-name="circle-plus" d="M512 778.667c-235.641 0-426.667-191.025-426.667-426.667s191.025-426.667 426.667-426.667c235.641 0 426.667 191.025 426.667 426.667 0 113.159-44.952 221.683-124.968 301.699s-188.54 124.968-301.699 124.968zM512 10.667c-188.513 0-341.333 152.82-341.333 341.333s152.82 341.333 341.333 341.333c188.513 0 341.333-152.82 341.333-341.333 0-90.527-35.962-177.347-99.974-241.359s-150.832-99.974-241.359-99.974zM554.667 565.333h-85.333v-170.667h-170.667v-85.333h170.667v-170.667h85.333v170.667h170.667v85.333h-170.667z" />
<glyph unicode="&#xe955;" glyph-name="circle-question" d="M469.333 224c0.352 12.638 1.923 25.211 4.693 37.547 5.122 30.877 19.048 59.619 40.107 82.773l33.707 34.133 3.413 2.987c14.933 14.933 23.467 23.040 26.027 26.027 9.504 10.629 16.373 23.345 20.053 37.12 0.268 18.737-7.13 36.77-20.48 49.92-15.63 17.336-37.68 27.513-61.013 28.16-44.911-0.233-81.26-36.583-81.493-81.493h-85.333c0.234 92.039 74.788 166.592 166.827 166.827 47.348-0.6 92.319-20.845 124.16-55.893 29.605-30.634 45.072-72.24 42.667-114.773-5.821-31.922-20.622-61.523-42.667-85.333l-33.28-33.28c-21.333-21.333-26.88-26.453-28.587-28.587-9.843-11.887-17.108-25.69-21.333-40.533-2.112-8.358-2.833-17.007-2.133-25.6h-85.333zM469.333 181.333h85.333v-85.333h-85.333v85.333zM512-74.667c-235.641 0-426.667 191.025-426.667 426.667s191.025 426.667 426.667 426.667c235.641 0 426.667-191.025 426.667-426.667s-191.025-426.667-426.667-426.667zM512 10.667c188.513 0 341.333 152.82 341.333 341.333s-152.82 341.333-341.333 341.333c-188.513 0-341.333-152.82-341.333-341.333s152.82-341.333 341.333-341.333z" />
<glyph unicode="&#xe956;" glyph-name="circle-warning" d="M512 778.667c-235.641 0-426.667-191.025-426.667-426.667s191.025-426.667 426.667-426.667c235.641 0 426.667 191.025 426.667 426.667 0 113.159-44.952 221.683-124.968 301.699s-188.54 124.968-301.699 124.968zM512 10.667c-188.513 0-341.333 152.82-341.333 341.333s152.82 341.333 341.333 341.333c188.513 0 341.333-152.82 341.333-341.333 0-90.527-35.962-177.347-99.974-241.359s-150.832-99.974-241.359-99.974zM469.333 522.667h85.333v-256h-85.333v256zM469.333 224h85.333v-85.333h-85.333v85.333z" />
<glyph unicode="&#xe957;" glyph-name="compress-alt" d="M464.336 245.333l0.427-0.427h25.478v-213.333h-85.333v153.017l-259.111-259.111-60.34 60.34 259.515 259.515h-153.397v85.333h298.667v-85.333h-25.904zM678.935 458.667h153.065v-85.333h-298.667v298.667h85.333v-152.922l259.413 259.413 60.34-60.34-259.485-259.485z" />
<glyph unicode="&#xe958;" glyph-name="compress" d="M317.44 544v234.667h106.667v-341.333h-338.773v106.667h232.107zM594.773-74.667v341.333h343.893v-106.667h-237.227v-234.667h-106.667zM594.773 437.333v341.333h106.667v-234.667h237.227v-106.667h-343.893zM85.333 266.667h338.773v-341.333h-106.667v234.667h-232.107v106.667z" />
<glyph unicode="&#xe959;" glyph-name="edit" d="M894.72 644.267l-90.453 90.453c-16.447 15.195-38.206 23.316-60.587 22.613-22.534 0.018-44.161-8.878-60.16-24.747l-62.72-60.587-360.96-360.96c-16.13-16.034-25.191-37.843-25.173-60.587v-175.787h175.787c22.743-0.018 44.553 9.044 60.587 25.173l275.627 273.493 148.053 148.053c16.687 16.084 26.114 38.263 26.114 61.44s-9.427 45.356-26.114 61.44zM410.453 160h-90.453v90.453l309.333 309.333 90.453-90.453-309.333-309.333zM832 581.547l-51.627-52.053-90.453 90.453 51.627 52.053h5.12l87.467-87.467-2.133-2.987zM746.667-10.667h-597.333v597.333h265.387l85.333 85.333h-350.72c-47.128 0-85.333-38.205-85.333-85.333v-597.333c0-47.128 38.205-85.333 85.333-85.333h597.333c47.128 0 85.333 38.205 85.333 85.333v350.72l-85.333-85.333v-265.387z" />
<glyph unicode="&#xe95a;" glyph-name="expand-alt" d="M252.177 32.427h154.010v-85.333h-298.667v298.24h85.333v-151.551l258.383 258.383 60.34-60.34-259.399-259.399zM891.093 672l0.427-0.427h25.387v-213.333h-85.333v153.108l-259.111-259.111-60.34 60.34 259.423 259.423h-153.306v85.333h298.667v-85.333h-25.813z" />
<glyph unicode="&#xe95b;" glyph-name="expand" d="M235.947 74.667h233.387v-106.667h-341.333v341.333h107.947v-234.667zM894.72 309.333v-341.333h-343.893v106.667h237.227v234.667h106.667zM894.72 736v-341.333h-106.667v234.667h-237.227v106.667h343.893zM468.053 736v-106.667h-232.107v-234.667h-106.667v341.333h338.773z" />
<glyph unicode="&#xe95c;" glyph-name="external" d="M597.333 736v-85.333h128c5.956 0.652 11.964 0.652 17.92 0l-85.333-85.333-223.147-223.573 60.16-60.16 311.467 309.333c2.932-8.212 4.377-16.881 4.267-25.6v-128h85.333v298.667h-298.667zM725.333 53.333h-512v512h256v85.333h-256c-47.128 0-85.333-38.205-85.333-85.333v-512c0-47.128 38.205-85.333 85.333-85.333h512c47.128 0 85.333 38.205 85.333 85.333v256h-85.333v-256z" />
<glyph unicode="&#xe95d;" glyph-name="feedback" d="M810.667 629.333v-384h-499.2l-98.133-78.507v462.507h597.333zM810.667 714.667h-597.333c-47.128 0-85.333-38.205-85.333-85.333v-640l213.333 170.667h469.333c47.128 0 85.333 38.205 85.333 85.333v384c0 47.128-38.205 85.333-85.333 85.333zM477.867 416v170.667h68.267v-170.667h-68.267zM477.867 288v72.107h68.267v-72.107h-68.267z" />
<glyph unicode="&#xe95e;" glyph-name="filter" d="M800 650.667l-3.413-3.413-213.333-188.587-28.587-25.6v-379.733l-85.333 42.667v337.067l-28.587 25.6-213.333 187.307-3.413 4.693h576zM810.667 736h-597.333c-46.146 0.021-83.949-36.648-85.333-82.773 0-27.307 7.253-36.693 42.667-69.973l213.333-188.587v-298.667c0.017-32.382 18.361-61.964 47.36-76.373l85.333-42.667c11.796-5.879 24.793-8.946 37.973-8.96 47.128 0 85.333 38.205 85.333 85.333v341.333l213.333 188.587c23.666 16.45 39.188 42.216 42.667 70.827-1.833 45.79-39.506 81.957-85.333 81.92z" />
<glyph unicode="&#xe95f;" glyph-name="info" d="M469.333 608h85.333v-85.333h-85.333v85.333zM469.333 437.333h85.333v-341.333h-85.333v341.333z" />
<glyph unicode="&#xe960;" glyph-name="list" d="M298.667 480v85.333h597.333v-85.333h-597.333zM298.667 309.333v85.333h597.333v-85.333h-597.333zM298.667 138.667v85.333h597.333v-85.333h-597.333zM128 480v85.333h85.333v-85.333h-85.333zM128 309.333v85.333h85.333v-85.333h-85.333zM128 138.667v85.333h85.333v-85.333h-85.333z" />
<glyph unicode="&#xe961;" glyph-name="pin" d="M737.28 157.867l-97.28 194.133 71.68 143.787c9.015 17.707 13.695 37.303 13.653 57.173v140.373c0 47.128-38.205 85.333-85.333 85.333h-256c-47.128 0-85.333-38.205-85.333-85.333v-140.373c-0.041-19.87 4.638-39.466 13.653-57.173l71.68-143.787-97.28-194.133c-6.689-13.274-5.988-29.073 1.851-41.702s21.685-20.269 36.549-20.165h144.213l32-160.427c1.36-4.763 5.713-8.046 10.667-8.046s9.306 3.284 10.667 8.046l32 160.427h144.213c14.864-0.104 28.71 7.536 36.549 20.165s8.54 28.428 1.851 41.702zM384 693.333h256v-85.333h-256v85.333zM394.24 181.333l66.133 132.693 19.2 37.973-19.2 37.973-66.133 132.693h235.52l-66.133-132.693-19.2-37.973 19.2-37.973 66.133-132.693h-235.52z" />
<glyph unicode="&#xe962;" glyph-name="question" d="M533.333 96v-85.333h-85.333v85.333h85.333zM448 181.333c-2.557 16.256-2.557 32.811 0 49.067 7.099 39.576 25.129 76.377 52.053 106.24 3.413 4.267 3.413 4.267 45.653 45.653l40.533 40.533c15.876 17.044 27.051 37.922 32.427 60.587 0.912 30.603-10.816 60.232-32.427 81.92-24.666 26.716-59.215 42.14-95.573 42.667-70.692 0-128-57.308-128-128h-85.333c0 117.821 95.513 213.333 213.333 213.333 60.429-0.875 117.772-26.841 158.293-71.68 37.536-38.716 57.448-91.196 55.040-145.067-6.797-40.855-25.157-78.908-52.907-109.653-2.987-3.413-15.787-16.64-42.667-42.667l-3.413-2.987-39.68-39.68c-16.534-17.858-27.634-40.058-32-64-1.721-12.028-1.721-24.239 0-36.267h-85.333z" />
<glyph unicode="&#xe963;" glyph-name="refresh" d="M783.652 602.319l112.348 112.348v-298.667h-298.667l125.917 125.917c-68.247 68.129-167.862 101.539-268.484 81.866-150.926-29.509-254.774-168.798-239.97-321.867s143.42-269.876 297.203-269.916c132.11-0.034 248.548 86.73 286.293 213.333h88.32c-43.436-190.576-223.097-318.114-417.334-296.259s-341.064 186.129-341.064 381.592c0 195.463 146.827 359.737 341.064 381.592 119.875 13.488 234.197-29.925 314.373-109.94z" />
<glyph unicode="&#xe964;" glyph-name="rsvp-no" d="M853.333 650.667h-42.667v42.667c0 23.564-19.103 42.667-42.667 42.667s-42.667-19.103-42.667-42.667v-42.667h-170.667v42.667c0 23.564-19.103 42.667-42.667 42.667s-42.667-19.103-42.667-42.667v-42.667h-170.667v42.667c0 23.564-19.103 42.667-42.667 42.667s-42.667-19.103-42.667-42.667v-42.667h-42.667c-47.128 0-85.333-38.205-85.333-85.333v-512c0-47.128 38.205-85.333 85.333-85.333h682.667c47.128 0 85.333 38.205 85.333 85.333v512c0 47.128-38.205 85.333-85.333 85.333zM853.333 53.333h-682.667v341.333h682.667v-341.333zM170.667 480v85.333h42.667c0-23.564 19.103-42.667 42.667-42.667s42.667 19.103 42.667 42.667h170.667c0-23.564 19.103-42.667 42.667-42.667s42.667 19.103 42.667 42.667h170.667c0-23.564 19.103-42.667 42.667-42.667s42.667 19.103 42.667 42.667h42.667v-85.333h-682.667zM420.693 69.12l93.867 93.867 93.867-93.867 52.907 52.907-93.867 93.867 93.867 93.867-52.907 52.907-93.867-93.867-93.867 93.867-52.907-52.907 93.867-93.867-93.867-93.867z" />
<glyph unicode="&#xe965;" glyph-name="rsvp-yes" d="M853.333 650.667h-42.667v42.667c0 23.564-19.103 42.667-42.667 42.667s-42.667-19.103-42.667-42.667v-42.667h-170.667v42.667c0 23.564-19.103 42.667-42.667 42.667s-42.667-19.103-42.667-42.667v-42.667h-170.667v42.667c0 23.564-19.103 42.667-42.667 42.667s-42.667-19.103-42.667-42.667v-42.667h-42.667c-47.128 0-85.333-38.205-85.333-85.333v-512c0-47.128 38.205-85.333 85.333-85.333h682.667c47.128 0 85.333 38.205 85.333 85.333v512c0 47.128-38.205 85.333-85.333 85.333zM853.333 53.333h-682.667v341.333h682.667v-341.333zM170.667 480v85.333h42.667c0-23.564 19.103-42.667 42.667-42.667s42.667 19.103 42.667 42.667h170.667c0-23.564 19.103-42.667 42.667-42.667s42.667 19.103 42.667 42.667h170.667c0-23.564 19.103-42.667 42.667-42.667s42.667 19.103 42.667 42.667h42.667v-85.333h-682.667zM452.693 69.12l240.64 240.64-52.907 52.907-187.733-187.733-74.24 74.24-52.907-52.48 74.24-74.667z" />
<glyph unicode="&#xe966;" glyph-name="search" d="M896 28.16l-157.44 157.44c46.864 59.596 72.267 133.252 72.107 209.067 0 188.513-152.82 341.333-341.333 341.333s-341.333-152.82-341.333-341.333c0-188.513 152.82-341.333 341.333-341.333 75.815-0.161 149.47 25.243 209.067 72.107l157.44-157.44 60.16 60.16zM213.333 394.667c0 141.385 114.615 256 256 256s256-114.615 256-256c0-141.385-114.615-256-256-256s-256 114.615-256 256z" />
<glyph unicode="&#xe967;" glyph-name="slider-horizontal" d="M512 608v21.333c0 35.346-28.654 64-64 64h-42.667c-35.346 0-64-28.654-64-64v-21.333h-213.333v-85.333h213.333v-21.333c0-35.346 28.654-64 64-64h42.667c35.346 0 64 28.654 64 64v21.333h384v85.333h-384zM469.333 501.333c-0.227-11.687-9.647-21.106-21.333-21.333h-42.667c-11.687 0.227-21.106 9.647-21.333 21.333v128c0.227 11.687 9.647 21.106 21.333 21.333h42.667c11.687-0.227 21.106-9.647 21.333-21.333v-128zM810.667 416c0 35.346-28.654 64-64 64h-42.667c-35.346 0-64-28.654-64-64v-21.333h-512v-85.333h512v-21.333c0-35.346 28.654-64 64-64h42.667c35.346 0 64 28.654 64 64v21.333h85.333v85.333h-85.333v21.333zM768 288c-0.227-11.687-9.647-21.106-21.333-21.333h-42.667c-11.687 0.227-21.106 9.647-21.333 21.333v128c0.227 11.687 9.647 21.106 21.333 21.333h42.667c11.687-0.227 21.106-9.647 21.333-21.333v-128zM384 202.667c0 35.346-28.654 64-64 64h-42.667c-35.346 0-64-28.654-64-64v-21.333h-85.333v-85.333h85.333v-21.333c0-35.346 28.654-64 64-64h42.667c35.346 0 64 28.654 64 64v21.333h512v85.333h-512v21.333zM341.333 74.667c-0.227-11.687-9.647-21.106-21.333-21.333h-42.667c-11.687 0.227-21.106 9.647-21.333 21.333v128c0.227 11.687 9.647 21.106 21.333 21.333h42.667c11.687-0.227 21.106-9.647 21.333-21.333v-128z" />
<glyph unicode="&#xe968;" glyph-name="slider-vertical" d="M426.667 416v42.667c0 35.346-28.654 64-64 64h-21.333v213.333h-85.333v-213.333h-21.333c-35.346 0-64-28.654-64-64v-42.667c0-35.346 28.654-64 64-64h21.333v-384h85.333v384h21.333c35.346 0 64 28.654 64 64zM256 394.667h-21.333c-11.687 0.227-21.106 9.647-21.333 21.333v42.667c0.227 11.687 9.647 21.106 21.333 21.333h128c11.687-0.227 21.106-9.647 21.333-21.333v-42.667c-0.227-11.687-9.647-21.106-21.333-21.333h-106.667zM576 224h-21.333v512h-85.333v-512h-21.333c-35.346 0-64-28.654-64-64v-42.667c0-35.346 28.654-64 64-64h21.333v-85.333h85.333v85.333h21.333c35.346 0 64 28.654 64 64v42.667c0 35.346-28.654 64-64 64zM597.333 117.333c-0.227-11.687-9.647-21.106-21.333-21.333h-128c-11.687 0.227-21.106 9.647-21.333 21.333v42.667c0.227 11.687 9.647 21.106 21.333 21.333h128c11.687-0.227 21.106-9.647 21.333-21.333v-42.667zM789.333 650.667h-21.333v85.333h-85.333v-85.333h-21.333c-35.346 0-64-28.654-64-64v-42.667c0-35.346 28.654-64 64-64h21.333v-512h85.333v512h21.333c35.346 0 64 28.654 64 64v42.667c0 35.346-28.654 64-64 64zM810.667 544c-0.227-11.687-9.647-21.106-21.333-21.333h-128c-11.687 0.227-21.106 9.647-21.333 21.333v42.667c0.227 11.687 9.647 21.106 21.333 21.333h128c11.687-0.227 21.106-9.647 21.333-21.333v-42.667z" />
<glyph unicode="&#xe969;" glyph-name="star" d="M512 581.12l57.6-116.48 19.627-40.107 42.667-6.827 128-18.347-90.453-90.027-32.427-31.147 7.68-42.667 22.187-128-115.2 60.16-39.68 18.347-39.68-20.907-115.2-60.16 22.187 128 7.68 42.667-32.427 33.707-93.013 90.027 128 18.347 42.667 6.827 19.627 40.107 60.16 116.48zM512 719.36c-16.566 0.119-31.703-9.363-38.827-24.32l-95.147-192.853-213.333-30.72c-16.575-1.938-30.498-13.361-35.637-29.238s-0.551-33.292 11.744-44.575l154.027-150.187-36.693-213.333c-2.448-12.639 0.941-25.707 9.223-35.563s20.572-15.445 33.443-15.21c6.99 0.134 13.854 1.886 20.053 5.12l191.147 101.12 190.293-99.84c6.199-3.234 13.063-4.986 20.053-5.12 12.872-0.235 25.161 5.354 33.443 15.21s11.672 22.924 9.223 35.563l-36.693 213.333 154.027 150.187c12.295 11.283 16.883 28.699 11.744 44.575s-19.063 27.3-35.637 29.238l-213.333 30.72-94.293 189.867c-6.616 15.624-21.861 25.843-38.827 26.027z" />
<glyph unicode="&#xe96a;" glyph-name="sync" d="M783.36 623.36c-109.817 109.681-274.863 142.468-418.265 83.091s-236.959-199.242-237.095-354.451v-3.413h85.333v3.413c-0.891 121.751 72.213 231.855 184.768 278.284s242.025 19.887 327.232-67.084l-128-125.867h298.667v298.667l-112.64-112.64zM512 53.333c-78.909-0.573-154.837 30.105-211.2 85.333l125.867 128h-298.667v-298.667l112.64 112.64c109.817-109.681 274.863-142.468 418.265-83.091s236.959 199.242 237.095 354.451h-85.333c0-164.949-133.718-298.667-298.667-298.667z" />
<glyph unicode="&#xe96b;" glyph-name="toggle-minus" d="M256 395.52h512v-85.333h-512v85.333zM768 778.667h-512c-94.257 0-170.667-76.41-170.667-170.667v-512c0-94.257 76.41-170.667 170.667-170.667h512c94.257 0 170.667 76.41 170.667 170.667v512c0 94.257-76.41 170.667-170.667 170.667zM853.333 96c0-47.128-38.205-85.333-85.333-85.333h-512c-47.128 0-85.333 38.205-85.333 85.333v512c0 47.128 38.205 85.333 85.333 85.333h512c47.128 0 85.333-38.205 85.333-85.333v-512z" />
<glyph unicode="&#xe96c;" glyph-name="toggle-off" d="M682.667 608h-341.333c-141.385 0-256-114.615-256-256s114.615-256 256-256h341.333c141.385 0 256 114.615 256 256s-114.615 256-256 256zM682.667 181.333h-341.333c-94.257 0-170.667 76.41-170.667 170.667s76.41 170.667 170.667 170.667h341.333c94.257 0 170.667-76.41 170.667-170.667s-76.41-170.667-170.667-170.667zM469.333 352c0-70.692-57.308-128-128-128s-128 57.308-128 128c0 70.692 57.308 128 128 128s128-57.308 128-128z" />
<glyph unicode="&#xe96d;" glyph-name="toggle-on" d="M682.667 608h-341.333c-141.385 0-256-114.615-256-256s114.615-256 256-256h341.333c141.385 0 256 114.615 256 256s-114.615 256-256 256zM682.667 181.333h-341.333c-94.257 0-170.667 76.41-170.667 170.667s76.41 170.667 170.667 170.667h341.333c94.257 0 170.667-76.41 170.667-170.667s-76.41-170.667-170.667-170.667zM810.667 352c0-70.692-57.308-128-128-128s-128 57.308-128 128c0 70.692 57.308 128 128 128s128-57.308 128-128z" />
<glyph unicode="&#xe96e;" glyph-name="toggle-plus" d="M554.667 608.427h-85.333v-213.333h-213.333v-85.333h213.333v-213.333h85.333v213.333h213.333v85.333h-213.333zM768 778.667h-512c-94.257 0-170.667-76.41-170.667-170.667v-512c0-94.257 76.41-170.667 170.667-170.667h512c94.257 0 170.667 76.41 170.667 170.667v512c0 94.257-76.41 170.667-170.667 170.667zM853.333 96c0-47.128-38.205-85.333-85.333-85.333h-512c-47.128 0-85.333 38.205-85.333 85.333v512c0 47.128 38.205 85.333 85.333 85.333h512c47.128 0 85.333-38.205 85.333-85.333v-512z" />
<glyph unicode="&#xe96f;" glyph-name="triangle-warning" d="M490.667 416.853h85.333v-256h-85.333v256zM490.667 118.187h85.333v-85.333h-85.333v85.333zM571.307 734.72c-7.3 14.249-21.963 23.212-37.973 23.212s-30.673-8.963-37.973-23.212l-384-768c-7.068-13.274-6.627-29.288 1.161-42.152s21.774-20.678 36.812-20.568h768c14.788 0.045 28.498 7.744 36.234 20.347s8.394 28.314 1.739 41.52l-384 768.853zM218.453-10.667l314.88 631.040 314.88-631.040h-629.76z" />
<glyph unicode="&#xe970;" glyph-name="warning" d="M469.333 650.667h85.333v-426.24h-85.333v426.24zM469.333 138.667h85.333v-85.333h-85.333v85.333z" />
<glyph unicode="&#xe971;" glyph-name="zoom-in" d="M512 565.333h-85.333v-128h-128v-85.333h128v-128h85.333v128h128v85.333h-128zM896 28.16l-157.44 157.44c46.864 59.596 72.267 133.252 72.107 209.067 0 188.513-152.82 341.333-341.333 341.333s-341.333-152.82-341.333-341.333c0-188.513 152.82-341.333 341.333-341.333 75.815-0.161 149.47 25.243 209.067 72.107l157.44-157.44 60.16 60.16zM213.333 394.667c0 141.385 114.615 256 256 256s256-114.615 256-256c0-141.385-114.615-256-256-256s-256 114.615-256 256z" />
<glyph unicode="&#xe972;" glyph-name="zoom-out" d="M298.667 437.333h341.333v-85.333h-341.333v85.333zM896 28.16l-157.44 157.44c46.864 59.596 72.267 133.252 72.107 209.067 0 188.513-152.82 341.333-341.333 341.333s-341.333-152.82-341.333-341.333c0-188.513 152.82-341.333 341.333-341.333 75.815-0.161 149.47 25.243 209.067 72.107l157.44-157.44 60.16 60.16zM213.333 394.667c0 141.385 114.615 256 256 256s256-114.615 256-256c0-141.385-114.615-256-256-256s-256 114.615-256 256z" />
<glyph unicode="&#xe973;" glyph-name="add-image" d="M896 565.333h-85.333v128h-85.333v-128h-128v-85.333h128v-128h85.333v128h128v85.333zM853.333 394.667v-213.333l-213.333 213.333-192-192-106.667 106.667-170.667-170.667v469.333h469.333v85.333h-469.333c-47.128 0-85.333-38.205-85.333-85.333v-512c0-47.128 38.205-85.333 85.333-85.333h682.667c47.128 0 85.333 38.205 85.333 85.333v298.667h-85.333zM213.333 96l128 128 128-128h-256zM554.667 96l-64 64 149.333 149.333 213.333-213.333h-298.667zM234.667 458.667c0-58.91 47.756-106.667 106.667-106.667s106.667 47.756 106.667 106.667c0 58.91-47.756 106.667-106.667 106.667s-106.667-47.756-106.667-106.667zM394.667 458.667c0-29.455-23.878-53.333-53.333-53.333s-53.333 23.878-53.333 53.333c0 29.455 23.878 53.333 53.333 53.333s53.333-23.878 53.333-53.333z" />
<glyph unicode="&#xe974;" glyph-name="attachment" d="M574.597 216.443l-45.227-45.227c-54.211-54.211-104.132-74.030-156.204-51.714l-6.794 3.672c-7.626 5.064-14.976 10.533-22.016 16.384l-5.355 5.318c-5.684 6.745-11.008 13.785-15.948 21.093l-3.684 6.662c-23.118 52.357-2.509 104.649 51.456 156.986l179.068 179.908 59.307 61.867 61.601-59.052-59.866-62.439-180.161-181.007c-29.453-28.57-37.788-46.414-34.344-58.979 1.741-2.423 3.547-4.798 5.417-7.123 2.553-2.027 5.163-3.981 7.828-5.858 12.501-3.339 29.447 4.713 59.357 34.623l226.133 226.133c59.702 59.702 72.147 139.15 36.575 174.445-35.059 35.335-114.507 22.89-174.209-36.812l-226.133-226.133c-84.388-84.388-96.964-205.267-34.133-267.767 62.807-62.807 183.724-50.336 267.767 33.707l241.493 241.493 60.34-60.34-241.493-241.493c-114.933-114.933-289.242-132.911-388.367-33.786-99.381 98.858-81.24 273.232 34.054 388.526l226.133 226.133c89.709 89.709 221.866 110.41 294.888 36.811 73.835-73.258 53.134-205.416-36.575-295.125l-180.907-180.907z" />
<glyph unicode="&#xe975;" glyph-name="cloud" d="M789.333 382.293c-13.682 134.81-119.361 241.919-253.975 257.412s-261.862-64.808-305.812-192.986c-98.842-16.19-168.94-105.205-161.504-205.087s89.942-177.537 190.091-178.913h488.533c75.512-2.291 143.185 46.322 165.12 118.613 11.648 42.951 5.13 88.801-18.027 126.804s-60.916 64.817-104.427 74.156zM305.92 442.88c41.576 93.072 142.585 144.382 242.267 123.066s170.872-109.45 170.747-211.386c0-8.107 0-23.467 0-23.467 24.023-5.312 47.569-12.589 70.4-21.76 23.133-9.012 41.517-27.176 50.807-50.198s8.66-48.859-1.74-71.402c-15.953-32.368-49.259-52.518-85.333-51.627h-494.933c-32.172-0.114-63.059 12.616-85.808 35.365s-35.479 53.636-35.365 85.808c0 66.56 34.56 122.88 148.907 135.253 5.145 17.355 11.857 34.207 20.053 50.347z" />
<glyph unicode="&#xe976;" glyph-name="contact" d="M853.333 778.667h-682.667c-47.128 0-85.333-38.205-85.333-85.333v-682.667c0-47.128 38.205-85.333 85.333-85.333h682.667c47.128 0 85.333 38.205 85.333 85.333v682.667c0 47.128-38.205 85.333-85.333 85.333zM213.333 10.667h-42.667v682.667h42.667v-682.667zM853.333 10.667h-554.667v682.667h554.667v-682.667zM576 330.667c76.583 0 138.667 62.083 138.667 138.667s-62.083 138.667-138.667 138.667c-76.583 0-138.667-62.083-138.667-138.667 0.234-76.486 62.18-138.432 138.667-138.667zM576 538.88c28.167 0.173 53.657-16.662 64.556-42.635s5.055-55.957-14.801-75.935c-19.856-19.979-49.803-26.008-75.843-15.268s-43.031 36.125-43.032 64.293c-0.114 18.406 7.118 36.096 20.093 49.151s30.621 20.396 49.027 20.395zM576 221.44c55.467 0 149.333-22.613 149.333-107.947h85.333c0 113.92-96.427 193.28-234.667 193.28s-234.667-79.36-234.667-193.28h85.333c0 85.333 93.867 107.947 149.333 107.947zM375.040 53.333h401.92c8.49-0.465 16.816 2.468 23.14 8.152s10.126 13.65 10.567 22.142v29.867h-469.333v-29.867c0.441-8.491 4.243-16.458 10.567-22.142s14.65-8.617 23.14-8.152z" />
<glyph unicode="&#xe977;" glyph-name="create-folder" d="M853.333 96h-682.667v421.973c18.584 31.664 39.702 61.771 63.147 90.027h132.693l85.333-85.333h188.16v85.333h-153.173l-85.333 85.333h-208.213l-12.8-15.787c-95.147-116.053-95.147-143.36-95.147-154.88v-426.667c0-47.128 38.205-85.333 85.333-85.333h682.667c47.128 0 85.333 38.205 85.333 85.333v213.333h-85.333v-213.333zM810.667 480v128h-85.333v-128h-128v-85.333h128v-128h85.333v128h128v85.333z" />
<glyph unicode="&#xe978;" glyph-name="delay" d="M653.653 201.813l42.667 74.24-142.080 81.92v249.6h-85.333v-299.093zM512 736c-101.513-0.315-198.771-40.814-270.507-112.64l-113.493 112.64v-298.667h298.667l-125.013 125.867c101.13 100.327 259.037 115.268 377.19 35.69s163.659-231.523 108.7-362.947c-54.959-131.424-195.084-205.741-334.713-177.52s-239.892 151.125-239.497 293.577h-85.333c0-212.077 171.923-384 384-384s384 171.923 384 384c0 212.077-171.923 384-384 384z" />
<glyph unicode="&#xe979;" glyph-name="file-copy" d="M687.787 778.667h-311.893c-9.126 0.114-17.918-3.432-24.412-9.845s-10.149-15.161-10.148-24.288v-614.4c-0.001-9.127 3.654-17.874 10.148-24.288s15.286-9.959 24.412-9.845h485.547c9.126-0.114 17.918 3.432 24.412 9.845s10.149 15.161 10.148 24.288v443.733l-208.213 204.8zM715.947 631.467l69.547-68.267h-69.547v68.267zM426.667 181.333v512h219.733v-133.547c0-18.406 7.34-36.052 20.395-49.027s30.746-20.207 49.151-20.093h94.72v-309.333h-384zM597.333 17.067h-384v505.6h85.333v85.333h-77.227c-46.433 0.563-86.234-33.059-93.44-78.933v-518.4c7.206-45.874 47.007-79.496 93.44-78.933h384c20.708 0.225 40.479 8.668 54.962 23.471s22.492 34.754 22.264 55.462v49.067h-85.333v-42.667z" />
<glyph unicode="&#xe97a;" glyph-name="file-pdf" d="M583.253 228.693c-29.837 18.559-52.077 47.152-62.72 80.64 10.099 30.933 13.161 63.732 8.96 96-2.491 16.849-15.783 30.043-32.65 32.41s-33.277-6.658-40.31-22.17c-5.105-38.806-1.013-78.268 11.947-115.2-17.998-43.673-38.22-86.395-60.587-128-34.133-17.493-80.64-44.8-85.333-79.36-5.973-26.88 42.667-94.293 130.133 53.76 37.671 14.256 76.311 25.806 115.627 34.56 29.261-16.823 61.918-26.882 95.573-29.44 15.876-0.274 30.386 8.943 36.886 23.429s3.739 31.453-7.019 43.131c-20.907 19.627-80.64 14.080-110.507 10.24zM354.56 84.053c13.162 23.199 30.694 43.629 51.627 60.16-31.147-48.213-49.92-60.16-51.627-60.16zM494.080 410.88c12.8 0 11.52-55.040 2.987-69.973-6.819 22.71-7.846 46.765-2.987 69.973zM451.413 177.067c16.825 29.891 31.098 61.149 42.667 93.44 12.801-23.691 30.381-44.467 51.627-61.013-31.927-8.413-63.165-19.253-93.44-32.427h-0.853zM676.693 185.173c0 0-8.107-10.24-63.573 13.653 61.013 4.267 69.547-9.387 64.427-13.653h-0.853zM597.333 778.667h-384c-23.564 0-42.667-19.103-42.667-42.667v-768c0-23.564 19.103-42.667 42.667-42.667h597.333c23.564 0 42.667 19.103 42.667 42.667v554.667l-256 256zM732.587 522.667h-92.587v92.587l92.587-92.587zM768 10.667h-512v682.667h298.667v-170.667c0-47.128 38.205-85.333 85.333-85.333h128v-426.667z" />
<glyph unicode="&#xe97b;" glyph-name="folder" d="M487.006 608h366.327c47.128 0 85.333-38.205 85.333-85.333v-426.667c0-47.128-38.205-85.333-85.333-85.333h-682.667c-47.128 0-85.333 38.205-85.333 85.333v426.667c0 22.629 13.222 45.333 42.546 86.453 2.696 3.781 5.496 7.648 8.391 11.592 9.645 13.141 19.925 26.582 30.199 39.639 6.169 7.84 10.993 13.844 13.812 17.297l12.804 15.685h208.588l85.333-85.333zM170.667 522.667v-426.667h682.667v426.667h-401.673l-85.333 85.333h-132.467c-10.055-12.778-19.774-25.486-28.796-37.779-2.671-3.639-5.244-7.192-7.707-10.646-9.362-13.128-16.903-24.495-22.054-33.34-2.248-3.86-3.921-7.041-4.937-9.303 0.020 0.311 0.302 1.91 0.302 5.734z" />
<glyph unicode="&#xe97c;" glyph-name="telephone" d="M298.667 672c17.067-8.533 51.2-42.667 68.267-64l12.8-12.8c8.533-8.533 12.8-12.8 21.333-21.333 12.8-17.067 21.333-21.333 21.333-25.6s-4.267-8.533-17.067-21.333c-25.6-21.333-42.667-46.933-46.933-81.067s8.533-68.267 29.867-93.867c38.4-55.467 89.6-102.4 145.067-136.533 17.067-12.8 42.667-21.333 64-21.333 4.267 0 8.533 0 8.533 0 25.6 4.267 51.2 17.067 68.267 34.133s29.867 25.6 34.133 29.867c4.267-4.267 17.067-12.8 34.133-34.133 8.533-8.533 17.067-17.067 21.333-21.333 17.067-17.067 38.4-34.133 55.467-55.467l8.533-8.533c4.267 0 4.267-4.267 4.267-8.533s0-4.267-4.267-8.533l-8.533-8.533c-21.333-21.333-42.667-42.667-68.267-68.267l-12.8-12.8c-8.533-8.533-17.067-12.8-25.6-12.8 0 0-4.267 0-4.267 0h-8.533c-8.533 0-21.333 4.267-29.867 8.533h-8.533c-196.267 98.133-362.667 260.267-452.267 465.067-25.6 59.733-25.6 64 21.333 110.933 21.333 21.333 51.2 55.467 68.267 68.267zM298.667 736c-29.867 0-59.733-29.867-115.2-85.333-64-68.267-72.533-98.133-34.133-183.467 98.133-221.867 277.333-392.533 499.2-486.4 17.067-8.533 38.4-12.8 59.733-12.8 0 0 0 0 0 0 4.267 0 4.267 0 8.533 0 25.6 0 51.2 12.8 72.533 29.867 25.6 25.6 55.467 51.2 81.067 76.8 17.067 12.8 25.6 34.133 25.6 55.467s-8.533 42.667-25.6 55.467c-25.6 29.867-51.2 55.467-76.8 81.067-34.133 34.133-59.733 55.467-81.067 55.467s-46.933-17.067-81.067-51.2c-8.533-8.533-17.067-12.8-29.867-17.067 0 0-4.267 0-4.267 0-8.533 0-21.333 4.267-25.6 8.533-51.2 34.133-98.133 76.8-132.267 123.733-12.8 17.067-17.067 34.133-17.067 51.2s12.8 29.867 25.6 38.4c55.467 55.467 51.2 85.333 0 140.8-12.8 8.533-21.333 21.333-34.133 34.133-55.467 55.467-85.333 85.333-115.2 85.333v0z" />
<glyph unicode="&#xe97d;" glyph-name="guides" d="M513.138 54.624l408.468 239.778c16.443 9.653 16.422 33.64-0.039 43.262-7.71 4.508-17.218 4.491-24.906-0.049l-383.413-226.002c-7.701-4.544-17.236-4.552-24.954-0.013l-56.002 32.919-238.999 138.948c-7.679 4.468-12.411 12.729-12.411 21.675v9.631c0 19.253 20.637 31.288 37.155 21.666l270.31-157.533c7.688-4.486 17.17-4.473 24.849 0.035l408.411 239.743c16.443 9.653 16.422 33.64-0.039 43.262l-0.026 0.013c-7.692 4.499-17.183 4.491-24.867-0.027l-383.435-225.197c-7.701-4.522-17.218-4.517-24.919 0.009l-56.029 32.933-238.999 138.952c-7.679 4.464-12.411 12.729-12.411 21.671v9.565c0 19.266 20.668 31.297 37.186 21.649l269.408-157.436c7.692-4.491 17.179-4.482 24.858 0.027l408.42 239.747c16.439 9.653 16.422 33.635-0.031 43.262l-321.689 188.185c-7.688 4.495-17.17 4.491-24.853-0.009l-433.838-254.192c-7.639-4.473-12.341-12.716-12.341-21.631v-347.345c0-8.955 4.737-17.22 12.425-21.684l347.948-201.798c7.679-4.438 17.118-4.407 24.766 0.084l408.468 239.774c16.443 9.653 16.422 33.644-0.039 43.266-7.71 4.499-17.218 4.482-24.906-0.049l-383.413-226.006c-7.701-4.544-17.236-4.548-24.954-0.013l-56.002 32.924-238.999 138.948c-7.679 4.464-12.411 12.729-12.411 21.671v52.937l-0.285 0.844 307.776-178.479c7.679-4.433 17.118-4.407 24.766 0.084z" />
<glyph unicode="&#xe97e;" glyph-name="sentimeter" d="M512.776 12.275c-187.196 0-338.948 151.753-338.948 338.948s151.753 338.953 338.948 338.953c187.196 0 338.948-151.757 338.948-338.953s-151.753-338.948-338.948-338.948zM512 778.667c-235.639 0-426.667-191.023-426.667-426.667 0-235.639 191.027-426.667 426.667-426.667 235.644 0 426.667 191.027 426.667 426.667 0 235.644-191.023 426.667-426.667 426.667zM684.005 349.867c-0.469-93.909-76.719-169.89-170.739-169.89-94.016 0-170.266 75.981-170.735 169.89h-82.47c0.004-0.055 0-0.102 0-0.158 0-140.407 113.822-254.234 254.234-254.234 140.407 0 254.234 113.826 254.234 254.234 0 0.055-0.004 0.102 0 0.158h-84.523z" />
<glyph unicode="&#xe97f;" glyph-name="sharepoint" d="M855.862 415.161c-5.649 0-11.16-0.591-16.476-1.692-20.528 52.616-60.591 95.292-111.343 119.324 0.415 3.328 0.706 6.703 0.706 10.149 0 44.564-36.131 80.685-80.695 80.685-18.888 0-36.217-6.545-49.965-17.419v-126.546c13.749-10.874 31.078-17.415 49.965-17.415 27.531 0 51.805 13.811 66.365 34.848 41.594-20.504 74.149-56.282 90.463-100.102-18.125-14.793-29.709-37.299-29.709-62.517 0-25.5 11.866-48.211 30.343-63.004-16.089-44.616-48.959-81.071-91.097-101.866-14.564 21.043-38.839 34.848-66.374 34.848-18.878 0-36.212-6.541-49.956-17.405v-126.56c13.744-10.879 31.078-17.415 49.956-17.415 44.569 0 80.7 36.131 80.7 80.695 0 3.442-0.291 6.817-0.701 10.14 51.419 24.351 91.831 67.861 112.101 121.426 5.087-1.001 10.34-1.554 15.718-1.554 44.564 0 80.695 36.136 80.695 80.695 0 44.569-36.131 80.685-80.695 80.685zM350.309 175.426c-38.2-27.712-88.237-15.994-128.453 0.539-0.529 23.402-1.077 46.795-1.864 70.331 25.819-19.098 64.014-47.2 94.801-21.109 23.812 39.945-22.983 65.368-50.027 84.733-58.093 35.106-60.248 131.127-3.904 168.655 32.956 20.842 73.172 14.249 109.489 9.153 0.524-22.067 1.077-44.259 1.602-66.312-30.262 9.549-68.848 28.775-93.738-2.012-17.353-45.336 37.523-62.413 64.029-86.082 51.777-33.49 56.215-119.572 8.066-157.895zM86.333 646.061l-1.001-627.643 468.485-85.171v797.986l-467.484-85.171z" />
<glyph unicode="&#xe980;" glyph-name="sitecore" d="M514.424 42.028c-171.605 0-310.715 139.19-310.715 310.896 0 171.702 139.11 310.896 310.715 310.896 171.601 0 310.711-139.195 310.711-310.896 0-171.706-139.11-310.896-310.711-310.896zM510.272 775.717c-234.679 0-424.939-190.369-424.939-425.192 0-234.831 190.259-425.192 424.939-425.192 234.692 0 424.943 190.361 424.943 425.192 0 234.823-190.251 425.192-424.943 425.192zM227.556 280.889c0 0 50.633-191.114 248.448-211.584 197.823-20.478 296.737 145.605 296.737 145.605l-52.99 31.853c0 0-82.435-134.23-229.612-129.681-147.19 4.549-221.368 89.863-262.583 163.807zM319.173 165.385c44.576-31.636 97.162-48.34 158.656-50.31 140.902-4.501 222.122 129.098 222.92 130.439l3.876 6.521 56.031-34.834c45.547 74.776 34.646 158.503 34.646 158.503l-91.694-1.076c0 0 7.068-135.252-155.38-211.694-67.654-31.835-181.261-26.642-249.561 27.047 0 0 5.978-10.693 20.506-24.596zM712.742 367.855l-0.415 7.758 7.999 0.093 99.822 1.001c-4.454 75.116-62.975 141.219-62.975 141.219l-112.004-67.375c0 0 71.301-51.752 6.742-174.063-22.451-42.54-70.76-88.483-115.113-108.664-54.234-24.67-95.91-25.942-95.91-25.942 5.48-2.116 57.919-12.257 131.473 19.472 145.091 62.584 140.651 201.154 140.38 206.5z" />
<glyph unicode="&#xe981;" glyph-name="sitefinity" d="M129.826 90.155l193.59-122.763v234.164zM128 418.885l283.077-162.533v-328.738l195.413 111.406v330.562l-284.906 162.538zM526.136 778.669l-226.465-129.668 399.96-226.46v-455.148l219.156 124.587v454.749z" />
<glyph unicode="&#xe982;" glyph-name="swiit" d="M512-74.667h85.333v746.667h-85.333zM256 709.47l75.319-730.803 95.347 15.864-75.319 730.803zM708.728 778.667l-26.061-741.459 101.939-5.208 26.061 741.459z" />
<glyph unicode="&#xe983;" glyph-name="wordpress" d="M848.616 536.048c29.943-54.635 46.98-117.335 46.98-184.031 0-141.522-76.694-265.077-190.736-331.569l117.162 338.761c21.885 54.724 29.171 98.486 29.171 137.395 0 14.12-0.93 27.226-2.577 39.444zM564.867 531.875c23.091 1.214 43.902 3.643 43.902 3.643 20.671 2.445 18.234 32.821-2.445 31.612 0 0-62.137-4.874-102.243-4.874-37.695 0-101.033 4.874-101.033 4.874-20.684 1.21-23.108-30.389-2.433-31.612 0 0 19.567-2.428 40.234-3.643l59.763-163.755-83.958-251.767-139.684 415.522c23.108 1.214 43.894 3.643 43.894 3.643 20.663 2.445 18.217 32.821-2.45 31.612 0 0-62.128-4.874-102.239-4.874-7.196 0-15.678 0.178-24.687 0.463 68.594 104.136 186.49 172.904 320.511 172.904 99.866 0 190.795-38.183 259.045-100.719-1.656 0.106-3.269 0.31-4.971 0.31-37.683 0-64.421-32.826-64.421-68.084 0-31.612 18.243-58.358 37.683-89.969 14.587-25.549 31.624-58.371 31.624-105.796 0-32.826-12.626-70.924-29.188-124.009l-38.273-127.834-138.631 412.355zM511.998-31.614c-37.653 0-73.998 5.523-108.37 15.632l115.107 334.443 117.901-323.040c0.777-1.898 1.732-3.643 2.751-5.286-39.873-14.040-82.719-21.749-127.389-21.749zM128.391 352.017c0 55.62 11.934 108.412 33.221 156.118l182.988-501.352c-127.975 62.17-216.209 193.401-216.209 345.235zM511.998 778.667c-235.262 0-426.665-191.393-426.665-426.65 0-235.265 191.402-426.684 426.665-426.684 235.258 0 426.669 191.418 426.669 426.684 0 235.257-191.411 426.65-426.669 426.65z" />
<glyph unicode="&#xe984;" glyph-name="accordion" d="M732.917 619.186l67.3 64.789 66.041-66.028-133.342 1.24zM845.792 734.194h-669.942c-49.993 0-90.515-39.753-90.515-88.798v-7.914c0-49.040 40.522-88.798 90.515-88.798h669.942c49.993 0 90.519 39.757 90.519 88.798v7.914c0 49.045-40.526 88.798-90.519 88.798zM732.917 334.742l67.3 64.789 66.041-66.028-133.342 1.24zM845.792 447.437h-669.942c-49.993 0-90.515-39.753-90.515-88.798v-7.914c0-49.040 40.522-88.798 90.515-88.798h669.942c49.993 0 90.519 39.757 90.519 88.798v7.914c0 49.045-40.526 88.798-90.519 88.798zM732.917 50.297l67.3 64.789 66.041-66.028-133.342 1.24zM845.792 162.993h-669.942c-49.993 0-90.515-39.753-90.515-88.798v-7.914c0-49.040 40.522-88.798 90.515-88.798h669.942c49.993 0 90.519 39.757 90.519 88.798v7.914c0 49.045-40.526 88.798-90.519 88.798z" />
<glyph unicode="&#xe985;" glyph-name="button" d="M893.623 230.417l-82.557-50.521c-6.298-3.774-8.172-11.844-4.152-17.962l52.003-80.195c3.89-6.118 2.010-14.194-4.152-17.973l-19.434-11.844c-2.414-1.424-4.827-2.080-7.371-2.080-4.424 0-8.848 2.212-11.392 6.113l-52.003 80.201c-2.55 3.901-6.968 6.118-11.392 6.118-2.414 0-4.958-0.651-7.104-1.953l-82.557-50.516c-1.874-1.175-3.89-1.694-5.628-1.694-3.89 0-7.104 2.731-7.775 7.679l-54.951 337.854c-0.806 4.816 0.811 7.42 3.754 7.42 1.471 0 3.215-0.651 5.23-1.953l289.764-194.383c6.031-4.033 5.895-10.537-0.267-14.316l-0.016 0.005zM916.674 276.9l-289.764 194.246c-8.712 5.854-18.361 8.854-28.015 8.854-12.869 0-25.062-5.467-33.376-14.84-8.848-10.024-12.466-23.435-10.188-37.761l54.951-337.844c3.89-23.562 23.858-40.624 47.579-40.624 9.382 0 18.764 2.736 27.072 7.689l59.909 36.586 37.664-58.195c9.916-15.231 26.805-24.345 45.438-24.345 10.052 0 19.978 2.731 28.549 7.939l19.434 11.844c12.062 7.42 20.507 19.010 23.722 32.548s0.67 27.462-6.832 39.317l-37.664 58.195 59.909 36.581c14.476 8.854 23.188 23.44 23.591 39.322s-7.911 31.119-21.978 40.492v-0.005zM189.518 392.492v173.471c0 16.3 13.678 29.517 30.551 29.517h581.383c16.868 0 30.546-13.217 30.546-29.517v-108.22l104.186-68.947v213.539c0 48.031-40.29 86.959-89.992 86.959h-670.869c-49.702 0-89.992-38.927-89.992-86.959v-246.225c0-48.022 40.29-86.959 89.992-86.959h310.112l-15.653 93.819h-249.714c-16.873 0-30.551 13.217-30.551 29.521z" />
<glyph unicode="&#xe986;" glyph-name="card" d="M601.575 28.032c0-29.376-23.818-53.194-53.194-53.194h-360.352c-29.376 0-53.194 23.818-53.194 53.194v460.692c0 29.376 23.818 53.194 53.194 53.194h360.352c29.376 0 53.194-23.818 53.194-53.194v-460.692zM547.975 684.377h-357.184c-58.239 0-105.46-47.216-105.46-105.46v-545.766c0-58.248 47.221-105.46 105.46-105.46h357.184c58.244 0 105.46 47.211 105.46 105.46v545.766c0 58.244-47.216 105.46-105.46 105.46zM229.127 352h282.873v99.006h-282.873zM229.127 163.418h282.873v99.006h-282.873zM700.582 446.291h94.291v99.006h-94.291zM700.582 257.709h94.291v99.006h-94.291zM830.847 778.667h-357.184c-35.647 0-67.145-17.708-86.234-44.788h193.263c58.621 0 107.379-42.082 117.802-97.671h132.757c29.376 0 53.194-23.818 53.194-53.194v-460.692c0-29.376-23.818-53.194-53.194-53.194h-130.673v-47.145h130.268c58.244 0 105.46 47.216 105.46 105.46v545.766c0 58.244-47.216 105.46-105.46 105.46z" />
<glyph unicode="&#xe987;" glyph-name="checklist" d="M450.454 731.971l-181.892-170.324c-8.679-8.13-22.854-8.071-31.455 0.122l-32.648 31.104c-8.582 8.18-22.703 8.256-31.392 0.185-8.567-7.953-8.626-20.84-0.131-28.861l67.617-63.854c8.616-8.134 22.727-8.166 31.382-0.068l213.337 199.57c8.567 8.012 8.543 20.944-0.049 28.929l-3.51 3.256c-8.64 8.026-22.654 7.999-31.26-0.059zM408.815 578.61v-83.205c0-22.212-18.012-40.224-40.223-40.224h-195.41c-22.221 0-40.223 18.012-40.223 40.224v195.412c0 22.216 18.002 40.224 40.223 40.224h186.905l40.532 40.537c-10.337 4.536-21.74 7.089-33.746 7.089h-197.369c-46.487 0-84.17-37.684-84.17-84.171v-197.372c0-46.488 37.683-84.171 84.17-84.171h197.369c46.487 0 84.175 37.684 84.175 84.171v123.719l-42.233-42.233zM919.801 660.164h-370.875c-8.547 0-15.477 5.94-15.477 13.27v48.924c0 7.33 6.931 13.27 15.477 13.27h370.875c8.551 0 15.482-5.94 15.482-13.27v-48.924c0-7.33-6.931-13.27-15.482-13.27zM919.801 455.127h-370.875c-8.547 0-15.477 6.237-15.477 13.934v51.371c0 7.696 6.931 13.934 15.477 13.934h370.875c8.551 0 15.482-6.237 15.482-13.934v-51.371c0-7.696-6.931-13.934-15.482-13.934zM454.517 260.606l-181.892-170.324c-8.679-8.13-22.854-8.071-31.455 0.122l-32.648 31.104c-8.582 8.18-22.703 8.256-31.392 0.185-8.567-7.953-8.626-20.84-0.131-28.861l67.617-63.854c8.616-8.134 22.727-8.166 31.382-0.068l213.337 199.57c8.567 8.012 8.543 20.944-0.049 28.929l-3.51 3.256c-8.64 8.026-22.654 7.999-31.26-0.059zM408.815 109.276v-83.205c0-22.212-18.012-40.224-40.223-40.224h-195.41c-22.221 0-40.223 18.012-40.223 40.224v195.412c0 22.216 18.002 40.224 40.223 40.224h186.905l40.532 40.537c-10.337 4.536-21.74 7.089-33.746 7.089h-197.369c-46.487 0-84.17-37.684-84.17-84.171v-197.372c0-46.488 37.683-84.171 84.17-84.171h197.369c46.487 0 84.175 37.684 84.175 84.171v123.719l-42.233-42.233zM899.483 188.799h-370.875c-8.547 0-15.477 5.94-15.477 13.27v48.924c0 7.33 6.931 13.27 15.477 13.27h370.875c8.551 0 15.482-5.94 15.482-13.27v-48.924c0-7.33-6.931-13.27-15.482-13.27zM899.483-26.396h-370.875c-8.547 0-15.477 6.237-15.477 13.934v51.371c0 7.696 6.931 13.934 15.477 13.934h370.875c8.551 0 15.482-6.237 15.482-13.934v-51.371c0-7.696-6.931-13.934-15.482-13.934z" />
<glyph unicode="&#xe988;" glyph-name="container" d="M844.376 53.904c0-17.632-14.295-31.922-31.922-31.922h-598.55c-17.632 0-31.922 14.29-31.922 31.922v598.545c0 17.628 14.29 31.927 31.922 31.927h598.55c17.628 0 31.922-14.299 31.922-31.927v-598.545zM830.208 778.667h-636.417c-59.898 0-108.458-48.56-108.458-108.458v-636.422c0-59.898 48.56-108.453 108.458-108.453h636.417c59.898 0 108.458 48.555 108.458 108.453v636.422c0 59.898-48.56 108.458-108.458 108.458z" />
<glyph unicode="&#xe989;" glyph-name="dropdown" d="M845.038 307.676l-68.722 69.494h137.444l-68.722-69.494zM749.038 232.108c0-23.807-19.081-43.103-42.624-43.103h-531.048c-23.543 0-42.624 19.296-42.624 43.103v239.787c0 23.802 19.081 43.103 42.624 43.103h531.048c23.543 0 42.624-19.301 42.624-43.103v-239.787zM844.251 560.541h-666.871c-50.84 0-92.046-41.674-92.046-93.080v-232.912c0-51.411 41.207-93.080 92.046-93.080h666.871c50.835 0 92.046 41.67 92.046 93.080v232.912c0 51.406-41.211 93.080-92.046 93.080zM182.519 301.864h516.741v98.277h-516.741z" />
<glyph unicode="&#xe98a;" glyph-name="footer" d="M291.467 691.636h438.946c19.882 0 35.999-16.137 35.999-36.040v-437.841c0-19.907-16.117-36.040-35.999-36.040h-438.946c-19.878 0-35.995 16.133-35.995 36.040v437.841c0 19.903 16.117 36.040 35.995 36.040zM261.697-73.010h498.491c50.271 0 91.028 40.803 91.028 91.137v669.4c0 50.338-40.756 91.141-91.028 91.141h-498.491c-50.276 0-91.028-40.803-91.028-91.141v-669.4c0-50.334 40.752-91.137 91.028-91.137z" />
<glyph unicode="&#xe98b;" glyph-name="grid" d="M383.643 736h-169.953c-47.13 0-85.69-38.4-85.69-85.333v-170.667c0-46.933 38.561-85.333 85.69-85.333h169.953c47.13 0 85.69 38.4 85.69 85.333v170.667c0 46.933-38.561 85.333-85.69 85.333zM383.489 650.667c0.056-0.043 0.111-0.098 0.154-0.154v-170.359c-0.043-0.055-0.099-0.111-0.154-0.154h-169.645c-0.056 0.043-0.111 0.098-0.154 0.154v170.359c0.043 0.055 0.099 0.111 0.154 0.154h169.645zM810.31 736h-169.953c-47.13 0-85.69-38.4-85.69-85.333v-170.667c0-46.933 38.561-85.333 85.69-85.333h169.953c47.13 0 85.69 38.4 85.69 85.333v170.667c0 46.933-38.561 85.333-85.69 85.333zM810.156 650.667c0.056-0.043 0.107-0.098 0.154-0.154v-170.359c-0.047-0.055-0.099-0.111-0.154-0.154h-169.645c-0.056 0.043-0.107 0.098-0.154 0.154v170.359c0.047 0.055 0.099 0.111 0.154 0.154h169.645zM383.643 309.333h-169.953c-47.13 0-85.69-38.4-85.69-85.333v-170.667c0-46.933 38.561-85.333 85.69-85.333h169.953c47.13 0 85.69 38.4 85.69 85.333v170.667c0 46.933-38.561 85.333-85.69 85.333zM383.489 224c0.056-0.047 0.111-0.098 0.154-0.154v-170.359c-0.043-0.055-0.099-0.107-0.154-0.154h-169.645c-0.056 0.047-0.111 0.098-0.154 0.154v170.359c0.043 0.055 0.099 0.107 0.154 0.154h169.645zM810.31 309.333h-169.953c-47.13 0-85.69-38.4-85.69-85.333v-170.667c0-46.933 38.561-85.333 85.69-85.333h169.953c47.13 0 85.69 38.4 85.69 85.333v170.667c0 46.933-38.561 85.333-85.69 85.333zM810.156 224c0.056-0.047 0.107-0.098 0.154-0.154v-170.359c-0.047-0.055-0.099-0.107-0.154-0.154h-169.645c-0.056 0.047-0.107 0.098-0.154 0.154v170.359c0.047 0.055 0.099 0.107 0.154 0.154h169.645z" />
<glyph unicode="&#xe98c;" glyph-name="icons" d="M85.333 140.8v381.867h381.871v-381.867h-381.871zM168.606 224.077h215.317v215.317h-215.317v-215.317zM745.084 225.085c-59.183 0-107.162 47.979-107.162 107.162s47.979 107.162 107.162 107.162c59.187 0 107.162-47.979 107.162-107.162s-47.974-107.162-107.162-107.162zM745.084 522.647c-105.156 0-190.4-85.244-190.4-190.4 0-105.152 85.244-190.4 190.4-190.4s190.4 85.248 190.4 190.4c0 105.156-85.244 190.4-190.4 190.4z" />
<glyph unicode="&#xe98d;" glyph-name="masthead" d="M730.414 14.020h-438.946c-19.882 0-35.999 16.137-35.999 36.040v437.841c0 19.907 16.117 36.040 35.999 36.040h438.946c19.878 0 35.995-16.133 35.995-36.040v-437.841c0-19.903-16.117-36.040-35.995-36.040zM760.185 778.666h-498.491c-50.271 0-91.028-40.803-91.028-91.137v-669.4c0-50.338 40.756-91.141 91.028-91.141h498.491c50.276 0 91.028 40.803 91.028 91.141v669.4c0 50.334-40.752 91.137-91.028 91.137z" />
<glyph unicode="&#xe98e;" glyph-name="section" d="M906.080 235.683h-791.683c-16.050 0-29.065 13.197-29.065 29.479v132.569c0 16.277 13.014 29.479 29.065 29.479h791.683c16.050 0 29.060-13.202 29.060-29.479v-132.569c0-16.281-13.010-29.479-29.060-29.479zM844.376 158.061v-106.286c0-17.34-14.29-31.393-31.922-31.393h-598.55c-17.628 0-31.922 14.053-31.922 31.393v106.286h-96.648v-126.065c0-58.911 48.56-106.662 108.458-106.662h636.417c59.898 0 108.458 47.751 108.458 106.662v126.065h-94.291zM181.982 545.939v109.33c0 17.234 14.295 31.21 31.922 31.21h598.55c17.632 0 31.922-13.976 31.922-31.21v-109.33h94.291v126.689c0 58.562-48.56 106.039-108.458 106.039h-636.417c-59.898 0-108.458-47.477-108.458-106.039v-126.689h96.648z" />
</font>
</defs>
</svg>
