<svg width="123" height="41" viewBox="0 0 123 41" fill="none" xmlns="http://www.w3.org/2000/svg">
<g clip-path="url(#clip0)">
<path d="M55.8052 11.3566C55.8052 7.74676 58.6877 4.91795 62.3578 4.9209C66.0279 4.92385 68.9045 7.75266 68.903 11.3684C68.9015 14.9841 66.0205 17.81 62.3519 17.8115C58.6832 17.8129 55.8037 14.9561 55.8052 11.3566ZM64.8258 11.3566C64.8258 9.88017 63.7894 8.81568 62.3474 8.81568C60.9262 8.81568 59.8958 9.88313 59.8958 11.3536C59.8958 12.8241 60.9232 13.8916 62.3445 13.8975C63.7657 13.9034 64.8258 12.8448 64.8258 11.3684V11.3566Z" fill="#8F8AB0"/>
<path d="M53.3387 17.4497H49.2629V9.14193L47.7173 9.13307V5.26339H49.2792C49.2714 5.1528 49.2714 5.0418 49.2792 4.9312C49.2847 4.05008 49.4982 3.18265 49.9025 2.39915C50.622 1.07038 51.7945 0.379417 53.241 0.132856C53.8894 0.0265542 54.5556 0.0427947 55.213 -2.12763e-05C55.2933 -0.00487572 55.3739 -0.00487572 55.4543 -2.12761e-05V3.7545H55.4158C54.7599 3.76779 54.0834 3.74712 53.614 4.33768C53.4127 4.59458 53.3609 4.87657 53.3609 5.26339H55.4543V9.14046C55.3314 9.14046 53.3387 9.14046 53.3387 9.14046V17.4497Z" fill="#8F8AB0"/>
<path d="M78.424 9.43727C77.9421 9.45409 77.4616 9.49895 76.985 9.57163C75.6096 9.8551 74.782 10.8723 74.7642 12.2764V17.4439H70.7122V5.28412H74.7539V7.31271C75.4793 5.74033 76.7466 5.08185 78.424 5.01099V9.43727Z" fill="#8F8AB0"/>
<path d="M83.203 15.2809C83.203 15.9579 82.9333 16.6072 82.4533 17.0859C81.9732 17.5646 81.3222 17.8336 80.6433 17.8336C79.9644 17.8336 79.3133 17.5646 78.8332 17.0859C78.3532 16.6072 78.0835 15.9579 78.0835 15.2809C78.0835 14.6038 78.3532 13.9546 78.8332 13.4758C79.3133 12.9971 79.9644 12.7281 80.6433 12.7281C81.3222 12.7281 81.9732 12.9971 82.4533 13.4758C82.9333 13.9546 83.203 14.6038 83.203 15.2809Z" fill="#8F8AB0"/>
<path d="M110.531 38.0088L113.888 36.0732C113.939 36.1337 113.978 36.175 114.011 36.2208C114.432 36.7959 115.041 37.2076 115.733 37.3858C116.424 37.564 117.157 37.4977 117.805 37.1982C118.114 37.0729 118.382 36.8661 118.582 36.5999C118.781 36.3338 118.904 36.0185 118.938 35.6878C118.995 35.2006 118.949 34.7016 118.949 34.1819C118.908 34.2028 118.87 34.2281 118.834 34.2572C117.918 35.2405 116.761 35.6214 115.445 35.586C114.136 35.5643 112.874 35.0988 111.866 34.2661C110.858 33.4333 110.164 32.283 109.899 31.0046C109.427 28.8506 109.796 26.8633 111.245 25.1507C112.76 23.3598 115.38 22.6998 117.426 23.5488C118.001 23.8057 118.526 24.1626 118.976 24.6029V23.5399L123.003 23.568V35.2656C123.003 36.8896 122.51 38.3247 121.256 39.4305C120.472 40.1134 119.521 40.5774 118.499 40.7756C116.511 41.1904 114.573 41.0605 112.734 40.1333C111.863 39.7 111.134 39.028 110.632 38.1963C110.6 38.149 110.577 38.0914 110.531 38.0088ZM116.375 31.9304C117.904 31.9304 118.972 30.8969 118.973 29.4027C118.975 27.9086 117.912 26.8707 116.385 26.8707C114.859 26.8707 113.788 27.9042 113.787 29.3998C113.786 30.8954 114.847 31.9274 116.375 31.9304Z" fill="#48426D"/>
<path d="M70.9062 24.6222V18.6412H74.9701V35.7292H70.9151V34.6264C70.9151 34.6264 70.8055 34.7489 70.7833 34.774C69.6996 35.9079 68.3361 36.2165 66.8393 36.0585C64.9369 35.8592 63.4875 34.8892 62.5977 33.2326C61.2105 30.6533 61.2653 28.0534 62.9012 25.5907C63.5548 24.6167 64.5077 23.8806 65.6167 23.493C66.7257 23.1053 67.9309 23.0871 69.0512 23.4411C69.6485 23.6247 70.1932 23.9482 70.6397 24.3845C70.7093 24.4391 70.7774 24.5085 70.9062 24.6222ZM70.9062 29.642C70.9062 28.1213 69.9187 27.0391 68.4856 26.9918C66.9237 26.9402 65.8755 27.8924 65.766 29.4604C65.686 30.5884 66.2101 31.5953 67.125 32.0338C68.6307 32.7528 70.8929 32.081 70.9032 29.639L70.9062 29.642Z" fill="#48426D"/>
<path d="M51.9413 31.1523C52.3603 32.1002 53.1153 32.4811 54.0436 32.5889C55.0458 32.7011 55.9948 32.5667 56.7958 31.8772L56.9083 31.7813L59.8693 33.8379C59.5613 34.1332 59.2948 34.4285 58.9899 34.6795C57.9165 35.5653 56.6537 35.9595 55.2886 36.0629C53.7075 36.1825 52.1796 35.9684 50.7969 35.1608C48.7331 33.9575 47.7634 32.1061 47.7175 29.7571C47.6627 26.9372 49.2261 24.5749 51.8006 23.627C54.2701 22.7176 57.3021 23.2004 59.1009 25.3987C60.42 27.0228 60.7768 28.8875 60.4333 30.9176C60.4067 31.0386 60.3785 31.1243 60.3785 31.1243L51.9413 31.1523ZM56.5441 28.3117C56.396 27.2782 55.3775 26.5784 54.1368 26.6301C53.0028 26.6773 51.9901 27.4465 51.9398 28.3117H56.5441Z" fill="#48426D"/>
<path d="M85.1276 23.5577H89.1738V35.7292H85.141V34.5067C85.1004 34.5717 85.0548 34.6334 85.0048 34.6913C83.998 35.8724 82.6656 36.215 81.197 36.0526C79.0784 35.8163 77.6808 34.4285 77.3477 32.3069C77.2661 31.799 77.2236 31.2857 77.2204 30.7714C77.2071 28.4741 77.2085 23.537 77.2085 23.537H81.2784V30.1188C81.2741 30.4422 81.3119 30.7648 81.3909 31.0785C81.6189 31.9112 82.4272 32.363 83.4132 32.239C84.3385 32.1223 84.9056 31.5923 85.061 30.674C85.106 30.3927 85.1283 30.1084 85.1276 29.8236C85.1276 27.8585 85.1276 23.5577 85.1276 23.5577Z" fill="#48426D"/>
<path d="M97.8599 33.1794L101.391 31.4077C101.446 31.514 101.489 31.5952 101.53 31.6779C101.751 32.1128 102.125 32.4513 102.58 32.6286C103.035 32.8059 103.54 32.8096 103.998 32.639C104.11 32.6086 104.21 32.5451 104.285 32.4568C104.36 32.3685 104.407 32.2596 104.418 32.1444C104.43 32.0329 104.402 31.9208 104.339 31.8282C104.275 31.7357 104.181 31.6687 104.072 31.6395C103.523 31.4476 102.96 31.294 102.408 31.1109C101.773 30.9013 101.126 30.7182 100.514 30.4525C97.6496 29.2049 97.9975 25.5212 100.03 24.1615C101.314 23.3051 102.732 23.0896 104.23 23.2417C105.444 23.3642 106.55 23.7673 107.418 24.6516C107.801 25.0414 108.108 25.505 108.493 25.9922L105.009 27.5557C104.926 27.4317 104.861 27.3225 104.78 27.2147C104.613 26.9546 104.371 26.7513 104.086 26.6318C103.8 26.5123 103.485 26.4823 103.182 26.5459C102.996 26.5802 102.824 26.6667 102.686 26.7954C102.639 26.8408 102.603 26.8967 102.582 26.9585C102.561 27.0203 102.555 27.0863 102.564 27.151C102.573 27.2156 102.598 27.2772 102.635 27.3307C102.673 27.3841 102.723 27.4278 102.781 27.4583C103.021 27.5962 103.277 27.7033 103.543 27.7772C104.387 28.0208 105.253 28.1995 106.084 28.4829C107.231 28.8742 108.157 29.5666 108.478 30.7935C108.972 32.6538 108.459 34.6411 106.238 35.5299C105.265 35.9324 104.22 36.133 103.167 36.1196C102.114 36.1061 101.075 35.8789 100.113 35.4516C99.0783 35.0146 98.3543 34.2262 97.8599 33.1794Z" fill="#48426D"/>
<path d="M96.4948 33.5589C96.4751 34.2257 96.1947 34.8584 95.7134 35.3217C95.232 35.785 94.588 36.0421 93.9191 36.0381C93.2501 36.034 92.6093 35.7692 92.1337 35.3001C91.658 34.831 91.3853 34.1949 91.3738 33.5279C91.3934 32.861 91.6739 32.2283 92.1552 31.765C92.6365 31.3017 93.2805 31.0446 93.9495 31.0486C94.6184 31.0527 95.2592 31.3176 95.7349 31.7867C96.2105 32.2558 96.4833 32.8918 96.4948 33.5589Z" fill="#48426D"/>
<path d="M3.72333 7.22115C3.24294 7.19068 2.76141 7.25932 2.30882 7.42279C1.85623 7.58625 1.44229 7.84102 1.09287 8.17119C0.743453 8.50136 0.466054 8.89984 0.278001 9.34173C0.0899493 9.78362 -0.00471608 10.2594 -8.18595e-05 10.7394V33.209C-0.00152349 33.6862 0.108978 34.1572 0.322594 34.5843C0.53621 35.0114 0.847022 35.3827 1.2302 35.6687C1.50519 35.8661 1.80939 36.0195 2.13181 36.1234V10.8517C2.12977 10.6464 2.17019 10.443 2.25054 10.2541C2.33089 10.0651 2.44945 9.89473 2.59881 9.75354C2.74816 9.61235 2.92511 9.50339 3.1186 9.43348C3.31208 9.36356 3.51795 9.33419 3.72333 9.34719C4.1517 9.37398 4.55407 9.56126 4.84978 9.8715C5.14549 10.1817 5.31268 10.592 5.31781 11.02V37.87C5.31637 38.3473 5.42687 38.8183 5.64049 39.2454C5.8541 39.6724 6.16492 40.0438 6.54809 40.3297C6.82347 40.5269 7.12755 40.6807 7.44971 40.7859V11.1322C7.43718 10.1319 7.04634 9.17328 6.3554 8.4481C5.66446 7.72293 4.72439 7.28471 3.72333 7.22115Z" fill="#48426D"/>
<path d="M7.44954 11.1322C7.43701 10.1319 7.04617 9.17328 6.35523 8.44811C5.66429 7.72293 4.72422 7.28471 3.72316 7.22115C3.34136 7.20091 2.95873 7.24026 2.58911 7.33779L28.4102 0.714599C32.3439 -0.30265 34.8725 2.4863 34.8725 6.17733L34.8622 30.6858C34.8622 33.147 33.3195 34.9024 31.198 35.4177L10.2891 40.7712C9.72931 40.9463 9.14297 41.0218 8.55694 40.9941C8.17978 40.9754 7.80683 40.9064 7.44806 40.7889L7.44954 11.1322Z" fill="#8F8AB0"/>
<path d="M29.1653 35.9271L31.1935 35.4088C33.3151 34.8936 34.8577 33.1381 34.8577 30.6769L34.8681 6.16848C34.8681 4.00701 33.9976 2.15264 32.4816 1.19444C30.5688 -0.218483 27.8921 -0.281969 24.3596 0.494624L24.3271 0.503483C24.3271 0.503483 11.743 3.66301 11.2899 3.82394C10.7629 4.01144 10.5008 4.7024 10.6977 5.24867C10.6977 5.24867 11.3921 5.07741 11.9369 4.92977C11.9369 4.92977 15.0711 4.54 16.2895 6.37222C16.8462 7.20935 16.9143 7.89441 16.9143 9.22023V10.2212C16.7929 17.5826 17.1674 25.8446 29.1697 21.5306L29.1653 35.9271Z" fill="#48426D"/>
<path d="M28.7207 14.2025C29.3323 13.6086 29.3194 12.6062 28.6919 11.9636C28.0644 11.321 27.0599 11.2815 26.4484 11.8754C25.8368 12.4693 25.8497 13.4717 26.4772 14.1143C27.1047 14.7569 28.1092 14.7964 28.7207 14.2025Z" fill="#D5CDE0"/>
</g>
<defs>
<clipPath id="clip0">
<rect width="123" height="41" fill="white"/>
</clipPath>
</defs>
</svg>
