<svg width="767" height="421" viewBox="0 0 767 421" fill="none" xmlns="http://www.w3.org/2000/svg">
<path d="M104 420H766V322H104V420Z" fill="#FDF3E8"/>
<path d="M50.0957 420.009C43.6477 420.009 37.2629 418.742 31.3059 416.279C25.3489 413.816 19.9363 410.206 15.3772 405.655C10.8182 401.104 7.20197 395.701 4.73511 389.755C2.26824 383.809 0.999049 377.437 1 371.001C1 358.005 6.17256 345.542 15.3798 336.352C24.587 327.163 37.0747 322 50.0957 322H103.632V420.009H50.0957Z" fill="#48426D" stroke="#2B2E4A" stroke-width="1.25" stroke-miterlimit="10"/>
<path d="M58.5069 360.618C57.1323 360.62 55.814 361.163 54.8386 362.13C53.8632 363.097 53.3096 364.409 53.2981 365.781V368.897H52.2622C51.7101 368.897 51.1805 369.115 50.7894 369.504C50.3984 369.893 50.1777 370.421 50.1758 370.972V379.28C50.1758 379.832 50.3956 380.362 50.7869 380.753C51.1782 381.143 51.7088 381.362 52.2622 381.362H64.7444C65.2977 381.362 65.8284 381.143 66.2197 380.753C66.611 380.362 66.8308 379.832 66.8308 379.28V371.001C66.8289 370.45 66.6082 369.922 66.2171 369.533C65.8261 369.144 65.2965 368.926 64.7444 368.926H63.7084V365.781C63.6989 364.409 63.1469 363.098 62.1726 362.131C61.1984 361.164 59.8808 360.62 58.5069 360.618ZM55.3845 368.926V365.781C55.3845 364.954 55.7135 364.162 56.2991 363.577C56.8846 362.993 57.6788 362.664 58.5069 362.664C59.335 362.664 60.1292 362.993 60.7147 363.577C61.3003 364.162 61.6293 364.954 61.6293 365.781V368.897L55.3845 368.926Z" fill="#FDF3E8"/>
<path d="M766 420H104V322H766" stroke="#2B2E4A" stroke-width="1.25" stroke-linecap="round" stroke-linejoin="round"/>
<path d="M130.752 275.437C130.019 233.761 202.951 238.966 202.951 238.966C202.951 238.966 261.055 246.45 267.822 259.903C274.59 273.356 233.017 287.147 233.017 287.147C233.017 287.147 246.253 292.173 260.05 297.41C260.796 303.253 260.92 311.847 256.853 318.222C205.169 312.06 131.336 308.423 130.752 275.437Z" fill="#FF847C"/>
<path d="M172.652 306.414C197.952 312.56 230.324 315.068 256.853 318.222C260.92 311.847 260.795 303.253 260.05 297.41L235.38 288.043C235.169 287.966 171.99 264.166 168.271 264.7C168.271 264.7 161.765 262.409 161.815 267.587C161.865 272.764 194.676 277.395 203.832 295.436C212.931 313.378 173.114 306.498 172.652 306.414Z" fill="#ED6663"/>
<path fill-rule="evenodd" clip-rule="evenodd" d="M130.752 275.437C130.019 233.761 202.951 238.966 202.951 238.966C202.951 238.966 261.055 246.45 267.822 259.903C274.59 273.356 233.017 287.147 233.017 287.147C233.017 287.147 246.253 292.173 260.05 297.41C260.796 303.253 260.92 311.847 256.853 318.222C205.169 312.06 131.336 308.423 130.752 275.437Z" stroke="#2B2E4A" stroke-width="1.25" stroke-linecap="round"/>
<path d="M278.953 321.33C271.563 320.447 265.46 319.206 253.327 317.792C257.379 311.407 257.236 302.814 256.477 296.972C265.874 300.521 275.531 304.169 281.445 306.417C282.812 310.596 279.868 315.834 278.953 321.33Z" fill="#EAB292" stroke="#2B2E4A" stroke-width="1.25" stroke-linecap="round"/>
<path d="M320.123 316.794C322.73 313.003 313.705 310.428 297.231 308.831C294.961 308.611 285.258 306.419 281.3 306.558C282.589 311.042 281.848 316.822 279.113 321.44C281.9 322.364 295.68 322.473 299.402 322.342C312.078 321.899 317.51 320.585 320.123 316.794Z" fill="#2B2E4A" stroke="#2B2E4A" stroke-width="1.25" stroke-linecap="round"/>
<path d="M234.113 281.112C222.017 278.638 176.155 262.948 171.16 266.401C180.297 274.145 231.87 297.4 235.004 298.706C256.222 287.512 293.365 268.111 296.045 268.111C296.045 268.111 303.23 267.425 300.15 262.636C297.07 257.846 249.171 284.2 234.113 281.112Z" fill="#ED6663"/>
<path d="M339.747 273.315C339.873 266.705 338.143 261.273 335.142 256.81C337.354 265.875 336.203 277.68 321.063 286.575C292.722 303.216 253.555 289.595 236.99 298.95C221.849 307.503 209.939 299.532 219.39 291.563C218.982 291.727 211.271 294.797 210.842 294.942C210.753 294.995 210.668 295.052 210.579 295.112L210.41 295.242C209.669 301.078 209.565 309.587 213.595 315.918C265.282 309.839 339.124 306.3 339.747 273.315Z" fill="#ED6663"/>
<path d="M234.229 295.406C234.229 295.406 174.878 262.774 171.112 262.774L234.229 295.406Z" fill="#F0BFA4"/>
<path d="M234.229 295.406C234.229 295.406 174.878 262.774 171.112 262.774" stroke="#2B2E4A" stroke-width="1.25" stroke-linecap="round"/>
<path d="M235.222 286.076C235.222 286.076 224.228 289.871 210.424 295.117C209.667 300.958 209.531 309.552 213.593 315.933C265.281 309.839 339.124 306.3 339.747 273.315C340.539 231.64 267.605 236.749 267.605 236.749C267.605 236.749 246.85 237.338 229.638 241.04" stroke="#2B2E4A" stroke-width="1.25" stroke-linecap="round"/>
<path d="M220.433 306.431C220.433 306.431 292.28 268.111 296.045 268.111L220.433 306.431Z" fill="#F0BFA4"/>
<path d="M220.433 306.431C220.433 306.431 292.28 268.111 296.045 268.111" stroke="#2B2E4A" stroke-width="1.25" stroke-linecap="round"/>
<path d="M183.541 320.535C190.948 318.795 201.47 317.36 213.602 315.934C209.524 309.551 209.675 300.959 210.432 295.118C201.035 298.674 191.385 302.332 185.469 304.584C184.091 308.763 182.61 315.038 183.541 320.535Z" fill="#F0BFA4"/>
<path d="M210.362 295.631C208.578 296.392 206.454 298.708 205.335 305.086C203.231 317.23 185.571 317.436 185.688 304.662C185.573 304.768 185.454 304.871 185.336 304.996C184.009 309.166 182.637 315.223 183.531 320.549C190.938 318.809 201.46 317.374 213.592 315.948C209.651 309.738 209.665 301.454 210.362 295.631Z" fill="#EAB292"/>
<path fill-rule="evenodd" clip-rule="evenodd" d="M183.541 320.535C190.948 318.795 201.47 317.36 213.602 315.934C209.524 309.551 209.675 300.959 210.432 295.118C201.035 298.674 191.385 302.332 185.469 304.584C184.091 308.763 182.61 315.038 183.541 320.535Z" stroke="#2B2E4A" stroke-width="1.25" stroke-linecap="round"/>
<path d="M144.445 306.57C141.915 302.381 149.825 302.32 166.799 304.584C169.111 304.66 181.381 306.022 185.471 304.584C186.036 311.939 185.468 315.333 183.21 320.426C180.351 320.995 171.295 320.308 167.93 319.86C150.956 317.597 146.978 310.763 144.445 306.57Z" fill="#2B2E4A" stroke="#2B2E4A" stroke-width="1.25" stroke-linecap="round"/>
<path d="M299.757 213.743C297.042 203.943 291.248 193.9 284.394 183.601C263.523 152.123 239.088 147.386 239.088 147.386C239.088 147.386 235.467 147.333 232.045 165.81C228.622 184.286 270.567 207.568 275.512 220.554C275.525 220.584 275.537 220.615 275.546 220.646C280.328 217.642 291.248 211.683 299.757 213.743Z" fill="#8BBAF1"/>
<path d="M299.757 213.743C297.042 203.943 291.248 193.9 284.395 183.601C266.569 156.718 246.151 149.336 240.565 147.76C249.977 152.355 266.71 163.175 274.831 184.625C285.78 212.685 274.145 213.709 275.512 220.554C275.525 220.584 275.537 220.614 275.546 220.646C280.328 217.642 291.248 211.683 299.757 213.743Z" fill="#6886C5"/>
<path fill-rule="evenodd" clip-rule="evenodd" d="M299.757 213.743C297.042 203.943 291.248 193.9 284.394 183.601C263.523 152.123 239.088 147.386 239.088 147.386C239.088 147.386 235.467 147.333 232.045 165.81C228.622 184.286 270.567 207.568 275.512 220.554C275.525 220.584 275.537 220.615 275.546 220.646C280.328 217.642 291.248 211.683 299.757 213.743Z" stroke="#2B2E4A" stroke-width="1.25" stroke-linecap="round"/>
<path d="M166.106 213.743C168.821 203.943 174.623 193.9 181.453 183.601C202.325 152.123 226.76 147.386 226.76 147.386C226.76 147.386 230.38 147.333 233.803 165.81C237.226 184.286 195.304 207.568 190.355 220.554L190.321 220.646C185.535 217.642 174.616 211.683 166.106 213.743Z" fill="#8BBAF1"/>
<path d="M209.479 169.571C209.479 169.571 200.581 166.145 194.425 180.178C188.268 194.212 183.818 207.21 172.525 208.577C169.807 208.908 168.044 209.772 166.986 210.895C166.666 211.847 166.369 212.799 166.106 213.743C174.616 211.683 185.523 217.642 190.317 220.646L190.351 220.554C192.864 213.949 204.944 204.682 215.761 194.741C217.55 183.689 216.625 173.588 209.479 169.571Z" fill="#6886C5"/>
<path fill-rule="evenodd" clip-rule="evenodd" d="M166.106 213.743C168.821 203.943 174.623 193.9 181.453 183.601C202.325 152.123 226.76 147.386 226.76 147.386C226.76 147.386 230.38 147.333 233.803 165.81C237.226 184.286 195.304 207.568 190.355 220.554L190.321 220.646C185.535 217.642 174.616 211.683 166.106 213.743Z" stroke="#2B2E4A" stroke-width="1.25" stroke-linecap="round"/>
<path d="M239.244 149.385C239.244 149.385 258.749 157.597 272.093 206.875C285.419 254.774 282.015 269.831 226.928 268.118C180.053 265.038 184.846 244.513 190.317 220.562C195.788 196.61 201.808 144.649 239.244 149.385Z" fill="#8BBAF1"/>
<path d="M257.428 169.689C256.038 170.344 255.231 172.286 256.354 177.441C262.172 204.13 248.485 236.975 212.217 238.357C191.92 239.119 187.702 250.388 195.465 259.803C201.507 264.155 211.368 267.102 226.921 268.122C282.008 269.835 285.43 254.797 272.086 206.879C267.578 190.195 262.358 178.233 257.428 169.689Z" fill="#6886C5"/>
<path d="M257.786 169.868C262.621 178.652 267.684 190.641 272.093 206.867C285.419 254.766 282.015 269.824 226.928 268.111C180.053 265.031 184.846 244.506 190.317 220.554C193.237 207.789 196.268 186.506 204.126 170.127" stroke="#2B2E4A" stroke-width="1.25" stroke-linecap="round"/>
<path d="M209.852 262.636C212.932 266.401 221.83 276.666 216.012 277.351C208.843 278.192 211.562 273.924 206.43 271.191C167.976 253.007 160.522 233.88 166.107 213.743C174.616 211.683 185.524 217.642 190.317 220.646C184.972 235.026 206.273 258.261 209.852 262.636Z" fill="#F0BFA4"/>
<path d="M209.853 262.636C206.274 258.261 184.972 235.026 190.318 220.646C185.536 217.642 174.617 211.683 166.107 213.743C165.501 215.901 165.052 218.1 164.763 220.322C168.951 217.657 178.447 214.904 179.711 222.949C183.476 246.889 194.14 267.068 217.338 273.159C215.807 269.687 211.741 264.943 209.853 262.636Z" fill="#EAB292"/>
<path fill-rule="evenodd" clip-rule="evenodd" d="M209.852 262.636C212.932 266.401 221.83 276.666 216.012 277.351C208.843 278.192 211.562 273.924 206.43 271.191C167.976 253.007 160.522 233.88 166.107 213.743C174.616 211.683 185.524 217.642 190.317 220.646C184.972 235.026 206.273 258.261 209.852 262.636Z" stroke="#2B2E4A" stroke-width="1.25" stroke-linecap="round"/>
<path d="M256.012 262.636C252.932 266.401 244.038 276.665 249.851 277.351C257.021 278.192 254.302 273.924 259.434 271.191C297.888 253.007 305.342 233.88 299.757 213.743C291.248 211.683 280.34 217.642 275.547 220.646C280.892 235.026 259.59 258.261 256.012 262.636Z" fill="#F0BFA4"/>
<path d="M275.805 220.486C278.199 219.964 294.597 216.934 293.645 231.843C292.621 247.925 271.944 263.15 251.316 270.25C250.806 270.425 250.315 270.597 249.828 270.772C247.783 274.046 246.828 276.993 249.851 277.351C257.02 278.192 254.301 273.924 259.433 271.191C297.887 253.007 305.341 233.88 299.756 213.743C291.395 211.718 280.712 217.436 275.805 220.486Z" fill="#EAB292"/>
<path fill-rule="evenodd" clip-rule="evenodd" d="M256.012 262.636C252.932 266.401 244.038 276.665 249.851 277.351C257.021 278.192 254.302 273.924 259.434 271.191C297.888 253.007 305.342 233.88 299.757 213.743C291.248 211.683 280.34 217.642 275.547 220.646C280.892 235.026 259.59 258.261 256.012 262.636Z" stroke="#2B2E4A" stroke-width="1.25" stroke-linecap="round"/>
<path d="M277.983 225.686H189.902C187.705 225.686 186.095 227.651 186.67 229.654L199.576 275.638H268.602L281.223 229.638C281.771 227.636 280.172 225.686 277.983 225.686Z" fill="#F9F9F9"/>
<path opacity="0.82" d="M199.575 275.638H268.601L281.222 229.638C281.77 227.636 280.171 225.686 277.982 225.686H247.798C250.535 228.302 267.302 230.819 266.96 246.215C266.392 271.777 229.835 271.141 220.427 270.848C209.478 270.505 200.569 270.007 199.518 275.417L199.575 275.638Z" fill="#F9F9F9"/>
<path fill-rule="evenodd" clip-rule="evenodd" d="M277.983 225.686H189.902C187.705 225.686 186.095 227.651 186.67 229.654L199.576 275.638H268.602L281.223 229.638C281.771 227.636 280.172 225.686 277.983 225.686Z" stroke="#2B2E4A" stroke-width="1.25" stroke-linecap="round"/>
<path d="M267.898 278.207L268.602 275.637H199.577L200.308 278.238C201.088 280.798 203.472 282.531 206.148 282.483H262.05C264.737 282.531 267.128 280.783 267.898 278.207Z" fill="#2B2E4A" stroke="#2B2E4A" stroke-width="1.25" stroke-linecap="round"/>
<path d="M231.717 261.95C237.007 261.95 241.296 257.662 241.296 252.371C241.296 247.081 237.007 242.792 231.717 242.792C226.427 242.792 222.138 247.081 222.138 252.371C222.138 257.662 226.427 261.95 231.717 261.95Z" fill="#D5CDE0"/>
<path d="M216.933 111.853C216.933 111.853 211.374 108.587 209.413 113.818C207.453 119.049 217.584 138.664 219.548 136.376C221.513 134.088 229.028 117.085 216.933 111.853Z" fill="#48426D"/>
<path d="M222.095 116.3C221.437 115.539 220.683 115.185 219.876 115.455C219.876 115.455 214.968 114.8 216.605 120.686C218.181 126.363 211.123 123.637 209.939 120.043C212.097 127.657 218.086 138.082 219.548 136.38C221.109 134.552 226.192 123.408 222.095 116.3Z" fill="#2B2E4A"/>
<path fill-rule="evenodd" clip-rule="evenodd" d="M216.933 111.853C216.933 111.853 211.374 108.587 209.413 113.818C207.453 119.049 217.584 138.664 219.548 136.376C221.513 134.088 229.028 117.085 216.933 111.853Z" stroke="#2B2E4A" stroke-width="1.25" stroke-linecap="round"/>
<path d="M237.205 144.223C237.205 144.223 242.109 168.414 229.686 168.079C218.881 167.793 228.376 149.77 224.127 145.517C219.878 141.264 234.901 136.703 237.205 144.223Z" fill="#F0BFA4"/>
<path d="M229.683 168.079C240.138 168.353 238.322 151.262 237.484 145.841C232.481 140.766 226.569 139.456 225.236 148.361C225.307 149.238 225.307 150.119 225.236 150.996C225.556 152.519 226.553 154.304 229.336 155.001C234.587 156.318 237.202 165.794 229.683 168.079Z" fill="#EAB292"/>
<path fill-rule="evenodd" clip-rule="evenodd" d="M237.205 144.223C237.205 144.223 242.109 168.414 229.686 168.079C218.881 167.793 228.376 149.77 224.127 145.517C219.878 141.264 234.901 136.703 237.205 144.223Z" stroke="#2B2E4A" stroke-width="1.25" stroke-linecap="round"/>
<path d="M243.414 110.209C243.414 110.209 248.972 112.493 247.983 119.346C246.993 126.199 241.769 138.637 239.153 137.328C236.538 136.018 235.567 115.451 243.414 110.209Z" fill="#2B2E4A" stroke="#2B2E4A" stroke-width="1.25" stroke-linecap="round"/>
<path d="M241.452 117.412C241.452 117.412 238.509 120.027 241.452 131.145C244.395 142.262 239.929 152.728 229.684 152.085C219.549 151.43 216.606 142.277 217.584 131.815C218.563 121.352 221.51 118.737 217.584 115.794C213.659 112.851 241.452 103.683 241.452 117.412Z" fill="#F0BFA4"/>
<path d="M235.712 150.946C241.563 147.98 243.734 139.764 241.453 131.149C238.51 120.031 241.453 117.416 241.453 117.416C241.453 113.704 239.42 111.667 236.534 110.726C233.606 110.567 230.64 110.369 227.968 110.346C223.871 110.951 219.992 112.39 218.217 113.734C218.187 113.856 218.153 113.974 218.134 114.115C218.002 114.749 217.929 115.394 217.913 116.041C219.618 117.458 219.778 118.855 219.394 121.151C219.966 121.816 220.693 122.33 221.511 122.647C226.414 124.608 236.549 120.686 238.838 132.782C240.714 142.7 238.708 148.848 235.712 150.946Z" fill="#EAB292"/>
<path fill-rule="evenodd" clip-rule="evenodd" d="M241.452 117.412C241.452 117.412 238.509 120.027 241.452 131.145C244.395 142.262 239.929 152.728 229.684 152.085C219.549 151.43 216.606 142.277 217.584 131.815C218.563 121.352 221.51 118.737 217.584 115.794C213.659 112.851 241.452 103.683 241.452 117.412Z" stroke="#2B2E4A" stroke-width="1.25" stroke-linecap="round"/>
<path d="M249.955 111.526C249.955 116.673 243.46 120.663 232.628 120.663C221.797 120.663 213.01 116.475 213.01 111.347C213.01 106.219 221.793 102.027 232.628 102.027C243.464 102.027 249.955 106.401 249.955 111.526Z" fill="#48426D"/>
<path d="M232.617 102.046C232.164 102.046 231.722 102.046 231.277 102.069C238.385 102.21 243.894 106.717 242.752 111.853C241.61 116.917 222.109 116.898 216.68 116.803C220.239 119.156 226.049 120.69 232.617 120.69C243.448 120.69 249.944 116.681 249.944 111.553C249.944 106.424 243.46 102.046 232.617 102.046Z" fill="#2B2E4A"/>
<path d="M213.01 111.351C213.01 106.203 221.793 102.031 232.628 102.031C243.464 102.031 249.955 106.367 249.955 111.511C249.955 116.654 243.46 120.648 232.628 120.648C226.369 120.648 220.799 119.258 217.205 117.088" stroke="#2B2E4A" stroke-width="1.25" stroke-linecap="round"/>
<path d="M235.576 134.004C236.234 134.004 236.767 133.47 236.767 132.812C236.767 132.154 236.234 131.621 235.576 131.621C234.918 131.621 234.384 132.154 234.384 132.812C234.384 133.47 234.918 134.004 235.576 134.004Z" fill="#2B2E4A"/>
<path d="M222.508 134.004C223.166 134.004 223.7 133.47 223.7 132.812C223.7 132.154 223.166 131.621 222.508 131.621C221.85 131.621 221.316 132.154 221.316 132.812C221.316 133.47 221.85 134.004 222.508 134.004Z" fill="#2B2E4A"/>
<path d="M228.371 129.687V138.062C228.371 139.186 229.178 140.096 230.168 140.096H230.77" stroke="#2B2E4A" stroke-width="1.25" stroke-linecap="round"/>
<path d="M230.081 144.413C229.811 144.485 229.591 144.682 229.49 144.944C229.389 145.205 229.419 145.499 229.571 145.734C230.419 146.994 231.975 147.573 233.44 147.174C234.905 146.775 235.952 145.487 236.043 143.971C236.056 143.691 235.934 143.422 235.715 143.248C235.495 143.074 235.205 143.016 234.936 143.092L230.081 144.413Z" fill="#2B2E4A"/>
<path d="M588.442 218.142C583.787 224.111 578.545 227.721 572.205 226.72C553.047 223.672 515.165 204.078 502.538 240.218C499.054 261.118 500.796 213.221 553.917 241.959C571.722 251.591 589.187 245.181 603.969 232.38C597.323 229.541 591.845 224.518 588.442 218.142Z" fill="#DEB097"/>
<path d="M588.803 218.795C587.314 221.103 589.186 228.026 584.832 232.38C575.388 241.824 528.227 211.48 509.23 228.095C506.509 232.262 505.185 236.325 505.111 240.017C510.832 233.63 524.513 226.053 553.939 241.959C571.743 251.591 589.208 245.181 603.991 232.38C597.572 229.645 592.234 224.87 588.803 218.795V218.795Z" fill="#D2A186"/>
<path fill-rule="evenodd" clip-rule="evenodd" d="M588.442 218.142C583.787 224.111 578.545 227.721 572.205 226.72C553.047 223.672 515.165 204.078 502.538 240.218C499.054 261.118 500.796 213.221 553.917 241.959C571.722 251.591 589.187 245.181 603.969 232.38C597.323 229.541 591.845 224.518 588.442 218.142Z" stroke="#2B2E4A" stroke-width="1.25" stroke-linecap="round"/>
<path d="M641.084 155.746C641.084 155.746 626.632 153.133 613.57 171.856C604.831 184.383 597.847 206.072 588.441 218.142C591.847 224.511 597.325 229.528 603.969 232.362C633.251 206.943 651.847 156.325 641.084 155.746Z" fill="#BAE9E0"/>
<path opacity="0.57" d="M622.3 184.048C622.3 184.048 614.027 180.129 609.673 191.886C605.362 203.533 595.06 219.883 588.52 218.063L588.464 218.142C591.87 224.511 597.347 229.528 603.991 232.363C610.047 227.103 615.647 220.763 620.628 214.01C626.985 201.892 629.328 188.751 622.3 184.048Z" fill="#9DDFD3"/>
<path d="M641.084 155.746C641.084 155.746 626.632 153.133 613.57 171.856C604.831 184.383 597.847 206.072 588.441 218.142C591.847 224.511 597.325 229.528 603.969 232.362" stroke="#2B2E4A" stroke-width="1.25" stroke-linecap="round"/>
<path d="M600.528 270.697C589.643 251.538 578.862 245.847 578.862 245.847C578.862 245.847 506.477 200.594 483.4 254.586C466.392 294.384 498.056 340.666 513 370C517.114 368.981 521.684 367.584 526.5 361C520.787 341.206 517.162 315.354 526.507 301.612C543.053 277.228 611.414 289.855 600.528 270.697Z" fill="#48426D"/>
<path d="M600.529 270.697C589.643 251.538 578.862 245.848 578.862 245.848C569.659 240.378 559.874 235.951 549.689 232.65C550.125 237.37 548.657 246.2 531.715 245.878C508.638 245.443 492.962 260.247 498.187 290.291C503.413 320.335 521.7 340.364 516.475 357.346C514.342 364.282 513.371 368.388 513.323 370.726C517.342 369.603 521.871 367.305 526.5 361C520.792 341.184 517.163 315.354 526.507 301.612C530.648 295.516 538.033 291.728 546.611 289.181C554.2 277.781 565.203 272.408 578.322 282.018C578.976 282.497 579.629 282.932 580.26 283.355C594.868 281.382 605.275 279.083 600.529 270.697Z" fill="#2B2E4A"/>
<path fill-rule="evenodd" clip-rule="evenodd" d="M600.528 270.697C589.643 251.538 578.862 245.847 578.862 245.847C578.862 245.847 506.477 200.594 483.4 254.586C466.392 294.384 498.557 341.166 513.5 370.5C517.615 369.481 521.185 367.084 526 360.5C520.288 340.706 517.163 315.354 526.507 301.612C543.053 277.228 611.414 289.855 600.528 270.697Z" stroke="#2B2E4A" stroke-width="1.25" stroke-linecap="round"/>
<path d="M528.183 365.963C525.63 359.629 525.884 359.566 524.008 353C519.192 359.584 514.115 362.318 510 363.337C513.919 371.066 516.719 377.558 517.171 382.365C522.183 376.963 525.187 369.916 528.183 365.963Z" fill="#D2A186" stroke="#2B2E4A" stroke-width="1.25" stroke-linecap="round"/>
<path d="M513.944 379.465C506.977 397.752 496.962 407.767 500.881 408.638C504.8 409.509 534.844 375.546 532.232 373.804C531.657 373.421 529.972 370.138 527.877 365C524.903 368.962 520.934 372.962 514.903 374.608C515.101 376.105 514.428 378.034 513.944 379.465Z" fill="#ED6663" stroke="#2B2E4A" stroke-width="1.25" stroke-linecap="round"/>
<path d="M594.433 264.601C594.433 264.601 545.23 229.332 506.913 264.601C476.359 292.703 458.268 357.302 442.47 385.474C445.281 389.394 448.978 392.594 453.26 394.814C475.593 357.259 517.119 297.084 556.551 304.66C594.433 319.5 629.5 339.5 652.344 288.549C668.454 254.587 616.639 278.099 594.433 264.601Z" fill="#48426D"/>
<path d="M624.5 320C625.959 304.617 622.614 280.494 615.538 269.273C607.653 269.077 600.094 268.041 594.433 264.601C590.002 261.6 585.311 259.002 580.417 256.838C580.417 256.838 588.773 289.094 572.227 286.446C555.681 283.799 502.995 288.985 478.611 334.704C454.358 380.184 453.792 386.454 442.65 385.648C445.44 389.482 449.085 392.613 453.296 394.792C475.594 357.259 517.12 297.084 556.552 304.66C566.5 310 590.21 329.5 624.5 320Z" fill="#2B2E4A"/>
<path fill-rule="evenodd" clip-rule="evenodd" d="M594.433 264.601C594.433 264.601 545.23 229.332 506.913 264.601C476.359 292.703 458.268 357.302 442.47 385.474C445.281 389.394 448.978 392.594 453.26 394.814C475.593 357.259 517.119 297.084 556.551 304.66C588 325.5 632.5 337.5 652.344 288.549C668.454 254.587 616.639 278.099 594.433 264.601Z" stroke="#2B2E4A" stroke-width="1.25" stroke-linecap="round"/>
<path d="M658.005 160.1C658.005 160.1 672.373 154.875 670.632 225.413C669.604 267.074 651.038 293.774 619.252 284.63C587.466 275.487 571.791 250.668 580.935 242.83C590.079 234.992 607.06 215.398 611.85 199.288C616.639 183.177 624.477 143.554 658.005 160.1Z" fill="#BAE9E0"/>
<path opacity="0.57" d="M670.632 225.413C670.662 224.281 670.684 223.166 670.706 222.074C666.404 210.478 659.82 202.018 651.909 201.03C651.909 201.03 642.329 196.675 640.152 214.528C637.975 232.38 633.621 269.826 610.544 264.601C587.466 259.376 582.446 241.467 578.862 245.848C575.274 255.745 590.806 276.453 619.252 284.631C649.5 292.5 669.582 267.074 670.632 225.413Z" fill="#9DDFD3"/>
<path d="M670.632 225.413C662.794 266.343 651.038 293.774 619.252 284.63C587.466 275.487 571.791 250.668 580.935 242.83C590.079 234.992 607.06 215.398 611.85 199.288C613.03 195.33 614.706 189.874 616.97 184.148" stroke="#2B2E4A" stroke-width="1.25" stroke-linecap="round"/>
<path d="M673.5 316C667.84 311.163 664.452 294.875 668.828 247.113C657.041 252.547 649.805 250.396 643 247.113C643 313 665.941 327.948 676.113 325.148C685.971 322.418 678.29 312.952 673.5 316Z" fill="#DEB097"/>
<path d="M672.5 315.5H673.5C668.5 314 668.136 301.089 672.469 253.851C660.799 259.232 650.036 256.319 643.226 253.071C643.526 254.408 645.551 261.344 655.37 263.295C666.277 265.472 659 306 672.5 315.5Z" fill="#D2A186"/>
<path fill-rule="evenodd" clip-rule="evenodd" d="M673.5 316C667.84 311.162 668.115 301.612 672.491 253.851C660.704 259.285 649.849 256.263 643.043 252.98C644.563 314.052 665.942 327.948 676.113 325.148C685.971 322.418 678.29 312.952 673.5 316Z" stroke="#2B2E4A" stroke-width="1.25" stroke-linecap="round"/>
<path d="M659.746 157.923C659.746 157.923 684.565 165.325 673.68 241.959C673.23 246.096 672.834 250.06 672.491 253.851C660.704 259.285 649.849 256.263 643.044 252.98C642.673 238.093 643.697 221.107 646.684 201.905C646.684 201.905 637.383 183.038 638.985 181.366C640.588 179.694 651.386 167.981 654.695 164.045C658.005 160.109 658.875 156.617 659.746 157.923Z" fill="#BAE9E0"/>
<path opacity="0.57" d="M659.746 157.923C658.875 156.617 658.005 160.1 654.695 164.04C651.386 167.981 640.588 179.694 638.964 181.348C638.776 181.544 638.737 181.984 638.82 182.594C641.25 182.62 644.48 181.884 647.528 178.81C653.624 172.714 660.156 165.747 664.51 173.585C668.864 181.422 673.884 215.56 667.24 239.203C660.595 262.846 645.377 243.265 643.2 252.845C643.2 252.91 643.2 252.971 643.17 253.036C649.975 256.298 660.778 259.25 672.491 253.85C672.834 250.054 673.23 246.09 673.68 241.959C684.565 165.325 659.746 157.923 659.746 157.923Z" fill="#9DDFD3"/>
<path d="M646.683 201.9C643.696 221.102 642.673 238.088 643.043 252.975C649.844 256.263 660.704 259.285 672.49 253.846C672.833 250.049 673.229 246.085 673.679 241.955C684.565 165.321 659.746 157.918 659.746 157.918" stroke="#2B2E4A" stroke-width="1.25" stroke-linecap="round"/>
<path d="M447.013 406.135C449.343 401.985 452.112 397.126 455.286 391.814C450.995 389.597 447.289 386.397 444.47 382.474C440.647 389.302 436.959 393.982 433.263 395.493C436.306 398.728 441.248 403.326 447.013 406.135Z" fill="#DEB097"/>
<path d="M455.274 391.814C451.54 389.889 448.251 387.204 445.616 383.933C445.699 386.612 446.194 389.263 447.083 391.792C450.959 403.414 439.093 400.993 433.354 395.467L433.298 395.493C436.346 398.728 441.27 403.331 447.035 406.135C449.343 401.985 452.112 397.126 455.274 391.814Z" fill="#D2A186"/>
<path fill-rule="evenodd" clip-rule="evenodd" d="M447.751 404.661C450.08 400.511 452.849 395.652 456.024 390.34C451.732 388.123 448.026 384.923 445.208 381C441.385 387.827 437.697 392.508 434 394.019C437.044 397.254 441.986 401.852 447.751 404.661Z" stroke="#2B2E4A" stroke-width="1.25" stroke-linecap="round"/>
<path d="M405.058 381.34C403.316 383.952 441.633 411.819 443.81 410.949C444.246 410.77 447.185 405.197 452.035 396.554C446.27 393.745 441.328 389.151 438.298 385.912C438.102 385.99 437.91 386.069 437.714 386.13C418.556 392.225 406.799 378.727 405.058 381.34Z" fill="#ED6663" stroke="#2B2E4A" stroke-width="1.25" stroke-linecap="round"/>
<path d="M652.677 107.642C652.677 107.642 633.298 111.6 642.537 132.616C651.259 152.406 662.298 112.711 653.32 108.558" fill="#48426D"/>
<path d="M660.532 158.699C645.821 167.752 641.294 186.423 635.071 180.765C625.453 160.962 653.743 158.699 637.814 147.455C629.178 137.347 675.242 149.646 660.532 158.699Z" fill="#DEB097"/>
<path d="M648.085 157.002C647.595 160.763 644.123 161.528 641.861 163.791C639.032 166.62 636.768 169.449 636.202 171.147C635.763 171.835 633.07 177.004 632.808 176.805C633.373 159.265 641.395 162.872 641.205 155.568C643.565 156.418 648.459 154.039 648.085 157.002Z" fill="#D2A186"/>
<path d="M645.737 122.236C645.737 122.236 644.839 126.949 638.356 130.41C631.873 133.871 624.099 150.518 640.759 155.759C657.419 161 666.065 144.707 665.396 138.85C664.728 132.993 657.586 111.813 645.737 122.236Z" fill="#DEB097"/>
<path d="M640.984 128.938C646.027 125.624 645.736 122.236 645.736 122.236C649.309 119.091 652.453 118.824 655.121 120.145C656.373 123.315 658.098 126.346 661.78 127.82C663.896 131.975 665.137 136.572 665.395 138.85C665.788 142.274 663.068 152.925 657.415 160.145C655.62 159.983 653.889 159.399 652.364 158.44C647.923 155.621 662.059 142.065 653.681 140.187C648.739 139.079 641.911 132.433 640.984 128.938Z" fill="#D2A186"/>
<path d="M665.395 138.85C664.727 132.993 657.585 111.813 645.736 122.236C645.736 122.236 644.838 126.949 638.355 130.41C631.872 133.871 624.098 150.518 640.758 155.759C643.127 156.535 645.618 156.872 648.108 156.753" stroke="#2B2E4A" stroke-width="1.25" stroke-linecap="round"/>
<path d="M687.01 131.884C687.01 131.884 686.178 123.93 695.509 127.211C704.84 130.491 701.808 91.6849 722.922 97.2108C744.037 102.737 750.32 121.029 743.703 133.575C737.085 146.122 725.843 123.785 720.491 128.213C715.138 132.641 720.82 152.416 707.951 154.096C691.864 156.197 696.886 131.324 687.161 136.516C677.437 141.707 687.01 131.884 687.01 131.884Z" fill="#48426D"/>
<path d="M698.616 134.565C702.759 144.372 709.488 144.057 710.222 137.246C710.956 130.435 713.037 116.555 724.794 123.867C735.107 130.283 742.205 134.999 746.213 123.327C746.221 126.896 745.359 130.414 743.702 133.575C737.085 146.122 725.843 123.785 720.491 128.213C715.138 132.641 720.82 152.416 707.951 154.096C691.864 156.197 696.885 131.324 687.161 136.516C677.436 141.707 687.01 131.884 687.01 131.884C687.01 131.884 686.656 128.491 689.013 127.051C691.909 127.222 696.097 128.602 698.616 134.565Z" fill="#2B2E4A"/>
<path fill-rule="evenodd" clip-rule="evenodd" d="M687.01 131.884C687.01 131.884 686.178 123.93 695.509 127.211C704.84 130.491 701.808 91.6849 722.922 97.2108C744.037 102.737 750.32 121.029 743.703 133.575C737.085 146.122 725.843 123.785 720.491 128.213C715.138 132.641 720.82 152.416 707.951 154.096C691.864 156.197 696.886 131.324 687.161 136.516C677.437 141.707 687.01 131.884 687.01 131.884Z" stroke="#2B2E4A" stroke-width="1.25" stroke-linecap="round"/>
<path d="M677.353 124.409C677.353 124.409 684.966 121.915 688.251 128.833C691.535 135.752 684.495 145.588 676.402 139.256C668.31 132.924 677.353 124.409 677.353 124.409Z" fill="#8BBAF1" stroke="#8BBAF1" stroke-width="1.25" stroke-linecap="round"/>
<path d="M646.838 112.019C646.838 112.019 639.132 132.249 661.718 140.403C664.933 143.74 649.666 156.329 658.998 159.61C668.329 162.89 688.361 141.065 679.804 123.373C671.246 105.68 649.152 103.819 646.838 112.019Z" fill="#48426D"/>
<path d="M661.718 140.403C642.95 133.626 645.097 118.518 646.359 113.597C646.359 113.597 652.825 135.518 663.15 132.347C674.535 128.845 667.55 144.797 671.038 146.213C674.525 147.629 681.187 139.026 681.585 131.642C681.595 131.283 681.665 130.929 681.792 130.593C683.209 146.438 667.085 162.452 658.997 159.61C649.666 156.329 664.933 143.74 661.718 140.403Z" fill="#2B2E4A"/>
<path d="M645.7 117.321C645.027 123.893 646.474 134.9 661.717 140.403C664.932 143.74 649.665 156.329 658.997 159.61C668.328 162.891 688.36 141.065 679.802 123.373C672.564 108.41 655.645 104.77 649.194 108.965" stroke="#2B2E4A" stroke-width="1.25" stroke-linecap="round"/>
<path d="M652.679 107.643C652.679 107.643 635.656 112.05 641.079 128.708" stroke="#2B2E4A" stroke-width="1.25" stroke-linecap="round"/>
<path d="M646.693 137.177C646.011 136.9 645.683 136.124 645.96 135.442C646.236 134.761 647.013 134.433 647.694 134.709C648.376 134.986 648.704 135.763 648.427 136.444C648.15 137.125 647.374 137.453 646.693 137.177Z" fill="#2B2E4A"/>
<path d="M641.216 131.907C640.535 131.63 640.207 130.854 640.483 130.172C640.76 129.491 641.536 129.163 642.218 129.439C642.899 129.716 643.227 130.493 642.951 131.174C642.674 131.855 641.897 132.183 641.216 131.907Z" fill="#2B2E4A"/>
<path d="M642.74 143.96C643.009 144.012 643.237 144.19 643.353 144.438C643.469 144.686 643.46 144.975 643.328 145.215C642.542 146.637 640.931 147.395 639.334 147.093C637.736 146.79 636.514 145.497 636.302 143.885C636.268 143.615 636.365 143.344 636.564 143.157C636.762 142.97 637.038 142.888 637.306 142.937L642.74 143.96Z" fill="#2B2E4A"/>
<path d="M644.993 132.059C644.993 132.059 643.249 134.854 640.106 134.553C636.963 134.252 637.408 136.195 638.363 137.344" stroke="#2B2E4A" stroke-width="1.25" stroke-linecap="round"/>
<path d="M661.923 158.358C661.923 158.358 648.425 167.938 642.329 177.952C636.669 186.661 631.008 179.259 633.621 169.679C634.733 165.824 636.901 162.355 639.878 159.665" stroke="#2B2E4A" stroke-width="1.25" stroke-linecap="round"/>
<path d="M565.662 1H304.618C297.097 1 291 7.09717 291 14.6184V76.0746C291 83.5959 297.097 89.6931 304.618 89.6931H308.086C312.053 89.6931 315.269 92.9089 315.269 96.8757V111.735C315.27 113.071 316.086 114.272 317.328 114.765C318.571 115.257 319.988 114.942 320.904 113.969L341.272 92.3274C342.845 90.655 345.039 89.7066 347.334 89.7064H565.662C573.184 89.7064 579.281 83.6092 579.281 76.088V14.6184C579.281 7.09717 573.184 1 565.662 1Z" fill="#48426D" stroke="#2B2E4A" stroke-width="1.25" stroke-linecap="round"/>
<path opacity="0.4" d="M362.06 10H306.94C304.212 10 302 12.2117 302 14.94V70.06C302 72.7883 304.212 75 306.94 75H362.06C364.788 75 367 72.7883 367 70.06V14.94C367 12.2117 364.788 10 362.06 10Z" fill="#8F8AB0"/>
<path d="M332.498 38.4605C332.497 38.0999 332.568 37.7426 332.707 37.4097C332.845 37.0768 333.049 36.775 333.306 36.5219C333.563 36.2688 333.868 36.0695 334.203 35.9357C334.537 35.8019 334.896 35.7363 335.256 35.7427C336.804 35.7427 338.014 36.9377 338.014 38.4639C338.014 39.1957 337.723 39.8976 337.205 40.4151C336.688 40.9326 335.986 41.2233 335.254 41.2233C334.522 41.2233 333.82 40.9326 333.303 40.4151C332.785 39.8976 332.495 39.1957 332.495 38.4639L332.498 38.4605ZM336.297 38.4605C336.297 37.8343 335.862 37.3871 335.253 37.3883C334.644 37.3894 334.22 37.8388 334.22 38.4594C334.22 39.08 334.654 39.5316 335.252 39.5339C335.85 39.5361 336.296 39.0879 336.297 38.4628V38.4605Z" fill="#D5CDE0"/>
<path d="M331.46 41.0331H329.743V37.5246H329.095V35.8904H329.753C329.75 35.8435 329.75 35.7965 329.753 35.7496C329.755 35.3776 329.845 35.0113 330.016 34.6807C330.319 34.1176 330.813 33.8281 331.421 33.7234C331.697 33.6898 331.975 33.671 332.252 33.667C332.286 33.665 332.32 33.665 332.354 33.667V35.2518H332.34C332.064 35.2518 331.777 35.2518 331.582 35.4973C331.501 35.6105 331.463 35.7492 331.475 35.8881H332.356V37.5258C332.304 37.5258 331.465 37.5258 331.465 37.5258L331.46 41.0331Z" fill="#D5CDE0"/>
<path d="M342.023 37.6496C341.82 37.6564 341.618 37.6752 341.417 37.7059C341.149 37.7499 340.906 37.8904 340.734 38.1009C340.562 38.3114 340.473 38.5775 340.484 38.8491V41.0307H338.775V35.8959H340.477V36.7519C340.783 36.0885 341.317 35.8103 342.023 35.7799V37.6496Z" fill="#D5CDE0"/>
<path d="M344.033 40.1173C344.033 40.4032 343.919 40.6773 343.717 40.8795C343.515 41.0816 343.241 41.1952 342.955 41.1952C342.669 41.1952 342.395 41.0816 342.193 40.8795C341.991 40.6773 341.877 40.4032 341.877 40.1173C341.877 39.8314 341.991 39.5573 342.193 39.3551C342.395 39.153 342.669 39.0394 342.955 39.0394C343.241 39.0394 343.515 39.153 343.717 39.3551C343.919 39.5573 344.033 39.8314 344.033 40.1173Z" fill="#D5CDE0"/>
<path d="M355.543 49.7167L356.957 48.899C356.978 48.925 356.994 48.9419 357.009 48.961C357.186 49.2039 357.442 49.3777 357.733 49.4529C358.025 49.5281 358.333 49.4999 358.606 49.3732C358.736 49.3203 358.849 49.2331 358.933 49.1208C359.017 49.0084 359.069 48.8753 359.083 48.7357C359.095 48.5238 359.095 48.3113 359.083 48.0994C359.066 48.108 359.05 48.1186 359.035 48.1309C358.65 48.5465 358.162 48.7076 357.608 48.6941C357.057 48.6851 356.525 48.4885 356.101 48.1367C355.677 47.7849 355.385 47.299 355.274 46.7591C355.075 45.849 355.23 45.0099 355.837 44.2869C356.476 43.53 357.579 43.2518 358.44 43.6111C358.683 43.7209 358.904 43.8735 359.093 44.0616V43.6111L360.789 43.6235V48.5623C360.789 49.2493 360.581 49.8542 360.053 50.3216C359.722 50.6077 359.322 50.8019 358.893 50.8847C358.055 51.0593 357.24 51.0052 356.466 50.6133C356.098 50.4306 355.791 50.147 355.579 49.7956C355.571 49.7753 355.562 49.7584 355.543 49.7167ZM358.004 47.1488C358.647 47.1488 359.097 46.7118 359.098 46.0822C359.099 45.4526 358.647 45.0111 358.008 45.0099C357.368 45.0088 356.914 45.4481 356.914 46.0777C356.914 46.7073 357.36 47.1477 358.004 47.1488Z" fill="white"/>
<path d="M338.857 44.0639V41.5376H340.568V48.7459H338.862V48.2796L338.806 48.3416C338.35 48.8203 337.776 48.9509 337.145 48.8845C336.77 48.855 336.409 48.7298 336.096 48.5207C335.783 48.3117 335.53 48.0259 335.359 47.6906C334.775 46.6048 334.801 45.5078 335.487 44.4649C335.762 44.0534 336.164 43.7424 336.631 43.5787C337.098 43.415 337.606 43.4074 338.078 43.5571C338.33 43.6344 338.559 43.7712 338.747 43.9558L338.857 44.0639ZM338.857 46.1825C338.857 45.5393 338.44 45.0832 337.837 45.0629C337.18 45.0415 336.739 45.4436 336.692 46.1059C336.659 46.5812 336.881 47.0069 337.265 47.1916C337.899 47.4969 338.852 47.213 338.856 46.1825H338.857Z" fill="white"/>
<path d="M330.871 46.8188C331.047 47.2187 331.365 47.382 331.756 47.4248C332.178 47.4732 332.578 47.4158 332.915 47.1241L332.962 47.0846L334.212 47.9564C334.083 48.0814 333.97 48.2064 333.842 48.3112C333.396 48.6654 332.85 48.87 332.282 48.8957C331.616 48.9464 330.973 48.8552 330.391 48.5151C329.521 48.0071 329.112 47.2243 329.093 46.2332C329.071 45.0415 329.729 44.0447 330.813 43.6427C331.854 43.2586 333.13 43.4636 333.887 44.395C334.443 45.0787 334.593 45.8682 334.45 46.7242C334.439 46.776 334.427 46.8121 334.427 46.8121L330.871 46.8188ZM332.809 45.6193C332.749 45.1846 332.318 44.8872 331.795 44.9086C331.318 44.9289 330.894 45.2533 330.871 45.6193H332.809Z" fill="white"/>
<path d="M344.847 43.6145H346.551V48.7538H344.851V48.2369C344.834 48.2642 344.815 48.2902 344.794 48.3146C344.369 48.8124 343.808 48.9588 343.19 48.889C342.298 48.7899 341.71 48.2042 341.567 47.3122C341.533 47.098 341.515 46.8815 341.513 46.6645C341.507 45.6937 341.513 43.6089 341.513 43.6089H343.223V46.3886C343.221 46.5252 343.237 46.6614 343.27 46.7941C343.367 47.1455 343.709 47.3358 344.122 47.284C344.297 47.2738 344.463 47.2018 344.59 47.0808C344.717 46.9597 344.798 46.7975 344.816 46.6229C344.835 46.5036 344.844 46.3831 344.845 46.2625C344.848 45.4301 344.847 43.6145 344.847 43.6145Z" fill="white"/>
<path d="M350.206 47.6771L351.693 46.9303C351.716 46.9754 351.735 47.0092 351.752 47.043C351.845 47.2268 352.002 47.3698 352.194 47.4446C352.386 47.5194 352.599 47.5208 352.792 47.4484C352.839 47.4355 352.881 47.4088 352.912 47.3716C352.944 47.3344 352.963 47.2886 352.968 47.2401C352.973 47.1929 352.961 47.1455 352.935 47.1065C352.908 47.0674 352.868 47.0393 352.822 47.0272C352.591 46.9461 352.355 46.8808 352.121 46.8019C351.854 46.713 351.581 46.6364 351.324 46.5237C350.118 45.9966 350.262 44.4412 351.12 43.8668C351.661 43.5052 352.258 43.4163 352.888 43.4782C353.4 43.53 353.866 43.7035 354.231 44.074C354.391 44.2538 354.541 44.4417 354.681 44.6372L353.217 45.2983C353.182 45.2454 353.152 45.1992 353.12 45.1542C353.05 45.0436 352.948 44.9573 352.827 44.9067C352.706 44.8562 352.573 44.8439 352.445 44.8714C352.366 44.8858 352.293 44.9225 352.235 44.9773C352.215 44.9964 352.2 45.02 352.191 45.0461C352.182 45.0722 352.18 45.1001 352.184 45.1274C352.188 45.1547 352.198 45.1807 352.214 45.2032C352.23 45.2257 352.251 45.244 352.276 45.2566C352.376 45.3152 352.484 45.3606 352.596 45.3918C352.951 45.4943 353.316 45.5698 353.667 45.6891C354.149 45.8547 354.537 46.1475 354.675 46.6656C354.883 47.4541 354.666 48.2898 353.731 48.6648C353.321 48.8348 352.881 48.9195 352.438 48.9139C351.994 48.9083 351.557 48.8124 351.152 48.6322C350.728 48.4438 350.39 48.1029 350.206 47.6771Z" fill="white"/>
<path d="M349.633 47.837C349.622 48.1171 349.503 48.382 349.301 48.5758C349.098 48.7696 348.828 48.8771 348.548 48.8755C348.268 48.8739 347.999 48.7633 347.799 48.5672C347.599 48.3711 347.483 48.1048 347.476 47.8246C347.486 47.5446 347.605 47.2796 347.808 47.0858C348.01 46.892 348.28 46.7845 348.56 46.7862C348.84 46.7878 349.109 46.8983 349.309 47.0945C349.509 47.2906 349.625 47.5569 349.633 47.837Z" fill="white"/>
<path d="M310.567 36.7159C310.364 36.7029 310.161 36.7318 309.971 36.8007C309.78 36.8697 309.605 36.9772 309.458 37.1167C309.311 37.2561 309.194 37.4244 309.115 37.6111C309.036 37.7977 308.996 37.9987 308.998 38.2015V47.6895C308.997 47.891 309.044 48.0897 309.134 48.27C309.224 48.4503 309.355 48.6071 309.516 48.728C309.632 48.8109 309.76 48.8758 309.895 48.9205V38.2488C309.894 38.1617 309.912 38.0753 309.946 37.9952C309.98 37.915 310.031 37.8428 310.094 37.7831C310.157 37.7235 310.233 37.6776 310.315 37.6484C310.397 37.6192 310.484 37.6074 310.571 37.6136C310.752 37.6241 310.922 37.7028 311.048 37.8338C311.173 37.9648 311.244 38.1385 311.247 38.3198V49.6583C311.246 49.8596 311.293 50.0584 311.383 50.2385C311.473 50.4187 311.604 50.5752 311.765 50.6956C311.879 50.7768 312.004 50.8406 312.137 50.8848V38.3671C312.131 37.9446 311.966 37.5398 311.675 37.2337C311.384 36.9275 310.988 36.7426 310.567 36.7159Z" fill="white"/>
<path d="M312.137 38.367C312.131 37.9445 311.967 37.5397 311.676 37.2335C311.384 36.9274 310.988 36.7425 310.567 36.7158C310.406 36.7069 310.244 36.7236 310.088 36.7654L320.961 33.9676C322.618 33.5385 323.683 34.7166 323.683 36.2732V46.6205C323.683 47.659 323.033 48.4012 322.14 48.6186L313.331 50.8847C313.095 50.9587 312.849 50.9908 312.602 50.9793C312.443 50.9712 312.286 50.942 312.135 50.8926L312.137 38.367Z" fill="#48426D"/>
<path d="M321.282 48.8372L322.136 48.6187C323.029 48.4013 323.679 47.6591 323.679 46.6206V36.2733C323.679 35.3599 323.313 34.5771 322.674 34.1727C321.869 33.5758 320.743 33.5499 319.255 33.8765C319.25 33.8772 319.245 33.8772 319.24 33.8765C319.24 33.8765 313.939 35.2146 313.754 35.2821C313.645 35.333 313.558 35.4228 313.512 35.5341C313.465 35.6454 313.462 35.7701 313.503 35.8836C313.503 35.8836 313.796 35.8115 314.025 35.7496C314.025 35.7496 315.345 35.5851 315.858 36.3589C316.092 36.7125 316.121 37.0009 316.121 37.5618V37.9841C316.07 41.0927 316.228 44.5809 321.282 42.7597V48.8372Z" fill="white"/>
<path d="M320.99 39.6885C321.248 39.4377 321.242 39.0144 320.978 38.743C320.714 38.4716 320.291 38.4549 320.033 38.7057C319.775 38.9566 319.781 39.3799 320.045 39.6513C320.309 39.9227 320.733 39.9394 320.99 39.6885Z" fill="#2B2E4A"/>
<rect opacity="0.41" x="405.463" y="23.475" width="156.712" height="9.29013" fill="#8F8AB0"/>
<rect opacity="0.41" x="386.883" y="42.6488" width="175.292" height="9.29013" fill="#8F8AB0"/>
<rect opacity="0.41" x="386.883" y="61.8293" width="121.652" height="9.29013" fill="#8F8AB0"/>
<path d="M415.173 58H535.35C538.055 58 540.649 59.0746 542.562 60.9875C544.475 62.9004 545.55 65.4947 545.55 68.1999V127.972C545.535 133.594 540.973 138.145 535.35 138.145H529.981C526.444 138.145 523.577 141.012 523.577 144.549V161.776C523.578 162.381 523.21 162.925 522.648 163.147C522.086 163.37 521.445 163.227 521.032 162.786L503.097 143.722C499.753 140.168 495.092 138.15 490.212 138.145H415.173C412.475 138.146 409.886 137.075 407.978 135.167C406.07 133.258 404.999 130.67 405 127.972V68.1785C405.012 62.564 409.559 58.0148 415.173 58V58Z" fill="#D5CDE0"/>
<path d="M535.567 58.0421H491.16C491.16 58.0421 531.665 55.6317 537.618 87.3051C543.572 118.979 509.193 120.052 514.062 142.004C517.089 155.618 522.345 159.719 522.877 163.214C523.445 162.996 523.817 162.448 523.811 161.84V144.591C523.811 141.054 526.678 138.187 530.215 138.187H535.584C541.206 138.187 545.769 133.636 545.783 128.014V68.2205C545.772 62.5893 541.199 58.0332 535.567 58.0421Z" fill="#8F8AB0"/>
<path fill-rule="evenodd" clip-rule="evenodd" d="M415.39 58.0421H535.567C538.272 58.0421 540.866 59.1167 542.779 61.0296C544.692 62.9425 545.767 65.5369 545.767 68.242V128.014C545.752 133.636 541.189 138.187 535.567 138.187H530.198C526.661 138.187 523.794 141.054 523.794 144.591V161.818C523.795 162.423 523.427 162.967 522.865 163.19C522.303 163.412 521.662 163.269 521.249 162.828L503.313 143.765C499.97 140.21 495.309 138.192 490.429 138.187H415.39C412.691 138.188 410.103 137.117 408.195 135.209C406.287 133.301 405.215 130.712 405.217 128.014V68.2206C405.229 62.6062 409.775 58.0569 415.39 58.0421V58.0421Z" stroke="#2B2E4A" stroke-width="1.25" stroke-linecap="round"/>
<path d="M441.819 106.639C445.033 106.639 447.639 104.033 447.639 100.819C447.639 97.6054 445.033 95 441.819 95C438.605 95 436 97.6054 436 100.819C436 104.033 438.605 106.639 441.819 106.639Z" fill="#48426D"/>
<path d="M464.292 106.639C467.506 106.639 470.111 104.033 470.111 100.819C470.111 97.6054 467.506 95 464.292 95C461.078 95 458.473 97.6054 458.473 100.819C458.473 104.033 461.078 106.639 464.292 106.639Z" fill="#48426D"/>
<path d="M486.77 106.639C489.983 106.639 492.589 104.033 492.589 100.819C492.589 97.6054 489.983 95 486.77 95C483.556 95 480.95 97.6054 480.95 100.819C480.95 104.033 483.556 106.639 486.77 106.639Z" fill="#48426D"/>
<path d="M509.241 106.639C512.455 106.639 515.061 104.033 515.061 100.819C515.061 97.6054 512.455 95 509.241 95C506.027 95 503.422 97.6054 503.422 100.819C503.422 104.033 506.027 106.639 509.241 106.639Z" fill="#48426D"/>
<path d="M530.435 229.801L516.336 232.542C515.436 232.718 514.512 232.381 513.937 231.666L495.53 208.681C495 208.016 494.857 207.121 495.154 206.324C495.451 205.527 496.144 204.943 496.981 204.787L511.08 202.045C511.982 201.871 512.906 202.208 513.482 202.922L531.886 225.906C532.419 226.571 532.563 227.467 532.265 228.265C531.968 229.063 531.273 229.646 530.435 229.801Z" fill="#D1E3F8" stroke="#2B2E4A" stroke-width="1.25" stroke-linecap="round"/>
<path d="M509.506 203.907C508.931 203.19 508.006 202.853 507.104 203.03L496.048 205.179C495.495 205.559 495.124 206.153 495.026 206.817C494.928 207.481 495.11 208.157 495.53 208.681L513.938 231.666C514.512 232.381 515.436 232.718 516.336 232.542L527.396 230.394C527.949 230.013 528.32 229.42 528.418 228.755C528.516 228.091 528.334 227.416 527.914 226.891L509.506 203.907Z" fill="#6886C5"/>
<path d="M513.538 208.942L509.506 203.907C508.931 203.19 508.006 202.853 507.104 203.03L496.048 205.179C495.495 205.559 495.124 206.153 495.026 206.817C494.928 207.481 495.11 208.157 495.53 208.681L513.938 231.666C514.512 232.381 515.436 232.718 516.336 232.542L527.396 230.394C527.949 230.013 528.32 229.42 528.418 228.755C528.516 228.091 528.334 227.416 527.914 226.891" stroke="#2B2E4A" stroke-width="1.25" stroke-linecap="round"/>
<path d="M505.596 226.247C505.145 225.368 505.395 224.293 506.235 223.498C507.546 222.247 509.753 220.949 512.111 223.055C515.848 226.394 514.141 230.71 510.646 230.681C508.231 230.653 506.461 227.93 505.596 226.247Z" fill="#DEB097"/>
<path d="M511.577 222.299C511.574 222.36 511.574 222.42 511.579 222.48C511.579 222.48 513.366 228.688 507.563 229.192C508.407 230.037 509.408 230.668 510.549 230.698C514.129 230.763 515.834 226.208 511.972 222.631C511.831 222.514 511.7 222.403 511.577 222.299Z" fill="#D2A186"/>
<path fill-rule="evenodd" clip-rule="evenodd" d="M505.596 226.247C505.145 225.368 505.395 224.293 506.235 223.498C507.546 222.247 509.753 220.949 512.111 223.055C515.848 226.394 514.141 230.71 510.646 230.681C508.231 230.653 506.461 227.93 505.596 226.247Z" stroke="#2B2E4A" stroke-width="1.25" stroke-linecap="round"/>
</svg>
