<svg xmlns="http://www.w3.org/2000/svg" width="18" height="18" fill="none" viewBox="0 0 18 18">
    <path fill="#384A51" d="M14.953 6.51c-.008-.024-.015-.047-.025-.07-.037-.08-.083-.156-.147-.22l-4.5-4.5c-.065-.065-.14-.11-.22-.147-.022-.01-.046-.017-.07-.025-.063-.021-.128-.034-.194-.038-.017-.002-.031-.01-.047-.01H4.5C3.673 1.5 3 2.173 3 3v12c0 .827.673 1.5 1.5 1.5h9c.827 0 1.5-.673 1.5-1.5V6.75c0-.016-.008-.03-.01-.046-.004-.066-.016-.131-.037-.194zM12.44 6H10.5V4.06L12.44 6zM4.5 15V3H9v3.75c0 .415.335.75.75.75h3.75l.002 7.5H4.5z"/>
</svg>
