<svg width="130" height="42" viewBox="0 0 130 42" fill="none" xmlns="http://www.w3.org/2000/svg">
<path d="M15.3962 15.3962L23.3668 17.511C23.5091 17.5556 23.6387 17.6335 23.7449 17.7381C23.8511 17.8427 23.931 17.971 23.9778 18.1126L26.1679 25.6321V30.4257C26.1654 31.1969 25.8573 31.9356 25.3111 32.48C24.7649 33.0244 24.0252 33.3301 23.254 33.3301H5.81823C5.05259 33.3301 4.29448 33.179 3.58735 32.8855C2.88023 32.5919 2.238 32.1616 1.69748 31.6194C1.15697 31.0771 0.728792 30.4335 0.437508 29.7254C0.146223 29.0174 -0.00244343 28.2588 3.03723e-05 27.4931V5.8182C3.03723e-05 4.27512 0.613018 2.79524 1.70414 1.70411C2.79527 0.612988 4.27515 0 5.81823 0L20.3496 0C21.1137 0 21.8703 0.150492 22.5762 0.442884C23.2821 0.735277 23.9235 1.16384 24.4637 1.70411C25.004 2.24438 25.4326 2.88578 25.725 3.59167C26.0174 4.29757 26.1679 5.05415 26.1679 5.8182V7.69808H10.6025C9.83221 7.69808 9.09347 8.00408 8.54879 8.54876C8.00411 9.09344 7.69811 9.83218 7.69811 10.6025V24.8237C7.69811 25.0555 7.7902 25.2779 7.95414 25.4418C8.11807 25.6058 8.34041 25.6979 8.57225 25.6979H14.522C14.7539 25.6979 14.9762 25.6058 15.1402 25.4418C15.3041 25.2779 15.3962 25.0555 15.3962 24.8237V15.3962Z" fill="#8CA6AD"/>
<path d="M28.6304 7.69922H10.6024C9.83211 7.69922 9.09336 8.00522 8.54868 8.5499C8.004 9.09458 7.698 9.83333 7.698 10.6036V24.8249C7.698 25.0567 7.7901 25.279 7.95403 25.443C8.11796 25.6069 8.3403 25.699 8.57214 25.699H14.5219C14.7538 25.699 14.9761 25.6069 15.14 25.443C15.304 25.279 15.3961 25.0567 15.3961 24.8249V15.4255H25.2936C25.5254 15.4255 25.7478 15.5176 25.9117 15.6815C26.0756 15.8455 26.1677 16.0678 26.1677 16.2996V30.3987C26.1653 31.1698 25.8572 31.9086 25.311 32.453C24.7648 32.9974 24.0251 33.3031 23.2539 33.3031H7.698V35.183C7.698 36.726 8.31099 38.2059 9.40211 39.297C10.4932 40.3882 11.9731 41.0012 13.5162 41.0012H28.6304C30.1718 40.9987 31.6493 40.3846 32.7384 39.2937C33.8275 38.2029 34.4392 36.7244 34.4392 35.183V13.5174C34.4392 11.976 33.8275 10.4975 32.7384 9.40665C31.6493 8.3158 30.1718 7.70171 28.6304 7.69922Z" fill="#DCE9EA"/>
<path d="M13.5162 40.4177H28.6304C30.0117 40.4078 31.3332 39.8534 32.3082 38.8749C33.2831 37.8965 33.8327 36.5729 33.8377 35.1916V13.5167C33.8352 12.1289 33.2828 10.7987 32.3015 9.81742C31.3202 8.83612 29.99 8.28373 28.6022 8.28125H10.6024C9.98746 8.28372 9.39838 8.52912 8.96352 8.96398C8.52867 9.39883 8.28327 9.98792 8.2808 10.6029V24.8241C8.2808 24.9014 8.31149 24.9755 8.36614 25.0302C8.42078 25.0848 8.4949 25.1155 8.57218 25.1155H14.522C14.5992 25.1155 14.6734 25.0848 14.728 25.0302C14.7827 24.9755 14.8134 24.9014 14.8134 24.8241V14.8138H25.2936C25.4845 14.8138 25.6735 14.8516 25.8498 14.9249C26.026 14.9982 26.186 15.1057 26.3205 15.2411C26.455 15.3765 26.5615 15.5372 26.6337 15.7139C26.7059 15.8906 26.7424 16.0798 26.7411 16.2707V30.3698C26.7387 31.2938 26.3705 32.1794 25.717 32.8328C25.0636 33.4862 24.1781 33.8544 23.254 33.8569H8.2808V35.154C8.27832 35.8436 8.41185 36.5269 8.67373 37.1647C8.93561 37.8026 9.32071 38.3826 9.80699 38.8715C10.2933 39.3604 10.8712 39.7486 11.5077 40.0139C12.1441 40.2792 12.8267 40.4164 13.5162 40.4177Z" fill="#E4EEEF"/>
<path d="M50.2113 7.83846C48.2625 7.75961 46.3579 8.43262 44.8912 9.71833C44.189 10.4308 43.6465 11.2846 43.2996 12.2229C42.9528 13.1612 42.8097 14.1626 42.8798 15.1606V26.7688C42.8091 27.7516 42.9394 28.7384 43.2626 29.6692C43.5857 30.6 44.0951 31.4553 44.7596 32.1828C45.4543 32.8222 46.2689 33.3176 47.1563 33.6403C48.0436 33.963 48.9861 34.1065 49.9293 34.0627C51.8602 34.1356 53.7451 33.4625 55.1929 32.1828C55.8951 31.4812 56.4395 30.6379 56.7896 29.7091C57.1397 28.7803 57.2875 27.7875 57.2232 26.797V20.2644H50.2113V23.5824H52.9465V26.468C53.0057 27.4312 52.759 28.3886 52.2415 29.2032C51.9881 29.5228 51.6603 29.7755 51.2868 29.9394C50.9132 30.1032 50.5053 30.1732 50.0985 30.1431C48.1622 30.1431 47.1753 28.8178 47.1753 26.2048V15.8655C47.1057 14.7856 47.3401 13.7078 47.852 12.7543C48.0978 12.392 48.4351 12.1011 48.8297 11.9113C49.2242 11.7214 49.662 11.6394 50.0985 11.6734C50.482 11.6599 50.864 11.7283 51.219 11.8742C51.574 12.0201 51.8937 12.24 52.1569 12.5193C52.7182 13.1909 53.0008 14.052 52.9465 14.9256V15.5647H57.242V14.9444C57.3125 13.9726 57.1764 12.997 56.8427 12.0817C56.509 11.1663 55.9851 10.332 55.3057 9.63374C53.9014 8.40286 52.077 7.75997 50.2113 7.83846Z" fill="#E4EEEF"/>
<path d="M66.9705 7.83835C65.022 7.76144 63.1181 8.4342 61.6505 9.71823C60.9483 10.4307 60.4057 11.2845 60.0589 12.2228C59.7121 13.1611 59.569 14.1625 59.639 15.1605V26.7687C59.5684 27.7514 59.6986 28.7383 60.0218 29.6691C60.345 30.5999 60.8544 31.4552 61.5189 32.1827C62.2145 32.8208 63.0292 33.3154 63.9163 33.638C64.8035 33.9606 65.7455 34.1049 66.6886 34.0626C68.6195 34.1355 70.5044 33.4623 71.9522 32.1827C72.6564 31.4826 73.2021 30.6395 73.5523 29.7103C73.9026 28.7811 74.0493 27.7876 73.9825 26.7969V15.1323C74.057 14.1449 73.9287 13.1527 73.6054 12.2167C73.2821 11.2808 72.7707 10.4209 72.1026 9.69003C71.4116 9.05806 70.6024 8.56909 69.7216 8.25129C68.8408 7.93349 67.9058 7.79315 66.9705 7.83835ZM66.8577 30.1806C64.9215 30.1806 63.9345 28.8553 63.9345 26.2423V15.903C63.8673 14.8221 64.1051 13.7441 64.6207 12.7918C64.8636 12.4288 65.199 12.1372 65.5923 11.9472C65.9855 11.7572 66.4224 11.6756 66.8577 11.7109C67.2816 11.688 67.7041 11.7777 68.0821 11.9709C68.4601 12.164 68.7803 12.4537 69.0102 12.8106C69.5295 13.755 69.7706 14.8272 69.7058 15.903V26.2423C69.7652 27.2573 69.5162 28.2665 68.9914 29.1373C68.7532 29.4776 68.4324 29.7519 68.0593 29.9344C67.6861 30.1169 67.2726 30.2016 66.8577 30.1806Z" fill="#E4EEEF"/>
<path d="M79.0111 34.7761H80.7312C80.7452 35.3019 80.9645 35.8013 81.3422 36.1672C81.76 36.5301 82.303 36.7156 82.8555 36.6842C83.1813 36.7228 83.5115 36.6785 83.8155 36.5552C84.1195 36.4319 84.3875 36.2338 84.5944 35.9793C84.9909 35.2966 85.1742 34.511 85.1207 33.7234V31.7026C84.8583 32.1604 84.4746 32.5369 84.0119 32.7907C83.5492 33.0444 83.0254 33.1655 82.4983 33.1407C82.003 33.1533 81.5112 33.0533 81.0602 32.8482C80.6092 32.643 80.2106 32.3381 79.8947 31.9563C79.1562 30.9505 78.8027 29.7133 78.8984 28.4692V24.7094C78.797 23.4618 79.1509 22.2197 79.8947 21.2129C80.2144 20.835 80.6157 20.5347 81.0683 20.3344C81.5209 20.1341 82.0131 20.0392 82.5077 20.0567C83.0406 20.0469 83.5653 20.1882 84.0211 20.4643C84.4769 20.7405 84.8452 21.1402 85.0831 21.617V20.2635H86.8878V33.5636C86.9563 34.7932 86.6049 36.0095 85.8915 37.0132C85.5222 37.4502 85.0544 37.7931 84.5265 38.0137C83.9986 38.2344 83.4259 38.3264 82.8555 38.2821C81.829 38.3481 80.8173 38.0109 80.0357 37.3422C79.6991 37.0068 79.4346 36.6062 79.2584 36.165C79.0823 35.7237 78.9981 35.2511 79.0111 34.7761ZM85.0831 28.2436V24.935C85.0831 22.7638 84.3218 21.6734 82.7991 21.6734C82.4955 21.6603 82.1932 21.7211 81.9182 21.8504C81.6432 21.9797 81.4036 22.1738 81.22 22.416C80.7787 23.1679 80.5816 24.0382 80.656 24.9068V28.2812C80.5809 29.1475 80.771 30.0163 81.2012 30.772C81.3856 31.0186 81.6277 31.2162 81.9064 31.3473C82.185 31.4784 82.4915 31.5391 82.7991 31.524C83.1294 31.5404 83.4585 31.4733 83.7559 31.3287C84.0533 31.1841 84.3093 30.9667 84.5004 30.6968C84.9394 29.9711 85.1429 29.1273 85.0831 28.2812V28.2436Z" fill="#E4EEEF"/>
<path d="M89.294 29.5326V24.7295C89.1851 23.4517 89.5759 22.1815 90.3844 21.186C90.7878 20.7969 91.2676 20.4957 91.7934 20.3016C92.3193 20.1074 92.8797 20.0245 93.4392 20.058C93.9893 20.0269 94.5399 20.112 95.0549 20.308C95.57 20.504 96.0379 20.8063 96.4282 21.1954C97.2215 22.1944 97.6046 23.4581 97.4997 24.7295V29.5326C97.6041 30.8011 97.2209 32.0616 96.4282 33.0574C96.0383 33.4476 95.5707 33.7514 95.0558 33.949C94.5408 34.1465 93.99 34.2335 93.4392 34.2041C92.8797 34.2376 92.3193 34.1547 91.7934 33.9606C91.2676 33.7664 90.7878 33.4653 90.3844 33.0762C89.5768 32.0802 89.1861 30.8103 89.294 29.5326ZM95.695 29.3164V24.9363C95.7677 24.0594 95.5639 23.1818 95.1123 22.4267C94.8949 22.1912 94.631 22.0032 94.3374 21.8747C94.0438 21.7461 93.7268 21.6797 93.4063 21.6797C93.0858 21.6797 92.7687 21.7461 92.4751 21.8747C92.1815 22.0032 91.9177 22.1912 91.7003 22.4267C91.2334 23.1795 91.0224 24.0631 91.0987 24.9457V29.3258C91.021 30.2085 91.2321 31.0925 91.7003 31.8448C91.9068 32.0945 92.1694 32.2919 92.4667 32.421C92.764 32.55 93.0875 32.607 93.411 32.5874C93.734 32.6075 94.0572 32.5496 94.3533 32.4188C94.6493 32.2879 94.9096 32.0879 95.1123 31.8354C95.5495 31.0723 95.7369 30.1914 95.648 29.3164H95.695Z" fill="#E4EEEF"/>
<path d="M100.977 20.2656L103.553 31.1219L106.1 20.2656H108.093L104.455 33.9887H102.66L99.041 20.2656H100.977Z" fill="#E4EEEF"/>
<path d="M111.335 30.305V30.1452H112.999V30.305C112.98 30.619 113.027 30.9335 113.137 31.2282C113.247 31.5229 113.418 31.7912 113.638 32.0157C114.126 32.432 114.756 32.6441 115.396 32.6078C115.996 32.6391 116.586 32.4446 117.05 32.0627C117.414 31.6495 117.63 31.1276 117.666 30.5783C117.702 30.029 117.555 29.4834 117.248 29.0267C116.85 28.6078 116.361 28.2861 115.819 28.0867L114.089 27.3724C113.324 27.1389 112.655 26.6638 112.182 26.0182C111.709 25.3726 111.458 24.5913 111.467 23.7912C111.443 23.2884 111.527 22.7864 111.712 22.3182C111.896 21.85 112.178 21.4262 112.538 21.0748C112.927 20.7229 113.381 20.4513 113.874 20.2754C114.368 20.0996 114.891 20.0231 115.415 20.0503C115.93 20.0256 116.445 20.1044 116.929 20.282C117.413 20.4596 117.857 20.7323 118.234 21.0842C118.593 21.4571 118.871 21.9001 119.05 22.3853C119.23 22.8705 119.307 23.3875 119.278 23.904V24.2518H117.614V24.0638C117.657 23.4084 117.445 22.7618 117.022 22.2591C116.807 22.0395 116.547 21.8687 116.26 21.7584C115.973 21.6481 115.665 21.6009 115.358 21.62C114.787 21.5929 114.228 21.7883 113.798 22.1651C113.605 22.3633 113.456 22.5992 113.359 22.858C113.261 23.1169 113.219 23.393 113.234 23.669C113.223 24.1108 113.351 24.5449 113.601 24.9097C113.942 25.337 114.394 25.6621 114.907 25.8497L116.627 26.5734C117.432 26.8688 118.156 27.3484 118.742 27.9739C119.241 28.6376 119.488 29.4573 119.438 30.2862C119.47 30.8191 119.389 31.353 119.2 31.8522C119.01 32.3513 118.716 32.8044 118.338 33.1812C117.498 33.9066 116.41 34.2773 115.302 34.2151C114.767 34.2451 114.232 34.1673 113.729 33.9865C113.225 33.8056 112.763 33.5254 112.369 33.1624C112.008 32.7843 111.729 32.3348 111.551 31.8428C111.373 31.3508 111.299 30.827 111.335 30.305Z" fill="#E4EEEF"/>
<path d="M121.891 34.7769H123.62C123.625 35.0376 123.682 35.2948 123.786 35.5336C123.891 35.7724 124.042 35.988 124.231 36.168C124.649 36.5317 125.192 36.7173 125.744 36.685C126.067 36.7173 126.392 36.666 126.688 36.5359C126.984 36.4058 127.242 36.2014 127.436 35.9424C127.841 35.2626 128.028 34.4755 127.972 33.6866V31.7033C127.708 32.1619 127.323 32.5388 126.858 32.7925C126.394 33.0463 125.869 33.167 125.34 33.1414C124.844 33.1534 124.351 33.0532 123.898 32.8481C123.446 32.6431 123.046 32.3385 122.727 31.9571C121.993 30.9494 121.639 29.7136 121.731 28.4699V24.7102C121.637 23.4662 121.99 22.2296 122.727 21.223C123.048 20.8468 123.45 20.5475 123.902 20.3474C124.354 20.1473 124.846 20.0514 125.34 20.0669C125.881 20.0444 126.416 20.1778 126.883 20.4511C127.349 20.7244 127.727 21.1261 127.972 21.6084V20.2643H129.777V33.5644C129.843 34.795 129.488 36.0114 128.771 37.0139C128.401 37.4503 127.933 37.7929 127.406 38.0134C126.878 38.234 126.305 38.3263 125.735 38.2829C124.708 38.3509 123.696 38.0134 122.915 37.3429C122.579 37.0076 122.314 36.607 122.138 36.1657C121.962 35.7244 121.878 35.2518 121.891 34.7769ZM127.972 28.2443V24.9358C127.972 22.7645 127.211 21.6742 125.688 21.6742C125.384 21.6611 125.082 21.7218 124.807 21.8511C124.532 21.9805 124.293 22.1745 124.109 22.4167C123.664 23.1673 123.463 24.0379 123.536 24.9076V28.2819C123.465 29.148 123.655 30.0153 124.081 30.7728C124.266 31.0207 124.51 31.2191 124.79 31.3503C125.071 31.4815 125.379 31.5414 125.688 31.5247C126.018 31.5403 126.347 31.4727 126.644 31.3282C126.942 31.1837 127.198 30.9669 127.389 30.6976C127.824 29.97 128.027 29.1276 127.972 28.2819V28.2443Z" fill="#E4EEEF"/>
<path d="M76.6614 32.0605H75.5522C75.3135 32.0605 75.1199 32.2541 75.1199 32.4929V33.602C75.1199 33.8408 75.3135 34.0344 75.5522 34.0344H76.6614C76.9002 34.0344 77.0937 33.8408 77.0937 33.602V32.4929C77.0937 32.2541 76.9002 32.0605 76.6614 32.0605Z" fill="#E4EEEF"/>
<path d="M109.127 32.0605H108.018C107.779 32.0605 107.585 32.2541 107.585 32.4929V33.602C107.585 33.8408 107.779 34.0344 108.018 34.0344H109.127C109.365 34.0344 109.559 33.8408 109.559 33.602V32.4929C109.559 32.2541 109.365 32.0605 109.127 32.0605Z" fill="#E4EEEF"/>
</svg>
