<svg width="14" height="15" viewBox="0 0 14 15" fill="none" xmlns="http://www.w3.org/2000/svg">
<path d="M7 0.5C4.93225 0.5 3.25 2.18225 3.25 4.25C3.25 6.31775 4.93225 8 7 8C9.06775 8 10.75 6.31775 10.75 4.25C10.75 2.18225 9.06775 0.5 7 0.5ZM7 6.5C5.7595 6.5 4.75 5.4905 4.75 4.25C4.75 3.0095 5.7595 2 7 2C8.2405 2 9.25 3.0095 9.25 4.25C9.25 5.4905 8.2405 6.5 7 6.5ZM13.75 14.75V14C13.75 11.1058 11.3942 8.75 8.5 8.75H5.5C2.605 8.75 0.25 11.1058 0.25 14V14.75H1.75V14C1.75 11.9323 3.43225 10.25 5.5 10.25H8.5C10.5677 10.25 12.25 11.9323 12.25 14V14.75H13.75Z" fill="#384A51"/>
</svg>
