<svg xmlns="http://www.w3.org/2000/svg" width="105" height="34" fill="none" viewBox="0 0 105 34">
    <path fill="#384A51" d="M12.457 12.453l6.447 1.713c.11.033.212.093.294.175.082.082.143.184.176.295l1.803 6.064v3.877c0 .624-.248 1.222-.69 1.663-.44.441-1.04.689-1.663.689H4.706c-1.248 0-2.445-.496-3.328-1.378C.496 24.669 0 23.472 0 22.224V4.704C0 3.458.496 2.26 1.378 1.379 2.261.496 3.458 0 4.706 0H16.47c1.248 0 2.445.496 3.327 1.378.883.882 1.379 2.079 1.379 3.327v1.524H8.584c-.624 0-1.223.248-1.664.689-.441.441-.69 1.04-.69 1.663V20.08c0 .187.075.367.207.5.133.131.312.206.5.206h4.828c.187 0 .367-.075.499-.207s.207-.312.207-.499l-.014-7.626z"/>
    <path fill="#7F9DA5" d="M23.162 6.229H8.574c-.624 0-1.222.247-1.664.688-.44.442-.689 1.04-.689 1.664v11.498c0 .187.075.366.207.499.132.132.312.207.5.207h4.837c.187 0 .367-.075.499-.207.132-.133.207-.312.207-.5v-7.625h8c.094 0 .186.018.273.055.087.036.165.09.23.156.067.067.118.147.153.234.035.087.051.18.05.274v11.423c0 .624-.248 1.222-.69 1.664-.44.44-1.04.689-1.663.689H6.23v1.519c0 1.248.495 2.444 1.378 3.327.882.882 2.08 1.378 3.328 1.378h12.235c1.248 0 2.445-.496 3.327-1.378.883-.883 1.379-2.08 1.379-3.327V10.933c0-1.248-.496-2.444-1.379-3.327-.882-.882-2.08-1.377-3.327-1.377h-.01z"/>
    <path fill="#8CA6AD" d="M10.937 32.706h12.235c1.123 0 2.2-.446 2.995-1.24.794-.794 1.24-1.871 1.24-2.994V10.933c0-1.123-.446-2.2-1.24-2.994-.795-.794-1.872-1.24-2.995-1.24H8.584c-.5 0-.978.198-1.331.551-.354.353-.552.832-.552 1.331V20.08c0 .062.025.122.07.166.043.044.103.07.165.07h4.829c.062 0 .122-.026.166-.07.044-.044.069-.104.069-.166v-8.097h8.47c.156 0 .31.031.454.091.144.06.274.148.384.259.109.11.195.242.254.386.058.145.087.3.085.455v11.422c0 .75-.297 1.467-.827 1.996-.53.53-1.248.827-1.996.827H6.7v1.05c0 .556.109 1.107.321 1.621.213.514.525.982.918 1.375.393.394.86.706 1.375.92.514.212 1.065.322 1.622.322z"/>
    <path fill="#384A51" d="M40.63 6.347c-1.574-.075-3.116.461-4.305 1.496-1.078.988-1.629 2.47-1.629 4.403v9.395c0 1.915.518 3.388 1.54 4.376 1.02.988 2.428 1.496 4.183 1.496 1.554.056 3.07-.486 4.235-1.515 1.087-.998 1.638-2.466 1.638-4.357v-5.245H40.63v2.686h2.193v2.352c.047.777-.153 1.55-.57 2.207-.202.264-.466.475-.769.613s-.635.199-.967.177c-1.567 0-2.353-1.068-2.353-3.18v-8.403c-.05-.868.143-1.734.56-2.498.198-.292.47-.527.788-.68.318-.154.671-.221 1.024-.195.31-.011.62.045.908.164.288.12.546.3.757.528.443.54.665 1.227.622 1.924v.513h3.473v-.513c0-1.882-.527-3.336-1.563-4.295-1.13-.993-2.6-1.512-4.103-1.45zM54.193 6.347c-1.576-.076-3.12.46-4.31 1.496-1.078.988-1.629 2.47-1.629 4.403v9.396c0 1.914.518 3.387 1.54 4.375 1.02.988 2.428 1.496 4.183 1.496 1.562.063 3.088-.48 4.259-1.515 1.087-.998 1.642-2.465 1.642-4.357v-9.409c0-1.933-.522-3.415-1.553-4.408-1.128-1.018-2.613-1.55-4.132-1.477zM54.1 24.413c-1.567 0-2.353-1.069-2.353-3.18v-8.384c-.056-.867.131-1.732.541-2.498.198-.3.472-.54.794-.697.322-.157.68-.225 1.037-.197.343-.018.684.055.99.21.306.157.565.39.751.679.422.764.618 1.632.565 2.503v8.383c.045.818-.158 1.63-.584 2.329-.19.276-.45.5-.75.648-.302.15-.636.22-.972.204h-.019zM63.93 28.161h1.411c.004.211.05.419.135.612s.207.367.36.513c.337.294.776.444 1.223.418.26.023.523-.02.763-.124s.45-.267.611-.473c.318-.552.463-1.186.414-1.82v-1.638c-.212.37-.523.676-.897.881-.374.206-.798.305-1.225.286-.401.012-.8-.066-1.167-.229-.366-.162-.692-.406-.95-.712-.537-.628-.806-1.568-.806-2.823V19.98c0-1.255.269-2.195.805-2.823.26-.306.585-.55.951-.713.367-.162.766-.24 1.167-.228.435-.015.866.093 1.241.313.376.22.682.542.881.93v-1.064h1.464V27.15c.053.996-.233 1.98-.81 2.794-.298.354-.677.632-1.104.812-.427.179-.89.254-1.352.218-.823.05-1.634-.219-2.264-.752-.274-.268-.491-.589-.638-.943-.146-.354-.219-.735-.213-1.118zm4.917-5.283v-2.705c0-1.76-.615-2.64-1.844-2.64-.247-.01-.492.04-.714.145-.223.105-.417.262-.567.458-.363.607-.528 1.313-.47 2.018v2.724c-.06.702.094 1.406.442 2.018.15.2.347.36.573.465.227.106.477.153.726.137.267.015.533-.039.774-.155.24-.117.447-.294.6-.513.356-.586.524-1.267.48-1.952zM72.221 23.889v-3.886c0-1.305.294-2.26.88-2.865.326-.316.714-.56 1.14-.718.425-.157.878-.223 1.331-.195.446-.023.892.049 1.308.21.417.163.794.412 1.106.731.577.627.868 1.58.87 2.856v3.886c0 1.289-.29 2.24-.87 2.855-.313.319-.69.567-1.106.729-.416.162-.862.235-1.308.212-.453.028-.906-.039-1.331-.196-.426-.157-.814-.401-1.14-.716-.586-.63-.88-1.598-.88-2.903zm5.177-.174v-3.543c.061-.708-.104-1.418-.47-2.027-.163-.206-.373-.368-.613-.475-.239-.106-.5-.153-.762-.137-.261-.015-.523.031-.763.136-.24.105-.453.264-.62.466-.325.4-.47 1.078-.47 2.037v3.543c0 .94.16 1.642.47 2.042.168.199.38.355.62.457.239.103.499.147.758.13.262.017.523-.03.763-.136.239-.107.449-.27.612-.475.365-.606.53-1.313.47-2.018h.005zM81.713 16.395l2.08 8.783 2.061-8.784h1.59l-2.94 11.099h-1.46l-2.921-11.098h1.59zM90.085 24.51v-.127h1.356v.127c-.015.25.023.502.111.737.089.235.225.449.401.628.394.306.876.476 1.374.484.499.007.986-.148 1.389-.442.294-.334.47-.756.499-1.2.029-.445-.09-.886-.34-1.256-.324-.336-.722-.593-1.162-.753l-1.411-.578c-1.418-.587-2.127-1.553-2.127-2.898-.019-.408.05-.815.2-1.194.15-.38.378-.723.67-1.008.319-.286.69-.506 1.094-.647.404-.141.832-.201 1.26-.176.42-.023.843.04 1.24.183.397.144.76.367 1.07.654.288.298.512.651.658 1.039.145.388.21.801.189 1.215v.277H95.2v-.127c.034-.53-.134-1.053-.471-1.463-.356-.317-.813-.498-1.29-.512-.477-.014-.943.14-1.317.437-.16.158-.284.348-.365.557-.08.209-.117.433-.106.657-.006.36.099.713.301 1.011.275.343.64.602 1.055.748l1.411.583c.649.24 1.232.628 1.704 1.134.412.537.615 1.206.57 1.882.026.433-.04.866-.193 1.271-.153.406-.391.774-.697 1.081-.68.59-1.563.89-2.461.838-.429.02-.858-.043-1.261-.189-.404-.145-.775-.369-1.092-.658-.303-.302-.54-.664-.695-1.063-.156-.398-.227-.824-.209-1.252zM98.631 28.161h1.412c.004.21.049.419.134.612s.207.367.36.512c.338.294.777.444 1.223.42.261.022.523-.021.763-.125.24-.105.45-.267.612-.473.311-.554.449-1.188.395-1.82v-1.638c-.211.368-.519.67-.889.876-.371.206-.791.306-1.215.29-.401.013-.8-.065-1.166-.228-.367-.163-.692-.406-.951-.712-.537-.628-.805-1.569-.805-2.823V19.98c0-1.255.268-2.196.805-2.823.259-.306.584-.55.951-.713.366-.163.765-.24 1.166-.228.433-.01.861.1 1.233.322.372.222.674.544.871.93v-1.073h1.463V27.15c.055.995-.229 1.98-.804 2.794-.3.354-.679.632-1.107.811-.428.18-.892.255-1.355.22-.823.05-1.634-.22-2.263-.753-.271-.27-.485-.591-.628-.945-.143-.354-.213-.734-.205-1.116zm4.899-5.283v-2.705c0-1.76-.612-2.64-1.845-2.64-.246-.01-.491.04-.714.145-.223.105-.417.262-.566.458-.364.607-.528 1.313-.47 2.018v2.724c-.058.702.096 1.405.442 2.018.149.2.346.36.573.465.227.105.476.153.726.137.268.017.536-.036.779-.153.242-.117.45-.294.604-.515.353-.587.517-1.268.471-1.952zM62.033 25.936h-.894c-.195 0-.353.157-.353.352v.894c0 .195.158.353.353.353h.894c.195 0 .353-.158.353-.353v-.894c0-.195-.158-.352-.353-.352zM88.301 25.936h-.894c-.195 0-.353.157-.353.352v.894c0 .195.158.353.353.353h.894c.195 0 .353-.158.353-.353v-.894c0-.195-.158-.352-.353-.352z"/>
</svg>
